<svg width="154" height="154" viewBox="0 0 154 154" fill="none" xmlns="http://www.w3.org/2000/svg">
<circle cx="77" cy="77" r="77" fill="#FA9D9F"/>
<path d="M99.2649 84.1657L61.4988 105.349C60.0119 106.171 58.8574 106.031 58.8574 104.142V77.8509C58.8574 75.0696 59.1723 74.7198 60.6067 73.7577L97.7605 52.3645C99.2474 51.5423 100.507 52.242 100.507 53.9563V79.9675C100.507 82.8887 100.769 83.3435 99.2649 84.1657Z" fill="#202121"/>
<path d="M42.9923 105.926C42.5025 105.769 42.2227 105.261 42.2227 104.317V78.0781C42.2227 75.3143 42.5375 74.947 43.9719 73.9849L56.7588 66.2882L89.1198 47.6588C90.1693 47.0816 90.7816 47.1865 92.146 48.0436L99.143 52.0144C98.6647 52.0679 98.1981 52.1978 97.7611 52.3992C96.4841 53.1864 63.2135 72.3056 63.2135 72.3056L66.5896 74.1248L67.7966 74.8595C67.4946 74.571 67.0993 74.4 66.6822 74.3775C66.2651 74.3551 65.8538 74.4826 65.5225 74.7371L56.3565 80.4046C54.9221 81.3667 54.6073 81.7165 54.6073 84.4978V111.261C54.5878 111.634 54.6598 112.007 54.8172 112.346L55.202 112.818L42.7999 105.839" fill="url(#paint0_linear_676_7389)"/>
<path d="M67.0445 107.013L57.2488 112.453C55.7619 113.275 54.6074 113.153 54.6074 111.263V84.5001C54.6074 81.7188 54.9223 81.369 56.3567 80.4069L65.5227 74.7394C67.027 73.9347 68.2865 74.6169 68.2865 76.3312V102.815C68.339 105.736 68.5489 106.191 67.0445 107.013Z" fill="url(#paint1_linear_676_7389)"/>
<path d="M60.9574 72.9899H51.4766V75.4913C51.4766 76.9781 53.6106 78.1851 56.217 78.1851C58.8234 78.1851 60.9574 76.9781 60.9574 75.4913V72.9899Z" fill="#AAABAC"/>
<path d="M56.217 75.6826C58.8351 75.6826 60.9574 74.4766 60.9574 72.9888C60.9574 71.5011 58.8351 70.295 56.217 70.295C53.5989 70.295 51.4766 71.5011 51.4766 72.9888C51.4766 74.4766 53.5989 75.6826 56.217 75.6826Z" fill="#DBDCDD"/>
<path d="M76.0712 95.3456C71.2958 92.5818 71.6807 82.961 76.9459 73.8649C82.2111 64.7689 90.3276 59.6086 95.103 62.3549L108.012 69.5618L88.0361 101.923L76.0712 95.3456Z" fill="url(#paint2_linear_676_7389)"/>
<path d="M82.2271 98.8431C77.0844 95.8694 77.5392 86.5985 83.0668 77.0651C85.4413 72.8083 88.7852 69.1708 92.8275 66.4472C96.5184 64.1032 98.8974 64.1032 101.451 65.5726L101.976 66.0274C99.7895 64.7679 96.7283 65.2402 93.4048 67.3568C89.529 70.0017 86.3341 73.5263 84.0813 77.6423C78.8336 86.7034 78.5537 96.5167 83.1892 99.193L82.2271 98.8431Z" fill="#383838"/>
<path d="M107.128 91.0647C112.384 81.962 112.772 72.3468 107.994 69.5887C103.217 66.8305 95.0838 71.9738 89.8284 81.0766C84.5729 90.1793 84.1852 99.7945 88.9625 102.553C93.7398 105.311 101.873 100.167 107.128 91.0647Z" fill="#2E2F30"/>
<path d="M105.226 89.9522C109.172 83.1167 109.55 75.9466 106.07 73.9371C102.589 71.9277 96.5686 75.8399 92.6222 82.6753C88.6758 89.5107 88.298 96.6809 91.7785 98.6904C95.259 100.7 101.28 96.7876 105.226 89.9522Z" fill="#000001"/>
<path d="M104.846 89.304C108.477 82.8227 108.688 76.0375 105.316 74.1487C101.945 72.2599 96.2685 75.9829 92.6373 82.4641C89.0061 88.9454 88.7955 95.7307 92.1667 97.6195C95.538 99.5082 101.215 95.7853 104.846 89.304Z" fill="url(#paint3_linear_676_7389)"/>
<path d="M101.731 73.9167L94.3672 98.0912C95.8346 97.9576 97.2406 97.4386 98.4429 96.5868L105.282 74.1266C104.734 73.8595 104.137 73.7035 103.528 73.6674C102.919 73.6314 102.308 73.7161 101.731 73.9167Z" fill="#E0F6FF"/>
<path d="M92.8275 82.2082C89.8188 87.4559 88.9442 93.1759 90.7109 96.1147L96.326 77.4503C94.9623 78.8811 93.7867 80.4799 92.8275 82.2082Z" fill="#E0F6FF"/>
<path d="M86.7408 53.7313L64.1406 66.7631V54.8158L86.7233 42.1513L86.7408 53.7313Z" fill="#5D5E5F"/>
<path d="M61.9727 65.3812L64.1592 66.6057V54.7633L61.9727 53.5214V65.3812Z" fill="#454647"/>
<path d="M84.5903 40.9598L86.7594 42.2018L64.1592 54.7613L61.9727 53.5194L84.5903 40.9598Z" fill="#3A3B3C"/>
<path d="M84.187 52.3835L66.9395 62.3367V56.0744L84.187 46.3661V52.3835Z" fill="#EFF0F1"/>
<defs>
<linearGradient id="paint0_linear_676_7389" x1="42.2227" y1="80.0373" x2="99.143" y2="80.0373" gradientUnits="userSpaceOnUse">
<stop stop-color="#2B2B2B"/>
<stop offset="1" stop-color="#3A3B3C"/>
</linearGradient>
<linearGradient id="paint1_linear_676_7389" x1="48.4676" y1="104.844" x2="74.5663" y2="82.9258" gradientUnits="userSpaceOnUse">
<stop stop-color="#1F1F1F"/>
<stop offset="0.47" stop-color="#484749"/>
<stop offset="1" stop-color="#757476"/>
</linearGradient>
<linearGradient id="paint2_linear_676_7389" x1="72.7302" y1="81.719" x2="108.012" y2="81.719" gradientUnits="userSpaceOnUse">
<stop stop-color="#1F1F1F"/>
<stop offset="0.91" stop-color="#757476"/>
</linearGradient>
<linearGradient id="paint3_linear_676_7389" x1="89.7784" y1="85.8845" x2="107.708" y2="85.8845" gradientUnits="userSpaceOnUse">
<stop offset="0.25" stop-color="#5BAFE3"/>
<stop offset="0.9" stop-color="#82F0FF"/>
</linearGradient>
</defs>
</svg>
