<svg width="154" height="154" viewBox="0 0 154 154" fill="none" xmlns="http://www.w3.org/2000/svg">
<path d="M77 154C119.526 154 154 119.526 154 77C154 34.4741 119.526 0 77 0C34.4741 0 0 34.4741 0 77C0 119.526 34.4741 154 77 154Z" fill="#B1009E"/>
<path d="M116.397 99.9557L77.2647 126.1C77.2647 126.1 72.9245 128.301 72.877 125.379C72.8295 122.456 73.368 122.654 73.368 122.654L118.417 93.984C118.417 93.984 118.393 94.5463 118.108 96.1145C117.823 97.6826 117.253 99.1082 116.397 99.9557Z" fill="#45215E"/>
<path d="M74.1526 46.6699C73.5507 47.4144 72.7349 47.8817 71.832 47.8817C69.9708 47.8817 68.4581 45.9096 68.4581 43.4702C68.4581 42.9792 68.5215 42.504 68.6403 42.0605C67.6503 41.609 67.1117 40.7616 66.8186 39.8983C66.3672 40.9596 66.1138 42.1793 66.1138 43.4702C66.1138 47.5807 68.6719 50.9071 71.832 50.9071C73.5586 50.9071 75.103 49.9092 76.1484 48.3331C74.8337 48.349 74.3347 47.3431 74.1446 46.662L74.1526 46.6699Z" fill="#6CC9CC"/>
<path d="M44.2705 62.5812C43.5973 63.4128 42.6865 63.9276 41.6886 63.9276C39.6135 63.9276 37.9266 61.7258 37.9266 59.0093C37.9266 58.4549 37.9979 57.9322 38.1246 57.4411C37.0237 56.9342 36.4218 55.9997 36.0971 55.0255C35.5981 56.2056 35.313 57.5678 35.313 59.0093C35.313 63.587 38.1642 67.3015 41.6886 67.3015C43.6131 67.3015 45.3318 66.1848 46.5039 64.4345C45.0308 64.4582 44.4764 63.3336 44.2705 62.5733V62.5812Z" fill="#6CC9CC"/>
<mask id="mask0_677_7955" style="mask-type:luminance" maskUnits="userSpaceOnUse" x="80" y="47" width="4" height="4">
<path d="M83.0786 47.9371L81.6134 50.6932C81.55 50.6061 81.4787 50.5269 81.3916 50.4715C81.3045 50.416 81.2094 50.3685 81.1144 50.3448C81.0194 50.321 80.9164 50.3131 80.8134 50.321C80.7105 50.3289 80.6154 50.3606 80.5283 50.416L81.9698 47.652C82.0648 47.5965 82.1598 47.5648 82.2628 47.5569C82.3658 47.549 82.4687 47.5569 82.5717 47.5807C82.6746 47.6044 82.7697 47.652 82.8568 47.7153C82.9439 47.7787 83.0231 47.8579 83.0865 47.945L83.0786 47.9371Z" fill="white"/>
</mask>
<g mask="url(#mask0_677_7955)">
<path d="M83.0786 47.9371L81.6134 50.6932C81.55 50.6061 81.4787 50.5269 81.3916 50.4715C81.3045 50.416 81.2094 50.3685 81.1144 50.3448C81.0194 50.321 80.9164 50.3131 80.8134 50.321C80.7105 50.3289 80.6154 50.3606 80.5283 50.416L81.9698 47.652C82.0648 47.5965 82.1598 47.5648 82.2628 47.5569C82.3658 47.549 82.4687 47.5569 82.5717 47.5807C82.6746 47.6044 82.7697 47.652 82.8568 47.7153C82.9439 47.7787 83.0231 47.8579 83.0865 47.945" fill="#909198"/>
</g>
<path d="M113.444 92.8911L111.076 94.4355L81.6138 50.6933L83.079 47.9371L113.444 92.8911Z" fill="#8C8D94"/>
<mask id="mask1_677_7955" style="mask-type:luminance" maskUnits="userSpaceOnUse" x="110" y="92" width="4" height="4">
<path d="M113.269 94.0315L110.901 95.5363C110.988 95.4809 111.06 95.4017 111.115 95.3146C111.171 95.2274 111.202 95.1324 111.218 95.0294C111.234 94.9265 111.234 94.8235 111.21 94.7206C111.186 94.6176 111.147 94.5146 111.084 94.4196L113.452 92.8831C113.515 92.9782 113.562 93.089 113.586 93.192C113.61 93.295 113.61 93.4058 113.594 93.5088C113.578 93.6118 113.539 93.7068 113.491 93.8018C113.444 93.8969 113.364 93.9682 113.269 94.0236V94.0315Z" fill="white"/>
</mask>
<g mask="url(#mask1_677_7955)">
<path d="M113.269 94.0315L110.901 95.5363C110.988 95.4809 111.06 95.4017 111.115 95.3146C111.171 95.2274 111.202 95.1324 111.218 95.0294C111.234 94.9265 111.234 94.8235 111.21 94.7206C111.186 94.6176 111.147 94.5146 111.084 94.4196L113.452 92.8831C113.515 92.9782 113.562 93.089 113.586 93.192C113.61 93.295 113.61 93.4058 113.594 93.5088C113.578 93.6118 113.539 93.7068 113.491 93.8018C113.444 93.8969 113.364 93.9682 113.269 94.0236" fill="#909198"/>
</g>
<path d="M81.9532 47.6441L80.5197 50.4082L44.1748 71.0477L44.5866 68.7588L81.9532 47.6441Z" fill="#8C8D94"/>
<mask id="mask2_677_7955" style="mask-type:luminance" maskUnits="userSpaceOnUse" x="43" y="68" width="2" height="4">
<path d="M44.1753 71.0477C44.1199 71.0793 44.0723 71.111 44.0248 71.1506C43.9773 71.1902 43.9456 71.2377 43.906 71.2773C43.8664 71.3169 43.8427 71.3724 43.8268 71.4278C43.811 71.4833 43.7872 71.5308 43.7793 71.5862L44.1832 69.3132C44.1911 69.2577 44.207 69.2023 44.2307 69.1469C44.2545 69.0914 44.2783 69.0439 44.3179 68.9964C44.3575 68.9489 44.3891 68.9013 44.4367 68.8617C44.4842 68.8221 44.5317 68.7825 44.5871 68.7509C44.4604 69.4399 44.2941 70.3507 44.1674 71.0397L44.1753 71.0477Z" fill="white"/>
</mask>
<g mask="url(#mask2_677_7955)">
<path d="M44.587 68.7587L44.1673 71.0476C44.1118 71.0793 44.0643 71.1109 44.0247 71.1505C43.9851 71.1901 43.9455 71.2297 43.9138 71.2773C43.8821 71.3248 43.8505 71.3723 43.8346 71.4198C43.8188 71.4673 43.795 71.5228 43.7871 71.5782L44.191 69.3052C44.1989 69.2497 44.2148 69.1943 44.2385 69.1389C44.2623 69.0834 44.2861 69.0359 44.3257 68.9884C44.3653 68.9409 44.3969 68.9013 44.4445 68.8537C44.492 68.8062 44.5395 68.7745 44.5949 68.7429" fill="#909198"/>
<path d="M44.1911 69.3052L43.7793 71.5862V71.5941L44.1832 69.3132H44.1911V69.3052Z" fill="#93949C"/>
</g>
<mask id="mask3_677_7955" style="mask-type:luminance" maskUnits="userSpaceOnUse" x="43" y="69" width="2" height="4">
<path d="M43.7795 71.5941L44.1834 69.3211C44.1755 69.3686 44.1676 69.4161 44.1676 69.4637C44.1676 69.5112 44.1676 69.5587 44.1834 69.6141C44.1993 69.6696 44.2072 69.7092 44.231 69.7567C44.2547 69.8042 44.2785 69.8517 44.3022 69.8993L43.8904 72.1565C43.8587 72.1089 43.835 72.0693 43.8191 72.0218C43.8033 71.9743 43.7874 71.9268 43.7795 71.8793C43.7716 71.8317 43.7637 71.7842 43.7637 71.7367C43.7637 71.6892 43.7637 71.6417 43.7795 71.5941Z" fill="white"/>
</mask>
<g mask="url(#mask3_677_7955)">
<path d="M44.31 69.8993L43.8982 72.1565C43.8665 72.1089 43.8428 72.0693 43.8269 72.0218C43.8111 71.9743 43.7952 71.9268 43.7873 71.8793C43.7794 71.8317 43.7715 71.7842 43.7715 71.7367C43.7715 71.6892 43.7715 71.6417 43.7873 71.5941L44.1912 69.3211C44.1833 69.3686 44.1754 69.4161 44.1754 69.4637C44.1754 69.5112 44.1754 69.5587 44.1912 69.6141C44.2071 69.6696 44.215 69.7092 44.2388 69.7567C44.2625 69.8042 44.2863 69.8517 44.31 69.8993Z" fill="#82667F"/>
</g>
<path d="M76.6317 118.33L75.2378 119.193L110.902 95.5442L113.27 94.0315L76.6317 118.33Z" fill="#8C8D94"/>
<path d="M75.4037 118.061L74.0494 118.924L43.8979 72.1565L44.3098 69.8993L75.4037 118.061Z" fill="#7E637C"/>
<path d="M80.3148 41.9972C80.6237 41.8229 80.9642 41.72 81.3127 41.6883C81.6612 41.6566 82.0176 41.6883 82.3581 41.7754C82.6987 41.8625 83.0313 42.013 83.3244 42.2268C83.6174 42.4407 83.8867 42.6941 84.1005 43.003L117.959 92.9386C118.18 93.2712 118.331 93.6276 118.418 93.984C118.505 94.3404 118.513 94.7127 118.457 95.0612C118.402 95.4096 118.283 95.7423 118.101 96.0432C117.919 96.3442 117.673 96.6056 117.372 96.8115L77.5349 123.573C77.1943 123.803 76.8141 123.953 76.434 124.025C76.0538 124.096 75.6578 124.088 75.2777 124.001C74.8975 123.914 74.5332 123.763 74.2085 123.534C73.8837 123.304 73.5907 123.011 73.361 122.654L38.5526 68.5054C38.3388 68.1648 38.2041 67.8084 38.1408 67.4441C38.0774 67.0798 38.1012 66.7155 38.1883 66.367C38.2754 66.0185 38.4417 65.6859 38.6635 65.3928C38.8853 65.0998 39.1783 64.8464 39.5347 64.6484L80.3148 42.0051V41.9972ZM113.444 92.8911L83.0789 47.9372C83.0155 47.8421 82.9363 47.7629 82.8492 47.7075C82.7621 47.652 82.667 47.6045 82.5641 47.5728C82.4611 47.5412 82.3581 47.5412 82.2552 47.5491C82.1522 47.557 82.0493 47.5887 81.9621 47.6441L44.5956 68.7509C44.4926 68.8064 44.4055 68.8856 44.3421 68.9727C44.2788 69.0598 44.2313 69.1548 44.2075 69.2578C44.1837 69.3608 44.1758 69.4716 44.1917 69.5746C44.2075 69.6776 44.2471 69.7884 44.3105 69.8914L75.4123 118.053C75.4836 118.156 75.5628 118.243 75.6578 118.306C75.7529 118.37 75.8637 118.417 75.9746 118.441C76.0855 118.465 76.1964 118.465 76.3152 118.441C76.434 118.417 76.5369 118.378 76.6399 118.314L113.278 94.0157C113.365 93.9524 113.444 93.8811 113.5 93.794C113.555 93.7068 113.587 93.6039 113.603 93.5009C113.618 93.398 113.618 93.2871 113.595 93.1841C113.571 93.0812 113.523 92.9703 113.46 92.8752" fill="#F0F0F8"/>
<path d="M81.953 47.6441C82.048 47.5887 82.1431 47.557 82.246 47.5491C82.349 47.5411 82.4519 47.5491 82.5549 47.5728C82.6579 47.5966 82.7529 47.6441 82.84 47.7075C82.9271 47.7708 83.0063 47.85 83.0697 47.9371L113.435 92.891C113.498 92.9861 113.546 93.097 113.57 93.1999C113.593 93.3029 113.593 93.4138 113.578 93.5167C113.562 93.6197 113.522 93.7147 113.475 93.8098C113.427 93.9048 113.348 93.9761 113.253 94.0315L76.6149 118.33C76.5119 118.393 76.4011 118.441 76.2902 118.457C76.1793 118.473 76.0605 118.473 75.9496 118.457C75.8387 118.441 75.7358 118.386 75.6328 118.322C75.5299 118.259 75.4507 118.172 75.3873 118.069L44.2855 69.9072C44.2221 69.8042 44.1825 69.7013 44.1667 69.5904C44.1508 69.4795 44.1508 69.3766 44.1825 69.2736C44.2142 69.1706 44.2538 69.0756 44.3171 68.9885C44.3805 68.9014 44.4676 68.8301 44.5706 68.7667L81.9371 47.6599L81.953 47.6441Z" fill="#D6A9CF"/>
<path d="M77.2654 123.819C76.7902 124.048 76.3229 124.286 75.8477 124.516C75.523 124.674 75.1824 124.769 74.8418 124.793C74.5013 124.817 74.1528 124.793 73.8202 124.69C73.4875 124.587 73.1707 124.444 72.8856 124.23C72.6005 124.017 72.347 123.755 72.1411 123.431L73.4479 122.702C73.6618 123.035 73.9231 123.304 74.2162 123.526C74.5092 123.747 74.8418 123.906 75.1824 124.001C75.523 124.096 75.8794 124.135 76.2358 124.104C76.5922 124.072 76.9406 123.977 77.2733 123.819H77.2654Z" fill="#45215E"/>
<mask id="mask4_677_7955" style="mask-type:luminance" maskUnits="userSpaceOnUse" x="72" y="122" width="6" height="3">
<path d="M77.2654 123.819C76.7902 124.048 76.3229 124.286 75.8477 124.516C75.523 124.674 75.1824 124.769 74.8418 124.793C74.5013 124.817 74.1528 124.793 73.8202 124.69C73.4875 124.587 73.1707 124.444 72.8856 124.23C72.6005 124.017 72.347 123.755 72.1411 123.431L73.4479 122.702C73.6618 123.035 73.9231 123.304 74.2162 123.526C74.5092 123.747 74.8418 123.906 75.1824 124.001C75.523 124.096 75.8794 124.135 76.2358 124.104C76.5922 124.072 76.9406 123.977 77.2733 123.819H77.2654Z" fill="white"/>
</mask>
<g mask="url(#mask4_677_7955)">
<path d="M77.2654 123.819L75.8477 124.516C75.523 124.674 75.1824 124.769 74.8418 124.793C74.5013 124.817 74.1528 124.793 73.8202 124.69C73.4875 124.587 73.1707 124.444 72.8856 124.23C72.6005 124.017 72.347 123.755 72.1411 123.431L73.4479 122.702C73.6618 123.035 73.9231 123.304 74.2162 123.526C74.5092 123.747 74.8418 123.906 75.1824 124.001C75.523 124.096 75.8794 124.135 76.2358 124.104C76.5922 124.072 76.9406 123.977 77.2733 123.819" fill="#45215E"/>
</g>
<mask id="mask5_677_7955" style="mask-type:luminance" maskUnits="userSpaceOnUse" x="37" y="66" width="2" height="5">
<path d="M37.8872 69.1231C37.9664 68.339 38.0377 67.555 38.1169 66.7709C38.101 66.9134 38.101 67.0639 38.1169 67.2144C38.1327 67.3649 38.1486 67.5074 38.1882 67.6579C38.2278 67.8084 38.2753 67.951 38.3307 68.0935C38.3862 68.2361 38.4654 68.3786 38.5525 68.5133L38.3149 70.818C38.2278 70.6834 38.1565 70.5487 38.101 70.4062C38.0456 70.2636 37.9981 70.129 37.9585 69.9864C37.9189 69.8438 37.903 69.7013 37.8951 69.5587C37.8872 69.4162 37.8951 69.2736 37.8951 69.131L37.8872 69.1231Z" fill="white"/>
</mask>
<g mask="url(#mask5_677_7955)">
<path d="M38.553 68.5054L38.3154 70.8101C38.2283 70.6754 38.157 70.5408 38.1015 70.3982C38.0461 70.2557 37.9986 70.121 37.959 69.9785C37.9194 69.8359 37.9035 69.6934 37.8956 69.5508C37.8877 69.4082 37.8956 69.2657 37.8956 69.1231L38.1253 66.7709C38.1095 66.9134 38.1095 67.0639 38.1253 67.2144C38.1411 67.3649 38.157 67.5074 38.1966 67.6579C38.2362 67.8084 38.2837 67.951 38.3391 68.0935C38.3946 68.2361 38.4738 68.3786 38.5609 68.5133" fill="#45215E"/>
</g>
<path d="M73.3685 122.654L72.0617 123.383L38.3066 70.8101L38.5522 68.5054L73.3685 122.654Z" fill="#45215E"/>
<path d="M77.2654 124.959C76.7902 125.189 76.3229 125.426 75.8477 125.656C75.523 125.814 75.1824 125.91 74.8418 125.933C74.5013 125.957 74.1528 125.933 73.8202 125.83C73.4875 125.727 73.1707 125.585 72.8856 125.371C72.6005 125.157 72.347 124.896 72.1411 124.571L73.4479 123.842C73.6618 124.175 73.9231 124.444 74.2162 124.666C74.5092 124.888 74.8418 125.046 75.1824 125.141C75.523 125.236 75.8794 125.276 76.2358 125.244C76.5922 125.213 76.9406 125.118 77.2733 124.959H77.2654Z" fill="#45215E"/>
<mask id="mask6_677_7955" style="mask-type:luminance" maskUnits="userSpaceOnUse" x="72" y="123" width="6" height="3">
<path d="M77.2654 124.959C76.7902 125.189 76.3229 125.426 75.8477 125.656C75.523 125.814 75.1824 125.91 74.8418 125.933C74.5013 125.957 74.1528 125.933 73.8202 125.83C73.4875 125.727 73.1707 125.585 72.8856 125.371C72.6005 125.157 72.347 124.896 72.1411 124.571L73.4479 123.842C73.6618 124.175 73.9231 124.444 74.2162 124.666C74.5092 124.888 74.8418 125.046 75.1824 125.141C75.523 125.236 75.8794 125.276 76.2358 125.244C76.5922 125.213 76.9406 125.118 77.2733 124.959H77.2654Z" fill="white"/>
</mask>
<g mask="url(#mask6_677_7955)">
<path d="M77.2654 124.959L75.8477 125.656C75.523 125.814 75.1824 125.91 74.8418 125.933C74.5013 125.957 74.1528 125.933 73.8202 125.83C73.4875 125.727 73.1707 125.585 72.8856 125.371C72.6005 125.157 72.347 124.896 72.1411 124.571L73.4479 123.842C73.6618 124.175 73.9231 124.444 74.2162 124.666C74.5092 124.888 74.8418 125.046 75.1824 125.141C75.523 125.236 75.8794 125.276 76.2358 125.244C76.5922 125.213 76.9406 125.118 77.2733 124.959" fill="#45215E"/>
</g>
<mask id="mask7_677_7955" style="mask-type:luminance" maskUnits="userSpaceOnUse" x="37" y="67" width="2" height="5">
<path d="M37.8872 70.2636C37.9664 69.4795 38.0377 68.6955 38.1169 67.9114C38.101 68.0539 38.101 68.2044 38.1169 68.3549C38.1327 68.5054 38.1486 68.6479 38.1882 68.7984C38.2278 68.9489 38.2753 69.0915 38.3307 69.234C38.3862 69.3766 38.4654 69.5191 38.5525 69.6538L38.3149 71.9585C38.2278 71.8239 38.1565 71.6892 38.101 71.5467C38.0456 71.4041 37.9981 71.2695 37.9585 71.1269C37.9189 70.9843 37.903 70.8418 37.8951 70.6992C37.8872 70.5567 37.8951 70.4141 37.8951 70.2715L37.8872 70.2636Z" fill="white"/>
</mask>
<g mask="url(#mask7_677_7955)">
<path d="M38.553 69.6459L38.3154 71.9506C38.2283 71.8159 38.157 71.6813 38.1015 71.5387C38.0461 71.3962 37.9986 71.2615 37.959 71.119C37.9194 70.9764 37.9035 70.8339 37.8956 70.6913C37.8877 70.5487 37.8956 70.4062 37.8956 70.2636L38.1253 67.9114C38.1095 68.0539 38.1095 68.2044 38.1253 68.3549C38.1411 68.5054 38.157 68.6479 38.1966 68.7984C38.2362 68.9489 38.2837 69.0915 38.3391 69.234C38.3946 69.3766 38.4738 69.5191 38.5609 69.6538" fill="#45215E"/>
</g>
<path d="M73.3685 123.787L72.0617 124.524L38.3066 71.9506L38.5522 69.6459L73.3685 123.787Z" fill="#45215E"/>
<path d="M77.2654 126.1C76.7902 126.329 76.3229 126.567 75.8477 126.797C75.523 126.955 75.1824 127.05 74.8418 127.074C74.5013 127.098 74.1528 127.074 73.8202 126.971C73.4875 126.868 73.1707 126.725 72.8856 126.511C72.6005 126.298 72.347 126.036 72.1411 125.712L73.4479 124.983C73.6618 125.316 73.9231 125.585 74.2162 125.807C74.5092 126.028 74.8418 126.187 75.1824 126.282C75.523 126.377 75.8794 126.416 76.2358 126.385C76.5922 126.353 76.9406 126.258 77.2733 126.1H77.2654Z" fill="#45215E"/>
<mask id="mask8_677_7955" style="mask-type:luminance" maskUnits="userSpaceOnUse" x="72" y="124" width="6" height="4">
<path d="M77.2654 126.1C76.7902 126.329 76.3229 126.567 75.8477 126.797C75.523 126.955 75.1824 127.05 74.8418 127.074C74.5013 127.098 74.1528 127.074 73.8202 126.971C73.4875 126.868 73.1707 126.725 72.8856 126.511C72.6005 126.298 72.347 126.036 72.1411 125.712L73.4479 124.983C73.6618 125.316 73.9231 125.585 74.2162 125.807C74.5092 126.028 74.8418 126.187 75.1824 126.282C75.523 126.377 75.8794 126.416 76.2358 126.385C76.5922 126.353 76.9406 126.258 77.2733 126.1H77.2654Z" fill="white"/>
</mask>
<g mask="url(#mask8_677_7955)">
<path d="M73.3687 122.654V126.519C73.3687 126.519 74.2954 128.04 77.2654 126.108L75.8477 126.804C75.523 126.963 75.1824 127.058 74.8418 127.082C74.5013 127.105 74.1528 127.082 73.8202 126.979C73.4875 126.876 73.1707 126.733 72.8856 126.519C72.6005 126.306 72.347 126.044 72.1411 125.719L73.4479 124.991C73.6618 125.323 73.9231 125.593 74.2162 125.814C74.5092 126.036 74.8418 126.195 75.1824 126.29C75.523 126.385 75.8794 126.424 76.2358 126.393C76.5922 126.361 76.9406 126.266 77.2733 126.108" fill="#45215E"/>
</g>
<mask id="mask9_677_7955" style="mask-type:luminance" maskUnits="userSpaceOnUse" x="37" y="69" width="2" height="5">
<path d="M37.8872 71.3962C37.9664 70.6121 38.0377 69.828 38.1169 69.0439C38.101 69.1865 38.101 69.337 38.1169 69.4875C38.1327 69.6379 38.1486 69.7805 38.1882 69.931C38.2278 70.0815 38.2753 70.224 38.3307 70.3666C38.3862 70.5091 38.4654 70.6517 38.5525 70.7863L38.3149 73.0911C38.2278 72.9564 38.1565 72.8218 38.101 72.6792C38.0456 72.5367 37.9981 72.402 37.9585 72.2595C37.9189 72.1169 37.903 71.9743 37.8951 71.8318C37.8872 71.6892 37.8951 71.5467 37.8951 71.4041L37.8872 71.3962Z" fill="white"/>
</mask>
<g mask="url(#mask9_677_7955)">
<path d="M38.553 70.7784L38.3154 73.0831C38.2283 72.9485 38.157 72.8139 38.1015 72.6713C38.0461 72.5287 37.9986 72.3941 37.959 72.2515C37.9194 72.109 37.9035 71.9664 37.8956 71.8239C37.8877 71.6813 37.8956 71.5387 37.8956 71.3962L38.1253 69.0439C38.1095 69.1865 38.1095 69.337 38.1253 69.4875C38.1411 69.6379 38.157 69.7805 38.1966 69.931C38.2362 70.0815 38.2837 70.224 38.3391 70.3666C38.3946 70.5091 38.4738 70.6517 38.5609 70.7863" fill="#45215E"/>
</g>
<path d="M73.3685 124.927L72.0617 125.664L38.3066 73.0911L38.5522 70.7784L73.3685 124.927Z" fill="#45215E"/>
<path d="M41.6887 50.725C39.281 50.725 37.1822 52.4674 36.0972 55.0335C36.4219 55.9997 37.0238 56.9422 38.1247 57.4491C38.6236 55.5087 40.0334 54.1068 41.6887 54.1068C43.7637 54.1068 45.4507 56.3086 45.4507 59.0251C45.4507 60.4349 44.9992 61.6942 44.2706 62.5891C44.4765 63.3415 45.0309 64.4662 46.504 64.4503C47.4703 62.9931 48.0643 61.1002 48.0643 59.0251C48.0643 54.4474 45.2131 50.7329 41.6887 50.7329V50.725Z" fill="#6CC9CC"/>
<g style="mix-blend-mode:multiply">
<path d="M42.8372 54.1781C39.5187 53.0693 37.3803 55.2156 36.7546 57.6312C36.129 60.0468 37.4437 63.785 40.6275 63.8484C40.6275 63.8484 36.7942 61.5358 38.1248 57.4411C39.4554 53.3465 42.8372 54.1781 42.8372 54.1781Z" fill="#A695B2"/>
</g>
<path d="M71.839 36.0333C69.6769 36.0333 67.7998 37.5936 66.8257 39.8983C67.1108 40.7695 67.6573 41.609 68.6473 42.0604C69.0987 40.318 70.358 39.0588 71.839 39.0588C73.7002 39.0588 75.213 41.0308 75.213 43.4702C75.213 44.7295 74.809 45.862 74.1517 46.6699C74.3338 47.351 74.8328 48.3568 76.1554 48.341C77.0266 47.0342 77.5573 45.3393 77.5573 43.4781C77.5573 39.3676 74.9991 36.0412 71.839 36.0412V36.0333Z" fill="#6CC9CC"/>
<g style="mix-blend-mode:multiply">
<path d="M72.8692 39.1301C69.8912 38.1401 67.9746 40.0567 67.4123 42.2268C66.85 44.3969 68.0301 47.747 70.8813 47.8025C70.8813 47.8025 67.444 45.7274 68.6399 42.0525C69.8358 38.3777 72.8692 39.1221 72.8692 39.1221V39.1301Z" fill="#A695B2"/>
</g>
<path d="M91.4103 40.3418C91.4974 40.2864 91.5846 40.2547 91.6796 40.2468C91.7746 40.2388 91.8618 40.2626 91.941 40.3022C92.0202 40.3418 92.1073 40.4052 92.1706 40.4923C92.234 40.5794 92.2974 40.6824 92.337 40.8012L98.5066 68.3073C98.5462 68.4261 98.57 68.5449 98.57 68.6637C98.57 68.7825 98.5621 68.9092 98.5304 69.0201C98.4987 69.131 98.4591 69.2419 98.4037 69.3369C98.3482 69.432 98.277 69.5112 98.1898 69.5745L59.3977 93.287C59.3026 93.3583 59.2076 93.3979 59.1046 93.4058C59.0017 93.4137 58.9066 93.4058 58.8116 93.3741C58.7166 93.3424 58.6294 93.2791 58.5582 93.1999C58.4869 93.1207 58.4156 93.0177 58.376 92.8989L50.8678 64.1176C50.8203 63.9909 50.7966 63.8563 50.7886 63.7216C50.7807 63.587 50.7966 63.4524 50.8282 63.3336C50.8599 63.2148 50.9154 63.088 50.9787 62.993C51.0421 62.898 51.1292 62.8029 51.2322 62.7396L91.3945 40.3339L91.4103 40.3418Z" fill="#B27FAC"/>
<path d="M91.3076 33.2613C91.6086 33.0713 91.9175 32.9762 92.2343 32.9683C92.5511 32.9604 92.8521 33.0237 93.1451 33.1742C93.4381 33.3247 93.7074 33.5385 93.9371 33.8237C94.1668 34.1088 94.3648 34.4573 94.5152 34.8612L101.477 64.3869C101.619 64.775 101.691 65.1869 101.707 65.5987C101.722 66.0106 101.683 66.4224 101.588 66.8026C101.493 67.1827 101.342 67.555 101.152 67.8717C100.962 68.1885 100.717 68.4578 100.431 68.6637L98.998 69.6775C99.0851 69.6141 99.1564 69.535 99.2118 69.4399C99.2672 69.3449 99.3148 69.234 99.3385 69.1231C99.3623 69.0122 99.3781 68.8855 99.3781 68.7667C99.3781 68.6479 99.3544 68.5212 98.6653 68.6241L92.3452 41.1021C92.9392 40.7695 92.8837 40.6665 92.8124 40.5794C92.7412 40.4923 92.662 40.4289 92.5749 40.3893C92.4877 40.3497 92.4006 40.326 92.3056 40.3339C92.2105 40.3418 92.1234 40.3656 92.0363 40.421L51.2562 62.7633C51.1532 62.8267 51.074 62.9138 51.0028 63.0168C50.9315 63.1197 50.884 63.2385 50.8523 63.3573C50.8206 63.4761 50.8048 63.6187 50.8127 63.7454C50.8206 63.8722 50.8444 64.0147 50.8919 64.1414L58.5743 92.9385C58.6218 93.0574 58.6852 93.1603 58.7644 93.2395C58.8436 93.3187 58.9307 93.3741 59.0257 93.4137C59.1208 93.4534 59.2237 93.4613 59.3188 93.4454C59.4138 93.4296 59.5168 93.39 59.6197 93.3266L57.9803 94.4829C57.6556 94.7126 57.3071 94.8473 56.9665 94.9027C56.626 94.9581 56.2854 94.9185 55.9607 94.7998C55.636 94.681 55.335 94.483 55.0736 94.2137C54.8123 93.9444 54.5905 93.5959 54.4242 93.1841L45.728 62.0347C45.5617 61.607 45.4667 61.1477 45.4429 60.6962C45.4192 60.2448 45.4746 59.7933 45.5855 59.3657C45.6964 58.938 45.8785 58.542 46.1161 58.1935C46.3537 57.845 46.6468 57.552 46.9873 57.3381L91.3156 33.2693L91.3076 33.2613Z" fill="#D5D5DD"/>
<path opacity="0.53" d="M109.182 91.5605L109.349 91.4496L95.7501 71.5071L95.8135 71.4912L92.8593 60.3161L92.8831 60.3003L92.8355 60.229L91.2674 54.289L91.1644 53.8851L89.4775 47.5015L89.2874 47.5491L89.1844 47.3828L55.9917 67.6817L56.0947 67.848L56.0155 67.8718L60.9971 86.7214L60.8863 86.7848L61.0922 87.1253L62.2802 91.608L62.1931 91.6714L63.0326 92.899L62.7475 93.0732L62.9534 93.4138L63.2543 93.2316L66.4461 97.9124L66.6599 98.2529H66.6758L76.1719 112.176L76.3382 112.065L76.4411 112.232L80.9397 109.428L81.0664 109.618L81.3911 109.396L81.2723 109.222L95.2511 100.494L95.2749 100.526L95.5996 100.304L95.5838 100.28L99.5755 97.7856L99.6943 97.9599L100.019 97.7381L99.9081 97.5718L109.277 91.7268L109.175 91.5605H109.182ZM82.6267 101.207L79.6487 96.8352L84.0839 94.0712L87.0619 98.443L82.6267 101.207ZM87.2757 98.7677L90.2536 103.14L85.5095 106.102L85.8184 105.896L82.8484 101.54L87.2836 98.7756L87.2757 98.7677ZM74.8651 99.8211L79.3082 97.0491L82.2861 101.421L77.843 104.193L74.8651 99.8211ZM77.5103 104.399L73.186 107.1L70.2081 102.728L74.5324 100.027L77.5103 104.399ZM72.1564 85.8502L70.9051 81.114L75.2769 78.4371L76.4253 82.7931L76.4015 82.8089L76.4491 82.8802L76.5203 83.1653L76.6233 83.1416L77.3123 84.1553L72.8534 86.8798L72.1485 85.8423L72.1564 85.8502ZM81.209 89.1608L85.6442 86.3967L88.6221 90.7685L84.1869 93.5326L81.209 89.1608ZM83.8543 93.7464L79.4191 96.5105L76.4411 92.1387L80.8763 89.3746L83.8543 93.7464ZM76.8213 82.7218L75.6333 78.2312L80.0051 75.5542L81.2565 80.2745L81.4387 80.227L82.1198 81.2249L77.6608 83.9494L76.8213 82.7139V82.7218ZM72.3623 65.8443L76.7342 63.1673L78.2231 68.7984L73.8513 71.4754L72.3623 65.8443ZM73.4949 71.6892L69.1231 74.3662L67.6341 68.7351L72.0059 66.0581L73.4949 71.6892ZM86.4758 78.5638L82.4603 81.019L81.6287 79.7993L81.5575 79.8468L80.3695 75.3324L84.7413 72.6555L85.9689 77.2887L85.7313 77.4471L86.4837 78.548L86.4758 78.5638ZM89.7547 83.3633L85.763 85.8581L82.6821 81.3437L86.6975 78.8885L89.7467 83.3633H89.7547ZM87.0381 78.6826L91.6713 75.8472L94.6967 80.2824L90.0952 83.1574L87.046 78.6826H87.0381ZM80.2507 74.9364L78.6746 68.9806L83.0464 66.3036L84.6225 72.2595L80.2507 74.9364ZM78.5716 68.5846L77.0827 62.9535L81.4545 60.2765L82.9435 65.9076L78.5716 68.5846ZM78.3261 69.2024L79.9022 75.1582L75.5303 77.8352L73.9543 71.8793L78.3261 69.2024ZM82.3415 81.5496L85.4224 86.064L80.9872 88.8281L77.8826 84.2741L82.3415 81.5496ZM85.9768 86.1908L89.9685 83.696L92.9464 88.0678L88.9547 90.5626L85.9768 86.1908ZM90.3091 83.4821L94.9106 80.6072L97.8885 84.979L93.287 87.854L90.3091 83.4821ZM95.2511 80.4012L99.5042 77.748L99.2903 77.4154L95.0215 80.0765L91.996 75.6413L96.1382 73.1069L95.9323 72.7664L91.7743 75.3087L91.0456 74.2395L89.8101 69.5508L94.1819 66.8739L95.2749 71.0002L95.4333 71.9189L102.498 82.0961L98.2291 84.7572L95.2511 80.3854V80.4012ZM90.5387 73.8593L90.6813 74.4137L90.7051 74.4929H90.7288L91.4416 75.5304L86.8084 78.3658L86.1194 77.352L86.357 77.2887L85.0819 72.4575L89.4537 69.7805L90.5308 73.8672L90.5387 73.8593ZM84.9789 72.0456L83.4028 66.0898L87.7747 63.4128L89.3507 69.3687L84.9789 72.0456ZM83.2999 65.6938L81.8109 60.0627L86.1827 57.3857L87.6717 63.0168L83.2999 65.6938ZM81.7079 59.6667L80.0606 53.4257L84.4324 50.7488L86.0798 56.9897L81.7079 59.6667ZM81.3595 59.8805L76.9876 62.5575L75.3403 56.3165L79.7121 53.6396L81.3595 59.8805ZM76.6312 62.7713L72.2594 65.4483L70.612 59.2073L74.9839 56.5304L76.6312 62.7713ZM71.903 65.6621L67.5311 68.3391L65.8838 62.0981L70.2556 59.4212L71.903 65.6621ZM67.1747 68.5529L62.8029 71.2299L61.1555 64.9889L65.5274 62.312L67.1747 68.5529ZM62.4465 71.4437L58.3202 73.9702L58.5261 74.3108L62.5495 71.8476L64.0384 77.4788L59.6666 80.1557L56.4273 67.8876L60.7991 65.2107L62.4465 71.4516V71.4437ZM62.9059 71.6259L67.2777 68.9489L68.7667 74.58L64.3948 77.257L62.9059 71.6259ZM68.8696 74.984L70.4457 80.9398L66.0739 83.6168L64.4978 77.6609L68.8696 74.984ZM69.226 74.7701L73.5979 72.0932L75.1739 78.049L70.8021 80.726L69.226 74.7701ZM77.542 84.488L80.6467 89.042L76.2115 91.806L73.0751 87.2124L77.5341 84.488H77.542ZM75.8788 92.0199L71.4357 94.7919L68.2756 90.1508L72.7425 87.4184L75.8788 92.0199ZM76.1085 92.3525L79.0864 96.7244L74.6433 99.4964L71.6654 95.1245L76.1085 92.3525ZM84.4166 93.8573L88.8518 91.0932L91.8297 95.4651L87.3945 98.2292L84.4166 93.8573ZM89.1844 90.8873L93.1761 88.3925L96.154 92.7644L92.1623 95.2592L89.1844 90.8873ZM93.5167 88.1787L98.1182 85.3037L101.096 89.6756L96.4946 92.5505L93.5167 88.1787ZM98.4508 85.0978L102.72 82.4367L105.698 86.8085L101.429 89.4696L98.4508 85.0978ZM105.927 87.1332L108.905 91.5051L104.636 94.1662L101.658 89.7944L105.927 87.1332ZM94.0869 66.5016L94.0711 66.4779L89.7071 69.1469L88.1311 63.1911L92.5029 60.5141L94.079 66.4937L94.0869 66.5016ZM92.3999 60.126L88.0281 62.803L86.5391 57.1719L90.911 54.4949L92.3999 60.126ZM90.808 54.0989L86.4362 56.7759L84.7888 50.5349L89.1607 47.858L90.808 54.0989ZM59.7695 80.5517L64.1414 77.8748L65.7175 83.8306L61.3456 86.5076L59.7695 80.5517ZM62.7316 91.7585L61.4486 86.9036L65.8204 84.2266L67.0718 88.9627L67.4519 88.8598L66.1689 84.0128L70.5407 81.3358L71.6416 85.5176L71.4991 85.6126L71.7763 86.0165L71.7921 86.064H71.8079L72.5128 87.0936L68.0459 89.826L67.4044 88.8836L67.0797 89.1053L67.7133 90.032L63.3652 92.6931L62.7237 91.7585H62.7316ZM63.5949 93.0178L67.943 90.3567L71.111 94.9978L66.7867 97.6985L63.5949 93.0178ZM71.3248 95.3304L74.3027 99.7023L69.9784 102.403L67.0005 98.0312L71.3248 95.3304ZM76.3936 111.788L73.4157 107.416L77.74 104.716L80.7179 109.087L76.3936 111.788ZM78.0727 104.518L82.5158 101.746L85.4937 106.117L81.0506 108.889L78.0727 104.518ZM90.5942 102.926L87.6163 98.5539L92.0515 95.7898L95.0294 100.162L90.5942 102.926ZM95.362 99.9478L92.3841 95.576L96.3758 93.0812L99.3537 97.453L95.362 99.9478ZM96.7163 92.8752L101.318 90.0003L104.296 94.3721L99.6943 97.2471L96.7163 92.8752Z" fill="white"/>
<path d="M76.6229 75.7285L68.8771 72.3941C68.7821 72.3783 67.2535 72.1803 65.6537 73.0357C65.0359 73.3683 64.4103 73.8673 63.8479 74.588C62.755 76.0215 61.7571 78.5717 62.7233 80.5201C63.6103 82.3021 65.5666 82.405 65.8279 82.4129C65.6458 82.6664 64.3152 84.5355 64.6479 86.6185C64.8142 87.656 65.3448 88.4005 66.0101 88.9073L74.4845 83.9019L77.0823 77.2016C77.3199 76.5917 77.1139 75.9344 76.615 75.7205L76.6229 75.7285Z" fill="white"/>
<path d="M93.1432 71.2378C92.2562 69.4479 90.2999 69.3528 90.0306 69.3449C90.2128 69.0915 91.5434 67.2223 91.2107 65.1394C90.8385 62.8663 88.7555 61.9793 87.2032 61.9793C86.4191 61.9793 85.7063 62.209 85.0885 62.5416C83.4966 63.4049 82.5225 64.9572 82.4591 65.0523L78.7763 74.5642C78.5387 75.174 78.7446 75.8235 79.2436 76.0373L84.2094 78.1757L93.5154 72.6792C93.4837 72.1803 93.365 71.6892 93.1353 71.2378H93.1432Z" fill="white"/>
<path d="M68.8372 71.0477L76.7018 74.089C76.9552 74.184 77.2324 74.1524 77.4779 74.0177C77.7234 73.8831 77.9373 73.6534 78.064 73.3524L81.9844 63.9514C82.0161 63.8009 82.7289 60.3874 80.7014 58.4153C79.6876 57.4253 77.8264 56.6492 76.1157 57.5758C75.9573 57.6629 75.7989 57.7659 75.6405 57.8768C73.9614 59.136 73.6209 61.4091 73.5813 61.7259C73.3833 61.5437 71.9102 60.2448 70.041 60.9022C69.8668 60.9656 69.7005 61.0368 69.5421 61.124C67.8314 62.0506 66.9364 64.3157 66.7542 65.9552C66.3899 69.2182 68.7342 70.9844 68.8451 71.0556L68.8372 71.0477Z" fill="white"/>
<path d="M77.2404 75.9106L69.7006 72.6238C69.6056 72.608 68.1166 72.41 66.5643 73.2574C65.9624 73.59 65.3525 74.0732 64.806 74.7939C63.7368 76.2036 62.7706 78.7222 63.7131 80.6468C64.5764 82.405 66.4772 82.5 66.7385 82.508C66.5564 82.7535 65.2654 84.5988 65.5901 86.658C65.7564 87.6797 66.2633 88.4084 66.9128 88.9152L75.1654 83.9811L77.6919 77.3679C77.9216 76.766 77.7236 76.1165 77.2325 75.9106H77.2404Z" fill="#DD1960"/>
<path d="M93.3425 71.4833C92.4792 69.7171 90.5705 69.6221 90.317 69.6142C90.4992 69.3687 91.7901 67.5233 91.4654 65.4641C91.109 63.2227 89.0736 62.3436 87.5609 62.3436C86.7926 62.3436 86.1036 62.5733 85.5017 62.898C83.9493 63.7455 82.9989 65.2819 82.9435 65.377L79.3637 74.7543C79.134 75.3562 79.3399 75.9977 79.8151 76.2115L84.6542 78.3183L93.7226 72.901C93.6909 72.4099 93.5721 71.9268 93.3583 71.4754L93.3425 71.4833Z" fill="#DD1960"/>
<path d="M69.6679 71.3011L77.3266 74.2949C77.5721 74.3899 77.8414 74.3583 78.079 74.2315C78.3166 74.0969 78.5225 73.8751 78.6492 73.5742L82.4667 64.2999C82.4983 64.1494 83.1874 60.7913 81.2153 58.843C80.2253 57.8688 78.4195 57.1006 76.7484 58.0114C76.59 58.0985 76.4395 58.1935 76.289 58.3123C74.6496 59.5558 74.3249 61.7971 74.2853 62.106C74.0952 61.9239 72.6617 60.6487 70.8401 61.2982C70.6738 61.3615 70.5074 61.4328 70.349 61.5199C68.6779 62.4307 67.8067 64.6642 67.6325 66.2799C67.2761 69.5033 69.557 71.2378 69.6679 71.3091V71.3011Z" fill="#DD1960"/>
<path d="M83.5778 86.3016L82.96 94.7127C82.9283 94.7998 82.4056 96.2571 80.9008 97.2708C80.3226 97.6668 79.594 97.9916 78.6911 98.1579C76.917 98.4668 74.1846 98.1737 72.9095 96.4155C71.7374 94.8077 72.5531 93.0257 72.664 92.7881C72.3551 92.8356 70.0821 93.1524 68.3872 91.8932C67.5477 91.2675 67.1279 90.4596 66.9854 89.628L75.333 84.4167L82.4769 85.2087C83.1263 85.28 83.6094 85.7631 83.5698 86.3096L83.5778 86.3016Z" fill="white"/>
<path d="M95.1803 73.7088C96.3604 75.3245 95.5446 77.0986 95.4258 77.3441C95.7347 77.2966 98.0077 76.9798 99.7026 78.2391C101.548 79.6172 101.374 81.8744 100.661 83.2524C100.297 83.9494 99.766 84.48 99.1799 84.8681C97.683 85.8819 95.8535 86.0324 95.7347 86.0403L85.605 84.9156C84.9556 84.8444 84.4724 84.3612 84.512 83.8227L84.908 78.4292L94.0794 72.703C94.5071 72.9644 94.8872 73.2891 95.1882 73.7009L95.1803 73.7088Z" fill="white"/>
<path d="M84.1323 95.3621L85.0669 86.9828C85.0986 86.7135 85.257 86.4838 85.4866 86.3254C85.7163 86.167 86.0252 86.0878 86.3499 86.1116L96.5034 86.9669C96.6538 87.0065 100.004 87.949 100.828 90.6576C101.24 92.0199 101.073 94.0237 99.4575 95.1166C99.307 95.2196 99.1407 95.3146 98.9665 95.3938C97.0736 96.3046 94.8956 95.5522 94.6026 95.4493C94.6738 95.7106 95.149 97.6114 93.6997 98.9657C93.565 99.0925 93.4225 99.2033 93.272 99.3063C91.6563 100.399 89.2407 100.146 87.6963 99.5518C84.6313 98.3717 84.1482 95.473 84.1323 95.3463V95.3621Z" fill="white"/>
<path d="M83.6956 85.668L83.1333 93.8731C83.1016 93.9603 82.5948 95.3779 81.1216 96.36C80.5514 96.7402 79.8386 97.057 78.9515 97.2154C77.2091 97.5084 74.5243 97.2154 73.2571 95.4888C72.0928 93.9127 72.8848 92.1783 73.0036 91.9407C72.7027 91.9882 70.4692 92.2812 68.7981 91.0457C67.9665 90.4279 67.5547 89.6359 67.4121 88.8281L75.5935 83.7751L82.6264 84.583C83.2679 84.6543 83.7431 85.1374 83.7115 85.6601L83.6956 85.668Z" fill="#6CB577"/>
<path d="M95.0526 73.4317C96.2169 75.0157 95.4249 76.7422 95.314 76.9798C95.615 76.9323 97.8484 76.6393 99.5195 77.8748C101.341 79.2291 101.183 81.4388 100.486 82.7773C100.129 83.4584 99.6146 83.9653 99.0443 84.3533C97.5712 85.3433 95.7734 85.478 95.6625 85.478L85.6912 84.3296C85.0576 84.2583 84.5745 83.7831 84.6141 83.2525L84.9784 77.9857L93.9676 72.4417C94.3874 72.703 94.7675 73.0198 95.0606 73.4237L95.0526 73.4317Z" fill="#6CB577"/>
<path d="M84.29 94.5147L85.1692 86.3412C85.2008 86.0799 85.3513 85.8502 85.581 85.6997C85.8107 85.5492 86.1037 85.47 86.4284 85.5017L96.4156 86.3888C96.566 86.4284 99.8687 87.3708 100.684 90.0161C101.096 91.3467 100.938 93.3029 99.3618 94.3642C99.2113 94.4592 99.0529 94.5543 98.8787 94.6335C97.0254 95.5126 94.8791 94.7681 94.586 94.6652C94.6573 94.9186 95.1325 96.7798 93.7148 98.0945C93.5802 98.2133 93.4456 98.3242 93.2951 98.4272C91.719 99.4884 89.3351 99.2271 87.8144 98.641C84.7969 97.4688 84.3059 94.6414 84.29 94.5147Z" fill="#6CB577"/>
<g style="mix-blend-mode:multiply">
<path d="M55.707 95.8215L101.152 68.4816L106.411 76.3383L58.6216 100.368L55.707 95.8215Z" fill="#D4CBDA"/>
</g>
</svg>
