<svg width="154" height="154" viewBox="0 0 154 154" fill="none" xmlns="http://www.w3.org/2000/svg">
<circle cx="77" cy="77" r="77" fill="#FF7A00"/>
<g clip-path="url(#clip0_676_7410)">
<path d="M77.0875 98.5023C89.299 98.5023 99.1985 88.6029 99.1985 76.3913C99.1985 64.1798 89.299 54.2804 77.0875 54.2804C64.876 54.2804 54.9766 64.1798 54.9766 76.3913C54.9766 88.6029 64.876 98.5023 77.0875 98.5023Z" fill="white"/>
<path d="M73.4258 89.0072V89.1429L73.5614 79.3761L73.4258 89.0072Z" fill="#A83512"/>
<path d="M114.256 66.2186C114.12 66.7612 114.12 67.3038 113.984 67.8464C113.984 68.1177 113.849 68.2534 113.849 68.5247C113.713 69.0673 113.577 69.4742 113.442 70.0168C113.306 70.2881 113.306 70.4238 113.17 70.6951C112.899 71.3733 112.628 72.0516 112.356 72.7298C110.864 75.7141 108.694 78.4271 105.71 80.8688L73.5605 106.642V116.273L94.5863 99.3172L105.303 90.6356C108.287 88.1939 110.457 85.4809 111.949 82.4966C112.221 81.8184 112.492 81.1401 112.763 80.4619C112.899 80.1906 112.899 80.0549 113.035 79.7836C113.17 79.241 113.306 78.8341 113.442 78.2915C113.442 78.0202 113.577 77.8845 113.577 77.6132C113.713 77.0706 113.849 76.528 113.849 75.9854C113.849 75.8498 113.849 75.7141 113.984 75.5785V75.4428C114.12 74.7646 114.12 74.0863 114.12 73.4081L114.391 63.5056C114.391 64.1839 114.256 64.9978 114.256 65.676C114.391 65.9473 114.256 66.083 114.256 66.2186Z" fill="#A83512"/>
<path d="M94.8578 89.4146L79.9363 76.7991L80.0719 71.9157C80.0719 71.2375 79.9363 70.4236 79.8006 69.7453C79.8006 69.6097 79.665 69.3384 79.5293 69.2027V66.761L78.5798 67.5749C78.1728 67.0323 77.7659 66.6254 77.2233 66.2184C76.952 65.9471 76.6807 65.8115 76.4094 65.6758C76.545 65.5402 76.6807 65.2689 76.8163 65.1332C77.0876 64.8619 77.3589 64.5906 77.6302 64.3193C77.9015 64.048 78.3085 63.7767 78.7154 63.6411C78.8511 63.6411 78.9867 63.5054 78.9867 63.5054C79.3937 63.2341 79.8006 63.0985 80.2076 62.9628H80.3432C80.7502 62.8272 81.1571 62.6915 81.5641 62.5559C81.6997 62.5559 81.8354 62.5559 81.8354 62.4202C82.2423 62.2846 82.7849 62.2846 83.1919 62.1489C83.5988 62.1489 84.0058 62.1489 84.2771 62.1489C84.684 62.1489 85.091 62.1489 85.4979 62.2846C86.8544 62.4202 88.0753 62.8272 89.2961 63.5054C89.8387 63.7767 90.3813 64.1837 90.9239 64.5906C91.4665 64.9976 91.8735 65.5402 92.2804 65.9471C92.823 66.6254 93.23 67.4393 93.3656 68.1175C93.5013 68.3888 93.5013 68.5245 93.5013 68.7958L93.9082 71.6444L94.1795 82.7677L94.4508 72.8653L94.3152 65.8115V64.8619V64.455L105.71 55.2308L105.981 45.3283L92.9587 55.7734C92.5517 55.2308 92.1448 54.8238 91.6022 54.4169C91.0596 54.0099 90.517 53.603 89.9744 53.3317C88.7535 52.6534 87.5327 52.2465 86.1762 52.1108C85.7692 52.1108 85.3623 51.9752 84.9553 51.9752C84.5484 51.9752 84.2771 51.9752 83.8701 51.9752C83.4632 51.9752 83.0562 52.1108 82.7849 52.1108C82.6493 52.1108 82.6493 52.1108 82.5136 52.1108C82.378 52.1108 82.2423 52.1108 82.2423 52.2465C81.8354 52.3821 81.4284 52.5178 81.0215 52.6534H80.8858C80.4789 52.7891 80.0719 53.0604 79.665 53.196C79.5293 53.196 79.3937 53.3317 79.3937 53.3317C79.258 53.4673 79.1224 53.4673 78.8511 53.603C78.7154 53.7386 78.4441 53.8743 78.3085 54.0099C76.6807 55.3664 75.7311 56.9942 75.4598 58.622C75.4598 58.7577 75.4598 58.7577 75.4598 58.8933C75.4598 59.029 75.4598 59.3003 75.4598 59.4359L75.3242 64.3193C74.7816 64.048 74.3746 63.9124 73.832 63.7767H73.6964C73.1538 63.6411 72.6112 63.5054 72.0686 63.5054C71.6616 63.5054 71.2547 63.3698 70.7121 63.3698C70.7121 63.3698 70.7121 63.3698 70.5764 63.3698C70.1695 63.3698 69.8982 63.3698 69.4912 63.3698C69.2199 63.3698 68.813 63.5054 68.5417 63.5054C68.406 63.5054 68.2704 63.5054 68.2704 63.6411C67.9991 63.6411 67.8634 63.7767 67.5921 63.7767C67.4565 63.7767 67.3208 63.9124 67.1852 63.9124C67.0495 63.9124 66.7782 64.048 66.6426 64.048C66.6426 64.048 66.6426 64.048 66.5069 64.048C66.2356 64.1837 65.9643 64.1837 65.8287 64.3193L52.535 53.0604L52.2637 62.9628L60.9453 70.4236V70.5592C60.9453 70.6949 60.9453 70.9662 60.9453 71.1018L60.8096 77.0704L61.7592 77.8843C62.1661 77.0704 62.7087 76.3922 63.5226 75.7139C63.7939 75.4426 64.0652 75.307 64.3365 75.1713C64.4722 75.1713 64.4722 75.0357 64.6078 75.0357C64.8791 74.9 65.1504 74.7644 65.5574 74.4931C65.8287 74.3574 66.1 74.2218 66.3713 74.2218C66.5069 74.0861 66.7782 74.0861 66.9139 74.0861C67.0495 74.0861 67.1852 73.9505 67.3208 73.9505C67.5921 73.9505 67.7278 73.8148 67.9991 73.8148C68.1347 73.8148 68.2704 73.8148 68.406 73.6792C68.6773 73.6792 69.0843 73.5435 69.3556 73.5435C69.7625 73.5435 70.1695 73.5435 70.4408 73.5435C70.8477 73.5435 71.2547 73.5435 71.7973 73.6792C73.1538 73.8148 74.3746 74.2218 75.5955 74.9C76.1381 75.1713 76.6807 75.5783 77.2233 75.9852C77.7659 76.3922 78.1728 76.9348 78.5798 77.3417C79.1224 78.02 79.5293 78.8339 79.665 79.5121C79.8006 79.7834 79.8006 79.9191 79.8006 80.1904L79.665 83.1747L79.8006 86.4303L79.9363 94.298L80.0719 86.7016L88.8892 94.1623L73.6964 106.371L105.574 80.733L94.8578 89.4146Z" fill="white"/>
<path d="M73.4247 89.1443L73.2891 106.914L73.5604 106.643V89.28L73.4247 89.1443Z" fill="#A83512"/>
<path d="M73.2901 106.913L73.5614 89.1428L73.4257 89.0071V89.2784L73.2901 106.913L52.1287 88.8715C49.1444 86.4298 46.974 83.5811 45.4818 80.4612C43.9897 77.3412 43.3114 74.2213 43.3114 70.9657C43.3114 70.83 43.3114 70.6944 43.3114 70.5587L43.1758 80.5968C43.1758 80.7325 43.1758 80.8681 43.1758 81.0038C43.1758 84.2594 43.854 87.3793 45.3462 90.4993C46.8383 93.6192 49.0087 96.3322 51.993 98.9096L73.0188 116.68L73.5614 116.273V106.642L73.2901 106.913Z" fill="#6B3724"/>
<path d="M60.6738 80.4621C60.8095 79.6482 61.0808 78.6987 61.6234 77.8848L60.8095 77.0709L60.6738 81.276C60.6738 81.0047 60.6738 80.7334 60.6738 80.4621Z" fill="#A83512"/>
<path d="M63.2513 44.786C66.2356 42.3443 69.6269 40.5808 73.2894 39.4956C76.952 38.2748 80.7502 37.7322 84.5484 37.7322C88.4822 37.7322 92.2804 38.4104 95.943 39.7669C99.6055 40.9878 102.997 42.8869 105.845 45.4642L92.823 55.9093C92.4161 55.3667 92.0091 54.9597 91.4665 54.5528C90.9239 54.1458 90.3813 53.7389 89.8387 53.4676C88.6179 52.7893 87.397 52.3824 86.0405 52.2467C85.2266 52.1111 84.4127 52.1111 83.5988 52.2467C81.5641 52.3824 79.5293 53.1963 77.9015 54.4171C76.2737 55.7736 75.3242 57.4014 75.0529 59.0292C74.9172 59.7075 74.9172 60.3857 75.0529 61.064C75.1885 62.1492 75.7311 63.2344 76.4094 64.1839C76.8163 64.7265 77.2233 65.1335 77.7659 65.5404C78.3085 65.9474 78.8511 66.3543 79.3937 66.6256L78.4441 67.4395C78.0372 66.8969 77.6302 66.49 77.0876 66.083C76.545 65.6761 76.0024 65.2691 75.4598 64.9978C74.239 64.3196 73.0181 63.9126 71.6616 63.777C70.8477 63.6413 70.0338 63.6413 69.2199 63.777C67.9991 63.9126 66.6426 64.1839 65.5574 64.7265L52.2637 53.4676L63.2513 44.786Z" fill="#FFAE23"/>
<path d="M92.959 55.9086L105.981 45.4635C108.966 47.9052 111.136 50.7539 112.493 53.8738C113.849 56.9938 114.663 60.1137 114.527 63.3693C114.527 66.6249 113.713 69.7449 112.221 72.7292C110.729 75.7135 108.559 78.4265 105.574 80.8682L94.8581 89.5498L79.9366 76.7987L79.8009 73.4074C80.0722 72.1866 80.0722 70.9657 79.6653 69.7449C79.394 68.931 78.987 68.2527 78.5801 67.5745L79.5296 66.7606C80.3435 67.1675 81.1574 67.5745 82.107 67.7101C83.7348 68.1171 85.3626 68.1171 86.9904 67.8458H88.4825L94.4511 73.0005L94.1798 61.8772C94.4511 60.6563 94.4511 59.4355 94.0442 58.2146C93.7729 57.4007 93.5016 56.5868 92.959 55.9086Z" fill="#DC5F30"/>
<path d="M52.5347 53.4674L65.8284 64.7264C65.1502 64.9977 64.4719 65.4046 63.7937 65.9472C62.1659 67.3037 61.2163 68.9315 60.945 70.5593C60.8094 71.2376 60.8094 71.9158 60.945 72.5941C61.0807 73.6793 61.6233 74.7645 62.3015 75.714C62.7085 76.2566 63.1154 76.6636 63.658 77.0705C64.2006 77.4775 64.7432 77.8844 65.2858 78.1557C66.0997 78.5627 66.9136 78.9696 67.8632 79.1053C69.491 79.5122 71.1188 79.5122 72.7466 79.2409H73.6961L73.2892 106.914L52.1278 88.8721C49.1435 86.4304 46.9731 83.5817 45.4809 80.4618C43.9888 77.3418 43.3105 74.2219 43.3105 70.9663C43.3105 67.7107 44.1244 64.5907 45.6166 61.6064C47.2444 58.6221 49.5504 55.7735 52.5347 53.4674Z" fill="#DC5F30"/>
<path d="M73.5604 79.3778H74.103L80.0716 84.5325L79.9359 76.8004L94.8574 89.4159L73.2891 106.915L73.5604 79.3778Z" fill="#FFAE23"/>
<path d="M73.1543 106.913L81.2933 113.424L81.1576 100.402L73.1543 106.913Z" fill="#FFAE23"/>
<path d="M73.0195 116.681L81.2942 123.328V113.425L73.1552 106.914L73.0195 116.681Z" fill="#6B3724"/>
</g>
<defs>
<clipPath id="clip0_676_7410">
<rect width="71.3519" height="85.5951" fill="white" transform="translate(43.1758 37.7322)"/>
</clipPath>
</defs>
</svg>
