<svg width="154" height="154" viewBox="0 0 154 154" fill="none" xmlns="http://www.w3.org/2000/svg">
<circle cx="77" cy="77" r="77" fill="#04A329"/>
<g clip-path="url(#clip0_677_7954)">
<path d="M57.431 42.7614L54.6883 41.166C52.6105 39.9565 50.647 39.7479 49.1925 40.5091L46.4395 42.0628L47.5407 42.1254C47.2693 42.5758 47.0663 43.0643 46.9381 43.5748C48.6731 43.6478 50.4288 44.0127 51.1664 45.2014C51.3333 45.0539 51.5227 44.9342 51.7274 44.8469L54.7714 48.3505L57.431 46.849L57.431 42.7614Z" fill="#FF9E00"/>
<path d="M58.0043 63.2421C55.3372 61.4954 53.3549 58.8757 52.3942 55.8283L50.6073 50.2705C49.9528 48.2476 50.0567 46.4853 50.9086 45.453C50.9871 45.3552 51.074 45.2645 51.1683 45.1819C50.4307 44.0141 48.675 43.6491 46.94 43.5761C46.4711 45.766 46.6333 48.0446 47.4075 50.1454L48.862 54.6604L48.3529 55.3486C48.3529 55.3486 51.7501 63.9616 51.9163 64.0763C52.0825 64.191 53.6097 64.4726 54.6278 64.6707C55.6328 65.7012 56.7679 66.5952 58.0043 67.3297L66.4713 72.241L66.4713 75.2962L69.1308 73.7842L69.1308 69.6863L58.0043 63.2421Z" fill="#FF9E00"/>
<path d="M55.3442 64.744C52.6755 63.0037 50.6924 60.3866 49.7342 57.3405L47.9473 51.7932C47.2928 49.7703 47.3967 48.008 48.2486 46.9757C49.1005 45.9434 50.4718 45.86 52.0302 46.7672L54.7729 48.3521L54.7729 44.2646L52.0302 42.6796C49.2875 41.0843 46.7526 41.2198 45.2669 43.0446C43.7813 44.8694 43.5943 48.0915 44.7371 51.6472L46.5344 57.1946C48.1551 62.0746 51.573 66.6522 55.3442 68.8315L66.4708 75.2965L66.4708 71.1985L55.3442 64.744Z" fill="#F4C04D"/>
<path d="M91.5385 100.833L87.3829 100.833C87.0816 100.624 86.7699 100.426 86.4375 100.238C79.6743 96.3177 68.7139 96.3177 61.9507 100.238C61.5247 100.478 61.1299 100.739 60.7559 101L56.8809 101L56.8809 107.256C56.8809 109.821 58.5743 112.386 61.9507 114.347C68.7139 118.267 79.6743 118.267 86.4375 114.347C89.8139 112.386 91.5073 109.821 91.5073 107.256L91.5385 100.833Z" fill="#00377B"/>
<path d="M73.6487 97.3287C69.5781 97.3211 65.5693 98.3279 61.9819 100.259C61.556 100.499 61.1612 100.759 60.7872 101.02L56.9121 101.02L56.9121 107.276C56.9121 109.842 58.6055 112.407 61.9819 114.367C65.5712 116.293 69.5788 117.299 73.6487 117.297L73.6487 97.3287Z" fill="#22589B"/>
<path d="M59.2912 101.031L56.9121 101.031L56.9121 107.287C56.946 108.251 57.1742 109.198 57.5832 110.071C57.9921 110.944 58.5731 111.724 59.2912 112.365L59.2912 101.031Z" fill="#22589B"/>
<path d="M74.2305 110.864C83.7952 110.864 91.549 106.373 91.549 100.833C91.549 95.2931 83.7952 90.802 74.2305 90.802C64.6658 90.802 56.9121 95.2931 56.9121 100.833C56.9121 106.373 64.6658 110.864 74.2305 110.864Z" fill="#22589B"/>
<path d="M86.4698 107.922C79.7066 111.843 68.7462 111.843 61.983 107.922C58.7728 106.056 57.0898 103.647 56.9339 101.217C56.7469 103.908 58.43 106.64 61.983 108.694C68.7462 112.615 79.7066 112.615 86.4698 108.694C90.0228 106.608 91.6643 103.908 91.5189 101.217C91.363 103.647 89.7112 106.066 86.4698 107.922Z" fill="#95B7FF"/>
<path d="M83.7999 98.0893C83.5817 97.9433 83.3532 97.7974 83.1038 97.6618C78.2002 94.8151 70.2527 94.8151 65.3491 97.6618C65.0478 97.829 64.7564 98.0135 64.4764 98.2145L63.4375 98.2145L63.4375 104.085C64.0116 104.647 64.6538 105.134 65.3491 105.534C70.2527 108.381 78.2002 108.381 83.1038 105.534C85.566 104.116 86.7919 102.25 86.7919 100.394L86.7919 98.0685L83.7999 98.0893Z" fill="#00377B"/>
<path d="M65.3491 97.6622C65.0478 97.8294 64.7564 98.0139 64.4764 98.2149L63.4375 98.2149L63.4375 104.085C64.0116 104.647 64.6538 105.134 65.3491 105.535C67.9533 106.92 70.8586 107.636 73.8057 107.62L73.8057 95.535C70.8544 95.5268 67.9477 96.2579 65.3491 97.6622Z" fill="#5482B3"/>
<path d="M63.3951 98.2354L61.6602 98.2354L61.6602 100.415C61.6885 101.114 61.8567 101.8 62.1548 102.432C62.4529 103.065 62.8747 103.63 63.3951 104.096L63.3951 98.2354Z" fill="#5482B3"/>
<path d="M74.2321 105.348C81.169 105.348 86.7924 102.09 86.7924 98.0699C86.7924 94.0502 81.169 90.7916 74.2321 90.7916C67.2953 90.7916 61.6719 94.0502 61.6719 98.0699C61.6719 102.09 67.2953 105.348 74.2321 105.348Z" fill="#5E93CA"/>
<path d="M67.4997 92.1363C69.5917 93.2041 71.9055 93.7607 74.2525 93.7607C76.5995 93.7607 78.9133 93.2041 81.0054 92.1363C84.7246 89.9779 84.7246 86.4951 81.0054 84.3366C78.92 83.2774 76.6157 82.7255 74.2785 82.7255C71.9413 82.7255 69.637 83.2774 67.5516 84.3366C63.7389 86.4951 63.7389 89.9779 67.4997 92.1363Z" fill="white"/>
<path d="M63.1145 93.7529C65.1195 92.2514 64.7767 90.7916 64.7767 90.7916L66.2935 92.6372C68.8065 91.5283 71.5218 90.9556 74.267 90.9556C77.0122 90.9556 79.7275 91.5283 82.2406 92.6372L83.7677 90.7916C83.7677 90.7916 83.373 92.2514 85.378 93.7529C87.3831 95.2545 86.7286 98.1741 86.7286 98.1741C86.7286 100.02 85.5131 101.865 83.0821 103.284C78.2096 106.099 70.3244 106.099 65.4208 103.284C62.9898 101.865 61.7743 100.02 61.7743 98.1741C61.7639 98.1741 61.1094 95.2441 63.1145 93.7529Z" fill="#F4C04D"/>
<path d="M81.1825 94.1909C81.1825 94.1909 77.5879 92.1054 77.5879 91.5945C77.6251 91.4685 77.6929 91.3539 77.7853 91.2608C79.3137 91.5109 80.7999 91.9742 82.2006 92.6372L83.7278 90.7916C83.7278 90.7916 83.333 92.2514 85.3381 93.7529C87.3431 95.2545 86.6886 98.1741 86.6886 98.1741C86.6527 99.2577 86.2538 100.297 85.5562 101.125C85.5562 100.896 85.9718 97.8718 83.707 96.8812C81.4422 95.8906 81.1825 94.1909 81.1825 94.1909Z" fill="#FF9E00"/>
<path d="M67.4997 94.3265C69.5903 95.3992 71.9046 95.9585 74.2525 95.9585C76.6004 95.9585 78.9148 95.3992 81.0054 94.3265C84.7246 92.1785 84.7246 88.6853 81.0054 86.5268C78.92 85.4676 76.6157 84.9157 74.2785 84.9157C71.9413 84.9157 69.637 85.4676 67.5516 86.5268C63.7389 88.6853 63.7389 92.1785 67.4997 94.3265Z" fill="#FF9E00"/>
<path d="M99.1138 53.2206C98.8645 67.1411 91.7168 68.8617 87.8833 74.0753C84.3199 78.9345 84.7666 85.9625 84.7666 86.8802L84.7666 86.9844C84.7666 88.559 83.7277 90.1126 81.6499 91.3222C79.3328 92.4996 76.7722 93.1131 74.1751 93.1131C71.578 93.1131 69.0173 92.4996 66.7002 91.3222C64.7575 90.1961 63.7497 88.7467 63.5835 87.2764L63.5835 86.9844L63.5835 86.8906C63.6562 85.973 64.0718 78.9345 60.4668 74.0753C56.6333 68.8617 49.4857 67.1724 49.2363 53.2206L99.1138 53.2206Z" fill="#F4C04D"/>
<path d="M80.9324 68.382C80.9324 68.382 80.361 70.0816 78.5429 74.7948C76.7249 79.508 77.5872 91.5933 77.5872 91.5933L80.7038 91.8123C81.0675 91.6455 81.4103 91.4786 81.7427 91.2909C83.8205 90.0918 84.8594 88.5277 84.8594 86.9531L84.8594 86.8489C84.7867 85.9312 84.3815 78.9032 87.9761 74.044C91.8097 68.8303 98.9573 67.1411 99.2066 53.1893L96.3912 53.1893L80.9324 68.382Z" fill="#FF9E00"/>
<path d="M74.2312 67.6419C87.9729 67.6419 99.1128 61.1854 99.1128 53.2209C99.1128 45.2563 87.9729 38.7998 74.2312 38.7998C60.4895 38.7998 49.3496 45.2563 49.3496 53.2209C49.3496 61.1854 60.4895 67.6419 74.2312 67.6419Z" fill="#FAD774"/>
<path d="M56.6335 63.419C66.3472 69.0394 82.1073 69.0394 91.7898 63.419C96.3713 60.76 98.792 57.3294 99.0621 53.8571C99.3633 57.757 96.9843 61.7089 91.7898 64.6807C82.0761 70.3219 66.316 70.3219 56.6023 64.6807C51.4598 61.7089 49.0392 57.757 49.33 53.8571C49.6313 57.3294 52.052 60.76 56.6335 63.419Z" fill="white"/>
<path d="M74.2314 65.327C85.7642 65.327 95.1133 59.9069 95.1133 53.2208C95.1133 46.5347 85.7642 41.1146 74.2314 41.1146C62.6987 41.1146 53.3496 46.5347 53.3496 53.2208C53.3496 59.9069 62.6987 65.327 74.2314 65.327Z" fill="#F3AC1D"/>
<path d="M59.4582 61.7394C63.2134 63.776 67.3719 64.9513 71.6341 65.1805C71.9801 64.8061 72.221 64.3464 72.3323 63.8482C72.4437 63.35 72.4214 62.831 72.2678 62.3442C70.0966 55.8584 70.9381 42.3445 70.9381 42.3445L67.011 41.9274C64.3641 42.4541 61.8156 43.3935 59.4582 44.7115C51.2717 49.3934 51.2717 57.0576 59.4582 61.7394Z" fill="#FF9E00"/>
<path d="M88.9944 45.733C80.8391 41.0094 67.6139 41.0094 59.4586 45.733C55.6147 47.9645 53.5888 50.8424 53.3602 53.7621C53.1109 50.4879 55.1471 47.1407 59.4586 44.659C67.6139 39.9354 80.8391 39.9354 88.9944 44.659C93.3059 47.1615 95.3421 50.4775 95.0928 53.7516C94.9058 50.8424 92.828 47.9645 88.9944 45.733Z" fill="white"/>
<path d="M84.4539 63.8248C77.7904 65.8892 70.6616 65.8892 63.998 63.8248C64.2162 63.6788 64.4448 63.5329 64.6837 63.3973C69.9509 60.3421 78.5011 60.3421 83.7683 63.3973C84.0072 63.4807 84.2358 63.6267 84.4539 63.8248Z" fill="#DE8A00"/>
<path d="M63.6555 86.8601C63.6555 86.7454 63.6555 86.5472 63.6555 86.2761C63.8225 87.1314 64.1906 87.9343 64.7291 88.6181C65.2675 89.3018 65.9609 89.8467 66.7515 90.2072C69.0671 91.3895 71.6283 92.0057 74.2263 92.0057C76.8243 92.0057 79.3855 91.3895 81.7012 90.2072C82.479 89.8502 83.1646 89.3185 83.705 88.6531C84.2454 87.9877 84.6262 87.2066 84.8179 86.37C84.8179 86.5889 84.8179 86.7558 84.8179 86.8496L84.8179 86.9539C84.8179 88.5284 83.779 90.0821 81.7012 91.2917C79.3841 92.469 76.8234 93.0825 74.2263 93.0825C71.6292 93.0825 69.0686 92.469 66.7515 91.2917C64.8087 90.1655 63.801 88.7161 63.6348 87.2459L63.6348 86.9539L63.6555 86.8601Z" fill="white"/>
<path d="M102.177 74.054C100.834 70.6757 98.4683 67.8055 95.414 65.8477L92.6713 64.2627L90.0117 65.7642L90.1468 66.7027L93.866 70.6338L99.0605 78.1311L99.9228 77.6514C99.962 78.3707 99.819 79.0881 99.5072 79.7369L97.7203 83.1988C97.4643 83.7057 97.0812 84.1369 96.6087 84.4501C96.9619 85.1175 97.1353 85.866 97.1116 86.6214C97.0879 87.3767 96.868 88.1128 96.4737 88.7566L95.8607 88.7566L96.0581 89.2675L95.8295 89.4865L96.1412 89.4865L96.4425 90.279L99.1125 88.767C99.8903 88.2801 100.519 87.5874 100.931 86.765L102.728 83.3031C103.881 81.0403 103.673 77.5993 102.177 74.054Z" fill="#FF9E00"/>
<path d="M96.6205 84.4199C95.4674 85.1707 93.8467 85.0769 92.1221 84.0758L80.9955 77.6317L78.3359 79.1333L79.1047 80.5097L80.9955 81.0102L80.9955 81.761L92.1221 88.2155C93.2572 88.9028 94.525 89.34 95.8414 89.4981C97.4932 87.9757 97.3166 86.1405 96.6205 84.4199Z" fill="#FF9E00"/>
<path d="M95.4355 65.8477L92.6928 64.2627L90.0332 65.7642L90.1683 66.7027L93.8667 70.6338L96.7653 74.8048L101.284 72.1666C99.9227 69.5804 97.9052 67.4007 95.4355 65.8477Z" fill="#FF9E00"/>
<path d="M89.4625 89.6742L78.3359 83.2197L78.3359 79.1321L89.4625 85.5867C91.8624 86.9735 94.0648 86.6294 95.0726 84.6691L96.8595 81.2072C97.1864 80.3676 97.3288 79.4671 97.2768 78.5673C97.2248 77.6674 96.9796 76.7894 96.5582 75.9935C95.8201 74.1206 94.5157 72.527 92.8286 71.4367L90.0859 69.8518L90.0859 65.7642L92.8286 67.3492C95.8829 69.307 98.2484 72.1772 99.5918 75.5555C101.067 79.1008 101.264 82.5523 100.122 84.7733L98.3243 88.2456C96.6933 91.3009 93.2337 91.864 89.4625 89.6742Z" fill="#F4C04D"/>
</g>
<path d="M96 117.116C105.113 117.116 112.5 109.35 112.5 99.7695C112.5 90.1893 105.113 82.423 96 82.423C86.8873 82.423 79.5 90.1893 79.5 99.7695C79.5 109.35 86.8873 117.116 96 117.116Z" fill="#E0E0E0"/>
<path d="M90.7795 98.9845V98.8865C90.0338 96.6325 89.3812 94.0844 89.0083 92.4184V92.2224H88.8219C87.2371 92.0264 86.0253 91.9283 84.8134 91.9283H84.7202L84.6269 92.0264C84.4405 92.3204 84.2541 92.5164 84.0676 92.8104C83.5083 93.5944 82.949 94.5744 82.3896 95.4564C82.4829 96.1425 82.6693 96.9265 82.7625 97.6125C83.5083 100.259 84.9066 102.317 86.771 103.787H86.8642L90.7795 98.9845Z" fill="white"/>
<path d="M82.7617 97.6086C82.5753 96.9226 82.4821 96.1385 82.3888 95.4525C82.1092 95.8445 81.9227 96.3345 81.6431 96.7265V96.8245V96.9226C81.8295 98.6866 82.1092 100.353 82.4821 102.215V102.313H82.5753C82.8549 102.411 83.1346 102.509 83.4143 102.607L83.6007 102.705C84.6261 103.097 85.6516 103.587 86.7702 103.881C84.9058 102.313 83.5075 100.255 82.7617 97.6086Z" fill="#D4D5D7"/>
<path d="M81.3645 102.804V102.608C81.0849 101.53 80.712 99.8643 80.5256 98.1002H80.0595C79.873 100.256 80.0595 102.118 80.4323 103.784L80.6188 104.47L80.8984 103.784C81.0849 103.49 81.2713 103.098 81.3645 102.804Z" fill="#C4C4C4"/>
<path d="M84.9073 90.6546H85.0938C86.2124 90.6546 87.4243 90.7527 88.5429 90.9487L89.4751 91.0467L89.5683 90.9487C90.5937 89.8706 92.0853 88.3026 93.5768 86.9305L93.67 86.8325L93.5768 86.6365C93.2971 85.6565 92.9242 84.7745 92.4581 83.9904L92.3649 83.8925H92.2717C90.4073 83.9905 88.3565 84.7745 86.7717 86.1465C86.5853 86.2445 86.4921 86.3425 86.3056 86.5385C85.6531 87.0285 85.187 87.4206 85.0938 87.8126C85.0005 88.0086 84.9073 88.2046 84.9073 88.4986C84.8141 89.0866 84.8141 89.6746 84.9073 90.5567V90.6546Z" fill="white"/>
<path d="M94.9746 86.4417L95.0679 86.5397H95.1611C95.2543 86.5397 95.3475 86.5397 95.4407 86.5397C95.6272 86.5397 95.7204 86.5397 95.9068 86.5397C97.3051 86.8337 99.356 87.2258 100.754 87.6178H100.847L100.941 87.5198C101.78 86.7357 102.619 85.9517 103.178 85.4617L103.364 85.2657L103.178 85.0697C102.246 84.0897 100.288 83.2077 98.4238 82.9137C96.6526 82.6196 95.1611 82.8156 94.1357 83.3057L93.9492 83.4037L94.0424 83.5997C94.2289 83.9917 94.3221 84.3837 94.5085 84.7757C94.695 85.5597 94.8814 86.1477 94.9746 86.4417Z" fill="white"/>
<path d="M104.111 94.2804H104.204C105.789 94.6724 107.187 95.2604 108.492 95.7504L108.958 95.9464L109.051 95.7504C109.611 94.6724 110.17 93.2023 110.263 93.0063C110.45 92.2223 108.399 89.0862 107.933 88.5962C107.56 88.1062 106.628 87.4202 105.696 86.9302C105.136 86.6361 104.67 86.4401 104.297 86.2441H104.204L104.111 86.3421C103.365 86.9302 102.619 87.6162 101.873 88.3022L101.78 88.4002L101.873 88.5962C102.619 90.2623 103.365 92.1243 104.111 94.1824V94.2804Z" fill="white"/>
<path d="M96.6533 115.546C96.5601 115.35 96.3736 115.154 96.2804 114.86C96.1872 114.762 96.1872 114.566 96.094 114.37C95.9075 113.782 95.8143 113.586 95.6279 113.39C95.4414 113.292 95.1618 113.292 94.7889 113.194C94.5092 113.194 91.6194 112.508 90.594 112.214C90.3143 112.116 90.1279 112.018 89.8482 112.018H89.755L89.6618 112.116C89.1025 112.704 88.5432 113.194 88.0771 113.586L87.8906 113.782L88.0771 113.978C88.4499 114.37 88.916 114.664 89.4754 115.056C91.433 116.134 94.6024 117.016 96.7465 116.33L97.0262 116.232L96.9329 115.938C96.7465 115.742 96.6533 115.644 96.6533 115.546Z" fill="#C4C4C4"/>
<path d="M111.381 104.177L111.195 104.079C111.102 104.079 111.009 104.079 110.915 103.981L110.636 103.883L110.542 103.981C110.076 104.667 109.61 105.353 109.144 106.137L109.051 106.333C108.958 106.529 108.678 106.823 108.492 107.019L108.398 107.117C107.746 107.901 107.373 108.489 107.28 108.783C107.186 109.175 107.28 109.567 107.28 110.155C107.28 110.351 107.373 110.547 107.373 110.841V111.332L107.653 111.037C109.237 109.567 110.449 107.313 111.195 104.471L111.381 104.177Z" fill="#C4C4C4"/>
<path d="M87.7983 104.575L87.7051 104.771L87.7983 105.065C88.078 105.947 88.4508 106.927 88.8237 108.005C88.8237 108.103 88.9169 108.201 89.0102 108.397V108.495C89.7559 110.651 90.0356 110.847 90.1288 110.847C90.1288 110.847 90.222 110.847 90.222 110.945C90.5949 111.141 91.3407 111.337 92.0864 111.435H92.1797C92.4593 111.435 92.6458 111.533 92.9254 111.631L95.8153 112.317L95.9085 112.219C97.5865 110.847 98.9848 109.475 100.197 108.005L100.29 107.907V107.809C100.197 107.417 100.103 107.025 100.01 106.633C99.917 106.633 99.917 106.633 99.8238 106.633C95.6288 107.515 91.1542 106.829 87.7983 104.575Z" fill="#D4D5D7"/>
<path d="M98.3312 101.433L91.5262 99.8654L91.4329 99.9633C90.0346 101.531 88.7296 103.197 87.7974 104.569C91.1533 106.824 95.6278 107.51 99.6363 106.628C99.7295 106.628 99.7295 106.628 99.8227 106.628C99.3566 104.961 98.8905 103.295 98.3312 101.629V101.433Z" fill="white"/>
<path d="M109.517 101.144C109.424 100.36 109.237 99.5762 109.051 98.7922V98.6942C108.958 98.2042 108.865 97.8122 108.771 97.3222V97.2242H108.678C107.373 96.7341 105.788 96.1461 104.017 95.6561H103.924L103.831 95.7541C103.178 96.6361 102.432 97.5182 101.687 98.4002C101.034 99.1842 100.288 100.066 99.729 100.85L99.6357 100.948V101.046C99.9154 101.928 100.195 102.81 100.382 103.692C100.661 104.574 100.848 105.456 101.127 106.338C104.483 105.358 107.373 103.496 109.517 101.144Z" fill="white"/>
<path d="M109.797 103.004C109.797 102.808 109.797 102.514 109.704 102.024C109.704 101.828 109.611 101.632 109.611 101.534C109.611 101.338 109.518 101.24 109.518 101.044C107.374 103.494 104.484 105.356 101.128 106.238C101.221 106.532 101.314 106.826 101.408 107.12V107.218H101.501C103.458 107.513 104.95 107.611 106.348 107.709H106.441L106.535 107.61C106.814 107.316 107.001 106.924 107.28 106.63C107.56 106.238 107.84 105.944 108.119 105.552C108.213 105.454 108.306 105.356 108.399 105.16L108.492 105.062C109.145 104.278 109.704 103.494 109.797 103.004Z" fill="#AEB0B2"/>
<path d="M95.9065 117.019C96.2794 117.019 96.5591 116.921 96.9319 116.823L97.2116 116.725L97.5845 115.843L97.3048 115.255C97.2116 115.059 97.0252 114.863 96.9319 114.569C96.8387 114.471 96.8387 114.275 96.7455 114.177C96.4658 113.491 96.3726 113.197 96.1862 113.001L95.9997 112.805H95.9065L96.2794 112.707L96.3726 112.609C98.0506 111.237 99.4489 109.767 100.754 108.395L100.847 108.297L100.94 107.709V107.611C100.381 105.553 99.8218 103.495 99.1692 101.437V101.339L98.7031 100.947L91.898 99.3789L91.4319 99.5749L91.5252 98.9869V98.8889C90.7794 96.6349 90.2201 94.0868 89.754 92.5187V92.3227L89.2879 91.8327H89.754L90.2201 91.6367L90.3133 91.5387C91.3387 90.4607 92.8302 88.8926 94.3218 87.5206L94.415 87.4226L94.6014 86.7366L94.5082 86.5406C94.2285 85.5606 93.8557 84.5805 93.3896 83.7965L93.2963 83.6985L92.737 83.4045H92.6438C90.6862 83.5025 88.4489 84.3845 86.7709 85.8546C86.6777 85.9526 86.4913 86.0506 86.3048 86.2466C85.559 86.8346 85.0929 87.2266 84.9065 87.7166C84.8133 87.9126 84.7201 88.2066 84.6268 88.5006C84.5336 89.0886 84.4404 89.8727 84.5336 90.7547V90.9507L85.0929 91.4407H84.9065L84.4404 91.7347C84.4404 91.7347 84.0675 92.3227 83.8811 92.6167C83.0421 93.7928 82.2031 95.1648 81.4574 96.6348V96.7328L81.3641 97.1249V97.2229C81.3641 97.6149 81.4574 98.0069 81.4574 98.3009L80.898 97.8109H80.4319L79.9658 98.2029C79.9658 97.9089 79.9658 97.6149 80.059 97.3209L80.4319 95.3608C81.3641 92.0287 83.1353 89.0886 85.4658 86.9326C87.7031 84.8745 90.4065 83.5025 93.2963 82.9145C93.9489 82.8165 94.6946 82.7185 95.4404 82.6205C94.8811 82.7185 94.415 82.9145 94.0421 83.1105L93.8557 83.2085L93.576 83.9925L93.6692 84.1885C93.8557 84.4825 93.9489 84.9725 94.1353 85.3646C94.415 86.1486 94.6014 86.5406 94.6946 86.8346L94.7879 86.9326L95.254 87.2266H95.3472C95.4404 87.2266 95.5336 87.2266 95.6268 87.2266C95.8133 87.2266 95.9065 87.2266 95.9997 87.2266C97.398 87.4226 99.3557 87.9126 100.754 88.3046H100.847L101.407 88.2066C101.407 88.2066 101.5 88.1086 101.593 88.1086L101.5 88.7946L101.593 88.9906C102.339 90.6567 103.084 92.5187 103.83 94.5768V94.6748L104.203 95.0668H104.296C105.042 95.2628 105.788 95.5568 106.534 95.7528C105.881 95.5568 105.135 95.2628 104.39 95.0668H104.203L103.551 95.2628L103.457 95.3608C102.805 96.2428 102.059 97.1249 101.313 98.0069C100.661 98.6929 99.915 99.6729 99.2624 100.457L99.1692 100.555L99.076 101.143V101.241C99.3557 102.123 99.6353 103.103 99.8218 103.887C100.101 105.063 100.474 106.337 100.94 107.513V107.611L101.407 108.003H101.5C103.457 108.297 105.042 108.395 106.44 108.493H106.534L106.907 108.297C106.813 108.493 106.72 108.689 106.627 108.787C106.534 109.277 106.534 109.865 106.627 110.355C106.627 110.551 106.72 110.747 106.72 110.943V111.433L107.745 111.825C107.745 111.825 108.118 111.433 108.212 111.433C105.135 115.059 100.94 117.019 95.9065 117.019ZM87.9828 114.667C86.5845 113.785 85.2794 112.903 84.254 111.825C84.0675 111.531 82.6692 109.963 82.2031 109.179C81.3641 107.807 80.7116 106.337 80.3387 104.671L81.3641 104.769L81.6438 104.083C81.737 103.691 81.9235 103.397 82.0167 103.103V103.005V102.613V102.515L82.2963 102.907H82.3896C82.6692 103.005 82.9489 103.103 83.2285 103.201L83.415 103.299C84.3472 103.691 85.4658 104.181 86.6777 104.475H86.7709L87.3302 104.279L87.237 104.377L87.1438 104.965L87.237 105.259C87.5167 106.239 87.8896 107.219 88.2624 108.199C88.2624 108.297 88.4489 108.689 88.4489 108.689C89.2879 110.943 89.5675 111.237 89.754 111.335L89.1946 111.433L89.1014 111.531C88.5421 112.021 87.9828 112.511 87.5167 113.001L87.3302 113.197V114.177L87.5167 114.373C87.7031 114.471 87.7963 114.569 87.9828 114.667ZM111.474 103.593L110.729 103.397L110.169 103.593C110.262 103.397 110.356 103.201 110.356 103.103C110.449 102.809 110.356 102.515 110.262 101.927C110.262 101.731 110.169 101.633 110.169 101.437C109.983 100.457 109.796 99.4769 109.61 98.5949V98.4969C109.517 98.0069 109.423 97.6149 109.33 97.1249V97.0269L108.957 96.5368H108.864C108.584 96.4388 108.212 96.2428 107.839 96.1448C107.932 96.2428 108.771 96.5368 108.771 96.5368L109.517 96.2428L109.61 96.0468C110.169 94.9688 110.729 93.4988 110.822 93.3028V93.2048C111.101 92.0287 108.584 88.4026 108.398 88.2066C107.932 87.7166 107 86.9326 105.974 86.4426C105.415 86.1486 104.856 85.8546 104.483 85.7566H104.39L103.83 85.8546C103.83 85.8546 103.737 85.9526 103.644 85.9526V85.0705L103.457 84.8745C102.898 84.2865 102.152 83.7965 101.22 83.4045C101.966 83.6005 102.618 83.8945 103.271 84.2865C103.457 84.3845 103.737 84.4825 103.923 84.6785C106.347 86.0506 108.398 88.1086 109.89 90.5587C111.474 93.2048 112.407 96.3408 112.5 99.5749C112.5 100.849 112.407 102.221 112.127 103.495C112.034 103.887 111.94 104.181 111.847 104.573L111.474 103.593Z" fill="#171717"/>
<defs>
<clipPath id="clip0_677_7954">
<rect width="59.4665" height="78.5807" fill="white" transform="translate(44 38.8002)"/>
</clipPath>
</defs>
</svg>
