<svg width="128" height="129" viewBox="0 0 128 129" fill="none" xmlns="http://www.w3.org/2000/svg">
<g clip-path="url(#clip0_632_1004)">
<rect y="0.205811" width="128" height="128" rx="32" fill="black"/>
<path d="M121.788 79.2739L124.293 88.242C127.357 87.5565 130.561 86.6611 133.792 85.4999L130.197 76.9235C127.343 77.9168 124.517 78.6863 121.788 79.2739Z" fill="#B5E3F6"/>
<path d="M109.001 80.9528L108.679 90.2707C111.141 90.1728 113.981 89.9489 117.101 89.5292C117.759 89.4452 118.417 89.3333 119.102 89.2354L116.584 80.2113C113.8 80.617 111.239 80.8409 109.015 80.9528H109.001Z" fill="#B5E3F6"/>
<path d="M100.62 80.9385L96.8732 90.3263C97.125 90.3543 101.32 90.2844 103.39 90.3263L103.712 81.0644C101.809 81.0364 100.676 80.9385 100.62 80.9385Z" fill="#B5E3F6"/>
<path d="M103.712 81.0646L103.39 90.3265C104.817 90.3545 106.594 90.3545 108.679 90.2705L109.001 80.9526C106.902 81.0646 105.097 81.0786 103.712 81.0646Z" fill="#069DD8"/>
<path d="M116.556 80.2116L119.074 89.2356C120.753 88.9698 122.488 88.648 124.279 88.2423L121.774 79.2742C119.97 79.6659 118.221 79.9737 116.556 80.2116Z" fill="#069DD8"/>
<path d="M-4.675 106.097C-4.77294 106.055 -4.85689 106.013 -4.94083 105.971L-12.8317 112.336C-11.3766 113.176 -9.85162 113.945 -8.25666 114.617C-6.75964 115.247 -5.24863 115.792 -3.75161 116.254L1.03326 107.957C-0.869496 107.51 -2.78624 106.908 -4.675 106.11V106.097Z" fill="#B5E3F6"/>
<path d="M6.61562 108.839L1.6069 117.513C4.44704 118.017 7.24521 118.24 10.0014 118.24C10.8828 118.24 11.7503 118.212 12.6177 118.171V108.881C10.645 109.007 8.6303 109.007 6.60163 108.839H6.61562Z" fill="#B5E3F6"/>
<path d="M17.9062 108.265V117.667C20.9423 117.219 23.8663 116.547 26.6365 115.736L23.6845 106.936C21.8237 107.467 19.8929 107.915 17.9202 108.265H17.9062Z" fill="#B5E3F6"/>
<path d="M51.4422 103.396L45.8039 96.0787C45.664 96.1767 38.6966 101.493 28.6931 105.257L31.6452 114.057C42.9638 109.832 50.8127 103.872 51.4422 103.382V103.396Z" fill="#B5E3F6"/>
<path d="M1.03325 107.943L-3.75162 116.239C-1.96079 116.785 -0.169961 117.205 1.60688 117.513L6.6156 108.838C4.76881 108.684 2.89403 108.377 1.03325 107.943Z" fill="#069DD8"/>
<path d="M12.6317 108.88V118.17C14.4225 118.086 16.1853 117.905 17.9202 117.653V108.251C16.1993 108.545 14.4365 108.755 12.6317 108.866V108.88Z" fill="#069DD8"/>
<path d="M28.6931 105.271C27.0982 105.873 25.4193 106.446 23.6844 106.936L26.6365 115.736C28.3713 115.233 30.0502 114.673 31.6452 114.071L28.6931 105.271Z" fill="#069DD8"/>
<path d="M39.6776 43.1855C39.7847 43.7834 40.2693 44.1402 40.9329 44.1441L75.212 40.5453C75.8668 40.5315 76.3301 39.9944 76.223 39.3965C76.223 39.3965 72.8282 12.5604 72.2303 12.6675C72.2303 12.6675 71.1416 4.43621 54.3054 6.19096C36.9691 7.98259 37.9512 16.2664 37.9512 16.2664C37.2963 16.2802 39.6863 43.2033 39.6863 43.2033L39.6776 43.1855Z" fill="url(#paint0_linear_632_1004)"/>
<path d="M47.7841 24.2475C48.9493 22.4714 49.2098 20.3138 50.4889 18.7241C51.016 17.8689 51.8907 17.3387 52.8299 17.1407C53.7777 16.9605 54.8033 17.1169 55.5653 17.701C54.72 18.4924 54.5272 19.6681 55.1714 20.7294C56.0197 21.6679 57.3952 21.7512 57.8722 20.3913C58.2899 19.3363 57.8685 18.011 56.8498 17.4431C57.2975 17.2997 57.7452 17.1563 58.2091 17.2697C60.5871 17.6642 62.7501 19.2564 63.7062 21.4432C63.7442 21.5054 63.8177 21.5501 63.9266 21.5773L64.1131 21.4633C64.2064 21.4064 64.1494 21.3131 64.1494 21.3131C63.1639 18.8651 59.3336 15.657 56.5155 17.1226C55.4398 16.4614 54.1051 16.2147 52.8391 16.3311C51.3502 16.7117 50.2207 17.6872 49.5802 19.0064C48.6556 20.5096 47.9381 22.1424 47.3663 23.8247C47.1027 24.2524 47.6398 24.7156 47.7531 24.2517L47.7841 24.2475ZM56.3153 18.0593C56.7429 18.3229 57.1297 18.7499 57.2776 19.1844C57.421 19.6321 57.4516 21.1941 56.3529 20.6876C55.3342 20.1198 55.5678 18.7805 56.3198 18.0461L56.3153 18.0593Z" fill="#3E4150"/>
<path d="M64.3121 20.7041C64.4461 20.4837 64.7391 20.3173 65.0395 20.3898C65.3532 20.4669 65.5241 20.7466 65.5535 21.0079C65.273 23.5723 64.772 26.0028 63.9751 28.3474L62.1856 36.2211C62.1085 36.5348 61.8288 36.7057 61.5106 36.6419C61.1969 36.5648 61.026 36.2851 60.9966 36.0239C61.5338 33.4432 62.0009 30.7648 62.6359 28.1139C63.0667 25.5857 63.6609 23.0983 64.3121 20.7041Z" fill="#1F272C"/>
<path d="M63.2727 20.6318C63.1231 21.2459 63.4461 21.9911 63.9307 22.3479C64.4855 22.8024 65.2291 22.7449 65.8109 22.3811C66.3926 22.0173 66.7287 21.2892 66.6216 20.6913C66.5145 20.0934 66.0005 19.4754 65.2887 19.396C64.8248 19.2826 64.3771 19.426 63.9863 19.6626C63.5956 19.8992 63.4253 20.2699 63.255 20.6405L63.2727 20.6318Z" fill="#1F272C"/>
<path d="M47.3827 22.5155C47.1986 22.2313 46.8982 22.1587 46.6052 22.3251C46.3122 22.4915 46.1782 22.7119 46.2646 23.0664C47.0866 25.4737 48.1084 27.7715 49.3034 29.9509L52.7469 37.2537C52.931 37.5379 53.2314 37.6105 53.5244 37.4441C53.8174 37.2777 53.9514 37.0572 53.865 36.7028C52.7293 34.2184 51.7438 31.7704 50.6258 29.2773C49.7106 26.927 48.5955 24.6862 47.3827 22.5155Z" fill="#1F272C"/>
<path d="M48.7425 22.9929C48.9792 23.3836 48.8658 23.8475 48.7525 24.3114C48.5822 24.682 48.2617 25.0164 47.8709 25.253C47.2367 25.5103 46.5116 25.4264 45.9746 24.9631C45.4198 24.5086 45.2602 23.8042 45.5031 23.1331C45.7372 22.4443 46.3277 22.0982 47.0758 22.0274C47.8942 22.0543 48.472 22.3542 48.7425 22.9929Z" fill="#1F272C"/>
<path opacity="0.7" d="M42.9807 11.5694C45.1525 10.0346 47.413 9.57137 48.0668 10.5271C48.7205 11.4828 47.5807 13.4289 45.409 14.9637C43.2372 16.4985 40.9767 16.9618 40.323 16.006C39.6692 15.0503 40.809 13.1042 42.9807 11.5694Z" fill="#DDF0EE"/>
<path d="M77.9829 109.021L70.7637 111.357L67.5038 97.5762L59.6829 77.1216L66.8882 74.7852L72.5405 95.9393L77.9829 109.021Z" fill="#016896"/>
<path d="M26.7876 40.2297C26.7128 39.3831 27.4272 38.6201 28.3621 38.5403L85.918 32.8586C86.8664 32.7824 87.6857 33.3961 87.7568 34.2562L99.0241 78.0624C99.0988 78.909 98.3845 79.672 97.4495 79.7518L25.907 85.1039C24.9586 85.1801 24.1393 84.5664 24.0682 83.7063L26.7876 40.2297Z" fill="#9A9A9A"/>
<path d="M85.6039 62.1573C85.6974 63.2554 84.7551 64.2175 83.0619 64.367L37.4185 68.1921C35.7118 68.338 34.3561 67.5643 34.2662 66.4527L33.5292 54.6294C33.4357 53.5312 34.6604 52.7038 36.3671 52.5579C36.3671 52.5579 42.6847 51.4912 58.0656 50.1551C73.4464 48.8189 81.817 49.7334 81.817 49.7334C83.5236 49.5876 84.6411 50.6903 84.7346 51.7884L85.6075 62.1438L85.6039 62.1573Z" fill="#AEE7FF"/>
<path d="M131.26 181.423C131.05 181.059 109.364 145.214 82.5999 132.287L86.6152 123.962C115.912 138.107 138.255 175.113 139.193 176.68L131.26 181.423Z" fill="#003147"/>
<path d="M34.3595 97.6177C34.3595 97.6177 28.903 99.1986 26.6085 102.626C22.6072 108.6 41.9845 110.545 41.8865 110.321C39.4521 105.061 36.64 102.92 34.3595 97.6177Z" fill="#016896"/>
<path d="M107 132.371C107.084 132.721 107.056 133.169 106.902 133.616C106.65 133.938 106.398 134.26 105.923 134.442C85.5659 139.185 78.6964 140.164 56.437 143.606C55.6255 143.886 54.9819 143.382 54.926 142.584C53.2331 122.494 42.0824 113.302 32.3867 98.2334C32.0789 97.8696 31.995 97.5199 32.1349 97.1981C32.2748 96.8623 32.5126 96.6664 32.8764 96.4566C52.8133 89.5311 72.7363 82.6196 92.6872 75.5823C93.037 75.4983 93.4987 75.4144 93.9324 75.6802C94.2682 75.8201 94.576 76.1839 94.7719 76.5336C99.5427 94.9316 104.076 113.539 107.014 132.371H107Z" fill="url(#paint1_linear_632_1004)"/>
<path d="M52.5615 102.921C63.1665 99.2272 71.5051 96.6948 82.1101 93.1132C84.9083 92.0919 88.2941 93.8267 89.4134 96.8627C90.5326 99.8987 89.1336 103.187 86.4613 104.11C76.0941 107.706 67.8535 110.252 57.4863 113.848C54.6881 114.869 51.5402 113.148 50.183 110.098C48.6161 107.02 49.6654 103.816 52.5615 102.921Z" fill="#016896"/>
<path d="M58.3957 107.23C59.0253 108.559 58.7735 110.154 57.7241 111.119C56.6748 112.085 55.0659 112.183 53.7647 111.623C52.3517 110.938 51.3583 109.58 51.3443 108.181C51.2044 106.782 52.0439 105.565 53.429 105.103C55.3317 104.32 57.5702 105.313 58.3957 107.244V107.23Z" fill="#AEE7FF"/>
<path d="M87.3148 97.4909C88.0703 99.3657 87.1189 101.324 85.496 101.884C83.7471 102.43 81.7884 101.478 81.0329 99.6036C80.2774 97.7288 81.1168 95.7561 82.8517 95.2104C84.6006 94.6648 86.5593 95.6162 87.3148 97.4909Z" fill="#AEE7FF"/>
<path d="M52.0439 129.279C52.1698 129.964 52.5056 130.3 52.6315 131C70.0501 126.341 87.021 122.437 104.44 117.778C104.314 117.093 104.174 116.757 104.062 115.946C86.6292 120.717 69.4625 124.62 52.0439 129.279Z" fill="#3E4150"/>
<path d="M53.5968 134.679C70.9035 130.007 87.9863 126.761 105.279 122.088C105.153 121.402 105.027 121.15 104.915 120.451C87.6086 125.124 70.5537 128.09 53.2331 132.875C53.359 133.56 53.4709 133.98 53.5968 134.679Z" fill="#3E4150"/>
<path d="M54.3383 138.317C71.645 133.644 88.7278 131.014 106.021 126.341C105.895 125.655 105.797 125.347 105.699 124.536C88.392 129.209 71.2812 131.741 54.1005 136.428C54.2124 137.225 54.2264 137.617 54.3523 138.303L54.3383 138.317Z" fill="#3E4150"/>
<path d="M93.4428 74.9244C93.4428 74.9244 97.9758 70.0276 102.061 69.482C107.182 68.6985 106.384 77.8485 105.083 80.7865C102.635 86.3129 97.1783 90.0065 96.7446 89.3489C93.5827 84.4941 91.0503 79.9611 93.4428 74.9384V74.9244Z" fill="#016896"/>
<path d="M75.8318 57.6952C75.5778 59.5399 73.8788 60.8331 72.0342 60.5791C70.1895 60.3251 68.8963 58.6261 69.1503 56.7815C69.4043 54.9368 71.1033 53.6437 72.9479 53.8976C74.7926 54.1516 76.0857 55.8506 75.8318 57.6952Z" fill="#346CD9"/>
<path d="M47.6785 59.2485C47.4245 61.0931 45.7255 62.3863 43.8809 62.1323C42.0363 61.8783 40.7431 60.1793 40.9971 58.3347C41.251 56.4901 42.95 55.1969 44.7946 55.4509C46.6393 55.7048 47.9325 57.4038 47.6785 59.2485Z" fill="#346CD9"/>
<path d="M59.5718 75.7906C67.2685 75.8414 73.4197 65.5103 72.675 64.1066C72.0621 62.3257 70.5084 62.5353 66.5854 63.3066C51.2104 66.3287 43.6983 63.5899 42.8808 66.0147C41.841 69.1345 50.8083 75.7303 59.5718 75.7906Z" fill="#003147"/>
<path d="M71.6617 67.0649C66.6981 66.7339 51.2126 68.4691 45.9971 70.9374L46.6615 71.437C48.7801 73.0904 54.7052 76.321 60.8749 75.6976C65.1596 75.0366 68.2899 72.0277 70.6077 68.8786C71.0005 68.3448 71.8303 67.0761 71.6617 67.0649Z" fill="#BD2A1D"/>
</g>
<defs>
<linearGradient id="paint0_linear_632_1004" x1="44.2667" y1="8.42372" x2="66.8944" y2="45.7569" gradientUnits="userSpaceOnUse">
<stop stop-color="#008DE9"/>
<stop offset="0.49" stop-color="#17FFFF"/>
<stop offset="0.74" stop-color="#44F6F5" stop-opacity="0.94"/>
<stop offset="1" stop-color="#B3E3DF" stop-opacity="0.8"/>
</linearGradient>
<linearGradient id="paint1_linear_632_1004" x1="65.9526" y1="94.335" x2="82.8144" y2="142.617" gradientUnits="userSpaceOnUse">
<stop stop-color="#C9C9C8"/>
<stop offset="0.92" stop-color="#808080"/>
</linearGradient>
<clipPath id="clip0_632_1004">
<rect y="0.205811" width="128" height="128" rx="32" fill="white"/>
</clipPath>
</defs>
</svg>
