<svg width="341" height="129" viewBox="0 0 341 129" fill="none" xmlns="http://www.w3.org/2000/svg">
<g clip-path="url(#clip0_607_29890)">
<path d="M203.322 46.9172L211.328 46.9172L211.328 38.9106L203.322 38.9106L203.322 46.9172Z" fill="#737DE6"/>
<path d="M192.691 44.6564L199.219 44.6564C199.404 44.6564 199.553 44.5071 199.553 44.3224C199.553 44.1376 199.404 43.9883 199.219 43.9883L192.909 43.9883L186.861 30.3496C186.808 30.229 186.689 30.151 186.557 30.151L180.552 30.151C180.367 30.151 180.218 30.3002 180.218 30.485C180.218 30.6697 180.367 30.819 180.552 30.819L186.34 30.819L192.387 44.4586C192.441 44.5791 192.559 44.6572 192.691 44.6572L192.691 44.6564Z" fill="#737DE6"/>
<path d="M156.722 34.6274L177.768 34.6274L177.768 26.9253L156.722 26.9253L156.722 34.6274Z" fill="#C9C9F5"/>
</g>
<g clip-path="url(#clip1_607_29890)">
<path d="M177.91 17.3572H146.516V34.9149H177.91V17.3572Z" fill="#C9C9F5"/>
<path d="M179.899 17.9961C180.152 16.9244 179.489 15.8506 178.417 15.5976C177.345 15.3447 176.271 16.0084 176.019 17.0801C175.766 18.1518 176.429 19.2256 177.501 19.4786C178.573 19.7315 179.647 19.0678 179.899 17.9961Z" fill="#737DE6"/>
<path d="M178.993 16.8647L178.633 16.5059L177.96 17.1792L177.287 16.5059L176.928 16.8647L177.601 17.538L176.928 18.212L177.287 18.5709L177.96 17.8976L178.633 18.5709L178.993 18.212L178.319 17.538L178.993 16.8647Z" fill="white"/>
<path d="M155.006 25.7222H149.98V33.1016H155.006V25.7222Z" fill="#737DE6"/>
<path d="M163.662 22.7964H158.637V33.1023H163.662V22.7964Z" fill="#737DE6"/>
<path d="M172.318 19.9331H167.293V33.1014H172.318V19.9331Z" fill="#737DE6"/>
</g>
<g clip-path="url(#clip2_607_29890)">
<path d="M126.249 101.783H24.084V102.016H126.249V101.783Z" fill="#E8F2FC"/>
<path d="M126.249 85.3499H24.084V85.5827H126.249V85.3499Z" fill="#E8F2FC"/>
<path d="M126.249 68.9121H24.084V69.1449H126.249V68.9121Z" fill="#E8F2FC"/>
<path d="M126.249 52.4746H24.084V52.7074H126.249V52.4746Z" fill="#E8F2FC"/>
<path d="M126.249 36.0369H24.084V36.2697H126.249V36.0369Z" fill="#E8F2FC"/>
<path d="M109.302 24.1031H109.078V111.875H109.302V24.1031Z" fill="#E8F2FC"/>
<path d="M111.513 19.2604H106.873V43.3009H111.513V19.2604Z" fill="url(#paint0_linear_607_29890)"/>
<path d="M111.897 62.1134H106.479V73.0097H111.897V62.1134Z" fill="url(#paint1_linear_607_29890)"/>
<path d="M58.1306 31.2786H57.9062V111.875H58.1306V31.2786Z" fill="#E8F2FC"/>
<path d="M61.649 53.4438V49.4518L58.0169 47.4537L54.3848 49.4518V53.4438L58.0169 55.4418L61.649 53.4438Z" fill="url(#paint2_linear_607_29890)"/>
<path d="M60.2652 27.7522H55.7695V41.5568H60.2652V27.7522Z" fill="url(#paint3_linear_607_29890)"/>
<path d="M60.3144 88.2535H55.7129V104.022H60.3144V88.2535Z" fill="url(#paint4_linear_607_29890)"/>
<path d="M24.0115 34.6567H23.7871V111.879H24.0115V34.6567Z" fill="#E8F2FC"/>
<path d="M23.8982 31.3931L20.8418 36.4348H26.9546L23.8982 31.3931Z" fill="url(#paint5_linear_607_29890)"/>
<path d="M27.4373 65.9405H20.3594V79.4614H27.4373V65.9405Z" fill="url(#paint6_linear_607_29890)"/>
<path d="M26.4376 45.3586H21.3535V58.0499H26.4376V45.3586Z" fill="url(#paint7_linear_607_29890)"/>
<path d="M41.0701 24.1032H40.8457V111.875H41.0701V24.1032Z" fill="#E8F2FC"/>
<path d="M46.425 38.7039H35.4863V58.5831H46.425V38.7039Z" fill="url(#paint8_linear_607_29890)"/>
<path d="M43.6689 16.8137H38.2461V31.393H43.6689V16.8137Z" fill="url(#paint9_linear_607_29890)"/>
<path d="M44.9989 86.7507H36.9219V101.317H44.9989V86.7507Z" fill="url(#paint10_linear_607_29890)"/>
<path d="M42.8216 69.0728C42.8216 70.3513 41.9877 71.3842 40.9547 71.3842C39.9218 71.3842 39.0879 70.347 39.0879 69.0728C39.0879 67.7986 39.9218 66.7615 40.9547 66.7615C41.9877 66.7615 42.8216 67.7986 42.8216 69.0728Z" fill="url(#paint11_linear_607_29890)"/>
<path d="M92.2458 38.704H92.0215V111.875H92.2458V38.704Z" fill="#E8F2FC"/>
<path d="M96.1248 25.8434H88.1367V44.9268H96.1248V25.8434Z" fill="url(#paint12_linear_607_29890)"/>
<path d="M95.4639 67.9896H88.8008V81.1253H95.4639V67.9896Z" fill="url(#paint13_linear_607_29890)"/>
<path d="M93.3342 92.7706C93.3342 93.4014 92.7965 93.9178 92.1319 93.9178C91.4673 93.9178 90.9297 93.4056 90.9297 92.7706C90.9297 92.1356 91.4673 91.6234 92.1319 91.6234C92.7965 91.6234 93.3342 92.1356 93.3342 92.7706Z" fill="url(#paint14_linear_607_29890)"/>
<path d="M74.7498 24.1038H74.5254V111.876H74.7498V24.1038Z" fill="#E8F2FC"/>
<path d="M79.7444 80.6935H69.5254V99.561H79.7444V80.6935Z" fill="url(#paint15_linear_607_29890)"/>
<path d="M76.2172 34.3948H73.0508V37.9126H76.2172V34.3948Z" fill="url(#paint16_linear_607_29890)"/>
<path d="M77.6401 24.1036C77.6401 25.6826 76.2939 26.9653 74.6345 26.9653C72.9751 26.9653 71.6289 25.6826 71.6289 24.1036C71.6289 22.5246 72.9751 21.2419 74.6345 21.2419C76.2939 21.2419 77.6401 22.5246 77.6401 24.1036Z" fill="url(#paint17_linear_607_29890)"/>
<path d="M126.363 31.2789H126.139V111.875H126.363V31.2789Z" fill="#E8F2FC"/>
<path d="M126.249 34.111L128.645 30.1614H123.857L126.249 34.111Z" fill="url(#paint18_linear_607_29890)"/>
<path d="M127.705 66.999H124.797V86.3956H127.705V66.999Z" fill="url(#paint19_linear_607_29890)"/>
<path d="M126.249 59.5104C127.893 59.5104 129.225 57.7118 129.225 55.4931C129.225 53.2744 127.893 51.4758 126.249 51.4758C124.606 51.4758 123.273 53.2744 123.273 55.4931C123.273 57.7118 124.606 59.5104 126.249 59.5104Z" fill="url(#paint20_linear_607_29890)"/>
<g clip-path="url(#clip3_607_29890)">
<path d="M62.657 66.3425H54.6504V74.3491H62.657V66.3425Z" fill="#737DE6"/>
<path d="M73.2892 68.6034H66.7617C66.577 68.6034 66.4277 68.7526 66.4277 68.9374C66.4277 69.1222 66.577 69.2714 66.7617 69.2714H73.0714L79.1191 82.9101C79.1729 83.0307 79.2917 83.1088 79.4236 83.1088H85.4288C85.6136 83.1088 85.7628 82.9596 85.7628 82.7748C85.7628 82.59 85.6136 82.4408 85.4288 82.4408H79.6405L73.5937 68.8012C73.5399 68.6806 73.421 68.6025 73.2892 68.6025V68.6034Z" fill="#737DE6"/>
<path d="M109.259 78.6323H88.2129V86.3344H109.259V78.6323Z" fill="#C9C9F5"/>
</g>
</g>
<g clip-path="url(#clip4_607_29890)">
<path d="M214.681 101.783H316.846V102.016H214.681V101.783Z" fill="#E8F2FC"/>
<path d="M214.681 85.3499H316.846V85.5827H214.681V85.3499Z" fill="#E8F2FC"/>
<path d="M214.681 68.9121H316.846V69.1449H214.681V68.9121Z" fill="#E8F2FC"/>
<path d="M214.681 52.4746H316.846V52.7074H214.681V52.4746Z" fill="#E8F2FC"/>
<path d="M214.681 36.0369H316.846V36.2697H214.681V36.0369Z" fill="#E8F2FC"/>
<path d="M231.625 24.1035H231.85V111.875H231.625V24.1035Z" fill="#E8F2FC"/>
<path d="M229.415 19.2607H234.055V43.3013H229.415V19.2607Z" fill="url(#paint21_linear_607_29890)"/>
<path d="M229.031 62.1137H234.449V73.01H229.031V62.1137Z" fill="url(#paint22_linear_607_29890)"/>
<path d="M282.797 31.2789H283.021V111.875H282.797V31.2789Z" fill="#E8F2FC"/>
<path d="M279.279 53.444V49.4521L282.911 47.454L286.543 49.4521V53.444L282.911 55.4421L279.279 53.444Z" fill="url(#paint23_linear_607_29890)"/>
<path d="M280.663 27.7525H285.158V41.5571H280.663V27.7525Z" fill="url(#paint24_linear_607_29890)"/>
<path d="M280.613 88.2538H285.215V104.023H280.613V88.2538Z" fill="url(#paint25_linear_607_29890)"/>
<path d="M316.914 34.6566H317.139V111.879H316.914V34.6566Z" fill="#E8F2FC"/>
<path d="M317.028 31.3929L320.084 36.4347H313.971L317.028 31.3929Z" fill="url(#paint26_linear_607_29890)"/>
<path d="M313.488 65.9404H320.566V79.4614H313.488V65.9404Z" fill="url(#paint27_linear_607_29890)"/>
<path d="M314.488 45.3585H319.572V58.0497H314.488V45.3585Z" fill="url(#paint28_linear_607_29890)"/>
<path d="M299.858 24.1032H300.082V111.875H299.858V24.1032Z" fill="#E8F2FC"/>
<path d="M294.503 38.7037H305.441V58.583H294.503V38.7037Z" fill="url(#paint29_linear_607_29890)"/>
<path d="M297.259 16.8137H302.682V31.393H297.259V16.8137Z" fill="url(#paint30_linear_607_29890)"/>
<path d="M295.929 86.7509H304.006V101.317H295.929V86.7509Z" fill="url(#paint31_linear_607_29890)"/>
<path d="M298.106 69.0731C298.106 70.3515 298.94 71.3844 299.973 71.3844C301.006 71.3844 301.84 70.3473 301.84 69.0731C301.84 67.7989 301.006 66.7617 299.973 66.7617C298.94 66.7617 298.106 67.7989 298.106 69.0731Z" fill="url(#paint32_linear_607_29890)"/>
<path d="M248.682 38.7041H248.906V111.876H248.682V38.7041Z" fill="#E8F2FC"/>
<path d="M244.805 25.8435H252.793V44.9269H244.805V25.8435Z" fill="url(#paint33_linear_607_29890)"/>
<path d="M245.466 67.9895H252.129V81.1252H245.466V67.9895Z" fill="url(#paint34_linear_607_29890)"/>
<path d="M247.596 92.7709C247.596 93.4016 248.133 93.9181 248.798 93.9181C249.462 93.9181 250 93.4058 250 92.7709C250 92.1359 249.462 91.6237 248.798 91.6237C248.133 91.6237 247.596 92.1359 247.596 92.7709Z" fill="url(#paint35_linear_607_29890)"/>
<path d="M266.18 24.1035H266.404V111.875H266.18V24.1035Z" fill="#E8F2FC"/>
<path d="M261.185 80.6932H271.404V99.5607H261.185V80.6932Z" fill="url(#paint36_linear_607_29890)"/>
<path d="M264.712 34.3945H267.879V37.9123H264.712V34.3945Z" fill="url(#paint37_linear_607_29890)"/>
<path d="M263.29 24.1034C263.29 25.6824 264.636 26.965 266.295 26.965C267.955 26.965 269.301 25.6824 269.301 24.1034C269.301 22.5244 267.955 21.2417 266.295 21.2417C264.636 21.2417 263.29 22.5244 263.29 24.1034Z" fill="url(#paint38_linear_607_29890)"/>
<path d="M214.569 31.2787H214.793V111.875H214.569V31.2787Z" fill="#E8F2FC"/>
<path d="M214.682 34.1107L212.286 30.1611H217.074L214.682 34.1107Z" fill="url(#paint39_linear_607_29890)"/>
<path d="M213.227 66.9986H216.135V86.3953H213.227V66.9986Z" fill="url(#paint40_linear_607_29890)"/>
<path d="M214.682 59.5103C213.039 59.5103 211.706 57.7116 211.706 55.4929C211.706 53.2742 213.039 51.4756 214.682 51.4756C216.326 51.4756 217.658 53.2742 217.658 55.4929C217.658 57.7116 216.326 59.5103 214.682 59.5103Z" fill="url(#paint41_linear_607_29890)"/>
</g>
<g clip-path="url(#clip5_607_29890)">
<path d="M268.671 36.6041C269.983 34.7627 269.395 32.6545 266.533 32.2862C258.121 31.1898 247.492 37.3323 241.269 40.5834C220.556 51.3908 206.404 66.8421 206.264 66.9945L197.734 59.2689C198.357 58.5746 213.334 42.1793 235.944 30.3771C242.183 27.1175 249.109 23.752 256.267 22.0969C256.267 22.0969 267.38 19.9929 271.587 23.8452C275.584 27.5069 273.416 32.9763 268.671 36.6041Z" fill="url(#paint42_linear_607_29890)"/>
<path d="M269.768 49.9601L264.057 39.9697C266.174 38.7632 267.461 37.7853 268.671 36.6042C272.312 32.752 274.09 27.5028 270.094 23.8453C265.886 19.9888 256.264 22.097 256.264 22.097C259.921 21.2503 263.638 20.8524 267.359 21.1445C274.357 21.699 279.496 25.564 280.766 31.2365C282.29 38.0393 278.069 45.2104 269.763 49.9601H269.768Z" fill="url(#paint43_linear_607_29890)"/>
<path d="M255.215 51.5138L272.626 54.2696L262.534 35.4783L255.215 51.5138Z" fill="url(#paint44_linear_607_29890)"/>
</g>
<g clip-path="url(#clip6_607_29890)">
<path d="M113.737 36.1591H151.334V109.869H96.7253V53.1709L96.8531 36.3685L113.737 36.1591Z" fill="#CADAF7"/>
<path d="M104.599 60.6436H142.582C143.548 60.6436 144.33 60.2586 144.33 59.7826V58.1653C144.33 57.6906 143.547 57.3043 142.582 57.3043H104.599C103.633 57.3043 102.851 57.6893 102.851 58.1653V59.7826C102.851 60.2573 103.635 60.6436 104.599 60.6436Z" fill="white"/>
<path d="M104.599 71.2532H142.582C143.548 71.2532 144.33 70.8683 144.33 70.3922V68.7749C144.33 68.3002 143.547 67.9139 142.582 67.9139H104.599C103.633 67.9139 102.851 68.2989 102.851 68.7749V70.3922C102.851 70.8669 103.635 71.2532 104.599 71.2532Z" fill="white"/>
<path d="M104.599 81.8628H142.582C143.548 81.8628 144.33 81.4779 144.33 81.0018V79.3846C144.33 78.9099 143.547 78.5236 142.582 78.5236H104.599C103.633 78.5236 102.851 78.9085 102.851 79.3846V81.0018C102.851 81.4765 103.635 81.8628 104.599 81.8628Z" fill="white"/>
<path d="M104.599 92.4719H142.582C143.548 92.4719 144.33 92.087 144.33 91.6109V89.9937C144.33 89.519 143.547 89.1327 142.582 89.1327H104.599C103.633 89.1327 102.851 89.5176 102.851 89.9937V91.6109C102.851 92.0857 103.635 92.4719 104.599 92.4719Z" fill="white"/>
<path d="M104.599 103.082H142.582C143.548 103.082 144.33 102.697 144.33 102.221V100.603C144.33 100.129 143.547 99.7423 142.582 99.7423H104.599C103.633 99.7423 102.851 100.127 102.851 100.603V102.221C102.851 102.695 103.635 103.082 104.599 103.082Z" fill="white"/>
<path d="M109.699 50.3485H114.037C114.685 50.3485 115.211 49.8221 115.211 49.1747V48.3518C115.211 47.7043 114.685 47.1779 114.037 47.1779C113.607 47.1779 113.258 46.8284 113.258 46.3985V40.7415C113.258 40.6327 113.169 40.5443 113.06 40.5443C112.952 40.5443 112.863 40.6327 112.863 40.7415V46.3985C112.863 47.046 113.39 47.5724 114.037 47.5724C114.467 47.5724 114.818 47.922 114.818 48.3518V49.1747C114.818 49.6045 114.468 49.9541 114.037 49.9541H109.699C109.27 49.9541 108.92 49.6045 108.92 49.1747V48.3518C108.92 47.922 109.27 47.5724 109.699 47.5724C110.347 47.5724 110.873 47.046 110.873 46.3985V40.7415C110.873 40.6327 110.785 40.5443 110.676 40.5443C110.567 40.5443 110.479 40.6327 110.479 40.7415V46.3985C110.479 46.8284 110.129 47.1779 109.698 47.1779C109.051 47.1779 108.524 47.7043 108.524 48.3518V49.1747C108.524 49.8221 109.051 50.3485 109.698 50.3485H109.699Z" fill="#737DE6"/>
<path d="M106.346 34.826H117.393C117.666 34.826 117.887 35.0471 117.887 35.3198V41.5318C117.887 41.8044 117.666 42.0255 117.393 42.0255H106.346C106.073 42.0255 105.852 41.8044 105.852 41.5318V35.3198C105.852 35.0471 106.073 34.826 106.346 34.826Z" fill="#4E59CC"/>
</g>
<g clip-path="url(#clip7_607_29890)">
<path d="M201.581 77.4122C198.69 76.2438 196.632 73.4075 196.632 70.1098V69.3648C196.632 66.0671 198.69 63.2308 201.581 62.0625V61.4868H150.431C146.1 61.4868 142.553 65.03 142.553 69.3606V70.1056C142.553 74.4362 146.096 77.9837 150.431 77.9837H201.581V77.4079V77.4122Z" fill="#FDFEFF"/>
<mask id="mask0_607_29890" style="mask-type:luminance" maskUnits="userSpaceOnUse" x="142" y="61" width="60" height="17">
<path d="M201.585 77.4122C198.694 76.2438 196.636 73.4075 196.636 70.1098V69.3648C196.636 66.0671 198.694 63.2308 201.585 62.0625V61.4868H150.435C146.104 61.4868 142.557 65.03 142.557 69.3606V70.1056C142.557 74.4362 146.1 77.9837 150.435 77.9837H201.585V77.4079V77.4122Z" fill="white"/>
</mask>
<g mask="url(#mask0_607_29890)">
<path d="M213.334 63.0744H133.301V63.921H213.334V63.0744Z" fill="#E1EFCD"/>
<path d="M213.334 65.6143H133.301V66.461H213.334V65.6143Z" fill="#E1EFCD"/>
<path d="M213.334 68.1543H133.301V69.0009H213.334V68.1543Z" fill="#E1EFCD"/>
<path d="M213.334 70.6942H133.301V71.5409H213.334V70.6942Z" fill="#E1EFCD"/>
<path d="M213.334 73.2341H133.301V74.0808H213.334V73.2341Z" fill="#E1EFCD"/>
<path d="M213.334 75.7741H133.301V76.6208H213.334V75.7741Z" fill="#E1EFCD"/>
</g>
<path d="M201.582 77.4122V76.2988H150.432C147.02 76.2988 144.243 73.5218 144.243 70.1099V69.3648C144.243 65.9528 147.02 63.1758 150.432 63.1758H201.582V59.8019H150.432C145.157 59.8019 140.869 64.0944 140.869 69.3648V70.1099C140.869 75.3845 145.157 79.6727 150.432 79.6727H201.582V77.4122Z" fill="#FFB570"/>
<path d="M213.984 79.6727H136.427C134.323 79.6727 132.617 81.3785 132.617 83.4826V92.8042C132.617 94.9084 134.323 96.6141 136.427 96.6141H213.984C216.088 96.6141 217.794 94.9084 217.794 92.8042V83.4826C217.794 81.3785 216.088 79.6727 213.984 79.6727Z" fill="#0FD0C7"/>
<path d="M210.193 79.6728H206.383V96.6142H210.193V79.6728Z" fill="#009990"/>
<path d="M203.841 79.6728H200.031V96.6142H203.841V79.6728Z" fill="#009990"/>
<path d="M150.544 79.6732H146.734V96.6145H150.544V79.6732Z" fill="#009990"/>
<path d="M144.193 79.6732H140.383V96.6145H144.193V79.6732Z" fill="#009990"/>
<path d="M140.646 98.8749C143.538 100.043 145.595 102.88 145.595 106.177V106.922C145.595 110.22 143.538 113.056 140.646 114.225V114.8H208.73C213.06 114.8 216.603 111.257 216.603 106.922V106.177C216.603 101.847 213.06 98.3034 208.73 98.3034H140.646V98.8791V98.8749Z" fill="#FDFEFF"/>
<mask id="mask1_607_29890" style="mask-type:luminance" maskUnits="userSpaceOnUse" x="140" y="98" width="77" height="17">
<path d="M140.646 98.8748C143.538 100.043 145.595 102.879 145.595 106.177V106.922C145.595 110.22 143.538 113.056 140.646 114.225V114.8H208.73C213.06 114.8 216.603 111.257 216.603 106.922V106.177C216.603 101.847 213.06 98.3033 208.73 98.3033H140.646V98.8791V98.8748Z" fill="white"/>
</mask>
<g mask="url(#mask1_607_29890)">
<path d="M225.859 112.366H128.893V113.213H225.859V112.366Z" fill="#E1EFCD"/>
<path d="M225.859 109.826H128.893V110.673H225.859V109.826Z" fill="#E1EFCD"/>
<path d="M225.859 107.286H128.893V108.133H225.859V107.286Z" fill="#E1EFCD"/>
<path d="M225.859 104.746H128.893V105.593H225.859V104.746Z" fill="#E1EFCD"/>
<path d="M225.859 102.206H128.893V103.053H225.859V102.206Z" fill="#E1EFCD"/>
<path d="M225.859 99.6664H128.893V100.513H225.859V99.6664Z" fill="#E1EFCD"/>
</g>
<path d="M140.648 98.875V99.9884H208.732C212.143 99.9884 214.92 102.765 214.92 106.177V106.922C214.92 110.334 212.143 113.111 208.732 113.111H140.648V116.485H208.732C214.006 116.485 218.294 112.193 218.294 106.922V106.177C218.294 100.903 214.006 96.6145 208.732 96.6145H140.648V98.875Z" fill="#208086"/>
</g>
<g clip-path="url(#clip8_607_29890)">
<path d="M281.173 76.5661C278.281 75.3977 276.224 72.5615 276.224 69.2638V68.5187C276.224 65.221 278.281 62.3848 281.173 61.2164V60.6407H230.023C225.692 60.6407 222.145 64.1839 222.145 68.5145V69.2595C222.145 73.5901 225.688 77.1376 230.023 77.1376H281.173V76.5619V76.5661Z" fill="#FDFEFF"/>
<mask id="mask2_607_29890" style="mask-type:luminance" maskUnits="userSpaceOnUse" x="222" y="60" width="60" height="18">
<path d="M281.179 76.5657C278.287 75.3973 276.23 72.561 276.23 69.2634V68.5183C276.23 65.2206 278.287 62.3844 281.179 61.216V60.6403H230.028C225.698 60.6403 222.15 64.1835 222.15 68.5141V69.2591C222.15 73.5897 225.694 77.1372 230.028 77.1372H281.179V76.5614V76.5657Z" fill="white"/>
</mask>
<g mask="url(#mask2_607_29890)">
<path d="M292.928 62.2279H212.895V63.0746H292.928V62.2279Z" fill="#E1EFCD"/>
<path d="M292.928 64.7678H212.895V65.6145H292.928V64.7678Z" fill="#E1EFCD"/>
<path d="M292.928 67.3078H212.895V68.1544H292.928V67.3078Z" fill="#E1EFCD"/>
<path d="M292.928 69.8477H212.895V70.6944H292.928V69.8477Z" fill="#E1EFCD"/>
<path d="M292.928 72.3876H212.895V73.2343H292.928V72.3876Z" fill="#E1EFCD"/>
<path d="M292.928 74.9276H212.895V75.7743H292.928V74.9276Z" fill="#E1EFCD"/>
</g>
<path d="M281.172 76.5659V75.4526H230.022C226.61 75.4526 223.833 72.6756 223.833 69.2636V68.5186C223.833 65.1066 226.61 62.3296 230.022 62.3296H281.172V58.9557H230.022C224.747 58.9557 220.459 63.2482 220.459 68.5186V69.2636C220.459 74.5382 224.747 78.8265 230.022 78.8265H281.172V76.5659Z" fill="#FFB570"/>
<path d="M293.572 78.8264H216.015C213.911 78.8264 212.205 80.5322 212.205 82.6363V91.9579C212.205 94.0621 213.911 95.7678 216.015 95.7678H293.572C295.676 95.7678 297.382 94.0621 297.382 91.9579V82.6363C297.382 80.5322 295.676 78.8264 293.572 78.8264Z" fill="#0FD0C7"/>
<path d="M289.777 78.8258H285.967V95.7672H289.777V78.8258Z" fill="#009990"/>
<path d="M283.425 78.8258H279.615V95.7672H283.425V78.8258Z" fill="#009990"/>
<path d="M230.13 78.8258H226.32V95.7672H230.13V78.8258Z" fill="#009990"/>
<path d="M223.779 78.8258H219.969V95.7672H223.779V78.8258Z" fill="#009990"/>
<path d="M220.234 98.0284C223.126 99.1968 225.183 102.033 225.183 105.331V106.076C225.183 109.373 223.126 112.21 220.234 113.378V113.954H288.317C292.648 113.954 296.191 110.411 296.191 106.076V105.331C296.191 101 292.648 97.4569 288.317 97.4569H220.234V98.0326V98.0284Z" fill="#FDFEFF"/>
<mask id="mask3_607_29890" style="mask-type:luminance" maskUnits="userSpaceOnUse" x="220" y="97" width="77" height="17">
<path d="M220.236 98.0286C223.128 99.197 225.185 102.033 225.185 105.331V106.076C225.185 109.374 223.128 112.21 220.236 113.378V113.954H288.319C292.65 113.954 296.193 110.411 296.193 106.076V105.331C296.193 101 292.65 97.4572 288.319 97.4572H220.236V98.0329V98.0286Z" fill="white"/>
</mask>
<g mask="url(#mask3_607_29890)">
<path d="M305.453 111.52H208.486V112.366H305.453V111.52Z" fill="#E1EFCD"/>
<path d="M305.453 108.98H208.486V109.826H305.453V108.98Z" fill="#E1EFCD"/>
<path d="M305.453 106.44H208.486V107.286H305.453V106.44Z" fill="#E1EFCD"/>
<path d="M305.453 103.9H208.486V104.746H305.453V103.9Z" fill="#E1EFCD"/>
<path d="M305.453 101.36H208.486V102.207H305.453V101.36Z" fill="#E1EFCD"/>
<path d="M305.453 98.8199H208.486V99.6666H305.453V98.8199Z" fill="#E1EFCD"/>
</g>
<path d="M220.234 98.0282V99.1416H288.317C291.729 99.1416 294.506 101.919 294.506 105.331V106.076C294.506 109.488 291.729 112.265 288.317 112.265H220.234V115.638H288.317C293.592 115.638 297.88 111.346 297.88 106.076V105.331C297.88 100.056 293.592 95.7677 288.317 95.7677H220.234V98.0282Z" fill="#208086"/>
</g>
<g clip-path="url(#clip9_607_29890)">
<path d="M146.036 107.934H74.7862C73.5775 107.934 72.5977 108.914 72.5977 110.122V115.482C72.5977 116.69 73.5775 117.67 74.7862 117.67H146.036C147.244 117.67 148.224 116.69 148.224 115.482V110.122C148.224 108.914 147.244 107.934 146.036 107.934Z" fill="#D92D65"/>
<path d="M143.845 107.934H141.656V117.67H143.845V107.934Z" fill="#A50F45"/>
<path d="M140.196 107.934H138.008V117.67H140.196V107.934Z" fill="#A50F45"/>
<path d="M82.8956 107.934H80.707V117.67H82.8956V107.934Z" fill="#A50F45"/>
<path d="M79.2472 107.934H77.0586V117.67H79.2472V107.934Z" fill="#A50F45"/>
<path d="M128.666 110.592H92.4043V113.772H128.666V110.592Z" fill="#A50F45"/>
<path d="M135.876 99.5862H74.7862C73.5775 99.5862 72.5977 100.566 72.5977 101.775V105.864C72.5977 107.073 73.5775 108.053 74.7862 108.053H135.876C137.085 108.053 138.065 107.073 138.065 105.864V101.775C138.065 100.566 137.085 99.5862 135.876 99.5862Z" fill="#FCC447"/>
<path d="M133.685 99.5865H131.496V108.053H133.685V99.5865Z" fill="#E0A122"/>
<path d="M130.036 99.5865H127.848V108.053H130.036V99.5865Z" fill="#E0A122"/>
<path d="M82.8956 99.5865H80.707V108.053H82.8956V99.5865Z" fill="#E0A122"/>
<path d="M79.2472 99.5865H77.0586V108.053H79.2472V99.5865Z" fill="#E0A122"/>
<path d="M118.506 102.245H92.4043V104.154H118.506V102.245Z" fill="#E0A122"/>
</g>
<path d="M92.722 70.5845C100.638 72.9382 105.146 81.2649 102.793 89.1811C100.439 97.0972 92.1124 101.606 84.1962 99.2519C76.2843 96.9025 71.7717 88.5757 74.1296 80.6596C76.4791 72.7434 84.8058 68.2308 92.722 70.5845Z" fill="#7B85FF"/>
<path d="M91.9304 73.2513C98.3776 75.169 102.048 81.9464 100.13 88.3936C98.2125 94.8408 91.4351 98.511 84.9879 96.5934C78.5406 94.6757 74.8704 87.8983 76.7881 81.4511C78.7057 75.0039 85.4874 71.3337 91.9304 73.2513Z" fill="#C8EDE6"/>
<path d="M101.261 87.2825L100.473 89.9321L119.154 95.4871L119.942 92.8375L101.261 87.2825Z" fill="#7B85FF"/>
<path d="M107.179 87.152L105.357 93.2791L128.222 100.078L130.044 93.9509L107.179 87.152Z" fill="#D1396C"/>
<path d="M80.3592 83.1062C81.9721 78.1703 86.9504 75.4737 91.9668 76.8199C92.6145 76.9934 92.915 75.9944 92.2631 75.8208C86.6922 74.3265 81.1509 77.3278 79.3602 82.8099C79.1528 83.4491 80.1518 83.7454 80.3592 83.1062Z" fill="#FDFEFF"/>
<path d="M139.246 41.1753H223.53C224.693 41.1753 225.639 42.1213 225.639 43.2844V97.5589H137.137V43.2844C137.137 42.1213 138.083 41.1753 139.246 41.1753Z" fill="#8195EB"/>
<path d="M139.246 41.1753H223.53C224.693 41.1753 225.639 42.1213 225.639 43.2844V47.0479H137.137V43.2844C137.137 42.1213 138.083 41.1753 139.246 41.1753Z" fill="#4A6EFC"/>
<path d="M211.016 92.8204H150.48V50.9114H211.016V92.8204ZM151.365 92.3477H210.139V51.384H151.365V92.3436V92.3477Z" fill="#0BEF79"/>
<path d="M211.52 70.7837H209.137V73.1671H211.52V70.7837Z" fill="white"/>
<path d="M211.759 73.4046H208.9V70.5461H211.759V73.4046ZM209.375 72.9337H211.288V71.0212H209.375V72.9337Z" fill="#0BEF79"/>
<path d="M211.52 91.428H209.137V93.8114H211.52V91.428Z" fill="white"/>
<path d="M211.759 94.0489H208.9V91.1904H211.759V94.0489ZM209.375 93.578H211.288V91.6655H209.375V93.578Z" fill="#0BEF79"/>
<path d="M211.52 50.2173H209.137V52.6007H211.52V50.2173Z" fill="white"/>
<path d="M211.759 52.8382H208.9V49.9797H211.759V52.8382ZM209.375 52.3673H211.288V50.4548H209.375V52.3673Z" fill="#0BEF79"/>
<path d="M151.942 50.2173H149.559V52.6007H151.942V50.2173Z" fill="white"/>
<path d="M152.181 52.8382H149.322V49.9797H152.181V52.8382ZM149.797 52.3673H151.71V50.4548H149.797V52.3673Z" fill="#0BEF79"/>
<path d="M152.145 70.7839H149.762V73.1674H152.145V70.7839Z" fill="white"/>
<path d="M152.382 73.4049H149.523V70.5464H152.382V73.4049ZM149.998 72.9339H151.911V71.0214H149.998V72.9339Z" fill="#0BEF79"/>
<path d="M151.835 91.2806H149.451V93.664H151.835V91.2806Z" fill="white"/>
<path d="M152.071 93.9015H149.213V91.043H152.071V93.9015ZM149.688 93.4306H151.6V91.5181H149.688V93.4306Z" fill="#0BEF79"/>
<path d="M179.447 50.295V52.6785H181.831V50.295H179.447Z" fill="white"/>
<path d="M182.069 52.912H179.211V50.0535H182.069V52.912ZM179.686 52.441H181.598V50.5285H179.686V52.441Z" fill="#0BEF79"/>
<path d="M179.447 90.9857V93.3691H181.831V90.9857H179.447Z" fill="white"/>
<path d="M182.069 93.6026H179.211V90.7441H182.069V93.6026ZM179.686 93.1317H181.598V91.2192H179.686V93.1317Z" fill="#0BEF79"/>
<path d="M191.425 65.9399C191.425 60.0672 186.756 55.284 180.929 55.0997C174.905 54.9113 169.765 59.8543 169.737 65.8825C169.72 68.8229 170.875 71.493 172.763 73.4547C174.52 75.2811 175.56 77.681 175.56 80.2159V80.6418H185.606V80.22C185.606 77.726 186.568 75.318 188.317 73.5407C190.241 71.5831 191.429 68.9007 191.429 65.9399H191.425Z" fill="url(#paint45_linear_607_29890)"/>
<path d="M175.584 80.5149H185.581V86.3916C185.581 87.7963 184.442 88.9348 183.037 88.9348H178.131C176.727 88.9348 175.588 87.7963 175.588 86.3916V80.5149H175.584Z" fill="#0B334C"/>
<path d="M185.155 85.7486L175.679 83.8279C175.294 83.7501 175.016 83.4102 175.016 83.0171C175.016 82.4929 175.495 82.0997 176.011 82.2062L185.487 84.1269C185.872 84.2047 186.151 84.5446 186.151 84.9378C186.151 85.4619 185.671 85.8551 185.155 85.7486Z" fill="#114D73"/>
<path d="M185.155 84.0575L175.679 82.1368C175.294 82.059 175.016 81.7191 175.016 81.3259C175.016 80.8017 175.495 80.4086 176.011 80.5151L185.487 82.4357C185.872 82.5135 186.151 82.8534 186.151 83.2466C186.151 83.7708 185.671 84.1639 185.155 84.0575Z" fill="#0B334C"/>
<path d="M185.155 87.44L175.679 85.5193C175.294 85.4415 175.016 85.1016 175.016 84.7085C175.016 84.1843 175.495 83.7911 176.011 83.8976L185.487 85.8183C185.872 85.8961 186.151 86.236 186.151 86.6292C186.151 87.1534 185.671 87.5465 185.155 87.44Z" fill="#0B334C"/>
<path d="M181.703 81.4815L181.146 81.4078C181.626 77.6893 182.199 73.9421 182.862 70.2318C182.215 70.6168 181.445 70.8748 180.585 70.9936C179.979 71.0755 179.197 71.1041 178.411 70.8994C179.459 74.0978 180.188 77.4067 180.573 80.7485L180.012 80.814C179.615 77.3658 178.849 73.9544 177.739 70.6659C177.551 70.5799 177.362 70.4816 177.182 70.3629C176.58 69.9656 176.109 69.3514 175.888 68.6756C175.765 68.303 175.929 67.9221 176.289 67.7542C176.65 67.5863 177.047 67.701 177.256 68.0368C177.547 68.4954 177.751 69.0155 177.928 69.507C178.018 69.7527 178.104 69.9984 178.186 70.2441C178.853 70.4857 179.652 70.5554 180.508 70.4407C181.175 70.3506 182.162 70.109 182.997 69.4783C183.161 68.5855 183.329 67.6928 183.501 66.8041C183.542 66.5993 183.595 66.3168 183.792 66.0997C183.923 65.9523 184.12 65.8622 184.316 65.854C184.48 65.8458 184.636 65.9072 184.75 66.0137C184.902 66.1611 184.943 66.3618 184.959 66.5174C185.016 67.0703 184.959 67.574 184.783 68.0163C184.517 68.7043 184.087 69.2981 183.522 69.7732C182.817 73.6596 182.211 77.5869 181.707 81.4856L181.703 81.4815ZM176.621 68.2456C176.58 68.2456 176.543 68.2579 176.527 68.2661C176.478 68.2866 176.375 68.3562 176.425 68.5036C176.605 69.0483 176.977 69.5438 177.461 69.8755C177.44 69.8182 177.42 69.7568 177.399 69.6995C177.231 69.2367 177.043 68.7534 176.781 68.3398C176.736 68.2661 176.674 68.2456 176.625 68.2456H176.621ZM184.337 66.4151C184.308 66.4151 184.247 66.4314 184.21 66.4724C184.128 66.5666 184.091 66.7181 184.054 66.9065C183.931 67.5331 183.812 68.1637 183.694 68.7944C183.915 68.5159 184.103 68.1883 184.251 67.8115C184.39 67.4512 184.435 67.0375 184.39 66.5748C184.378 66.4519 184.357 66.4232 184.349 66.4151C184.349 66.4151 184.341 66.4151 184.333 66.4151H184.337Z" fill="#0B334C"/>
<path d="M176.172 80.4941L185.57 82.4762" stroke="white" stroke-width="0.126953" stroke-linecap="round" stroke-linejoin="round"/>
<path d="M175.604 85.4617L185.215 87.5011" stroke="white" stroke-width="0.126953" stroke-linecap="round" stroke-linejoin="round"/>
<path d="M194.931 102.791C194.906 102.537 194.845 101.955 194.664 101.779C194.55 101.664 194.357 101.501 194.181 101.529C193.882 101.578 194.066 101.865 194.128 101.992C194.324 102.381 194.095 103.032 193.546 102.701C192.944 102.336 192.805 101.57 192.514 100.993C192.486 100.936 192.432 100.817 192.363 100.796C192.158 100.743 192.047 100.899 192.031 101.034C192.007 101.271 192.179 101.755 192.248 101.968C192.326 102.201 192.6 102.496 192.293 102.414C192.215 102.393 192.105 102.25 192.08 102.197C191.998 102.041 191.925 101.877 191.859 101.718C191.761 101.48 191.847 101.169 191.622 100.997C191.47 100.882 191.294 101.083 191.261 101.23C191.192 101.55 191.351 102.008 191.503 102.414C191.519 102.459 191.925 103.016 191.843 102.975C191.568 102.836 191.433 102.549 191.298 102.295C191.228 102.164 191.187 101.705 190.958 101.755C190.61 101.824 190.774 102.459 190.848 102.635C190.929 102.823 191.065 102.995 191.196 103.155C191.249 103.221 191.507 103.462 191.405 103.544C191.29 103.634 191.106 103.221 191.061 103.159C190.97 103.045 190.79 102.819 190.618 102.975C190.471 103.11 190.626 103.368 190.688 103.495C190.839 103.798 191.024 104.093 191.245 104.351C191.683 104.863 192.289 105.625 193.108 105.485C193.387 105.44 193.6 105.354 193.808 105.141C193.952 104.994 194.12 104.797 194.243 104.638C194.374 104.466 194.472 104.392 194.611 104.228C194.771 104.036 194.881 103.839 194.922 103.622C195.004 103.217 194.967 103.188 194.931 102.787V102.791Z" fill="#FBD9C6"/>
<path d="M206.134 108.811C202.354 108.811 197.8 107.93 192.861 105.596L193.91 103.376C201.981 107.193 208.927 106.755 212.42 105.223C213.743 104.642 214.632 103.888 214.861 103.155C215.586 100.825 212.834 98.1179 211.716 97.2702L213.194 95.3044C213.415 95.4723 218.596 99.4243 217.212 103.884C216.765 105.317 215.418 106.595 213.415 107.476C211.589 108.278 209.103 108.819 206.142 108.819L206.134 108.811Z" fill="#A75CD9"/>
<path d="M209.477 99.7929C209.788 95.9515 209.125 91.7211 209.833 88.1992C211.287 80.9465 218.523 78.518 224.326 79.4722C228.004 80.0783 231.903 81.9375 233.84 85.6396C236.076 89.911 235.437 98.0769 234.065 102.598C230.502 114.36 219.928 114.687 210.841 112.615C208.707 112.128 206.123 110.076 204.456 108.532C205.394 108.688 206.356 108.688 207.298 108.532C205.857 108.127 204.563 107.136 203.715 105.776C204.657 106.181 205.758 105.85 206.606 105.203C208.408 103.827 209.284 102.148 209.477 99.7929Z" fill="url(#paint46_linear_607_29890)"/>
<path d="M210.888 91.7415C211.01 91.3729 210.748 92.3927 210.658 92.0036C209.725 87.8387 212.403 84.5011 215.892 82.9326C219.185 81.4542 223.042 81.3027 226.454 82.5272C228.039 83.0964 229.533 83.9646 230.774 85.1072C232.715 86.8886 233.903 88.9199 233.768 91.5449C233.559 95.6607 232.437 95.9678 232.392 96.6968C232.392 96.6968 234.095 89.0673 226.888 85.6273C221.142 82.8876 215.47 83.2316 211.17 90.4106L210.884 91.7374L210.888 91.7415Z" fill="#5932CF"/>
<path d="M229.794 120.314L229.278 120.593C229.155 120.457 224.896 117.501 225.94 112.201L228.635 112.083C227.848 116.067 229.728 119.159 230.441 119.913L229.794 120.314Z" fill="#4AD5C2"/>
<path d="M215.238 120.458L215.533 120.347L216.024 120.265L216.552 120.286C216.491 120.167 215.627 114.29 217.351 110.613L214.726 109.593C212.432 114.483 215.152 120.298 215.238 120.458Z" fill="#4AD5C2"/>
<path d="M228.352 113.397L214.518 111.513L213.908 107.688L229.159 110.453L228.352 113.397Z" fill="#4AD5C2"/>
<path d="M213.102 121.629C213.102 121.629 213.102 121.649 213.106 121.657L217.013 121.088C217.013 121.088 217.013 121.068 217.013 121.06C217.005 121.002 216.993 120.945 216.976 120.892L213.086 121.461C213.086 121.518 213.094 121.576 213.102 121.633V121.629Z" fill="white"/>
<path d="M214.81 119.667C213.876 119.802 213.176 120.482 213.094 121.26L216.911 120.703C216.607 119.978 215.743 119.528 214.81 119.667Z" fill="white"/>
<path d="M213.094 121.26C213.086 121.326 213.081 121.391 213.086 121.457L216.976 120.888C216.96 120.822 216.935 120.761 216.911 120.703L213.094 121.26Z" fill="#5932CF"/>
<path d="M215.076 120.29C215.088 120.384 215.023 120.474 214.929 120.486C214.834 120.498 214.744 120.433 214.732 120.339C214.72 120.244 214.785 120.154 214.879 120.142C214.974 120.13 215.064 120.195 215.076 120.29Z" fill="#221F1F"/>
<path d="M215.07 119.913C215.328 119.319 215.337 119.172 216.049 119.405C216.536 119.565 216.659 119.733 216.348 120.114C216.012 120.015 215.668 119.901 215.32 119.876L215.074 119.913H215.07Z" fill="white"/>
<path d="M215.813 119.991C215.825 120.064 215.772 120.134 215.698 120.146C215.625 120.159 215.555 120.105 215.543 120.032C215.53 119.958 215.584 119.888 215.657 119.876C215.731 119.864 215.801 119.917 215.813 119.991Z" fill="#221F1F"/>
<path d="M227.421 121.982C227.421 121.982 227.429 121.999 227.433 122.007L231.025 120.369C231.025 120.369 231.017 120.353 231.013 120.34C230.988 120.287 230.959 120.238 230.931 120.189L227.355 121.823C227.372 121.876 227.392 121.929 227.417 121.982H227.421Z" fill="white"/>
<path d="M228.519 119.624C227.659 120.017 227.175 120.86 227.315 121.634L230.824 120.033C230.333 119.423 229.379 119.231 228.519 119.624Z" fill="white"/>
<path d="M227.315 121.63C227.327 121.696 227.339 121.757 227.36 121.823L230.935 120.189C230.902 120.131 230.861 120.078 230.82 120.029L227.311 121.63H227.315Z" fill="#5932CF"/>
<path d="M228.945 120.144C228.986 120.23 228.945 120.336 228.859 120.373C228.773 120.414 228.666 120.373 228.629 120.287C228.588 120.201 228.629 120.095 228.715 120.058C228.801 120.017 228.908 120.058 228.945 120.144Z" fill="#221F1F"/>
<path d="M228.834 119.783C228.916 119.14 228.883 118.997 229.633 119.022C230.144 119.038 230.308 119.165 230.116 119.62C229.768 119.62 229.403 119.603 229.063 119.681L228.838 119.783H228.834Z" fill="white"/>
<path d="M229.567 119.652C229.6 119.722 229.567 119.804 229.498 119.832C229.428 119.865 229.346 119.832 229.317 119.763C229.285 119.693 229.317 119.611 229.387 119.583C229.457 119.55 229.539 119.583 229.567 119.652Z" fill="#221F1F"/>
<path d="M231.888 96.2423C231.904 95.927 231.908 95.6608 231.9 95.3495C231.724 89.9315 227.141 86.1311 221.736 85.8362C217.178 85.5864 211.915 88.0559 211.092 91.5205C210.883 92.4091 210.662 94.0186 211.092 94.8663C211.567 95.8082 214.397 97.3726 216.858 97.7125C218.406 97.9254 218.885 98.2203 221.764 98.3759C227.502 98.6872 232.199 98.7076 231.892 96.2382L231.888 96.2423Z" fill="#FCDBC7"/>
<path d="M226.713 93.6051C226.668 93.2611 226.353 93.0194 226.009 93.0645C225.665 93.1095 225.423 93.4249 225.468 93.7689C225.513 94.1129 225.829 94.3545 226.173 94.3094C226.517 94.2644 226.758 93.9491 226.713 93.6051Z" fill="#426932"/>
<path d="M212.639 109.969L229.164 111.173L232.493 96.8933C232.493 96.8933 229.835 98.0277 228.054 98.1628C223.25 98.5191 220.642 98.6583 216.116 97.2127L213.553 96.2298L210.903 94.7515L210.678 95.1569L212.639 109.974V109.969Z" fill="#A75CD9"/>
<path d="M216.309 92.4706C216.264 92.147 215.94 91.9218 215.592 91.9628C215.244 92.0037 214.998 92.2986 215.047 92.618C215.096 92.9415 215.416 93.1668 215.764 93.1258C216.112 93.0849 216.358 92.79 216.309 92.4706Z" fill="#426932"/>
<path d="M225.119 92.3886C225.119 92.3886 217.224 92.1101 217.162 87.4128L218.014 87.0893C218.014 87.0893 217.416 90.8201 223.469 91.9094C229.522 92.9988 225.115 92.3886 225.115 92.3886H225.119Z" fill="#935123"/>
<path d="M229.744 86.2702C232.049 88.3097 233.286 90.6767 233.094 93.7154C232.995 95.2921 232.754 96.1685 232.131 97.2414C231.922 97.6018 231.447 98.1465 231.427 97.524C231.402 96.6394 231.153 95.3535 230.071 94.3543C229.367 93.7031 228.437 93.3632 227.524 93.0643C224.182 91.9831 219.768 90.5866 217.474 87.9247C215.967 90.1607 211.295 94.9358 210.955 94.6983C210.938 94.686 210.861 94.559 210.775 94.3543C210.607 93.9652 210.25 90.861 210.861 89.3417C213.551 82.6132 224.227 81.3846 229.748 86.2661L229.744 86.2702Z" fill="url(#paint47_linear_607_29890)"/>
<path d="M219.642 98.1956L221.137 98.4454C220.678 101.185 220.687 102.405 220.777 103.372L219.253 103.405C219.159 102.266 219.184 100.943 219.642 98.1956Z" fill="#5932CF"/>
<path d="M220.161 100.542C220.363 100.542 220.526 100.379 220.526 100.178C220.526 99.9764 220.363 99.8132 220.161 99.8132C219.96 99.8132 219.797 99.9764 219.797 100.178C219.797 100.379 219.96 100.542 220.161 100.542Z" fill="white"/>
<path d="M220.019 102.123C220.22 102.123 220.383 101.96 220.383 101.759C220.383 101.557 220.22 101.394 220.019 101.394C219.817 101.394 219.654 101.557 219.654 101.759C219.654 101.96 219.817 102.123 220.019 102.123Z" fill="white"/>
<path d="M210.693 94.944L210.755 94.3789C210.755 94.3789 217.455 99.3997 228.225 97.9336C230.584 97.5978 232.492 96.574 232.492 96.574L233.074 97.1309L222.844 100.952L220.399 98.5602L217.778 100.284L210.693 94.9481V94.944Z" fill="#F2F2F2"/>
<path d="M208.916 89.5522L189.85 97.6061L197.903 116.672L216.97 108.618L208.916 89.5522Z" fill="white"/>
<path d="M207.842 92.1796L192.473 98.6718L198.965 114.041L214.334 107.549L207.842 92.1796Z" fill="#91B0FF"/>
<path d="M213.162 104.756L214.338 107.541L198.968 114.036L197.203 109.855C197.936 108.5 199.058 107.336 200.492 106.784C201.7 106.317 203.031 106.317 204.325 106.321C206.569 106.329 210.447 105.109 213.162 104.756Z" fill="#462397"/>
<path d="M205.652 98.3758C206.037 99.2891 205.611 100.342 204.697 100.727C203.784 101.111 202.732 100.686 202.347 99.7723C201.962 98.8591 202.388 97.8066 203.301 97.4216C204.214 97.0367 205.267 97.4626 205.652 98.3758Z" fill="#FCCD0F"/>
<path d="M219.017 94.7189C219.247 94.9236 219.791 95.3168 220.438 95.5379C221.278 95.8246 221.876 95.7632 222.064 95.6608C222.154 95.6116 222.208 95.4765 222.24 95.3454C222.257 95.3659 222.277 95.3864 222.294 95.411C222.695 95.9311 222.036 96.5208 221.544 96.701C221.053 96.8812 219.787 96.7215 219.107 96.1932C218.514 95.7345 218.555 94.9728 219.017 94.723V94.7189Z" fill="#BD2A1D"/>
<path d="M222.068 95.6608C221.88 95.7673 221.278 95.8287 220.443 95.538C219.8 95.3168 219.255 94.9237 219.021 94.7189C219.091 94.6821 219.173 94.6534 219.263 94.6411C219.742 94.5756 220.447 95.0793 221.004 95.1817C221.532 95.28 221.896 94.9605 222.249 95.3414C222.216 95.4724 222.163 95.6076 222.072 95.6567L222.068 95.6608Z" fill="#F6F6F7"/>
<path d="M210.063 106.46C209.789 106.329 208.867 105.936 208.818 105.637C208.753 105.26 209.797 105.858 210.464 105.993C210.059 106.01 210.464 105.993 209.31 105.35C208.699 105.01 208.4 104.867 208.421 104.462C208.687 104.441 209.645 104.875 210.198 105.019C209.834 104.847 208.888 104.376 208.552 104.13C208.425 104.036 208.417 103.733 208.708 103.798C208.859 103.831 209.133 103.892 209.281 103.937C209.715 104.068 210.297 104.38 210.731 104.511C210.469 104.371 208.961 103.565 209.432 103.364C209.535 103.319 209.649 103.339 209.76 103.364C210.309 103.483 210.645 103.688 211.623 104.019C211.976 104.138 212.463 104.359 212.471 104.351C212.549 104.294 212.09 104.175 212.041 103.462C212.025 103.213 212.258 102.914 212.471 103.053C212.569 103.118 212.598 103.245 212.639 103.356C212.872 104.052 213.528 104.326 213.757 105.019C213.933 105.547 213.835 106.358 213.458 106.767C212.647 107.644 211.087 106.956 210.067 106.464L210.063 106.46Z" fill="#FCDBC7"/>
<path d="M215.498 105.051C215.498 105.051 224.606 107.418 230.475 105.817L229.402 110.064C229.402 110.064 221.633 110.551 216.669 108.729L216.973 108.61L215.494 105.051H215.498Z" fill="#7F46A6"/>
<path d="M226.747 109.748C222.742 109.748 217.844 108.868 212.676 107.148L213.454 104.818C223.307 108.102 229.909 107.627 232.566 106.226C233.328 105.825 233.791 105.35 233.942 104.813C234.63 102.401 231.592 99.0555 230.543 98.1914L232.767 97.2126C232.972 97.3806 237.579 101.025 236.305 105.489C235.966 106.677 235.069 107.684 233.713 108.401C231.997 109.306 229.601 109.752 226.747 109.752V109.748Z" fill="#A75CD9"/>
<path d="M150.903 95.5567H156.874C157.398 95.5567 157.824 95.9826 157.824 96.5068V103.755C157.824 104.3 157.382 104.738 156.841 104.738H150.936C150.391 104.738 149.953 104.296 149.953 103.755V96.5068C149.953 95.9826 150.379 95.5567 150.903 95.5567Z" fill="#0F8AAC"/>
<path d="M149.846 95.9006V96.1094C149.846 96.3142 150.005 96.4862 150.214 96.4903C150.44 96.4985 150.665 96.5271 150.849 96.6254C151.259 96.8507 151.537 97.2888 151.983 97.4363C152.43 97.5837 152.921 97.3912 153.314 97.1291C153.802 96.8056 154.224 96.3674 154.826 96.2486C155.092 96.1954 155.378 96.2282 155.604 96.3838C156.075 96.7032 156.001 97.2684 156.017 97.768C156.03 98.0792 156.083 98.3905 156.181 98.6853C156.263 98.9351 156.382 99.185 156.599 99.3324C156.812 99.4798 157.143 99.4921 157.315 99.2955C157.418 99.1809 157.447 99.017 157.463 98.8655C157.508 98.4765 157.512 98.0833 157.471 97.6984C157.451 97.4854 157.414 97.2684 157.459 97.0595C157.492 96.9121 157.573 96.7687 157.696 96.6827C157.803 96.609 157.868 96.4944 157.868 96.3633V95.9006C157.868 95.6303 157.647 95.4091 157.377 95.4091H150.341C150.071 95.4091 149.85 95.6303 149.85 95.9006H149.846Z" fill="#FCCD0F"/>
<path d="M124.361 104.713H122.539V121.77H124.361V104.713Z" fill="#078871"/>
<path d="M117.584 104.713H115.762V121.77H117.584V104.713Z" fill="#10E8C1"/>
<path d="M153.777 104.713H151.955V121.77H153.777V104.713Z" fill="#078871"/>
<path d="M160.555 104.713H158.732V121.77H160.555V104.713Z" fill="#10E8C1"/>
<path d="M160.554 104.718H115.805V106.54H160.554V104.718Z" fill="#10E8C1"/>
<path d="M160.202 84.9701C157.778 86.4935 154.817 87.0463 151.545 85.8423C151.475 85.8178 151.271 85.74 150.98 85.6294C148.261 84.6056 145.197 83.5859 145.197 83.5859L145.971 81.5464C146.397 81.2734 148.379 81.8044 151.918 83.1395C152.196 83.2459 152.397 83.3197 152.462 83.3442C158.192 85.4492 161.951 80.3383 163.27 76.9884C164.314 74.3265 164.527 71.3205 163.88 68.286L166.484 67.7331C167.238 71.2755 166.984 74.8138 165.747 77.9631C164.646 80.7683 162.713 83.3934 160.202 84.9741V84.9701Z" fill="#057CFF"/>
<path d="M129.588 98.8857L144.04 97.821L144.208 94.4792L127.852 95.1509L129.588 98.8857Z" fill="#013E6F"/>
<path d="M121.1 103.817L121.775 102.142L121.73 103.518L121.673 102.4C121.779 102.4 124.63 103.943 127.144 102.666C129.577 101.429 129.266 97.8497 128.123 95.9045L132.415 96.4451C132.484 101.867 129.958 103.755 129.016 104.132C125.097 105.704 121.214 103.817 121.108 103.812L121.1 103.817Z" fill="#013E6F"/>
<path d="M118.811 104.345C118.811 104.345 118.799 104.328 118.791 104.32L121.817 101.384C121.817 101.384 121.834 101.396 121.842 101.404C121.883 101.449 121.924 101.494 121.961 101.544L118.947 104.468C118.897 104.431 118.857 104.39 118.811 104.345Z" fill="white"/>
<path d="M121.584 104.177C120.86 104.881 119.832 105.029 119.119 104.591L122.076 101.724C122.494 102.453 122.309 103.473 121.584 104.177Z" fill="white"/>
<path d="M119.119 104.591C119.058 104.554 119.001 104.513 118.947 104.472L121.961 101.548C122.002 101.605 122.043 101.663 122.076 101.724L119.119 104.591Z" fill="#B2202B"/>
<path d="M121.231 103.546C121.162 103.473 121.043 103.468 120.969 103.542C120.896 103.612 120.896 103.731 120.969 103.804C121.039 103.878 121.158 103.878 121.231 103.804C121.305 103.735 121.305 103.616 121.236 103.542L121.231 103.546Z" fill="#211E1F"/>
<path d="M121.547 103.796C122.214 103.964 122.345 104.054 122.616 103.3C122.8 102.789 122.735 102.572 122.21 102.588C122.075 102.932 121.948 103.305 121.739 103.612L121.547 103.796Z" fill="white"/>
<path d="M121.96 103.116C121.903 103.059 121.813 103.059 121.755 103.116C121.698 103.174 121.694 103.264 121.755 103.321C121.813 103.378 121.903 103.378 121.96 103.321C122.018 103.264 122.022 103.174 121.96 103.116Z" fill="#211E1F"/>
<path d="M148.152 104.181H146.374C146.346 104.058 149.618 99.6435 147.058 98.46C144.31 97.1904 139.331 98.3535 133.904 98.5337L134.695 96.0437C142.279 93.4351 147.423 95.2165 148.316 95.7325C153.078 98.4845 148.131 104.058 148.156 104.181H148.152Z" fill="#013E6F"/>
<path d="M150.429 104.591C150.429 104.591 150.429 104.611 150.429 104.619L146.215 104.664C146.215 104.664 146.215 104.644 146.215 104.636C146.215 104.574 146.215 104.513 146.223 104.451L150.421 104.406C150.429 104.468 150.433 104.529 150.433 104.591H150.429Z" fill="white"/>
<path d="M148.305 102.805C149.313 102.793 150.165 103.395 150.378 104.202L146.258 104.242C146.458 103.428 147.294 102.813 148.301 102.801L148.305 102.805Z" fill="white"/>
<path d="M150.375 104.202C150.392 104.267 150.408 104.337 150.416 104.406L146.219 104.451C146.227 104.382 146.239 104.312 146.256 104.247L150.375 104.206V104.202Z" fill="#B2202B"/>
<path d="M148.127 103.505C148.127 103.607 148.213 103.689 148.315 103.689C148.418 103.689 148.5 103.603 148.5 103.501C148.5 103.399 148.414 103.317 148.311 103.317C148.209 103.317 148.127 103.403 148.127 103.505Z" fill="#211E1F"/>
<path d="M148.069 103.104C147.701 102.522 147.664 102.367 146.955 102.727C146.468 102.973 146.366 103.174 146.759 103.526C147.095 103.37 147.439 103.186 147.807 103.108H148.073L148.069 103.104Z" fill="white"/>
<path d="M147.301 103.313C147.301 103.395 147.366 103.46 147.448 103.456C147.53 103.456 147.596 103.39 147.592 103.309C147.592 103.227 147.526 103.165 147.444 103.165C147.362 103.165 147.297 103.231 147.301 103.313Z" fill="#211E1F"/>
<path d="M124.416 82.0256C124.416 81.6857 124.465 81.0632 124.494 80.7315C124.993 74.9654 129.744 71.9471 135.522 71.9471C141.641 71.9471 147.997 75.4158 146.297 81.4318C145.826 83.0944 142.312 83.4876 140.322 85.2363C138.319 86.9931 139.114 85.6458 136.038 85.6458C129.904 85.6458 124.412 86.5631 124.42 82.0256H124.416Z" fill="#FBD9C6"/>
<path d="M130.124 79.1713C130.194 78.8068 130.542 78.5693 130.906 78.6348C131.271 78.7044 131.508 79.0525 131.443 79.417C131.373 79.7815 131.025 80.019 130.661 79.9535C130.296 79.8839 130.059 79.5358 130.124 79.1713Z" fill="#3E2414"/>
<path d="M136.82 82.6072C137.013 82.427 137.128 82.2181 137.103 81.9847C137.074 81.6694 136.788 81.4482 136.46 81.4933C135.989 81.5547 134.593 81.6284 133.778 81.2598C133.094 80.9527 132.905 81.6817 133.053 82.1198C133.544 83.6023 135.85 83.5163 136.816 82.6072H136.82Z" fill="#8C291D"/>
<path d="M138.67 67.979C142.22 69.056 144.94 70.7105 148.761 69.7604C148.208 71.894 147.458 74.2734 145.493 75.2644C146.238 75.9729 146.721 76.6814 146.836 77.7216C146.897 78.2826 146.873 78.8519 146.791 79.4088C146.733 79.7979 146.332 80.6047 146.406 80.9527C146.017 79.0566 144.755 77.6561 142.937 76.9967C141.52 76.4807 139.98 76.4234 138.473 76.4111C138.711 76.6282 138.944 76.8493 139.182 77.0663C137.052 77.0418 134.923 76.8083 132.838 76.3661C131.872 76.1613 130.975 75.9074 130.078 75.5306C129.795 75.4119 128.374 75.1129 128.342 74.7484C128.604 77.8813 125.626 83.3403 125.18 83.2338C125.11 83.2174 124.496 83.5573 123.755 82.5008C122.51 80.7234 122.166 78.426 122.76 76.5544C123.296 74.8508 124.418 73.2373 126.015 72.3814C126.871 71.9227 127.043 72.5616 127.584 71.7507C128.292 70.6859 129.668 69.4983 130.774 68.8963C133.166 67.5981 136.057 67.1845 138.674 67.979H138.67Z" fill="#663115"/>
<path d="M136.376 78.0288C136.376 78.0288 130.483 76.104 129.472 74.1915C128.198 71.7753 128.579 74.9205 128.579 74.9205C128.579 74.9205 130.614 78.1639 136.376 78.0288Z" fill="#663115"/>
<path d="M146.214 67.1435C146.214 67.1435 145.555 72.3977 140.12 70.3419C135.169 68.4663 139.678 68.3065 139.678 68.3065C139.678 68.3065 144.252 70.9848 146.214 67.1435Z" fill="#663115"/>
<path d="M127.383 69.1666C127.383 69.1666 129.099 70.9972 126.802 73.0162C124.508 75.0392 126.04 72.7991 126.04 72.7991C126.04 72.7991 127.993 72.1316 127.383 69.1666Z" fill="#663115"/>
<path d="M124.612 70.2192C124.612 70.2192 124.82 72.7378 127.826 72.3323C130.836 71.9269 128.17 71.6075 128.17 71.6075C128.17 71.6075 126.385 72.6518 124.607 70.2192H124.612Z" fill="#663115"/>
<path d="M146.976 95.1057L128.474 98.3082L123.666 83.2377C123.666 83.2377 126.287 84.2328 128.179 84.4744C133.282 85.1338 135.677 85.0805 140.584 83.8028L146.399 80.9484L147.206 81.5709L146.972 95.1016L146.976 95.1057Z" fill="#057CFF"/>
<path d="M141.28 78.5693C141.35 78.2293 141.706 78.0041 142.075 78.0696C142.443 78.1352 142.685 78.4628 142.619 78.8027C142.55 79.1426 142.193 79.3678 141.825 79.3023C141.456 79.2409 141.215 78.9133 141.28 78.5693Z" fill="#3E2414"/>
<path d="M137.284 86.6821C137.498 86.6821 137.673 86.5079 137.673 86.293C137.673 86.0782 137.498 85.904 137.284 85.904C137.069 85.904 136.895 86.0782 136.895 86.293C136.895 86.5079 137.069 86.6821 137.284 86.6821Z" fill="#7588A0"/>
<path d="M137.348 88.3734C137.563 88.3734 137.737 88.1992 137.737 87.9843C137.737 87.7695 137.563 87.5953 137.348 87.5953C137.133 87.5953 136.959 87.7695 136.959 87.9843C136.959 88.1992 137.133 88.3734 137.348 88.3734Z" fill="#7588A0"/>
<path d="M137.947 84.7285L136.338 84.9127C136.678 87.8572 136.686 89.61 136.539 90.6379L138.173 90.4045C138.336 89.1964 138.238 88.2381 137.947 84.7285Z" fill="#96CBE3"/>
<path d="M137.284 86.9399C137.498 86.9399 137.673 86.7657 137.673 86.5509C137.673 86.336 137.498 86.1618 137.284 86.1618C137.069 86.1618 136.895 86.336 136.895 86.5509C136.895 86.7657 137.069 86.9399 137.284 86.9399Z" fill="white"/>
<path d="M137.348 88.6354C137.563 88.6354 137.737 88.4612 137.737 88.2464C137.737 88.0315 137.563 87.8573 137.348 87.8573C137.133 87.8573 136.959 88.0315 136.959 88.2464C136.959 88.4612 137.133 88.6354 137.348 88.6354Z" fill="white"/>
<path style="mix-blend-mode:hard-light" opacity="0.67" d="M126.44 76.6034C127.235 75.6901 128.779 75.727 129.909 75.6574C131.121 75.5837 133.849 75.7024 134.393 77.0457C134.737 77.8934 134.242 79.6666 133.845 80.4734C133.341 81.489 132.501 81.9108 131.441 82.0296C129.803 82.2098 127.333 82.3941 126.539 80.4775C126.109 79.4414 125.617 77.7787 126.305 76.7795C126.346 76.7181 126.391 76.6607 126.44 76.6034Z" fill="url(#paint48_linear_607_29890)"/>
<path style="mix-blend-mode:hard-light" opacity="0.67" d="M137.745 76.2964C138.54 75.3832 140.083 75.42 141.214 75.3504C142.426 75.2767 145.153 75.3955 145.698 76.7387C146.042 77.5864 145.547 79.3597 145.149 80.1665C144.646 81.1821 143.806 81.6039 142.745 81.7227C141.107 81.9029 138.638 82.0871 137.843 80.1706C137.413 79.1345 136.922 77.4718 137.61 76.4725C137.651 76.4111 137.696 76.3538 137.745 76.2964Z" fill="url(#paint49_linear_607_29890)"/>
<path d="M125.008 75.7271C125.008 75.7271 125.086 77.4349 125.241 79.1426C125.241 79.1426 125.79 79.3433 126.023 79.9616C126.257 80.58 126.478 82.5949 129.574 82.5621C132.834 82.5294 134.325 82.3246 134.902 78.8395C134.902 78.8395 135.041 77.742 135.827 77.5905C136.622 77.7011 136.819 78.7863 136.819 78.7863C137.58 82.2345 139.083 82.3574 142.339 82.2181C145.431 82.083 145.541 80.0599 145.742 79.4293C145.943 78.7986 146.479 78.5652 146.479 78.5652C146.541 76.8533 146.528 75.1415 146.528 75.1415C145.435 74.8467 142.462 74.7074 140.594 74.8671C138.911 75.0105 137.83 75.3012 135.774 75.7026C133.702 75.4159 132.605 75.1825 130.917 75.1292C129.042 75.0719 126.085 75.3668 125.008 75.7231V75.7271ZM137.396 77.3448C137.425 77.1113 137.502 76.8738 137.658 76.6936C138.276 75.9729 139.227 75.8336 140.095 75.7312C141.311 75.5879 142.728 75.5633 143.948 75.7558C144.702 75.8746 145.189 76.4438 145.292 77.1892C145.415 78.0819 145.247 79.1917 144.841 79.9985C144.624 80.4244 144.296 80.7971 143.883 81.0346C143.469 81.2762 142.998 81.395 142.527 81.4523C141.614 81.5629 140.57 81.6161 139.673 81.3909C139.444 81.3336 139.222 81.2476 139.018 81.1288C138.17 80.6333 137.81 79.6586 137.568 78.7617C137.507 78.5324 137.453 78.299 137.416 78.0614C137.384 77.8239 137.367 77.5864 137.396 77.3489V77.3448ZM126.355 77.7052C126.417 76.9557 126.871 76.3619 127.621 76.2022C128.829 75.9401 130.242 75.891 131.466 75.9688C132.338 76.0261 133.293 76.1121 133.952 76.796C134.116 76.968 134.206 77.1973 134.247 77.4308C134.288 77.6642 134.288 77.9058 134.267 78.1433C134.247 78.3809 134.206 78.6184 134.157 78.8518C133.96 79.7651 133.657 80.7561 132.834 81.2967C132.637 81.4278 132.42 81.5219 132.195 81.5957C131.315 81.87 130.266 81.8741 129.349 81.8127C128.874 81.7799 128.399 81.6858 127.973 81.4687C127.547 81.2557 127.199 80.9036 126.961 80.4858C126.515 79.7036 126.286 78.602 126.359 77.7052H126.355Z" fill="#08133D"/>
<path d="M159.292 86.7164L157.854 87.3006C157.804 87.3206 157.746 87.2958 157.726 87.2465L155.671 82.189C155.651 82.1396 155.676 82.0809 155.725 82.0609L157.163 81.4767C157.216 81.4551 157.271 81.4815 157.291 81.5308L159.346 86.5883C159.366 86.6376 159.341 86.6963 159.292 86.7164Z" fill="#1F5B99"/>
<path d="M156.879 83.5861L155.352 79.8267L151.408 81.4279C150.847 81.6572 150.2 81.3829 149.971 80.8218L148.934 78.2705C148.824 77.9961 148.828 77.6971 148.939 77.4268C149.053 77.1565 149.266 76.9436 149.541 76.833L153.624 75.1744L153.849 75.7314L149.766 77.39C149.643 77.4391 149.545 77.5374 149.491 77.6603C149.438 77.7831 149.438 77.9183 149.491 78.0452L150.527 80.5966C150.63 80.8505 150.925 80.9733 151.179 80.8709L155.679 79.0404L157.432 83.3568L156.875 83.582L156.879 83.5861Z" fill="#C7C7C7"/>
<path d="M151.859 77.9463L161.837 73.8925C162.158 73.7622 162.312 73.3967 162.182 73.0761L161.485 71.3612C161.355 71.0406 160.99 70.8863 160.669 71.0165L150.691 75.0704C150.37 75.2006 150.216 75.5661 150.346 75.8867L151.043 77.6017C151.173 77.9223 151.538 78.0766 151.859 77.9463Z" fill="#1716A1"/>
<path d="M159.194 85.4985C159.124 85.4739 158.911 85.4821 158.838 85.5108C159.149 85.3429 159.37 85.2692 159.382 84.9784C159.403 84.4829 159.026 84.5525 158.715 84.5156C158.899 84.2822 159.141 84.0201 158.772 83.8072C158.612 83.713 158.461 83.672 158.26 83.7867C158.227 83.8072 158.379 83.5451 158.395 83.5082C158.518 83.2666 158.248 82.9922 158.023 83.025C157.818 83.0536 156.491 83.7294 156.192 83.9423C156.192 83.9423 156.63 82.5581 156.221 82.4926C155.832 82.4312 155.312 83.4304 155.168 83.6761C154.918 84.102 153.956 85.0194 153.944 85.3879C153.936 85.6623 154.067 85.9203 154.194 86.166C154.48 86.7107 154.46 87.5338 154.746 88.0785C155.443 87.755 158.883 86.4773 159.104 86.166C159.149 86.1005 159.227 86.0555 159.268 85.9899C159.358 85.8507 159.415 85.6459 159.259 85.5313C159.239 85.5149 159.214 85.5026 159.19 85.4944L159.194 85.4985ZM157.601 85.9039C157.601 85.9039 157.621 85.9039 157.642 85.8957V85.9039H157.601Z" fill="#FBD9C6"/>
<path d="M163.229 66.9264C163.27 66.7421 163.339 66.5906 163.45 66.5209C163.962 66.2138 163.843 68.0608 164.228 67.9543C164.126 67.8232 164.007 66.738 163.991 66.4841C163.97 66.1728 163.929 65.1736 164.29 65.0344C164.38 64.9975 164.486 65.0426 164.552 65.1122C164.617 65.1818 164.654 65.276 164.687 65.3661C164.801 65.6773 164.777 66.4636 164.892 66.7708C164.81 66.6807 165.014 66.0459 165.125 65.9886C165.236 65.9312 165.367 65.9476 165.485 65.964C165.666 65.9886 165.85 66.0131 166.018 66.0787C166.378 66.2179 166.652 66.5496 166.8 66.9018C166.927 67.2049 166.98 67.5284 167.033 67.8519C167.078 68.1427 167.128 68.4334 167.099 68.7242C167.046 69.2934 166.669 69.6456 166.141 69.8094C165.547 69.9978 164.613 70.047 164.064 69.6866C163.516 69.3262 163.192 68.4826 163.167 67.856C163.159 67.6594 163.151 67.2499 163.221 66.9305L163.229 66.9264Z" fill="#FBD9C6"/>
<path d="M164.734 67.0493C164.734 67.2172 164.763 67.3892 164.833 67.5448C164.861 67.6103 164.902 67.6881 164.947 67.7414C164.996 67.8028 165.046 67.7905 165.115 67.7864C164.956 67.8028 164.845 67.2499 164.845 67.1271C164.841 66.7995 164.972 66.3531 165.001 66.2589C165.005 66.2384 165.013 66.222 165.009 66.2016C165.005 66.1811 165.107 66.0255 165.091 66.0173C164.96 66.2998 164.734 66.7339 164.734 67.0493Z" fill="#D6B9A9"/>
<path d="M165.424 67.1639C165.424 67.3359 165.452 67.5079 165.526 67.6635C165.588 67.7904 165.645 67.9338 165.792 67.8273C165.772 67.8437 165.747 67.856 165.723 67.856C165.637 67.8437 165.612 67.6594 165.596 67.598C165.563 67.4833 165.559 67.3932 165.559 67.2703C165.559 67.1352 165.723 66.6602 165.633 66.5619C165.481 66.4022 165.424 67.0861 165.424 67.1639Z" fill="#D6B9A9"/>
<path d="M166.569 67.7455C166.204 68.069 166.094 67.5899 166.098 67.3155C166.098 67.2377 166.155 66.5538 166.307 66.7135C166.401 66.8118 166.249 67.2909 166.237 67.4793C166.229 67.5981 166.237 67.6308 166.27 67.7496C166.294 67.8438 166.462 67.852 166.569 67.7496V67.7455Z" fill="#D6B9A9"/>
<path d="M165.043 67.7658C165.305 67.9337 165.653 67.8313 165.96 67.8846C166.009 67.8928 166.058 67.9051 166.111 67.9051C166.435 67.9051 166.525 67.7535 166.644 68.1057C166.709 68.3064 166.693 68.6053 166.484 68.7159C166.329 68.7978 166.14 68.7323 165.997 68.6299C165.853 68.5275 165.735 68.3965 165.579 68.3187C165.186 68.1303 164.866 68.4047 164.645 68.6913C164.563 68.6504 164.551 68.5767 164.576 68.4866C164.654 68.2245 164.78 67.9173 164.879 67.6757C164.92 67.7126 164.985 67.7617 165.043 67.7658Z" fill="#D6B9A9"/>
<path d="M158.392 73.6264C158.359 73.6264 158.326 73.6141 158.298 73.6019C158.015 73.4872 157.88 72.9098 157.532 72.7337C157.503 72.9548 157.556 73.1841 157.683 73.3725C157.712 73.4135 157.745 73.4626 157.732 73.5118C157.724 73.5445 157.7 73.5691 157.671 73.5896C156.987 74.1424 157.073 73.094 156.7 73.0695C156.598 73.0613 156.565 73.2046 156.59 73.307C156.713 73.8148 156.885 73.9295 156.545 74.2735C156.25 74.5724 155.943 74.6502 155.566 74.38C155.472 74.3144 155.398 74.2243 155.316 74.1424C154.505 73.3889 153.649 73.9049 153.805 74.9042C153.838 75.1007 153.793 75.3219 153.645 75.457C153.043 76.0099 151.569 74.3963 152.478 73.9213C154.579 72.8238 155.644 72.5125 158.764 71.2389C159.412 70.9727 160.104 70.6901 160.333 71.6157C160.353 71.6976 160.374 71.7795 160.345 71.8614C160.317 71.9433 160.222 72.0006 160.153 71.9597C160.112 71.9392 160.091 71.8941 160.075 71.8532C160.018 71.7221 159.977 71.587 159.948 71.4478C159.657 71.4764 160.059 72.2545 160.046 72.4798C160.046 72.5371 160.038 72.5944 160.005 72.6436C159.94 72.7582 159.788 72.7787 159.657 72.791C159.506 72.8033 159.338 72.8115 159.215 72.7173C159.162 72.6722 159.121 72.6108 159.08 72.5576C158.965 72.4019 158.814 72.2668 158.642 72.1726C158.523 72.1071 158.33 72.0907 158.293 72.2177C158.273 72.2955 158.33 72.3692 158.384 72.4306C158.609 72.6845 159.33 73.7042 158.384 73.6264H158.392Z" fill="#FCCD0F"/>
<path d="M157.57 84.0647C157.448 84.1139 156.874 84.2859 156.948 84.3801C157.239 84.4087 157.529 84.3145 157.771 84.1753C157.955 84.0688 158.131 83.9337 158.25 83.7822C158.005 83.8067 157.833 83.9542 157.57 84.0606V84.0647Z" fill="#D6B9A9"/>
<path d="M158.037 84.7898C157.914 84.839 157.341 85.011 157.415 85.1052C157.705 85.1338 157.996 85.0396 158.238 84.9004C158.422 84.7939 158.598 84.6588 158.717 84.5073C158.459 84.5195 158.299 84.6793 158.037 84.7857V84.7898Z" fill="#D6B9A9"/>
<path d="M158.467 85.6129C158.381 85.6374 157.996 85.6989 158.021 85.789C158.197 85.8504 158.397 85.8135 158.569 85.7316C158.7 85.6702 158.836 85.5842 158.938 85.4777C158.836 85.5105 158.647 85.5637 158.463 85.6129H158.467Z" fill="#D6B9A9"/>
<path d="M140.196 45.3029C140.809 45.3029 141.306 44.806 141.306 44.1931C141.306 43.5801 140.809 43.0833 140.196 43.0833C139.583 43.0833 139.086 43.5801 139.086 44.1931C139.086 44.806 139.583 45.3029 140.196 45.3029Z" fill="#E9B5FF"/>
<path d="M143.899 45.3031C144.512 45.3031 145.009 44.8062 145.009 44.1933C145.009 43.5804 144.512 43.0835 143.899 43.0835C143.286 43.0835 142.789 43.5804 142.789 44.1933C142.789 44.8062 143.286 45.3031 143.899 45.3031Z" fill="#59CAFF"/>
<path d="M147.6 45.3029C148.213 45.3029 148.71 44.806 148.71 44.1931C148.71 43.5801 148.213 43.0833 147.6 43.0833C146.987 43.0833 146.49 43.5801 146.49 44.1931C146.49 44.806 146.987 45.3029 147.6 45.3029Z" fill="#FFCB1C"/>
<path d="M127.374 94.9501L126.928 93.525C126.928 93.525 134.864 94.0369 147.072 88.5984L147.105 89.7328C147.105 89.7328 135.208 94.6799 127.37 94.946L127.374 94.9501Z" fill="#0350A3"/>
<path d="M128.287 97.7512L127.619 95.6176C127.619 95.6176 136.928 95.9739 147.076 91.8376L147.043 92.5379C147.043 92.5379 143.361 95.4824 128.287 97.7512Z" fill="#0350A3"/>
<path d="M126.492 97.1739C123.113 97.1739 120.48 95.8552 119.169 93.4717C117.945 91.248 118.15 88.4919 119.689 86.4484C120.918 84.8144 123.371 83.3196 123.461 83.2664L124.317 83.5776L124.96 85.5884C124.96 85.5884 122.728 86.8333 121.815 88.0496C120.906 89.2577 120.783 90.8835 121.5 92.1899C122.425 93.869 124.567 94.7003 127.38 94.4751C142.639 93.2465 153.754 85.4737 153.864 85.3959L155.457 87.8121C154.982 88.1479 143.614 95.8388 127.593 97.1288C127.217 97.1575 126.848 97.1739 126.488 97.1739H126.492Z" fill="#057CFF"/>
<path d="M146.926 81.3784L146.598 80.7805C146.598 80.7805 138.862 85.8341 127.424 83.8806C124.918 83.4383 123.517 82.7503 123.517 82.7503L123.186 83.1803L135.189 87.4804L137.097 84.7734L139.632 86.8046L146.926 81.3743V81.3784Z" fill="#F2F2F2"/>
<defs>
<linearGradient id="paint0_linear_607_29890" x1="109.193" y1="-1.62215" x2="109.193" y2="128.054" gradientUnits="userSpaceOnUse">
<stop stop-color="white"/>
<stop offset="0.14" stop-color="#F0F6FC"/>
<stop offset="0.41" stop-color="#C8DFF6"/>
<stop offset="0.79" stop-color="#89BAED"/>
<stop offset="0.99" stop-color="#64A4E8"/>
</linearGradient>
<linearGradient id="paint1_linear_607_29890" x1="20.3619" y1="-1.62213" x2="20.7852" y2="128.054" gradientUnits="userSpaceOnUse">
<stop stop-color="white"/>
<stop offset="0.14" stop-color="#F0F6FC"/>
<stop offset="0.41" stop-color="#C8DFF6"/>
<stop offset="0.79" stop-color="#89BAED"/>
<stop offset="0.99" stop-color="#64A4E8"/>
</linearGradient>
<linearGradient id="paint2_linear_607_29890" x1="58.0169" y1="-1.62213" x2="58.0169" y2="128.059" gradientUnits="userSpaceOnUse">
<stop stop-color="white"/>
<stop offset="0.14" stop-color="#F0F6FC"/>
<stop offset="0.41" stop-color="#C8DFF6"/>
<stop offset="0.79" stop-color="#89BAED"/>
<stop offset="0.99" stop-color="#64A4E8"/>
</linearGradient>
<linearGradient id="paint3_linear_607_29890" x1="58.0174" y1="-1.6222" x2="58.0174" y2="128.054" gradientUnits="userSpaceOnUse">
<stop stop-color="white"/>
<stop offset="0.14" stop-color="#F0F6FC"/>
<stop offset="0.41" stop-color="#C8DFF6"/>
<stop offset="0.79" stop-color="#89BAED"/>
<stop offset="0.99" stop-color="#64A4E8"/>
</linearGradient>
<linearGradient id="paint4_linear_607_29890" x1="58.0158" y1="-1.6222" x2="58.0158" y2="128.054" gradientUnits="userSpaceOnUse">
<stop stop-color="white"/>
<stop offset="0.14" stop-color="#F0F6FC"/>
<stop offset="0.41" stop-color="#C8DFF6"/>
<stop offset="0.79" stop-color="#89BAED"/>
<stop offset="0.99" stop-color="#64A4E8"/>
</linearGradient>
<linearGradient id="paint5_linear_607_29890" x1="23.8982" y1="-1.6219" x2="23.8982" y2="128.055" gradientUnits="userSpaceOnUse">
<stop stop-color="white"/>
<stop offset="0.14" stop-color="#F0F6FC"/>
<stop offset="0.41" stop-color="#C8DFF6"/>
<stop offset="0.79" stop-color="#89BAED"/>
<stop offset="0.99" stop-color="#64A4E8"/>
</linearGradient>
<linearGradient id="paint6_linear_607_29890" x1="23.8984" y1="-1.62188" x2="23.8984" y2="128.055" gradientUnits="userSpaceOnUse">
<stop stop-color="white"/>
<stop offset="0.14" stop-color="#F0F6FC"/>
<stop offset="0.41" stop-color="#C8DFF6"/>
<stop offset="0.79" stop-color="#89BAED"/>
<stop offset="0.99" stop-color="#64A4E8"/>
</linearGradient>
<linearGradient id="paint7_linear_607_29890" x1="23.8977" y1="-24.9342" x2="23.8977" y2="169.096" gradientUnits="userSpaceOnUse">
<stop stop-color="white"/>
<stop offset="0.14" stop-color="#F0F6FC"/>
<stop offset="0.41" stop-color="#C8DFF6"/>
<stop offset="0.79" stop-color="#89BAED"/>
<stop offset="0.99" stop-color="#64A4E8"/>
</linearGradient>
<linearGradient id="paint8_linear_607_29890" x1="40.9599" y1="-1.6219" x2="40.9599" y2="128.055" gradientUnits="userSpaceOnUse">
<stop stop-color="white"/>
<stop offset="0.14" stop-color="#F0F6FC"/>
<stop offset="0.41" stop-color="#C8DFF6"/>
<stop offset="0.79" stop-color="#89BAED"/>
<stop offset="0.99" stop-color="#64A4E8"/>
</linearGradient>
<linearGradient id="paint9_linear_607_29890" x1="40.9596" y1="-1.622" x2="40.9596" y2="128.055" gradientUnits="userSpaceOnUse">
<stop stop-color="white"/>
<stop offset="0.14" stop-color="#F0F6FC"/>
<stop offset="0.41" stop-color="#C8DFF6"/>
<stop offset="0.79" stop-color="#89BAED"/>
<stop offset="0.99" stop-color="#64A4E8"/>
</linearGradient>
<linearGradient id="paint10_linear_607_29890" x1="40.9604" y1="-1.62224" x2="40.9604" y2="128.054" gradientUnits="userSpaceOnUse">
<stop stop-color="white"/>
<stop offset="0.14" stop-color="#F0F6FC"/>
<stop offset="0.41" stop-color="#C8DFF6"/>
<stop offset="0.79" stop-color="#89BAED"/>
<stop offset="0.99" stop-color="#64A4E8"/>
</linearGradient>
<linearGradient id="paint11_linear_607_29890" x1="40.959" y1="-1.62219" x2="40.959" y2="128.059" gradientUnits="userSpaceOnUse">
<stop stop-color="white"/>
<stop offset="0.14" stop-color="#F0F6FC"/>
<stop offset="0.41" stop-color="#C8DFF6"/>
<stop offset="0.79" stop-color="#89BAED"/>
<stop offset="0.99" stop-color="#64A4E8"/>
</linearGradient>
<linearGradient id="paint12_linear_607_29890" x1="92.1329" y1="-1.62182" x2="92.1329" y2="128.055" gradientUnits="userSpaceOnUse">
<stop stop-color="white"/>
<stop offset="0.14" stop-color="#F0F6FC"/>
<stop offset="0.41" stop-color="#C8DFF6"/>
<stop offset="0.79" stop-color="#89BAED"/>
<stop offset="0.99" stop-color="#64A4E8"/>
</linearGradient>
<linearGradient id="paint13_linear_607_29890" x1="92.1323" y1="-1.62164" x2="92.1323" y2="128.055" gradientUnits="userSpaceOnUse">
<stop stop-color="white"/>
<stop offset="0.14" stop-color="#F0F6FC"/>
<stop offset="0.41" stop-color="#C8DFF6"/>
<stop offset="0.79" stop-color="#89BAED"/>
<stop offset="0.99" stop-color="#64A4E8"/>
</linearGradient>
<linearGradient id="paint14_linear_607_29890" x1="92.1319" y1="-1.62194" x2="92.1319" y2="128.059" gradientUnits="userSpaceOnUse">
<stop stop-color="white"/>
<stop offset="0.14" stop-color="#F0F6FC"/>
<stop offset="0.41" stop-color="#C8DFF6"/>
<stop offset="0.79" stop-color="#89BAED"/>
<stop offset="0.99" stop-color="#64A4E8"/>
</linearGradient>
<linearGradient id="paint15_linear_607_29890" x1="74.6349" y1="4.61806" x2="74.6349" y2="121.519" gradientUnits="userSpaceOnUse">
<stop stop-color="white"/>
<stop offset="0.14" stop-color="#F0F6FC"/>
<stop offset="0.41" stop-color="#C8DFF6"/>
<stop offset="0.79" stop-color="#89BAED"/>
<stop offset="0.99" stop-color="#64A4E8"/>
</linearGradient>
<linearGradient id="paint16_linear_607_29890" x1="74.634" y1="-1.62156" x2="74.634" y2="128.059" gradientUnits="userSpaceOnUse">
<stop stop-color="white"/>
<stop offset="0.14" stop-color="#F0F6FC"/>
<stop offset="0.41" stop-color="#C8DFF6"/>
<stop offset="0.79" stop-color="#89BAED"/>
<stop offset="0.99" stop-color="#64A4E8"/>
</linearGradient>
<linearGradient id="paint17_linear_607_29890" x1="74.6345" y1="-1.62174" x2="74.6345" y2="128.055" gradientUnits="userSpaceOnUse">
<stop stop-color="white"/>
<stop offset="0.14" stop-color="#F0F6FC"/>
<stop offset="0.41" stop-color="#C8DFF6"/>
<stop offset="0.79" stop-color="#89BAED"/>
<stop offset="0.99" stop-color="#64A4E8"/>
</linearGradient>
<linearGradient id="paint18_linear_607_29890" x1="126.249" y1="-1.62173" x2="126.249" y2="128.055" gradientUnits="userSpaceOnUse">
<stop stop-color="white"/>
<stop offset="0.14" stop-color="#F0F6FC"/>
<stop offset="0.41" stop-color="#C8DFF6"/>
<stop offset="0.79" stop-color="#89BAED"/>
<stop offset="0.99" stop-color="#64A4E8"/>
</linearGradient>
<linearGradient id="paint19_linear_607_29890" x1="126.249" y1="-1.62171" x2="126.249" y2="128.055" gradientUnits="userSpaceOnUse">
<stop stop-color="white"/>
<stop offset="0.14" stop-color="#F0F6FC"/>
<stop offset="0.41" stop-color="#C8DFF6"/>
<stop offset="0.79" stop-color="#89BAED"/>
<stop offset="0.99" stop-color="#64A4E8"/>
</linearGradient>
<linearGradient id="paint20_linear_607_29890" x1="126.249" y1="-1.62167" x2="126.249" y2="128.055" gradientUnits="userSpaceOnUse">
<stop stop-color="white"/>
<stop offset="0.14" stop-color="#F0F6FC"/>
<stop offset="0.41" stop-color="#C8DFF6"/>
<stop offset="0.79" stop-color="#89BAED"/>
<stop offset="0.99" stop-color="#64A4E8"/>
</linearGradient>
<linearGradient id="paint21_linear_607_29890" x1="231.735" y1="-1.62179" x2="231.735" y2="128.055" gradientUnits="userSpaceOnUse">
<stop stop-color="white"/>
<stop offset="0.14" stop-color="#F0F6FC"/>
<stop offset="0.41" stop-color="#C8DFF6"/>
<stop offset="0.79" stop-color="#89BAED"/>
<stop offset="0.99" stop-color="#64A4E8"/>
</linearGradient>
<linearGradient id="paint22_linear_607_29890" x1="320.566" y1="-1.62182" x2="320.143" y2="128.055" gradientUnits="userSpaceOnUse">
<stop stop-color="white"/>
<stop offset="0.14" stop-color="#F0F6FC"/>
<stop offset="0.41" stop-color="#C8DFF6"/>
<stop offset="0.79" stop-color="#89BAED"/>
<stop offset="0.99" stop-color="#64A4E8"/>
</linearGradient>
<linearGradient id="paint23_linear_607_29890" x1="282.911" y1="-1.62188" x2="282.911" y2="128.059" gradientUnits="userSpaceOnUse">
<stop stop-color="white"/>
<stop offset="0.14" stop-color="#F0F6FC"/>
<stop offset="0.41" stop-color="#C8DFF6"/>
<stop offset="0.79" stop-color="#89BAED"/>
<stop offset="0.99" stop-color="#64A4E8"/>
</linearGradient>
<linearGradient id="paint24_linear_607_29890" x1="282.91" y1="-1.62189" x2="282.91" y2="128.055" gradientUnits="userSpaceOnUse">
<stop stop-color="white"/>
<stop offset="0.14" stop-color="#F0F6FC"/>
<stop offset="0.41" stop-color="#C8DFF6"/>
<stop offset="0.79" stop-color="#89BAED"/>
<stop offset="0.99" stop-color="#64A4E8"/>
</linearGradient>
<linearGradient id="paint25_linear_607_29890" x1="282.912" y1="-1.62189" x2="282.912" y2="128.055" gradientUnits="userSpaceOnUse">
<stop stop-color="white"/>
<stop offset="0.14" stop-color="#F0F6FC"/>
<stop offset="0.41" stop-color="#C8DFF6"/>
<stop offset="0.79" stop-color="#89BAED"/>
<stop offset="0.99" stop-color="#64A4E8"/>
</linearGradient>
<linearGradient id="paint26_linear_607_29890" x1="317.028" y1="-1.62209" x2="317.028" y2="128.054" gradientUnits="userSpaceOnUse">
<stop stop-color="white"/>
<stop offset="0.14" stop-color="#F0F6FC"/>
<stop offset="0.41" stop-color="#C8DFF6"/>
<stop offset="0.79" stop-color="#89BAED"/>
<stop offset="0.99" stop-color="#64A4E8"/>
</linearGradient>
<linearGradient id="paint27_linear_607_29890" x1="317.027" y1="-1.62195" x2="317.027" y2="128.055" gradientUnits="userSpaceOnUse">
<stop stop-color="white"/>
<stop offset="0.14" stop-color="#F0F6FC"/>
<stop offset="0.41" stop-color="#C8DFF6"/>
<stop offset="0.79" stop-color="#89BAED"/>
<stop offset="0.99" stop-color="#64A4E8"/>
</linearGradient>
<linearGradient id="paint28_linear_607_29890" x1="317.028" y1="-24.9344" x2="317.028" y2="169.096" gradientUnits="userSpaceOnUse">
<stop stop-color="white"/>
<stop offset="0.14" stop-color="#F0F6FC"/>
<stop offset="0.41" stop-color="#C8DFF6"/>
<stop offset="0.79" stop-color="#89BAED"/>
<stop offset="0.99" stop-color="#64A4E8"/>
</linearGradient>
<linearGradient id="paint29_linear_607_29890" x1="299.968" y1="-1.62203" x2="299.968" y2="128.055" gradientUnits="userSpaceOnUse">
<stop stop-color="white"/>
<stop offset="0.14" stop-color="#F0F6FC"/>
<stop offset="0.41" stop-color="#C8DFF6"/>
<stop offset="0.79" stop-color="#89BAED"/>
<stop offset="0.99" stop-color="#64A4E8"/>
</linearGradient>
<linearGradient id="paint30_linear_607_29890" x1="299.968" y1="-1.622" x2="299.968" y2="128.055" gradientUnits="userSpaceOnUse">
<stop stop-color="white"/>
<stop offset="0.14" stop-color="#F0F6FC"/>
<stop offset="0.41" stop-color="#C8DFF6"/>
<stop offset="0.79" stop-color="#89BAED"/>
<stop offset="0.99" stop-color="#64A4E8"/>
</linearGradient>
<linearGradient id="paint31_linear_607_29890" x1="299.967" y1="-1.62199" x2="299.967" y2="128.055" gradientUnits="userSpaceOnUse">
<stop stop-color="white"/>
<stop offset="0.14" stop-color="#F0F6FC"/>
<stop offset="0.41" stop-color="#C8DFF6"/>
<stop offset="0.79" stop-color="#89BAED"/>
<stop offset="0.99" stop-color="#64A4E8"/>
</linearGradient>
<linearGradient id="paint32_linear_607_29890" x1="299.969" y1="-1.62194" x2="299.969" y2="128.059" gradientUnits="userSpaceOnUse">
<stop stop-color="white"/>
<stop offset="0.14" stop-color="#F0F6FC"/>
<stop offset="0.41" stop-color="#C8DFF6"/>
<stop offset="0.79" stop-color="#89BAED"/>
<stop offset="0.99" stop-color="#64A4E8"/>
</linearGradient>
<linearGradient id="paint33_linear_607_29890" x1="248.797" y1="-1.6217" x2="248.797" y2="128.055" gradientUnits="userSpaceOnUse">
<stop stop-color="white"/>
<stop offset="0.14" stop-color="#F0F6FC"/>
<stop offset="0.41" stop-color="#C8DFF6"/>
<stop offset="0.79" stop-color="#89BAED"/>
<stop offset="0.99" stop-color="#64A4E8"/>
</linearGradient>
<linearGradient id="paint34_linear_607_29890" x1="248.797" y1="-1.62176" x2="248.797" y2="128.055" gradientUnits="userSpaceOnUse">
<stop stop-color="white"/>
<stop offset="0.14" stop-color="#F0F6FC"/>
<stop offset="0.41" stop-color="#C8DFF6"/>
<stop offset="0.79" stop-color="#89BAED"/>
<stop offset="0.99" stop-color="#64A4E8"/>
</linearGradient>
<linearGradient id="paint35_linear_607_29890" x1="248.798" y1="-1.6217" x2="248.798" y2="128.059" gradientUnits="userSpaceOnUse">
<stop stop-color="white"/>
<stop offset="0.14" stop-color="#F0F6FC"/>
<stop offset="0.41" stop-color="#C8DFF6"/>
<stop offset="0.79" stop-color="#89BAED"/>
<stop offset="0.99" stop-color="#64A4E8"/>
</linearGradient>
<linearGradient id="paint36_linear_607_29890" x1="266.295" y1="4.61776" x2="266.295" y2="121.518" gradientUnits="userSpaceOnUse">
<stop stop-color="white"/>
<stop offset="0.14" stop-color="#F0F6FC"/>
<stop offset="0.41" stop-color="#C8DFF6"/>
<stop offset="0.79" stop-color="#89BAED"/>
<stop offset="0.99" stop-color="#64A4E8"/>
</linearGradient>
<linearGradient id="paint37_linear_607_29890" x1="266.296" y1="-1.62181" x2="266.296" y2="128.059" gradientUnits="userSpaceOnUse">
<stop stop-color="white"/>
<stop offset="0.14" stop-color="#F0F6FC"/>
<stop offset="0.41" stop-color="#C8DFF6"/>
<stop offset="0.79" stop-color="#89BAED"/>
<stop offset="0.99" stop-color="#64A4E8"/>
</linearGradient>
<linearGradient id="paint38_linear_607_29890" x1="266.295" y1="-1.62198" x2="266.295" y2="128.055" gradientUnits="userSpaceOnUse">
<stop stop-color="white"/>
<stop offset="0.14" stop-color="#F0F6FC"/>
<stop offset="0.41" stop-color="#C8DFF6"/>
<stop offset="0.79" stop-color="#89BAED"/>
<stop offset="0.99" stop-color="#64A4E8"/>
</linearGradient>
<linearGradient id="paint39_linear_607_29890" x1="214.682" y1="-1.62197" x2="214.682" y2="128.055" gradientUnits="userSpaceOnUse">
<stop stop-color="white"/>
<stop offset="0.14" stop-color="#F0F6FC"/>
<stop offset="0.41" stop-color="#C8DFF6"/>
<stop offset="0.79" stop-color="#89BAED"/>
<stop offset="0.99" stop-color="#64A4E8"/>
</linearGradient>
<linearGradient id="paint40_linear_607_29890" x1="214.683" y1="-1.62207" x2="214.683" y2="128.054" gradientUnits="userSpaceOnUse">
<stop stop-color="white"/>
<stop offset="0.14" stop-color="#F0F6FC"/>
<stop offset="0.41" stop-color="#C8DFF6"/>
<stop offset="0.79" stop-color="#89BAED"/>
<stop offset="0.99" stop-color="#64A4E8"/>
</linearGradient>
<linearGradient id="paint41_linear_607_29890" x1="214.682" y1="-1.62185" x2="214.682" y2="128.055" gradientUnits="userSpaceOnUse">
<stop stop-color="white"/>
<stop offset="0.14" stop-color="#F0F6FC"/>
<stop offset="0.41" stop-color="#C8DFF6"/>
<stop offset="0.79" stop-color="#89BAED"/>
<stop offset="0.99" stop-color="#64A4E8"/>
</linearGradient>
<linearGradient id="paint42_linear_607_29890" x1="270.394" y1="21.0174" x2="221.678" y2="53.3931" gradientUnits="userSpaceOnUse">
<stop stop-color="#2A5FBD"/>
<stop offset="0.99" stop-color="#347BF7"/>
</linearGradient>
<linearGradient id="paint43_linear_607_29890" x1="276.367" y1="26.1228" x2="245.515" y2="49.3717" gradientUnits="userSpaceOnUse">
<stop offset="0.1" stop-color="#8FBBFF"/>
<stop offset="0.32" stop-color="#7AA9F2"/>
<stop offset="0.78" stop-color="#467AD3"/>
<stop offset="1" stop-color="#2B62C3"/>
</linearGradient>
<linearGradient id="paint44_linear_607_29890" x1="282.197" y1="33.8612" x2="251.346" y2="57.1101" gradientUnits="userSpaceOnUse">
<stop offset="0.1" stop-color="#8FBBFF"/>
<stop offset="0.32" stop-color="#7AA9F2"/>
<stop offset="0.78" stop-color="#467AD3"/>
<stop offset="1" stop-color="#2B62C3"/>
</linearGradient>
<linearGradient id="paint45_linear_607_29890" x1="180.581" y1="55.0956" x2="180.581" y2="80.6459" gradientUnits="userSpaceOnUse">
<stop stop-color="#FFAA2C"/>
<stop offset="0.338542" stop-color="#FCCC24"/>
<stop offset="0.583333" stop-color="#FCD714"/>
<stop offset="0.828125" stop-color="#FCF30F"/>
</linearGradient>
<linearGradient id="paint46_linear_607_29890" x1="221.346" y1="79.1293" x2="217.723" y2="113.605" gradientUnits="userSpaceOnUse">
<stop offset="0.15" stop-color="#935123"/>
<stop offset="0.31" stop-color="#7F421B"/>
<stop offset="0.58" stop-color="#662E12"/>
<stop offset="0.81" stop-color="#56220C"/>
<stop offset="1" stop-color="#511E0B"/>
</linearGradient>
<linearGradient id="paint47_linear_607_29890" x1="221.794" y1="97.7679" x2="221.862" y2="83.3133" gradientUnits="userSpaceOnUse">
<stop offset="0.15" stop-color="#935123"/>
<stop offset="0.45" stop-color="#974E28"/>
<stop offset="1" stop-color="#9C4D2E"/>
</linearGradient>
<linearGradient id="paint48_linear_607_29890" x1="130.598" y1="75.547" x2="129.61" y2="82.1941" gradientUnits="userSpaceOnUse">
<stop offset="0.35" stop-color="white"/>
<stop offset="0.65" stop-color="#B5D1EE"/>
<stop offset="1" stop-color="white"/>
</linearGradient>
<linearGradient id="paint49_linear_607_29890" x1="141.903" y1="75.2413" x2="140.915" y2="81.8884" gradientUnits="userSpaceOnUse">
<stop offset="0.35" stop-color="white"/>
<stop offset="0.65" stop-color="#B5D1EE"/>
<stop offset="1" stop-color="white"/>
</linearGradient>
<clipPath id="clip0_607_29890">
<rect width="54.6087" height="19.9909" fill="white" transform="translate(211.328 46.9172) rotate(-180)"/>
</clipPath>
<clipPath id="clip1_607_29890">
<rect width="33.4425" height="19.3711" fill="white" transform="translate(146.516 15.5439)"/>
</clipPath>
<clipPath id="clip2_607_29890">
<rect width="108.862" height="95.0614" fill="white" transform="translate(20.3633 16.8137)"/>
</clipPath>
<clipPath id="clip3_607_29890">
<rect width="54.6087" height="19.9909" fill="white" transform="translate(54.6504 66.3425)"/>
</clipPath>
<clipPath id="clip4_607_29890">
<rect width="108.862" height="95.0614" fill="white" transform="matrix(-1 0 0 1 320.566 16.8137)"/>
</clipPath>
<clipPath id="clip5_607_29890">
<rect width="83.3439" height="45.9433" fill="white" transform="translate(197.734 21.0471)"/>
</clipPath>
<clipPath id="clip6_607_29890">
<rect width="54.6087" height="75.0427" fill="white" transform="matrix(-1 0 0 1 151.334 34.826)"/>
</clipPath>
<clipPath id="clip7_607_29890">
<rect width="96.9664" height="56.683" fill="white" transform="translate(128.896 59.8021)"/>
</clipPath>
<clipPath id="clip8_607_29890">
<rect width="96.9664" height="56.683" fill="white" transform="translate(208.482 58.9554)"/>
</clipPath>
<clipPath id="clip9_607_29890">
<rect width="75.6267" height="47.7085" fill="white" transform="translate(72.5957 69.9619)"/>
</clipPath>
</defs>
</svg>
