<svg xmlns="http://www.w3.org/2000/svg" width="980" height="337" fill="none" xmlns:v="https://vecta.io/nano"><style><![CDATA[.B{fill:#fff}.C{fill:#e8f2fc}.D{fill:#1aaeec}.E{fill:#e1efcd}.F{fill:#0bef79}.G{fill:#fdfeff}.H{fill:#5932cf}.I{fill:#221f1f}.J{fill:#211e1f}.K{fill:#737de6}.L{fill:#046087}.M{fill:#fbd9c6}.N{fill:#a75cd9}.O{fill:#fccd0f}.P{fill:#057cff}]]></style><g opacity=".45"><path d="M490 337c270.628 0 490-17.911 490-40s-219.389-40-490-40S0 274.902 0 296.99s219.372 40 490 40v.01z" fill="#094159"/></g><g clip-path="url(#J)"><g class="K"><path d="M560.491 118.911h20.425V98.486h-20.425v20.425zm-27.12-5.768h16.652a.852.852 0 1 0 0-1.704h-16.096l-15.428-34.793a.85.85 0 0 0-.777-.507h-15.319a.852.852 0 1 0 0 1.704h14.766l15.426 34.794a.85.85 0 0 0 .776.507v-.002z"/></g><path d="M441.608 87.559h53.689V67.911h-53.689v19.648z" fill="#c9c9f5"/></g><g clip-path="url(#K)"><path d="M496.137-4.219H416.43v91.792h79.707V-4.219z" fill="#5dbde6"/><g fill="#077ad8"><path d="M437.586 53.832h-12.773V81.26h12.773V53.832zm22.001-10.875h-12.773v38.306h12.773V42.957zm22.003-10.642h-12.773V81.26h12.773V32.315z"/></g></g><g clip-path="url(#L)"><g class="C"><use href="#U"/><path d="M363.871 216.953H103.246v.594h260.625v-.594zm0-41.932H103.246v.593h260.625v-.593zm0-41.933H103.246v.594h260.625v-.594zm0-41.933H103.246v.594h260.625v-.594z"/><use href="#V"/></g><g fill="#1adeec"><path d="M326.279 48.358h-11.836v61.328h11.836V48.358zm.983 109.319h-13.823v27.797h13.823v-27.797z"/></g><use href="#W" class="C"/><path d="M199.078 135.561v-10.184l-9.266-5.097-9.265 5.097v10.184l9.265 5.097 9.266-5.097z" fill="#1aecb4"/><use href="#X" fill="#4e2680"/><use href="#Y" fill="#450ace"/><use href="#Z" class="C"/><path d="M102.785 79.308L94.988 92.17h15.594l-7.797-12.862z" fill="#aa1aec"/><path d="M111.812 167.44H93.756v34.492h18.056V167.44z" fill="#a092ff"/><use href="#a" class="D"/><use href="#b" class="C"/><path d="M160.245 97.958H132.34v50.713h27.905V97.958z" fill="#a5e4ff"/><path d="M153.214 42.117h-13.833v37.192h13.833V42.117z" class="L"/><use href="#c" fill="#ffc849"/><use href="#d" class="D"/><path d="M277.135 97.958h-.573V284.62h.573V97.958z" class="C"/><path d="M287.026 65.151h-20.378v48.682h20.378V65.151z" fill="#19f1df"/><g class="D"><path d="M285.341 172.667h-16.997v33.509h16.997v-33.509zm-5.432 63.217c0 1.609-1.371 2.926-3.067 2.926s-3.067-1.306-3.067-2.926 1.372-2.927 3.067-2.927 3.067 1.307 3.067 2.927z"/></g><use href="#e" class="C"/><path d="M245.235 205.074h-26.069v48.132h26.069v-48.132z" fill="#9cec1a"/><use href="#f" class="D"/><use href="#g" fill="#bb1aec"/><use href="#h" class="C"/><path d="M363.871 86.241l6.112-10.075H357.77l6.101 10.075z" class="L"/><use href="#i" class="D"/><use href="#j" class="B"/><g clip-path="url(#M)"><use href="#k" fill="#0a4259"/><path d="M228.773 174.233h-16.651a.85.85 0 1 0 0 1.704h16.096l15.427 34.793c.138.307.441.507.777.507h15.32a.85.85 0 1 0 0-1.705h-14.766l-15.426-34.794a.85.85 0 0 0-.777-.507v.002z" class="K"/><path d="M320.534 199.817h-53.688v19.648h53.688v-19.648z" fill="#c9c9f5"/></g></g><g clip-path="url(#N)"><g class="C"><use href="#l"/><path d="M897.115 216.953H636.49v.594h260.625v-.594zm0-41.932H636.49v.593h260.625v-.593zm0-41.933H636.49v.594h260.625v-.594zm0-41.933H636.49v.594h260.625v-.594z"/><path d="M853.887 60.712h-.573V284.62h.573V60.712z"/></g><g fill="#1adeec"><path d="M859.523 48.358h-11.835v61.328h11.835V48.358zm.983 109.319h-13.822v27.797h13.822v-27.797z"/></g><path d="M723.348 79.017h-.573V284.62h.573V79.017z" class="C"/><path d="M732.322 135.561v-10.184l-9.265-5.097-9.266 5.097v10.184l9.266 5.097 9.265-5.097z" fill="#ecd01a"/><path d="M728.791 70.021h-11.469v35.216h11.469V70.021z" class="D"/><path d="M728.92 224.361h-11.738v40.227h11.738v-40.227z" fill="#450ace"/><path d="M636.318 87.634h-.572v196.997h.572V87.634z" class="C"/><path d="M636.029 79.308l-7.797 12.862h15.594l-7.797-12.862z" fill="#aa1aec"/><path d="M645.056 167.44H627v34.492h18.056V167.44z" fill="#a092ff"/><path d="M642.507 114.934h-12.97v32.376h12.97v-32.376z" class="D"/><path d="M679.828 60.712h-.572V284.62h.572V60.712z" class="C"/><path d="M693.489 97.958h-27.905v50.713h27.905V97.958z" fill="#4e2680"/><path d="M686.459 42.117h-13.834v37.192h13.834V42.117z" fill="#1aecb4"/><path d="M689.851 220.528h-20.605v37.159h20.605v-37.159z" fill="#ffc849"/><path d="M684.298 175.431c0 3.261-2.127 5.896-4.762 5.896s-4.763-2.646-4.763-5.896 2.128-5.896 4.763-5.896 4.762 2.645 4.762 5.896z" class="D"/><path d="M810.379 97.958h-.572V284.62h.572V97.958z" class="C"/><path d="M820.27 65.151h-20.377v48.682h20.377V65.151z" fill="#e2f47c"/><g class="D"><path d="M818.586 172.667h-16.998v33.509h16.998v-33.509zm-5.433 63.217c0 1.609-1.371 2.926-3.067 2.926s-3.066-1.306-3.066-2.926 1.371-2.927 3.066-2.927 3.067 1.307 3.067 2.927z"/></g><path d="M765.736 60.713h-.572V284.62h.572V60.713z" class="C"/><path d="M778.479 205.074H752.41v48.132h26.069v-48.132z" fill="#9cec1a"/><path d="M769.484 86.965h-8.078v8.974h8.078v-8.974z" class="D"/><path d="M773.112 60.712c0 4.028-3.434 7.3-7.667 7.3s-7.668-3.272-7.668-7.3 3.434-7.3 7.668-7.3 7.667 3.272 7.667 7.3z" fill="#bb1aec"/><path d="M897.406 79.017h-.572V284.62h.572V79.017z" class="C"/><path d="M897.115 86.241l6.112-10.075h-12.213l6.101 10.075z" class="L"/><path d="M900.829 170.139h-7.419v49.481h7.419v-49.481z" fill="#0a4259"/><path d="M897.115 151.036c4.193 0 7.592-4.589 7.592-10.249s-3.399-10.248-7.592-10.248-7.592 4.589-7.592 10.248 3.399 10.249 7.592 10.249z" fill="#f38484"/><g clip-path="url(#O)" class="K"><path d="M734.898 168.465h-20.425v20.425h20.425v-20.425zm27.119 5.768h-16.651a.852.852 0 1 0 0 1.704h16.096l15.428 34.793a.85.85 0 0 0 .776.507h15.32a.853.853 0 1 0 0-1.705H778.22l-15.426-34.794a.85.85 0 0 0-.777-.507v.002z"/></g></g><g clip-path="url(#P)"><path d="M631.96 71.687c3.348-4.698 1.846-10.076-5.454-11.015-21.457-2.797-48.574 12.872-64.448 21.166-52.84 27.57-88.942 66.986-89.298 67.375L451 129.505c1.587-1.771 39.795-43.596 97.472-73.704 15.918-8.315 33.585-16.9 51.847-21.123 0 0 28.347-5.367 39.081 4.46 10.195 9.341 4.666 23.294-7.44 32.548z" fill="#46b2e0"/></g><g clip-path="url(#Q)"><path d="M331.951 91.466h95.91v188.035H288.553V134.863L288.88 92l43.071-.534z" fill="#4c01eb"/><g fill="#733de6"><use href="#m"/><use href="#n"/><path d="M308.638 208.057h96.895c2.464 0 4.459-.982 4.459-2.197v-4.125c0-1.211-1.998-2.197-4.459-2.197h-96.895c-2.464 0-4.459.982-4.459 2.197v4.125c0 1.211 1.998 2.197 4.459 2.197z"/></g><g class="B"><path d="M308.638 235.121h96.895c2.464 0 4.459-.982 4.459-2.196v-4.126c0-1.211-1.998-2.196-4.459-2.196h-96.895c-2.464 0-4.459.982-4.459 2.196v4.126c0 1.211 1.998 2.196 4.459 2.196zm0 27.066h96.895c2.464 0 4.459-.982 4.459-2.197v-4.126c0-1.211-1.998-2.196-4.459-2.196h-96.895c-2.464 0-4.459.982-4.459 2.196v4.126c0 1.211 1.998 2.197 4.459 2.197z"/></g><path d="M321.661 127.663h11.065a3 3 0 0 0 2.995-2.994v-2.099a3 3 0 0 0-2.995-2.995 1.99 1.99 0 0 1-1.988-1.988v-14.431c0-.278-.226-.503-.503-.503s-.503.225-.503.503v14.431a3 3 0 0 0 2.994 2.995c1.097 0 1.992.891 1.992 1.988v2.099a1.99 1.99 0 0 1-1.992 1.988h-11.065a1.99 1.99 0 0 1-1.988-1.988v-2.099a1.99 1.99 0 0 1 1.988-1.988 3 3 0 0 0 2.994-2.995v-14.431c0-.278-.225-.503-.503-.503s-.503.225-.503.503v14.431a1.99 1.99 0 0 1-1.992 1.988 3 3 0 0 0-2.994 2.995v2.099a3 3 0 0 0 2.994 2.994h.004z" fill="#d3bfff"/><path d="M313.101 88.065h28.182a1.26 1.26 0 0 1 1.26 1.26v15.847a1.26 1.26 0 0 1-1.26 1.259h-28.182a1.26 1.26 0 0 1-1.259-1.259V89.325a1.26 1.26 0 0 1 1.259-1.26z" fill="#4a6efc"/></g><g clip-path="url(#R)"><path d="M556.055 196.704c-7.376-2.98-12.624-10.216-12.624-18.628v-1.901c0-8.412 5.248-15.648 12.624-18.628v-1.469H425.57c-11.048 0-20.097 9.039-20.097 20.086v1.901c0 11.048 9.038 20.097 20.097 20.097h130.485v-1.469.011z" class="G"/><mask id="A" maskUnits="userSpaceOnUse" x="405" y="156" width="152" height="43"><path d="M556.053 196.704c-7.376-2.98-12.624-10.216-12.624-18.628v-1.901c0-8.412 5.248-15.648 12.624-18.628v-1.469H425.568c-11.048 0-20.097 9.039-20.097 20.086v1.901c0 11.047 9.039 20.097 20.097 20.097h130.485v-1.469.011z" class="B"/></mask><g mask="url(#A)" class="E"><use href="#o"/><path d="M586.034 166.607H381.867v2.16h204.167v-2.16zm0 6.48H381.867v2.16h204.167v-2.16zm0 6.479H381.867v2.16h204.167v-2.16zm0 6.48H381.867v2.159h204.167v-2.159zm0 6.479H381.867v2.16h204.167v-2.16z"/></g><path d="M556.056 196.704v-2.84H425.571c-8.704 0-15.788-7.084-15.788-15.788v-1.901c0-8.704 7.084-15.788 15.788-15.788h130.485v-8.607H425.571c-13.456 0-24.395 10.95-24.395 24.395v1.901c0 13.456 10.939 24.395 24.395 24.395h130.485v-5.767z" fill="#ffb570"/><path d="M587.688 202.471h-197.85a9.72 9.72 0 0 0-9.719 9.719v23.78a9.72 9.72 0 0 0 9.719 9.719h197.85a9.72 9.72 0 0 0 9.719-9.719v-23.78a9.72 9.72 0 0 0-9.719-9.719z" fill="#0fd0c7"/><g fill="#009990"><use href="#p"/><path d="M561.803 202.471h-9.719v43.218h9.719v-43.218zm-135.959 0h-9.719v43.218h9.719v-43.218zm-16.199 0h-9.719v43.218h9.719v-43.218z"/></g><path d="M400.605 251.455c7.376 2.981 12.625 10.216 12.625 18.629v1.9c0 8.413-5.249 15.648-12.625 18.629v1.468h173.682c11.047 0 20.086-9.038 20.086-20.097v-1.9c0-11.048-9.039-20.087-20.086-20.087H400.605v1.469-.011z" class="G"/><mask id="B" maskUnits="userSpaceOnUse" x="400" y="249" width="195" height="44"><path d="M400.605 251.455c7.376 2.981 12.625 10.216 12.625 18.629v1.9c0 8.413-5.249 15.648-12.625 18.629v1.468h173.682c11.047 0 20.086-9.038 20.086-20.097v-1.9c0-11.048-9.039-20.087-20.086-20.087H400.605v1.469-.011z" class="B"/></mask><g mask="url(#B)" class="E"><use href="#q"/><path d="M617.992 279.393H370.629v2.159h247.363v-2.159zm0-6.48H370.629v2.16h247.363v-2.16zm0-6.479H370.629v2.16h247.363v-2.16zm0-6.48H370.629v2.16h247.363v-2.16zm0-6.479H370.629v2.16h247.363v-2.16z"/></g><path d="M400.605 251.455v2.841h173.682c8.704 0 15.788 7.084 15.788 15.788v1.9c0 8.705-7.084 15.789-15.788 15.789H400.605v8.607h173.682c13.455 0 24.395-10.951 24.395-24.396v-1.9c0-13.456-10.94-24.395-24.395-24.395H400.605v5.766z" fill="#208086"/></g><g clip-path="url(#S)"><path d="M759.08 194.545c-7.376-2.981-12.624-10.216-12.624-18.629v-1.9c0-8.413 5.248-15.648 12.624-18.629v-1.468H628.595c-11.047 0-20.097 9.039-20.097 20.086v1.901c0 11.047 9.039 20.097 20.097 20.097H759.08v-1.469.011z" class="G"/><mask id="C" maskUnits="userSpaceOnUse" x="608" y="153" width="152" height="44"><path d="M759.08 194.545c-7.376-2.981-12.624-10.216-12.624-18.629v-1.9c0-8.413 5.248-15.648 12.624-18.629v-1.468H628.595c-11.047 0-20.097 9.039-20.097 20.086v1.901c0 11.047 9.039 20.097 20.097 20.097H759.08v-1.469.011z" class="B"/></mask><g mask="url(#C)" class="E"><use href="#r"/><use href="#s"/><path d="M789.058 170.928H584.891v2.159h204.167v-2.159zm0 6.479H584.891v2.16h204.167v-2.16zm0 6.479H584.891v2.16h204.167v-2.16zm0 6.48H584.891v2.16h204.167v-2.16z"/></g><path d="M759.079 194.545v-2.84H628.594c-8.704 0-15.788-7.085-15.788-15.789v-1.9c0-8.704 7.084-15.789 15.788-15.789h130.485v-8.606H628.594c-13.455 0-24.395 10.95-24.395 24.395v1.9c0 13.456 10.94 24.395 24.395 24.395h130.485v-5.766z" fill="#ffb570"/><path d="M790.711 200.311H592.862a9.72 9.72 0 0 0-9.719 9.72v23.779a9.72 9.72 0 0 0 9.719 9.719h197.849a9.72 9.72 0 0 0 9.719-9.719v-23.779a9.72 9.72 0 0 0-9.719-9.72z" fill="#0fd0c7"/><g fill="#009990"><path d="M781.026 200.311h-9.719v43.218h9.719v-43.218z"/><use href="#t"/><path d="M628.866 200.311h-9.72v43.218h9.72v-43.218zm-16.2 0h-9.719v43.218h9.719v-43.218z"/></g><path d="M603.629 249.296c7.376 2.981 12.624 10.216 12.624 18.628v1.901c0 8.412-5.248 15.648-12.624 18.628v1.469H777.31c11.048 0 20.086-9.039 20.086-20.097v-1.901c0-11.047-9.038-20.086-20.086-20.086H603.629v1.469-.011z" class="G"/><mask id="D" maskUnits="userSpaceOnUse" x="603" y="247" width="195" height="43"><path d="M603.631 249.296c7.376 2.98 12.624 10.216 12.624 18.628v1.901c0 8.412-5.248 15.648-12.624 18.628v1.469h173.681c11.048 0 20.086-9.039 20.086-20.097v-1.901c0-11.047-9.038-20.086-20.086-20.086H603.631v1.469-.011z" class="B"/></mask><g mask="url(#D)" class="E"><use href="#u"/><use href="#v"/><path d="M821.014 270.754H573.65v2.159h247.364v-2.159zm0-6.48H573.65v2.16h247.364v-2.16zm0-6.479H573.65v2.16h247.364v-2.16zm0-6.48H573.65v2.16h247.364v-2.16z"/></g><path d="M603.629 249.296v2.84H777.31c8.704 0 15.788 7.084 15.788 15.788v1.901c0 8.704-7.084 15.788-15.788 15.788H603.629v8.607H777.31c13.456 0 24.395-10.95 24.395-24.395v-1.901c0-13.455-10.939-24.395-24.395-24.395H603.629v5.767z" fill="#208086"/></g><g clip-path="url(#T)"><path d="M414.342 274.566H232.583c-3.083 0-5.583 2.499-5.583 5.583v13.671c0 3.084 2.5 5.584 5.583 5.584h181.759c3.084 0 5.583-2.5 5.583-5.584v-13.671c0-3.084-2.499-5.583-5.583-5.583z" fill="#d92d65"/><g fill="#a50f45"><use href="#w"/><path d="M399.45 274.566h-5.583v24.838h5.583v-24.838zm-146.175 0h-5.584v24.838h5.584v-24.838zm-9.309 0h-5.583v24.838h5.583v-24.838zm126.066 6.782h-92.505v8.11h92.505v-8.11z"/></g><path d="M388.424 253.27H232.583c-3.083 0-5.583 2.5-5.583 5.583v10.432c0 3.083 2.5 5.583 5.583 5.583h155.841c3.084 0 5.583-2.5 5.583-5.583v-10.432c0-3.083-2.499-5.583-5.583-5.583z" fill="#fcc447"/><g fill="#e0a122"><use href="#x"/><path d="M373.532 253.27h-5.583v21.598h5.583V253.27zm-120.257 0h-5.584v21.598h5.584V253.27zm-9.309 0h-5.583v21.598h5.583V253.27zm100.148 6.782h-66.587v4.87h66.587v-4.87z"/></g></g><path d="M278.338 179.286c20.194 6.004 31.695 27.246 25.691 47.44s-27.246 31.695-47.44 25.691c-20.184-5.994-31.695-27.235-25.68-47.43 5.993-20.194 27.235-31.706 47.429-25.701z" fill="#7b85ff"/><path d="M276.319 186.089c16.447 4.892 25.809 22.181 20.918 38.628s-22.182 25.81-38.629 20.918-25.809-22.181-20.917-38.628 22.192-25.81 38.628-20.918z" fill="#c8ede6"/><path d="M300.121 221.882l-2.01 6.759 47.657 14.171 2.01-6.759-47.657-14.171z" fill="#7b85ff"/><path d="M315.218 221.55l-4.648 15.63 58.329 17.345 4.648-15.631-58.329-17.344z" fill="#d1396c"/><path d="M246.806 211.229c4.114-12.591 16.814-19.47 29.611-16.036 1.652.442 2.419-2.106.756-2.549-14.212-3.812-28.348 3.845-32.916 17.829-.529 1.631 2.02 2.387 2.549.756z" class="G"/><path d="M397.046 104.264h215.012a5.39 5.39 0 0 1 5.38 5.381V248.1H391.666V109.645a5.39 5.39 0 0 1 5.38-5.381z" fill="#273883"/><path d="M397.046 104.264h215.012a5.39 5.39 0 0 1 5.38 5.381v9.601H391.666v-9.601a5.39 5.39 0 0 1 5.38-5.381z" fill="#4a6efc"/><path d="M580.132 236.013H425.705V129.102h154.427v106.911zm-152.171-1.206h149.934V130.308H427.961v104.489.01z" class="F"/><use href="#y" class="B"/><path d="M582.023 186.483h-7.293v-7.292h7.293v7.292zm-6.081-1.202h4.879v-4.878h-4.879v4.878z" class="F"/><path d="M581.416 232.46h-6.08v6.081h6.08v-6.081z" class="B"/><path d="M582.023 239.147h-7.293v-7.292h7.293v7.292zm-6.081-1.202h4.879v-4.879h-4.879v4.879z" class="F"/><use href="#y" y="-52.466" class="B"/><path d="M582.023 134.017h-7.293v-7.292h7.293v7.292zm-6.081-1.201h4.879v-4.879h-4.879v4.879z" class="F"/><use href="#y" x="-151.984" y="-52.466" class="B"/><use href="#z" class="F"/><use href="#y" x="-151.473" class="B"/><path d="M430.55 186.483h-7.292v-7.292h7.292v7.292zm-6.08-1.201h4.878v-4.879h-4.878v4.879z" class="F"/><path d="M429.151 232.084h-6.081v6.08h6.081v-6.08z" class="B"/><use href="#z" x="-0.281" y="104.753" class="F"/><use href="#AA" class="B"/><use href="#AB" class="F"/><use href="#AA" y="103.802" class="B"/><use href="#AB" y="103.802" class="F"/><path d="M530.143 167.438c0-14.981-11.91-27.183-26.776-27.653-15.368-.481-28.479 12.129-28.552 27.507-.042 7.501 2.904 14.313 7.72 19.317 4.482 4.659 7.136 10.781 7.136 17.248v1.086h25.626v-1.076c0-6.362 2.455-12.505 6.916-17.039a27.56 27.56 0 0 0 7.94-19.39h-.01z" fill="url(#E)"/><path d="M489.732 204.619h25.502v14.992a6.49 6.49 0 0 1-6.488 6.488h-12.515a6.49 6.49 0 0 1-6.488-6.488v-14.992h-.011z" fill="#0b334c"/><path d="M514.148 217.971l-24.174-4.9c-.982-.198-1.693-1.065-1.693-2.068a2.11 2.11 0 0 1 2.539-2.069l24.174 4.9c.982.198 1.693 1.065 1.693 2.068a2.11 2.11 0 0 1-2.539 2.069z" fill="#114d73"/><path d="M514.148 213.656l-24.174-4.9c-.982-.198-1.693-1.065-1.693-2.068a2.11 2.11 0 0 1 2.539-2.069l24.174 4.9c.982.199 1.693 1.066 1.693 2.069a2.11 2.11 0 0 1-2.539 2.068zm0 8.63l-24.174-4.9c-.982-.199-1.693-1.066-1.693-2.069a2.11 2.11 0 0 1 2.539-2.068l24.174 4.899c.982.199 1.693 1.066 1.693 2.069a2.11 2.11 0 0 1-2.539 2.069zm-8.806-15.201l-1.42-.188a591.74 591.74 0 0 1 4.377-28.51c-1.651.982-3.615 1.64-5.809 1.943-1.546.209-3.541.282-5.547-.24 2.674 8.159 4.534 16.6 5.516 25.125l-1.431.167c-1.014-8.796-2.967-17.499-5.798-25.888-.481-.219-.962-.47-1.421-.773a8.38 8.38 0 0 1-3.302-4.304c-.313-.951.105-1.922 1.024-2.351a1.89 1.89 0 0 1 2.466.721c.742 1.17 1.264 2.497 1.713 3.751l.658 1.88c1.703.617 3.74.794 5.924.502 1.703-.23 4.22-.846 6.352-2.455l1.285-6.822c.104-.523.24-1.244.741-1.797a1.93 1.93 0 0 1 1.338-.627c.417-.021.814.136 1.107.407.386.377.491.888.533 1.285.146 1.411 0 2.696-.449 3.824a11.02 11.02 0 0 1-3.218 4.482c-1.797 9.914-3.343 19.933-4.628 29.879l-.011-.011zm-12.965-33.765c-.104 0-.198.031-.24.052-.125.053-.386.23-.261.606.46 1.39 1.41 2.654 2.643 3.5l-.157-.449c-.428-1.181-.908-2.413-1.577-3.469-.115-.188-.272-.24-.397-.24h-.011zm19.683-4.67c-.073 0-.23.042-.324.146-.209.241-.303.627-.397 1.108l-.919 4.816c.564-.71 1.044-1.546 1.42-2.507.356-.92.471-1.975.356-3.155-.032-.314-.084-.387-.105-.408h-.042.011z" fill="#0b334c"/><path d="M491.246 204.567l23.976 5.056m-25.427 7.616l24.519 5.203" stroke="#fff" stroke-width=".324" stroke-linecap="round" stroke-linejoin="round"/><path d="M539.097 261.447c-.062-.648-.219-2.131-.679-2.581-.292-.292-.783-.71-1.232-.637-.763.126-.293.857-.136 1.181.501.992-.084 2.653-1.484 1.807-1.535-.93-1.891-2.883-2.632-4.356-.074-.147-.209-.45-.387-.502-.522-.136-.804.261-.846.606-.063.606.376 1.839.554 2.382.198.596.898 1.348.114 1.139-.198-.052-.48-.418-.543-.554-.209-.397-.397-.815-.564-1.222-.251-.606-.031-1.4-.606-1.839-.386-.292-.836.219-.919.596-.178.814.23 1.985.616 3.019.042.115 1.076 1.536.867 1.431-.7-.355-1.044-1.086-1.389-1.734-.178-.334-.282-1.505-.867-1.379-.888.177-.47 1.797-.282 2.246.209.481.553.919.888 1.327.135.167.794.783.532.992-.292.23-.762-.825-.877-.982-.23-.292-.69-.867-1.128-.47-.377.345.02 1.003.177 1.327.387.773.857 1.525 1.421 2.183 1.118 1.306 2.664 3.249 4.753 2.894.711-.115 1.254-.334 1.787-.877.366-.377.794-.878 1.107-1.285.335-.439.585-.627.941-1.045.407-.491.689-.993.793-1.546.209-1.035.115-1.108.021-2.132v.011z" class="M"/><path d="M567.67 276.804c-9.643 0-21.26-2.246-33.859-8.201l2.674-5.662c20.591 9.736 38.31 8.619 47.221 4.711 3.374-1.483 5.641-3.405 6.226-5.275 1.849-5.945-5.171-12.85-8.023-15.013l3.771-5.015c.565.429 13.78 10.51 10.249 21.887-1.139 3.657-4.576 6.916-9.684 9.162-4.66 2.048-11.001 3.427-18.555 3.427l-.02-.021z" class="N"/><path d="M576.203 253.799c.794-9.799-.898-20.591.909-29.575 3.709-18.502 22.169-24.697 36.972-22.263 9.382 1.546 19.327 6.289 24.269 15.733 5.704 10.897 4.074 31.728.574 43.262-9.089 30.004-36.063 30.84-59.245 25.553-5.443-1.243-12.035-6.477-16.287-10.415 2.392.397 4.847.397 7.25 0-3.677-1.035-6.979-3.563-9.141-7.031 2.403 1.034 5.213.188 7.376-1.463 4.596-3.51 6.832-7.793 7.323-13.801z" fill="url(#F)"/><path d="M579.798 233.26c.313-.94-.355 1.662-.585.669-2.382-10.625 4.45-19.139 13.351-23.14 8.4-3.772 18.241-4.158 26.943-1.035 4.043 1.453 7.857 3.667 11.022 6.582 4.952 4.545 7.982 9.726 7.637 16.423-.533 10.499-3.395 11.283-3.51 13.142 0 0 4.346-19.463-14.041-28.238-14.658-6.989-29.127-6.112-40.096 12.202l-.732 3.385.011.01z" class="H"/><g fill="#4ad5c2"><path d="M628.032 306.15l-1.316.71c-.314-.344-11.179-7.887-8.515-21.406l6.875-.303c-2.006 10.165 2.789 18.053 4.607 19.975l-1.651 1.024zm-37.138.366l.752-.283 1.254-.208 1.347.052c-.156-.303-2.361-15.295 2.038-24.676l-6.697-2.602c-5.85 12.474 1.086 27.309 1.306 27.717z"/><path d="M624.357 288.505l-35.291-4.806-1.556-9.758 38.905 7.052-2.058 7.512z"/></g><path d="M585.45 309.503s0 .052.01.073l9.967-1.452v-.073c-.021-.146-.052-.293-.094-.428l-9.925 1.452c0 .146.021.292.042.439v-.011zm4.357-5.004c-2.382.345-4.168 2.079-4.377 4.064l9.736-1.421c-.773-1.849-2.977-2.998-5.359-2.643z" class="B"/><path d="M585.429 308.563a2.72 2.72 0 0 0-.021.502l9.925-1.453c-.042-.167-.104-.323-.167-.47l-9.737 1.421z" class="H"/><path d="M590.485 306.087c.031.24-.136.47-.376.502s-.47-.136-.502-.377.136-.47.376-.501.471.136.502.376z" class="I"/><path d="M590.475 305.126c.658-1.515.679-1.891 2.496-1.296 1.244.408 1.557.836.763 1.808-.857-.251-1.734-.543-2.622-.606l-.627.094h-.01z" class="B"/><path d="M592.366 305.324c.031.188-.105.366-.293.397s-.365-.104-.397-.292.105-.366.293-.397a.35.35 0 0 1 .397.292z" class="I"/><path d="M621.978 310.406l.031.062 9.162-4.178s-.021-.042-.031-.074a4.74 4.74 0 0 0-.209-.386l-9.12 4.168c.041.136.094.272.156.408h.011zm2.8-6.018c-2.193 1.003-3.426 3.155-3.071 5.13l8.953-4.085c-1.254-1.557-3.688-2.048-5.882-1.045z" class="B"/><path d="M621.708 309.507l.115.491 9.12-4.168c-.084-.146-.188-.282-.293-.407l-8.953 4.084h.011z" class="H"/><path d="M625.865 305.715a.44.44 0 1 1-.805.366.44.44 0 1 1 .805-.366z" class="I"/><path d="M625.582 304.796c.209-1.641.125-2.006 2.037-1.943 1.306.041 1.724.365 1.233 1.525-.888 0-1.818-.042-2.685.157l-.575.261h-.01z" class="B"/><path d="M627.453 304.461a.34.34 0 1 1-.637.282.34.34 0 1 1 .637-.282z" class="I"/><path d="M633.37 244.742l.032-2.278c-.45-13.821-12.14-23.516-25.93-24.268-11.628-.637-25.052 5.662-27.152 14.5-.533 2.267-1.097 6.373 0 8.536 1.212 2.402 8.431 6.393 14.709 7.26 3.949.544 5.172 1.296 12.516 1.693 14.636.794 26.619.846 25.836-5.454l-.011.011z" fill="#fcdbc7"/><path d="M620.176 238.014a1.6 1.6 0 0 0-3.176.418 1.6 1.6 0 0 0 3.176-.418z" fill="#426932"/><path d="M584.27 279.76l42.154 3.072 8.493-36.429s-6.78 2.894-11.324 3.238c-12.255.909-18.91 1.265-30.454-2.423l-6.54-2.508-6.759-3.771-.574 1.034 5.004 37.798v-.011z" class="N"/><path d="M593.63 235.12c-.115-.825-.94-1.4-1.828-1.295s-1.515.856-1.39 1.671c.126.826.941 1.4 1.829 1.296s1.515-.857 1.389-1.672z" fill="#426932"/><path d="M616.103 234.911s-20.142-.71-20.298-12.693l2.173-.826s-1.526 9.518 13.915 12.297 4.2 1.222 4.2 1.222h.01z" fill="#935123"/><path d="M627.908 219.303c5.881 5.203 9.036 11.241 8.545 18.993-.25 4.022-.867 6.258-2.455 8.995-.532.919-1.744 2.309-1.796.721-.063-2.257-.7-5.537-3.458-8.086-1.797-1.661-4.169-2.528-6.499-3.291-8.524-2.758-19.786-6.321-25.637-13.111-3.844 5.704-15.764 17.885-16.632 17.279-.041-.031-.24-.355-.459-.877-.429-.993-1.337-8.912.219-12.787 6.864-17.165 34.1-20.299 48.182-7.846l-.01.01z" fill="url(#G)"/><path d="M602.135 249.725l3.813.637c-1.17 6.99-1.149 10.103-.919 12.568l-3.887.084c-.24-2.904-.177-6.279.993-13.289z" class="H"/><path d="M603.461 255.711a.93.93 0 1 0-.93-.929.93.93 0 0 0 .93.929zm-.365 4.033a.93.93 0 1 0 0-1.86.93.93 0 1 0 0 1.86z" class="B"/><path d="M579.309 241.43l.156-1.442s17.092 12.809 44.568 9.069c6.017-.857 10.885-3.469 10.885-3.469l1.484 1.421-26.097 9.747-6.237-6.101-6.686 4.398-18.073-13.612v-.011z" fill="#f2f2f2"/><path d="M574.771 227.675l-48.638 20.546 20.545 48.638 48.639-20.545-20.546-48.639z" class="B"/><path d="M572.033 234.377l-39.207 16.562 16.562 39.207 39.207-16.562-16.562-39.207z" fill="#91b0ff"/><path d="M585.605 266.461l2.998 7.104-39.208 16.57-4.502-10.667c1.87-3.458 4.732-6.425 8.389-7.835 3.081-1.191 6.477-1.191 9.778-1.181 5.725.021 15.618-3.092 22.545-3.991z" fill="#462397"/><path d="M566.447 250.185c.982 2.33-.105 5.015-2.435 5.997s-5.014-.105-5.996-2.435.104-5.014 2.434-5.996 5.015.104 5.997 2.434z" class="O"/><path d="M600.539 240.855a11.53 11.53 0 0 0 3.625 2.09c2.142.731 3.667.574 4.148.313.229-.125.365-.47.449-.804.042.052.094.104.136.167 1.023 1.327-.659 2.831-1.912 3.291s-4.482.052-6.216-1.296c-1.515-1.17-1.411-3.113-.23-3.75v-.011z" fill="#bd2a1d"/><path d="M608.321 243.258c-.48.272-2.016.429-4.147-.313-1.64-.564-3.03-1.567-3.625-2.09.177-.094.386-.167.616-.198 1.223-.167 3.019 1.118 4.44 1.379 1.348.251 2.278-.564 3.176.407-.083.335-.219.679-.449.805l-.011.01z" fill="#f6f6f7"/><path d="M577.698 270.807c-.7-.334-3.051-1.337-3.176-2.099-.167-.962 2.497.564 4.199.908-1.034.042 0 0-2.946-1.64-1.556-.867-2.319-1.232-2.267-2.267.679-.052 3.124 1.055 4.534 1.421-.929-.439-3.343-1.64-4.199-2.267-.324-.24-.345-1.013.397-.846l1.462.355c1.108.334 2.591 1.128 3.699 1.463-.669-.356-4.514-2.414-3.312-2.926.261-.114.553-.062.836 0 1.399.303 2.256.826 4.753 1.672l2.163.846c.198-.146-.972-.449-1.097-2.267-.042-.637.553-1.4 1.097-1.045.25.168.323.491.428.774.595 1.776 2.267 2.476 2.852 4.241.449 1.348.198 3.416-.763 4.461-2.068 2.236-6.049.481-8.65-.773l-.01-.011z" fill="#fcdbc7"/><path d="M591.563 267.214s23.235 6.038 38.205 1.953l-2.737 10.834s-19.818 1.243-32.48-3.406l.773-.303-3.771-9.078h.01z" fill="#7f46a6"/><path d="M620.259 279.196c-10.217 0-22.711-2.246-35.896-6.634l1.985-5.944c25.136 8.378 41.977 7.167 48.757 3.594 1.943-1.024 3.124-2.236 3.51-3.605 1.755-6.153-5.997-14.688-8.671-16.893l5.673-2.496c.522.428 12.275 9.726 9.026 21.113-.867 3.03-3.155 5.6-6.613 7.428-4.377 2.309-10.489 3.448-17.771 3.448v-.011z" class="N"/><path d="M426.797 242.992h15.232c1.337 0 2.423 1.086 2.423 2.423v18.492a2.51 2.51 0 0 1-2.507 2.507H426.88a2.51 2.51 0 0 1-2.507-2.507v-18.492c0-1.337 1.087-2.423 2.424-2.423z" fill="#0f8aac"/><path d="M424.102 243.869v.533c0 .522.407.961.94.972.574.02 1.149.094 1.619.344 1.045.575 1.755 1.693 2.894 2.069s2.392-.115 3.395-.784c1.243-.825 2.32-1.943 3.855-2.246.679-.136 1.411-.052 1.985.345 1.202.815 1.014 2.257 1.055 3.531a8.49 8.49 0 0 0 .418 2.34c.209.637.512 1.275 1.066 1.651.543.376 1.389.407 1.828-.094.261-.293.334-.711.376-1.097.115-.993.126-1.996.021-2.978-.052-.543-.146-1.096-.031-1.629.083-.376.292-.742.606-.961.271-.188.438-.481.438-.815v-1.181a1.26 1.26 0 0 0-1.253-1.253h-17.948a1.26 1.26 0 0 0-1.254 1.253h-.01z" class="O"/><use href="#AC" fill="#078871"/><use href="#AC" x="-17.289" fill="#10e8c1"/><use href="#AC" x="75.041" fill="#078871"/><g fill="#10e8c1"><path d="M451.418 266.352h-4.648v43.512h4.648v-43.512z"/><path d="M451.419 266.362H337.264v4.649h114.155v-4.649z"/></g><path d="M450.511 215.985c-6.185 3.887-13.738 5.297-22.086 2.226-.177-.063-.7-.262-1.441-.544-6.937-2.611-14.752-5.213-14.752-5.213l1.975-5.202c1.086-.697 6.143.658 15.169 4.064l1.39.522c14.615 5.37 24.205-7.668 27.569-16.214 2.664-6.791 3.208-14.459 1.557-22.2l6.644-1.41c1.923 9.036 1.275 18.063-1.88 26.096-2.81 7.157-7.741 13.853-14.145 17.886v-.011z" class="P"/><g fill="#013e6f"><path d="M372.41 251.485l36.868-2.717.428-8.524-41.726 1.713 4.43 9.528z"/><path d="M350.752 264.063l1.724-4.273-.115 3.51-.146-2.852c.271 0 7.542 3.939 13.957.679 6.205-3.155 5.411-12.285 2.497-17.248l10.948 1.379c.178 13.832-6.268 18.648-8.671 19.609-9.998 4.012-19.902-.804-20.173-.814l-.021.01z"/></g><path d="M344.914 265.411l-.053-.063 7.721-7.491s.042.032.062.053l.303.355-7.689 7.459c-.125-.094-.23-.199-.344-.313zm7.072-.429c-1.849 1.797-4.471 2.173-6.289 1.055l7.543-7.312c1.066 1.859.596 4.46-1.254 6.257z" class="B"/><path d="M345.697 266.037c-.157-.094-.303-.198-.439-.303l7.689-7.459.292.449-7.542 7.313z" fill="#b2202b"/><path d="M351.087 263.373c-.178-.188-.481-.198-.669-.01-.188.177-.188.48 0 .668.178.189.481.189.669 0 .188-.177.188-.48.01-.668l-.01.01z" class="J"/><path d="M351.891 264.011c1.703.428 2.037.658 2.726-1.265.47-1.305.303-1.859-1.034-1.817-.345.877-.669 1.828-1.201 2.611l-.491.471z" class="B"/><path d="M352.947 262.276c-.147-.146-.377-.146-.523 0s-.157.376 0 .523c.146.146.376.146.523 0s.156-.376 0-.523z" class="J"/><path d="M419.767 264.993h-4.534c-.073-.313 8.274-11.575 1.745-14.595-7.01-3.238-19.714-.271-33.556.188l2.016-6.351c19.348-6.655 32.47-2.111 34.747-.794 12.15 7.02-.47 21.239-.407 21.552h-.011z" fill="#013e6f"/><path d="M425.572 266.038v.073l-10.75.115v-.073l.021-.47 10.708-.115c.021.156.032.313.032.47h-.011zm-5.421-4.555c2.57-.032 4.743 1.504 5.287 3.562l-10.51.105c.512-2.079 2.643-3.646 5.213-3.678l.01.011z" class="B"/><path d="M425.436 265.045a4.17 4.17 0 0 1 .104.523l-10.708.115c.021-.178.052-.356.094-.523l10.51-.104v-.011z" fill="#b2202b"/><path d="M419.701 263.269c0 .261.22.47.481.47s.47-.219.47-.48-.22-.471-.481-.471-.47.22-.47.481z" class="J"/><path d="M419.554 262.245c-.94-1.483-1.034-1.88-2.841-.961-1.243.627-1.505 1.139-.502 2.037.857-.397 1.735-.867 2.675-1.065h.679l-.011-.011z" class="B"/><path d="M417.59 262.778a.36.36 0 1 0 .742-.01c0-.209-.167-.366-.376-.366a.36.36 0 0 0-.366.376z" class="J"/><path d="M359.215 208.474c0-.867.125-2.455.198-3.301 1.275-14.71 13.394-22.409 28.134-22.409 15.608 0 31.822 8.848 27.487 24.195-1.202 4.242-10.165 5.244-15.243 9.705-5.108 4.482-3.082 1.045-10.927 1.045-15.65 0-29.66 2.34-29.639-9.235h-.01z" class="M"/><path d="M373.778 201.192c.177-.929 1.065-1.535 1.995-1.368.93.177 1.536 1.065 1.369 1.995-.178.93-1.066 1.536-1.996 1.369-.93-.178-1.535-1.066-1.368-1.996z" fill="#3e2414"/><path d="M390.86 209.958c.491-.46.784-.993.721-1.588-.073-.805-.805-1.369-1.64-1.254-1.202.157-4.764.345-6.843-.595-1.745-.784-2.225 1.076-1.849 2.193 1.253 3.782 7.135 3.563 9.601 1.244h.01z" fill="#8c291d"/><g fill="#663115"><path d="M395.581 172.641c9.057 2.747 15.994 6.968 25.741 4.544-1.41 5.443-3.322 11.513-8.336 14.041 1.901 1.807 3.134 3.615 3.426 6.268.157 1.432.094 2.884-.115 4.304-.146.993-1.17 3.051-.982 3.939-.992-4.837-4.21-8.41-8.848-10.092-3.615-1.316-7.543-1.462-11.388-1.494l1.808 1.672c-5.433-.063-10.865-.658-16.183-1.787-2.465-.522-4.753-1.17-7.041-2.131-.721-.303-4.346-1.066-4.43-1.995.669 7.992-6.926 21.918-8.065 21.646-.177-.042-1.745.825-3.635-1.87-3.176-4.534-4.054-10.395-2.539-15.169 1.368-4.346 4.231-8.462 8.305-10.646 2.184-1.17 2.623.46 4.002-1.609 1.807-2.716 5.317-5.746 8.138-7.281 6.101-3.312 13.477-4.367 20.152-2.34h-.01z"/><path d="M389.73 198.278s-15.033-4.911-17.613-9.789c-3.249-6.164-2.278 1.859-2.278 1.859s5.192 8.274 19.891 7.93zm25.094-27.769s-1.681 13.404-15.545 8.159c-12.63-4.784-1.128-5.192-1.128-5.192s11.669 6.833 16.673-2.967zm-48.036 5.161s4.378 4.67-1.483 9.821c-5.85 5.16-1.943-.554-1.943-.554s4.983-1.703 3.426-9.267z"/><path d="M359.716 178.355s.532 6.425 8.2 5.391c7.679-1.034.878-1.849.878-1.849s-4.555 2.664-9.089-3.542h.011z"/></g><path d="M416.768 241.842l-47.2 8.17-12.265-38.446s6.686 2.539 11.512 3.155c13.018 1.682 19.129 1.547 31.645-1.713l14.835-7.282 2.058 1.588-.596 34.518.011.01z" class="P"/><path d="M402.234 199.657c.178-.867 1.087-1.442 2.027-1.275s1.557 1.003 1.39 1.87c-.178.867-1.087 1.442-2.027 1.275-.94-.157-1.557-.993-1.39-1.87z" fill="#3e2414"/><g fill="#7588a0"><use href="#AD"/><path d="M392.207 224.667c.548 0 .993-.444.993-.992s-.445-.993-.993-.993-.992.445-.992.993a.99.99 0 0 0 .992.992z"/></g><path d="M393.733 215.369l-4.106.47c.867 7.512.888 11.983.512 14.605l4.168-.595c.418-3.082.167-5.527-.574-14.48z" fill="#96cbe3"/><g class="B"><path d="M392.039 221.01c.548 0 .993-.444.993-.992s-.445-.992-.993-.992a.99.99 0 1 0 0 1.984z"/><use href="#AD" x="0.168" y="4.983"/></g><path style="mix-blend-mode:hard-light" opacity=".67" d="M364.376 194.642c2.027-2.33 5.966-2.236 8.849-2.413 3.092-.188 10.05.115 11.44 3.541.877 2.163-.387 6.687-1.4 8.745-1.285 2.59-3.427 3.667-6.133 3.97-4.179.459-10.478.929-12.505-3.96-1.097-2.643-2.351-6.885-.595-9.434a4.69 4.69 0 0 1 .344-.449z" fill="url(#H)"/><path style="mix-blend-mode:hard-light" opacity=".67" d="M393.212 193.859c2.027-2.33 5.966-2.236 8.849-2.413 3.092-.188 10.05.115 11.44 3.541.877 2.163-.387 6.686-1.4 8.744-1.285 2.591-3.427 3.667-6.133 3.97-4.179.46-10.478.93-12.505-3.959-1.097-2.643-2.351-6.885-.595-9.434a4.57 4.57 0 0 1 .344-.449z" fill="url(#I)"/><path d="M360.721 192.407l.595 8.712a3.71 3.71 0 0 0 1.996 2.09c.595 1.577 1.159 6.717 9.057 6.634 8.316-.084 12.119-.606 13.592-9.497 0 0 .355-2.8 2.361-3.186 2.027.282 2.528 3.051 2.528 3.051 1.943 8.796 5.777 9.109 14.083 8.754 7.887-.345 8.169-5.505 8.681-7.114s1.881-2.205 1.881-2.205c.157-4.367.125-8.733.125-8.733-2.789-.753-10.374-1.108-15.138-.7-4.293.365-7.051 1.107-12.296 2.131-5.286-.731-8.086-1.327-12.39-1.463-4.785-.146-12.328.606-15.075 1.515v.011zm31.602 4.126c.073-.595.272-1.201.669-1.661 1.577-1.839 4.001-2.194 6.216-2.455 3.103-.366 6.717-.428 9.831.063 1.922.303 3.165 1.755 3.426 3.656.314 2.278-.115 5.109-1.149 7.167-.554 1.086-1.389 2.037-2.445 2.643-1.055.616-2.256.919-3.458 1.066-2.329.282-4.993.417-7.281-.157-.585-.146-1.149-.366-1.672-.669-2.162-1.264-3.082-3.75-3.698-6.038-.157-.585-.293-1.181-.387-1.787-.083-.606-.125-1.211-.052-1.817v-.011zm-28.165.919c.157-1.911 1.316-3.426 3.228-3.834 3.082-.668 6.686-.794 9.81-.595 2.225.146 4.659.366 6.341 2.11.418.439.648 1.024.752 1.62s.105 1.211.053 1.817a15.37 15.37 0 0 1-.282 1.808c-.502 2.329-1.275 4.858-3.375 6.237-.501.334-1.055.574-1.63.762-2.246.7-4.92.711-7.26.554-1.212-.084-2.424-.324-3.511-.878-1.086-.543-1.974-1.441-2.58-2.507-1.139-1.995-1.724-4.806-1.536-7.094h-.01z" fill="#08133d"/><path d="M448.184 220.44l-3.669 1.49c-.125.051-.275-.012-.326-.138l-5.242-12.901c-.051-.126.012-.276.138-.327l3.668-1.49c.136-.055.276.012.327.137l5.242 12.902c.051.126-.012.276-.138.327z" fill="#1f5b99"/><path d="M442.03 212.454l-3.896-9.59-10.061 4.085c-1.431.585-3.082-.115-3.667-1.546l-2.643-6.509c-.282-.7-.272-1.462.01-2.152a2.8 2.8 0 0 1 1.536-1.515l10.416-4.231.575 1.421-10.416 4.231a1.29 1.29 0 0 0-.7.689c-.136.314-.136.659 0 .983l2.643 6.508c.261.648 1.013.961 1.661.7l11.481-4.67 4.472 11.011-1.421.575.01.01z" fill="#c7c7c7"/><path d="M429.226 198.067l25.455-10.341a1.6 1.6 0 0 0 .879-2.083l-1.777-4.375a1.6 1.6 0 0 0-2.082-.879l-25.456 10.342a1.6 1.6 0 0 0-.879 2.082l1.777 4.375a1.6 1.6 0 0 0 2.083.879z" fill="#1716a1"/><path d="M447.933 217.333a2.05 2.05 0 0 0-.909.032c.794-.429 1.358-.617 1.39-1.359.052-1.264-.909-1.086-1.703-1.18.47-.596 1.086-1.264.146-1.807-.407-.241-.794-.345-1.306-.053-.083.053.303-.616.345-.71.313-.617-.376-1.316-.951-1.233-.522.073-3.907 1.797-4.67 2.34 0 0 1.118-3.531.074-3.698-.993-.157-2.32 2.392-2.685 3.019-.638 1.087-3.093 3.427-3.124 4.367-.021.7.313 1.358.637 1.985.732 1.389.679 3.489 1.411 4.879 1.776-.825 10.551-4.085 11.115-4.879.115-.167.314-.282.418-.449.23-.355.376-.878-.021-1.17a.58.58 0 0 0-.177-.094l.01.01zm-4.064 1.034s.052 0 .105-.02v.02h-.105zm14.362-48.411c.104-.471.282-.857.564-1.035 1.306-.783 1.003 3.928 1.985 3.657-.261-.335-.564-3.103-.606-3.751-.052-.794-.157-3.343.763-3.698.229-.094.501.021.668.198s.261.418.345.648c.292.794.23 2.8.522 3.584-.209-.23.314-1.85.596-1.996s.616-.104.919-.063c.46.063.93.126 1.358.293.92.355 1.62 1.201 1.996 2.1.324.773.459 1.598.595 2.424.115.741.24 1.483.167 2.225-.135 1.452-1.097 2.35-2.444 2.768-1.515.481-3.897.606-5.297-.313s-2.225-3.072-2.288-4.67c-.021-.501-.042-1.546.136-2.361l.021-.01z" class="M"/><g fill="#d6b9a9"><path d="M462.074 170.269c0 .428.073.867.251 1.264.073.167.178.366.292.502.126.156.251.125.429.115-.408.041-.69-1.369-.69-1.682-.01-.836.324-1.975.397-2.215.011-.052.032-.094.021-.146s.251-.45.209-.471c-.334.721-.909 1.829-.909 2.633zm1.758.293c0 .438.073.877.261 1.274.157.324.303.69.679.418-.052.042-.115.073-.177.073-.22-.031-.282-.501-.324-.658-.084-.292-.094-.522-.094-.836 0-.344.418-1.556.188-1.807-.387-.407-.533 1.337-.533 1.536zm2.924 1.483c-.929.825-1.211-.397-1.201-1.097 0-.198.146-1.943.533-1.536.24.251-.146 1.473-.178 1.954-.021.303 0 .387.084.689.062.241.491.262.762 0v-.01z"/><path d="M462.86 172.097c.669.428 1.557.167 2.341.303.125.021.25.052.386.052.825 0 1.055-.386 1.358.512.167.512.126 1.275-.407 1.557-.397.209-.878.041-1.243-.22s-.669-.595-1.066-.794c-1.003-.48-1.818.22-2.382.951-.209-.105-.24-.293-.178-.522.199-.669.523-1.453.773-2.069.105.094.272.219.418.23z"/></g><path d="M445.895 187.047c-.084 0-.168-.031-.241-.062-.721-.293-1.065-1.766-1.953-2.215-.073.564.062 1.149.386 1.63.073.104.157.229.126.355-.021.083-.084.146-.157.198-1.745 1.411-1.525-1.264-2.476-1.327-.261-.02-.345.345-.282.606.313 1.296.752 1.588-.115 2.466-.752.763-1.536.961-2.497.272-.24-.168-.428-.397-.637-.606-2.069-1.923-4.252-.606-3.855 1.943.083.501-.032 1.065-.408 1.41-1.535 1.41-5.296-2.706-2.977-3.918 5.359-2.799 8.076-3.593 16.036-6.842 1.651-.679 3.416-1.4 4.001.961.053.209.105.418.032.627s-.314.355-.491.25c-.105-.052-.157-.167-.199-.271-.146-.335-.25-.679-.324-1.035-.741.074.283 2.058.251 2.633 0 .146-.021.293-.104.418-.167.292-.554.345-.888.376-.387.031-.815.052-1.129-.188-.135-.115-.24-.272-.344-.407-.293-.397-.679-.742-1.118-.982-.303-.168-.794-.209-.888.114-.052.199.094.387.23.544.574.647 2.413 3.249 0 3.05h.021z" class="O"/><path d="M443.794 213.677c-.313.125-1.776.564-1.588.804.742.073 1.484-.167 2.1-.522.47-.272.919-.617 1.222-1.003-.627.063-1.065.439-1.734.71v.011zm1.189 1.849c-.313.126-1.776.564-1.587.805.741.073 1.483-.168 2.099-.523.471-.271.92-.616 1.223-1.003-.658.032-1.066.439-1.735.711v.01zm1.1 2.1c-.219.063-1.201.219-1.139.449.45.157.961.063 1.4-.146.334-.157.679-.376.94-.648l-1.211.345h.01z" fill="#d6b9a9"/><use href="#AE" fill="#e9b5ff"/><use href="#AE" x="9.443" fill="#59caff"/><path d="M418.355 114.795a2.83 2.83 0 1 0 0-5.662c-1.564 0-2.832 1.268-2.832 2.831a2.83 2.83 0 0 0 2.832 2.831z" fill="#ffcb1c"/><path d="M366.756 241.445l-1.139-3.635s20.247 1.306 51.389-12.568l.084 2.894s-30.349 12.62-50.345 13.299l.011.01zm2.33 7.146l-1.703-5.443s23.746.909 49.634-9.642l-.084 1.786s-9.392 7.512-47.847 13.299z" fill="#0350a3"/><path d="M364.501 247.118c-8.619 0-15.337-3.364-18.68-9.444-3.123-5.673-2.601-12.704 1.327-17.917 3.134-4.168 9.392-7.981 9.622-8.117l2.183.794 1.641 5.129s-5.694 3.176-8.024 6.279c-2.319 3.082-2.633 7.23-.804 10.562 2.361 4.284 7.825 6.404 15.002 5.83 38.926-3.134 67.279-22.963 67.561-23.162l4.064 6.164c-1.212.857-30.213 20.477-71.082 23.767-.961.074-1.901.115-2.821.115h.011z" class="P"/><path d="M416.632 206.824l-.836-1.526s-19.734 12.892-48.913 7.909c-6.394-1.128-9.966-2.884-9.966-2.884l-.847 1.097 30.621 10.97 4.868-6.906 6.467 5.182 18.606-13.853v.011z" fill="#f2f2f2"/><path d="M503.698 19.225c1.148-4.587-1.865-9.182-6.73-10.265s-9.74 1.758-10.889 6.345 1.865 9.182 6.73 10.265 9.741-1.758 10.889-6.345z" fill="#e673b0"/><path d="M499.582 14.382l-1.632-1.536-3.057 2.882-3.056-2.882-1.629 1.536 3.056 2.882-3.056 2.884 1.629 1.536 3.056-2.881 3.057 2.881 1.632-1.536-3.056-2.884 3.056-2.882z" class="B"/><defs><linearGradient id="E" x1="502.479" y1="139.774" x2="502.479" y2="204.954" href="#AF"><stop stop-color="#ffaa2c"/><stop offset=".339" stop-color="#fccc24"/><stop offset=".583" stop-color="#fcd714"/><stop offset=".828" stop-color="#fcf30f"/></linearGradient><linearGradient id="F" x1="606.482" y1="201.086" x2="597.238" y2="289.035" href="#AF"><stop offset=".15" stop-color="#935123"/><stop offset=".31" stop-color="#7f421b"/><stop offset=".58" stop-color="#662e12"/><stop offset=".81" stop-color="#56220c"/><stop offset="1" stop-color="#511e0b"/></linearGradient><linearGradient id="G" x1="607.628" y1="248.634" x2="607.801" y2="211.76" href="#AF"><stop offset=".15" stop-color="#935123"/><stop offset=".45" stop-color="#974e28"/><stop offset="1" stop-color="#9c4d2e"/></linearGradient><linearGradient id="H" x1="374.983" y1="191.947" x2="372.463" y2="208.904" href="#AF"><stop offset=".35" stop-color="#fff"/><stop offset=".65" stop-color="#b5d1ee"/><stop offset="1" stop-color="#fff"/></linearGradient><linearGradient id="I" x1="403.818" y1="191.167" x2="401.299" y2="208.124" href="#AF"><stop offset=".35" stop-color="#fff"/><stop offset=".65" stop-color="#b5d1ee"/><stop offset="1" stop-color="#fff"/></linearGradient><clipPath id="J"><path transform="matrix(-1 0 0 -1 580.916 118.911)" d="M0 0h139.308v50.997H0z" class="B"/></clipPath><clipPath id="K"><path transform="translate(416 16)" d="M0 0h85v72H0z" class="B"/></clipPath><clipPath id="L"><path transform="translate(93.756 42.117)" d="M0 0h277.709v242.504H0z" class="B"/></clipPath><clipPath id="M"><path transform="translate(181.229 168.465)" d="M0 0h139.308v50.997H0z" class="B"/></clipPath><clipPath id="N"><path transform="translate(627 42.117)" d="M0 0h277.709v242.504H0z" class="B"/></clipPath><clipPath id="O"><path transform="translate(714.473 168.465)" d="M0 0h139.308v50.997H0z" class="B"/></clipPath><clipPath id="P"><path transform="translate(451 32)" d="M0 0h212.612v117.202H0z" class="B"/></clipPath><clipPath id="Q"><path transform="matrix(-1 0 0 1 427.863 88.0658)" d="M0 0h139.308v191.436H0z" class="B"/></clipPath><clipPath id="R"><path transform="translate(370.627 151.78)" d="M0 0h247.363v144.599H0z" class="B"/></clipPath><clipPath id="S"><path transform="translate(573.65 149.621)" d="M0 0h247.363v144.599H0z" class="B"/></clipPath><clipPath id="T"><path transform="translate(227 177.698)" d="M0 0h192.925v121.705H0z" class="B"/></clipPath><path id="U" d="M363.871 258.875H103.246v.594h260.625v-.594z"/><path id="V" d="M320.643 60.712h-.573V284.62h.573V60.712z"/><path id="W" d="M190.104 79.017h-.573V284.62h.573V79.017z"/><path id="X" d="M195.547 70.021h-11.469v35.216h11.469V70.021z"/><path id="Y" d="M195.676 224.361h-11.738v40.227h11.738v-40.227z"/><path id="Z" d="M103.074 87.634h-.572v196.997h.572V87.634z"/><path id="a" d="M109.263 114.934h-12.97v32.376h12.97v-32.376z"/><path id="b" d="M146.584 60.712h-.572V284.62h.572V60.712z"/><path id="c" d="M156.607 220.528h-20.605v37.159h20.605v-37.159z"/><path id="d" d="M151.054 175.431c0 3.261-2.127 5.896-4.762 5.896s-4.763-2.646-4.763-5.896 2.128-5.896 4.763-5.896 4.762 2.645 4.762 5.896z"/><path id="e" d="M232.492 60.713h-.572V284.62h.572V60.713z"/><path id="f" d="M236.24 86.965h-8.078v8.974h8.078v-8.974z"/><path id="g" d="M239.868 60.712c0 4.028-3.434 7.3-7.667 7.3s-7.668-3.272-7.668-7.3 3.434-7.3 7.668-7.3 7.667 3.272 7.667 7.3z"/><path id="h" d="M364.162 79.017h-.572V284.62h.572V79.017z"/><path id="i" d="M367.585 170.139h-7.419v49.481h7.419v-49.481z"/><path id="j" d="M363.871 151.036c4.193 0 7.592-4.589 7.592-10.249s-3.399-10.248-7.592-10.248-7.592 4.589-7.592 10.248 3.399 10.249 7.592 10.249z"/><path id="k" d="M201.654 168.465h-20.425v20.425h20.425v-20.425z"/><path id="l" d="M897.115 258.875H636.49v.594h260.625v-.594z"/><path id="m" d="M308.638 153.927h96.895c2.464 0 4.459-.982 4.459-2.196v-4.126c0-1.211-1.998-2.196-4.459-2.196h-96.895c-2.464 0-4.459.982-4.459 2.196v4.126c0 1.211 1.998 2.196 4.459 2.196z"/><path id="n" d="M308.638 180.992h96.895c2.464 0 4.459-.982 4.459-2.197v-4.125c0-1.211-1.998-2.197-4.459-2.197h-96.895c-2.464 0-4.459.982-4.459 2.197v4.125c0 1.211 1.998 2.197 4.459 2.197z"/><path id="o" d="M586.034 160.128H381.867v2.16h204.167v-2.16z"/><path id="p" d="M578.002 202.471h-9.719v43.218h9.719v-43.218z"/><path id="q" d="M617.992 285.872H370.629v2.16h247.363v-2.16z"/><path id="r" d="M789.058 157.969H584.891v2.159h204.167v-2.159z"/><path id="s" d="M789.058 164.448H584.891v2.16h204.167v-2.16z"/><path id="t" d="M764.827 200.311h-9.72v43.218h9.72v-43.218z"/><path id="u" d="M821.014 283.713H573.65v2.159h247.364v-2.159z"/><path id="v" d="M821.014 277.233H573.65v2.16h247.364v-2.16z"/><path id="w" d="M408.759 274.566h-5.583v24.838h5.583v-24.838z"/><path id="x" d="M382.841 253.27h-5.583v21.598h5.583V253.27z"/><path id="y" d="M581.416 179.797h-6.08v6.08h6.08v-6.08z"/><path id="z" d="M430.038 134.017h-7.292v-7.292h7.292v7.292zm-6.08-1.201h4.879v-4.879h-4.879v4.879z"/><path id="AA" d="M499.604 127.53v6.08h6.08v-6.08h-6.08z"/><path id="AB" d="M506.29 134.206h-7.292v-7.292h7.292v7.292zm-6.08-1.202h4.879v-4.878h-4.879v4.878z"/><path id="AC" d="M359.088 266.352h-4.649v43.512h4.649v-43.512z"/><path id="AD" d="M392.039 220.353c.548 0 .993-.445.993-.993s-.445-.992-.993-.992a.99.99 0 0 0-.992.992c0 .548.444.993.992.993z"/><path id="AE" d="M399.468 114.795a2.83 2.83 0 1 0 0-5.662 2.83 2.83 0 1 0 0 5.662z"/><linearGradient id="AF" gradientUnits="userSpaceOnUse"/></defs></svg>