<svg width="980" height="337" viewBox="0 0 980 337" fill="none" xmlns="http://www.w3.org/2000/svg">
<g opacity="0.45">
<path d="M490 337C760.628 337 980 319.089 980 297C980 274.911 760.611 257 490 257C219.389 257 0 274.902 0 296.99C0 319.079 219.372 336.99 490 336.99V337Z" fill="#094159"/>
</g>
<g clip-path="url(#clip0_815_8588)">
<path d="M560.491 118.911L580.916 118.911L580.916 98.4856L560.491 98.4856L560.491 118.911Z" fill="#737DE6"/>
<path d="M533.371 113.143L550.023 113.143C550.494 113.143 550.875 112.762 550.875 112.291C550.875 111.82 550.494 111.439 550.023 111.439L533.927 111.439L518.499 76.6463C518.362 76.3386 518.059 76.1395 517.722 76.1395L502.403 76.1395C501.932 76.1395 501.551 76.5201 501.551 76.9915C501.551 77.4629 501.932 77.8436 502.403 77.8436L517.169 77.8436L532.595 112.638C532.732 112.946 533.035 113.145 533.371 113.145L533.371 113.143Z" fill="#737DE6"/>
<path d="M441.608 87.5592L495.297 87.5592L495.297 67.911L441.608 67.911L441.608 87.5592Z" fill="#C9C9F5"/>
</g>
<g clip-path="url(#clip1_815_8588)">
<path d="M496.137 -4.21861H416.43V87.5735H496.137V-4.21861Z" fill="#5DBDE6"/>
<path d="M437.586 53.8319H424.813V81.2604H437.586V53.8319Z" fill="#077AD8"/>
<path d="M459.587 42.9566H446.814V81.2626H459.587V42.9566Z" fill="#077AD8"/>
<path d="M481.59 32.3149H468.817V81.26H481.59V32.3149Z" fill="#077AD8"/>
</g>
<g clip-path="url(#clip2_815_8588)">
<path d="M363.871 258.875H103.246V259.469H363.871V258.875Z" fill="#E8F2FC"/>
<path d="M363.871 216.953H103.246V217.547H363.871V216.953Z" fill="#E8F2FC"/>
<path d="M363.871 175.021H103.246V175.614H363.871V175.021Z" fill="#E8F2FC"/>
<path d="M363.871 133.088H103.246V133.682H363.871V133.088Z" fill="#E8F2FC"/>
<path d="M363.871 91.1548H103.246V91.7487H363.871V91.1548Z" fill="#E8F2FC"/>
<path d="M320.643 60.7123H320.07V284.62H320.643V60.7123Z" fill="#E8F2FC"/>
<path d="M326.279 48.3583H314.443V109.686H326.279V48.3583Z" fill="#1ADEEC"/>
<path d="M327.262 157.677H313.439V185.474H327.262V157.677Z" fill="#1ADEEC"/>
<path d="M190.104 79.0172H189.531V284.62H190.104V79.0172Z" fill="#E8F2FC"/>
<path d="M199.078 135.561V125.377L189.812 120.28L180.547 125.377V135.561L189.812 140.658L199.078 135.561Z" fill="#1AECB4"/>
<path d="M195.547 70.0213H184.078V105.237H195.547V70.0213Z" fill="#4E2680"/>
<path d="M195.676 224.361H183.938V264.588H195.676V224.361Z" fill="#450ACE"/>
<path d="M103.074 87.6343H102.502V284.631H103.074V87.6343Z" fill="#E8F2FC"/>
<path d="M102.785 79.3083L94.9883 92.17H110.582L102.785 79.3083Z" fill="#AA1AEC"/>
<path d="M111.812 167.44H93.7559V201.932H111.812V167.44Z" fill="#A092FF"/>
<path d="M109.263 114.934H96.293V147.31H109.263V114.934Z" fill="#1AAEEC"/>
<path d="M146.584 60.7124H146.012V284.62H146.584V60.7124Z" fill="#E8F2FC"/>
<path d="M160.245 97.9584H132.34V148.671H160.245V97.9584Z" fill="#A5E4FF"/>
<path d="M153.214 42.1165H139.381V79.3084H153.214V42.1165Z" fill="#046087"/>
<path d="M156.607 220.528H136.002V257.687H156.607V220.528Z" fill="#FFC849"/>
<path d="M151.054 175.431C151.054 178.692 148.927 181.327 146.292 181.327C143.657 181.327 141.529 178.681 141.529 175.431C141.529 172.18 143.657 169.535 146.292 169.535C148.927 169.535 151.054 172.18 151.054 175.431Z" fill="#1AAEEC"/>
<path d="M277.135 97.9583H276.562V284.62H277.135V97.9583Z" fill="#E8F2FC"/>
<path d="M287.026 65.1509H266.648V113.833H287.026V65.1509Z" fill="#19F1DF"/>
<path d="M285.341 172.667H268.344V206.176H285.341V172.667Z" fill="#1AAEEC"/>
<path d="M279.909 235.884C279.909 237.493 278.538 238.81 276.842 238.81C275.147 238.81 273.775 237.504 273.775 235.884C273.775 234.264 275.147 232.957 276.842 232.957C278.538 232.957 279.909 234.264 279.909 235.884Z" fill="#1AAEEC"/>
<path d="M232.492 60.7125H231.92V284.62H232.492V60.7125Z" fill="#E8F2FC"/>
<path d="M245.235 205.074H219.166V253.206H245.235V205.074Z" fill="#9CEC1A"/>
<path d="M236.24 86.9652H228.162V95.9392H236.24V86.9652Z" fill="#1AAEEC"/>
<path d="M239.868 60.7124C239.868 64.7404 236.434 68.0125 232.201 68.0125C227.967 68.0125 224.533 64.7404 224.533 60.7124C224.533 56.6843 227.967 53.4122 232.201 53.4122C236.434 53.4122 239.868 56.6843 239.868 60.7124Z" fill="#BB1AEC"/>
<path d="M364.162 79.0166H363.59V284.62H364.162V79.0166Z" fill="#E8F2FC"/>
<path d="M363.871 86.2413L369.983 76.1658H357.77L363.871 86.2413Z" fill="#046087"/>
<path d="M367.585 170.139H360.166V219.62H367.585V170.139Z" fill="#1AAEEC"/>
<path d="M363.871 151.036C368.064 151.036 371.463 146.447 371.463 140.787C371.463 135.128 368.064 130.539 363.871 130.539C359.678 130.539 356.279 135.128 356.279 140.787C356.279 146.447 359.678 151.036 363.871 151.036Z" fill="white"/>
<g clip-path="url(#clip3_815_8588)">
<path d="M201.654 168.465H181.229V188.89H201.654V168.465Z" fill="#0A4259"/>
<path d="M228.773 174.233H212.122C211.65 174.233 211.27 174.614 211.27 175.085C211.27 175.556 211.65 175.937 212.122 175.937H228.218L243.645 210.73C243.783 211.037 244.086 211.237 244.422 211.237H259.742C260.213 211.237 260.594 210.856 260.594 210.384C260.594 209.913 260.213 209.532 259.742 209.532H244.976L229.55 174.738C229.413 174.43 229.11 174.231 228.773 174.231V174.233Z" fill="#737DE6"/>
<path d="M320.534 199.817H266.846V219.465H320.534V199.817Z" fill="#C9C9F5"/>
</g>
</g>
<g clip-path="url(#clip4_815_8588)">
<path d="M897.115 258.875H636.49V259.469H897.115V258.875Z" fill="#E8F2FC"/>
<path d="M897.115 216.953H636.49V217.547H897.115V216.953Z" fill="#E8F2FC"/>
<path d="M897.115 175.021H636.49V175.614H897.115V175.021Z" fill="#E8F2FC"/>
<path d="M897.115 133.088H636.49V133.682H897.115V133.088Z" fill="#E8F2FC"/>
<path d="M897.115 91.1548H636.49V91.7487H897.115V91.1548Z" fill="#E8F2FC"/>
<path d="M853.887 60.7123H853.314V284.62H853.887V60.7123Z" fill="#E8F2FC"/>
<path d="M859.523 48.3583H847.688V109.686H859.523V48.3583Z" fill="#1ADEEC"/>
<path d="M860.506 157.677H846.684V185.474H860.506V157.677Z" fill="#1ADEEC"/>
<path d="M723.348 79.0172H722.775V284.62H723.348V79.0172Z" fill="#E8F2FC"/>
<path d="M732.322 135.561V125.377L723.057 120.28L713.791 125.377V135.561L723.057 140.658L732.322 135.561Z" fill="#ECD01A"/>
<path d="M728.791 70.0213H717.322V105.237H728.791V70.0213Z" fill="#1AAEEC"/>
<path d="M728.92 224.361H717.182V264.588H728.92V224.361Z" fill="#450ACE"/>
<path d="M636.318 87.6343H635.746V284.631H636.318V87.6343Z" fill="#E8F2FC"/>
<path d="M636.029 79.3083L628.232 92.17H643.826L636.029 79.3083Z" fill="#AA1AEC"/>
<path d="M645.056 167.44H627V201.932H645.056V167.44Z" fill="#A092FF"/>
<path d="M642.507 114.934H629.537V147.31H642.507V114.934Z" fill="#1AAEEC"/>
<path d="M679.828 60.7124H679.256V284.62H679.828V60.7124Z" fill="#E8F2FC"/>
<path d="M693.489 97.9584H665.584V148.671H693.489V97.9584Z" fill="#4E2680"/>
<path d="M686.459 42.1165H672.625V79.3084H686.459V42.1165Z" fill="#1AECB4"/>
<path d="M689.851 220.528H669.246V257.687H689.851V220.528Z" fill="#FFC849"/>
<path d="M684.298 175.431C684.298 178.692 682.171 181.327 679.536 181.327C676.901 181.327 674.773 178.681 674.773 175.431C674.773 172.18 676.901 169.535 679.536 169.535C682.171 169.535 684.298 172.18 684.298 175.431Z" fill="#1AAEEC"/>
<path d="M810.379 97.9583H809.807V284.62H810.379V97.9583Z" fill="#E8F2FC"/>
<path d="M820.27 65.1509H799.893V113.833H820.27V65.1509Z" fill="#E2F47C"/>
<path d="M818.586 172.667H801.588V206.176H818.586V172.667Z" fill="#1AAEEC"/>
<path d="M813.153 235.884C813.153 237.493 811.782 238.81 810.086 238.81C808.391 238.81 807.02 237.504 807.02 235.884C807.02 234.264 808.391 232.957 810.086 232.957C811.782 232.957 813.153 234.264 813.153 235.884Z" fill="#1AAEEC"/>
<path d="M765.736 60.7125H765.164V284.62H765.736V60.7125Z" fill="#E8F2FC"/>
<path d="M778.479 205.074H752.41V253.206H778.479V205.074Z" fill="#9CEC1A"/>
<path d="M769.484 86.9652H761.406V95.9392H769.484V86.9652Z" fill="#1AAEEC"/>
<path d="M773.112 60.7124C773.112 64.7404 769.678 68.0125 765.445 68.0125C761.211 68.0125 757.777 64.7404 757.777 60.7124C757.777 56.6843 761.211 53.4122 765.445 53.4122C769.678 53.4122 773.112 56.6843 773.112 60.7124Z" fill="#BB1AEC"/>
<path d="M897.406 79.0166H896.834V284.62H897.406V79.0166Z" fill="#E8F2FC"/>
<path d="M897.115 86.2413L903.227 76.1658H891.014L897.115 86.2413Z" fill="#046087"/>
<path d="M900.829 170.139H893.41V219.62H900.829V170.139Z" fill="#0A4259"/>
<path d="M897.115 151.036C901.308 151.036 904.707 146.447 904.707 140.787C904.707 135.128 901.308 130.539 897.115 130.539C892.922 130.539 889.523 135.128 889.523 140.787C889.523 146.447 892.922 151.036 897.115 151.036Z" fill="#F38484"/>
<g clip-path="url(#clip5_815_8588)">
<path d="M734.898 168.465H714.473V188.89H734.898V168.465Z" fill="#737DE6"/>
<path d="M762.017 174.233H745.366C744.894 174.233 744.514 174.614 744.514 175.085C744.514 175.556 744.894 175.937 745.366 175.937H761.462L776.89 210.73C777.027 211.037 777.33 211.237 777.666 211.237H792.986C793.457 211.237 793.838 210.856 793.838 210.384C793.838 209.913 793.457 209.532 792.986 209.532H778.22L762.794 174.738C762.657 174.43 762.354 174.231 762.017 174.231V174.233Z" fill="#737DE6"/>
</g>
</g>
<g clip-path="url(#clip6_815_8588)">
<path d="M631.96 71.6866C635.308 66.989 633.806 61.611 626.506 60.6715C605.049 57.8746 577.932 73.544 562.058 81.8377C509.218 109.408 473.116 148.824 472.76 149.213L451 129.505C452.587 127.734 490.795 85.9089 548.472 55.8011C564.39 47.4859 582.057 38.9006 600.319 34.6782C600.319 34.6782 628.666 29.3111 639.4 39.1382C649.595 48.4794 644.066 62.4318 631.96 71.6866Z" fill="#46B2E0"/>
</g>
<g clip-path="url(#clip7_815_8588)">
<path d="M331.951 91.466H427.861V279.501H288.553V134.863L288.88 92.0003L331.951 91.466Z" fill="#4C01EB"/>
<path d="M308.638 153.927H405.533C407.997 153.927 409.992 152.945 409.992 151.731V147.605C409.992 146.394 407.994 145.409 405.533 145.409H308.638C306.174 145.409 304.179 146.391 304.179 147.605V151.731C304.179 152.942 306.177 153.927 308.638 153.927Z" fill="#733DE6"/>
<path d="M308.638 180.992H405.533C407.997 180.992 409.992 180.01 409.992 178.795V174.67C409.992 173.459 407.994 172.473 405.533 172.473H308.638C306.174 172.473 304.179 173.455 304.179 174.67V178.795C304.179 180.006 306.177 180.992 308.638 180.992Z" fill="#733DE6"/>
<path d="M308.638 208.057H405.533C407.997 208.057 409.992 207.075 409.992 205.86V201.735C409.992 200.524 407.994 199.538 405.533 199.538H308.638C306.174 199.538 304.179 200.52 304.179 201.735V205.86C304.179 207.071 306.177 208.057 308.638 208.057Z" fill="#733DE6"/>
<path d="M308.638 235.121H405.533C407.997 235.121 409.992 234.139 409.992 232.925V228.799C409.992 227.588 407.994 226.603 405.533 226.603H308.638C306.174 226.603 304.179 227.585 304.179 228.799V232.925C304.179 234.136 306.177 235.121 308.638 235.121Z" fill="white"/>
<path d="M308.638 262.187H405.533C407.997 262.187 409.992 261.205 409.992 259.99V255.864C409.992 254.653 407.994 253.668 405.533 253.668H308.638C306.174 253.668 304.179 254.65 304.179 255.864V259.99C304.179 261.201 306.177 262.187 308.638 262.187Z" fill="white"/>
<path d="M321.661 127.663H332.726C334.378 127.663 335.721 126.321 335.721 124.669V122.57C335.721 120.918 334.378 119.575 332.726 119.575C331.63 119.575 330.738 118.683 330.738 117.587V103.156C330.738 102.878 330.512 102.653 330.235 102.653C329.957 102.653 329.732 102.878 329.732 103.156V117.587C329.732 119.239 331.075 120.582 332.726 120.582C333.823 120.582 334.718 121.473 334.718 122.57V124.669C334.718 125.765 333.826 126.657 332.726 126.657H321.661C320.564 126.657 319.673 125.765 319.673 124.669V122.57C319.673 121.473 320.564 120.582 321.661 120.582C323.312 120.582 324.655 119.239 324.655 117.587V103.156C324.655 102.878 324.43 102.653 324.152 102.653C323.875 102.653 323.649 102.878 323.649 103.156V117.587C323.649 118.683 322.757 119.575 321.657 119.575C320.006 119.575 318.663 120.918 318.663 122.57V124.669C318.663 126.321 320.006 127.663 321.657 127.663H321.661Z" fill="#D3BFFF"/>
<path d="M313.101 88.0653H341.283C341.979 88.0653 342.543 88.6293 342.543 89.3249V105.172C342.543 105.867 341.979 106.431 341.283 106.431H313.101C312.406 106.431 311.842 105.867 311.842 105.172V89.3249C311.842 88.6293 312.406 88.0653 313.101 88.0653Z" fill="#4A6EFC"/>
</g>
<g clip-path="url(#clip8_815_8588)">
<path d="M556.055 196.704C548.679 193.724 543.431 186.488 543.431 178.076V176.175C543.431 167.763 548.679 160.527 556.055 157.547V156.078H425.57C414.522 156.078 405.473 165.117 405.473 176.164V178.065C405.473 189.113 414.511 198.162 425.57 198.162H556.055V196.693V196.704Z" fill="#FDFEFF"/>
<mask id="mask0_815_8588" style="mask-type:luminance" maskUnits="userSpaceOnUse" x="405" y="156" width="152" height="43">
<path d="M556.053 196.704C548.677 193.724 543.429 186.488 543.429 178.076V176.175C543.429 167.763 548.677 160.527 556.053 157.547V156.078H425.568C414.52 156.078 405.471 165.117 405.471 176.164V178.065C405.471 189.112 414.51 198.162 425.568 198.162H556.053V196.693V196.704Z" fill="white"/>
</mask>
<g mask="url(#mask0_815_8588)">
<path d="M586.034 160.128H381.867V162.288H586.034V160.128Z" fill="#E1EFCD"/>
<path d="M586.034 166.607H381.867V168.767H586.034V166.607Z" fill="#E1EFCD"/>
<path d="M586.034 173.087H381.867V175.247H586.034V173.087Z" fill="#E1EFCD"/>
<path d="M586.034 179.566H381.867V181.726H586.034V179.566Z" fill="#E1EFCD"/>
<path d="M586.034 186.046H381.867V188.205H586.034V186.046Z" fill="#E1EFCD"/>
<path d="M586.034 192.525H381.867V194.685H586.034V192.525Z" fill="#E1EFCD"/>
</g>
<path d="M556.056 196.704V193.864H425.571C416.867 193.864 409.783 186.78 409.783 178.076V176.175C409.783 167.471 416.867 160.387 425.571 160.387H556.056V151.78H425.571C412.115 151.78 401.176 162.73 401.176 176.175V178.076C401.176 191.532 412.115 202.471 425.571 202.471H556.056V196.704Z" fill="#FFB570"/>
<path d="M587.688 202.471H389.838C384.471 202.471 380.119 206.823 380.119 212.19V235.97C380.119 241.338 384.471 245.689 389.838 245.689H587.688C593.056 245.689 597.407 241.338 597.407 235.97V212.19C597.407 206.823 593.056 202.471 587.688 202.471Z" fill="#0FD0C7"/>
<path d="M578.002 202.471H568.283V245.689H578.002V202.471Z" fill="#009990"/>
<path d="M561.803 202.471H552.084V245.689H561.803V202.471Z" fill="#009990"/>
<path d="M425.844 202.471H416.125V245.689H425.844V202.471Z" fill="#009990"/>
<path d="M409.645 202.471H399.926V245.689H409.645V202.471Z" fill="#009990"/>
<path d="M400.605 251.455C407.981 254.436 413.23 261.671 413.23 270.084V271.984C413.23 280.397 407.981 287.632 400.605 290.613V292.081H574.287C585.334 292.081 594.373 283.043 594.373 271.984V270.084C594.373 259.036 585.334 249.997 574.287 249.997H400.605V251.466V251.455Z" fill="#FDFEFF"/>
<mask id="mask1_815_8588" style="mask-type:luminance" maskUnits="userSpaceOnUse" x="400" y="249" width="195" height="44">
<path d="M400.605 251.455C407.981 254.436 413.23 261.671 413.23 270.084V271.984C413.23 280.397 407.981 287.632 400.605 290.613V292.081H574.287C585.334 292.081 594.373 283.043 594.373 271.984V270.084C594.373 259.036 585.334 249.997 574.287 249.997H400.605V251.466V251.455Z" fill="white"/>
</mask>
<g mask="url(#mask1_815_8588)">
<path d="M617.992 285.872H370.629V288.032H617.992V285.872Z" fill="#E1EFCD"/>
<path d="M617.992 279.393H370.629V281.552H617.992V279.393Z" fill="#E1EFCD"/>
<path d="M617.992 272.913H370.629V275.073H617.992V272.913Z" fill="#E1EFCD"/>
<path d="M617.992 266.434H370.629V268.594H617.992V266.434Z" fill="#E1EFCD"/>
<path d="M617.992 259.954H370.629V262.114H617.992V259.954Z" fill="#E1EFCD"/>
<path d="M617.992 253.475H370.629V255.635H617.992V253.475Z" fill="#E1EFCD"/>
</g>
<path d="M400.605 251.455V254.296H574.287C582.991 254.296 590.075 261.38 590.075 270.084V271.984C590.075 280.689 582.991 287.773 574.287 287.773H400.605V296.38H574.287C587.742 296.38 598.682 285.429 598.682 271.984V270.084C598.682 256.628 587.742 245.689 574.287 245.689H400.605V251.455Z" fill="#208086"/>
</g>
<g clip-path="url(#clip9_815_8588)">
<path d="M759.08 194.545C751.704 191.564 746.456 184.329 746.456 175.916V174.016C746.456 165.603 751.704 158.368 759.08 155.387V153.919H628.595C617.548 153.919 608.498 162.958 608.498 174.005V175.906C608.498 186.953 617.537 196.003 628.595 196.003H759.08V194.534V194.545Z" fill="#FDFEFF"/>
<mask id="mask2_815_8588" style="mask-type:luminance" maskUnits="userSpaceOnUse" x="608" y="153" width="152" height="44">
<path d="M759.08 194.545C751.704 191.564 746.456 184.329 746.456 175.916V174.016C746.456 165.603 751.704 158.368 759.08 155.387V153.919H628.595C617.548 153.919 608.498 162.958 608.498 174.005V175.906C608.498 186.953 617.537 196.003 628.595 196.003H759.08V194.534V194.545Z" fill="white"/>
</mask>
<g mask="url(#mask2_815_8588)">
<path d="M789.058 157.969H584.891V160.128H789.058V157.969Z" fill="#E1EFCD"/>
<path d="M789.058 164.448H584.891V166.608H789.058V164.448Z" fill="#E1EFCD"/>
<path d="M789.058 170.928H584.891V173.087H789.058V170.928Z" fill="#E1EFCD"/>
<path d="M789.058 177.407H584.891V179.567H789.058V177.407Z" fill="#E1EFCD"/>
<path d="M789.058 183.886H584.891V186.046H789.058V183.886Z" fill="#E1EFCD"/>
<path d="M789.058 190.366H584.891V192.526H789.058V190.366Z" fill="#E1EFCD"/>
</g>
<path d="M759.079 194.545V191.705H628.594C619.89 191.705 612.806 184.62 612.806 175.916V174.016C612.806 165.312 619.89 158.227 628.594 158.227H759.079V149.621H628.594C615.139 149.621 604.199 160.571 604.199 174.016V175.916C604.199 189.372 615.139 200.311 628.594 200.311H759.079V194.545Z" fill="#FFB570"/>
<path d="M790.711 200.311H592.862C587.494 200.311 583.143 204.663 583.143 210.031V233.81C583.143 239.178 587.494 243.529 592.862 243.529H790.711C796.079 243.529 800.43 239.178 800.43 233.81V210.031C800.43 204.663 796.079 200.311 790.711 200.311Z" fill="#0FD0C7"/>
<path d="M781.026 200.311H771.307V243.529H781.026V200.311Z" fill="#009990"/>
<path d="M764.827 200.311H755.107V243.529H764.827V200.311Z" fill="#009990"/>
<path d="M628.866 200.311H619.146V243.529H628.866V200.311Z" fill="#009990"/>
<path d="M612.666 200.311H602.947V243.529H612.666V200.311Z" fill="#009990"/>
<path d="M603.629 249.296C611.005 252.277 616.253 259.512 616.253 267.924V269.825C616.253 278.237 611.005 285.473 603.629 288.453V289.922H777.31C788.358 289.922 797.396 280.883 797.396 269.825V267.924C797.396 256.877 788.358 247.838 777.31 247.838H603.629V249.307V249.296Z" fill="#FDFEFF"/>
<mask id="mask3_815_8588" style="mask-type:luminance" maskUnits="userSpaceOnUse" x="603" y="247" width="195" height="43">
<path d="M603.631 249.296C611.007 252.276 616.255 259.512 616.255 267.924V269.825C616.255 278.237 611.007 285.473 603.631 288.453V289.922H777.312C788.36 289.922 797.398 280.883 797.398 269.825V267.924C797.398 256.877 788.36 247.838 777.312 247.838H603.631V249.307V249.296Z" fill="white"/>
</mask>
<g mask="url(#mask3_815_8588)">
<path d="M821.014 283.713H573.65V285.872H821.014V283.713Z" fill="#E1EFCD"/>
<path d="M821.014 277.233H573.65V279.393H821.014V277.233Z" fill="#E1EFCD"/>
<path d="M821.014 270.754H573.65V272.913H821.014V270.754Z" fill="#E1EFCD"/>
<path d="M821.014 264.274H573.65V266.434H821.014V264.274Z" fill="#E1EFCD"/>
<path d="M821.014 257.795H573.65V259.955H821.014V257.795Z" fill="#E1EFCD"/>
<path d="M821.014 251.315H573.65V253.475H821.014V251.315Z" fill="#E1EFCD"/>
</g>
<path d="M603.629 249.296V252.136H777.31C786.014 252.136 793.098 259.22 793.098 267.924V269.825C793.098 278.529 786.014 285.613 777.31 285.613H603.629V294.22H777.31C790.766 294.22 801.705 283.27 801.705 269.825V267.924C801.705 254.469 790.766 243.529 777.31 243.529H603.629V249.296Z" fill="#208086"/>
</g>
<g clip-path="url(#clip10_815_8588)">
<path d="M414.342 274.566H232.583C229.5 274.566 227 277.065 227 280.149V293.82C227 296.904 229.5 299.404 232.583 299.404H414.342C417.426 299.404 419.925 296.904 419.925 293.82V280.149C419.925 277.065 417.426 274.566 414.342 274.566Z" fill="#D92D65"/>
<path d="M408.759 274.566H403.176V299.404H408.759V274.566Z" fill="#A50F45"/>
<path d="M399.45 274.566H393.867V299.404H399.45V274.566Z" fill="#A50F45"/>
<path d="M253.275 274.566H247.691V299.404H253.275V274.566Z" fill="#A50F45"/>
<path d="M243.966 274.566H238.383V299.404H243.966V274.566Z" fill="#A50F45"/>
<path d="M370.032 281.348H277.527V289.458H370.032V281.348Z" fill="#A50F45"/>
<path d="M388.424 253.27H232.583C229.5 253.27 227 255.77 227 258.853V269.285C227 272.368 229.5 274.868 232.583 274.868H388.424C391.508 274.868 394.007 272.368 394.007 269.285V258.853C394.007 255.77 391.508 253.27 388.424 253.27Z" fill="#FCC447"/>
<path d="M382.841 253.27H377.258V274.868H382.841V253.27Z" fill="#E0A122"/>
<path d="M373.532 253.27H367.949V274.868H373.532V253.27Z" fill="#E0A122"/>
<path d="M253.275 253.27H247.691V274.868H253.275V253.27Z" fill="#E0A122"/>
<path d="M243.966 253.27H238.383V274.868H243.966V253.27Z" fill="#E0A122"/>
<path d="M344.114 260.052H277.527V264.922H344.114V260.052Z" fill="#E0A122"/>
</g>
<path d="M278.338 179.286C298.532 185.29 310.033 206.532 304.029 226.726C298.025 246.92 276.783 258.421 256.589 252.417C236.405 246.423 224.894 225.182 230.909 204.987C236.902 184.793 258.144 173.281 278.338 179.286Z" fill="#7B85FF"/>
<path d="M276.319 186.089C292.766 190.981 302.128 208.27 297.237 224.717C292.345 241.164 275.055 250.527 258.608 245.635C242.161 240.743 232.799 223.454 237.691 207.007C242.582 190.56 259.883 181.197 276.319 186.089Z" fill="#C8EDE6"/>
<path d="M300.121 221.882L298.111 228.641L345.768 242.812L347.778 236.053L300.121 221.882Z" fill="#7B85FF"/>
<path d="M315.218 221.55L310.57 237.18L368.899 254.525L373.547 238.894L315.218 221.55Z" fill="#D1396C"/>
<path d="M246.806 211.229C250.92 198.638 263.62 191.759 276.417 195.193C278.069 195.635 278.836 193.087 277.173 192.644C262.961 188.832 248.825 196.489 244.257 210.473C243.728 212.104 246.277 212.86 246.806 211.229Z" fill="#FDFEFF"/>
<path d="M397.046 104.264H612.058C615.025 104.264 617.438 106.678 617.438 109.645V248.1H391.666V109.645C391.666 106.678 394.079 104.264 397.046 104.264Z" fill="#273883"/>
<path d="M397.046 104.264H612.058C615.025 104.264 617.438 106.678 617.438 109.645V119.246H391.666V109.645C391.666 106.678 394.079 104.264 397.046 104.264Z" fill="#4A6EFC"/>
<path d="M580.132 236.013H425.705V129.102H580.132V236.013ZM427.961 234.807H577.895V130.308H427.961V234.797V234.807Z" fill="#0BEF79"/>
<path d="M581.416 179.797H575.336V185.877H581.416V179.797Z" fill="white"/>
<path d="M582.023 186.483H574.73V179.191H582.023V186.483ZM575.942 185.281H580.821V180.403H575.942V185.281Z" fill="#0BEF79"/>
<path d="M581.416 232.46H575.336V238.541H581.416V232.46Z" fill="white"/>
<path d="M582.023 239.147H574.73V231.855H582.023V239.147ZM575.942 237.945H580.821V233.066H575.942V237.945Z" fill="#0BEF79"/>
<path d="M581.416 127.331H575.336V133.411H581.416V127.331Z" fill="white"/>
<path d="M582.023 134.017H574.73V126.725H582.023V134.017ZM575.942 132.816H580.821V127.937H575.942V132.816Z" fill="#0BEF79"/>
<path d="M429.432 127.331H423.352V133.411H429.432V127.331Z" fill="white"/>
<path d="M430.038 134.017H422.746V126.725H430.038V134.017ZM423.958 132.816H428.837V127.937H423.958V132.816Z" fill="#0BEF79"/>
<path d="M429.943 179.797H423.863V185.877H429.943V179.797Z" fill="white"/>
<path d="M430.55 186.483H423.258V179.191H430.55V186.483ZM424.47 185.282H429.348V180.403H424.47V185.282Z" fill="#0BEF79"/>
<path d="M429.151 232.084H423.07V238.164H429.151V232.084Z" fill="white"/>
<path d="M429.757 238.77H422.465V231.478H429.757V238.77ZM423.677 237.569H428.556V232.69H423.677V237.569Z" fill="#0BEF79"/>
<path d="M499.604 127.53V133.61H505.684V127.53H499.604Z" fill="white"/>
<path d="M506.29 134.206H498.998V126.914H506.29V134.206ZM500.21 133.004H505.089V128.126H500.21V133.004Z" fill="#0BEF79"/>
<path d="M499.604 231.332V237.412H505.684V231.332H499.604Z" fill="white"/>
<path d="M506.29 238.008H498.998V230.716H506.29V238.008ZM500.21 236.806H505.089V231.928H500.21V236.806Z" fill="#0BEF79"/>
<path d="M530.143 167.438C530.143 152.457 518.233 140.255 503.367 139.785C487.999 139.304 474.888 151.914 474.815 167.292C474.773 174.793 477.719 181.605 482.535 186.609C487.017 191.268 489.671 197.39 489.671 203.857V204.943H515.297V203.867C515.297 197.505 517.752 191.362 522.213 186.828C527.124 181.834 530.153 174.992 530.153 167.438H530.143Z" fill="url(#paint0_linear_815_8588)"/>
<path d="M489.732 204.619H515.234V219.611C515.234 223.194 512.329 226.099 508.746 226.099H496.231C492.647 226.099 489.743 223.194 489.743 219.611V204.619H489.732Z" fill="#0B334C"/>
<path d="M514.148 217.971L489.974 213.071C488.992 212.873 488.281 212.006 488.281 211.003C488.281 209.665 489.504 208.662 490.82 208.934L514.994 213.834C515.976 214.032 516.687 214.899 516.687 215.902C516.687 217.24 515.465 218.242 514.148 217.971Z" fill="#114D73"/>
<path d="M514.148 213.656L489.974 208.756C488.992 208.558 488.281 207.691 488.281 206.688C488.281 205.351 489.504 204.348 490.82 204.619L514.994 209.519C515.976 209.718 516.687 210.585 516.687 211.588C516.687 212.925 515.465 213.928 514.148 213.656Z" fill="#0B334C"/>
<path d="M514.148 222.286L489.974 217.386C488.992 217.187 488.281 216.32 488.281 215.317C488.281 213.98 489.504 212.977 490.82 213.249L514.994 218.148C515.976 218.347 516.687 219.214 516.687 220.217C516.687 221.554 515.465 222.557 514.148 222.286Z" fill="#0B334C"/>
<path d="M505.342 207.085L503.922 206.897C505.144 197.411 506.606 187.852 508.299 178.387C506.648 179.369 504.684 180.027 502.49 180.33C500.944 180.539 498.949 180.612 496.943 180.09C499.617 188.249 501.477 196.69 502.459 205.215L501.028 205.382C500.014 196.586 498.061 187.883 495.23 179.494C494.749 179.275 494.268 179.024 493.809 178.721C492.273 177.708 491.072 176.141 490.507 174.417C490.194 173.466 490.612 172.495 491.531 172.066C492.451 171.638 493.464 171.931 493.997 172.787C494.739 173.957 495.261 175.284 495.71 176.538C495.94 177.165 496.159 177.791 496.368 178.418C498.071 179.035 500.108 179.212 502.292 178.92C503.995 178.69 506.512 178.074 508.644 176.465C509.061 174.187 509.49 171.91 509.929 169.643C510.033 169.12 510.169 168.399 510.67 167.846C511.005 167.47 511.506 167.24 512.008 167.219C512.425 167.198 512.822 167.355 513.115 167.626C513.501 168.003 513.606 168.514 513.648 168.911C513.794 170.322 513.648 171.607 513.199 172.735C512.519 174.49 511.423 176.005 509.981 177.217C508.184 187.131 506.638 197.15 505.353 207.096L505.342 207.085ZM492.377 173.32C492.273 173.32 492.179 173.351 492.137 173.372C492.012 173.425 491.751 173.602 491.876 173.978C492.336 175.368 493.286 176.632 494.519 177.478C494.467 177.332 494.415 177.175 494.362 177.029C493.934 175.848 493.454 174.616 492.785 173.56C492.67 173.372 492.513 173.32 492.388 173.32H492.377ZM512.06 168.65C511.987 168.65 511.83 168.692 511.736 168.796C511.527 169.037 511.433 169.423 511.339 169.904C511.026 171.502 510.723 173.111 510.42 174.72C510.984 174.01 511.464 173.174 511.84 172.213C512.196 171.293 512.311 170.238 512.196 169.058C512.164 168.744 512.112 168.671 512.091 168.65C512.091 168.65 512.07 168.65 512.049 168.65H512.06Z" fill="#0B334C"/>
<path d="M491.246 204.567L515.222 209.623" stroke="white" stroke-width="0.32386" stroke-linecap="round" stroke-linejoin="round"/>
<path d="M489.795 217.239L514.314 222.442" stroke="white" stroke-width="0.32386" stroke-linecap="round" stroke-linejoin="round"/>
<path d="M539.097 261.447C539.035 260.799 538.878 259.316 538.418 258.866C538.126 258.574 537.635 258.156 537.186 258.229C536.423 258.355 536.893 259.086 537.05 259.41C537.551 260.402 536.966 262.063 535.566 261.217C534.031 260.287 533.675 258.334 532.934 256.861C532.86 256.714 532.725 256.411 532.547 256.359C532.025 256.223 531.743 256.62 531.701 256.965C531.638 257.571 532.077 258.804 532.255 259.347C532.453 259.943 533.153 260.695 532.369 260.486C532.171 260.434 531.889 260.068 531.826 259.932C531.617 259.535 531.429 259.117 531.262 258.71C531.011 258.104 531.231 257.31 530.656 256.871C530.27 256.579 529.82 257.09 529.737 257.467C529.559 258.281 529.967 259.452 530.353 260.486C530.395 260.601 531.429 262.022 531.22 261.917C530.52 261.562 530.176 260.831 529.831 260.183C529.653 259.849 529.549 258.678 528.964 258.804C528.076 258.981 528.494 260.601 528.682 261.05C528.891 261.531 529.235 261.969 529.57 262.377C529.705 262.544 530.364 263.16 530.102 263.369C529.81 263.599 529.34 262.544 529.225 262.387C528.995 262.095 528.535 261.52 528.097 261.917C527.72 262.262 528.117 262.92 528.274 263.244C528.661 264.017 529.131 264.769 529.695 265.427C530.813 266.733 532.359 268.676 534.448 268.321C535.159 268.206 535.702 267.987 536.235 267.444C536.601 267.067 537.029 266.566 537.342 266.159C537.677 265.72 537.927 265.532 538.283 265.114C538.69 264.623 538.972 264.121 539.076 263.568C539.285 262.533 539.191 262.46 539.097 261.436V261.447Z" fill="#FBD9C6"/>
<path d="M567.67 276.804C558.027 276.804 546.41 274.558 533.811 268.603L536.485 262.941C557.076 272.677 574.795 271.56 583.706 267.652C587.08 266.169 589.347 264.247 589.932 262.377C591.781 256.432 584.761 249.527 581.909 247.364L585.68 242.349C586.245 242.778 599.46 252.859 595.929 264.236C594.79 267.893 591.353 271.152 586.245 273.398C581.585 275.446 575.244 276.825 567.69 276.825L567.67 276.804Z" fill="#A75CD9"/>
<path d="M576.203 253.799C576.997 244 575.305 233.208 577.112 224.224C580.821 205.722 599.281 199.527 614.084 201.961C623.466 203.507 633.411 208.25 638.353 217.694C644.057 228.591 642.427 249.422 638.927 260.956C629.838 290.96 602.864 291.796 579.682 286.509C574.239 285.266 567.647 280.032 563.395 276.094C565.787 276.491 568.242 276.491 570.645 276.094C566.968 275.059 563.666 272.531 561.504 269.063C563.907 270.097 566.717 269.251 568.88 267.6C573.476 264.09 575.712 259.807 576.203 253.799Z" fill="url(#paint1_linear_815_8588)"/>
<path d="M579.798 233.26C580.111 232.32 579.443 234.922 579.213 233.929C576.831 223.304 583.663 214.79 592.564 210.789C600.964 207.017 610.805 206.631 619.507 209.754C623.55 211.207 627.364 213.421 630.529 216.336C635.481 220.881 638.511 226.062 638.166 232.759C637.633 243.258 634.771 244.042 634.656 245.901C634.656 245.901 639.002 226.438 620.615 217.663C605.957 210.674 591.488 211.551 580.519 229.865L579.787 233.25L579.798 233.26Z" fill="#5932CF"/>
<path d="M628.032 306.15L626.716 306.86C626.402 306.516 615.537 298.973 618.201 285.454L625.076 285.151C623.07 295.316 627.865 303.204 629.683 305.126L628.032 306.15Z" fill="#4AD5C2"/>
<path d="M590.894 306.516L591.646 306.233L592.9 306.025L594.247 306.077C594.091 305.774 591.886 290.782 596.285 281.401L589.588 278.799C583.738 291.273 590.674 306.108 590.894 306.516Z" fill="#4AD5C2"/>
<path d="M624.357 288.505L589.066 283.699L587.51 273.941L626.415 280.993L624.357 288.505Z" fill="#4AD5C2"/>
<path d="M585.45 309.503C585.45 309.503 585.45 309.555 585.46 309.576L595.427 308.124C595.427 308.124 595.427 308.072 595.427 308.051C595.406 307.905 595.375 307.758 595.333 307.623L585.408 309.075C585.408 309.221 585.429 309.367 585.45 309.514V309.503Z" fill="white"/>
<path d="M589.807 304.499C587.425 304.844 585.639 306.578 585.43 308.563L595.166 307.142C594.393 305.293 592.189 304.144 589.807 304.499Z" fill="white"/>
<path d="M585.429 308.563C585.408 308.73 585.398 308.897 585.408 309.065L595.333 307.612C595.291 307.445 595.229 307.289 595.166 307.142L585.429 308.563Z" fill="#5932CF"/>
<path d="M590.485 306.087C590.516 306.327 590.349 306.557 590.109 306.589C589.868 306.62 589.639 306.453 589.607 306.212C589.576 305.972 589.743 305.742 589.983 305.711C590.224 305.68 590.454 305.847 590.485 306.087Z" fill="#221F1F"/>
<path d="M590.475 305.126C591.133 303.611 591.154 303.235 592.971 303.83C594.215 304.238 594.528 304.666 593.734 305.638C592.877 305.387 592 305.095 591.112 305.032L590.485 305.126H590.475Z" fill="white"/>
<path d="M592.366 305.324C592.397 305.512 592.261 305.69 592.073 305.721C591.885 305.753 591.708 305.617 591.676 305.429C591.645 305.241 591.781 305.063 591.969 305.032C592.157 305 592.335 305.136 592.366 305.324Z" fill="#221F1F"/>
<path d="M621.978 310.406C621.978 310.406 621.999 310.447 622.009 310.468L631.171 306.29C631.171 306.29 631.15 306.248 631.14 306.216C631.077 306.081 631.004 305.955 630.931 305.83L621.811 309.998C621.852 310.134 621.905 310.27 621.967 310.406H621.978Z" fill="white"/>
<path d="M624.778 304.388C622.585 305.391 621.352 307.543 621.707 309.518L630.66 305.433C629.406 303.876 626.972 303.385 624.778 304.388Z" fill="white"/>
<path d="M621.708 309.507C621.739 309.675 621.77 309.831 621.823 309.998L630.943 305.83C630.859 305.684 630.755 305.548 630.65 305.423L621.697 309.507H621.708Z" fill="#5932CF"/>
<path d="M625.865 305.715C625.969 305.935 625.865 306.206 625.645 306.3C625.426 306.405 625.154 306.3 625.06 306.081C624.956 305.862 625.06 305.59 625.28 305.496C625.499 305.391 625.771 305.496 625.865 305.715Z" fill="#221F1F"/>
<path d="M625.582 304.796C625.791 303.155 625.707 302.79 627.619 302.853C628.925 302.894 629.343 303.218 628.852 304.378C627.964 304.378 627.034 304.336 626.167 304.535L625.592 304.796H625.582Z" fill="white"/>
<path d="M627.453 304.461C627.537 304.639 627.453 304.848 627.275 304.921C627.098 305.005 626.889 304.921 626.816 304.743C626.732 304.566 626.816 304.357 626.993 304.284C627.171 304.2 627.38 304.284 627.453 304.461Z" fill="#221F1F"/>
<path d="M633.37 244.742C633.412 243.937 633.423 243.258 633.402 242.464C632.952 228.643 621.262 218.948 607.472 218.196C595.844 217.559 582.42 223.858 580.32 232.696C579.787 234.963 579.223 239.069 580.32 241.232C581.532 243.634 588.751 247.625 595.029 248.492C598.978 249.036 600.201 249.788 607.545 250.185C622.181 250.979 634.164 251.031 633.381 244.731L633.37 244.742Z" fill="#FCDBC7"/>
<path d="M620.176 238.014C620.061 237.136 619.257 236.52 618.379 236.635C617.502 236.75 616.885 237.554 617 238.432C617.115 239.309 617.919 239.926 618.797 239.811C619.675 239.696 620.291 238.892 620.176 238.014Z" fill="#426932"/>
<path d="M584.27 279.76L626.424 282.832L634.917 246.403C634.917 246.403 628.137 249.297 623.593 249.641C611.338 250.55 604.683 250.906 593.139 247.218L586.599 244.71L579.84 240.939L579.266 241.973L584.27 279.771V279.76Z" fill="#A75CD9"/>
<path d="M593.63 235.12C593.515 234.295 592.69 233.72 591.802 233.825C590.914 233.929 590.287 234.681 590.412 235.496C590.538 236.322 591.353 236.896 592.241 236.792C593.129 236.687 593.756 235.935 593.63 235.12Z" fill="#426932"/>
<path d="M616.103 234.911C616.103 234.911 595.961 234.201 595.805 222.218L597.978 221.392C597.978 221.392 596.452 230.91 611.893 233.689C627.334 236.468 616.093 234.911 616.093 234.911H616.103Z" fill="#935123"/>
<path d="M627.908 219.303C633.789 224.506 636.944 230.544 636.453 238.296C636.203 242.318 635.586 244.554 633.998 247.291C633.466 248.21 632.254 249.6 632.202 248.012C632.139 245.755 631.502 242.475 628.744 239.926C626.947 238.265 624.575 237.398 622.245 236.635C613.721 233.877 602.459 230.314 596.608 223.524C592.764 229.228 580.844 241.409 579.976 240.803C579.935 240.772 579.736 240.448 579.517 239.926C579.088 238.933 578.18 231.014 579.736 227.139C586.6 209.974 613.836 206.84 627.918 219.293L627.908 219.303Z" fill="url(#paint2_linear_815_8588)"/>
<path d="M602.135 249.725L605.948 250.362C604.778 257.352 604.799 260.465 605.029 262.93L601.142 263.014C600.902 260.11 600.965 256.735 602.135 249.725Z" fill="#5932CF"/>
<path d="M603.461 255.711C603.975 255.711 604.391 255.295 604.391 254.782C604.391 254.268 603.975 253.852 603.461 253.852C602.948 253.852 602.531 254.268 602.531 254.782C602.531 255.295 602.948 255.711 603.461 255.711Z" fill="white"/>
<path d="M603.096 259.744C603.609 259.744 604.026 259.328 604.026 258.814C604.026 258.301 603.609 257.884 603.096 257.884C602.582 257.884 602.166 258.301 602.166 258.814C602.166 259.328 602.582 259.744 603.096 259.744Z" fill="white"/>
<path d="M579.309 241.43L579.465 239.988C579.465 239.988 596.557 252.797 624.033 249.057C630.05 248.2 634.918 245.588 634.918 245.588L636.402 247.009L610.305 256.756L604.068 250.655L597.382 255.053L579.309 241.441V241.43Z" fill="#F2F2F2"/>
<path d="M574.771 227.675L526.133 248.221L546.678 296.859L595.317 276.314L574.771 227.675Z" fill="white"/>
<path d="M572.033 234.377L532.826 250.939L549.388 290.146L588.595 273.584L572.033 234.377Z" fill="#91B0FF"/>
<path d="M585.605 266.461L588.603 273.565L549.395 290.135L544.893 279.468C546.763 276.01 549.625 273.043 553.282 271.633C556.363 270.442 559.759 270.442 563.06 270.452C568.785 270.473 578.678 267.36 585.605 266.461Z" fill="#462397"/>
<path d="M566.447 250.185C567.429 252.515 566.342 255.2 564.012 256.182C561.683 257.164 558.998 256.077 558.016 253.747C557.034 251.418 558.12 248.733 560.45 247.751C562.78 246.769 565.465 247.855 566.447 250.185Z" fill="#FCCD0F"/>
<path d="M600.539 240.855C601.124 241.378 602.513 242.38 604.164 242.945C606.306 243.676 607.831 243.519 608.312 243.258C608.541 243.133 608.677 242.788 608.761 242.454C608.803 242.506 608.855 242.558 608.897 242.621C609.92 243.948 608.238 245.452 606.985 245.912C605.731 246.371 602.503 245.964 600.769 244.616C599.254 243.446 599.358 241.503 600.539 240.866V240.855Z" fill="#BD2A1D"/>
<path d="M608.321 243.258C607.841 243.53 606.305 243.687 604.174 242.945C602.534 242.381 601.144 241.378 600.549 240.855C600.726 240.761 600.935 240.688 601.165 240.657C602.388 240.49 604.184 241.775 605.605 242.036C606.953 242.287 607.883 241.472 608.781 242.443C608.698 242.778 608.562 243.122 608.332 243.248L608.321 243.258Z" fill="#F6F6F7"/>
<path d="M577.698 270.807C576.998 270.473 574.647 269.47 574.522 268.708C574.355 267.746 577.019 269.272 578.721 269.616C577.687 269.658 578.721 269.616 575.775 267.976C574.219 267.109 573.456 266.744 573.508 265.709C574.187 265.657 576.632 266.764 578.042 267.13C577.113 266.691 574.699 265.49 573.843 264.863C573.519 264.623 573.498 263.85 574.24 264.017C574.626 264.1 575.326 264.257 575.702 264.372C576.81 264.706 578.293 265.5 579.401 265.835C578.732 265.479 574.887 263.421 576.089 262.909C576.35 262.795 576.642 262.847 576.925 262.909C578.324 263.212 579.181 263.735 581.678 264.581C582.576 264.884 583.82 265.448 583.841 265.427C584.039 265.281 582.869 264.978 582.744 263.16C582.702 262.523 583.297 261.76 583.841 262.115C584.091 262.283 584.164 262.606 584.269 262.889C584.864 264.665 586.536 265.365 587.121 267.13C587.57 268.478 587.319 270.546 586.358 271.591C584.29 273.827 580.309 272.072 577.708 270.818L577.698 270.807Z" fill="#FCDBC7"/>
<path d="M591.563 267.214C591.563 267.214 614.798 273.252 629.768 269.167L627.031 280.001C627.031 280.001 607.213 281.244 594.551 276.595L595.324 276.292L591.553 267.214H591.563Z" fill="#7F46A6"/>
<path d="M620.259 279.196C610.042 279.196 597.548 276.95 584.363 272.562L586.348 266.618C611.484 274.996 628.325 273.785 635.105 270.212C637.048 269.188 638.229 267.976 638.615 266.607C640.37 260.454 632.618 251.919 629.944 249.714L635.617 247.218C636.139 247.646 647.892 256.944 644.643 268.331C643.776 271.361 641.488 273.931 638.03 275.759C633.653 278.068 627.541 279.207 620.259 279.207V279.196Z" fill="#A75CD9"/>
<path d="M426.797 242.992H442.029C443.366 242.992 444.452 244.078 444.452 245.415V263.907C444.452 265.296 443.324 266.414 441.945 266.414H426.88C425.491 266.414 424.373 265.286 424.373 263.907V245.415C424.373 244.078 425.46 242.992 426.797 242.992Z" fill="#0F8AAC"/>
<path d="M424.102 243.869V244.402C424.102 244.924 424.509 245.363 425.042 245.374C425.616 245.394 426.191 245.468 426.661 245.718C427.706 246.293 428.416 247.411 429.555 247.787C430.694 248.163 431.947 247.672 432.95 247.003C434.193 246.178 435.27 245.06 436.805 244.757C437.484 244.621 438.216 244.705 438.79 245.102C439.992 245.917 439.804 247.359 439.845 248.633C439.877 249.427 440.012 250.221 440.263 250.973C440.472 251.61 440.775 252.248 441.329 252.624C441.872 253 442.718 253.031 443.157 252.53C443.418 252.237 443.491 251.819 443.533 251.433C443.648 250.44 443.659 249.437 443.554 248.455C443.502 247.912 443.408 247.359 443.523 246.826C443.606 246.45 443.815 246.084 444.129 245.865C444.4 245.677 444.567 245.384 444.567 245.05V243.869C444.567 243.18 444.003 242.616 443.314 242.616H425.366C424.676 242.616 424.112 243.18 424.112 243.869H424.102Z" fill="#FCCD0F"/>
<path d="M359.088 266.352H354.439V309.864H359.088V266.352Z" fill="#078871"/>
<path d="M341.799 266.352H337.15V309.864H341.799V266.352Z" fill="#10E8C1"/>
<path d="M434.129 266.352H429.48V309.864H434.129V266.352Z" fill="#078871"/>
<path d="M451.418 266.352H446.77V309.864H451.418V266.352Z" fill="#10E8C1"/>
<path d="M451.419 266.362H337.264V271.011H451.419V266.362Z" fill="#10E8C1"/>
<path d="M450.511 215.985C444.326 219.872 436.773 221.282 428.425 218.211C428.248 218.148 427.725 217.949 426.984 217.667C420.047 215.056 412.232 212.454 412.232 212.454L414.207 207.252C415.293 206.555 420.35 207.91 429.376 211.316C430.087 211.587 430.598 211.775 430.766 211.838C445.381 217.208 454.971 204.17 458.335 195.624C460.999 188.833 461.543 181.165 459.892 173.424L466.536 172.014C468.459 181.05 467.811 190.077 464.656 198.11C461.846 205.267 456.915 211.963 450.511 215.996V215.985Z" fill="#057CFF"/>
<path d="M372.41 251.485L409.278 248.768L409.706 240.244L367.98 241.957L372.41 251.485Z" fill="#013E6F"/>
<path d="M350.752 264.063L352.476 259.79L352.361 263.3L352.215 260.448C352.486 260.448 359.757 264.387 366.172 261.127C372.377 257.972 371.583 248.842 368.669 243.879L379.617 245.258C379.795 259.09 373.349 263.906 370.946 264.867C360.948 268.879 351.044 264.063 350.773 264.053L350.752 264.063Z" fill="#013E6F"/>
<path d="M344.914 265.411C344.914 265.411 344.882 265.369 344.861 265.348L352.582 257.857C352.582 257.857 352.624 257.889 352.644 257.91C352.749 258.024 352.853 258.139 352.947 258.265L345.258 265.724C345.133 265.63 345.028 265.525 344.914 265.411Z" fill="white"/>
<path d="M351.986 264.982C350.137 266.779 347.515 267.155 345.697 266.037L353.24 258.725C354.306 260.584 353.836 263.185 351.986 264.982Z" fill="white"/>
<path d="M345.697 266.037C345.54 265.943 345.394 265.839 345.258 265.734L352.947 258.275C353.051 258.421 353.156 258.568 353.239 258.724L345.697 266.037Z" fill="#B2202B"/>
<path d="M351.087 263.373C350.909 263.185 350.606 263.175 350.418 263.363C350.23 263.54 350.23 263.843 350.418 264.031C350.596 264.22 350.899 264.22 351.087 264.031C351.275 263.854 351.275 263.551 351.097 263.363L351.087 263.373Z" fill="#211E1F"/>
<path d="M351.891 264.011C353.594 264.439 353.928 264.669 354.617 262.746C355.087 261.441 354.92 260.887 353.583 260.929C353.238 261.806 352.914 262.757 352.382 263.54L351.891 264.011Z" fill="white"/>
<path d="M352.947 262.276C352.8 262.13 352.57 262.13 352.424 262.276C352.278 262.423 352.267 262.652 352.424 262.799C352.57 262.945 352.8 262.945 352.947 262.799C353.093 262.652 353.103 262.423 352.947 262.276Z" fill="#211E1F"/>
<path d="M419.767 264.993H415.233C415.16 264.68 423.507 253.418 416.978 250.398C409.968 247.16 397.264 250.127 383.422 250.586L385.438 244.235C404.786 237.58 417.908 242.124 420.185 243.441C432.335 250.461 419.715 264.68 419.778 264.993H419.767Z" fill="#013E6F"/>
<path d="M425.572 266.038C425.572 266.038 425.572 266.09 425.572 266.111L414.822 266.226C414.822 266.226 414.822 266.174 414.822 266.153C414.822 265.996 414.822 265.839 414.843 265.683L425.551 265.568C425.572 265.724 425.583 265.881 425.583 266.038H425.572Z" fill="white"/>
<path d="M420.151 261.483C422.721 261.451 424.894 262.987 425.438 265.045L414.928 265.15C415.44 263.071 417.571 261.504 420.141 261.472L420.151 261.483Z" fill="white"/>
<path d="M425.436 265.045C425.478 265.212 425.519 265.39 425.54 265.568L414.832 265.683C414.853 265.505 414.884 265.327 414.926 265.16L425.436 265.056V265.045Z" fill="#B2202B"/>
<path d="M419.701 263.269C419.701 263.53 419.921 263.739 420.182 263.739C420.443 263.739 420.652 263.52 420.652 263.259C420.652 262.997 420.432 262.788 420.171 262.788C419.91 262.788 419.701 263.008 419.701 263.269Z" fill="#211E1F"/>
<path d="M419.554 262.245C418.614 260.762 418.52 260.365 416.713 261.284C415.47 261.911 415.208 262.423 416.211 263.321C417.068 262.924 417.946 262.454 418.886 262.256H419.565L419.554 262.245Z" fill="white"/>
<path d="M417.59 262.778C417.59 262.987 417.757 263.154 417.966 263.144C418.175 263.144 418.342 262.977 418.332 262.768C418.332 262.559 418.165 262.402 417.956 262.402C417.747 262.402 417.58 262.569 417.59 262.778Z" fill="#211E1F"/>
<path d="M359.215 208.474C359.215 207.607 359.34 206.019 359.413 205.173C360.688 190.463 372.807 182.764 387.547 182.764C403.155 182.764 419.369 191.612 415.034 206.959C413.832 211.201 404.869 212.203 399.791 216.664C394.683 221.146 396.709 217.709 388.864 217.709C373.214 217.709 359.204 220.049 359.225 208.474H359.215Z" fill="#FBD9C6"/>
<path d="M373.778 201.192C373.955 200.263 374.843 199.657 375.773 199.824C376.703 200.001 377.309 200.889 377.142 201.819C376.964 202.749 376.076 203.355 375.146 203.188C374.216 203.01 373.611 202.122 373.778 201.192Z" fill="#3E2414"/>
<path d="M390.86 209.958C391.351 209.498 391.644 208.965 391.581 208.37C391.508 207.565 390.776 207.001 389.941 207.116C388.739 207.273 385.177 207.461 383.098 206.521C381.353 205.737 380.873 207.597 381.249 208.714C382.502 212.496 388.384 212.277 390.85 209.958H390.86Z" fill="#8C291D"/>
<path d="M395.581 172.641C404.638 175.388 411.575 179.609 421.322 177.185C419.912 182.628 418 188.698 412.986 191.226C414.887 193.033 416.12 194.841 416.412 197.494C416.569 198.926 416.506 200.378 416.297 201.798C416.151 202.791 415.127 204.849 415.315 205.737C414.323 200.9 411.105 197.327 406.467 195.645C402.852 194.329 398.924 194.183 395.079 194.151C395.685 194.705 396.281 195.269 396.887 195.823C391.454 195.76 386.022 195.165 380.704 194.036C378.239 193.514 375.951 192.866 373.663 191.905C372.942 191.602 369.317 190.839 369.233 189.91C369.902 197.902 362.307 211.828 361.168 211.556C360.991 211.514 359.423 212.381 357.533 209.686C354.357 205.152 353.479 199.291 354.994 194.517C356.362 190.171 359.225 186.055 363.299 183.871C365.483 182.701 365.922 184.331 367.301 182.262C369.108 179.546 372.618 176.516 375.439 174.981C381.54 171.669 388.916 170.614 395.591 172.641H395.581Z" fill="#663115"/>
<path d="M389.73 198.278C389.73 198.278 374.697 193.367 372.117 188.489C368.868 182.325 369.839 190.348 369.839 190.348C369.839 190.348 375.031 198.622 389.73 198.278Z" fill="#663115"/>
<path d="M414.824 170.509C414.824 170.509 413.143 183.913 399.279 178.668C386.649 173.884 398.151 173.476 398.151 173.476C398.151 173.476 409.82 180.309 414.824 170.509Z" fill="#663115"/>
<path d="M366.788 175.67C366.788 175.67 371.166 180.34 365.305 185.491C359.455 190.651 363.362 184.937 363.362 184.937C363.362 184.937 368.345 183.234 366.788 175.67Z" fill="#663115"/>
<path d="M359.716 178.355C359.716 178.355 360.248 184.78 367.916 183.746C375.595 182.712 368.794 181.897 368.794 181.897C368.794 181.897 364.239 184.561 359.705 178.355H359.716Z" fill="#663115"/>
<path d="M416.768 241.842L369.568 250.012L357.303 211.566C357.303 211.566 363.989 214.105 368.815 214.721C381.833 216.403 387.944 216.268 400.46 213.008L415.295 205.726L417.353 207.314L416.757 241.832L416.768 241.842Z" fill="#057CFF"/>
<path d="M402.234 199.657C402.412 198.79 403.321 198.215 404.261 198.382C405.201 198.549 405.818 199.385 405.651 200.252C405.473 201.119 404.564 201.694 403.624 201.527C402.684 201.37 402.067 200.534 402.234 199.657Z" fill="#3E2414"/>
<path d="M392.039 220.353C392.587 220.353 393.032 219.908 393.032 219.36C393.032 218.812 392.587 218.368 392.039 218.368C391.491 218.368 391.047 218.812 391.047 219.36C391.047 219.908 391.491 220.353 392.039 220.353Z" fill="#7588A0"/>
<path d="M392.207 224.667C392.755 224.667 393.2 224.223 393.2 223.675C393.2 223.127 392.755 222.682 392.207 222.682C391.659 222.682 391.215 223.127 391.215 223.675C391.215 224.223 391.659 224.667 392.207 224.667Z" fill="#7588A0"/>
<path d="M393.733 215.369L389.627 215.839C390.494 223.351 390.515 227.822 390.139 230.444L394.307 229.849C394.725 226.767 394.474 224.322 393.733 215.369Z" fill="#96CBE3"/>
<path d="M392.039 221.01C392.587 221.01 393.032 220.566 393.032 220.018C393.032 219.47 392.587 219.026 392.039 219.026C391.491 219.026 391.047 219.47 391.047 220.018C391.047 220.566 391.491 221.01 392.039 221.01Z" fill="white"/>
<path d="M392.207 225.336C392.755 225.336 393.2 224.891 393.2 224.343C393.2 223.795 392.755 223.351 392.207 223.351C391.659 223.351 391.215 223.795 391.215 224.343C391.215 224.891 391.659 225.336 392.207 225.336Z" fill="white"/>
<path style="mix-blend-mode:hard-light" opacity="0.67" d="M364.376 194.642C366.403 192.312 370.342 192.406 373.225 192.229C376.317 192.041 383.275 192.344 384.665 195.77C385.542 197.933 384.278 202.457 383.265 204.515C381.98 207.105 379.838 208.182 377.132 208.485C372.953 208.944 366.654 209.414 364.627 204.525C363.53 201.882 362.276 197.64 364.032 195.091C364.136 194.935 364.251 194.788 364.376 194.642Z" fill="url(#paint3_linear_815_8588)"/>
<path style="mix-blend-mode:hard-light" opacity="0.67" d="M393.212 193.859C395.239 191.529 399.178 191.623 402.061 191.446C405.153 191.258 412.111 191.561 413.501 194.987C414.378 197.15 413.114 201.673 412.101 203.731C410.816 206.322 408.674 207.398 405.968 207.701C401.789 208.161 395.49 208.631 393.463 203.742C392.366 201.099 391.112 196.857 392.868 194.308C392.972 194.151 393.087 194.005 393.212 193.859Z" fill="url(#paint4_linear_815_8588)"/>
<path d="M360.721 192.407C360.721 192.407 360.919 196.763 361.316 201.119C361.316 201.119 362.716 201.631 363.312 203.209C363.907 204.786 364.471 209.926 372.369 209.843C380.685 209.759 384.488 209.237 385.961 200.346C385.961 200.346 386.316 197.546 388.322 197.16C390.349 197.442 390.85 200.211 390.85 200.211C392.793 209.007 396.627 209.32 404.933 208.965C412.82 208.62 413.102 203.46 413.614 201.851C414.126 200.242 415.495 199.646 415.495 199.646C415.652 195.279 415.62 190.913 415.62 190.913C412.831 190.16 405.246 189.805 400.482 190.213C396.189 190.578 393.431 191.32 388.186 192.344C382.9 191.613 380.1 191.017 375.796 190.881C371.011 190.735 363.468 191.487 360.721 192.396V192.407ZM392.323 196.533C392.396 195.938 392.595 195.332 392.992 194.872C394.569 193.033 396.993 192.678 399.208 192.417C402.311 192.051 405.925 191.989 409.039 192.48C410.961 192.783 412.204 194.235 412.465 196.136C412.779 198.414 412.35 201.245 411.316 203.303C410.762 204.389 409.927 205.34 408.871 205.946C407.816 206.562 406.615 206.865 405.413 207.012C403.084 207.294 400.42 207.429 398.132 206.855C397.547 206.709 396.983 206.489 396.46 206.186C394.298 204.922 393.378 202.436 392.762 200.148C392.605 199.563 392.469 198.967 392.375 198.361C392.292 197.755 392.25 197.15 392.323 196.544V196.533ZM364.158 197.452C364.315 195.541 365.474 194.026 367.386 193.618C370.468 192.95 374.072 192.824 377.196 193.023C379.421 193.169 381.855 193.389 383.537 195.133C383.955 195.572 384.185 196.157 384.289 196.753C384.394 197.348 384.394 197.964 384.342 198.57C384.289 199.176 384.185 199.782 384.06 200.378C383.558 202.707 382.785 205.236 380.685 206.615C380.184 206.949 379.63 207.189 379.055 207.377C376.809 208.077 374.135 208.088 371.795 207.931C370.583 207.847 369.371 207.607 368.284 207.053C367.198 206.51 366.31 205.612 365.704 204.546C364.565 202.551 363.98 199.74 364.168 197.452H364.158Z" fill="#08133D"/>
<path d="M448.184 220.44L444.515 221.93C444.39 221.981 444.24 221.918 444.189 221.792L438.947 208.891C438.896 208.765 438.959 208.615 439.085 208.564L442.753 207.074C442.889 207.019 443.029 207.086 443.08 207.211L448.322 220.113C448.373 220.239 448.31 220.389 448.184 220.44Z" fill="#1F5B99"/>
<path d="M442.03 212.454L438.134 202.864L428.073 206.949C426.642 207.534 424.991 206.834 424.406 205.403L421.763 198.894C421.481 198.194 421.491 197.432 421.773 196.742C422.066 196.052 422.609 195.509 423.309 195.227L433.725 190.996L434.3 192.417L423.884 196.648C423.57 196.773 423.32 197.024 423.184 197.337C423.048 197.651 423.048 197.996 423.184 198.32L425.827 204.828C426.088 205.476 426.84 205.789 427.488 205.528L438.969 200.858L443.441 211.869L442.02 212.444L442.03 212.454Z" fill="#C7C7C7"/>
<path d="M429.226 198.067L454.681 187.726C455.499 187.394 455.893 186.461 455.56 185.643L453.783 181.268C453.451 180.451 452.519 180.057 451.701 180.389L426.245 190.731C425.427 191.063 425.034 191.995 425.366 192.813L427.143 197.188C427.476 198.006 428.408 198.4 429.226 198.067Z" fill="#1716A1"/>
<path d="M447.933 217.333C447.756 217.27 447.212 217.291 447.024 217.365C447.818 216.936 448.382 216.748 448.414 216.006C448.466 214.742 447.505 214.92 446.711 214.826C447.181 214.23 447.797 213.562 446.857 213.019C446.45 212.778 446.063 212.674 445.551 212.966C445.468 213.019 445.854 212.35 445.896 212.256C446.209 211.639 445.52 210.94 444.945 211.023C444.423 211.096 441.038 212.82 440.275 213.363C440.275 213.363 441.393 209.832 440.349 209.665C439.356 209.508 438.029 212.057 437.664 212.684C437.026 213.771 434.571 216.111 434.54 217.051C434.519 217.751 434.853 218.409 435.177 219.036C435.909 220.425 435.856 222.525 436.588 223.915C438.364 223.09 447.139 219.83 447.703 219.036C447.818 218.869 448.017 218.754 448.121 218.587C448.351 218.232 448.497 217.709 448.1 217.417C448.048 217.375 447.985 217.344 447.923 217.323L447.933 217.333ZM443.869 218.367C443.869 218.367 443.921 218.367 443.974 218.347V218.367H443.869Z" fill="#FBD9C6"/>
<path d="M458.231 169.956C458.335 169.485 458.513 169.099 458.795 168.921C460.101 168.138 459.798 172.849 460.78 172.578C460.519 172.243 460.216 169.475 460.174 168.827C460.122 168.033 460.017 165.484 460.937 165.129C461.166 165.035 461.438 165.15 461.605 165.327C461.772 165.505 461.866 165.745 461.95 165.975C462.242 166.769 462.18 168.775 462.472 169.559C462.263 169.329 462.786 167.709 463.068 167.563C463.35 167.417 463.684 167.459 463.987 167.5C464.447 167.563 464.917 167.626 465.345 167.793C466.265 168.148 466.965 168.994 467.341 169.893C467.665 170.666 467.8 171.491 467.936 172.317C468.051 173.058 468.176 173.8 468.103 174.542C467.968 175.994 467.006 176.892 465.659 177.31C464.144 177.791 461.762 177.916 460.362 176.997C458.962 176.078 458.137 173.925 458.074 172.327C458.053 171.826 458.032 170.781 458.21 169.966L458.231 169.956Z" fill="#FBD9C6"/>
<path d="M462.074 170.269C462.074 170.697 462.147 171.136 462.325 171.533C462.398 171.7 462.503 171.899 462.617 172.035C462.743 172.191 462.868 172.16 463.046 172.15C462.638 172.191 462.356 170.781 462.356 170.468C462.346 169.632 462.68 168.493 462.753 168.253C462.764 168.201 462.785 168.159 462.774 168.107C462.764 168.054 463.025 167.657 462.983 167.636C462.649 168.357 462.074 169.465 462.074 170.269Z" fill="#D6B9A9"/>
<path d="M463.832 170.562C463.832 171 463.905 171.439 464.093 171.836C464.25 172.16 464.396 172.526 464.772 172.254C464.72 172.296 464.657 172.327 464.595 172.327C464.375 172.296 464.313 171.826 464.271 171.669C464.187 171.377 464.177 171.147 464.177 170.833C464.177 170.489 464.595 169.277 464.365 169.026C463.978 168.619 463.832 170.363 463.832 170.562Z" fill="#D6B9A9"/>
<path d="M466.756 172.045C465.827 172.87 465.545 171.648 465.555 170.948C465.555 170.75 465.701 169.005 466.088 169.412C466.328 169.663 465.942 170.885 465.91 171.366C465.889 171.669 465.91 171.753 465.994 172.055C466.056 172.296 466.485 172.317 466.756 172.055V172.045Z" fill="#D6B9A9"/>
<path d="M462.86 172.097C463.529 172.525 464.417 172.264 465.201 172.4C465.326 172.421 465.451 172.452 465.587 172.452C466.412 172.452 466.642 172.066 466.945 172.964C467.112 173.476 467.071 174.239 466.538 174.521C466.141 174.73 465.66 174.562 465.295 174.301C464.929 174.04 464.626 173.706 464.229 173.507C463.226 173.027 462.411 173.727 461.847 174.458C461.638 174.353 461.607 174.165 461.669 173.936C461.868 173.267 462.192 172.483 462.442 171.867C462.547 171.961 462.714 172.086 462.86 172.097Z" fill="#D6B9A9"/>
<path d="M445.895 187.047C445.811 187.047 445.727 187.016 445.654 186.985C444.933 186.692 444.589 185.219 443.701 184.77C443.628 185.334 443.763 185.919 444.087 186.4C444.16 186.504 444.244 186.629 444.213 186.755C444.192 186.838 444.129 186.901 444.056 186.953C442.311 188.364 442.531 185.689 441.58 185.626C441.319 185.606 441.235 185.971 441.298 186.232C441.611 187.528 442.05 187.82 441.183 188.698C440.431 189.461 439.647 189.659 438.686 188.97C438.446 188.802 438.258 188.573 438.049 188.364C435.98 186.441 433.797 187.758 434.194 190.307C434.277 190.808 434.162 191.372 433.786 191.717C432.251 193.127 428.49 189.011 430.809 187.799C436.168 185 438.885 184.206 446.845 180.957C448.496 180.278 450.261 179.557 450.846 181.918C450.899 182.127 450.951 182.336 450.878 182.545C450.805 182.753 450.564 182.9 450.387 182.795C450.282 182.743 450.23 182.628 450.188 182.524C450.042 182.189 449.938 181.845 449.864 181.489C449.123 181.563 450.147 183.547 450.115 184.122C450.115 184.268 450.094 184.415 450.011 184.54C449.844 184.832 449.457 184.885 449.123 184.916C448.736 184.947 448.308 184.968 447.994 184.728C447.859 184.613 447.754 184.456 447.65 184.321C447.357 183.924 446.971 183.579 446.532 183.339C446.229 183.171 445.738 183.13 445.644 183.453C445.592 183.652 445.738 183.84 445.874 183.997C446.448 184.644 448.287 187.246 445.874 187.047H445.895Z" fill="#FCCD0F"/>
<path d="M443.794 213.677C443.481 213.802 442.018 214.241 442.206 214.481C442.948 214.554 443.69 214.314 444.306 213.959C444.776 213.687 445.225 213.342 445.528 212.956C444.901 213.019 444.463 213.395 443.794 213.666V213.677Z" fill="#D6B9A9"/>
<path d="M444.983 215.526C444.67 215.652 443.207 216.09 443.396 216.331C444.137 216.404 444.879 216.163 445.495 215.808C445.966 215.537 446.415 215.192 446.718 214.805C446.06 214.837 445.652 215.244 444.983 215.516V215.526Z" fill="#D6B9A9"/>
<path d="M446.083 217.626C445.864 217.689 444.882 217.845 444.944 218.075C445.394 218.232 445.905 218.138 446.344 217.929C446.678 217.772 447.023 217.553 447.284 217.281C447.023 217.365 446.543 217.501 446.073 217.626H446.083Z" fill="#D6B9A9"/>
<path d="M399.468 114.795C401.031 114.795 402.299 113.528 402.299 111.964C402.299 110.4 401.031 109.133 399.468 109.133C397.904 109.133 396.637 110.4 396.637 111.964C396.637 113.528 397.904 114.795 399.468 114.795Z" fill="#E9B5FF"/>
<path d="M408.911 114.795C410.475 114.795 411.742 113.528 411.742 111.964C411.742 110.4 410.475 109.133 408.911 109.133C407.348 109.133 406.08 110.4 406.08 111.964C406.08 113.528 407.348 114.795 408.911 114.795Z" fill="#59CAFF"/>
<path d="M418.355 114.795C419.918 114.795 421.186 113.528 421.186 111.964C421.186 110.401 419.918 109.133 418.355 109.133C416.791 109.133 415.523 110.401 415.523 111.964C415.523 113.528 416.791 114.795 418.355 114.795Z" fill="#FFCB1C"/>
<path d="M366.756 241.445L365.617 237.81C365.617 237.81 385.864 239.116 417.006 225.242L417.09 228.136C417.09 228.136 386.741 240.756 366.745 241.435L366.756 241.445Z" fill="#0350A3"/>
<path d="M369.086 248.591L367.383 243.148C367.383 243.148 391.129 244.057 417.017 233.506L416.933 235.292C416.933 235.292 407.541 242.804 369.086 248.591Z" fill="#0350A3"/>
<path d="M364.501 247.118C355.882 247.118 349.164 243.754 345.821 237.674C342.698 232.001 343.22 224.97 347.148 219.757C350.282 215.589 356.54 211.776 356.77 211.64L358.953 212.434L360.594 217.563C360.594 217.563 354.9 220.739 352.57 223.842C350.251 226.924 349.937 231.072 351.766 234.404C354.127 238.688 359.591 240.808 366.768 240.234C405.694 237.1 434.047 217.271 434.329 217.072L438.393 223.236C437.181 224.093 408.18 243.713 367.311 247.003C366.35 247.077 365.41 247.118 364.49 247.118H364.501Z" fill="#057CFF"/>
<path d="M416.632 206.824L415.796 205.298C415.796 205.298 396.062 218.19 366.883 213.207C360.489 212.079 356.917 210.323 356.917 210.323L356.07 211.42L386.691 222.39L391.559 215.484L398.026 220.666L416.632 206.813V206.824Z" fill="#F2F2F2"/>
<path d="M503.698 19.225C504.846 14.6384 501.833 10.0426 496.968 8.9601C492.103 7.87756 487.228 10.7182 486.079 15.3048C484.931 19.8913 487.944 24.4871 492.809 25.5696C497.675 26.6521 502.55 23.8115 503.698 19.225Z" fill="#E673B0"/>
<path d="M499.582 14.3822L497.95 12.8464L494.893 15.728L491.837 12.8464L490.208 14.3822L493.264 17.2638L490.208 20.1483L491.837 21.6841L494.893 18.8026L497.95 21.6841L499.582 20.1483L496.526 17.2638L499.582 14.3822Z" fill="white"/>
<defs>
<linearGradient id="paint0_linear_815_8588" x1="502.479" y1="139.774" x2="502.479" y2="204.954" gradientUnits="userSpaceOnUse">
<stop stop-color="#FFAA2C"/>
<stop offset="0.338542" stop-color="#FCCC24"/>
<stop offset="0.583333" stop-color="#FCD714"/>
<stop offset="0.828125" stop-color="#FCF30F"/>
</linearGradient>
<linearGradient id="paint1_linear_815_8588" x1="606.482" y1="201.086" x2="597.238" y2="289.035" gradientUnits="userSpaceOnUse">
<stop offset="0.15" stop-color="#935123"/>
<stop offset="0.31" stop-color="#7F421B"/>
<stop offset="0.58" stop-color="#662E12"/>
<stop offset="0.81" stop-color="#56220C"/>
<stop offset="1" stop-color="#511E0B"/>
</linearGradient>
<linearGradient id="paint2_linear_815_8588" x1="607.628" y1="248.634" x2="607.801" y2="211.76" gradientUnits="userSpaceOnUse">
<stop offset="0.15" stop-color="#935123"/>
<stop offset="0.45" stop-color="#974E28"/>
<stop offset="1" stop-color="#9C4D2E"/>
</linearGradient>
<linearGradient id="paint3_linear_815_8588" x1="374.983" y1="191.947" x2="372.463" y2="208.904" gradientUnits="userSpaceOnUse">
<stop offset="0.35" stop-color="white"/>
<stop offset="0.65" stop-color="#B5D1EE"/>
<stop offset="1" stop-color="white"/>
</linearGradient>
<linearGradient id="paint4_linear_815_8588" x1="403.818" y1="191.167" x2="401.299" y2="208.124" gradientUnits="userSpaceOnUse">
<stop offset="0.35" stop-color="white"/>
<stop offset="0.65" stop-color="#B5D1EE"/>
<stop offset="1" stop-color="white"/>
</linearGradient>
<clipPath id="clip0_815_8588">
<rect width="139.308" height="50.9972" fill="white" transform="translate(580.916 118.911) rotate(-180)"/>
</clipPath>
<clipPath id="clip1_815_8588">
<rect width="85" height="72" fill="white" transform="translate(416 16)"/>
</clipPath>
<clipPath id="clip2_815_8588">
<rect width="277.709" height="242.504" fill="white" transform="translate(93.7559 42.1165)"/>
</clipPath>
<clipPath id="clip3_815_8588">
<rect width="139.308" height="50.9972" fill="white" transform="translate(181.229 168.465)"/>
</clipPath>
<clipPath id="clip4_815_8588">
<rect width="277.709" height="242.504" fill="white" transform="translate(627 42.1165)"/>
</clipPath>
<clipPath id="clip5_815_8588">
<rect width="139.308" height="50.9972" fill="white" transform="translate(714.473 168.465)"/>
</clipPath>
<clipPath id="clip6_815_8588">
<rect width="212.612" height="117.202" fill="white" transform="translate(451 32)"/>
</clipPath>
<clipPath id="clip7_815_8588">
<rect width="139.308" height="191.436" fill="white" transform="matrix(-1 0 0 1 427.863 88.0658)"/>
</clipPath>
<clipPath id="clip8_815_8588">
<rect width="247.363" height="144.599" fill="white" transform="translate(370.627 151.78)"/>
</clipPath>
<clipPath id="clip9_815_8588">
<rect width="247.363" height="144.599" fill="white" transform="translate(573.65 149.621)"/>
</clipPath>
<clipPath id="clip10_815_8588">
<rect width="192.925" height="121.705" fill="white" transform="translate(227 177.698)"/>
</clipPath>
</defs>
</svg>
