<svg width="407" height="251" viewBox="0 0 407 251" fill="none" xmlns="http://www.w3.org/2000/svg">
<path d="M406.744 77.6491L296.72 125.977L0 60.2891L406.744 77.6491Z" fill="#906DFD"/>
<path d="M296.72 125.977L282.768 250.625L263.944 153.161L0 60.2891L296.72 125.977Z" fill="#674ABE"/>
<path d="M303.553 94.6168L307.457 100.785C309.209 99.2328 310.865 97.5688 312.401 95.8248L306.969 91.1128C305.889 92.3288 304.753 93.4968 303.553 94.6088V94.6168Z" fill="#069DD8"/>
<path d="M300.92 14.729L297.656 21.145C297.656 21.145 298.744 21.817 300.344 23.105L305.208 17.801C302.808 15.849 301.12 14.833 300.92 14.729Z" fill="#069DD8"/>
<path d="M323.864 45.7368L316.904 47.6728C317.288 48.9608 317.624 50.2968 317.912 51.6808L325.288 51.9288C324.912 49.7688 324.44 47.7048 323.864 45.7368Z" fill="#069DD8"/>
<path d="M298.401 98.7852C296.993 99.7772 295.569 100.649 294.137 101.433L296.385 108.393C298.417 107.353 300.425 106.153 302.401 104.769L298.545 98.6812C298.497 98.7132 298.449 98.7532 298.401 98.7852Z" fill="#069DD8"/>
<path d="M318.08 32.6408L312.016 36.5848C312.952 38.1528 313.848 39.8408 314.664 41.6568L321.696 39.6968C320.608 37.1368 319.384 34.7848 318.08 32.6328V32.6408Z" fill="#069DD8"/>
<path d="M326.049 58.3691C326.049 58.3691 326.049 58.3691 326.049 58.3611L318.809 58.1211C318.825 58.3531 318.849 58.5771 318.865 58.8091C318.977 60.6891 318.953 62.5771 318.793 64.4651L325.817 66.5051C326.137 63.7931 326.217 61.0731 326.057 58.3691H326.049Z" fill="#069DD8"/>
<path d="M268.362 103.865L265.514 110.481C267.514 111.345 269.586 111.985 271.706 112.417C273.746 112.833 275.842 113.033 277.954 113.049L277.994 105.841C274.634 105.817 271.378 105.177 268.354 103.873L268.362 103.865Z" fill="#069DD8"/>
<path d="M310.897 86.0651L316.353 90.7931C317.601 89.0091 318.745 87.1611 319.769 85.2571L313.449 81.8491C312.673 83.2891 311.817 84.6971 310.889 86.0571L310.897 86.0651Z" fill="#069DD8"/>
<path d="M309.929 22.1206L305.049 27.4406C306.129 28.5686 307.265 29.8646 308.393 31.3046L314.465 27.3526C312.937 25.3686 311.401 23.6246 309.929 22.1206Z" fill="#069DD8"/>
<path d="M317.729 70.8169C317.305 72.5689 316.761 74.3049 316.121 76.0169L322.489 79.4569C323.353 77.2809 324.073 75.0649 324.633 72.8249L317.729 70.8169Z" fill="#069DD8"/>
<path d="M284.4 105.145L284.352 112.497C286.384 112.145 288.432 111.617 290.472 110.913L288.256 104.057C286.968 104.505 285.68 104.865 284.4 105.145Z" fill="#069DD8"/>
<path d="M277.999 105.833L277.959 113.041C280.071 113.057 282.207 112.873 284.359 112.497L284.407 105.145C282.247 105.617 280.103 105.841 278.007 105.825L277.999 105.833Z" fill="#B5E3F6"/>
<path d="M288.264 104.057L290.48 110.913C292.456 110.233 294.432 109.393 296.392 108.393L294.144 101.433C292.192 102.497 290.232 103.377 288.264 104.057Z" fill="#B5E3F6"/>
<path d="M298.545 98.6809L302.401 104.769C302.449 104.737 302.497 104.705 302.545 104.673C304.265 103.465 305.897 102.161 307.457 100.777L303.553 94.6089C301.985 96.0649 300.313 97.4249 298.553 98.6729L298.545 98.6809Z" fill="#B5E3F6"/>
<path d="M306.959 91.1209L312.391 95.8329C313.807 94.2249 315.135 92.5369 316.351 90.7929L310.895 86.0649C309.703 87.8249 308.383 89.5129 306.959 91.1209Z" fill="#B5E3F6"/>
<path d="M313.457 81.8488L319.777 85.2568C320.801 83.3688 321.705 81.4248 322.497 79.4488L316.129 76.0088C315.377 78.0008 314.489 79.9448 313.465 81.8408L313.457 81.8488Z" fill="#B5E3F6"/>
<path d="M325.809 66.497L318.785 64.457C318.601 66.585 318.241 68.713 317.729 70.817L324.633 72.825C325.161 70.737 325.553 68.617 325.801 66.497H325.809Z" fill="#B5E3F6"/>
<path d="M325.288 51.9292L317.912 51.6812C318.336 53.7212 318.632 55.8652 318.8 58.1132L326.04 58.3532C325.904 56.1132 325.632 53.9852 325.28 51.9212L325.288 51.9292Z" fill="#B5E3F6"/>
<path d="M321.696 39.6968L314.664 41.6568C315.504 43.5288 316.264 45.5368 316.904 47.6728L323.864 45.7368C323.24 43.6088 322.504 41.6008 321.696 39.6968Z" fill="#B5E3F6"/>
<path d="M314.472 27.353L308.4 31.305C309.632 32.881 310.864 34.641 312.024 36.585L318.088 32.641C316.928 30.721 315.712 28.961 314.472 27.353Z" fill="#B5E3F6"/>
<path d="M305.208 17.8008L300.344 23.1048C301.632 24.1368 303.272 25.5768 305.056 27.4408L309.936 22.1208C308.216 20.3608 306.6 18.9288 305.216 17.8008H305.208Z" fill="#B5E3F6"/>
<path d="M287.279 17.1206C293.423 21.6326 298.335 15.8166 297.983 14.9366L300.479 14.2886C300.423 15.0886 300.311 16.6246 299.999 17.5846C299.071 20.4006 296.199 22.4486 292.999 22.7606C290.007 23.0486 285.919 22.2806 284.039 19.8726C282.767 18.2406 285.095 15.5286 287.271 17.1286H287.279V17.1206Z" fill="#003351"/>
<path d="M294.673 2.89671C301.305 5.88071 301.449 11.4807 301.537 12.1047C301.913 14.8327 300.105 17.1047 300.153 17.1927L297.713 16.2247C297.713 16.2247 298.929 12.0487 294.641 9.56871C293.449 8.87271 290.537 8.35271 289.265 7.80071C288.321 7.39271 287.593 6.35271 287.961 5.17671C288.273 4.19271 289.225 3.31271 290.193 2.91271C291.777 2.24871 293.433 2.33671 294.673 2.89671Z" fill="#003351"/>
<path d="M203.265 47.8166L196.393 45.6406C195.833 47.8246 195.441 50.0566 195.201 52.3206L202.441 52.2406C202.633 50.7446 202.905 49.2646 203.265 47.8086V47.8166Z" fill="#069DD8"/>
<path d="M206.28 39.6888C206.536 39.1928 206.8 38.7048 207.072 38.2248L201.016 34.3208C200.632 34.9928 200.256 35.6808 199.888 36.3928C199.352 37.4328 198.864 38.4968 198.416 39.5768L205.312 41.7608C205.616 41.0648 205.936 40.3768 206.288 39.6968L206.28 39.6888Z" fill="#069DD8"/>
<path d="M203.648 69.001L196.816 71.241C197.408 73.385 198.144 75.505 199.016 77.585L205.472 74.385C204.744 72.625 204.136 70.825 203.648 69.001Z" fill="#069DD8"/>
<path d="M202.127 58.6489L194.943 58.7209C194.991 60.7929 195.175 62.8729 195.479 64.9449L202.423 62.6729C202.263 61.3289 202.167 59.9929 202.127 58.6489Z" fill="#069DD8"/>
<path d="M220.951 22.409L216.807 16.481C215.383 17.545 213.887 18.761 212.359 20.153L217.655 25.121C218.791 24.113 219.903 23.209 220.959 22.409H220.951Z" fill="#069DD8"/>
<path d="M213.136 29.6569L207.864 24.7129C206.72 26.0169 205.584 27.4249 204.48 28.9369L210.544 32.8489C211.392 31.7129 212.256 30.6489 213.128 29.6569H213.136Z" fill="#069DD8"/>
<path d="M229.409 17.3047L228.065 13.9607L226.729 10.6167C226.513 10.7047 224.753 11.4247 222.137 12.9447L226.289 18.8807C228.169 17.8167 229.361 17.3207 229.401 17.3047H229.409Z" fill="#069DD8"/>
<path d="M235.688 103.913L235.32 96.7209C231.68 96.9049 228.112 96.2889 224.728 94.9609L221.232 101.337C222.832 102.017 224.464 102.569 226.128 102.985C229.224 103.761 232.432 104.081 235.696 103.913H235.688Z" fill="#069DD8"/>
<path d="M209.257 81.6168C208.937 81.1208 208.633 80.6168 208.329 80.1128L201.865 83.3128C202.297 84.0568 202.737 84.7928 203.201 85.5208C203.953 86.6808 204.737 87.7928 205.553 88.8568L210.969 84.0648C210.377 83.2808 209.801 82.4728 209.249 81.6168H209.257Z" fill="#069DD8"/>
<path d="M215.233 88.8408L209.809 93.6408C211.633 95.4168 213.569 96.9768 215.593 98.3048L219.081 91.9528C217.753 91.0408 216.465 90.0008 215.241 88.8408H215.233Z" fill="#069DD8"/>
<path d="M226.297 18.8808L222.145 12.9448C220.617 13.8328 218.785 15.0008 216.809 16.4808L220.953 22.4088C223.001 20.8648 224.849 19.7048 226.297 18.8888V18.8808Z" fill="#B5E3F6"/>
<path d="M217.649 25.113L212.353 20.145C210.865 21.497 209.353 23.017 207.865 24.705L213.137 29.649C214.641 27.937 216.161 26.433 217.649 25.105V25.113Z" fill="#B5E3F6"/>
<path d="M210.552 32.849L204.488 28.937C203.28 30.593 202.112 32.385 201.016 34.313L207.072 38.217C208.16 36.273 209.336 34.489 210.552 32.849Z" fill="#B5E3F6"/>
<path d="M205.305 41.7528L198.409 39.5688C197.593 41.5368 196.921 43.5688 196.393 45.6408L203.265 47.8168C203.777 45.7368 204.457 43.7048 205.305 41.7528Z" fill="#B5E3F6"/>
<path d="M202.44 52.2407L195.2 52.3207C194.976 54.4407 194.888 56.5767 194.944 58.7207L202.128 58.6487C202.072 56.4967 202.176 54.3527 202.44 52.2407Z" fill="#B5E3F6"/>
<path d="M202.424 62.673L195.48 64.945C195.792 67.057 196.24 69.161 196.816 71.241L203.648 69.001C203.08 66.913 202.672 64.793 202.416 62.665L202.424 62.673Z" fill="#B5E3F6"/>
<path d="M205.479 74.3848L199.023 77.5848C199.847 79.5448 200.799 81.4568 201.871 83.3208L208.335 80.1208C207.239 78.2728 206.295 76.3528 205.487 74.3928L205.479 74.3848Z" fill="#B5E3F6"/>
<path d="M210.977 84.0649L205.561 88.8569C206.897 90.5929 208.321 92.1849 209.817 93.6409L215.241 88.8409C213.729 87.4249 212.305 85.8329 210.985 84.0649H210.977Z" fill="#B5E3F6"/>
<path d="M219.08 91.9526L215.592 98.3046C217.4 99.4966 219.28 100.521 221.224 101.345L224.72 94.9686C222.768 94.2006 220.88 93.1926 219.072 91.9526H219.08Z" fill="#B5E3F6"/>
<mask id="mask0_657_4512" style="mask-type:luminance" maskUnits="userSpaceOnUse" x="247" y="29" width="41" height="38">
<path d="M247.567 54.2644C247.327 54.6884 247.447 55.1604 247.871 55.5044L270.207 66.6404C270.631 66.9844 271.207 66.8804 271.463 66.4564C271.463 66.4564 287.591 51.5444 286.911 48.2484C286.911 48.2484 291.319 41.1444 279.631 33.4404C267.591 25.4964 262.095 32.6884 262.095 32.6884C261.671 32.3444 250.383 49.5604 250.383 49.5604L247.575 54.2724L247.567 54.2644Z" fill="white"/>
</mask>
<g mask="url(#mask0_657_4512)">
<path d="M276.552 31.8885L260.688 29.4325L262.936 25.0405L276.552 31.8885Z" fill="#008DE9"/>
<path d="M276.991 32.1046L260.607 29.5686L260.687 29.4326L276.551 31.8886L276.991 32.1046Z" fill="#008DE9"/>
<path d="M277.431 32.3288L260.535 29.7128L260.607 29.5688L276.991 32.1048L277.431 32.3288Z" fill="#008EE9"/>
<path d="M277.871 32.5524L260.463 29.8564L260.535 29.7124L277.431 32.3284L277.871 32.5524Z" fill="#008FE9"/>
<path d="M278.303 32.7684L260.391 29.9924L260.463 29.8564L277.871 32.5524L278.303 32.7684Z" fill="#0190EA"/>
<path d="M278.742 32.9927L260.318 30.1367L260.39 29.9927L278.302 32.7687L278.742 32.9927Z" fill="#0191EA"/>
<path d="M279.184 33.2087L260.248 30.2807L260.32 30.1367L278.744 32.9927L279.184 33.2087Z" fill="#0192EA"/>
<path d="M279.624 33.4323L260.176 30.4243L260.248 30.2803L279.184 33.2083L279.624 33.4323Z" fill="#0193EA"/>
<path d="M280.064 33.6563L260.104 30.5603L260.176 30.4243L279.624 33.4323L280.064 33.6563Z" fill="#0194EA"/>
<path d="M280.503 33.8725L260.031 30.7045L260.103 30.5605L280.063 33.6565L280.503 33.8725Z" fill="#0295EB"/>
<path d="M280.943 34.0966L259.959 30.8486L260.031 30.7046L280.503 33.8726L280.943 34.0966Z" fill="#0296EB"/>
<path d="M281.385 34.3201L259.889 30.9841L259.961 30.8481L280.945 34.0961L281.385 34.3201Z" fill="#0297EB"/>
<path d="M281.822 34.5369L259.814 31.1289L259.886 30.9849L281.382 34.3209L281.822 34.5369Z" fill="#0298EB"/>
<path d="M282.254 34.7604L259.742 31.2724L259.814 31.1284L281.822 34.5364L282.254 34.7604Z" fill="#0299EB"/>
<path d="M282.694 34.9765L259.67 31.4085L259.742 31.2725L282.254 34.7605L282.694 34.9765Z" fill="#039AEC"/>
<path d="M283.136 35.2007L259.592 31.5527L259.672 31.4087L282.696 34.9767L283.136 35.2007Z" fill="#039BEC"/>
<path d="M283.576 35.4247L259.52 31.6967L259.592 31.5527L283.136 35.2007L283.576 35.4247Z" fill="#039CEC"/>
<path d="M284.015 35.6403L259.447 31.8403L259.519 31.6963L283.575 35.4243L284.015 35.6403Z" fill="#039DEC"/>
<path d="M284.455 35.8643L259.375 31.9763L259.447 31.8403L284.015 35.6403L284.455 35.8643Z" fill="#039EEC"/>
<path d="M284.895 36.0806L259.303 32.1206L259.375 31.9766L284.455 35.8646L284.895 36.0806Z" fill="#049FED"/>
<path d="M285.336 36.3046L259.232 32.2646L259.304 32.1206L284.896 36.0806L285.336 36.3046Z" fill="#04A0ED"/>
<path d="M285.776 36.5282L259.16 32.4002L259.232 32.2642L285.336 36.3042L285.776 36.5282Z" fill="#04A1ED"/>
<path d="M286.208 36.7449L259.088 32.5449L259.16 32.4009L285.776 36.5289L286.208 36.7449Z" fill="#04A2ED"/>
<path d="M286.646 36.9684L259.014 32.6884L259.086 32.5444L286.206 36.7444L286.646 36.9684Z" fill="#04A3ED"/>
<path d="M287.087 37.1845L258.943 32.8245L259.015 32.6885L286.647 36.9685L287.087 37.1845Z" fill="#05A4ED"/>
<path d="M287.527 37.4087L258.871 32.9687L258.943 32.8247L287.087 37.1847L287.527 37.4087Z" fill="#05A5EE"/>
<path d="M287.967 37.6328L258.799 33.1128L258.871 32.9688L287.527 37.4087L287.967 37.6328Z" fill="#05A6EE"/>
<path d="M288.407 37.8483L258.727 33.2563L258.799 33.1123L287.967 37.6323L288.407 37.8483Z" fill="#05A7EE"/>
<path d="M288.846 38.0723L258.654 33.3923L258.726 33.2563L288.406 37.8483L288.846 38.0723Z" fill="#05A8EE"/>
<path d="M289.288 38.2886L258.584 33.5366L258.656 33.3926L288.848 38.0726L289.288 38.2886Z" fill="#06A9EE"/>
<path d="M289.728 38.5126L258.504 33.6806L258.584 33.5366L289.288 38.2886L289.728 38.5126Z" fill="#06AAEF"/>
<path d="M290.16 38.7362L258.432 33.8162L258.504 33.6802L289.728 38.5122L290.16 38.7362Z" fill="#06ABEF"/>
<path d="M290.599 38.9529L258.359 33.9609L258.431 33.8169L290.159 38.7369L290.599 38.9529Z" fill="#06ACEF"/>
<path d="M291.039 39.1764L258.287 34.1044L258.359 33.9604L290.599 38.9524L291.039 39.1764Z" fill="#07ADEF"/>
<path d="M291.479 39.3925L258.215 34.2405L258.287 34.1045L291.039 39.1765L291.479 39.3925Z" fill="#07AEEF"/>
<path d="M291.919 39.6167L258.143 34.3847L258.215 34.2407L291.479 39.3927L291.919 39.6167Z" fill="#07AFF0"/>
<path d="M291.95 39.7768L258.07 34.5288L258.142 34.3848L291.918 39.6168L292.006 39.6648L291.95 39.7768Z" fill="#07B0F0"/>
<path d="M291.878 39.9203L257.998 34.6723L258.07 34.5283L291.95 39.7763L291.878 39.9203Z" fill="#07B1F0"/>
<path d="M291.808 40.0564L257.928 34.8084L258 34.6724L291.88 39.9204L291.808 40.0564Z" fill="#08B2F0"/>
<path d="M291.735 40.2006L257.855 34.9526L257.927 34.8086L291.807 40.0566L291.735 40.2006Z" fill="#08B3F0"/>
<path d="M291.663 40.3446L257.783 35.0966L257.855 34.9526L291.735 40.2006L291.663 40.3446Z" fill="#08B4F1"/>
<path d="M291.591 40.4807L257.711 35.2327L257.783 35.0967L291.663 40.3447L291.591 40.4807Z" fill="#08B5F1"/>
<path d="M291.519 40.6249L257.639 35.3769L257.711 35.2329L291.591 40.4809L291.519 40.6249Z" fill="#08B6F1"/>
<path d="M291.448 40.7685L257.568 35.5205L257.64 35.3765L291.52 40.6245L291.448 40.7685Z" fill="#09B7F1"/>
<path d="M291.376 40.9045L257.488 35.6565L257.568 35.5205L291.448 40.7685L291.376 40.9045Z" fill="#09B8F1"/>
<path d="M291.294 41.0487L257.414 35.8007L257.486 35.6567L291.374 40.9047L291.294 41.0487Z" fill="#09B9F2"/>
<path d="M291.222 41.1928L257.342 35.9448L257.414 35.8008L291.294 41.0488L291.222 41.1928Z" fill="#09BAF2"/>
<path d="M291.151 41.3363L257.271 36.0883L257.343 35.9443L291.223 41.1923L291.151 41.3363Z" fill="#09BBF2"/>
<path d="M291.079 41.4724L257.199 36.2244L257.271 36.0884L291.151 41.3364L291.079 41.4724Z" fill="#0ABCF2"/>
<path d="M291.007 41.6166L257.127 36.3686L257.199 36.2246L291.079 41.4726L291.007 41.6166Z" fill="#0ABDF2"/>
<path d="M290.935 41.7607L257.055 36.5127L257.127 36.3687L291.007 41.6167L290.935 41.7607Z" fill="#0ABEF3"/>
<path d="M290.862 41.8967L256.982 36.6487L257.054 36.5127L290.934 41.7607L290.862 41.8967Z" fill="#0ABFF3"/>
<path d="M290.792 42.0404L256.912 36.7924L256.984 36.6484L290.864 41.8964L290.792 42.0404Z" fill="#0AC0F3"/>
<path d="M290.72 42.1845L256.84 36.9365L256.912 36.7925L290.792 42.0405L290.72 42.1845Z" fill="#0BC1F3"/>
<path d="M290.648 42.3205L256.768 37.0805L256.84 36.9365L290.72 42.1845L290.648 42.3205Z" fill="#0BC2F3"/>
<path d="M290.575 42.4646L256.695 37.2166L256.767 37.0806L290.647 42.3206L290.575 42.4646Z" fill="#0BC3F4"/>
<path d="M290.503 42.6088L256.623 37.3608L256.695 37.2168L290.575 42.4648L290.503 42.6088Z" fill="#0BC4F4"/>
<path d="M290.431 42.7523L256.551 37.5044L256.623 37.3604L290.503 42.6083L290.431 42.7523Z" fill="#0BC5F4"/>
<path d="M290.359 42.8884L256.471 37.6404L256.551 37.5044L290.431 42.7524L290.359 42.8884Z" fill="#0CC7F4"/>
<path d="M290.286 43.0326L256.398 37.7846L256.47 37.6406L290.358 42.8886L290.286 43.0326Z" fill="#0CC8F4"/>
<path d="M290.206 43.1767L256.326 37.9287L256.398 37.7847L290.286 43.0327L290.206 43.1767Z" fill="#0CC9F4"/>
<path d="M290.136 43.3127L256.256 38.0647L256.328 37.9287L290.208 43.1767L290.136 43.3127Z" fill="#0CCAF5"/>
<path d="M290.064 43.4565L256.184 38.2085L256.256 38.0645L290.136 43.3125L290.064 43.4565Z" fill="#0CCBF5"/>
<path d="M289.991 43.6005L256.111 38.3525L256.183 38.2085L290.063 43.4565L289.991 43.6005Z" fill="#0DCCF5"/>
<path d="M289.919 43.7365L256.039 38.4965L256.111 38.3525L289.991 43.6005L289.919 43.7365Z" fill="#0DCDF5"/>
<path d="M289.847 43.8806L255.967 38.6326L256.039 38.4966L289.919 43.7366L289.847 43.8806Z" fill="#0DCEF5"/>
<path d="M289.776 44.0248L255.896 38.7768L255.968 38.6328L289.848 43.8808L289.776 44.0248Z" fill="#0DCFF6"/>
<path d="M289.704 44.1684L255.824 38.9204L255.896 38.7764L289.776 44.0244L289.704 44.1684Z" fill="#0DD0F6"/>
<path d="M289.63 44.3044L255.75 39.0564L255.822 38.9204L289.702 44.1684L289.63 44.3044Z" fill="#0ED1F6"/>
<path d="M289.558 44.4486L255.678 39.2006L255.75 39.0566L289.63 44.3046L289.558 44.4486Z" fill="#0ED2F6"/>
<path d="M289.487 44.5927L255.607 39.3447L255.679 39.2007L289.559 44.4487L289.487 44.5927Z" fill="#0ED3F6"/>
<path d="M289.415 44.7282L255.535 39.4802L255.607 39.3442L289.487 44.5922L289.415 44.7282Z" fill="#0ED4F7"/>
<path d="M289.343 44.8725L255.463 39.6245L255.535 39.4805L289.415 44.7285L289.343 44.8725Z" fill="#0ED5F7"/>
<path d="M289.271 45.0165L255.383 39.7685L255.463 39.6245L289.343 44.8725L289.271 45.0165Z" fill="#0FD6F7"/>
<path d="M289.191 45.1526L255.311 39.9126L255.383 39.7686L289.271 45.0166L289.191 45.1526Z" fill="#0FD7F7"/>
<path d="M289.12 45.2966L255.24 40.0486L255.312 39.9126L289.192 45.1526L289.12 45.2966Z" fill="#0FD8F7"/>
<path d="M289.048 45.4403L255.168 40.1923L255.24 40.0483L289.12 45.2963L289.048 45.4403Z" fill="#0FD9F8"/>
<path d="M288.976 45.5844L255.096 40.3364L255.168 40.1924L289.048 45.4404L288.976 45.5844Z" fill="#0FDAF8"/>
<path d="M288.903 45.7204L255.023 40.4724L255.095 40.3364L288.975 45.5844L288.903 45.7204Z" fill="#10DBF8"/>
<path d="M288.831 45.8647L254.951 40.6167L255.023 40.4727L288.903 45.7207L288.831 45.8647Z" fill="#10DCF8"/>
<path d="M288.759 46.0087L254.879 40.7607L254.951 40.6167L288.831 45.8647L288.759 46.0087Z" fill="#10DDF8"/>
<path d="M288.687 46.1443L254.807 40.8963L254.879 40.7603L288.759 46.0083L288.687 46.1443Z" fill="#10DEF9"/>
<path d="M288.614 46.2885L254.734 41.0405L254.806 40.8965L288.686 46.1445L288.614 46.2885Z" fill="#10DFF9"/>
<path d="M288.542 46.4325L254.662 41.1845L254.734 41.0405L288.614 46.2885L288.542 46.4325Z" fill="#11E0F9"/>
<path d="M288.472 46.5686L254.592 41.3286L254.664 41.1846L288.544 46.4326L288.472 46.5686Z" fill="#11E1F9"/>
<path d="M288.4 46.7126L254.52 41.4646L254.592 41.3286L288.472 46.5686L288.4 46.7126Z" fill="#11E2F9"/>
<path d="M288.327 46.8564L254.447 41.6084L254.519 41.4644L288.399 46.7124L288.327 46.8564Z" fill="#11E3FA"/>
<path d="M288.255 47.0004L254.367 41.7524L254.447 41.6084L288.327 46.8564L288.255 47.0004Z" fill="#12E4FA"/>
<path d="M288.175 47.1364L254.295 41.8884L254.367 41.7524L288.255 47.0004L288.175 47.1364Z" fill="#12E5FA"/>
<path d="M288.105 47.2807L254.225 42.0327L254.297 41.8887L288.177 47.1367L288.105 47.2807Z" fill="#12E6FA"/>
<path d="M288.03 47.4247L254.15 42.1767L254.222 42.0327L288.102 47.2807L288.03 47.4247Z" fill="#12E7FA"/>
<path d="M287.958 47.5603L254.078 42.3123L254.15 42.1763L288.03 47.4243L287.958 47.5603Z" fill="#12E8FB"/>
<path d="M287.886 47.7045L254.006 42.4565L254.078 42.3125L287.958 47.5605L287.886 47.7045Z" fill="#13E9FB"/>
<path d="M287.816 47.8485L253.936 42.6005L254.008 42.4565L287.888 47.7045L287.816 47.8485Z" fill="#13EAFB"/>
<path d="M287.743 47.9846L253.863 42.7446L253.935 42.6006L287.815 47.8486L287.743 47.9846Z" fill="#13EBFB"/>
<path d="M287.671 48.1286L253.791 42.8806L253.863 42.7446L287.743 47.9846L287.671 48.1286Z" fill="#13ECFB"/>
<path d="M287.599 48.2724L253.719 43.0244L253.791 42.8804L287.671 48.1284L287.599 48.2724Z" fill="#13EDFB"/>
<path d="M287.526 48.4164L253.646 43.1684L253.718 43.0244L287.598 48.2724L287.526 48.4164Z" fill="#14EEFC"/>
<path d="M287.456 48.5525L253.576 43.3045L253.648 43.1685L287.528 48.4165L287.456 48.5525Z" fill="#14EFFC"/>
<path d="M287.384 48.6967L253.504 43.4487L253.576 43.3047L287.456 48.5527L287.384 48.6967Z" fill="#14F0FC"/>
<path d="M287.312 48.8402L253.432 43.5922L253.504 43.4482L287.384 48.6962L287.312 48.8402Z" fill="#14F1FC"/>
<path d="M287.238 48.9763L253.35 43.7283L253.43 43.5923L287.31 48.8403L287.238 48.9763Z" fill="#14F2FC"/>
<path d="M287.167 49.1205L253.279 43.8725L253.351 43.7285L287.239 48.9765L287.167 49.1205Z" fill="#15F3FD"/>
<path d="M287.087 49.2646L253.207 44.0166L253.279 43.8726L287.167 49.1206L287.087 49.2646Z" fill="#15F4FD"/>
<path d="M287.015 49.4006L253.135 44.1606L253.207 44.0166L287.087 49.2646L287.015 49.4006Z" fill="#15F5FD"/>
<path d="M286.943 49.5446L253.062 44.2966L253.135 44.1606L287.015 49.4006L286.943 49.5446Z" fill="#15F6FD"/>
<path d="M286.87 49.6884L252.99 44.4404L253.062 44.2964L286.942 49.5444L286.87 49.6884Z" fill="#15F7FD"/>
<path d="M286.8 49.8324L252.92 44.5844L252.992 44.4404L286.872 49.6884L286.8 49.8324Z" fill="#16F8FE"/>
<path d="M286.728 49.9685L252.848 44.7205L252.92 44.5845L286.8 49.8325L286.728 49.9685Z" fill="#16F9FE"/>
<path d="M286.655 50.1127L252.775 44.8647L252.847 44.7207L286.727 49.9687L286.655 50.1127Z" fill="#16FAFE"/>
<path d="M286.583 50.2563L252.703 45.0083L252.775 44.8643L286.655 50.1123L286.583 50.2563Z" fill="#16FBFE"/>
<path d="M286.511 50.3923L252.631 45.1443L252.703 45.0083L286.583 50.2563L286.511 50.3923Z" fill="#16FCFE"/>
<path d="M286.441 50.5365L252.561 45.2885L252.633 45.1445L286.513 50.3925L286.441 50.5365Z" fill="#17FDFF"/>
<path d="M286.368 50.6806L252.488 45.4326L252.56 45.2886L286.44 50.5366L286.368 50.6806Z" fill="#17FEFF"/>
<path d="M286.294 50.8166L252.414 45.5766L252.486 45.4326L286.366 50.6806L286.294 50.8166Z" fill="#17FFFF"/>
<path d="M286.263 50.8727L252.383 45.6247L252.415 45.5767L286.295 50.8167L286.263 50.8727Z" fill="#17FFFF"/>
<path d="M286.239 50.9205L252.359 45.6725L252.383 45.6245L286.263 50.8725L286.239 50.9205Z" fill="#18FFFF"/>
<path d="M286.214 50.9764L252.334 45.7284L252.358 45.6724L286.238 50.9204L286.214 50.9764Z" fill="#19FFFF"/>
<path d="M286.191 51.0245L252.303 45.7765L252.335 45.7285L286.215 50.9765L286.191 51.0245Z" fill="#1AFEFE"/>
<path d="M286.159 51.0804L252.279 45.8324L252.303 45.7764L286.191 51.0244L286.159 51.0804Z" fill="#1BFEFE"/>
<path d="M286.136 51.1285L252.256 45.8805L252.28 45.8325L286.16 51.0805L286.136 51.1285Z" fill="#1CFEFE"/>
<path d="M286.112 51.1764L252.232 45.9284L252.256 45.8804L286.136 51.1284L286.112 51.1764Z" fill="#1DFEFE"/>
<path d="M286.079 51.2322L252.199 45.9842L252.231 45.9282L286.111 51.1762L286.079 51.2322Z" fill="#1EFEFD"/>
<path d="M286.056 51.2809L252.176 46.0329L252.2 45.9849L286.08 51.2329L286.056 51.2809Z" fill="#1FFDFD"/>
<path d="M286.03 51.3367L252.15 46.0887L252.174 46.0327L286.054 51.2807L286.03 51.3367Z" fill="#20FDFD"/>
<path d="M286.007 51.3844L252.119 46.1364L252.151 46.0884L286.031 51.3364L286.007 51.3844Z" fill="#21FDFD"/>
<path d="M285.976 51.4327L252.096 46.1847L252.12 46.1367L286.008 51.3847L285.976 51.4327Z" fill="#22FDFD"/>
<path d="M285.95 51.4886L252.07 46.2406L252.094 46.1846L285.974 51.4326L285.95 51.4886Z" fill="#23FDFC"/>
<path d="M285.927 51.5367L252.047 46.2887L252.071 46.2407L285.951 51.4887L285.927 51.5367Z" fill="#24FCFC"/>
<path d="M285.894 51.5926L252.014 46.3446L252.046 46.2886L285.926 51.5366L285.894 51.5926Z" fill="#25FCFC"/>
<path d="M285.87 51.6407L251.99 46.3927L252.014 46.3447L285.894 51.5927L285.87 51.6407Z" fill="#26FCFC"/>
<path d="M285.847 51.6886L251.967 46.4406L251.991 46.3926L285.871 51.6406L285.847 51.6886Z" fill="#27FCFB"/>
<path d="M285.823 51.7444L251.943 46.4964L251.967 46.4404L285.847 51.6884L285.823 51.7444Z" fill="#28FCFB"/>
<path d="M285.792 51.7926L251.912 46.5446L251.944 46.4966L285.824 51.7446L285.792 51.7926Z" fill="#29FBFB"/>
<path d="M285.769 51.8484L251.889 46.6004L251.913 46.5444L285.793 51.7924L285.769 51.8484Z" fill="#2AFBFB"/>
<path d="M285.743 51.8966L251.863 46.6486L251.887 46.6006L285.767 51.8486L285.743 51.8966Z" fill="#2BFBFA"/>
<path d="M285.712 51.9444L251.832 46.6964L251.864 46.6484L285.744 51.8964L285.712 51.9444Z" fill="#2CFBFA"/>
<path d="M285.687 52.0003L251.807 46.7523L251.831 46.6963L285.711 51.9443L285.687 52.0003Z" fill="#2EFBFA"/>
<path d="M285.663 52.0484L251.783 46.8004L251.807 46.7524L285.687 52.0004L285.663 52.0484Z" fill="#2FFAFA"/>
<path d="M285.64 52.1048L251.76 46.8568L251.784 46.8008L285.664 52.0488L285.64 52.1048Z" fill="#30FAFA"/>
<path d="M285.607 52.1524L251.727 46.9044L251.759 46.8564L285.639 52.1044L285.607 52.1524Z" fill="#31FAF9"/>
<path d="M285.583 52.2008L251.703 46.9528L251.727 46.9048L285.607 52.1528L285.583 52.2008Z" fill="#32FAF9"/>
<path d="M285.558 52.2566L251.678 47.0086L251.702 46.9526L285.582 52.2006L285.558 52.2566Z" fill="#33F9F9"/>
<path d="M285.526 52.3043L251.646 47.0563L251.678 47.0083L285.558 52.2563L285.526 52.3043Z" fill="#34F9F9"/>
<path d="M285.503 52.3606L251.623 47.1126L251.647 47.0566L285.527 52.3046L285.503 52.3606Z" fill="#35F9F8"/>
<path d="M285.48 52.4083L251.6 47.1603L251.624 47.1123L285.504 52.3603L285.48 52.4083Z" fill="#36F9F8"/>
<path d="M285.456 52.4566L251.576 47.2166L251.6 47.1606L285.48 52.4086L285.456 52.4566Z" fill="#37F9F8"/>
<path d="M285.423 52.5128L251.543 47.2648L251.575 47.2168L285.455 52.4568L285.423 52.5128Z" fill="#38F8F8"/>
<path d="M285.4 52.5606L251.52 47.3126L251.544 47.2646L285.424 52.5126L285.4 52.5606Z" fill="#39F8F8"/>
<path d="M285.376 52.6165L251.496 47.3685L251.52 47.3125L285.4 52.5605L285.376 52.6165Z" fill="#3AF8F7"/>
<path d="M285.351 52.6647L251.463 47.4167L251.495 47.3687L285.375 52.6167L285.351 52.6647Z" fill="#3BF8F7"/>
<path d="M285.319 52.7205L251.439 47.4725L251.463 47.4165L285.351 52.6645L285.319 52.7205Z" fill="#3CF8F7"/>
<path d="M285.294 52.7687L251.414 47.5207L251.438 47.4727L285.318 52.7207L285.294 52.7687Z" fill="#3DF7F7"/>
<path d="M285.271 52.8165L251.391 47.5685L251.415 47.5205L285.295 52.7685L285.271 52.8165Z" fill="#3EF7F6"/>
<path d="M285.239 52.8728L251.359 47.6248L251.391 47.5688L285.271 52.8168L285.239 52.8728Z" fill="#3FF7F6"/>
<path d="M285.214 52.9205L251.334 47.6725L251.358 47.6245L285.238 52.8725L285.214 52.9205Z" fill="#40F7F6"/>
<path d="M285.191 52.9764L251.311 47.7284L251.335 47.6724L285.215 52.9204L285.191 52.9764Z" fill="#41F7F6"/>
<path d="M285.167 53.0245L251.279 47.7765L251.311 47.7285L285.191 52.9765L285.167 53.0245Z" fill="#42F6F5"/>
<path d="M285.136 53.0724L251.256 47.8244L251.28 47.7764L285.168 53.0244L285.136 53.0724Z" fill="#43F6F5"/>
<path d="M285.112 53.1287L251.232 47.8807L251.256 47.8247L285.136 53.0727L285.112 53.1287Z" fill="#44F6F5"/>
<path d="M285.079 53.1844L251.199 47.9364L251.231 47.8804L285.111 53.1284L285.079 53.1844Z" fill="#44F6F5"/>
<path d="M285.056 53.2405L251.168 47.9925L251.2 47.9365L285.08 53.1845L285.056 53.2405Z" fill="#45F6F5"/>
<path d="M285.023 53.2967L251.143 48.0487L251.167 47.9927L285.055 53.2407L285.023 53.2967Z" fill="#46F6F5"/>
<path d="M284.991 53.3603L251.111 48.1123L251.143 48.0483L285.023 53.2963L284.991 53.3603Z" fill="#47F5F4"/>
<path d="M284.966 53.4163L251.078 48.1683L251.11 48.1123L284.99 53.3603L284.966 53.4163Z" fill="#48F5F4"/>
<path d="M284.935 53.4725L251.055 48.2245L251.079 48.1685L284.967 53.4165L284.935 53.4725Z" fill="#49F5F4"/>
<path d="M284.903 53.5286L251.023 48.2806L251.055 48.2246L284.935 53.4726L284.903 53.5286Z" fill="#4AF5F4"/>
<path d="M284.87 53.5848L250.99 48.3368L251.022 48.2808L284.902 53.5288L284.87 53.5848Z" fill="#4BF5F4"/>
<path d="M284.847 53.6484L250.967 48.4004L250.991 48.3364L284.871 53.5844L284.847 53.6484Z" fill="#4CF5F3"/>
<path d="M284.816 53.7049L250.936 48.4569L250.968 48.4009L284.848 53.6489L284.816 53.7049Z" fill="#4DF4F3"/>
<path d="M284.784 53.7605L250.904 48.5125L250.936 48.4565L284.816 53.7045L284.784 53.7605Z" fill="#4EF4F3"/>
<path d="M284.759 53.8162L250.879 48.5682L250.903 48.5122L284.783 53.7602L284.759 53.8162Z" fill="#4FF4F3"/>
<path d="M284.728 53.8724L250.848 48.6244L250.88 48.5684L284.76 53.8164L284.728 53.8724Z" fill="#50F4F3"/>
<path d="M284.694 53.9365L250.814 48.6885L250.846 48.6245L284.726 53.8725L284.694 53.9365Z" fill="#51F4F2"/>
<path d="M284.671 53.9925L250.783 48.7445L250.815 48.6885L284.695 53.9365L284.671 53.9925Z" fill="#52F3F2"/>
<path d="M284.64 54.0486L250.76 48.8006L250.784 48.7446L284.672 53.9926L284.64 54.0486Z" fill="#53F3F2"/>
<path d="M284.607 54.1048L250.727 48.8568L250.759 48.8008L284.639 54.0488L284.607 54.1048Z" fill="#54F3F2"/>
<path d="M284.583 54.1604L250.695 48.9204L250.727 48.8564L284.607 54.1044L284.583 54.1604Z" fill="#55F3F2"/>
<path d="M284.55 54.2244L250.67 48.9764L250.694 48.9204L284.582 54.1604L284.55 54.2244Z" fill="#56F3F1"/>
<path d="M284.519 54.2806L250.639 49.0326L250.671 48.9766L284.551 54.2246L284.519 54.2806Z" fill="#57F3F1"/>
<path d="M284.487 54.3367L250.607 49.0887L250.639 49.0327L284.519 54.2807L284.487 54.3367Z" fill="#59F2F1"/>
<path d="M284.464 54.3924L250.584 49.1444L250.608 49.0884L284.488 54.3364L284.464 54.3924Z" fill="#5AF2F1"/>
<path d="M284.431 54.4565L250.551 49.2085L250.583 49.1445L284.463 54.3925L284.431 54.4565Z" fill="#5BF2F0"/>
<path d="M284.4 54.5125L250.52 49.2645L250.552 49.2085L284.432 54.4565L284.4 54.5125Z" fill="#5CF2F0"/>
<path d="M284.376 54.5682L250.496 49.3202L250.52 49.2642L284.4 54.5122L284.376 54.5682Z" fill="#5DF2F0"/>
<path d="M284.343 54.6248L250.463 49.3768L250.495 49.3208L284.375 54.5688L284.343 54.6248Z" fill="#5EF2F0"/>
<path d="M284.312 54.6805L250.432 49.4325L250.464 49.3765L284.344 54.6245L284.312 54.6805Z" fill="#5FF1F0"/>
<path d="M284.286 54.7446L250.398 49.4966L250.43 49.4326L284.31 54.6806L284.286 54.7446Z" fill="#60F1EF"/>
<path d="M284.255 54.8006L250.375 49.5526L250.399 49.4966L284.287 54.7446L284.255 54.8006Z" fill="#61F1EF"/>
<path d="M284.222 54.8567L250.342 49.6087L250.374 49.5527L284.254 54.8007L284.222 54.8567Z" fill="#62F1EF"/>
<path d="M284.199 54.9124L250.311 49.6644L250.343 49.6084L284.223 54.8564L284.199 54.9124Z" fill="#63F1EF"/>
<path d="M284.167 54.9685L250.287 49.7206L250.311 49.6646L284.199 54.9125L284.167 54.9685Z" fill="#64F0EF"/>
<path d="M284.136 55.0327L250.256 49.7847L250.288 49.7207L284.168 54.9687L284.136 55.0327Z" fill="#65F0EE"/>
<path d="M284.105 55.0887L250.225 49.8407L250.257 49.7847L284.137 55.0327L284.105 55.0887Z" fill="#66F0EE"/>
<path d="M284.079 55.1443L250.199 49.8963L250.223 49.8403L284.103 55.0883L284.079 55.1443Z" fill="#67F0EE"/>
<path d="M284.048 55.2005L250.168 49.9525L250.2 49.8965L284.08 55.1445L284.048 55.2005Z" fill="#68F0EE"/>
<path d="M284.015 55.2566L250.135 50.0086L250.167 49.9526L284.047 55.2006L284.015 55.2566Z" fill="#69F0EE"/>
<path d="M283.991 55.3203L250.111 50.0723L250.135 50.0083L284.015 55.2563L283.991 55.3203Z" fill="#6AEFED"/>
<path d="M283.958 55.3768L250.078 50.1288L250.11 50.0728L283.99 55.3208L283.958 55.3768Z" fill="#6BEFED"/>
<path d="M283.927 55.4324L250.047 50.1844L250.079 50.1284L283.959 55.3764L283.927 55.4324Z" fill="#6CEFED"/>
<path d="M283.886 55.5206L250.006 50.2726L250.046 50.1846L283.926 55.4326L283.886 55.5206Z" fill="#6CEFED"/>
<path d="M283.839 55.6005L249.959 50.3525L250.007 50.2725L283.887 55.5205L283.839 55.6005Z" fill="#6DEFED"/>
<path d="M283.8 55.6885L249.92 50.4405L249.96 50.3525L283.84 55.6005L283.8 55.6885Z" fill="#6EEFED"/>
<path d="M283.751 55.7764L249.871 50.5284L249.919 50.4404L283.799 55.6884L283.751 55.7764Z" fill="#6FEFEC"/>
<path d="M283.712 55.8563L249.832 50.6083L249.872 50.5283L283.752 55.7763L283.712 55.8563Z" fill="#70EEEC"/>
<path d="M283.671 55.9444L249.791 50.6964L249.831 50.6084L283.711 55.8564L283.671 55.9444Z" fill="#71EEEC"/>
<path d="M283.622 56.0243L249.742 50.7763L249.79 50.6963L283.67 55.9443L283.622 56.0243Z" fill="#72EEEC"/>
<path d="M283.583 56.1124L249.703 50.8644L249.743 50.7764L283.623 56.0244L283.583 56.1124Z" fill="#73EEEC"/>
<path d="M283.534 56.2007L249.654 50.9527L249.702 50.8647L283.582 56.1127L283.534 56.2007Z" fill="#74EEEB"/>
<path d="M283.495 56.2806L249.615 51.0326L249.655 50.9526L283.535 56.2006L283.495 56.2806Z" fill="#75EEEB"/>
<path d="M283.448 56.3687L249.568 51.1207L249.616 51.0327L283.496 56.2807L283.448 56.3687Z" fill="#76EDEB"/>
<path d="M283.407 56.4566L249.527 51.2086L249.567 51.1206L283.447 56.3686L283.407 56.4566Z" fill="#77EDEB"/>
<path d="M283.359 56.5365L249.479 51.2885L249.527 51.2085L283.407 56.4565L283.359 56.5365Z" fill="#78EDEB"/>
<path d="M283.319 56.6246L249.439 51.3766L249.479 51.2886L283.359 56.5366L283.319 56.6246Z" fill="#79EDEA"/>
<path d="M283.279 56.7045L249.391 51.4565L249.439 51.3765L283.319 56.6245L283.279 56.7045Z" fill="#7AEDEA"/>
<path d="M283.23 56.7925L249.35 51.5445L249.39 51.4565L283.278 56.7045L283.23 56.7925Z" fill="#7CEDEA"/>
<path d="M283.191 56.8804L249.311 51.6324L249.351 51.5444L283.231 56.7924L283.191 56.8804Z" fill="#7DECEA"/>
<path d="M283.144 56.9608L249.264 51.7128L249.312 51.6328L283.192 56.8808L283.144 56.9608Z" fill="#7EECEA"/>
<path d="M283.105 57.0484L249.225 51.8004L249.265 51.7124L283.145 56.9604L283.105 57.0484Z" fill="#7FECE9"/>
<path d="M283.056 57.1368L249.176 51.8888L249.224 51.8008L283.104 57.0488L283.056 57.1368Z" fill="#80ECE9"/>
<path d="M283.015 57.2167L249.135 51.9687L249.175 51.8887L283.055 57.1367L283.015 57.2167Z" fill="#81ECE9"/>
<path d="M282.968 57.3047L249.088 52.0568L249.136 51.9688L283.016 57.2167L282.968 57.3047Z" fill="#82ECE9"/>
<path d="M282.927 57.3846L249.047 52.1446L249.087 52.0566L282.967 57.3046L282.927 57.3846Z" fill="#83EBE9"/>
<path d="M282.886 57.4725L248.998 52.2245L249.046 52.1445L282.926 57.3845L282.886 57.4725Z" fill="#84EBE8"/>
<path d="M282.839 57.5606L248.959 52.3126L248.999 52.2246L282.887 57.4726L282.839 57.5606Z" fill="#85EBE8"/>
<path d="M282.8 57.6405L248.92 52.3925L248.96 52.3125L282.84 57.5605L282.8 57.6405Z" fill="#86EBE8"/>
<path d="M282.751 57.7286L248.871 52.4806L248.919 52.3926L282.799 57.6406L282.751 57.7286Z" fill="#87EBE8"/>
<path d="M282.712 57.8165L248.832 52.5685L248.872 52.4805L282.752 57.7285L282.712 57.8165Z" fill="#88EBE8"/>
<path d="M282.663 57.8964L248.783 52.6484L248.831 52.5684L282.711 57.8164L282.663 57.8964Z" fill="#89EAE7"/>
<path d="M282.622 57.9844L248.742 52.7364L248.782 52.6484L282.662 57.8964L282.622 57.9844Z" fill="#8AEAE7"/>
<path d="M282.575 58.0648L248.695 52.8248L248.743 52.7368L282.623 57.9848L282.575 58.0648Z" fill="#8BEAE7"/>
<path d="M282.511 58.2007L248.631 52.9527L248.695 52.8247L282.575 58.0647L282.511 58.2007Z" fill="#8BEAE7"/>
<path d="M282.441 58.3366L248.561 53.0886L248.633 52.9526L282.513 58.2006L282.441 58.3366Z" fill="#8CEAE7"/>
<path d="M282.376 58.4724L248.488 53.2244L248.56 53.0884L282.44 58.3364L282.376 58.4724Z" fill="#8DEAE7"/>
<path d="M282.304 58.6086L248.424 53.3606L248.488 53.2246L282.376 58.4726L282.304 58.6086Z" fill="#8EE9E6"/>
<path d="M282.23 58.7444L248.35 53.4964L248.422 53.3604L282.302 58.6084L282.23 58.7444Z" fill="#8FE9E6"/>
<path d="M282.167 58.8806L248.287 53.6326L248.351 53.4966L282.231 58.7446L282.167 58.8806Z" fill="#90E9E6"/>
<path d="M282.095 59.0088L248.215 53.7608L248.287 53.6328L282.167 58.8808L282.095 59.0088Z" fill="#91E9E6"/>
<path d="M282.023 59.1443L248.143 53.8963L248.215 53.7603L282.095 59.0083L282.023 59.1443Z" fill="#92E9E5"/>
<path d="M281.959 59.2805L248.407 54.0805L248.119 53.9445L248.143 53.8965L282.023 59.1445L281.959 59.2805Z" fill="#93E8E5"/>
<path d="M281.886 59.4166L248.822 54.2966L248.406 54.0806L281.958 59.2806L281.886 59.4166Z" fill="#94E8E5"/>
<path d="M281.824 59.5524L249.24 54.5044L248.824 54.2964L281.888 59.4164L281.824 59.5524Z" fill="#95E8E5"/>
<path d="M281.752 59.6884L249.656 54.7124L249.24 54.5044L281.824 59.5524L281.752 59.6884Z" fill="#97E8E4"/>
<path d="M281.678 59.8164L250.078 54.9284L249.654 54.7124L281.75 59.6884L281.678 59.8164Z" fill="#98E8E4"/>
<path d="M281.614 59.9522L250.494 55.1362L250.078 54.9282L281.678 59.8162L281.614 59.9522Z" fill="#99E8E4"/>
<path d="M281.544 60.0887L250.912 55.3447L250.496 55.1367L281.616 59.9527L281.544 60.0887Z" fill="#9AE7E4"/>
<path d="M281.472 60.2247L251.328 55.5527L250.912 55.3447L281.544 60.0887L281.472 60.2247Z" fill="#9BE7E3"/>
<path d="M281.406 60.3607L251.75 55.7687L251.326 55.5527L281.47 60.2247L281.406 60.3607Z" fill="#9CE7E3"/>
<path d="M281.334 60.4966L252.166 55.9766L251.75 55.7686L281.406 60.3606L281.334 60.4966Z" fill="#9DE7E3"/>
<path d="M281.264 60.6326L252.584 56.1846L252.168 55.9766L281.336 60.4966L281.264 60.6326Z" fill="#9EE7E3"/>
<path d="M281.2 60.7606L253 56.4006L252.584 56.1846L281.264 60.6326L281.2 60.7606Z" fill="#9FE6E2"/>
<path d="M281.126 60.8969L253.422 56.6089L252.998 56.4009L281.198 60.7609L281.126 60.8969Z" fill="#A0E6E2"/>
<path d="M281.064 61.0324L253.84 56.8164L253.424 56.6084L281.128 60.8964L281.064 61.0324Z" fill="#A1E6E2"/>
<path d="M280.944 61.2649L254.544 57.1769L253.84 56.8169L281.064 61.0329L280.944 61.2649Z" fill="#A1E6E2"/>
<path d="M280.823 61.4883L255.255 57.5283L254.543 57.1763L280.943 61.2643L280.823 61.4883Z" fill="#A2E6E2"/>
<path d="M280.712 61.7203L255.96 57.8803L255.256 57.5283L280.824 61.4883L280.712 61.7203Z" fill="#A3E6E2"/>
<path d="M280.591 61.9444L256.663 58.2404L255.959 57.8804L280.711 61.7204L280.591 61.9444Z" fill="#A4E5E1"/>
<path d="M280.478 62.1767L257.374 58.5927L256.662 58.2407L280.59 61.9447L280.478 62.1767Z" fill="#A5E5E1"/>
<path d="M280.359 62.4003L258.079 58.9523L257.375 58.5923L280.479 62.1763L280.359 62.4003Z" fill="#A6E5E1"/>
<path d="M280.238 62.6326L258.79 59.3046L258.078 58.9526L280.358 62.4006L280.238 62.6326Z" fill="#A8E5E1"/>
<path d="M280.127 62.8567L259.495 59.6647L258.791 59.3047L280.239 62.6327L280.127 62.8567Z" fill="#A9E4E0"/>
<path d="M280.008 63.0885L260.2 60.0165L259.496 59.6646L280.128 62.8565L280.008 63.0885Z" fill="#AAE4E0"/>
<path d="M279.887 63.3126L260.911 60.3766L260.199 60.0166L280.007 63.0886L279.887 63.3126Z" fill="#ABE4E0"/>
<path d="M279.776 63.5445L261.616 60.7285L260.912 60.3765L279.888 63.3125L279.776 63.5445Z" fill="#ACE4E0"/>
<path d="M279.655 63.7685L262.327 61.0885L261.615 60.7285L279.775 63.5445L279.655 63.7685Z" fill="#ADE3DF"/>
<path d="M279.542 64.0004L263.03 61.4404L262.326 61.0884L279.654 63.7684L279.542 64.0004Z" fill="#AEE3DF"/>
<path d="M279.167 64.7204L265.279 62.5684L263.031 61.4404L279.543 64.0004L279.167 64.7204Z" fill="#AEE3DF"/>
<path d="M278.799 65.4488L267.527 63.7048L265.279 62.5688L279.167 64.7208L278.799 65.4488Z" fill="#AFE3DF"/>
<path d="M278.423 66.1766L269.775 64.8326L267.527 63.7046L278.799 65.4486L278.423 66.1766Z" fill="#B1E3DF"/>
<path d="M278.055 66.8965L272.023 65.9605L269.775 64.8325L278.423 66.1765L278.055 66.8965Z" fill="#B2E3DF"/>
<path d="M277.687 67.6245L274.271 67.0965L272.023 65.9604L278.055 66.8965L277.687 67.6245Z" fill="#B3E3DF"/>
</g>
<path d="M263.177 45.5689C264.737 45.0809 265.961 43.9209 267.505 43.6009C268.241 43.3449 269.025 43.4489 269.681 43.8009C270.337 44.1529 270.873 44.7529 271.041 45.4889C270.153 45.5449 269.457 46.1529 269.329 47.1049C269.377 48.0809 270.161 48.8089 271.121 48.2329C271.881 47.8009 272.281 46.8009 271.953 45.9609C272.289 46.0889 272.625 46.2329 272.841 46.5209C274.057 47.9209 274.585 49.9369 274.081 51.7209C274.081 51.7769 274.097 51.8329 274.137 51.8969L274.313 51.9209C274.393 51.9209 274.409 51.8489 274.409 51.8489C275.025 49.9049 274.313 46.1049 271.905 45.5929C271.593 44.6649 270.905 43.8649 270.097 43.3129C269.017 42.8089 267.873 42.8409 266.825 43.3129C265.537 43.7529 264.305 44.3769 263.137 45.1049C262.761 45.2329 262.865 45.7769 263.161 45.5529L263.177 45.5689ZM271.313 46.0569C271.441 46.4329 271.465 46.8649 271.337 47.2089C271.209 47.5449 270.457 48.4969 270.049 47.6489C269.721 46.8169 270.521 46.1289 271.329 46.0569H271.321H271.313Z" fill="#3E4150"/>
<path d="M274.792 51.5607C274.968 51.5047 275.24 51.5367 275.392 51.7367C275.544 51.9367 275.512 52.1927 275.392 52.3607C273.968 53.7527 272.48 54.9607 270.848 55.9767L265.92 59.8087C265.72 59.9607 265.464 59.9287 265.312 59.7287C265.16 59.5287 265.2 59.2727 265.312 59.1047C266.896 57.8167 268.496 56.4567 270.168 55.1687C271.672 53.8807 273.24 52.6727 274.8 51.5607H274.792Z" fill="#1F272C"/>
<path d="M274.207 51.0005C273.807 51.2965 273.647 51.8885 273.759 52.3525C273.863 52.8965 274.343 53.2245 274.863 53.3045C275.383 53.3765 275.951 53.0965 276.175 52.6885C276.407 52.2805 276.399 51.6565 276.015 51.2565C275.791 50.9605 275.455 50.8325 275.111 50.7765C274.759 50.7285 274.479 50.8725 274.199 51.0085L274.207 51.0005Z" fill="#1F272C"/>
<path d="M263.784 44.321C263.816 44.065 263.664 43.865 263.408 43.825C263.152 43.785 262.96 43.849 262.832 44.097C262.136 45.937 261.624 47.817 261.28 49.713L259.76 55.761C259.728 56.017 259.872 56.217 260.136 56.257C260.4 56.305 260.584 56.233 260.712 55.985C261.256 53.945 261.864 52.001 262.408 49.961C263.008 48.097 263.448 46.225 263.784 44.321Z" fill="#1F272C"/>
<path d="M264.36 45.2891C264.312 45.6411 264.016 45.8651 263.728 46.0891C263.448 46.2251 263.08 46.2651 262.744 46.2171C262.24 46.0651 261.856 45.6571 261.752 45.1131C261.648 44.5691 261.896 44.0811 262.376 43.7851C262.856 43.5051 263.384 43.5611 263.856 43.9051C264.328 44.3291 264.536 44.7851 264.368 45.2891H264.36Z" fill="#1F272C"/>
<g opacity="0.7">
<path d="M266.665 32.0971C268.769 31.4971 270.665 31.7211 270.929 32.6091C271.193 33.4971 269.785 34.6971 267.681 35.2971C265.577 35.8971 263.681 35.6731 263.417 34.7851C263.153 33.8971 264.561 32.6971 266.665 32.0971Z" fill="#DDF0EE"/>
</g>
<path d="M245.735 104.825L240.295 102.617L244.295 95.1369L248.391 82.7129L253.823 84.9129L248.087 96.6809L245.743 104.825H245.735Z" fill="#003147"/>
<path d="M241.352 47.8245C241.64 47.2405 242.416 47.0165 243.08 47.3445L283.336 66.8405C283.992 67.1605 284.28 67.9125 283.992 68.4965L273.728 101.937C273.44 102.521 272.664 102.745 272 102.417L222.656 77.0565C222 76.7365 221.712 75.9845 222 75.4005L241.344 47.8245H241.352Z" fill="#9A9A9A"/>
<path d="M270.2 86.377C269.688 87.153 268.552 87.321 267.336 86.521L234.504 65.473C233.272 64.689 232.768 63.465 233.28 62.689L238.072 55.369C238.584 54.593 239.84 54.681 241.056 55.457C241.056 55.457 246.712 57.361 257.808 64.433C268.896 71.505 273.904 76.505 273.904 76.505C275.136 77.289 275.52 78.265 275.008 79.041L270.216 86.361H270.2V86.377Z" fill="#B5E3F6"/>
<path d="M211.088 159.665C211.296 159.409 232.944 134.777 235.488 111.929L242.6 112.721C239.816 137.721 215.328 162.353 214.424 163.441L211.088 159.665Z" fill="#003147"/>
<path d="M221.434 150.801C219.33 149.625 218.362 147.329 219.282 145.697C220.202 144.065 222.658 143.681 224.762 144.865C226.866 146.041 227.834 148.337 226.914 149.969C225.994 151.601 223.538 151.985 221.434 150.801Z" fill="#049BD8"/>
<path d="M210.592 155.921C206.856 153.825 202.864 153.793 201.096 155.713L215.736 163.913C216.376 161.369 214.256 157.977 210.592 155.921Z" fill="#049BD8"/>
<path d="M201.088 155.697C200.888 155.881 200.76 156.113 200.592 156.417L215.384 164.705C215.512 164.473 215.568 164.209 215.736 163.905L201.096 155.705H201.088V155.697Z" fill="#003147"/>
<path d="M226.759 90.2412C226.759 90.2412 222.623 88.7532 219.631 89.8652C214.423 91.7932 225.679 101.801 225.711 101.617C226.559 97.2092 225.775 94.5932 226.751 90.2412H226.759Z" fill="#003147"/>
<path d="M262.918 156.144C251.725 151.97 242.659 134.793 241.542 132.611L247.172 129.733C251.303 137.801 260.511 150.642 267.64 150.733C270.62 150.773 273.443 148.39 276.016 143.67L281.572 146.696C277.786 153.642 273.068 157.129 267.552 157.062C265.975 157.045 264.43 156.712 262.914 156.153L262.918 156.144Z" fill="#003147"/>
<path d="M278.437 150.474C281.389 153.511 285.158 154.663 287.378 153.344L275.811 141.445C274.499 143.692 275.538 147.493 278.433 150.462L278.437 150.474Z" fill="#049BD8"/>
<path d="M287.376 153.343C287.625 153.222 287.812 153.041 288.055 152.807L276.365 140.788C276.178 140.969 276.052 141.21 275.805 141.452L287.372 153.351L287.376 153.343Z" fill="#003147"/>
<path d="M259.969 151.383C258.115 152.878 255.658 152.919 254.488 151.473C253.318 150.027 253.877 147.638 255.734 146.134C257.588 144.639 260.045 144.598 261.215 146.044C262.385 147.49 261.826 149.88 259.969 151.383Z" fill="#049BD8"/>
<mask id="mask1_657_4512" style="mask-type:luminance" maskUnits="userSpaceOnUse" x="222" y="88" width="54" height="56">
<path d="M260.481 142.369C260.393 142.633 260.193 142.913 259.905 143.137C259.609 143.241 259.313 143.361 258.929 143.281C243.353 137.961 238.593 135.841 222.705 129.033C222.057 128.873 221.849 128.281 222.137 127.737C229.241 113.857 225.689 103.265 225.497 89.4171C225.449 89.0491 225.529 88.7851 225.753 88.6251C225.985 88.4651 226.225 88.4331 226.537 88.4411C242.457 92.0571 258.361 95.6731 274.329 99.2251C274.593 99.3131 274.929 99.4491 275.097 99.8011C275.257 100.033 275.321 100.393 275.297 100.705C270.897 114.729 266.257 128.801 260.481 142.353V142.369Z" fill="white"/>
</mask>
<g mask="url(#mask1_657_4512)">
<path d="M273.993 105.953L224.033 94.7053L225.937 87.1133L275.593 99.5453L273.993 105.953Z" fill="#C9C9C8"/>
<path d="M273.872 106.433L223.912 95.1931L224.032 94.7051L273.992 105.953L273.872 106.433Z" fill="#C9C9C8"/>
<path d="M273.745 106.921L223.793 95.6734L223.913 95.1934L273.873 106.433L273.745 106.921Z" fill="#C8C8C7"/>
<path d="M273.624 107.401L223.672 96.1613L223.792 95.6733L273.744 106.921L273.624 107.401Z" fill="#C7C7C6"/>
<path d="M273.505 107.881L223.553 96.6411L223.673 96.1611L273.625 107.401L273.505 107.881Z" fill="#C6C6C5"/>
<path d="M273.386 108.37L223.434 97.1216L223.554 96.6416L273.506 107.882L273.386 108.37Z" fill="#C5C5C4"/>
<path d="M273.265 108.849L223.305 97.6091L223.433 97.1211L273.385 108.369L273.265 108.849Z" fill="#C4C4C3"/>
<path d="M273.144 109.337L223.184 98.0894L223.304 97.6094L273.264 108.849L273.144 109.337Z" fill="#C3C3C2"/>
<path d="M273.024 109.817L223.064 98.5774L223.184 98.0894L273.144 109.337L273.024 109.817Z" fill="#C2C2C1"/>
<path d="M272.903 110.305L222.943 99.0571L223.063 98.5771L273.023 109.817L272.903 110.305Z" fill="#C1C1C0"/>
<path d="M272.776 110.786L222.824 99.5456L222.944 99.0576L272.904 110.306L272.776 110.786Z" fill="#C0C0BF"/>
<path d="M272.657 111.273L222.705 100.025L222.825 99.5454L272.777 110.785L272.657 111.273Z" fill="#BFBFBE"/>
<path d="M272.536 111.753L222.584 100.513L222.704 100.025L272.656 111.273L272.536 111.753Z" fill="#BEBEBD"/>
<path d="M272.417 112.241L222.457 100.993L222.585 100.513L272.537 111.753L272.417 112.241Z" fill="#BDBDBC"/>
<path d="M272.296 112.721L222.336 101.473L222.456 100.993L272.416 112.241L272.296 112.721Z" fill="#BCBCBB"/>
<path d="M272.177 113.202L222.217 101.962L222.337 101.474L272.297 112.722L272.177 113.202Z" fill="#BBBBBA"/>
<path d="M272.058 113.689L222.098 102.441L222.218 101.961L272.178 113.201L272.058 113.689Z" fill="#BABAB9"/>
<path d="M271.928 114.169L221.976 102.929L222.096 102.441L272.056 113.689L271.928 114.169Z" fill="#B9B9B8"/>
<path d="M271.807 114.657L221.855 103.409L221.975 102.929L271.927 114.169L271.807 114.657Z" fill="#B8B8B7"/>
<path d="M271.688 115.137L221.736 103.897L221.856 103.409L271.808 114.657L271.688 115.137Z" fill="#B7B7B6"/>
<path d="M271.569 115.625L221.617 104.377L221.737 103.897L271.689 115.137L271.569 115.625Z" fill="#B6B6B5"/>
<path d="M271.448 116.105L221.488 104.865L221.616 104.377L271.568 115.625L271.448 116.105Z" fill="#B5B5B4"/>
<path d="M271.329 116.593L221.369 105.345L221.489 104.865L271.449 116.105L271.329 116.593Z" fill="#B4B4B3"/>
<path d="M271.208 117.073L221.248 105.833L221.368 105.345L271.328 116.593L271.208 117.073Z" fill="#B3B3B2"/>
<path d="M271.081 117.561L221.129 106.313L221.249 105.833L271.209 117.073L271.081 117.561Z" fill="#B2B2B1"/>
<path d="M270.96 118.041L221.008 106.793L221.128 106.313L271.08 117.561L270.96 118.041Z" fill="#B1B1B0"/>
<path d="M270.841 118.521L220.889 107.281L221.009 106.793L270.961 118.041L270.841 118.521Z" fill="#B0B0AF"/>
<path d="M270.722 119.009L220.77 107.761L220.89 107.281L270.842 118.521L270.722 119.009Z" fill="#AFAFAE"/>
<path d="M270.601 119.489L220.641 108.249L220.769 107.761L270.721 119.009L270.601 119.489Z" fill="#AEAEAD"/>
<path d="M270.48 119.978L220.52 108.73L220.64 108.25L270.6 119.49L270.48 119.978Z" fill="#ADADAC"/>
<path d="M270.36 120.457L220.4 109.217L220.52 108.729L270.48 119.977L270.36 120.457Z" fill="#ACACAB"/>
<path d="M270.231 120.945L220.279 109.697L220.399 109.217L270.359 120.457L270.231 120.945Z" fill="#ABABAA"/>
<path d="M270.112 121.425L220.16 110.185L220.28 109.697L270.232 120.945L270.112 121.425Z" fill="#AAAAA9"/>
<path d="M269.993 121.913L220.041 110.665L220.161 110.185L270.113 121.425L269.993 121.913Z" fill="#A9A9A8"/>
<path d="M269.872 122.393L219.92 111.153L220.04 110.665L269.992 121.913L269.872 122.393Z" fill="#A8A8A7"/>
<path d="M269.753 122.873L219.793 111.633L219.921 111.153L269.873 122.393L269.753 122.873Z" fill="#A7A7A6"/>
<path d="M269.632 123.361L219.672 112.113L219.792 111.633L269.752 122.873L269.632 123.361Z" fill="#A6A6A5"/>
<path d="M269.513 123.841L219.553 112.601L219.673 112.113L269.633 123.361L269.513 123.841Z" fill="#A5A5A4"/>
<path d="M269.386 124.329L219.434 113.081L219.554 112.601L269.514 123.841L269.386 124.329Z" fill="#A5A5A4"/>
<path d="M269.264 124.809L219.312 113.569L219.432 113.081L269.384 124.329L269.264 124.809Z" fill="#A2A2A2"/>
<path d="M269.143 125.297L219.191 114.049L219.311 113.569L269.263 124.809L269.143 125.297Z" fill="#A1A1A1"/>
<path d="M269.024 125.777L219.072 114.537L219.192 114.049L269.144 125.297L269.024 125.777Z" fill="#A0A0A0"/>
<path d="M268.903 126.265L218.943 115.017L219.071 114.537L269.023 125.777L268.903 126.265Z" fill="#9F9F9F"/>
<path d="M268.784 126.745L218.824 115.505L218.944 115.017L268.904 126.265L268.784 126.745Z" fill="#9E9E9E"/>
<path d="M268.665 127.233L218.705 115.985L218.825 115.505L268.785 126.745L268.665 127.233Z" fill="#9D9D9D"/>
<path d="M268.536 127.713L218.584 116.473L218.704 115.985L268.664 127.233L268.536 127.713Z" fill="#9C9C9C"/>
<path d="M268.417 128.194L218.465 116.954L218.585 116.474L268.537 127.714L268.417 128.194Z" fill="#9B9B9B"/>
<path d="M268.296 128.681L218.344 117.433L218.464 116.953L268.416 128.193L268.296 128.681Z" fill="#9A9A9A"/>
<path d="M268.177 129.161L218.225 117.921L218.345 117.433L268.297 128.681L268.177 129.161Z" fill="#999999"/>
<path d="M268.058 129.649L218.098 118.401L218.226 117.921L268.178 129.161L268.058 129.649Z" fill="#989898"/>
<path d="M267.936 130.129L217.976 118.889L218.096 118.401L268.056 129.649L267.936 130.129Z" fill="#979797"/>
<path d="M267.815 130.618L217.855 119.37L217.975 118.89L267.935 130.13L267.815 130.618Z" fill="#969696"/>
<path d="M267.696 131.097L217.736 119.857L217.856 119.369L267.816 130.617L267.696 131.097Z" fill="#959595"/>
<path d="M267.569 131.585L217.617 120.337L217.737 119.857L267.697 131.097L267.569 131.585Z" fill="#949494"/>
<path d="M267.448 132.065L217.496 120.825L217.616 120.337L267.568 131.585L267.448 132.065Z" fill="#939393"/>
<path d="M267.329 132.553L217.377 121.305L217.497 120.825L267.449 132.065L267.329 132.553Z" fill="#929292"/>
<path d="M267.208 133.034L217.256 121.786L217.376 121.306L267.328 132.554L267.208 133.034Z" fill="#919191"/>
<path d="M267.089 133.513L217.129 122.273L217.257 121.785L267.209 133.033L267.089 133.513Z" fill="#909090"/>
<path d="M266.968 134.001L217.008 122.753L217.128 122.273L267.088 133.513L266.968 134.001Z" fill="#8F8F8F"/>
<path d="M266.849 134.481L216.889 123.241L217.009 122.753L266.969 134.001L266.849 134.481Z" fill="#8E8E8E"/>
<path d="M266.722 134.969L216.77 123.721L216.89 123.241L266.85 134.481L266.722 134.969Z" fill="#8D8D8D"/>
<path d="M266.6 135.449L216.648 124.209L216.768 123.721L266.72 134.969L266.6 135.449Z" fill="#8C8C8C"/>
<path d="M266.479 135.937L216.527 124.689L216.647 124.209L266.599 135.449L266.479 135.937Z" fill="#8B8B8B"/>
<path d="M266.36 136.417L216.408 125.177L216.528 124.689L266.48 135.937L266.36 136.417Z" fill="#8A8A8A"/>
<path d="M266.239 136.905L216.279 125.657L216.407 125.177L266.359 136.417L266.239 136.905Z" fill="#898989"/>
<path d="M266.12 137.385L216.16 126.145L216.28 125.657L266.24 136.905L266.12 137.385Z" fill="#888888"/>
<path d="M266.001 137.874L216.041 126.626L216.161 126.146L266.121 137.386L266.001 137.874Z" fill="#878787"/>
<path d="M265.872 138.353L215.92 127.105L216.04 126.625L266 137.873L265.872 138.353Z" fill="#868686"/>
<path d="M265.753 138.833L215.801 127.593L215.921 127.105L265.873 138.353L265.753 138.833Z" fill="#858585"/>
<path d="M265.632 139.321L215.68 128.073L215.8 127.593L265.752 138.833L265.632 139.321Z" fill="#848484"/>
<path d="M265.513 139.801L215.561 128.561L215.681 128.073L265.633 139.321L265.513 139.801Z" fill="#838383"/>
<path d="M265.394 140.29L215.434 129.042L215.562 128.562L265.514 139.802L265.394 140.29Z" fill="#828282"/>
<path d="M265.272 140.77L215.312 129.53L215.432 129.042L265.392 140.29L265.272 140.77Z" fill="#818181"/>
<path d="M265.151 141.257L215.191 130.009L215.311 129.529L265.271 140.769L265.151 141.257Z" fill="#808080"/>
<path d="M215.192 130.009L265.152 141.257L264.304 144.625L214.648 132.193L215.192 130.009Z" fill="#808080"/>
</g>
<path d="M236.816 100.753C245.296 102.673 251.808 104.425 260.216 106.409C262.472 106.881 263.976 109.401 263.464 111.865C262.96 114.313 260.696 115.905 258.552 115.409C250.272 113.521 243.824 111.825 235.552 109.945C233.296 109.473 231.936 107.049 232.304 104.489C232.528 101.825 234.528 100.161 236.808 100.753H236.816Z" fill="#004361"/>
<path d="M238.881 105.969C238.753 107.097 237.937 108.049 236.841 108.249C235.761 108.449 234.665 107.857 234.041 106.953C233.393 105.929 233.297 104.617 233.857 103.705C234.337 102.737 235.377 102.273 236.489 102.537C238.049 102.801 239.129 104.369 238.881 105.969Z" fill="#B2E2F4"/>
<path d="M261.849 111.409C261.585 112.945 260.153 113.857 258.857 113.545C257.489 113.193 256.585 111.753 256.857 110.217C257.121 108.681 258.473 107.729 259.849 108.081C261.217 108.433 262.121 109.873 261.849 111.409Z" fill="#B2E2F4"/>
<path d="M225.679 117.833C225.479 118.345 225.559 118.689 225.359 119.201C238.695 123.273 251.431 127.649 264.767 131.729C264.967 131.225 265.007 130.945 265.271 130.369C251.887 126.361 239.015 121.897 225.679 117.833Z" fill="#3E4150"/>
<path d="M224.489 122.025C237.761 126.033 250.289 130.905 263.553 134.921C263.753 134.417 263.777 134.209 263.977 133.697C250.713 129.689 238.289 124.641 224.969 120.705C224.769 121.217 224.681 121.537 224.465 122.041H224.481L224.489 122.025Z" fill="#3E4150"/>
<path d="M223.488 124.713C236.752 128.721 249.04 133.993 262.312 138.009C262.512 137.497 262.584 137.273 262.832 136.689C249.568 132.681 237.296 127.329 224.096 123.369C223.84 123.929 223.688 124.201 223.488 124.697V124.713Z" fill="#3E4150"/>
<path d="M261.544 72.9288C262.256 72.3608 264.448 72.2728 265.824 73.8088C267.192 75.3528 267.328 77.1208 267.328 77.1208C267.328 77.1208 267.512 79.2888 266.768 77.5288C266.024 75.7688 265.072 74.3928 263.08 73.7928C262.136 73.5128 260.832 73.4808 261.544 72.9208V72.9288Z" fill="#004361"/>
<path d="M259.792 79.0728C258.288 79.0328 255.032 78.5848 251.96 77.1928C247.952 75.3688 245.96 73.0728 245.608 72.0408C245.44 71.5608 245.688 70.8728 245.968 70.2808C245.84 70.2968 245.712 70.3128 245.56 70.3208C242.416 70.8328 242.952 75.2648 244.168 77.6248C245.4 79.9688 250.536 83.7288 254.744 84.1368C258.4 84.4968 260.68 81.5848 259.792 79.0648L259.808 79.0808L259.792 79.0728Z" fill="#BD2A1D"/>
<path d="M245.601 72.0409C245.953 73.0809 247.961 75.3529 251.953 77.1929C255.041 78.6009 258.289 79.0329 259.793 79.0729C259.665 78.6889 259.449 78.3289 259.169 77.9609C257.617 76.0809 253.417 75.4809 251.065 73.9609C248.825 72.4969 248.489 70.0889 245.985 70.2569C245.673 70.8489 245.457 71.5369 245.625 72.0169L245.609 72.0329L245.601 72.0409Z" fill="#F6F6F7"/>
<path d="M275.937 99.9129C275.937 99.9129 281.713 99.1209 284.793 101.009C288.721 103.305 283.185 109.017 280.697 110.281C276.017 112.641 270.265 112.113 270.329 111.433C270.817 106.409 271.561 101.969 275.937 99.9129Z" fill="#003147"/>
<path d="M241.152 13.9849C235.288 18.8169 230.048 13.4729 230.352 12.5929L227.824 12.1289C227.92 12.9049 228.128 14.4009 228.496 15.3129C229.584 17.9929 232.568 19.7929 235.776 19.8809C238.776 19.9609 242.8 18.9289 244.544 16.4409C245.712 14.7609 243.232 12.2729 241.16 13.9849H241.152Z" fill="#003351"/>
<path d="M232.951 0.608864C226.519 3.97686 226.703 9.45686 226.655 10.0729C226.439 12.7609 228.376 14.8569 228.336 14.9369L230.712 13.8249C230.712 13.8249 229.255 9.83286 233.383 7.11286C234.535 6.35286 237.399 5.64086 238.639 5.01686C239.551 4.55286 240.223 3.48886 239.791 2.36886C239.423 1.42486 238.423 0.640864 237.431 0.312864C235.815 -0.231136 234.167 -0.0231364 232.967 0.608864H232.951Z" fill="#003351"/>
<path d="M247.633 65.4568C247.689 64.5528 246.497 62.7048 244.457 62.4568C242.417 62.2088 240.881 63.1208 240.881 63.1208C240.881 63.1208 239.001 64.2248 240.873 63.8168C242.737 63.4168 244.417 63.4088 246.049 64.6968C246.825 65.3048 247.577 66.3608 247.633 65.4568Z" fill="#004361"/>
<path d="M79.0797 74.0729C74.5597 75.8489 69.8957 77.1849 63.8397 77.5129C57.9597 77.8409 52.7677 75.1929 50.7197 70.5209C48.3277 65.0569 50.1597 58.0489 55.2877 53.0649C56.0957 52.2969 56.9677 51.5289 57.8877 50.8169L61.3357 55.2649C60.5757 55.8569 59.8637 56.4729 59.2157 57.1049C55.2237 60.9769 54.6637 65.4969 55.8797 68.2649C56.9757 70.7769 60.5997 71.4569 64.1357 71.2649C69.5517 70.9689 72.2557 69.8969 76.1837 68.3529L79.0957 74.0809L79.0797 74.0729Z" fill="#0AC47D"/>
<path d="M136.25 64.6327C142.01 63.4247 147.058 58.8887 147.826 53.8407C148.722 47.9527 145.146 41.6487 138.906 38.1607C137.938 37.6247 136.89 37.1127 135.818 36.6567L133.634 41.8407C134.522 42.2087 135.37 42.6247 136.162 43.0647C141.018 45.7767 142.722 50.0087 142.266 52.9847C141.85 55.6967 138.706 57.6007 135.242 58.3207C129.938 59.4247 126.034 58.0567 121.842 57.5767L120.514 64.3447C125.346 64.8887 130.306 65.8727 136.25 64.6247V64.6327Z" fill="#0AC47D"/>
<path d="M120.696 81.0171L87.9355 95.6811L93.0475 99.1371L114.128 92.8251L121.616 86.9211L120.696 81.0171Z" fill="#C63539"/>
<path d="M144.345 93.6729L146.249 95.7289C130.273 112.113 112.385 89.3049 112.385 89.3049L125.657 88.7529C131.265 102.521 144.345 93.6729 144.345 93.6729Z" fill="#AF714A"/>
<path d="M84.416 119.561C86.464 108.161 94.28 94.6567 94.28 94.6567L105.16 96.2887C93.944 105.209 88.112 119.089 88.112 119.089L84.416 119.561Z" fill="#AF714A"/>
<path d="M121.785 57.0891C124.169 62.1051 110.745 68.6731 98.1849 71.3291C89.2409 73.2171 78.3528 70.3611 76.6888 68.6971C75.1928 67.2091 72.7288 61.9691 72.5528 59.9451C71.8728 52.0251 72.1769 41.6011 93.7849 36.8571C105.593 34.2651 117.409 37.4571 121.561 48.8331C121.793 49.4811 121.585 56.4091 121.777 57.0891H121.785Z" fill="#AF714A"/>
<path d="M83.2476 94.993C83.2476 94.993 87.0556 94.889 91.4556 94.873C96.7116 94.849 116.904 90.305 116.904 90.305C116.904 90.289 116.904 90.265 116.896 90.249C119.392 89.689 128.032 85.945 127.904 85.825C121.984 79.857 123.944 78.145 122.888 67.833C122.168 60.849 122.056 56.417 122.056 56.417C122.08 56.577 121.552 56.633 120.824 56.833C120 57.057 121.04 57.417 120.232 58.297C118.608 60.081 118.264 60.897 117.512 61.473C113.624 64.473 112.6 65.369 105.664 68.433C92.3596 74.305 84.5276 70.721 82.6476 70.369C77.6476 69.425 75.2236 67.177 75.5436 67.889C78.2236 73.809 79.5116 76.129 81.3516 80.953C84.3036 88.681 83.7596 94.881 83.2476 95.009V94.993Z" fill="#0AC47D"/>
<path d="M103.584 57.6248C103.584 56.7128 104.888 54.9528 106.944 54.8328C109 54.7288 110.472 55.7288 110.472 55.7288C110.472 55.7288 112.28 56.9448 110.44 56.4248C108.6 55.9048 106.936 55.7848 105.216 56.9688C104.408 57.5288 103.568 58.5288 103.576 57.6248H103.584Z" fill="#56182F"/>
<path d="M90.6397 59.273C90.4717 58.377 88.8717 56.881 86.8317 57.137C84.7917 57.393 83.5197 58.649 83.5197 58.649C83.5197 58.649 81.9677 60.169 83.6797 59.329C85.3917 58.489 87.0237 58.073 88.9117 58.929C89.8077 59.337 90.7997 60.169 90.6317 59.273H90.6397Z" fill="#56182F"/>
<path d="M93.9604 67.665C94.5204 67.097 95.6404 66.273 97.7284 65.801C99.8324 65.321 101.936 65.241 103.2 65.305C104.928 63.785 105.488 61.993 105.192 61.377C105.032 61.033 104.752 60.753 104.352 60.561C104.104 61.097 103.184 62.353 99.9044 63.209C95.6484 64.321 93.1204 64.265 91.7684 63.713C90.5604 63.225 89.4084 62.569 89.2564 61.257C88.5524 61.313 88.0244 61.625 87.9444 62.401C87.6484 65.017 89.2404 67.257 93.9684 67.665H93.9604Z" fill="#BD2A1D"/>
<path d="M99.9122 63.2168C103.192 62.3608 104.112 61.1048 104.36 60.5688C103.464 60.1448 102.016 60.2008 100.088 61.1208C97.3122 62.4488 95.0082 62.5848 93.1122 62.0408C91.9522 61.7128 90.3522 61.1768 89.2402 61.2568C89.4002 62.5768 90.5522 63.2248 91.7522 63.7128C93.1042 64.2568 95.6162 64.3128 99.8882 63.2088H99.8962L99.9122 63.2168Z" fill="#F5F5F6"/>
<path d="M97.7367 65.8008C95.6487 66.2648 94.5287 67.1048 93.9688 67.6648C94.7767 67.7368 95.6567 67.7528 96.6487 67.7128C99.6887 67.5848 101.817 66.5288 103.201 65.3048C101.953 65.2408 99.8328 65.3208 97.7288 65.8008H97.7367Z" fill="#BD2A1D"/>
<path d="M78.9054 34.2249C96.7534 21.4809 120.673 29.2409 122.801 48.9449C122.937 50.2409 122.337 58.9129 120.505 59.1449C118.889 59.3529 120.521 55.9849 120.561 55.4649C120.625 54.6889 120.257 53.6649 119.329 54.1369C118.849 54.3769 118.665 54.7689 118.113 54.9369C117.649 55.0729 117.081 55.2009 116.641 54.9049C115.481 54.1369 116.537 52.6329 116.745 51.5369C116.865 50.8889 117.041 49.3609 115.649 49.2809C115.105 49.2569 114.713 49.8249 114.337 50.0969C113.921 50.4089 113.321 50.6969 112.801 50.7849C112.073 50.9049 111.409 50.2729 111.465 49.5369C111.529 48.7769 111.953 48.0009 112.193 47.3129C112.377 46.8009 112.593 46.4409 112.441 45.9289C112.113 44.8249 111.129 44.4089 110.145 45.0569C108.977 45.8169 108.577 48.6969 106.817 48.4729C105.057 48.2489 105.905 45.9209 105.801 44.7449C105.633 42.8569 104.241 41.8969 102.993 43.4329C102.113 44.5129 101.865 47.2489 100.305 47.6249C98.5614 48.0489 96.9134 41.4649 96.7374 40.4969C96.5294 39.3369 96.3294 38.6729 95.9454 37.6329C95.5614 36.5929 95.5054 36.1929 94.9294 37.2889C94.2894 38.4889 94.9294 35.8409 95.6014 39.9289C95.9454 42.0409 97.2734 50.5849 93.2414 47.4889C92.1294 46.6249 90.0894 43.0729 88.5294 45.4649C87.5934 46.9049 91.0254 50.2889 88.1614 51.1689C86.2654 51.7369 83.7214 46.9049 82.1054 49.2729C81.0254 50.8569 84.6974 54.2009 82.3934 55.4889C80.7694 56.3929 77.2654 52.2009 76.4254 54.9129C75.8414 56.8009 80.5614 60.0569 78.4974 61.9369C76.8334 63.4489 74.3214 60.3209 75.2494 64.2169C75.3934 64.7929 76.2654 66.0569 75.8894 66.5929C74.4174 68.6569 71.3774 63.6649 70.9134 62.7929C69.3694 59.8969 68.4334 56.6489 68.4494 53.3689C68.4814 47.4009 72.2814 38.9529 78.8734 34.2409H78.8814L78.9054 34.2249Z" fill="#391C00"/>
<path d="M122.241 55.9926L122.657 53.1046C123.217 44.4966 115.025 32.7526 94.1933 35.9766C83.3373 37.6566 71.1933 44.3206 70.6813 58.0486C70.5133 62.4966 72.2653 65.3686 72.2653 65.3686C72.2653 65.3686 67.6893 43.5606 95.9853 39.3366C123.737 35.1926 122.233 56.0006 122.233 56.0006L122.241 55.9926Z" fill="#FFB300"/>
<path d="M69.6569 33.8809L69.2889 34.5849C68.3609 36.7289 69.2889 40.7289 74.7769 41.7849C77.6409 42.3369 81.2089 41.4569 82.6489 38.2649C83.1449 37.1609 82.9689 35.9929 82.9689 35.9929C82.9689 35.9929 82.4169 39.8649 74.4329 38.0569C67.1689 36.4169 69.6489 33.8809 69.6489 33.8809H69.6569Z" fill="#7BE708"/>
<path d="M122.994 37.561L122.458 38.145C120.754 39.745 116.682 40.249 113.81 35.449C112.306 32.953 111.922 29.289 114.426 26.849C115.29 26.009 116.442 25.769 116.442 25.769C116.442 25.769 112.33 26.033 116.77 32.913C120.81 39.169 122.994 37.561 122.994 37.561Z" fill="#7BE708"/>
<path d="M77.5285 40.0409C77.5445 40.1929 76.9125 40.4809 76.4005 40.6489C76.1365 40.7369 75.9045 40.7929 75.8005 40.7769C75.3045 40.7129 74.2965 39.9689 74.9925 39.4169C74.1045 39.9689 71.9925 39.7689 72.8325 38.3929C72.3205 38.9689 71.7125 39.3529 71.0245 38.8649C70.4805 38.4809 70.5605 37.5529 70.0725 37.2009C69.5845 36.8489 68.7925 37.3049 68.2085 36.9849C67.7925 36.7529 67.2245 35.9769 67.5445 35.4569C66.3605 37.3529 63.4245 35.1369 64.6005 33.1529C63.9045 34.4409 62.0085 33.5609 61.2085 32.8889C60.6565 32.4329 60.1365 31.7929 60.0245 31.0649C59.9925 30.8489 60.3765 29.0329 60.5365 29.1449C58.9765 28.1049 58.4965 25.6169 59.8005 24.1689C59.7045 23.7609 59.7365 23.3209 59.8805 22.9289C59.4645 22.6569 59.1445 22.2169 59.0725 21.7049C58.9285 20.6649 59.6485 19.9849 60.5365 19.6969C60.3445 19.1689 60.3365 18.5609 60.6165 18.0489C60.8325 17.6409 61.1925 17.3529 61.5925 17.1929C61.7365 16.8729 61.9205 16.5769 62.1285 16.3129C61.8485 15.2329 62.6005 14.0969 63.5605 13.5929C64.0645 13.3289 64.6565 13.2009 65.2245 13.2409C65.1445 12.2489 65.5445 11.2329 66.4005 10.6249C67.3285 9.97692 68.4645 10.0009 69.3845 10.4809C69.7605 9.00092 71.1045 7.84092 72.7445 7.88092C73.2325 7.89692 73.7605 8.01692 74.2325 8.24092C74.6965 7.52092 75.4405 6.99292 76.3765 6.94492C76.5925 6.93692 76.8005 6.94492 76.9925 6.98492C77.5125 6.56892 78.2005 6.44892 78.8485 6.52892C79.8165 6.64092 79.8245 6.87292 79.8645 7.75292C81.3525 6.79292 83.7765 5.04892 85.4965 6.70492C86.5765 7.74492 85.2725 8.51292 84.5685 9.25692C86.0965 9.10492 87.6645 8.03292 89.2645 8.77692C90.7045 9.44092 89.5365 10.5129 88.5765 11.0489C89.7765 11.0489 90.9605 10.6569 92.1765 10.8809C92.8565 11.0089 94.4405 11.6249 94.5925 12.4489C94.7605 13.3449 93.6085 13.6809 92.8325 13.6089C93.6965 14.0089 96.1525 14.6729 96.1845 15.9209C96.2005 16.8409 95.0165 17.0649 94.3365 17.1609C95.2085 17.4009 97.0725 18.2569 96.9765 19.3369C96.8885 20.3609 95.5605 20.7609 94.6725 20.7209C95.0565 21.5929 95.7285 22.1129 95.4485 23.1369C95.0485 24.5929 94.0325 24.5209 92.7765 24.6329C93.5205 26.2009 94.6245 27.5209 92.5605 28.7929C93.4965 29.7129 93.9845 31.0889 93.1685 32.2649C92.6245 33.0329 91.6805 33.4009 90.8085 33.2969C90.9045 34.2809 90.7445 35.2649 89.9605 35.9529C89.3685 36.4729 88.4725 36.7129 87.7125 36.5209C87.6965 36.5529 87.6885 36.5849 87.6725 36.6169C87.7765 36.7689 87.8645 36.9449 87.9285 37.1289C88.2565 38.0649 87.9205 39.0969 87.0485 39.5849C86.4885 39.9049 85.9605 39.8809 85.3445 39.8489C84.0965 39.7929 84.8405 39.5929 84.1845 40.4249C83.4485 41.3449 82.8005 41.6809 81.7205 40.7689C81.7925 40.8329 80.8565 41.6809 80.7525 41.7449C80.1605 42.0809 79.7925 42.0569 79.1525 41.9129C78.0965 41.6729 77.6325 41.0969 77.5125 40.0329L77.5285 40.0409Z" fill="#391C00"/>
<path d="M112.136 11.801C111.824 10.841 112.056 9.68099 112.704 8.82499C114.888 5.93699 116.888 8.28899 118.208 10.041C118.728 8.15299 118.56 4.88899 120.528 3.97699C122.304 3.15299 124.304 4.56099 124.112 6.52899C125.064 4.31299 130.928 0.304994 128.944 4.65699C131.032 2.52899 135.744 1.84099 134.016 5.78499C135.528 5.06499 136.568 3.00899 138.496 3.14499C141.216 3.33699 140.368 5.12899 139.576 6.83299C141.2 6.74499 143.552 4.76899 144.84 6.76099C146.232 8.92099 143.184 10.017 142.176 10.337C143.48 10.297 146.552 10.105 147.248 11.561C148.344 13.865 145.28 15.409 143.464 14.881C144.864 15.289 148.392 17.289 148.456 19.153C148.528 21.265 146.072 21.641 144.488 21.025C144.976 21.673 147.288 24.769 146.904 25.745C146.408 27.033 144.84 26.241 144.04 25.505C145.656 27.185 148.368 30.377 146.696 32.953C145.816 34.305 144.032 33.793 142.936 34.721C144.104 35.633 144.392 37.193 143.056 38.177C141.768 39.121 140.296 38.265 138.888 38.057C138.92 38.753 138.576 39.513 137.952 40.009C137.352 40.481 136.72 40.569 136.104 40.425C135.408 41.625 134.208 42.537 132.824 42.905C131.72 43.193 130.416 43.089 129.48 42.401C128.176 42.777 126.632 42.585 125.816 41.585C125.584 41.585 125.336 41.553 125.096 41.481C124.024 41.193 123.28 40.393 122.928 39.449C122.32 39.593 121.672 39.601 121.112 39.505C119.2 39.161 117.92 37.489 117.848 35.673C116.648 36.009 115.328 35.777 114.408 34.793C113.568 33.881 113.36 32.601 113.68 31.457C113.008 31.361 112.352 31.081 111.832 30.641C110.832 29.817 110.24 28.321 110.824 27.121C110.64 26.753 110.504 26.361 110.416 25.961C109.992 25.665 109.656 25.241 109.496 24.721C109.296 24.049 109.448 23.345 109.808 22.777C108.848 22.225 108.176 21.265 108.6 20.089C108.816 19.497 109.288 19.073 109.84 18.849C109.768 18.361 109.84 17.857 110.056 17.385C108.896 15.393 110.064 12.593 112.128 11.761L112.104 11.785L112.136 11.801Z" fill="#391C00"/>
<path d="M123.264 77.8086C116.624 82.4806 105.68 87.5526 85.7039 86.9766L76.752 100.393C76.752 100.393 92.7999 104.713 112.344 100.441C127.536 97.1206 136.336 90.3766 136.336 90.3766L123.336 78.4246L123.264 77.8166V77.8086Z" fill="#0AC47D"/>
<path d="M150.864 99.6332C150.776 99.7292 150.688 99.8012 150.592 99.8732L144.496 93.6572C144.568 93.5612 144.648 93.4652 144.736 93.3852C144.736 93.3772 144.776 93.3452 144.776 93.3452L150.896 99.5852L150.856 99.6332H150.864Z" fill="#DFFFBA"/>
<path d="M144.263 93.9932L150.239 100.089C148.799 100.905 146.743 100.497 145.271 99.0012C143.807 97.5052 143.431 95.4172 144.255 93.9932H144.263Z" fill="#DFFFBA"/>
<path d="M144.264 93.9927C144.328 93.8727 144.4 93.7687 144.488 93.6567L150.584 99.8727C150.48 99.9447 150.36 100.025 150.24 100.097L144.264 94.0007V93.9927Z" fill="#1B9DD9"/>
<path d="M145.992 98.305C146.144 98.457 146.376 98.465 146.52 98.329C146.664 98.193 146.664 97.945 146.512 97.801C146.36 97.649 146.128 97.641 145.984 97.777C145.84 97.913 145.84 98.161 145.992 98.305Z" fill="#028CAD"/>
<path d="M144.968 97.849C144.544 97.201 144.288 96.4411 144.008 95.7291C142.96 95.6491 142.824 96.0811 143.2 97.1291C143.744 98.6811 144.008 98.5051 145.352 98.2411L144.968 97.849Z" fill="#DFFFBA"/>
<path d="M144.52 97.241C144.64 97.369 144.832 97.377 144.936 97.257C145.048 97.153 145.04 96.961 144.928 96.841C144.808 96.713 144.616 96.705 144.512 96.825C144.4 96.929 144.408 97.121 144.52 97.241Z" fill="#028CAD"/>
<path d="M81.8809 124.921L89.1289 120.113C89.2089 120.209 89.2889 120.297 89.3529 120.393C89.3689 120.409 89.3849 120.449 89.3849 120.449L82.1049 125.281L82.0649 125.225C82.0009 125.121 81.9449 125.025 81.8889 124.913L81.8809 124.921Z" fill="#DFFFBA"/>
<path d="M83.7292 119.889C85.4652 118.729 87.5932 118.753 88.8332 119.825L81.7212 124.545C81.1932 122.985 81.9932 121.033 83.7292 119.873V119.889Z" fill="#DFFFBA"/>
<path d="M88.8329 119.825C88.9369 119.913 89.0249 120.017 89.1209 120.113L81.8729 124.921C81.8009 124.793 81.7529 124.665 81.7129 124.537L88.8329 119.817V119.825Z" fill="#1B9DD9"/>
<path d="M84.2717 120.713C84.0877 120.833 84.0397 121.057 84.1517 121.225C84.2637 121.393 84.5037 121.425 84.6797 121.313C84.8637 121.193 84.9117 120.961 84.7997 120.801C84.6877 120.633 84.4477 120.601 84.2717 120.713Z" fill="#028CAD"/>
<path d="M84.4638 120.097L84.9198 119.793C85.6318 119.505 86.4238 119.393 87.1758 119.249C87.4638 118.225 87.0638 118.017 85.9518 118.193C84.3278 118.441 84.4398 118.721 84.4478 120.097H84.4558H84.4638Z" fill="#DFFFBA"/>
<path d="M85.5997 119.457C85.4557 119.545 85.4237 119.729 85.5117 119.857C85.5997 119.977 85.7837 120.017 85.9197 119.929C86.0637 119.841 86.0957 119.657 86.0077 119.529C85.9197 119.409 85.7357 119.369 85.5997 119.457Z" fill="#028CAD"/>
<path d="M95.7051 70.8648L99.1371 70.2168C100.305 76.4888 101.337 79.0888 102.297 81.0968L99.0411 82.3768C97.9371 80.0168 96.8891 77.1608 95.7131 70.8648H95.7051Z" fill="#0C97E8"/>
<path d="M98.2817 74.4648C98.7297 74.3448 98.9777 73.8728 98.8577 73.4328C98.7377 72.9848 98.2657 72.7368 97.8257 72.8568C97.3777 72.9768 97.1217 73.4488 97.2497 73.8888C97.3697 74.3368 97.8417 74.5848 98.2817 74.4648Z" fill="#FFB300"/>
<path d="M99.2251 77.977C99.6731 77.857 99.9291 77.385 99.8011 76.945C99.6811 76.497 99.2091 76.249 98.7691 76.369C98.3211 76.489 98.0651 76.961 98.1931 77.401C98.3131 77.849 98.7851 78.097 99.2251 77.977Z" fill="#FFB300"/>
<path d="M92.2802 76.6327L75.2242 68.5687L75.1602 66.9927C75.1602 66.9927 90.3282 77.1847 112.536 64.1927C119.848 59.9127 122.072 56.4087 122.072 56.4087L122.792 57.5287L104.648 75.4807L97.8002 71.0087L92.2962 76.6167L92.2802 76.6327Z" fill="#F2F2F2"/>
<path d="M138.417 39.9609C138.305 40.1929 138.225 40.4329 138.201 40.6969C138.113 41.6969 137.737 42.8889 136.585 43.1369C135.049 43.4809 134.713 43.4889 133.281 42.8889C132.561 42.5929 131.609 42.2809 130.913 41.9769C130.401 41.7609 130.185 41.3769 130.313 40.8569C130.521 40.0409 131.089 40.5129 131.689 40.5449C131.113 40.4009 130.209 40.2729 130.017 39.6649C129.753 38.8089 130.777 38.4489 131.409 38.9849C130.353 38.5769 129.329 37.5449 130.505 36.9769C130.841 36.8089 131.473 36.9209 131.793 37.0729C130.857 36.9289 130.337 36.5849 130.329 35.9289C130.329 35.1129 131.273 35.0809 131.881 35.1289C132.905 35.2249 133.881 35.4089 134.937 35.4329C136.457 35.4649 135.777 34.7289 135.873 33.9209C135.985 32.9609 135.665 32.1049 136.473 31.4649C137.321 30.7849 137.745 31.5849 137.793 32.3529C137.849 33.3129 138.057 34.4969 138.465 35.3769C138.881 36.2569 139.321 36.9369 139.289 37.9529C139.257 38.7129 138.721 39.3049 138.409 39.9769V39.9609H138.417Z" fill="#AF714A"/>
<path d="M56.3848 55.1286C56.5048 55.3446 56.6248 55.5765 56.6648 55.8405C56.8408 56.8165 57.3448 57.9685 58.5048 58.1045C60.0648 58.2965 60.3928 58.2805 61.7688 57.5445C62.4568 57.1685 63.3768 56.7765 64.0328 56.4085C64.5128 56.1365 64.6968 55.7365 64.5208 55.2325C64.2408 54.4485 63.7208 54.9685 63.1288 55.0565C63.6888 54.8485 64.5768 54.6485 64.7048 54.0165C64.8888 53.1365 63.8328 52.8805 63.2568 53.4645C64.2648 52.9525 65.1848 51.8245 63.9608 51.3685C63.6088 51.2405 63.0008 51.4165 62.6888 51.5925C63.6008 51.3685 64.0888 50.9765 64.0328 50.3205C63.9688 49.5045 63.0088 49.5685 62.4168 49.6725C61.4088 49.8565 60.4488 50.1365 59.4008 50.2645C57.8808 50.4325 58.4968 49.6405 58.3128 48.8405C58.0968 47.8885 58.3448 47.0005 57.4728 46.4485C56.5608 45.8485 56.2168 46.6965 56.2408 47.4645C56.2808 48.4245 56.1768 49.6245 55.8648 50.5365C55.5528 51.4485 55.1688 52.1845 55.2968 53.1845C55.4008 53.9445 55.9928 54.4725 56.3688 55.1125H56.3768L56.3848 55.1286Z" fill="#AF714A"/>
<path d="M158.705 107.457C161.881 107.121 165.785 108.017 168.969 108.305C174.705 108.833 180.977 109.697 186.585 107.953C189.961 106.897 188.169 107.297 191.521 106.193C192.577 105.849 197.329 105.641 197.889 104.561C198.841 102.721 201.241 102.225 202.777 101.025C206.185 98.3848 210.353 87.4568 204.785 84.8648C205.521 85.2088 206.145 86.2168 206.849 86.3448C208.329 86.6168 209.905 85.0328 210.793 84.0568C213.433 81.1368 215.377 76.8568 214.593 72.6888C212.665 73.2168 210.017 72.9208 208.401 71.7368C211.329 71.1928 213.449 69.1688 213.745 65.9768C213.417 69.4808 203.905 64.2408 202.673 63.2648C195.241 57.3848 186.481 52.0808 176.809 51.0408C167.505 50.0408 157.353 53.2328 150.425 60.0088C143.265 67.0168 139.345 81.2168 143.969 90.5768C146.977 96.6568 152.097 99.3768 156.561 103.873C156.713 104.025 159.281 107.393 158.713 107.457H158.705Z" fill="#211813"/>
<path d="M140.872 42.7852C141.32 42.6972 141.928 42.4732 142 42.1452C142.048 41.9532 141.872 41.8332 141.696 41.7452C141.152 41.4732 140.552 41.2572 139.904 41.0972C139.992 41.1212 136.36 43.5052 136.016 43.7052C137.4 43.7292 139.368 43.0892 140.872 42.7772V42.7852Z" fill="#FCDFC2"/>
<path d="M133.96 40.2008C135.232 38.9528 136.528 37.6808 137.704 36.3848C138.072 35.9848 138.448 35.5848 138.808 35.1928C139.064 34.9128 139.456 34.2328 139.832 34.0328C140.336 33.7608 140.504 33.9848 140.544 34.2888C140.6 34.7208 140.12 35.2328 139.816 35.6648C139.712 35.8168 139.04 36.5448 139.272 36.6488C139.616 36.7848 140.176 36.1128 140.6 35.6328C140.72 35.4968 141.264 34.7688 141.304 34.6248C141.392 34.3608 141.6 34.1128 141.808 33.8728C141.928 33.7288 142.112 33.5608 142.32 33.5848C142.456 33.6008 142.536 33.6808 142.584 33.7768C142.688 33.9848 142.696 34.2088 142.68 34.4408C142.616 35.5128 141.448 36.3528 140.792 37.3208C140.768 37.3448 140.744 37.3928 140.768 37.4168C140.92 37.6088 141.968 36.5608 142.072 36.4728C142.216 36.3528 142.352 36.2248 142.424 36.0808C142.496 35.9368 142.848 35.4968 142.872 35.3448C142.928 35.0248 143.344 34.6248 143.544 34.3128C143.608 34.2008 143.744 34.0808 143.888 34.0968C143.96 34.0968 144.016 34.1288 144.056 34.1688C144.328 34.4008 144.168 34.9768 144.168 35.3128C144.168 36.2008 143.784 36.5208 143.272 37.2408C142.92 37.7368 142.08 38.4248 141.952 38.9208C143.08 38.4328 143.976 37.3928 144.424 36.5448C144.512 36.3768 144.648 36.1688 144.88 36.1528C146.096 36.0168 144.952 38.1128 144.64 38.3848C143.648 39.2408 142.664 40.1368 141.56 40.9288C140.36 41.7928 139.12 42.3368 137.8 43.0088C136.744 43.5448 135.472 44.0808 134.296 43.8168C133.336 43.6088 132.512 42.4808 132.816 41.7048C133 41.2408 133.488 40.7048 133.992 40.2088H133.968L133.96 40.2008Z" fill="#FCDFC2"/>
<path d="M144.615 78.009C157.007 63.457 169.407 65.049 180.639 73.721C194.719 84.601 187.743 101.289 187.743 101.289C188.159 99.641 190.719 99.409 192.943 90.113C194.359 84.185 192.799 78.433 189.367 73.545C187.151 70.425 184.143 68.001 180.935 66.049C174.031 61.817 165.855 60.121 158.015 62.097C149.799 64.201 142.615 71.537 142.831 81.433C142.855 82.369 143.863 80.153 143.439 80.945C143.439 80.945 144.631 78.041 144.615 78.017V78.009Z" fill="#CF4432"/>
<path d="M160.344 100.633C151.752 97.8967 143.184 90.4967 142.56 88.1527C142 86.0407 143.176 82.4647 144.008 80.5287C147.28 72.9767 159.712 69.5767 169.448 72.0407C180.984 75.0087 191.736 84.0727 189.784 96.5047C189.664 97.2087 189.544 97.8167 189.368 98.5287C188.96 104.289 172.384 104.489 160.336 100.633H160.344Z" fill="#FCDFC2"/>
<path d="M145.105 72.7848C143.313 75.6248 141.465 82.4728 141.569 85.8328C141.585 86.4008 141.481 88.1128 141.849 88.5928C142.217 89.0728 143.145 84.0568 143.425 83.0728C144.033 80.8488 147.849 68.6808 161.849 69.5448C188.793 71.1928 190.681 88.0888 190.017 94.0328C189.513 98.4808 187.817 101.825 187.329 102.161C186.305 102.873 186.617 104.225 187.217 103.497C189.025 101.305 190.377 98.4568 191.313 94.9128C193.409 87.0168 192.409 80.5848 188.313 74.9608C178.505 61.5048 154.001 58.6968 145.113 72.7768L145.105 72.7848Z" fill="#211813"/>
<path d="M141.823 90.5771L142.327 87.7451L153.775 96.2731C163.839 100.249 169.239 102.097 180.183 101.793C184.247 101.689 190.047 100.065 190.047 100.065C190.047 100.065 184.351 116.569 185.895 125.889C186.383 128.857 188.063 136.121 188.063 136.121C188.063 136.121 153.407 146.753 146.727 129.217C140.039 111.681 141.823 90.5771 141.823 90.5771Z" fill="#4AD5C2"/>
<path d="M157.864 112.265L161.328 112.369C161.264 110.057 161.384 107.145 162.84 100.641L159.48 99.8569C158.016 106.377 157.816 109.545 157.864 112.257V112.265Z" fill="#C9FFD6"/>
<path d="M159.672 103.385C159.736 102.905 160.16 102.561 160.616 102.625C161.072 102.689 161.392 103.121 161.328 103.609C161.264 104.097 160.84 104.433 160.384 104.369C159.928 104.305 159.608 103.873 159.672 103.385Z" fill="#5932CF"/>
<path d="M159.096 107.153C159.16 106.673 159.584 106.329 160.04 106.393C160.504 106.457 160.816 106.889 160.752 107.377C160.688 107.865 160.264 108.201 159.808 108.137C159.352 108.073 159.032 107.641 159.096 107.153Z" fill="#5932CF"/>
<path d="M157.713 89.4248C158.369 89.9368 159.921 90.8968 161.689 91.3928C163.993 92.0408 165.585 91.7928 166.073 91.4968C166.297 91.3528 166.425 90.9848 166.481 90.6408C166.529 90.6888 166.585 90.7368 166.641 90.8008C167.833 92.1128 166.177 93.7528 164.897 94.2968C163.617 94.8328 160.193 94.5768 158.257 93.2888C156.577 92.1608 156.513 90.1688 157.713 89.4408V89.4248Z" fill="#BD2A1D"/>
<path d="M166.081 91.4889C165.601 91.7929 164.001 92.0329 161.697 91.3849C159.921 90.8889 158.377 89.9289 157.721 89.4169C157.905 89.3049 158.105 89.2249 158.353 89.1769C159.625 88.9449 161.617 90.1769 163.129 90.3689C164.561 90.5529 165.473 89.6729 166.497 90.6249C166.425 90.9689 166.321 91.3369 166.089 91.4809L166.081 91.4889Z" fill="#F6F6F7"/>
<path d="M143.921 72.3287C144.689 70.3607 146.081 67.7207 148.009 65.9607C149.857 64.2727 153.321 61.6967 156.001 61.5287C159.193 61.3287 161.529 61.2327 164.745 61.6007C168.361 62.0167 172.353 62.9527 175.689 64.3927C179.673 66.1207 184.065 72.3527 186.777 75.5047C190.689 80.0487 191.305 87.2727 189.049 92.0647C187.705 91.9687 182.441 89.5367 182.265 89.2887C181.977 88.8647 182.473 86.9207 182.425 86.6967C182.161 87.1207 181.577 88.2087 181.297 88.7447C180.113 88.3207 176.961 87.0727 175.713 86.7207C174.113 86.2727 173.737 85.5447 173.841 84.1127C173.177 88.1367 165.041 81.6407 164.841 79.8327C165.001 81.2807 165.241 82.8167 165.193 84.2327C160.217 83.0727 155.241 80.0007 152.945 75.6727C153.745 77.6567 154.249 79.6247 155.433 81.4647C151.233 79.3927 147.337 80.1127 146.273 76.0007C145.849 79.9687 143.433 78.1207 143.057 82.1447C143.257 78.6007 142.777 75.2007 143.913 72.3047L143.921 72.3287Z" fill="#211813"/>
<path d="M143.359 95.425C142.079 96.145 141.519 95.249 141.111 95.025C130.647 89.129 123.791 81.249 122.175 72.057C119.327 55.913 131.631 41.305 132.159 40.689L136.807 44.905C136.695 45.033 125.975 57.833 128.295 70.881C129.631 78.377 135.087 84.721 144.511 89.745C144.511 89.745 144.647 94.705 143.367 95.425H143.359Z" fill="#4AD5C2"/>
<path d="M155.376 104.353L161.248 100.401L164.6 106.881L189.8 101.753L190.128 99.7527C190.128 99.7527 187.344 100.201 181.928 100.617C157.232 102.345 141.32 85.8247 141.32 85.8247L140.832 87.4887L155.352 104.345H155.36L155.376 104.353Z" fill="#F2F2F2"/>
<path d="M187.84 105.833C186.368 107.393 185.736 108.737 182.984 108.377C182.04 108.257 180.976 107.801 180.232 107.201C179.728 106.793 179.16 106.441 178.536 106.201C177.608 105.833 176.648 105.833 175.664 105.849C175.208 105.849 172.152 105.305 171.896 105.505C173.76 105.137 175.28 104.801 176.136 104.617C176.768 104.481 178.376 104.033 179.024 103.897C188.736 101.897 183.256 102.753 185.232 103.865C185.968 104.281 187.704 104.233 187.832 105.841L187.84 105.833Z" fill="#42BFAE"/>
<path d="M206.56 58.9131C206.984 59.0571 207.584 59.1291 207.776 58.7531C207.88 58.5371 207.768 58.2731 207.656 58.0571C207.28 57.3931 206.84 56.7691 206.328 56.1851C206.4 56.2731 202.392 57.2331 202.008 57.2891C203.2 58.1291 205.12 58.4491 206.552 58.9211V58.9051L206.56 58.9131Z" fill="#FCDFC2"/>
<path d="M201.513 51.5766C203.065 50.7046 204.649 49.8166 206.145 48.8406C206.609 48.5366 207.073 48.2566 207.537 47.9526C207.865 47.7366 208.449 47.1046 208.833 47.0566C209.361 47.0006 209.441 47.3926 209.369 47.8006C209.265 48.4006 208.665 48.7686 208.241 49.1606C208.097 49.2966 207.249 49.8486 207.409 50.1046C207.657 50.4886 208.385 49.9286 208.921 49.5686C209.065 49.4646 209.809 48.8246 209.889 48.6886C210.065 48.4086 210.337 48.2086 210.593 48.0246C210.745 47.9126 210.961 47.8006 211.137 47.9446C211.257 48.0246 211.289 48.2086 211.305 48.3446C211.329 48.6646 211.249 48.9526 211.145 49.2486C210.697 50.5926 209.393 50.9766 208.473 51.8646C208.449 51.9046 208.409 51.9286 208.409 51.9686C208.457 52.3126 209.761 51.5606 209.873 51.5126C210.033 51.4406 210.193 51.3526 210.321 51.2166C210.433 51.0726 210.897 50.7046 210.977 50.5366C211.145 50.1446 211.641 49.8806 211.921 49.6006C212.025 49.5046 212.177 49.4086 212.305 49.5126C212.361 49.5526 212.401 49.6326 212.425 49.7046C212.577 50.1686 212.225 50.8166 212.097 51.2406C211.769 52.3926 211.329 52.5686 210.617 53.1926C210.129 53.6246 209.161 54.0166 208.865 54.5766C210.017 54.6086 211.177 53.7846 211.865 52.9446C212.001 52.7846 212.193 52.5846 212.409 52.6966C213.513 53.2246 211.761 55.2646 211.385 55.4246C210.217 55.9606 209.041 56.5206 207.785 56.9046C206.441 57.3206 205.161 57.2886 203.777 57.4006C202.665 57.4806 201.377 57.4246 200.449 56.4086C199.697 55.5766 199.385 53.6486 199.921 52.8326C200.257 52.3366 200.857 51.9446 201.489 51.5926H201.497L201.513 51.5766Z" fill="#FCDFC2"/>
<path d="M185.625 106.153C183.665 105.609 182.961 105.153 182.577 104.529C176.169 93.945 174.369 84.001 177.209 74.953C182.145 59.241 199.281 52.425 200.009 52.145L202.161 58.145C202.009 58.201 187.089 64.193 183.113 76.921C180.737 84.529 182.689 93.241 188.929 102.809C188.929 102.809 188.289 106.897 185.625 106.161V106.153Z" fill="#4AD5C2"/>
<path d="M171.888 89.753C172.008 89.193 172.984 88.273 174.184 88.457C175.392 88.649 176.12 89.441 176.12 89.441C176.12 89.441 177.016 90.409 176.016 89.865C175.016 89.321 174.064 89.041 172.92 89.553C172.384 89.793 171.768 90.305 171.888 89.753Z" fill="#56182F"/>
<path d="M149.393 82.809C149.761 82.385 151.033 82.089 151.985 82.881C152.937 83.673 153.185 84.753 153.185 84.753C153.185 84.753 153.497 86.065 152.897 85.065C152.289 84.065 151.601 83.321 150.377 83.177C149.801 83.105 149.033 83.233 149.393 82.809Z" fill="#56182F"/>
<path d="M184.465 124.689C177.433 128.441 167.681 131.953 148.553 128.697L144.441 133.465L153.897 140.937L185.857 138.569L187.665 133.073L186.401 126.241L185.673 123.985L184.465 124.689Z" fill="#E79AED"/>
<path d="M205.761 121.457L208.385 122.177C203.545 144.601 177.129 134.817 177.129 134.817L186.233 125.737C196.601 138.561 205.761 121.449 205.761 121.449V121.457Z" fill="#E79AED"/>
<path d="M214.193 123.025C214.161 123.153 214.129 123.257 214.089 123.369L205.881 121.361C205.889 121.241 205.913 121.121 205.937 121.001C205.937 120.985 205.953 120.945 205.953 120.945L214.193 122.969L214.185 123.033L214.193 123.025Z" fill="#F2F2F2"/>
<path d="M205.865 121.777L213.913 123.753C213.145 125.209 211.233 125.969 209.257 125.481C207.281 124.993 205.913 123.425 205.865 121.777Z" fill="#4AD5C2"/>
<path d="M205.855 121.777C205.855 121.641 205.855 121.513 205.871 121.369L214.079 123.377C214.031 123.497 213.967 123.625 213.911 123.745L205.863 121.769L205.855 121.777Z" fill="#5932CF"/>
<path d="M209.489 124.505C209.689 124.553 209.889 124.433 209.937 124.241C209.985 124.049 209.857 123.841 209.657 123.793C209.457 123.745 209.257 123.865 209.209 124.057C209.161 124.249 209.289 124.457 209.489 124.505Z" fill="#5932CF"/>
<path d="M208.416 124.665C207.736 124.345 207.136 123.833 206.544 123.377C205.632 123.873 205.744 124.305 206.592 124.993C207.832 126.017 207.96 125.729 208.936 124.785L208.416 124.657V124.665Z" fill="#4AD5C2"/>
<path d="M208.064 124.529C208.264 124.577 208.464 124.457 208.512 124.265C208.56 124.073 208.432 123.865 208.232 123.817C208.032 123.769 207.832 123.889 207.784 124.081C207.736 124.273 207.864 124.481 208.064 124.529Z" fill="#5932CF"/>
<path d="M264.047 153.071L282.871 250.535L212.359 190.975L264.047 153.071Z" fill="#6A2AAB"/>
<path d="M206.744 133.033L211.144 134.593L263.952 153.161L212.264 191.065L144.336 240.897L0 60.2891L206.736 133.033H206.744Z" fill="#906DFD"/>
</svg>
