<svg width="705" height="709" viewBox="0 0 705 709" fill="none" xmlns="http://www.w3.org/2000/svg">
<path d="M84.1725 451.707H2.2815C1.02146 451.707 0 452.774 0 454.09V454.683C0 455.999 1.02146 457.067 2.2815 457.067H84.1725C85.4325 457.067 86.454 455.999 86.454 454.683V454.09C86.454 452.774 85.4325 451.707 84.1725 451.707Z" fill="#9CE1FC"/>
<path d="M84.1721 469.79H41.5256C40.2656 469.79 39.2441 470.858 39.2441 472.174V472.767C39.2441 474.083 40.2656 475.15 41.5256 475.15H84.1721C85.4322 475.15 86.4536 474.083 86.4536 472.767V472.174C86.4536 470.858 85.4322 469.79 84.1721 469.79Z" fill="#9CE1FC"/>
<path d="M105.419 469.79H92.4592C91.1992 469.79 90.1777 470.858 90.1777 472.174V472.767C90.1777 474.083 91.1992 475.15 92.4592 475.15H105.419C106.679 475.15 107.701 474.083 107.701 472.767V472.174C107.701 470.858 106.679 469.79 105.419 469.79Z" fill="#9CE1FC"/>
<path d="M89.7741 483.487H7.88306C6.62302 483.487 5.60156 484.554 5.60156 485.871V486.463C5.60156 487.78 6.62302 488.847 7.88306 488.847H89.7741C91.0341 488.847 92.0556 487.78 92.0556 486.463V485.871C92.0556 484.554 91.0341 483.487 89.7741 483.487Z" fill="#9CE1FC"/>
<path d="M19.0343 465.756H11.8928C10.6373 465.756 9.61133 464.557 9.61133 463.076C9.61133 461.595 10.6373 460.396 11.8928 460.396H19.0343C20.2898 460.396 21.3158 461.595 21.3158 463.076C21.3158 464.557 20.2898 465.756 19.0343 465.756Z" fill="#9CE1FC"/>
<path d="M22.7726 497.409H15.6311C14.3756 497.409 13.3496 496.21 13.3496 494.729C13.3496 493.248 14.3756 492.049 15.6311 492.049H22.7726C24.0281 492.049 25.0541 493.248 25.0541 494.729C25.0541 496.21 24.0281 497.409 22.7726 497.409Z" fill="#9CE1FC"/>
<path d="M133.529 497.409H87.1428C85.8873 497.409 84.8613 496.21 84.8613 494.729C84.8613 493.248 85.8873 492.049 87.1428 492.049H133.529C134.784 492.049 135.81 493.248 135.81 494.729C135.81 496.21 134.784 497.409 133.529 497.409Z" fill="#9CE1FC"/>
<path d="M101.761 457.067H94.6194C93.3639 457.067 92.3379 455.868 92.3379 454.387C92.3379 452.906 93.3639 451.707 94.6194 451.707H101.761C103.016 451.707 104.042 452.906 104.042 454.387C104.042 455.868 103.016 457.067 101.761 457.067Z" fill="#9CE1FC"/>
<path d="M105.11 488.833H97.969C96.7135 488.833 95.6875 487.634 95.6875 486.153C95.6875 484.672 96.7135 483.473 97.969 483.473H105.11C106.366 483.473 107.392 484.672 107.392 486.153C107.392 487.634 106.366 488.833 105.11 488.833Z" fill="#9CE1FC"/>
<path d="M134.241 488.833H114.018C112.762 488.833 111.736 487.634 111.736 486.153C111.736 484.672 112.762 483.473 114.018 483.473H134.241C135.496 483.473 136.522 484.672 136.522 486.153C136.522 487.634 135.496 488.833 134.241 488.833Z" fill="#9CE1FC"/>
<path d="M77.7979 497.409H30.3049C29.0494 497.409 28.0234 496.21 28.0234 494.729C28.0234 493.248 29.0494 492.049 30.3049 492.049H77.7979C79.0534 492.049 80.0794 493.248 80.0794 494.729C80.0794 496.21 79.0534 497.409 77.7979 497.409Z" fill="#9CE1FC"/>
<path d="M108.716 465.756H82.8909C81.6354 465.756 80.6094 464.557 80.6094 463.076C80.6094 461.595 81.6354 460.396 82.8909 460.396H108.716C109.972 460.396 110.998 461.595 110.998 463.076C110.998 464.557 109.972 465.756 108.716 465.756Z" fill="#9CE1FC"/>
<path d="M73.8435 465.756H27.471C26.2155 465.756 25.1895 464.557 25.1895 463.076C25.1895 461.595 26.2155 460.396 27.471 460.396H73.8569C75.1124 460.396 76.1385 461.595 76.1385 463.076C76.1385 464.557 75.1124 465.756 73.8569 465.756H73.8435Z" fill="#9CE1FC"/>
<path d="M128.68 457.067H108.457C107.202 457.067 106.176 455.868 106.176 454.387C106.176 452.906 107.202 451.707 108.457 451.707H128.68C129.936 451.707 130.962 452.906 130.962 454.387C130.962 455.868 129.936 457.067 128.68 457.067Z" fill="#9CE1FC"/>
<path d="M633.792 280.915H551.901C550.641 280.915 549.619 281.983 549.619 283.299V283.892C549.619 285.208 550.641 286.276 551.901 286.276H633.792C635.052 286.276 636.073 285.208 636.073 283.892V283.299C636.073 281.983 635.052 280.915 633.792 280.915Z" fill="#DEFC9C"/>
<path d="M633.778 298.999H591.131C589.871 298.999 588.85 300.066 588.85 301.383V301.975C588.85 303.292 589.871 304.359 591.131 304.359H633.778C635.038 304.359 636.059 303.292 636.059 301.975V301.383C636.059 300.066 635.038 298.999 633.778 298.999Z" fill="#DEFC9C"/>
<path d="M655.04 298.999H642.08C640.82 298.999 639.799 300.066 639.799 301.383V301.975C639.799 303.292 640.82 304.359 642.08 304.359H655.04C656.3 304.359 657.322 303.292 657.322 301.975V301.383C657.322 300.066 656.3 298.999 655.04 298.999Z" fill="#DEFC9C"/>
<path d="M639.393 312.682H557.502C556.242 312.682 555.221 313.749 555.221 315.066V315.658C555.221 316.975 556.242 318.042 557.502 318.042H639.393C640.653 318.042 641.675 316.975 641.675 315.658V315.066C641.675 313.749 640.653 312.682 639.393 312.682Z" fill="#DEFC9C"/>
<path d="M568.64 294.951H561.498C560.243 294.951 559.217 293.752 559.217 292.271C559.217 290.789 560.243 289.59 561.498 289.59H568.64C569.895 289.59 570.921 290.789 570.921 292.271C570.921 293.752 569.895 294.951 568.64 294.951Z" fill="#DEFC9C"/>
<path d="M572.38 326.618H565.239C563.983 326.618 562.957 325.419 562.957 323.938C562.957 322.457 563.983 321.258 565.239 321.258H572.38C573.636 321.258 574.662 322.457 574.662 323.938C574.662 325.419 573.636 326.618 572.38 326.618Z" fill="#DEFC9C"/>
<path d="M666.326 326.618H619.94C618.684 326.618 617.658 325.419 617.658 323.938C617.658 322.457 618.684 321.258 619.94 321.258H666.326C667.581 321.258 668.607 322.457 668.607 323.938C668.607 325.419 667.581 326.618 666.326 326.618Z" fill="#DEFC9C"/>
<path d="M651.368 286.275H644.227C642.971 286.275 641.945 285.077 641.945 283.595C641.945 282.114 642.971 280.915 644.227 280.915H651.368C652.624 280.915 653.65 282.114 653.65 283.595C653.65 285.077 652.624 286.275 651.368 286.275Z" fill="#DEFC9C"/>
<path d="M654.714 318.042H647.573C646.317 318.042 645.291 316.843 645.291 315.362C645.291 313.881 646.317 312.682 647.573 312.682H654.714C655.969 312.682 656.995 313.881 656.995 315.362C656.995 316.843 655.969 318.042 654.714 318.042Z" fill="#DEFC9C"/>
<path d="M683.848 318.042H663.625C662.37 318.042 661.344 316.843 661.344 315.362C661.344 313.881 662.37 312.682 663.625 312.682H683.848C685.104 312.682 686.13 313.881 686.13 315.362C686.13 316.843 685.104 318.042 683.848 318.042Z" fill="#DEFC9C"/>
<path d="M627.419 326.618H579.926C578.671 326.618 577.645 325.419 577.645 323.938C577.645 322.457 578.671 321.258 579.926 321.258H627.419C628.675 321.258 629.701 322.457 629.701 323.938C629.701 325.419 628.675 326.618 627.419 326.618Z" fill="#DEFC9C"/>
<path d="M658.318 294.951H632.492C631.237 294.951 630.211 293.752 630.211 292.271C630.211 290.789 631.237 289.59 632.492 289.59H658.318C659.573 289.59 660.599 290.789 660.599 292.271C660.599 293.752 659.573 294.951 658.318 294.951Z" fill="#DEFC9C"/>
<path d="M623.464 294.951H577.078C575.823 294.951 574.797 293.752 574.797 292.271C574.797 290.79 575.823 289.591 577.078 289.591H623.464C624.72 289.591 625.746 290.79 625.746 292.271C625.746 293.752 624.72 294.951 623.464 294.951Z" fill="#DEFC9C"/>
<path d="M670.822 286.276H658.078C656.823 286.276 655.797 285.077 655.797 283.595C655.797 282.114 656.823 280.915 658.078 280.915H670.822C672.078 280.915 673.104 282.114 673.104 283.595C673.104 285.077 672.078 286.276 670.822 286.276Z" fill="#DEFC9C"/>
<path d="M322.171 152.479C319.458 151.421 317.298 149.221 316.191 146.442C316.177 146.414 316.164 146.385 316.15 146.357C315.03 143.564 315.07 140.404 316.272 137.626L317.19 135.524L310.17 128.189L308.145 129.148C305.499 130.403 302.475 130.446 299.802 129.275C299.775 129.261 299.748 129.247 299.721 129.233C297.048 128.09 294.955 125.819 293.943 122.984L293.16 120.812H283.251L282.468 122.984C281.455 125.819 279.349 128.076 276.69 129.233C276.663 129.247 276.636 129.261 276.609 129.275C273.936 130.446 270.912 130.389 268.266 129.148L266.241 128.189L259.221 135.524L260.139 137.626C261.34 140.39 261.381 143.55 260.26 146.357C260.247 146.385 260.233 146.414 260.22 146.442C259.126 149.235 256.953 151.421 254.239 152.479L252.16 153.283V163.651L254.239 164.469C256.953 165.527 259.113 167.713 260.22 170.506C260.233 170.534 260.247 170.563 260.26 170.577C261.381 173.384 261.34 176.529 260.139 179.308L259.221 181.424L266.241 188.759L268.266 187.8C270.912 186.544 273.936 186.502 276.609 187.673C276.636 187.673 276.663 187.701 276.69 187.701C279.363 188.858 281.455 191.129 282.468 193.95L283.251 196.122H293.16L293.943 193.95C294.955 191.129 297.061 188.858 299.721 187.701C299.748 187.701 299.775 187.673 299.802 187.673C302.475 186.502 305.499 186.544 308.145 187.8L310.17 188.759L317.19 181.424L316.272 179.308C315.07 176.543 315.03 173.384 316.15 170.577C316.164 170.549 316.177 170.52 316.191 170.506C317.284 167.713 319.458 165.527 322.171 164.469L324.25 163.651V153.283L322.171 152.479ZM288.219 183.907C274.773 183.907 263.878 172.509 263.878 158.474C263.878 144.439 274.786 133.041 288.219 133.041C301.651 133.041 312.559 144.439 312.559 158.474C312.559 172.509 301.665 183.907 288.219 183.907Z" fill="#677FF2"/>
<path d="M451.534 22.6116C449.604 21.8498 448.051 20.2841 447.268 18.2952C447.268 18.267 447.254 18.2529 447.241 18.2388C446.444 16.2358 446.471 13.9788 447.335 12.004L447.983 10.4947L442.975 5.26145L441.53 5.93853C439.64 6.8272 437.48 6.86951 435.577 6.03727C435.55 6.03727 435.536 6.02317 435.523 6.00906C433.619 5.19093 432.121 3.56876 431.392 1.55163L430.838 0H423.751L423.197 1.55163C422.468 3.56876 420.97 5.19093 419.066 6.00906C419.053 6.00906 419.026 6.02317 419.012 6.03727C417.095 6.86951 414.935 6.8413 413.059 5.93853L411.614 5.26145L406.606 10.4947L407.254 12.004C408.118 13.9788 408.145 16.2358 407.348 18.2388C407.348 18.267 407.335 18.2811 407.321 18.2952C406.538 20.2841 404.986 21.8498 403.055 22.6116L401.57 23.1899V30.5954L403.055 31.1738C404.986 31.9355 406.538 33.4871 407.321 35.4901C407.321 35.5042 407.335 35.5324 407.348 35.5466C408.145 37.5496 408.118 39.8065 407.254 41.7813L406.606 43.2906L411.614 48.5239L413.059 47.8468C414.949 46.944 417.109 46.9158 419.012 47.7481C419.039 47.7481 419.053 47.7622 419.066 47.7763C420.97 48.6085 422.468 50.2166 423.197 52.2337L423.751 53.7853H430.838L431.392 52.2337C432.121 50.2166 433.619 48.5944 435.523 47.7763C435.536 47.7763 435.563 47.7622 435.577 47.7481C437.494 46.9158 439.654 46.944 441.53 47.8468L442.975 48.5239L447.983 43.2906L447.335 41.7813C446.471 39.8065 446.444 37.5496 447.241 35.5466C447.241 35.5324 447.254 35.5042 447.268 35.4901C448.051 33.4871 449.604 31.9355 451.534 31.1738L453.019 30.5954V23.1899L451.534 22.6116ZM427.274 45.068C417.676 45.068 409.886 36.9289 409.886 26.8997C409.886 16.8705 417.676 8.73148 427.274 8.73148C436.873 8.73148 444.662 16.8705 444.662 26.8997C444.662 36.9289 436.873 45.068 427.274 45.068Z" fill="#45CBFA"/>
<g opacity="0.45">
<path d="M363.617 709C551.67 709 704.117 692.222 704.117 671.525C704.117 650.829 551.67 634.051 363.617 634.051C175.564 634.051 23.1172 650.829 23.1172 671.525C23.1172 692.222 175.564 709 363.617 709Z" fill="#454549"/>
</g>
<path d="M588.385 600.312H68.8243C51.5443 600.312 37.5312 586.728 37.5312 569.97V211.5C37.5312 194.742 51.5443 180.383 68.8243 179.409L588.385 150.351C605.665 149.378 619.678 163.244 619.678 181.3V567.615C619.678 585.67 605.665 600.312 588.385 600.312Z" fill="#6477FF"/>
<path d="M570.177 570.454L86.9982 572.246C75.9012 572.288 66.9102 563.571 66.9102 552.766V224.002C66.9102 213.211 75.9012 203.986 86.9982 203.394L570.177 177.975C581.274 177.397 590.265 186.284 590.265 197.822V549.451C590.265 561.004 581.274 570.398 570.177 570.44V570.454Z" fill="#909DFF"/>
<path d="M543.544 538.886L113.664 542.187C106.198 542.243 100.15 536.375 100.15 529.082V245.824C100.15 238.531 106.198 232.311 113.664 231.958L543.544 211.053C551.01 210.687 557.058 216.667 557.058 224.412V524.78C557.058 532.524 551.01 538.844 543.544 538.9V538.886Z" fill="#A7C2F9"/>
<path d="M237.974 528.419L125.897 529.463C119.295 529.52 113.949 524.329 113.949 517.868V257.151C113.949 250.691 119.295 245.204 125.897 244.893L237.974 239.646C244.575 239.336 249.921 244.414 249.921 251.001V516.401C249.921 522.975 244.575 528.363 237.974 528.433V528.419Z" fill="#BCCFFC"/>
<path d="M531.287 525.683L275.961 528.067C269.535 528.123 264.324 522.975 264.324 516.556V250.028C264.324 243.61 269.535 238.165 275.961 237.854L531.287 225.893C537.713 225.596 542.924 230.745 542.924 237.389V513.524C542.924 520.182 537.713 525.612 531.287 525.669V525.683Z" fill="#CCDAFC"/>
<path d="M225.146 512.593L138.395 513.58C132.806 513.651 128.283 509.25 128.283 503.777V270.495C128.283 265.022 132.806 260.367 138.395 260.127L225.146 256.248C230.735 255.994 235.257 260.297 235.257 265.854V502.422C235.257 507.98 230.735 512.536 225.146 512.593Z" fill="#D8E3FB"/>
<path d="M520.161 410.89L287.934 416.406C283.655 416.504 280.172 413.119 280.172 408.817V386.078C280.172 381.79 283.641 378.207 287.934 378.094L520.161 371.436C524.441 371.309 527.924 374.808 527.924 379.237V402.709C527.924 407.138 524.454 410.806 520.161 410.904V410.89Z" fill="#F6F8FB"/>
<path d="M217.734 373.199L144.942 375.358C142.498 375.428 140.527 373.552 140.527 371.154V366.062C140.527 363.664 142.498 361.661 144.942 361.59L217.734 359.305C220.177 359.235 222.148 361.125 222.148 363.551V368.7C222.148 371.126 220.177 373.143 217.734 373.214V373.199Z" fill="#F6F8FB"/>
<path d="M217.612 413.655L145.063 415.418C142.566 415.474 140.527 413.528 140.527 411.073V406.221C140.527 403.767 142.552 401.707 145.063 401.651L217.612 399.761C220.11 399.69 222.148 401.665 222.148 404.148V409.056C222.148 411.539 220.123 413.612 217.612 413.669V413.655Z" fill="#F6F8FB"/>
<path d="M217.558 434.151L145.104 435.716C142.579 435.773 140.527 433.798 140.527 431.315V426.548C140.527 424.065 142.579 422.006 145.104 421.935L217.558 420.242C220.083 420.186 222.135 422.175 222.135 424.686V429.51C222.135 432.021 220.083 434.108 217.558 434.151Z" fill="#F6F8FB"/>
<path d="M217.545 454.66L145.131 456.029C142.593 456.071 140.527 454.096 140.527 451.599V446.874C140.527 444.377 142.593 442.304 145.131 442.261L217.545 440.752C220.083 440.696 222.148 442.699 222.148 445.224V450.005C222.148 452.53 220.083 454.618 217.545 454.66Z" fill="#F6F8FB"/>
<path d="M217.558 475.17L145.117 476.355C142.579 476.397 140.527 474.408 140.527 471.926V467.172C140.527 464.69 142.579 462.63 145.117 462.588L217.558 461.276C220.096 461.234 222.148 463.237 222.148 465.747V470.558C222.148 473.068 220.096 475.142 217.558 475.184V475.17Z" fill="#F6F8FB"/>
<path d="M217.587 495.68L145.092 496.667C142.581 496.696 140.543 494.721 140.543 492.252V487.442C140.543 484.974 142.581 482.928 145.092 482.9L217.587 481.786C220.098 481.743 222.137 483.746 222.137 486.243V491.11C222.137 493.606 220.098 495.666 217.587 495.694V495.68Z" fill="#F6F8FB"/>
<path d="M520.609 356.399L287.504 363.523C283.454 363.65 280.188 360.462 280.188 356.413V261.115C280.188 257.066 283.468 253.639 287.504 253.455L520.609 243.017C524.659 242.834 527.926 246.078 527.926 250.253V348.613C527.926 352.788 524.645 356.272 520.609 356.399Z" fill="#F6F8FB"/>
<path d="M517.355 461.431L290.744 465.381C284.912 465.479 280.188 460.825 280.188 454.985V434.785C280.188 428.945 284.912 424.107 290.744 423.966L517.355 418.803C523.187 418.676 527.913 423.444 527.913 429.481V450.33C527.913 456.353 523.187 461.318 517.355 461.431Z" fill="#F6F8FB"/>
<path d="M517.274 508.742L290.839 511.337C284.953 511.408 280.188 506.682 280.188 500.786V483.845C280.188 477.949 284.953 473.097 290.839 472.998L517.274 469.274C523.16 469.175 527.926 474.028 527.926 480.107V497.598C527.926 503.678 523.16 508.657 517.274 508.728V508.742Z" fill="#F6F8FB"/>
<mask id="mask0_656_129" style="mask-type:luminance" maskUnits="userSpaceOnUse" x="147" y="282" width="69" height="67">
<path d="M215.198 314.251C215.198 332.815 200.038 348.359 181.34 348.98C162.643 349.601 147.482 335.184 147.482 316.776C147.482 298.368 162.643 282.824 181.34 282.048C200.038 281.272 215.198 295.688 215.198 314.251Z" fill="white"/>
</mask>
<g mask="url(#mask0_656_129)">
<path d="M215.198 314.251C215.198 332.815 200.038 348.359 181.34 348.98C162.643 349.601 147.482 335.184 147.482 316.776C147.482 298.368 162.643 282.824 181.34 282.048C200.038 281.272 215.198 295.688 215.198 314.251Z" fill="#45C0D9"/>
<path d="M210.461 328.936C213.35 329.641 216.55 329.26 219.25 327.849C216.293 335.65 210.529 341.969 202.348 344.776C195.125 347.245 187.255 345.877 179.857 344.551C175.604 343.789 168.8 341.419 166.046 337.977C164.129 335.579 162.469 333.012 161.146 330.233C157.285 322.165 156.448 311.628 162.064 303.616C167.342 296.069 176.914 292.853 185.702 293.417C194.207 293.967 201.362 298.947 204.035 307.001C204.926 309.667 205.237 312.502 205.885 315.239C206.533 317.975 207.599 320.726 209.651 322.616C211.717 324.506 214.984 325.339 217.535 323.956C215.159 326.481 211.771 328.047 208.355 328.188C209.03 328.498 209.732 328.738 210.461 328.921V328.936Z" fill="url(#paint0_linear_656_129)"/>
<path d="M217.102 336.482C225.351 337.568 233.451 333.308 242.158 324.506L239.458 321.572C232.02 329.091 224.46 332.095 217.993 331.263C208.071 329.979 202.509 319.005 202.455 318.892L199.903 320.317L202.266 319.047L197.527 321.572C197.811 322.108 204.493 334.804 217.102 336.468V336.482Z" fill="#A75CD9"/>
<path d="M165.18 347.259L192.936 349.318L192.328 352.422L169.338 352.464L167.205 350.108L165.18 347.245V347.259Z" fill="#4AD5C2"/>
<path d="M173.214 350.814L168.179 348.289C168.273 357.895 161.429 359.968 161.199 360.081H161.213L161.523 363.156C161.834 363.001 171.27 360.645 173.201 350.814H173.214Z" fill="#4AD5C2"/>
<path d="M191.355 348.994L185.32 351.97C194.298 355.468 194.136 363.636 194.136 363.876L196.539 363.692L194.136 363.847L197.146 364.722C197.146 364.383 198.28 353.959 191.355 348.98V348.994Z" fill="#4AD5C2"/>
<path d="M202.008 312.248C194.448 299.581 184.215 299.186 173.752 304.321C160.644 310.739 163.492 324.266 163.492 324.266C163.425 322.969 161.413 322.461 161.157 315.14C160.995 310.471 163.195 306.818 166.759 303.559C169.054 301.472 171.741 299.849 174.643 298.777C180.894 296.45 187.711 296.549 193.692 299.059C199.942 301.725 204.681 307.579 202.885 315.084C202.71 315.789 202.264 313.969 202.48 314.632C202.48 314.632 201.994 312.262 202.021 312.248H202.008Z" fill="#5932CF"/>
<path d="M185.633 327.37C192.99 326.425 201.104 321.925 201.995 320.232C202.791 318.695 202.44 315.817 202.089 314.237C200.712 308.073 191.276 303.87 183.027 304.49C173.267 305.252 164.87 312.206 164.397 321.869C164.37 322.419 164.37 322.884 164.397 323.463C163.776 327.878 175.319 328.71 185.633 327.384V327.37Z" fill="#FCDBC7"/>
<path d="M173.82 318.554C173.78 318.85 173.861 319.146 174.036 319.372C174.212 319.598 174.482 319.753 174.779 319.781C174.995 319.809 175.224 319.767 175.427 319.668C175.629 319.569 175.805 319.414 175.913 319.217C176.034 319.019 176.088 318.794 176.075 318.582C176.075 318.356 175.98 318.145 175.845 317.975C175.71 317.806 175.521 317.679 175.319 317.609C175.103 317.538 174.873 317.538 174.657 317.609C174.441 317.665 174.239 317.792 174.09 317.961C173.942 318.131 173.847 318.342 173.807 318.568L173.82 318.554Z" fill="#426932"/>
<path d="M192.98 316.085C192.953 316.226 192.966 316.367 192.993 316.508C193.02 316.649 193.088 316.776 193.169 316.889C193.25 317.002 193.358 317.087 193.479 317.157C193.601 317.228 193.736 317.27 193.884 317.284C194.168 317.326 194.478 317.27 194.721 317.101C194.978 316.932 195.153 316.692 195.221 316.395C195.248 316.254 195.234 316.113 195.207 315.972C195.18 315.831 195.113 315.704 195.032 315.591C194.951 315.479 194.843 315.394 194.708 315.323C194.586 315.253 194.451 315.211 194.303 315.197C194.019 315.14 193.709 315.211 193.466 315.38C193.209 315.549 193.034 315.803 192.966 316.085H192.98Z" fill="#426932"/>
<path d="M179.734 315.422C190.696 313.222 189.724 306.592 189.724 306.592L191.25 307.142C190.993 315.535 176.737 316.325 176.737 316.325C176.737 316.325 168.759 317.609 179.721 315.422H179.734Z" fill="#935123"/>
<path d="M202.656 310.076C204.6 314.858 202.265 319.922 202.238 319.922C201.644 320.359 193.328 311.995 190.682 308.059C186.47 312.911 178.451 315.563 172.376 317.623C170.715 318.187 169.028 318.822 167.732 320.021C166.949 320.768 166.314 321.657 165.882 322.644C165.45 323.618 165.207 324.676 165.194 325.734C165.153 326.834 164.303 325.889 163.938 325.254C162.845 323.364 162.44 321.812 162.305 319.005C162.048 313.617 164.343 309.343 168.569 305.619C178.68 296.69 197.837 298.241 202.656 310.104V310.076Z" fill="url(#paint1_linear_656_129)"/>
<path d="M202.186 322.165L202.253 319.95L191.642 324.915C182.894 326.608 178.25 327.299 169.502 325.635C166.249 325.028 161.848 323.039 161.848 323.039L165.155 349.333L195.976 350.701L202.186 322.165Z" fill="#A75CD9"/>
<path d="M185.703 336.51L182.895 336.13C183.327 334.38 183.718 332.166 183.61 327.045L186.445 326.89C186.54 332.025 186.175 334.451 185.689 336.51H185.703Z" fill="#5932CF"/>
<path d="M189.007 330.854L184.943 327.088L181.177 331.559L161.008 322.912L161.656 322.207C161.656 322.207 163.991 323.519 168.271 324.549C187.846 329.105 202.399 319.245 202.399 319.245L203.101 319.428L189.007 330.868V330.854Z" fill="#F2F2F2"/>
<path d="M185.715 329.542C185.742 329.175 185.458 328.851 185.08 328.837C184.702 328.837 184.378 329.119 184.351 329.486C184.324 329.852 184.608 330.177 184.986 330.191C185.364 330.191 185.688 329.909 185.715 329.542Z" fill="#7589A1"/>
<path d="M185.555 332.476C185.582 332.109 185.298 331.785 184.92 331.771C184.542 331.771 184.218 332.053 184.191 332.42C184.164 332.786 184.448 333.111 184.826 333.125C185.204 333.125 185.528 332.843 185.555 332.476Z" fill="#7589A1"/>
<path d="M188.144 319.964C187.753 320.275 186.821 320.881 185.755 321.192C184.364 321.601 183.406 321.474 183.122 321.29C182.987 321.206 182.906 320.98 182.879 320.768C182.852 320.797 182.812 320.825 182.785 320.867C182.083 321.671 183.068 322.659 183.851 322.969C184.621 323.279 186.686 323.096 187.847 322.292C188.86 321.586 188.887 320.373 188.158 319.95L188.144 319.964Z" fill="#BD2A1D"/>
<path d="M183.124 321.304C183.421 321.488 184.379 321.615 185.756 321.206C186.823 320.881 187.741 320.289 188.146 319.978C188.038 319.908 187.916 319.865 187.768 319.837C186.998 319.71 185.81 320.472 184.906 320.613C184.042 320.74 183.488 320.218 182.881 320.796C182.921 321.008 182.989 321.234 183.124 321.318V321.304Z" fill="#F6F6F7"/>
<path d="M186.173 347.513L188.954 328.696C189.143 327.666 188.036 327.694 188.036 327.694L181.016 326.918L175.684 326.326L173.996 326.143C173.996 326.143 172.943 325.875 172.822 326.918L172.673 327.906L170.014 345.707C170.014 345.707 169.811 346.554 170.702 346.624L177.965 347.442L185.228 348.261C186.106 348.387 186.16 347.527 186.16 347.527L186.173 347.513Z" fill="#5932CF"/>
<path d="M178.143 346.286C177.94 346.257 177.765 346.399 177.738 346.596C177.711 346.793 177.846 346.963 178.048 346.991C178.251 347.019 178.426 346.878 178.453 346.681C178.48 346.483 178.345 346.314 178.143 346.286Z" fill="#AB7AA1"/>
<path d="M187.591 328.978L174.064 327.483L172.012 341.306L187.24 331.418L187.591 328.978Z" fill="white"/>
<path d="M172.012 341.306L171.445 345.157L184.959 346.681L187.24 331.418L172.012 341.306Z" fill="#EBEBEB"/>
<path d="M171.027 343.436C167.233 345.496 163.534 347.09 157.81 346.243C154.057 345.693 151.735 343.93 150.426 341.292C147.483 335.382 153.247 327.892 158.674 324.436C159.066 324.182 159.97 323.604 160.875 323.406C162.157 323.124 163.683 324.633 163.683 324.647C164.007 325.042 166.099 324.52 160.888 327.948C152.518 333.435 152.032 341.447 159.228 342.209C163.237 342.632 166.909 341.264 169.501 339.078L170.973 341.165C171.243 341.278 172.161 342.844 171.027 343.45V343.436Z" fill="#A75CD9"/>
<path d="M170.486 339.049C170.634 338.824 170.877 338.57 171.053 338.654C171.161 338.711 171.161 338.852 171.161 338.993C171.161 339.416 171.12 339.853 171.039 340.305C171.039 340.248 169.068 341.377 168.893 341.504C169.203 340.686 169.973 339.811 170.486 339.064V339.049Z" fill="#FCDDD1"/>
<path d="M170.054 344.127C170.945 343.902 171.849 343.662 172.74 343.507C173.01 343.45 173.294 343.394 173.564 343.352C173.753 343.323 174.171 343.366 174.347 343.239C174.59 343.055 174.522 342.858 174.401 342.717C174.212 342.505 173.861 342.576 173.577 342.576C173.483 342.576 172.983 342.66 172.983 342.491C172.983 342.237 173.456 342.181 173.78 342.139C173.874 342.139 174.347 342.11 174.428 342.139C174.576 342.195 174.738 342.167 174.9 342.139C174.995 342.139 175.116 342.082 175.157 341.955C175.184 341.871 175.157 341.786 175.13 341.73C175.062 341.588 174.954 341.49 174.846 341.405C174.333 341.01 173.658 341.349 173.037 341.32C173.01 341.32 172.997 341.32 172.983 341.292C172.916 341.123 173.672 340.94 173.739 340.925C173.834 340.897 173.915 340.869 174.009 340.883C174.09 340.883 174.387 340.883 174.468 340.925C174.63 341.024 174.914 340.954 175.116 340.954C175.184 340.954 175.278 340.94 175.305 340.841C175.319 340.799 175.305 340.756 175.305 340.714C175.265 340.46 174.954 340.319 174.792 340.178C174.374 339.811 174.131 339.91 173.672 339.91C173.348 339.91 172.835 340.121 172.565 339.995C173.064 339.543 173.766 339.444 174.266 339.529C174.36 339.543 174.495 339.557 174.563 339.43C174.914 338.781 173.658 338.584 173.456 338.654C172.821 338.88 172.16 339.092 171.525 339.416C170.837 339.755 170.283 340.263 169.649 340.756C169.149 341.151 168.596 341.673 168.434 342.463C168.312 343.112 168.636 344.043 169.068 344.184C169.338 344.269 169.689 344.198 170.054 344.113V344.127Z" fill="#FCDDD1"/>
</g>
<path d="M502.285 605.719H436.729C431.152 605.719 426.631 610.443 426.631 616.27V621.701C426.631 627.528 431.152 632.252 436.729 632.252H502.285C507.862 632.252 512.383 627.528 512.383 621.701V616.27C512.383 610.443 507.862 605.719 502.285 605.719Z" fill="#576DAD"/>
<path d="M473.098 620.474H465.916V669.59H473.098V620.474Z" fill="#576DAD"/>
<path d="M495.697 666.868H441.373V670.62H495.697V666.868Z" fill="#576DAD"/>
<path d="M509.32 563.275C509.455 562.161 509.563 560.101 509.617 559.001C510.494 539.902 497.548 528.053 480.295 525.683C462.016 523.172 443.467 532.524 443.656 555.728C443.71 561.441 452.741 563.261 460.49 567.253C467.726 570.991 463.933 569.086 473.113 570.356C491.446 572.881 507.47 578.142 509.306 563.275H509.32Z" fill="#FBD9C6"/>
<path d="M490.244 551.722C490.19 550.509 489.205 549.564 488.057 549.635C486.91 549.705 486.032 550.749 486.086 551.962C486.14 553.175 487.126 554.12 488.273 554.05C489.421 553.979 490.298 552.935 490.244 551.722Z" fill="#3E2414"/>
<path d="M472.233 511.337C467.387 512.212 462.743 514.271 457.856 514.85C452.915 515.428 445.355 515.456 442.142 511.21C438.321 518.94 442.358 530.098 448.406 532.242C442.898 535.247 440.873 548.125 443.573 554.332C444.126 548.901 446.3 543.908 448.932 541.524C454.022 536.925 460.529 537.278 466.698 538.392C473.799 539.676 480.86 540.974 488.096 540.621C490.364 540.508 492.618 540.254 494.846 539.789C495.642 539.634 501.042 538.717 501.218 537.899C499.125 548.055 506.645 563.049 508.062 562.88C508.278 562.852 511.086 559.48 513.381 555.968C515.771 552.315 517.607 545.389 516.959 540.692C516.149 534.866 514.002 533.173 509.345 531.114C506.564 529.886 506.105 531.269 504.782 528.377C503.04 524.597 499.301 520.111 496.142 517.671C489.324 512.395 480.59 509.828 472.22 511.323L472.233 511.337Z" fill="#663115"/>
<path d="M481.117 546.164C481.117 546.164 498.978 545.911 502.488 535.472C505.998 525.034 504.162 537.969 504.162 537.969C504.162 537.969 500.476 547.406 481.117 546.164Z" fill="#663115"/>
<path d="M449.379 505.413C449.379 505.413 449.244 522.918 466.807 518.475C482.805 514.427 469.008 511.986 469.008 511.986C469.008 511.986 453.847 518.828 449.379 505.413Z" fill="#663115"/>
<path d="M506.445 520.012C506.445 520.012 500.424 525.288 506.648 532.877C512.871 540.466 510.833 532.369 510.833 532.369C510.833 532.369 503.354 529.477 506.445 520.012Z" fill="#663115"/>
<path d="M514.529 524.639C514.529 524.639 512.855 532.806 503.769 530.211C494.684 527.601 503 527.686 503 527.686C503 527.686 508.062 531.861 514.529 524.653V524.639Z" fill="#663115"/>
<path d="M447.059 606.721L496.347 610.656L511.642 561.004C511.642 561.004 503.084 565.447 497.198 566.124C485.601 567.464 478.311 568.903 469.631 567.126C466.431 566.463 462.03 564.953 458.466 563.67C445.236 558.888 442.36 553.895 442.36 553.895L442.145 554.699L447.059 606.735V606.721Z" fill="#057CFF"/>
<path d="M457.804 546.968C457.736 545.826 456.737 544.937 455.576 544.994C454.415 545.05 453.538 546.023 453.605 547.166C453.673 548.309 454.672 549.197 455.833 549.141C456.994 549.084 457.871 548.125 457.804 546.968Z" fill="#3E2414"/>
<path d="M469.989 571.639C470.069 570.927 469.593 570.284 468.927 570.202C468.26 570.121 467.656 570.632 467.576 571.344C467.496 572.056 467.972 572.699 468.638 572.78C469.305 572.862 469.91 572.35 469.989 571.639Z" fill="#7588A0"/>
<path d="M469.673 577.224C469.753 576.512 469.277 575.869 468.611 575.787C467.944 575.706 467.339 576.217 467.259 576.929C467.18 577.641 467.656 578.284 468.322 578.365C468.988 578.447 469.593 577.936 469.673 577.224Z" fill="#7588A0"/>
<path d="M466.889 566.322L471.87 567.041C470.601 576.746 470.804 581.048 471.182 584.448L466.146 584.73C465.728 580.738 465.606 576.055 466.889 566.322Z" fill="#96CAE1"/>
<path d="M469.968 572.5C470.048 571.788 469.572 571.145 468.905 571.064C468.239 570.982 467.634 571.493 467.554 572.205C467.475 572.917 467.95 573.56 468.617 573.642C469.283 573.723 469.888 573.212 469.968 572.5Z" fill="white"/>
<path d="M469.648 578.099C469.727 577.388 469.252 576.744 468.585 576.663C467.919 576.582 467.314 577.093 467.234 577.804C467.154 578.516 467.63 579.159 468.297 579.241C468.963 579.322 469.568 578.811 469.648 578.099Z" fill="white"/>
<path style="mix-blend-mode:hard-light" opacity="0.67" d="M500.18 543.569C498.196 540.452 493.687 540 490.447 539.38C486.95 538.703 478.972 538.096 476.92 542.046C475.624 544.542 476.434 550.213 477.298 552.865C478.405 556.194 480.686 557.802 483.724 558.563C488.422 559.72 495.523 561.187 498.52 555.545C500.14 552.498 502.165 547.533 500.518 544.176C500.423 543.978 500.302 543.767 500.18 543.583V543.569Z" fill="url(#paint2_linear_656_129)"/>
<path style="mix-blend-mode:hard-light" opacity="0.67" d="M467.442 538.519C465.458 535.402 460.949 534.95 457.709 534.33C454.212 533.653 446.234 533.046 444.182 536.996C442.886 539.493 443.696 545.163 444.56 547.815C445.667 551.144 447.948 552.752 450.986 553.514C455.684 554.67 462.785 556.137 465.782 550.495C467.402 547.448 469.427 542.483 467.78 539.126C467.685 538.928 467.564 538.717 467.442 538.533V538.519Z" fill="url(#paint3_linear_656_129)"/>
<path d="M487.692 537.405C482.764 536.953 479.497 537.278 473.368 537.405C467.536 535.43 464.499 534.132 459.652 533.074C454.279 531.904 445.599 531.241 442.305 531.763C442.305 531.763 441.657 537.052 441.238 542.384C441.238 542.384 442.71 543.301 443.074 545.318C443.439 547.335 443.034 553.641 451.971 555.192C461.38 556.814 465.795 556.984 469.237 546.574C469.237 546.574 470.196 543.287 472.545 543.231C474.772 543.992 474.799 547.434 474.799 547.434C475.231 558.437 479.511 559.607 488.961 560.905C497.952 562.132 499.302 555.982 500.193 554.148C501.097 552.315 502.758 551.892 502.758 551.892C503.811 546.658 504.648 541.397 504.648 541.397C501.651 539.902 493.146 537.913 487.678 537.405H487.692ZM467.766 544.105C467.577 544.824 467.347 545.53 467.077 546.221C466.051 548.915 464.661 551.807 462.015 553.034C461.38 553.33 460.705 553.514 460.017 553.612C457.33 553.993 454.306 553.443 451.701 552.766C450.351 552.413 449.028 551.877 447.907 550.989C446.787 550.1 445.963 548.845 445.491 547.434C444.6 544.796 444.505 541.284 445.18 538.576C445.747 536.305 447.354 534.725 449.595 534.626C453.213 534.471 457.317 535.049 460.8 535.938C463.284 536.573 465.997 537.348 467.55 539.803C467.941 540.423 468.076 541.171 468.076 541.905C468.076 542.652 467.941 543.386 467.766 544.105ZM497.304 555.418C496.467 556.617 495.319 557.576 494.01 558.084C492.7 558.606 491.283 558.719 489.892 558.648C487.206 558.507 484.155 558.112 481.698 556.941C481.063 556.645 480.469 556.264 479.943 555.785C477.742 553.824 477.216 550.636 476.973 547.744C476.905 546.997 476.878 546.249 476.892 545.516C476.919 544.768 477 544.02 477.202 543.315C477.405 542.61 477.742 541.933 478.282 541.453C480.442 539.563 483.25 539.648 485.802 539.789C489.379 539.986 493.47 540.663 496.899 541.919C499.018 542.695 500.125 544.683 500.031 547.039C499.923 549.846 498.87 553.175 497.29 555.432L497.304 555.418Z" fill="#0F153D"/>
<path d="M479.605 557.957C478.754 558.281 476.851 558.789 474.853 558.69C472.261 558.549 470.695 557.689 470.303 557.153C470.114 556.913 470.114 556.448 470.168 556.024C470.101 556.067 470.02 556.095 469.952 556.151C468.292 557.195 469.439 559.664 470.573 560.764C471.707 561.85 475.312 562.852 477.742 562.118C479.848 561.483 480.577 559.226 479.591 557.957H479.605Z" fill="#BC2D26"/>
<path d="M470.303 557.167C470.694 557.689 472.26 558.564 474.852 558.705C476.85 558.803 478.754 558.296 479.604 557.971C479.456 557.774 479.267 557.604 479.037 557.463C477.809 556.716 475.338 557.365 473.718 557.026C472.179 556.702 471.545 555.362 470.168 556.053C470.114 556.476 470.114 556.927 470.303 557.181V557.167Z" fill="#F5F5F6"/>
<path d="M465.024 602.644C466.279 604.675 469.816 608.23 468.615 610.459C466.86 613.731 460.231 610.924 452.158 609.048C423.282 598.412 426.117 626.723 426.117 626.723L421.176 626.568C421.176 626.568 420.636 621.151 421.027 614.69C421.54 606.34 426.711 601.6 434.5 598.892C438.942 597.34 447.528 596.579 452.158 597.637C452.415 597.693 451.902 597.566 452.158 597.637C454.548 598.427 463.674 600.43 465.024 602.644Z" fill="#043296"/>
<path d="M498.977 602.39C499.018 603.787 496.602 611.404 495.994 612.659C495.292 614.098 490.014 613.759 478.93 612.038C471.748 610.783 472.95 611.093 459.774 609.217C459.774 609.217 441.724 605.423 443.155 604.689C447.448 602.517 446.382 598.116 446.382 598.116C446.625 596.212 448.757 595.775 475.784 599.837C488.947 601.092 498.977 602.404 498.977 602.404L495.913 608.047" fill="#043296"/>
<path d="M498.075 604.534C497.332 609.344 496.968 611.347 494.524 613.858C491.905 616.538 483.913 613.322 477.865 612.067C459.964 604.746 459.181 633.522 459.181 633.522L453.957 631.081C453.957 631.081 452.904 632.915 454.618 619.091C455.644 610.868 461.071 601.318 469.239 600.147C471.844 599.781 474.895 599.922 477.474 600.373C479.593 600.74 496.887 603.363 498.061 604.534H498.075Z" fill="#043296"/>
<path d="M413.902 630.136C413.902 630.136 413.902 630.207 413.902 630.235L426.39 630.306C426.39 630.306 426.39 630.235 426.39 630.207C426.39 630.009 426.39 629.826 426.363 629.628L413.929 629.558C413.902 629.741 413.902 629.939 413.889 630.136H413.902Z" fill="white"/>
<path d="M420.178 624.466C417.194 624.451 414.683 626.356 414.049 628.909L426.253 628.979C425.645 626.412 423.161 624.48 420.178 624.466Z" fill="white"/>
<path d="M414.049 628.909C413.995 629.121 413.955 629.332 413.928 629.558L426.361 629.628C426.334 629.403 426.294 629.191 426.253 628.98L414.049 628.909Z" fill="#B2202B"/>
<path d="M420.705 626.666C420.705 626.991 420.462 627.259 420.151 627.244C419.841 627.244 419.598 626.976 419.598 626.652C419.598 626.328 419.841 626.074 420.151 626.074C420.462 626.074 420.705 626.342 420.705 626.666Z" fill="#211E1F"/>
<path d="M420.867 625.411C421.947 623.563 422.055 623.083 424.161 624.212C425.606 624.988 425.916 625.608 424.755 626.723C423.756 626.229 422.73 625.665 421.65 625.411H420.867Z" fill="white"/>
<path d="M423.149 626.06C423.149 626.314 422.947 626.525 422.717 626.525C422.474 626.525 422.285 626.314 422.285 626.06C422.285 625.806 422.488 625.594 422.717 625.608C422.96 625.608 423.149 625.82 423.149 626.074V626.06Z" fill="#211E1F"/>
<path d="M446.853 633.268C446.853 633.268 446.853 633.324 446.84 633.366L458.895 636.766C458.895 636.766 458.922 636.709 458.922 636.667C458.976 636.484 459.003 636.286 459.03 636.103L447.029 632.718C446.961 632.901 446.907 633.084 446.853 633.268Z" fill="white"/>
<path d="M454.321 629.459C451.432 628.641 448.543 629.812 447.314 632.125L459.086 635.454C459.127 632.816 457.196 630.277 454.321 629.473V629.459Z" fill="white"/>
<path d="M447.315 632.111C447.207 632.309 447.112 632.506 447.045 632.704L459.046 636.089C459.073 635.863 459.087 635.652 459.1 635.426L447.328 632.097L447.315 632.111Z" fill="#B2202B"/>
<path d="M454.293 631.73C454.212 632.041 453.915 632.224 453.618 632.153C453.321 632.069 453.146 631.744 453.227 631.434C453.308 631.124 453.605 630.94 453.902 631.025C454.199 631.11 454.374 631.434 454.293 631.744V631.73Z" fill="#211E1F"/>
<path d="M454.75 630.559C456.249 629.064 456.464 628.627 458.233 630.277C459.434 631.406 459.583 632.097 458.192 632.873C457.342 632.125 456.491 631.307 455.506 630.785L454.75 630.574V630.559Z" fill="white"/>
<path d="M456.804 631.787C456.736 632.027 456.507 632.182 456.264 632.111C456.034 632.041 455.899 631.801 455.967 631.547C456.034 631.307 456.264 631.152 456.493 631.222C456.723 631.293 456.858 631.533 456.79 631.787H456.804Z" fill="#211E1F"/>
<path d="M489.622 595.323C487.827 594.999 485.248 593.447 483.358 593.645C481.468 593.842 479.713 595.774 478.903 595.14C479.011 593.645 480.591 593.433 481.306 592.262C480.672 592.615 477.486 594.322 477.162 593.645C476.676 592.671 480.685 590.978 481.347 590.273C481.455 590.16 478.822 590.922 477.189 591.909C476.041 592.079 476.136 591.613 476.23 591.261C476.473 590.4 478.309 589.314 479.376 588.764C483.156 587.339 478.417 587.621 475.501 588.665C474.286 585.816 483.075 584.984 486.355 586.14C487.867 586.676 494.239 589.117 494.334 591.416C494.361 592.304 494.023 593.898 493.821 594.829C492.957 595.097 491.809 595.718 489.636 595.323H489.622Z" fill="#FBD9C6"/>
<path d="M449.512 595.267C451.321 595.111 454.035 593.814 455.898 594.195C457.761 594.575 459.34 596.677 460.191 596.113C460.218 594.618 458.665 594.237 458.058 593.01C458.652 593.419 461.676 595.422 462.067 594.787C462.634 593.87 458.8 591.797 458.206 591.021C458.112 590.908 460.663 591.909 462.189 593.052C463.323 593.334 463.269 592.855 463.201 592.502C463.026 591.627 461.311 590.358 460.285 589.709C456.654 587.932 461.338 588.665 464.146 589.991C465.604 587.269 456.937 585.59 453.562 586.422C452.01 586.803 445.449 588.623 445.152 590.908C445.044 591.783 445.246 593.405 445.368 594.35C446.205 594.702 447.285 595.436 449.499 595.253L449.512 595.267Z" fill="#FBD9C6"/>
<path d="M489.432 596.367C496.034 600.415 501.582 604.252 511.626 603.519C518.214 603.039 522.399 599.978 525.369 595.422C532.389 584.701 524.424 570.652 515.771 563.472C515.136 562.95 512.585 561.215 511.059 560.722C508.899 560.016 505.97 562.612 505.97 562.612C505.335 563.303 503.985 564.77 510.087 569.115C524.276 579.228 522.534 595.464 509.993 595.803C502.986 596 497.33 592.051 493.32 587.635C493.32 587.635 488.244 595.648 489.419 596.367H489.432Z" fill="#057CFF"/>
<path d="M449.151 595.76C441.956 597.58 434.693 598.412 426.12 592.911C420.491 589.314 418.479 584.123 418.074 578.608C417.156 566.223 431.088 557.167 441.942 554.966C442.739 554.811 443.913 555.234 445.209 556.194C447.113 557.604 448.355 559.24 448.355 559.24C448.611 560.157 448.922 561.004 443.252 562.64C426.701 567.436 420.572 580.004 431.547 586.352C437.676 589.906 444.386 588.665 449.894 586.676C449.894 586.676 450.272 595.464 449.178 595.732L449.151 595.76Z" fill="#057CFF"/>
<path d="M442.142 554.698L442.615 552.808C442.615 552.808 461.191 574.32 496.547 564.502C503.608 562.908 510.007 559.762 510.007 559.762L511.073 560.736C511.073 560.736 498.383 570.92 475.231 575.603C474.461 575.758 469.52 566.547 469.52 566.547L461.501 573.092L442.129 554.713L442.142 554.698Z" fill="#F2F2F2"/>
<path d="M536.24 606.664H361.023L359.309 595.083H537.954L536.24 606.664Z" fill="#7B98F4"/>
<path d="M533.107 678.9L530.245 680.226L489.016 597.481L491.878 596.17L533.107 678.9Z" fill="#7B98F4"/>
<path d="M486.18 678.9L489.042 680.226L530.271 597.481L527.395 596.17L486.18 678.9Z" fill="#7B98F4"/>
<path d="M418.759 678.9L415.897 680.226L374.668 597.481L377.53 596.17L418.759 678.9Z" fill="#7B98F4"/>
<path d="M371.82 678.9L374.696 680.226L415.911 597.481L413.049 596.169L371.82 678.9Z" fill="#7B98F4"/>
<path d="M461.637 589.878H409.797C408.634 589.878 407.691 590.863 407.691 592.079V592.953C407.691 594.169 408.634 595.154 409.797 595.154H461.637C462.801 595.154 463.743 594.169 463.743 592.953V592.079C463.743 590.863 462.801 589.878 461.637 589.878Z" fill="#534F78"/>
<path d="M430.467 594.985H379.343C375.374 594.985 374.037 592.333 372.147 587.466L357.297 550.932C355.407 545.882 357.81 543.414 361.793 543.414H415.617C419.586 543.414 420.95 545.882 422.813 550.932L437.663 587.466C438.689 591.388 437.339 594.434 430.467 594.985Z" fill="#534F78"/>
<path d="M380.257 568.606V568.549C380.257 568.549 380.243 568.465 380.216 568.422C380.189 568.394 380.149 568.366 380.108 568.366H377.989C377.894 568.366 377.827 568.394 377.773 568.451C377.732 568.507 377.705 568.578 377.705 568.676V573.035C377.705 573.134 377.719 573.204 377.759 573.261C377.8 573.317 377.867 573.345 377.975 573.345H380.095C380.095 573.345 380.176 573.331 380.203 573.289C380.23 573.261 380.243 573.218 380.243 573.162V573.106C380.243 573.106 380.23 573.007 380.203 572.979C380.176 572.95 380.135 572.936 380.095 572.936H378.07V568.789H380.095C380.095 568.789 380.176 568.775 380.203 568.747C380.23 568.719 380.243 568.676 380.243 568.62L380.257 568.606Z" fill="white"/>
<path d="M394.486 568.733C394.486 568.733 394.526 568.662 394.526 568.606V568.549C394.526 568.549 394.513 568.465 394.486 568.422C394.459 568.394 394.418 568.366 394.378 568.366H392.258C392.164 568.366 392.096 568.394 392.042 568.451C392.002 568.507 391.975 568.577 391.975 568.676V573.035C391.975 573.134 391.988 573.204 392.029 573.261C392.069 573.317 392.137 573.345 392.245 573.345H394.364C394.364 573.345 394.445 573.331 394.472 573.289C394.499 573.261 394.513 573.218 394.513 573.162V573.105C394.513 573.105 394.499 573.007 394.472 572.979C394.445 572.95 394.405 572.936 394.364 572.936H392.339V568.789H394.364C394.364 568.789 394.445 568.775 394.472 568.747" fill="white"/>
<path d="M409.093 568.733C409.093 568.733 409.134 568.662 409.134 568.606V568.549C409.134 568.549 409.12 568.465 409.093 568.422C409.066 568.394 409.026 568.366 408.985 568.366H406.866C406.771 568.366 406.704 568.394 406.65 568.451C406.609 568.507 406.582 568.577 406.582 568.676V573.035C406.582 573.134 406.596 573.204 406.636 573.261C406.677 573.317 406.744 573.345 406.852 573.345H408.972C408.972 573.345 409.053 573.331 409.08 573.289C409.107 573.261 409.12 573.218 409.12 573.162V573.105C409.12 573.105 409.107 573.007 409.08 572.979C409.053 572.95 409.012 572.936 408.972 572.936H406.947V568.789H408.972C408.972 568.789 409.053 568.775 409.08 568.747" fill="white"/>
<path d="M415.032 571.103C415.464 571.103 415.788 570.962 415.991 570.693C416.193 570.425 416.288 570.101 416.288 569.748C416.288 568.846 415.761 568.38 414.735 568.38H413.871C413.75 568.38 413.682 568.408 413.642 568.465C413.601 568.521 413.574 568.606 413.574 568.747V573.19C413.574 573.19 413.601 573.359 413.75 573.359H413.777C413.912 573.359 413.952 573.233 413.952 573.19V568.803H414.735C415.532 568.803 415.923 569.114 415.923 569.763C415.923 569.974 415.869 570.172 415.748 570.369C415.694 570.468 415.599 570.552 415.478 570.609C415.356 570.665 415.208 570.708 415.032 570.708H414.749C414.546 570.708 414.492 570.849 414.492 570.962C414.492 571.018 414.519 571.088 414.573 571.159L416.031 573.289C416.112 573.374 416.193 573.402 416.288 573.359C416.396 573.303 416.423 573.162 416.342 573.049L415.019 571.117L415.032 571.103Z" fill="white"/>
<path d="M378.502 570.693C378.502 570.693 378.421 570.708 378.394 570.736C378.367 570.764 378.354 570.792 378.354 570.835V570.891C378.354 570.976 378.408 571.032 378.502 571.032H379.785C379.879 571.032 379.933 570.976 379.933 570.891V570.835C379.933 570.835 379.92 570.764 379.893 570.736C379.866 570.708 379.825 570.693 379.785 570.693H378.502Z" fill="white"/>
<path d="M392.785 570.693C392.785 570.693 392.704 570.708 392.677 570.736C392.65 570.764 392.637 570.792 392.637 570.835V570.891C392.637 570.976 392.691 571.032 392.785 571.032H394.068C394.162 571.032 394.216 570.976 394.216 570.891V570.835C394.216 570.835 394.203 570.764 394.176 570.736C394.149 570.708 394.108 570.693 394.068 570.693H392.785Z" fill="white"/>
<path d="M407.393 570.693C407.393 570.693 407.312 570.708 407.285 570.736C407.258 570.764 407.244 570.792 407.244 570.835V570.891C407.244 570.976 407.298 571.032 407.393 571.032H408.675C408.77 571.032 408.824 570.976 408.824 570.891V570.835C408.824 570.835 408.81 570.764 408.783 570.736C408.756 570.708 408.716 570.693 408.675 570.693H407.393Z" fill="white"/>
<path d="M385.062 572.936V568.549C385.062 568.549 385.048 568.465 385.021 568.422C384.994 568.394 384.94 568.366 384.886 568.366H384.859C384.859 568.366 384.765 568.38 384.738 568.422C384.711 568.451 384.697 568.493 384.697 568.549V573.021C384.697 573.247 384.792 573.359 384.981 573.359H387.087C387.087 573.359 387.168 573.345 387.195 573.303C387.222 573.275 387.235 573.232 387.235 573.176V573.12C387.235 573.007 387.181 572.95 387.087 572.95H385.062V572.936Z" fill="white"/>
<path d="M401.991 568.38C401.991 568.38 401.937 568.38 401.91 568.38C401.843 568.38 401.789 568.422 401.748 568.493L400.317 572.767L399.75 571.004C399.71 570.863 399.642 570.835 399.548 570.835H398.846C398.846 570.835 398.751 570.849 398.724 570.891C398.697 570.919 398.684 570.961 398.684 571.018V571.074C398.684 571.187 398.738 571.244 398.846 571.244H399.386L400.034 573.134C400.088 573.275 400.182 573.359 400.331 573.359C400.479 573.359 400.574 573.289 400.628 573.148L402.153 568.62C402.194 568.493 402.099 568.422 401.991 568.394" fill="white"/>
<path d="M405.41 149.566H366.112C354.026 149.566 344.229 159.804 344.229 172.432V212.041C344.229 224.669 354.026 234.906 366.112 234.906H405.41C417.496 234.906 427.294 224.669 427.294 212.041V172.432C427.294 159.804 417.496 149.566 405.41 149.566Z" fill="#8A332B"/>
<path d="M398.016 149.566H358.717C346.632 149.566 336.834 159.804 336.834 172.432V212.041C336.834 224.669 346.632 234.906 358.717 234.906H398.016C410.102 234.906 419.899 224.669 419.899 212.041V172.432C419.899 159.804 410.102 149.566 398.016 149.566Z" fill="#FF7666"/>
<path d="M353.168 195.1L370.016 205.651V199.078L359.148 192.66L370.016 186.227V179.654L353.168 190.219V195.1Z" fill="#525DFF"/>
<path d="M373.283 209.925H377.914L384.137 173.461H379.507L373.283 209.925Z" fill="#FFD633"/>
<path d="M387.078 179.654V186.227L398.175 192.66L387.078 199.078V205.651L403.926 195.227V190.078L387.078 179.654Z" fill="#52E5FF"/>
<path d="M513.991 299.878C509.644 313.461 495.577 320.796 482.577 316.24C469.576 311.698 462.556 297 466.917 283.416C471.264 269.832 485.331 262.497 498.331 267.053C511.332 271.595 518.352 286.294 513.991 299.878Z" fill="#00CE64"/>
<path d="M511.361 273.034C498.954 280.426 484.037 297.987 484.037 297.987L473.723 292.359L483.483 307.17C494.513 289.058 512.238 275.15 512.238 275.15L511.347 273.02L511.361 273.034Z" fill="white"/>
<path d="M531.624 81.5341H488.019C474.598 81.5341 463.719 92.9018 463.719 106.925V150.864C463.719 164.887 474.598 176.254 488.019 176.254H531.624C545.044 176.254 555.924 164.887 555.924 150.864V106.925C555.924 92.9018 545.044 81.5341 531.624 81.5341Z" fill="#007887"/>
<path d="M523.403 81.5341H479.798C466.378 81.5341 455.498 92.9018 455.498 106.925V150.864C455.498 164.887 466.378 176.254 479.798 176.254H523.403C536.824 176.254 547.703 164.887 547.703 150.864V106.925C547.703 92.9018 536.824 81.5341 523.403 81.5341Z" fill="#00D3F0"/>
<path d="M483.268 114.33C487.234 114.33 490.45 110.97 490.45 106.826C490.45 102.681 487.234 99.3216 483.268 99.3216C479.301 99.3216 476.086 102.681 476.086 106.826C476.086 110.97 479.301 114.33 483.268 114.33Z" fill="#A12CE8"/>
<path d="M503.531 119.888L491.071 139.946C489.248 142.866 491.26 146.745 494.608 146.745H519.529C522.863 146.745 524.875 142.88 523.066 139.946L510.605 119.888C508.945 117.222 505.205 117.222 503.545 119.888H503.531Z" fill="#7200FF"/>
<path d="M489.828 126.814L480.54 141.766C479.204 143.91 480.675 146.745 483.132 146.745H501.708C504.152 146.745 505.623 143.91 504.3 141.766L495.012 126.814C493.797 124.853 491.057 124.853 489.842 126.814H489.828Z" fill="url(#paint4_linear_656_129)"/>
<path d="M526.251 153.22H479.865C478.478 153.22 477.354 154.394 477.354 155.843C477.354 157.292 478.478 158.467 479.865 158.467H526.251C527.637 158.467 528.762 157.292 528.762 155.843C528.762 154.394 527.637 153.22 526.251 153.22Z" fill="#A12CE8"/>
<path d="M320.567 234.765H285.993C275.354 234.765 266.729 243.777 266.729 254.894V289.735C266.729 300.852 275.354 309.864 285.993 309.864H320.567C331.206 309.864 339.831 300.852 339.831 289.735V254.894C339.831 243.777 331.206 234.765 320.567 234.765Z" fill="#3B3894"/>
<path d="M314.059 234.765H279.485C268.846 234.765 260.221 243.777 260.221 254.894V289.735C260.221 300.852 268.846 309.864 279.485 309.864H314.059C324.698 309.864 333.323 300.852 333.323 289.735V254.894C333.323 243.777 324.698 234.765 314.059 234.765Z" fill="#6661FF"/>
<path d="M288.205 250.296H281.604V293.149H288.205V250.296Z" fill="url(#paint5_linear_656_129)"/>
<path d="M300.814 255.19H294.213V293.149H300.814V255.19Z" fill="url(#paint6_linear_656_129)"/>
<path d="M313.367 261.016H306.766V293.149H313.367V261.016Z" fill="url(#paint7_linear_656_129)"/>
<path d="M409.555 311.811H370.257C358.171 311.811 348.373 322.048 348.373 334.677V374.286C348.373 386.914 358.171 397.151 370.257 397.151H409.555C421.641 397.151 431.439 386.914 431.439 374.286V334.677C431.439 322.048 421.641 311.811 409.555 311.811Z" fill="#995700"/>
<path d="M402.161 311.811H362.862C350.776 311.811 340.979 322.048 340.979 334.677V374.286C340.979 386.914 350.776 397.151 362.862 397.151H402.161C414.246 397.151 424.044 386.914 424.044 374.286V334.677C424.044 322.048 414.246 311.811 402.161 311.811Z" fill="#FFD633"/>
<path d="M383.018 372.145C395.71 371.401 405.563 362.671 405.025 352.644C404.487 342.618 393.762 335.094 381.069 335.837C368.377 336.581 358.524 345.312 359.062 355.338C359.6 365.364 370.326 372.889 383.018 372.145Z" fill="#3B3894"/>
<path d="M372.458 360.081C372.458 360.081 369.853 377.502 372.013 377.558C373.471 377.586 383.285 366.175 384.743 361.844C386.201 357.514 372.458 360.081 372.458 360.081Z" fill="#3B3894"/>
<path d="M372.473 357.203C373.815 357.203 374.903 356.067 374.903 354.664C374.903 353.262 373.815 352.125 372.473 352.125C371.131 352.125 370.043 353.262 370.043 354.664C370.043 356.067 371.131 357.203 372.473 357.203Z" fill="#FFD633"/>
<path d="M381.623 357.204C382.965 357.204 384.053 356.067 384.053 354.665C384.053 353.262 382.965 352.125 381.623 352.125C380.281 352.125 379.193 353.262 379.193 354.665C379.193 356.067 380.281 357.204 381.623 357.204Z" fill="#00CE64"/>
<path d="M390.793 357.204C392.135 357.204 393.223 356.067 393.223 354.665C393.223 353.262 392.135 352.126 390.793 352.126C389.451 352.126 388.363 353.262 388.363 354.665C388.363 356.067 389.451 357.204 390.793 357.204Z" fill="#00D3F0"/>
<path d="M91.2782 665.682C95.0256 658.082 96.4369 643.374 91.5984 634.509L109.565 627.389C109.565 627.389 109.529 648.315 95.7965 668.106C94.6343 669.769 89.7483 668.797 91.2782 665.682Z" fill="#092D4C"/>
<path d="M184.29 565.629C182.95 567.386 181.538 568.92 180.02 570.266C175.538 574.248 170.474 575.431 166.015 576.473C162.398 577.316 158.698 578.019 155.128 578.698C145.261 580.571 135.94 582.351 127.627 586.918L124.01 580.489C133.378 575.349 143.72 573.381 153.729 571.473C157.227 570.805 160.856 570.114 164.307 569.306C169.086 568.194 172.193 567.327 175.051 564.786C177.803 562.338 180.21 558.966 182.392 554.481C184.788 549.574 184.906 549.082 185.784 544.199L191.88 545.288C190.883 550.816 191.773 552.162 189.093 557.666C187.61 560.699 186.021 563.334 184.29 565.617V565.629Z" fill="#0DC500"/>
<path d="M84.3071 607.165C74.8435 587.094 86.9398 574.693 106.768 566.32C126.597 557.947 143.887 561.448 147.706 583.241C149.01 590.665 141.931 597.656 122.09 606.041C102.25 614.426 89.3828 617.939 84.3071 607.165Z" fill="#FBD7C8"/>
<path d="M87.8855 635.305C88.9765 636.195 90.1862 636.945 91.3365 637.765C93.5067 639.322 94.3132 639.533 96.6613 640.821C100.456 642.905 109.908 642.495 114.011 641.969C118.114 641.442 133.567 636.933 142.627 632.834C146.932 630.891 161.222 620.621 161.412 612.857C161.886 594.343 144.821 578.089 144.999 577.667C144.975 577.738 144.027 603.36 83.5332 605.772C84.138 605.749 85.6916 618.033 85.7864 618.864C86.1896 622.682 86.3438 626.558 85.9999 630.387C85.8102 632.507 85.5848 633.221 87.2451 634.755C87.4467 634.942 87.6602 635.13 87.8855 635.305Z" fill="#0DDB00"/>
<path d="M95.6317 593.604C95.1692 592.539 95.6673 591.297 96.7465 590.841C97.8257 590.384 99.0827 590.876 99.5452 591.942C100.008 593.007 99.5096 594.248 98.4305 594.705C97.3513 595.162 96.0942 594.67 95.6317 593.604Z" fill="#6B3F2E"/>
<path d="M84.6758 613.817C86.5377 612.892 89.0992 611.966 91.1746 611.545C92.7756 611.217 93.6176 610.854 95.2897 610.795C95.6218 611.299 95.9775 612.212 96.0012 612.774C96.0368 613.489 95.2778 613.606 94.673 613.957C93.1432 614.859 91.6845 615.035 89.8226 614.672C88.0556 614.332 86.7274 613.618 84.6876 613.817H84.6758Z" fill="#0AB000"/>
<path d="M91.9697 599.519C91.7444 598.98 91.9935 598.371 92.5271 598.137C93.0608 597.903 93.6893 598.16 93.9265 598.687C94.1637 599.214 93.9028 599.835 93.3691 600.069C92.8354 600.303 92.2069 600.046 91.9697 599.519Z" fill="#C34718"/>
<path d="M97.0869 599.648C96.8616 599.109 97.1106 598.5 97.6443 598.266C98.178 598.031 98.8065 598.289 99.0437 598.816C99.2809 599.343 99.02 599.964 98.4863 600.198C97.9526 600.432 97.3241 600.174 97.0869 599.648Z" fill="#C34718"/>
<path d="M141.443 578.615C141.218 578.077 140.589 577.831 140.044 578.065C139.498 578.299 139.249 578.908 139.486 579.447C139.723 579.986 140.34 580.231 140.886 579.997C141.431 579.763 141.68 579.154 141.443 578.615Z" fill="#C34718"/>
<path d="M138.004 582.363C137.778 581.824 137.15 581.578 136.604 581.813C136.059 582.047 135.81 582.656 136.047 583.194C136.284 583.733 136.901 583.979 137.446 583.745C137.992 583.511 138.241 582.902 138.004 582.363Z" fill="#C34718"/>
<path d="M130.796 578.756C130.333 577.691 130.831 576.449 131.911 575.993C132.99 575.536 134.247 576.028 134.709 577.093C135.172 578.159 134.674 579.4 133.595 579.857C132.515 580.314 131.258 579.822 130.796 578.756Z" fill="#6B3F2E"/>
<path d="M125.374 562.654C130.39 567.877 136.379 573.252 143.186 576.062C147.871 577.995 153.516 578.1 156.196 573.674C158.093 570.535 159.03 567.233 157.156 563.591C154.334 558.099 149.163 557.045 144.254 557.513C145.262 554.504 149.768 555.417 150.183 551.483C150.551 547.993 147.207 546.424 144.254 547.923C140.874 549.644 137.968 555.382 133.569 554.375C132.003 554.012 136.783 546.154 135.442 544.492C133.391 541.95 130.604 542.911 129.371 545.698C128.303 548.122 127.544 546.412 128.113 548.988C129.501 545.826 129.667 539.304 125.576 538.063C116.254 535.229 124.603 548.789 117.025 548.133C114.369 547.899 112.021 546.693 109.423 546.26C103.933 545.358 98.8807 543.765 93.2832 544.421C83.5706 545.557 74.8304 555.16 76.6567 564.961C77.0481 567.069 78.7676 570.242 77.2378 572.257C74.9134 575.336 69.7428 571.238 66.6002 575.442C63.4575 579.646 70.5493 582.749 75.3997 582.491C75.3997 582.491 75.2692 585.208 70.0986 584.728C64.928 584.248 61.1924 581.648 59.7456 584.353C58.2988 587.058 58.9273 593.932 66.1851 593.183C66.1851 593.183 62.0463 595.677 65.2482 600.069C68.4502 604.46 79.3725 602.2 80.7481 603.57C82.1238 604.94 83.4757 605.783 83.4757 605.783C83.4757 605.783 82.5863 597.902 87.8873 592.035C93.1883 586.168 113.301 583.159 125.327 562.654H125.374Z" fill="#FF4D00"/>
<path d="M120.097 588.358C120.311 590.372 118.817 596.497 112.768 598.019C111.393 598.37 110.231 596.907 108.796 596.157C107.859 595.677 108.262 594.049 107.42 594.026C107.693 592.902 108.962 592.668 111.025 592.199C116.706 590.911 119.682 585.84 120.097 588.358Z" fill="#3C404E"/>
<path d="M112.78 598.019C111.357 598.066 110.076 598.476 108.534 597.41C107.573 596.743 107.23 594.822 107.419 594.026C108.261 594.049 109.412 594.178 110.337 594.658C111.783 595.408 112.388 596.661 112.768 598.019H112.78Z" fill="#DE4475"/>
<path d="M93.2732 605.47C94.6844 605.786 102.013 607.039 101.515 620.026C101.136 629.746 105.488 636.034 104.812 636.397C103.116 637.31 96.6649 639.617 95.9059 638.575C94.7912 637.064 93.9254 630.343 95.0283 623.457C95.7518 618.995 95.9652 610.459 94.4472 608.327C92.1229 605.107 85.6122 606.208 85.7664 605.47C85.8731 604.967 90.9251 604.943 93.2851 605.47H93.2732Z" fill="#092D4C"/>
<path d="M97.2078 650.259C94.2904 649.041 85.0522 640.645 83.9137 638.56C82.8938 636.675 85.1945 626.955 85.4316 625.257C137.991 623.419 165.67 607.668 167.082 606.544C168.647 610.374 165.754 641.874 128.943 647.87C115.744 649.58 104.762 651.008 101.192 650.973C98.702 650.95 97.9905 650.587 97.2196 650.259H97.2078Z" fill="#092D4C"/>
<path d="M108.453 603.731L108.405 603.735C108.184 603.756 108.021 603.951 108.042 604.17L108.5 608.903C108.522 609.121 108.718 609.282 108.94 609.261L108.987 609.257C109.209 609.236 109.372 609.041 109.35 608.822L108.892 604.089C108.871 603.871 108.674 603.71 108.453 603.731Z" fill="#0D9300"/>
<path d="M105.63 604.291L105.583 604.293C105.36 604.301 105.186 604.486 105.194 604.705L105.369 609.457C105.377 609.676 105.564 609.848 105.787 609.84L105.834 609.838C106.057 609.83 106.23 609.646 106.222 609.426L106.048 604.675C106.04 604.455 105.853 604.283 105.63 604.291Z" fill="#0D9300"/>
<path d="M111.008 603.177L110.961 603.184C110.741 603.217 110.589 603.419 110.622 603.637L111.331 608.339C111.364 608.557 111.569 608.707 111.789 608.674L111.836 608.667C112.056 608.635 112.208 608.433 112.176 608.215L111.466 603.512C111.434 603.295 111.228 603.145 111.008 603.177Z" fill="#0D9300"/>
<path d="M114.201 602.41L114.155 602.423C113.941 602.484 113.817 602.704 113.879 602.916L115.21 607.485C115.272 607.696 115.495 607.818 115.709 607.757L115.755 607.744C115.969 607.684 116.092 607.463 116.031 607.252L114.7 602.683C114.638 602.471 114.415 602.349 114.201 602.41Z" fill="#0D9300"/>
<path d="M117.209 602.119L117.165 602.137C116.959 602.218 116.858 602.45 116.941 602.654L118.728 607.069C118.811 607.273 119.045 607.372 119.252 607.291L119.296 607.273C119.503 607.192 119.603 606.96 119.521 606.756L117.734 602.341C117.651 602.137 117.416 602.038 117.209 602.119Z" fill="#0D9300"/>
<path d="M123.377 599.638L123.333 599.655C123.127 599.737 123.026 599.968 123.109 600.172L124.896 604.587C124.979 604.791 125.213 604.891 125.42 604.809L125.464 604.792C125.671 604.71 125.771 604.478 125.689 604.274L123.902 599.859C123.819 599.655 123.584 599.556 123.377 599.638Z" fill="#0D9300"/>
<path d="M126.354 598.685L126.31 598.703C126.103 598.784 126.003 599.016 126.085 599.22L127.873 603.635C127.955 603.839 128.19 603.938 128.397 603.857L128.441 603.839C128.647 603.758 128.748 603.526 128.665 603.322L126.878 598.907C126.795 598.703 126.561 598.604 126.354 598.685Z" fill="#0D9300"/>
<path d="M132.156 595.34L132.115 595.364C131.922 595.474 131.856 595.717 131.967 595.907L134.375 600.025C134.486 600.215 134.733 600.281 134.925 600.171L134.967 600.147C135.159 600.037 135.225 599.794 135.114 599.603L132.707 595.486C132.595 595.295 132.349 595.23 132.156 595.34Z" fill="#0D9300"/>
<path d="M129.16 597.172L129.119 597.195C128.926 597.305 128.86 597.549 128.971 597.739L131.379 601.857C131.49 602.047 131.736 602.112 131.929 602.002L131.97 601.979C132.163 601.869 132.229 601.626 132.118 601.435L129.711 597.318C129.599 597.127 129.353 597.062 129.16 597.172Z" fill="#0D9300"/>
<path d="M135.316 593.586L135.274 593.608C135.077 593.711 135.003 593.952 135.107 594.147L137.366 598.345C137.471 598.539 137.715 598.613 137.911 598.51L137.953 598.488C138.15 598.385 138.225 598.144 138.12 597.95L135.861 593.751C135.757 593.557 135.513 593.483 135.316 593.586Z" fill="#0D9300"/>
<path d="M137.488 591.271L137.448 591.297C137.262 591.418 137.211 591.665 137.333 591.849L139.98 595.82C140.102 596.004 140.352 596.055 140.538 595.934L140.578 595.908C140.764 595.787 140.816 595.54 140.693 595.356L138.046 591.385C137.924 591.201 137.674 591.15 137.488 591.271Z" fill="#0D9300"/>
<path d="M139.596 589.695L139.559 589.724C139.384 589.861 139.354 590.111 139.492 590.284L142.478 594.014C142.616 594.186 142.869 594.215 143.044 594.079L143.081 594.05C143.256 593.914 143.286 593.663 143.148 593.491L140.162 589.761C140.024 589.588 139.77 589.559 139.596 589.695Z" fill="#0D9300"/>
<path d="M141.369 587.656L141.333 587.686C141.161 587.826 141.136 588.076 141.278 588.246L144.338 591.917C144.479 592.087 144.733 592.111 144.905 591.971L144.942 591.942C145.114 591.802 145.139 591.551 144.997 591.381L141.937 587.71C141.795 587.541 141.541 587.516 141.369 587.656Z" fill="#0D9300"/>
<path d="M143.3 585.473L143.264 585.503C143.093 585.644 143.071 585.895 143.215 586.064L146.314 589.702C146.457 589.87 146.712 589.892 146.882 589.75L146.918 589.72C147.089 589.579 147.111 589.328 146.967 589.159L143.868 585.521C143.725 585.353 143.47 585.331 143.3 585.473Z" fill="#0D9300"/>
<path d="M144.923 583.055L144.887 583.085C144.716 583.227 144.694 583.478 144.838 583.646L147.937 587.285C148.08 587.453 148.335 587.475 148.505 587.333L148.541 587.303C148.712 587.161 148.734 586.91 148.591 586.742L145.491 583.104C145.348 582.935 145.093 582.914 144.923 583.055Z" fill="#0D9300"/>
<path d="M120.395 600.78L120.351 600.797C120.144 600.879 120.044 601.11 120.126 601.315L121.914 605.729C121.996 605.934 122.231 606.033 122.438 605.951L122.482 605.934C122.688 605.852 122.789 605.621 122.706 605.416L120.919 601.002C120.836 600.798 120.602 600.698 120.395 600.78Z" fill="#0D9300"/>
<path d="M145.023 580.232C145.023 580.232 160.061 593.359 157.547 613.243L165.931 610.866C165.931 610.866 166.026 591.263 145.889 577.281L145.023 580.232Z" fill="#092D4C"/>
<path d="M193.803 543.672C193.803 543.672 189.699 548.181 185.252 542.396C185.252 542.396 184.541 542.08 184.505 543.614C184.481 544.691 184.007 547.665 183.734 549.328C183.616 550.054 183.959 550.78 184.6 551.155C186.64 552.314 191.087 554.305 193.198 551.284L193.791 543.672H193.803Z" fill="#0D9300"/>
<path d="M186.021 544.554L185.974 544.547C185.754 544.511 185.547 544.658 185.511 544.875L184.73 549.566C184.694 549.783 184.843 549.988 185.063 550.024L185.11 550.031C185.329 550.067 185.537 549.92 185.573 549.703L186.353 545.012C186.389 544.795 186.241 544.59 186.021 544.554Z" fill="#0C8200"/>
<path d="M187.894 545.636L187.847 545.628C187.627 545.593 187.42 545.74 187.384 545.957L186.603 550.648C186.567 550.865 186.716 551.07 186.936 551.106L186.983 551.113C187.202 551.149 187.41 551.002 187.446 550.785L188.226 546.093C188.263 545.876 188.114 545.672 187.894 545.636Z" fill="#0C8200"/>
<path d="M189.923 546.104L189.876 546.099C189.654 546.078 189.457 546.238 189.436 546.457L188.969 551.189C188.947 551.408 189.11 551.602 189.331 551.624L189.379 551.628C189.6 551.649 189.797 551.489 189.819 551.27L190.285 546.538C190.307 546.32 190.145 546.125 189.923 546.104Z" fill="#0C8200"/>
<path d="M191.564 545.849L191.516 545.848C191.294 545.843 191.11 546.018 191.105 546.238L191.009 550.991C191.005 551.211 191.182 551.393 191.405 551.397L191.452 551.398C191.675 551.403 191.859 551.228 191.863 551.008L191.959 546.255C191.963 546.035 191.786 545.853 191.564 545.849Z" fill="#0C8200"/>
<path d="M100.066 630.167H97.1129C96.1285 630.167 95.334 629.383 95.334 628.411V625.717C95.334 624.746 96.1285 623.961 97.1129 623.961H100.066C101.05 623.961 101.845 624.746 101.845 625.717V628.411C101.845 629.383 101.05 630.167 100.066 630.167ZM97.1129 625.249C96.852 625.249 96.6385 625.46 96.6385 625.717V628.411C96.6385 628.668 96.852 628.879 97.1129 628.879H100.066C100.327 628.879 100.54 628.668 100.54 628.411V625.717C100.54 625.46 100.327 625.249 100.066 625.249H97.1129Z" fill="#CAA15F"/>
<path d="M100.675 626.419H97.8403C97.6373 626.419 97.4727 626.581 97.4727 626.782V627.168C97.4727 627.369 97.6373 627.531 97.8403 627.531H100.675C100.878 627.531 101.042 627.369 101.042 627.168V626.782C101.042 626.581 100.878 626.419 100.675 626.419Z" fill="#CAA15F"/>
<path d="M163.738 610.936L160.821 611.323C159.849 611.451 158.947 610.772 158.829 609.812L158.461 607.142C158.331 606.182 159.019 605.292 159.991 605.175L162.908 604.788C163.881 604.659 164.782 605.339 164.901 606.299L165.268 608.969C165.399 609.929 164.711 610.819 163.738 610.948V610.936ZM160.157 606.439C159.896 606.475 159.718 606.709 159.754 606.966L160.121 609.636C160.157 609.894 160.394 610.07 160.655 610.035L163.572 609.648C163.833 609.613 164.011 609.379 163.976 609.121L163.608 606.451C163.572 606.194 163.335 606.018 163.074 606.053L160.157 606.439Z" fill="#CAA15F"/>
<path d="M162.342 607.437L159.532 607.808C159.331 607.835 159.19 608.017 159.217 608.216L159.268 608.599C159.295 608.798 159.48 608.937 159.682 608.911L162.491 608.54C162.692 608.513 162.834 608.331 162.807 608.132L162.755 607.749C162.728 607.55 162.543 607.411 162.342 607.437Z" fill="#CAA15F"/>
<path d="M95.9166 667.051L95.1576 668.866L101.455 673.492L100.269 675.108L89.7617 672.485L90.4614 666.782L95.9166 667.051Z" fill="#F8B096"/>
<g style="mix-blend-mode:multiply">
<path d="M95.9161 667.051L95.5129 668.304L90.4609 666.782L95.9161 667.051Z" fill="#E2C9B4"/>
</g>
<path d="M97.2817 669.066C97.9695 667.251 98.349 665.963 96.6887 664.874C96.3567 664.663 92.6566 663.293 92.6685 663.246L91.4707 670.694L92.2534 671.42L96.748 670.319L97.2935 669.054L97.2817 669.066Z" fill="#89532B"/>
<path d="M95.6105 672.544L99.2631 663.281L92.0646 661.279L90.0723 671.35L95.6105 672.544Z" fill="#C3D3EC"/>
<path d="M94.7534 669.065C95.1922 667.04 96.9118 666.021 94.789 665.06C93.781 664.604 92.512 664.452 91.4447 664.217C90.3537 663.983 89.2864 663.55 89.6184 664.967C90.0928 667.016 89.903 669.241 89.7844 670.787C89.7607 671.044 89.4287 672.005 89.4524 672.016L90.9348 672.614L95.9156 670.892L94.7653 669.065H94.7534Z" fill="#89532B"/>
<path d="M94.2941 668.996C94.638 667.38 96.0137 666.572 94.3178 665.811C93.9858 665.658 90.3687 664.862 90.3687 664.815L90.4992 669.757L90.0723 671.338L91.2463 671.806L95.2073 670.436L94.2941 668.984V668.996Z" fill="#3A1F2C"/>
<path d="M97.0548 669.44L98.9167 665.107C98.9167 665.107 95.2641 663.632 94.3153 664.335C93.3666 665.037 93.9952 668.843 93.9952 668.843C93.9952 668.843 95.2759 669.089 97.0548 669.44Z" fill="#5F472C"/>
<path d="M90.1543 672.204L102.938 675.577C102.938 675.577 103.638 670.389 97.3646 668.937C97.3646 668.937 92.4194 667.532 90.1662 672.192L90.1543 672.204Z" fill="#89532B"/>
<path d="M96.0715 674.807L97.7441 675.248L97.9371 674.536L96.2645 674.094L96.0715 674.807Z" fill="#72532D"/>
<path d="M98.4758 675.444L100.148 675.886L100.341 675.173L98.6688 674.731L98.4758 675.444Z" fill="#72532D"/>
<path d="M100.892 676.084L102.564 676.526L102.757 675.813L101.085 675.372L100.892 676.084Z" fill="#72532D"/>
<path d="M88.8762 672.913L90.5488 673.355L90.7418 672.642L89.0692 672.201L88.8762 672.913Z" fill="#72532D"/>
<path d="M91.2844 673.553L92.957 673.995L93.15 673.282L91.4774 672.84L91.2844 673.553Z" fill="#72532D"/>
<path d="M93.6906 674.179L95.3633 674.62L95.5563 673.907L93.8836 673.466L93.6906 674.179Z" fill="#72532D"/>
<path d="M93.771 666.08C93.7236 666.267 93.8303 666.454 94.02 666.501C94.2098 666.548 94.3995 666.443 94.447 666.255C94.4944 666.068 94.3877 665.88 94.1979 665.834C94.0082 665.787 93.8184 665.892 93.771 666.08Z" fill="#3A1F2C"/>
<path d="M93.8634 668.164C94.0534 668.164 94.2074 668.012 94.2074 667.824C94.2074 667.637 94.0534 667.485 93.8634 667.485C93.6735 667.485 93.5195 667.637 93.5195 667.824C93.5195 668.012 93.6735 668.164 93.8634 668.164Z" fill="#3A1F2C"/>
<path d="M93.5542 668.96C93.5068 669.148 93.6135 669.335 93.8032 669.382C93.993 669.429 94.1827 669.323 94.2302 669.136C94.2776 668.949 94.1709 668.761 93.9811 668.714C93.7914 668.667 93.6016 668.773 93.5542 668.96Z" fill="#3A1F2C"/>
<path d="M88.7798 672.451L102.975 676.199L103.152 675.543L88.9575 671.795L88.7798 672.451Z" fill="#3A1F2C"/>
<path d="M97.4231 667.543L94.0195 666.489C94.1974 667.906 96.8183 667.883 97.4231 667.543Z" stroke="#FAAD24" stroke-width="0.355775" stroke-linecap="round" stroke-linejoin="round"/>
<path d="M93.8633 667.824L97.2669 668.515" stroke="#FAAD24" stroke-width="0.355775" stroke-linecap="round" stroke-linejoin="round"/>
<path d="M93.8848 668.89H96.7547" stroke="#FAAD24" stroke-width="0.355775" stroke-linecap="round" stroke-linejoin="round"/>
<path d="M97.0904 668.773C97.6952 668.469 98.7151 667.813 99.4859 668.211C99.4978 669.956 94.5881 667.813 94.7541 670.378C96.1535 671.08 96.1298 669.265 97.0904 668.785V668.773Z" stroke="#FAAD24" stroke-width="0.355775" stroke-linecap="round" stroke-linejoin="round"/>
<path d="M137.527 666.408C139.282 658.128 137.005 643.537 130.115 636.101L145.769 624.859C145.769 624.859 150.916 645.153 142.508 667.661C141.796 669.558 136.816 669.792 137.527 666.408Z" fill="#092D4C"/>
<path d="M142.356 666.619L142.072 668.551L149.33 671.525L148.582 673.375L137.743 673.364L136.996 667.673L142.356 666.619Z" fill="#F8B096"/>
<g style="mix-blend-mode:multiply">
<path d="M142.356 666.619L142.285 667.93L136.996 667.673L142.356 666.619Z" fill="#E2C9B4"/>
</g>
<path d="M144.183 668.234C144.397 666.302 144.444 664.967 142.57 664.311C142.191 664.182 138.266 663.749 138.266 663.702L138.953 671.22L139.89 671.736L143.97 669.593L144.183 668.234Z" fill="#89532B"/>
<path d="M143.425 672.017L144.67 662.145L137.199 661.958L137.757 672.193L143.425 672.017Z" fill="#C3D3EC"/>
<path d="M141.741 668.855C141.658 666.783 143.081 665.377 140.78 664.967C139.689 664.768 138.42 664.932 137.329 664.967C136.214 665.003 135.076 664.85 135.74 666.138C136.7 668.012 137.08 670.214 137.341 671.736C137.388 671.994 137.305 673.001 137.317 673.012L138.894 673.235L143.294 670.366L141.729 668.879L141.741 668.855Z" fill="#89532B"/>
<path d="M141.264 668.902C141.205 667.25 142.332 666.138 140.505 665.81C140.138 665.74 136.438 665.845 136.426 665.81L137.778 670.576L137.754 672.204L139.011 672.379L142.51 670.096L141.264 668.913V668.902Z" fill="#3A1F2C"/>
<path d="M144.05 668.656L144.774 664.007C144.774 664.007 140.872 663.456 140.125 664.37C139.378 665.283 140.931 668.82 140.931 668.82C140.931 668.82 142.236 668.749 144.05 668.656Z" fill="#5F472C"/>
<path d="M138.051 673.012L151.274 673.199C151.274 673.199 150.669 668.012 144.229 668.117C144.229 668.117 139.083 667.953 138.051 673.024V673.012Z" fill="#89532B"/>
<path d="M144.441 674.098L146.172 674.122L146.182 673.384L144.451 673.36L144.441 674.098Z" fill="#72532D"/>
<path d="M146.943 674.134L148.674 674.157L148.684 673.42L146.953 673.396L146.943 674.134Z" fill="#72532D"/>
<path d="M149.435 674.17L151.166 674.194L151.176 673.456L149.445 673.432L149.435 674.17Z" fill="#72532D"/>
<path d="M136.989 674.002L138.721 674.025L138.731 673.288L137 673.264L136.989 674.002Z" fill="#72532D"/>
<path d="M139.482 674.026L141.213 674.049L141.223 673.312L139.492 673.288L139.482 674.026Z" fill="#72532D"/>
<path d="M141.972 674.062L143.703 674.086L143.714 673.348L141.982 673.324L141.972 674.062Z" fill="#72532D"/>
<path d="M140.047 666.185C140.047 666.372 140.201 666.525 140.391 666.536C140.581 666.548 140.735 666.384 140.747 666.197C140.758 666.009 140.592 665.857 140.403 665.845C140.213 665.834 140.059 665.998 140.047 666.185Z" fill="#3A1F2C"/>
<path d="M140.567 668.2C140.757 668.2 140.91 668.048 140.91 667.86C140.91 667.672 140.757 667.52 140.567 667.52C140.377 667.52 140.223 667.672 140.223 667.86C140.223 668.048 140.377 668.2 140.567 668.2Z" fill="#3A1F2C"/>
<path d="M140.541 669.031C140.541 669.218 140.695 669.37 140.885 669.382C141.075 669.394 141.229 669.23 141.241 669.043C141.253 668.855 141.087 668.703 140.897 668.691C140.707 668.679 140.553 668.843 140.541 669.031Z" fill="#3A1F2C"/>
<path d="M136.786 673.58L151.479 673.783L151.488 673.103L136.796 672.901L136.786 673.58Z" fill="#3A1F2C"/>
<path d="M143.946 666.735L140.389 666.536C140.91 667.859 143.448 667.215 143.946 666.735Z" stroke="#FAAD24" stroke-width="0.355775" stroke-linecap="round" stroke-linejoin="round"/>
<path d="M140.566 667.859L144.029 667.707" stroke="#FAAD24" stroke-width="0.355775" stroke-linecap="round" stroke-linejoin="round"/>
<path d="M140.84 668.89L143.627 668.199" stroke="#FAAD24" stroke-width="0.355775" stroke-linecap="round" stroke-linejoin="round"/>
<path d="M143.922 668C144.444 667.555 145.262 666.677 146.104 666.876C146.555 668.562 141.254 667.672 142.048 670.12C143.578 670.471 143.104 668.703 143.922 668.012V668Z" stroke="#FAAD24" stroke-width="0.355775" stroke-linecap="round" stroke-linejoin="round"/>
<path d="M113.516 626.745C113.516 626.745 143.389 622.178 155.722 615.702C155.722 615.702 157.655 624.075 155.141 627.975C152.603 631.921 146.935 636.418 139.535 639.111C137.542 639.837 125.327 641.488 119.398 638.163C115.84 636.16 115.638 632.354 113.516 626.745Z" fill="#11538C"/>
<path d="M129.952 638.455C125.694 638.455 122.338 637.834 120.263 636.675C118.294 635.574 117.666 633.794 116.527 630.187C116.326 629.543 116.1 628.852 115.863 628.115C122.469 627.014 143.08 623.337 154.429 618.255C154.809 621.018 154.998 625.023 153.694 627.061C151.109 631.089 145.321 635.188 138.953 637.506C138.206 637.776 134.447 638.455 129.964 638.455H129.952Z" fill="#092D4C"/>
<path d="M115.449 630.937C115.449 630.937 148.015 625.702 155.723 619.519V620.948C148.015 627.131 116.019 632.178 116.019 632.178L115.438 630.937H115.449Z" fill="#11538C"/>
<path d="M189.959 547.021C190.481 546.775 190.944 546.318 191.394 545.897C191.869 545.44 192.367 545.183 192.889 544.808C193.612 544.293 195.735 543.403 196.695 543.098C197.146 542.958 198.83 542.255 198.024 541.353C197.454 540.721 195.628 541.88 194.288 541.74C194.917 541.47 195.865 540.932 196.494 540.616C196.767 540.475 198.534 539.292 197.964 538.707C197.597 538.32 196.695 538.66 196.292 538.707C195.32 538.847 194.466 539.62 193.968 539.538C194.407 539.117 195.142 538.754 195.592 538.355C195.913 538.074 196.304 537.922 196.612 537.653C197.146 537.184 197.217 536.095 196.423 536.142C195.415 536.201 194.49 536.974 193.612 537.559C193.126 537.887 192.497 538.695 191.928 538.672C192.023 538.402 192.331 538.238 192.509 538.051C192.841 537.711 193.114 537.313 193.47 536.997C193.766 536.739 194.217 536.423 194.276 535.896C194.454 534.386 191.75 536.494 191.489 536.728C190.481 537.583 189.497 538.601 188.347 539.105C188.465 537.981 188.382 535.522 187.339 535.053C186.995 534.901 186.663 535.077 186.544 535.568C186.425 536.06 186.603 536.716 186.532 537.266C186.437 537.946 186.271 538.601 186.153 539.269C185.856 540.92 185.346 542.501 185.666 544.269C185.844 545.276 186.627 546.354 187.445 546.342C187.694 546.342 187.73 546.295 187.884 546.459C188.026 546.611 188.05 546.869 188.228 546.998C188.702 547.361 189.366 547.267 189.983 546.974L189.959 547.021Z" fill="#FCDDD1"/>
<path d="M79.4425 636.594C75.0665 636.594 70.9751 635.985 67.9154 634.333C65.1167 632.823 63.2311 630.492 62.4839 627.623C61.6064 624.274 62.1044 620.937 63.9307 617.962C69.0183 609.695 82.8816 606.346 84.447 605.995L86.048 612.845C82.597 613.63 73.003 616.745 70.0145 621.616C69.1725 622.986 68.9709 624.333 69.3741 625.867C69.635 626.874 70.2398 627.588 71.3427 628.174C77.6162 631.57 94.6222 628.127 103.872 625.153L106.078 631.839C104.098 632.472 90.8272 636.605 79.4543 636.605L79.4425 636.594Z" fill="#0DDB00"/>
<path d="M106.424 621.709C106.708 621.276 107.171 620.749 107.539 620.925C107.752 621.03 107.788 621.323 107.799 621.592C107.835 622.424 107.799 623.29 107.681 624.157C107.693 624.04 103.791 626.3 103.459 626.534C104.016 624.93 105.475 623.185 106.424 621.709Z" fill="#FCDDD1"/>
<path d="M106.054 631.663C107.074 631.394 116.135 630.012 112.873 627.962C114.237 627.213 114.273 625.597 112.328 625.667C112.684 625.175 113.49 624.73 112.885 624.016C112.423 623.466 111.142 623.665 110.561 623.723C111.332 622.611 115.637 621.943 115.969 621.194C116.372 620.28 112.968 620.714 112.363 620.925C111.095 621.381 109.79 621.803 108.545 622.435C107.193 623.126 106.126 624.11 104.892 625.082C103.908 625.866 102.841 626.897 102.615 628.454C102.426 629.719 103.185 631.557 104.074 631.827C104.619 631.991 105.343 631.85 106.054 631.663Z" fill="#FCDDD1"/>
<path d="M192.34 542.853C192.589 542.735 192.72 542.653 192.53 542.536C191.522 542.583 190.371 543.262 190.016 543.637C190.976 543.368 191.142 543.251 192.127 542.946L192.34 542.864V542.853Z" fill="#F6A9A7"/>
<path d="M188 541.436C188.036 541.752 188.095 541.939 188.427 541.974C189.032 541.272 188.641 539.656 188.237 538.953C188.048 539.913 188.142 540.183 187.988 541.19V541.436H188Z" fill="#F6A9A7"/>
<path d="M107.477 631.616C107.228 631.253 106.386 630.914 106.102 630.668C105.07 629.778 104.406 629.04 104.252 627.658C104.097 626.276 104.524 624.824 105.094 623.56C105.094 623.56 105.034 622.798 103.647 623.489C102.674 623.981 99.8044 625 98.2034 625.562C97.5038 625.808 97.0175 626.452 97.0057 627.19C96.9582 629.508 97.314 634.321 101.014 634.696C101.749 634.766 105.224 632.799 106.173 632.6C106.552 632.518 107.691 632.331 107.548 631.733C107.548 631.687 107.513 631.64 107.489 631.605L107.477 631.616Z" fill="#0D9300"/>
<path d="M103.534 625.258L103.518 625.214C103.445 625.006 103.214 624.897 103.004 624.97L98.4609 626.544C98.2508 626.617 98.1402 626.844 98.2139 627.051L98.2296 627.095C98.3033 627.303 98.5334 627.412 98.7435 627.339L103.287 625.766C103.497 625.693 103.608 625.466 103.534 625.258Z" fill="#0C8200"/>
<path d="M103.487 627.395L103.471 627.351C103.398 627.143 103.168 627.034 102.957 627.107L98.414 628.681C98.2039 628.753 98.0933 628.981 98.167 629.188L98.1827 629.232C98.2564 629.44 98.4865 629.549 98.6967 629.476L103.24 627.902C103.45 627.83 103.561 627.602 103.487 627.395Z" fill="#0C8200"/>
<path d="M104.046 629.375L104.027 629.332C103.94 629.13 103.703 629.036 103.498 629.122L99.0695 630.988C98.8647 631.074 98.7694 631.308 98.8568 631.51L98.8754 631.553C98.9628 631.755 99.1997 631.849 99.4045 631.763L103.833 629.898C104.038 629.812 104.133 629.578 104.046 629.375Z" fill="#0C8200"/>
<path d="M105.048 630.701L105.026 630.659C104.923 630.464 104.68 630.389 104.482 630.49L100.212 632.687C100.015 632.789 99.9381 633.029 100.041 633.224L100.063 633.266C100.166 633.461 100.409 633.537 100.607 633.435L104.877 631.238C105.074 631.136 105.151 630.896 105.048 630.701Z" fill="#0C8200"/>
<path d="M529.326 612.491C543.264 617.582 558.356 613.353 559.118 613.134L556.911 605.488C556.717 605.537 537.998 610.729 525.757 601.663C518.546 596.324 514.798 586.896 514.6 573.62L508.173 573.022C508.414 588.917 511.708 601.194 521.04 608.072C523.67 610.008 526.468 611.437 529.326 612.479L529.326 612.491Z" fill="#1AD58E"/>
<path d="M514.847 576.709C515.415 576.333 515.861 575.753 516.151 575.173C516.416 574.653 516.475 574.013 516.534 573.434C516.652 572.166 518.025 568.928 515.932 569.115C515.557 569.152 515.122 569.684 514.276 570.205C514.325 570.205 514.531 564.773 514.517 564.17C514.517 563.917 514.477 562.505 513.848 562.41C513.412 562.339 513.025 562.412 512.858 563.318C512.499 565.334 512.417 566.421 512.263 567.894C512.261 566.928 511.413 566.592 510.978 567.052C510.809 567.234 510.7 567.186 510.57 568.405C510.546 568.659 510.52 567.922 510.314 567.778C509.696 567.357 509.008 567.83 508.938 569.363C508.939 569.653 509.021 568.639 508.199 569.003C507.22 569.44 507.225 571.637 507.202 572.035C507.157 573.52 507.51 574.798 508.057 575.835C508.458 576.606 509.101 577.123 509.936 577.326C510.771 577.529 511.545 577.032 512.416 577.066C512.851 577.077 513.287 577.148 513.735 577.11C514.134 577.073 514.509 576.927 514.847 576.709Z" fill="#AF714A"/>
<path d="M515.065 572.146C514.763 572.268 513.613 572.247 513.346 571.898C512.958 571.404 512.524 572.153 512.283 572.6C512.187 572.782 512.127 573.132 512.212 573.325C512.528 574.121 513.109 574.228 513.751 574.153C515.492 573.931 516.398 572.903 516.579 572.673C516.977 572.189 517.01 570.862 517.107 570.692C516.95 570.982 515.379 572.025 515.077 572.146L515.065 572.146Z" fill="#945F3F"/>
<path d="M512.244 570.609C512.209 570.863 511.834 571.178 511.58 571.215C511.363 571.239 511.156 571.071 510.987 570.939C510.927 571.277 510.819 571.663 510.541 571.905C510.131 572.244 509.73 571.871 509.451 571.57C509.258 571.861 509.395 573.441 508.681 573.286C508.342 573.203 508.075 572.817 507.808 572.637C507.517 572.445 507.53 572.855 507.628 573.072C507.871 573.627 508.319 574.024 508.949 574.082C509.275 574.105 509.651 574.08 509.88 573.814C509.988 573.693 510.048 573.44 510.193 573.343C510.302 573.27 510.363 573.342 510.52 573.342C510.98 573.34 511.294 572.941 511.486 572.567C511.571 572.409 511.607 572.349 511.74 572.264C512.126 571.998 512.235 571.744 512.282 571.285C512.306 571.068 512.293 570.79 512.257 570.633L512.244 570.609Z" fill="#945F3F"/>
<path d="M512.047 574.351C512.204 574.097 512.384 573.843 512.553 573.638C513.014 573.89 513.413 573.672 513.885 573.719C513.512 574.697 511.975 574.907 511.797 576.126C511.856 575.74 511.589 575.451 511.722 575.028C511.794 574.811 511.902 574.581 512.047 574.351Z" fill="#945F3F"/>
<path d="M511.515 574.884C511.368 573.979 510.738 573.534 510.216 573.004C511.087 572.954 512.07 574.242 511.891 575.257C511.806 575.16 511.649 575.113 511.539 575.004" fill="#945F3F"/>
<path d="M514.313 570.398C513.758 571.317 512.743 571.899 512.297 572.866C512.453 572.009 512.622 571.888 513.08 571.114C513.454 570.485 514.009 569.892 514.334 569.264C514.166 569.88 514.372 569.952 514.313 570.386L514.313 570.398Z" fill="#945F3F"/>
<path d="M514.276 570.206C513.479 571.053 513.008 571.561 512.743 572.08C512.382 572.781 512.407 573.119 512.855 573.311C513.388 573.551 514.295 573.307 514.85 572.992C515.515 572.64 515.817 572.41 516.373 571.865C516.373 571.865 517.025 571.212 517.096 570.681C517.203 569.932 516.718 569.221 516.294 569.053C516.124 568.994 515.253 569.153 514.276 570.193L514.276 570.206Z" fill="#AF714A"/>
<path d="M577.506 650.775L581.392 679.417L577.03 676.508L568.274 651.066L577.506 650.775Z" fill="#AF714A"/>
<path d="M570.395 679.87C570.395 679.87 570.395 679.918 570.395 679.942L581.406 679.948C581.406 679.948 581.406 679.9 581.406 679.876C581.406 679.719 581.405 679.574 581.381 679.429L570.418 679.423C570.394 679.568 570.394 679.725 570.395 679.87Z" fill="#DFFFBA"/>
<path d="M575.89 675.413C573.253 675.42 571.066 676.911 570.526 678.904L581.283 678.899C580.734 676.897 578.516 675.406 575.89 675.401L575.89 675.413Z" fill="#DFFFBA"/>
<path d="M570.528 678.904C570.48 679.073 570.444 679.242 570.432 679.411L581.395 679.417C581.37 679.248 581.334 679.079 581.285 678.91L570.528 678.916L570.528 678.904Z" fill="#1B9DD9"/>
<path d="M576.379 677.138C576.38 677.391 576.162 677.597 575.896 677.598C575.63 677.599 575.412 677.394 575.411 677.141C575.411 676.887 575.628 676.681 575.894 676.681C576.16 676.68 576.379 676.884 576.379 677.138Z" fill="#028CAD"/>
<path d="M576.512 676.148C577.452 674.709 577.536 674.322 579.414 675.198C580.697 675.798 580.965 676.28 579.962 677.152C579.078 676.768 578.17 676.336 577.213 676.146L576.524 676.148L576.512 676.148Z" fill="#DFFFBA"/>
<path d="M578.521 676.637C578.522 676.83 578.353 677 578.147 677C577.941 677.001 577.759 676.844 577.759 676.639C577.758 676.446 577.927 676.277 578.133 676.276C578.339 676.276 578.521 676.432 578.521 676.637Z" fill="#028CAD"/>
<path d="M588.356 649.02L589.473 678.442L593.946 676.486L597.506 650.25L588.356 649.02Z" fill="#AF714A"/>
<path d="M600.027 679.885C600.027 679.885 600.028 679.933 600.028 679.958L589.016 679.734C589.016 679.734 589.016 679.686 589.016 679.662C589.016 679.505 589.039 679.36 589.051 679.215L600.014 679.439C600.027 679.583 600.039 679.74 600.027 679.885Z" fill="#DFFFBA"/>
<path d="M594.646 675.326C597.284 675.379 599.441 676.918 599.929 678.932L589.172 678.708C589.773 676.727 592.008 675.272 594.646 675.326Z" fill="#DFFFBA"/>
<path d="M599.927 678.932C599.963 679.101 600 679.27 600.013 679.439L589.049 679.215C589.073 679.046 589.121 678.877 589.169 678.708L599.927 678.932Z" fill="#1B9DD9"/>
<path d="M594.116 677.029C594.117 677.282 594.323 677.487 594.589 677.498C594.855 677.498 595.085 677.304 595.084 677.05C595.084 676.797 594.878 676.592 594.611 676.581C594.345 676.582 594.116 676.775 594.116 677.029Z" fill="#028CAD"/>
<path d="M594.007 676.051C593.096 674.594 593.023 674.208 591.125 675.033C589.831 675.604 589.542 676.088 590.536 676.978C591.431 676.614 592.35 676.201 593.305 676.029L593.995 676.027L594.007 676.051Z" fill="#DFFFBA"/>
<path d="M591.974 676.504C591.974 676.697 592.132 676.865 592.35 676.877C592.555 676.876 592.736 676.719 592.736 676.526C592.736 676.333 592.578 676.164 592.36 676.153C592.154 676.153 591.973 676.31 591.974 676.504Z" fill="#028CAD"/>
<path d="M608.942 645.391L563.27 647.556L568.68 653.877L597.07 655.55L605.54 649.806L608.93 645.391L608.942 645.391Z" fill="#4AAA50"/>
<path d="M579.531 613.754C567.863 612.373 555.462 607.568 554.015 604.434C552.715 601.625 552.647 593.08 553.173 590.122C555.217 578.542 570.045 570.186 583.103 570.862C598.581 571.725 612.027 584.276 613.011 602.353C613.061 603.391 613.063 604.26 613.054 605.322C614.136 613.55 595.894 615.724 579.531 613.766L579.531 613.754Z" fill="#AF714A"/>
<path d="M598.496 599.46C598.558 599.918 598.45 600.389 598.172 600.764C597.895 601.139 597.484 601.394 597.024 601.455C596.686 601.505 596.323 601.457 596.008 601.313C595.693 601.169 595.426 600.929 595.244 600.628C595.062 600.326 594.976 599.989 595 599.639C595.011 599.288 595.131 598.962 595.348 598.672C595.553 598.394 595.843 598.176 596.17 598.066C596.496 597.945 596.859 597.932 597.186 598.015C597.525 598.099 597.828 598.279 598.059 598.544C598.289 598.797 598.447 599.122 598.496 599.472L598.496 599.46Z" fill="#56182F"/>
<path d="M568.786 596.766C568.822 596.983 568.811 597.212 568.763 597.43C568.715 597.647 568.619 597.852 568.486 598.034C568.353 598.215 568.184 598.36 567.991 598.482C567.797 598.591 567.592 598.664 567.362 598.701C566.915 598.798 566.442 598.703 566.055 598.475C565.667 598.235 565.388 597.849 565.266 597.403C565.229 597.186 565.229 596.956 565.289 596.739C565.337 596.522 565.433 596.316 565.566 596.135C565.698 595.953 565.867 595.808 566.061 595.687C566.254 595.578 566.472 595.505 566.689 595.468C567.137 595.37 567.609 595.465 567.997 595.694C568.384 595.934 568.664 596.319 568.786 596.766Z" fill="#56182F"/>
<path d="M554.503 606.858L554.235 605.785L571.32 611.592C584.901 613.715 591.677 613.443 605.246 610.304C616.402 604.613 616.404 605.313 616.404 605.313L610.501 633.728L614.499 658.097C614.499 658.097 602.128 661.739 585.489 660.976C565.898 660.632 555.162 659.056 555.162 659.056L559.699 636.836L554.503 606.858Z" fill="#1AD58E"/>
<path d="M577.916 628.06L582.32 627.879C582.011 625.104 581.858 621.592 583.063 613.66L578.718 613.02C577.513 620.977 577.582 624.802 577.916 628.06Z" fill="#0C97E8"/>
<path d="M579.321 617.242C579.356 616.663 579.851 616.215 580.444 616.249C581.037 616.284 581.474 616.778 581.439 617.369C581.404 617.961 580.909 618.396 580.316 618.362C579.723 618.327 579.286 617.834 579.321 617.242Z" fill="#FFB300"/>
<path d="M578.98 621.817C579.015 621.238 579.51 620.79 580.103 620.825C580.696 620.859 581.133 621.353 581.098 621.944C581.062 622.524 580.567 622.972 579.974 622.937C579.381 622.903 578.945 622.409 578.98 621.817Z" fill="#FFB300"/>
<path d="M576.565 602.743C577.487 603.404 579.643 604.653 582.125 605.286C585.345 606.098 587.571 605.742 588.248 605.33C588.562 605.136 588.73 604.64 588.814 604.169C588.887 604.23 588.959 604.302 589.032 604.374C590.694 606.107 588.399 608.335 586.622 609.088C584.833 609.841 580.065 609.576 577.363 607.882C575.013 606.416 574.922 603.737 576.59 602.743L576.565 602.743Z" fill="#A60D00"/>
<path d="M588.236 605.33C587.559 605.742 585.334 606.098 582.113 605.286C579.632 604.653 577.487 603.416 576.554 602.743C576.808 602.597 577.098 602.476 577.424 602.414C579.202 602.072 581.989 603.681 584.083 603.905C586.08 604.129 587.348 602.918 588.778 604.17C588.694 604.64 588.526 605.124 588.212 605.33L588.236 605.33Z" fill="#F6F6F7"/>
<path d="M602.018 566.538C611.055 571.268 617.248 581.16 618.305 588.568C618.882 592.646 618.262 596.847 616.831 600.726C616.398 601.897 613.46 608.616 611.277 606.305C610.707 605.703 611.599 603.974 611.67 603.238C612.167 598.228 609.551 602.556 607.224 600.969C604.316 598.974 609.665 594.119 608.608 591.865C607.1 588.635 603.447 594.45 601.267 593.599C598.179 592.388 602.185 587.598 600.56 585.804C598.134 583.131 595.789 589.595 593.319 589.191C589.591 588.586 593.308 583.796 591.888 582.159C589.535 579.438 587.597 584.222 586.354 585.481C581.85 590.019 582.056 579.168 582.123 576.477C582.269 571.275 583.522 574.457 582.515 573.072C581.605 571.807 581.606 572.314 581.306 573.679C581.007 575.044 580.876 575.901 580.806 577.386C580.748 578.617 579.811 587.092 577.56 586.869C575.551 586.669 574.781 583.304 573.484 582.113C571.653 580.416 570.083 581.844 570.197 584.234C570.261 585.718 571.731 588.466 569.555 589.051C567.378 589.636 566.39 586.115 564.815 585.371C563.483 584.735 562.323 585.426 562.096 586.851C561.989 587.527 562.328 587.924 562.644 588.539C563.07 589.359 563.737 590.25 563.933 591.179C564.128 592.083 563.404 592.978 562.485 592.957C561.831 592.934 561.02 592.671 560.451 592.371C559.942 592.095 559.347 591.457 558.67 591.579C556.953 591.898 557.429 593.779 557.697 594.575C558.147 595.914 559.724 597.599 558.408 598.761C557.912 599.197 557.186 599.139 556.569 599.044C555.843 598.925 555.563 598.467 554.922 598.252C553.674 597.833 553.387 599.161 553.607 600.114C553.753 600.753 556.364 604.669 554.307 604.686C551.983 604.705 549.746 594.018 549.706 592.376C548.998 567.479 577.536 553.727 601.994 566.55L602.018 566.538Z" fill="#391C00"/>
<path d="M573.41 619.503L581.274 613.495L589.02 620.257L616.406 605.313L615.605 604.217C615.605 604.217 613.783 606.623 607.145 608.488C576.792 616.802 553.775 604.482 553.775 604.482L553.305 605.377L573.41 619.491L573.41 619.503Z" fill="#F2F2F2"/>
<path d="M616.054 643.139C622.673 642.892 628.818 642.102 635.75 636.326C640.304 632.536 642.025 628.247 641.724 623.601C641.048 613.139 627.629 607.515 617.754 607.192C617.028 607.17 613.773 607.082 612.431 607.533C610.509 608.19 610.166 611.787 610.166 611.787C610.058 612.596 608.003 613.314 617.527 613.783C632.847 614.537 639.695 625.115 630.744 631.947C625.742 635.762 619.828 636.841 614.708 635.949L614.366 639.981C614.1 640.356 614.082 643.217 616.054 643.151L616.054 643.139Z" fill="#1AD58E"/>
<path d="M613.106 635.423C612.73 635.243 612.209 635.075 612.041 635.341C611.944 635.498 612.041 635.715 612.151 635.896C612.479 636.474 612.867 637.04 613.316 637.582C613.255 637.51 616.764 637.452 617.091 637.475C616.049 636.621 614.353 636.035 613.106 635.423Z" fill="#AF714A"/>
<path d="M617.587 642C616.233 642.402 614.854 642.816 613.549 643.315C613.15 643.473 612.739 643.607 612.34 643.765C612.049 643.874 611.554 644.274 611.203 644.238C610.731 644.191 610.67 643.878 610.73 643.564C610.826 643.129 611.346 642.934 611.708 642.704C611.829 642.631 612.566 642.34 612.433 642.123C612.214 641.786 611.574 642.089 611.114 642.271C610.981 642.32 610.341 642.684 610.268 642.793C610.124 642.986 609.882 643.083 609.652 643.193C609.519 643.253 609.326 643.302 609.18 643.158C609.083 643.061 609.047 642.929 609.034 642.82C609.022 642.567 609.082 642.349 609.166 642.144C609.539 641.177 610.688 641.102 611.498 640.581C611.522 640.568 611.546 640.544 611.546 640.508C611.497 640.231 610.36 640.584 610.264 640.608C610.118 640.645 609.973 640.681 609.877 640.766C609.78 640.851 609.369 641.069 609.309 641.19C609.164 641.468 608.729 641.59 608.475 641.747C608.391 641.808 608.258 641.845 608.136 641.748C608.088 641.7 608.051 641.64 608.039 641.58C607.905 641.194 608.207 640.759 608.315 640.444C608.592 639.611 608.979 639.537 609.595 639.186C610.018 638.931 610.877 638.796 611.118 638.409C610.113 638.183 609.098 638.62 608.494 639.153C608.373 639.261 608.216 639.371 608.022 639.25C607.053 638.65 608.575 637.366 608.901 637.305C609.929 637.097 610.957 636.865 612.034 636.789C613.207 636.714 614.321 636.94 615.544 637.106C616.512 637.236 617.65 637.498 618.475 638.461C619.142 639.232 619.424 640.788 618.953 641.333C618.663 641.659 618.131 641.866 617.587 642.024L617.587 642Z" fill="#AF714A"/>
<path d="M551.624 601.073C551.624 601.073 546.183 575.429 581.553 575.839C616.922 576.249 615.604 604.205 615.604 604.205C615.604 604.205 617.302 600.326 616.334 594.825C613.344 577.816 597.056 571.596 583.225 571.356C556.664 570.91 548.459 586.924 550.624 597.551L551.636 601.073L551.624 601.073Z" fill="#FFB300"/>
<path d="M619.344 576.725C619.344 576.725 615.666 582.601 609.13 575.896C601.95 568.517 608.341 563.817 608.341 563.817C608.341 563.817 606.975 564.4 606.107 565.645C603.622 569.273 604.999 573.686 607.473 576.395C612.204 581.596 617.113 579.965 618.826 577.571L619.344 576.725Z" fill="#7BE708"/>
<path d="M549.3 573.573C549.3 573.573 552.834 579.538 559.535 572.99C566.913 565.789 560.634 560.942 560.634 560.942C560.634 560.942 561.991 561.554 562.816 562.831C565.208 566.518 563.705 570.891 561.17 573.541C556.305 578.623 551.437 576.874 549.786 574.441L549.3 573.573Z" fill="#7BE708"/>
<path d="M604.498 567.098C603.119 567.235 602.308 566.815 601.736 565.561C601.396 564.814 601.274 564.367 601.538 563.546C601.586 563.401 602.394 562.023 602.491 562.095C601.085 561 601.337 560.119 602.291 558.982C603.147 557.953 603.101 558.931 602.711 557.399C602.515 556.652 602.345 556 602.597 555.227C602.981 554.031 604.166 553.352 605.4 553.518C605.642 553.553 605.872 553.613 606.09 553.709C606.127 553.685 606.163 553.661 606.199 553.636C605.762 552.756 605.832 551.598 606.314 550.727C606.965 549.591 608.137 549.129 609.371 549.005C609.018 547.968 609.233 546.7 610.054 545.841C611.285 544.534 613.113 544.783 614.495 545.708C614.88 544.681 615.7 543.834 616.825 543.566C617.805 543.322 618.773 543.56 619.537 544.113C619.971 543.267 620.731 542.589 621.723 542.394C622.872 542.161 623.926 542.605 624.641 543.387C625.535 542.371 627.01 541.824 628.39 542.11C629.903 542.42 630.982 543.527 631.602 544.865C632.362 543.813 633.462 543.17 634.843 543.975C636.309 544.828 636.083 546.615 636.485 548.062C637.15 547.734 638.034 547.744 638.785 548.14C639.499 548.524 639.839 549.103 639.962 549.754C641.414 549.931 642.807 550.7 643.742 551.892C644.482 552.844 644.933 554.158 644.657 555.354C645.579 556.461 646.03 558.041 645.404 559.25C645.501 559.491 645.574 559.732 645.611 559.998C645.783 561.156 645.325 562.219 644.553 562.97C644.953 563.499 645.233 564.114 645.367 564.705C645.843 566.707 644.747 568.654 643.03 569.503C643.855 570.515 644.185 571.902 643.619 573.207C643.089 574.403 641.942 575.155 640.696 575.315C640.891 576.002 640.88 576.763 640.688 577.451C640.304 578.768 639.109 579.978 637.693 579.921C637.415 580.26 637.101 580.551 636.751 580.805C636.655 581.348 636.39 581.844 635.931 582.231C635.364 582.704 634.614 582.863 633.912 582.756C633.781 583.927 633.13 584.991 631.823 585.067C631.17 585.105 630.552 584.829 630.104 584.384C629.657 584.662 629.137 584.809 628.592 584.798C627.144 586.769 623.95 586.814 622.265 585.165C621.468 585.892 620.234 586.149 619.144 585.886C617.135 585.397 616.925 583.502 615.628 582.42C614.331 581.337 613.206 581.497 613.806 579.371C611.095 579.137 609.194 578.587 610.555 575.397C608.413 575.379 605.967 574.806 607.741 572.4C606.256 573.792 605.463 571.247 605.921 570.015C605.415 571.006 604.239 569.959 604.032 569.368C603.995 569.248 603.994 568.946 604.03 568.608C604.101 567.932 604.305 567.099 604.498 567.074L604.498 567.098Z" fill="#391C00"/>
<path d="M547.845 583.51C546.118 585.12 542.923 584.996 541.539 582.985C540.995 582.986 540.486 582.818 540.038 582.53C539.579 582.966 538.951 583.233 538.297 583.174C536.99 583.057 536.358 581.973 536.259 580.814C535.557 580.913 534.819 580.734 534.261 580.241C533.825 579.856 533.57 579.337 533.484 578.794C533.144 578.53 532.829 578.229 532.562 577.892C531.146 577.92 529.982 576.68 529.64 575.353C529.457 574.654 529.468 573.905 529.684 573.217C528.449 573.015 527.31 572.246 526.812 571.028C526.276 569.702 526.636 568.325 527.493 567.333C525.785 566.445 524.752 564.468 525.28 562.475C525.436 561.883 525.738 561.279 526.148 560.759C525.396 559.989 524.97 558.916 525.173 557.768C525.221 557.503 525.293 557.261 525.402 557.032C524.806 555.802 525.299 554.232 526.252 553.155C526.007 551.949 526.489 550.644 527.249 549.713C528.214 548.551 529.628 547.811 531.08 547.674C531.212 547.022 531.573 546.442 532.299 546.09C533.06 545.714 533.931 545.723 534.598 546.072C535.03 544.622 534.857 542.836 536.343 542.024C537.745 541.247 538.836 541.92 539.564 542.993C540.227 541.663 541.325 540.586 542.849 540.316C544.228 540.071 545.682 540.646 546.555 541.682C547.279 540.92 548.355 540.494 549.493 540.757C550.474 540.983 551.226 541.669 551.639 542.525C552.412 541.992 553.392 541.772 554.372 542.035C555.486 542.345 556.287 543.212 556.64 544.237C558.029 543.352 559.868 543.142 561.069 544.479C561.87 545.357 562.042 546.624 561.669 547.663C562.904 547.829 564.066 548.308 564.686 549.465C565.16 550.345 565.186 551.504 564.729 552.374C564.765 552.398 564.801 552.422 564.838 552.446C565.055 552.361 565.285 552.3 565.539 552.275C566.773 552.151 567.936 552.848 568.29 554.054C568.631 555.199 568.222 556.359 567.474 557.242C568.118 558.351 568.35 559.654 568.172 560.897C568.148 561.066 569.021 562.162 569.095 562.512C569.254 563.236 569.146 563.972 568.797 564.625C567.917 566.245 567.008 565.583 565.544 565.768C565.801 566.697 565.767 567.856 564.945 568.534C564.076 569.248 563.349 568.707 562.441 568.553C562.71 570.109 562.351 571.812 560.402 571.371C560.406 572.94 559.646 573.992 557.986 573.115C557.881 575.022 557.75 575.843 555.608 575.777C556.177 575.799 555.805 577.466 555.649 577.72C555.202 578.421 553.956 578.231 553.606 578.751C553.28 579.223 553.803 580.465 553.696 581.105C553.445 582.505 552.383 583.981 550.956 584.298C549.856 584.531 548.633 584.244 547.857 583.51L547.845 583.51Z" fill="#391C00"/>
<defs>
<linearGradient id="paint0_linear_656_129" x1="186.308" y1="299.181" x2="196.018" y2="353.068" gradientUnits="userSpaceOnUse">
<stop offset="0.15" stop-color="#935123"/>
<stop offset="0.31" stop-color="#80421C"/>
<stop offset="0.58" stop-color="#662E13"/>
<stop offset="0.81" stop-color="#56220D"/>
<stop offset="1" stop-color="#511E0B"/>
</linearGradient>
<linearGradient id="paint1_linear_656_129" x1="182.65" y1="327.086" x2="183.016" y2="300.567" gradientUnits="userSpaceOnUse">
<stop offset="0.15" stop-color="#935123"/>
<stop offset="0.45" stop-color="#984F29"/>
<stop offset="1" stop-color="#9C4D2E"/>
</linearGradient>
<linearGradient id="paint2_linear_656_129" x1="488.507" y1="538.791" x2="489.12" y2="559.706" gradientUnits="userSpaceOnUse">
<stop offset="0.35" stop-color="white"/>
<stop offset="0.65" stop-color="#B4D0ED"/>
<stop offset="1" stop-color="white"/>
</linearGradient>
<linearGradient id="paint3_linear_656_129" x1="455.759" y1="533.742" x2="456.387" y2="554.659" gradientUnits="userSpaceOnUse">
<stop offset="0.35" stop-color="white"/>
<stop offset="0.65" stop-color="#B4D0ED"/>
<stop offset="1" stop-color="white"/>
</linearGradient>
<linearGradient id="paint4_linear_656_129" x1="481.445" y1="134.882" x2="505.603" y2="138.962" gradientUnits="userSpaceOnUse">
<stop stop-color="#2B8076"/>
<stop offset="1" stop-color="#00578A"/>
</linearGradient>
<linearGradient id="paint5_linear_656_129" x1="284.898" y1="250.296" x2="284.898" y2="293.149" gradientUnits="userSpaceOnUse">
<stop offset="0.26" stop-color="#8CEDE2"/>
<stop offset="1" stop-color="#3FACEB"/>
</linearGradient>
<linearGradient id="paint6_linear_656_129" x1="297.52" y1="255.19" x2="297.52" y2="79.517" gradientUnits="userSpaceOnUse">
<stop offset="0.26" stop-color="#8CEDE2"/>
<stop offset="1" stop-color="#3FACEB"/>
</linearGradient>
<linearGradient id="paint7_linear_656_129" x1="310.06" y1="261.016" x2="310.06" y2="79.517" gradientUnits="userSpaceOnUse">
<stop offset="0.26" stop-color="#8CEDE2"/>
<stop offset="1" stop-color="#3FACEB"/>
</linearGradient>
</defs>
</svg>
