<svg width="202" height="28" viewBox="0 0 202 28" fill="none" xmlns="http://www.w3.org/2000/svg">
<path d="M13.9846 1.36754V1.02352C13.9867 0.77245 13.9042 0.529662 13.7533 0.343321C13.6847 0.254041 13.5998 0.182037 13.5043 0.13216C13.4088 0.0822828 13.3049 0.0556319 13.1995 0.0539943H2.20728C2.00918 0.0356675 1.80984 0.0645601 1.6225 0.138697C1.43516 0.212835 1.2641 0.33056 1.12067 0.484048C0.884033 0.854352 0.770054 1.30482 0.798198 1.75846V25.8158C0.777306 26.2527 0.8698 26.6871 1.06459 27.0668C1.19664 27.249 1.36862 27.39 1.5639 27.4763C1.75918 27.5626 1.97114 27.5912 2.17923 27.5594H13.1644C13.2698 27.5577 13.3738 27.5311 13.4692 27.4812C13.5647 27.4313 13.6496 27.3594 13.7182 27.2701C13.8691 27.0837 13.9517 26.8409 13.9496 26.5898V26.2458C13.9535 26.1168 13.9344 25.9882 13.8935 25.8674C13.8526 25.7466 13.7906 25.6361 13.7112 25.5422C13.641 25.4589 13.5563 25.3924 13.4623 25.3467C13.3683 25.301 13.2669 25.277 13.1644 25.2763H2.64891V2.33702H13.1644C13.2669 2.33631 13.3683 2.31237 13.4623 2.26668C13.5563 2.22098 13.641 2.15446 13.7112 2.07117C13.797 1.9805 13.8654 1.87142 13.9124 1.75049C13.9594 1.62957 13.9839 1.49933 13.9846 1.36754V1.36754Z" fill="white"/>
<path d="M87.684 2.07101C87.7648 1.97814 87.8276 1.86779 87.8686 1.74676C87.9096 1.62573 87.9279 1.49661 87.9224 1.36738V1.02337C87.9245 0.772294 87.842 0.529506 87.6911 0.343166C87.6224 0.253886 87.5376 0.181881 87.4421 0.132004C87.3466 0.0821274 87.2427 0.0554765 87.1372 0.0538389H76.1801C75.9831 0.0366409 75.7852 0.0661056 75.5991 0.140212C75.4131 0.214319 75.2431 0.331432 75.1005 0.483892C74.8587 0.851688 74.7419 1.30337 74.771 1.7583V25.8157C74.7501 26.2525 74.8426 26.6869 75.0374 27.0666C75.1695 27.2488 75.3414 27.3899 75.5367 27.4762C75.732 27.5625 75.944 27.5911 76.1521 27.5592H87.1372C87.2427 27.5576 87.3466 27.5309 87.4421 27.481C87.5376 27.4312 87.6224 27.3592 87.6911 27.2699C87.842 27.0836 87.9245 26.8408 87.9224 26.5897V26.2457C87.9279 26.1164 87.9096 25.9873 87.8686 25.8663C87.8276 25.7453 87.7648 25.6349 87.684 25.542C87.6138 25.4587 87.5291 25.3922 87.4351 25.3465C87.3411 25.3008 87.2398 25.2769 87.1372 25.2762H76.6217V2.33686H87.1372C87.2398 2.33616 87.3411 2.31222 87.4351 2.26652C87.5291 2.22083 87.6138 2.15431 87.684 2.07101" fill="white"/>
<path d="M163.305 2.07093C163.384 1.97701 163.446 1.86649 163.487 1.74571C163.528 1.62494 163.547 1.49633 163.543 1.36729V1.02328C163.546 0.770561 163.461 0.526494 163.305 0.343077C163.239 0.252367 163.156 0.179256 163.061 0.129196C162.966 0.0791351 162.863 0.053353 162.758 0.0537501H151.801C151.603 0.0354234 151.404 0.064316 151.216 0.138453C151.029 0.212591 150.858 0.330316 150.714 0.483803C150.478 0.854108 150.364 1.30457 150.392 1.75822V25.8156C150.368 26.2528 150.46 26.6882 150.658 27.0666C150.79 27.2487 150.962 27.3898 151.158 27.4761C151.353 27.5624 151.565 27.591 151.773 27.5591H162.758C162.863 27.5595 162.966 27.5337 163.061 27.4837C163.156 27.4336 163.239 27.3606 163.305 27.2698C163.461 27.0864 163.546 26.8423 163.543 26.5896V26.2456C163.547 26.1165 163.528 25.9879 163.487 25.8672C163.446 25.7464 163.384 25.6359 163.305 25.5419C163.234 25.4597 163.149 25.3939 163.055 25.3483C162.961 25.3026 162.86 25.2781 162.758 25.2761H152.243V2.33677H162.758C162.861 2.33607 162.962 2.31213 163.056 2.26643C163.15 2.22074 163.235 2.15422 163.305 2.07093Z" fill="white"/>
<path d="M194.066 15.1201C196.303 15.1201 197.971 14.3382 199.03 12.8214C200.061 11.3281 200.611 9.49126 200.593 7.60654C200.593 2.59491 197.887 0.0538869 192.531 0.0538869H188.051C187.831 0.0221097 187.607 0.0472085 187.397 0.127185C187.187 0.207161 186.996 0.339901 186.839 0.515197C186.583 0.983743 186.472 1.53318 186.523 2.07889V26.5976C186.521 26.7296 186.543 26.8607 186.589 26.9825C186.634 27.1044 186.702 27.2143 186.788 27.3055C186.874 27.3966 186.975 27.4669 187.087 27.512C187.198 27.557 187.316 27.5757 187.434 27.567H187.603C187.718 27.5702 187.833 27.5474 187.94 27.4999C188.047 27.4524 188.144 27.3812 188.226 27.2907C188.308 27.2001 188.373 27.092 188.416 26.9729C188.46 26.8538 188.481 26.7261 188.479 26.5976V2.36034H192.496C196.632 2.36034 198.644 4.08039 198.644 7.62997C198.633 8.81627 198.325 9.97555 197.754 10.9763C197.41 11.5597 196.923 12.021 196.352 12.3054C195.636 12.6729 194.854 12.8521 194.066 12.8293H192.664C192.489 12.8017 192.311 12.8192 192.143 12.8804C191.975 12.9416 191.822 13.0448 191.696 13.1822C191.569 13.3196 191.473 13.4874 191.413 13.6729C191.354 13.8583 191.333 14.0565 191.353 14.2522C191.387 14.6611 191.523 15.0511 191.746 15.3781L199.296 27.1527C199.441 27.3717 199.648 27.5295 199.883 27.6005C200.119 27.6715 200.369 27.6515 200.593 27.5436C200.728 27.4636 200.845 27.351 200.935 27.2141C201.026 27.0771 201.088 26.9193 201.117 26.7521C201.146 26.585 201.141 26.4127 201.102 26.248C201.064 26.0833 200.993 25.9302 200.894 25.8001L194.066 15.1201Z" fill="white"/>
<path d="M4.87096 12.8921C4.6613 12.8834 4.45709 12.9677 4.30313 13.1267C4.17273 13.2691 4.09729 13.4626 4.09283 13.6661V13.9476C4.09283 14.448 4.36622 14.7294 4.87096 14.7294H11.5378C12.0355 14.7294 12.3089 14.4558 12.3089 13.9476V13.6661C12.3044 13.4626 12.229 13.2691 12.0986 13.1267C12.0241 13.0475 11.936 12.9859 11.8397 12.9456C11.7433 12.9053 11.6406 12.8871 11.5378 12.8921H4.87096Z" fill="white"/>
<path d="M78.838 12.8921C78.6283 12.8834 78.4241 12.9677 78.2701 13.1267C78.1397 13.2691 78.0643 13.4626 78.0598 13.6661V13.9476C78.0598 14.448 78.3402 14.7294 78.838 14.7294H85.4908C85.9885 14.7294 86.2689 14.4558 86.2689 13.9476V13.6661C86.269 13.5642 86.2497 13.4633 86.2122 13.3703C86.1748 13.2773 86.12 13.1943 86.0516 13.1267C85.9771 13.0475 85.889 12.9859 85.7926 12.9456C85.6963 12.9053 85.5936 12.8871 85.4908 12.8921H78.838Z" fill="white"/>
<path d="M154.457 12.8917C154.353 12.8865 154.249 12.9046 154.152 12.9448C154.054 12.9851 153.965 13.0468 153.889 13.1262C153.759 13.2687 153.683 13.4622 153.679 13.6657V13.9472C153.679 14.4475 153.952 14.729 154.457 14.729H161.117C161.622 14.729 161.895 14.4554 161.895 13.9472V13.6657C161.89 13.4622 161.815 13.2687 161.685 13.1262C161.609 13.046 161.52 12.9839 161.422 12.9436C161.325 12.9032 161.221 12.8856 161.117 12.8917H154.457Z" fill="white"/>
<path d="M38.8708 25.2763V1.03909C38.8721 0.789066 38.7867 0.548178 38.6325 0.366712C38.546 0.268388 38.4422 0.191189 38.3275 0.140041C38.2129 0.0888935 38.0899 0.0649115 37.9665 0.0696064H37.8543C37.7313 0.0578373 37.6075 0.0786354 37.493 0.130259C37.3785 0.181882 37.2765 0.262878 37.1954 0.366712C37.0431 0.548961 36.9602 0.79 36.9641 1.03909V25.722C36.9641 26.9338 37.4688 27.5749 38.4292 27.5749H49.3513C49.4566 27.5744 49.5604 27.5474 49.6551 27.496C49.7497 27.4446 49.8328 27.37 49.8981 27.2778C50.0406 27.0901 50.1177 26.8514 50.1154 26.6054V26.2614C50.1154 25.636 49.842 25.292 49.3513 25.292L38.8708 25.2763Z" fill="white"/>
<path d="M126.494 0.0775489C126.357 0.046715 126.219 0.0310033 126.08 0.0306401C125.901 0.0283875 125.726 0.0881203 125.579 0.201573C125.432 0.315026 125.321 0.476592 125.26 0.663933L117.843 24.3148L114.87 14.5886C114.632 13.8068 114.324 13.6269 113.812 13.6269H110.159C110.042 13.6213 109.924 13.6443 109.815 13.6942C109.707 13.7442 109.609 13.8199 109.529 13.9162C109.379 14.1002 109.296 14.3401 109.297 14.5886V14.9326C109.284 15.0625 109.297 15.1942 109.335 15.3177C109.374 15.4412 109.437 15.5534 109.52 15.6458C109.603 15.7383 109.703 15.8087 109.814 15.8517C109.925 15.8947 110.043 15.9093 110.159 15.8943H112.964L116.336 26.3475C116.432 26.7171 116.639 27.0388 116.922 27.2592C117.205 27.4796 117.547 27.5855 117.892 27.5594C118.227 27.5899 118.561 27.4896 118.837 27.2757C119.114 27.0617 119.315 26.7475 119.406 26.3867L127.335 1.36761C127.566 0.640497 127.054 0.249545 126.508 0.116632" fill="white"/>
</svg>
