<svg width="195" height="55" viewBox="0 0 195 55" fill="none" xmlns="http://www.w3.org/2000/svg">
<path d="M14.0623 1.14477V0.850236C14.0643 0.635272 13.9855 0.427401 13.8414 0.26786C13.7759 0.191421 13.6948 0.129771 13.6036 0.0870677C13.5125 0.044364 13.4132 0.021546 13.3126 0.0201439H2.81637C2.62721 0.00445288 2.43686 0.0291902 2.25798 0.0926651C2.07909 0.15614 1.91575 0.256934 1.77879 0.388347C1.55283 0.705395 1.44399 1.09108 1.47087 1.47948V22.0769C1.45092 22.451 1.53924 22.8229 1.72524 23.148C1.85133 23.304 2.01556 23.4247 2.20202 23.4986C2.38849 23.5725 2.59088 23.597 2.78959 23.5697H13.2791C13.3798 23.5683 13.479 23.5455 13.5702 23.5028C13.6614 23.4601 13.7424 23.3985 13.8079 23.322C13.952 23.1625 14.0309 22.9546 14.0288 22.7396V22.4451C14.0326 22.3346 14.0144 22.2245 13.9753 22.1211C13.9362 22.0177 13.8771 21.9231 13.8012 21.8427C13.7341 21.7713 13.6533 21.7144 13.5635 21.6753C13.4738 21.6361 13.377 21.6156 13.2791 21.615H3.23808V1.97483H13.2791C13.377 1.97422 13.4738 1.95373 13.5635 1.9146C13.6533 1.87548 13.7341 1.81853 13.8012 1.74721C13.8831 1.66958 13.9485 1.57619 13.9933 1.47265C14.0382 1.36912 14.0617 1.25761 14.0623 1.14477V1.14477Z" fill="white"/>
<path d="M84.4361 1.74708C84.5132 1.66756 84.5732 1.57308 84.6123 1.46945C84.6515 1.36583 84.6689 1.25529 84.6636 1.14464V0.850103C84.6657 0.635139 84.5869 0.427269 84.4428 0.267727C84.3772 0.191288 84.2962 0.129639 84.205 0.086935C84.1139 0.0442313 84.0146 0.0214134 83.9139 0.0200112H73.4512C73.2631 0.00528665 73.0741 0.0305138 72.8964 0.0939624C72.7188 0.157411 72.5565 0.257682 72.4203 0.388215C72.1894 0.703114 72.0779 1.08983 72.1057 1.47934V22.0768C72.0858 22.4508 72.1741 22.8227 72.3601 23.1479C72.4862 23.3038 72.6504 23.4246 72.8369 23.4985C73.0233 23.5724 73.2257 23.5969 73.4244 23.5696H83.9139C84.0146 23.5682 84.1139 23.5454 84.205 23.5027C84.2962 23.46 84.3772 23.3984 84.4428 23.3219C84.5869 23.1624 84.6657 22.9545 84.6636 22.7395V22.445C84.6689 22.3343 84.6515 22.2238 84.6123 22.1201C84.5732 22.0165 84.5132 21.922 84.4361 21.8425C84.369 21.7712 84.2881 21.7143 84.1984 21.6751C84.1086 21.636 84.0118 21.6155 83.9139 21.6149H73.8729V1.97469H83.9139C84.0118 1.97409 84.1086 1.95359 84.1984 1.91447C84.2881 1.87535 84.369 1.81839 84.4361 1.74708" fill="white"/>
<path d="M156.645 1.74703C156.721 1.66662 156.78 1.57199 156.819 1.46859C156.858 1.36518 156.876 1.25507 156.873 1.14459V0.850053C156.876 0.633681 156.794 0.424716 156.645 0.267677C156.582 0.190013 156.502 0.127417 156.412 0.0845557C156.322 0.0416949 156.223 0.0196207 156.123 0.0199608H145.66C145.471 0.00426977 145.281 0.0290071 145.102 0.092482C144.923 0.155957 144.759 0.256751 144.623 0.388164C144.397 0.705212 144.288 1.09089 144.315 1.47929V22.0767C144.292 22.4511 144.38 22.8239 144.569 23.1478C144.695 23.3038 144.859 23.4246 145.046 23.4985C145.232 23.5723 145.435 23.5968 145.633 23.5695H156.123C156.223 23.5699 156.322 23.5478 156.412 23.5049C156.502 23.4621 156.582 23.3995 156.645 23.3219C156.794 23.1648 156.876 22.9558 156.873 22.7394V22.4449C156.876 22.3344 156.858 22.2243 156.819 22.1209C156.78 22.0175 156.721 21.9229 156.645 21.8425C156.577 21.7721 156.496 21.7157 156.407 21.6766C156.317 21.6376 156.221 21.6166 156.123 21.6149H146.082V1.97464H156.123C156.221 1.97404 156.318 1.95354 156.407 1.91442C156.497 1.8753 156.578 1.81834 156.645 1.74703Z" fill="white"/>
<path d="M186.018 12.9195C188.154 12.9195 189.747 12.2501 190.758 10.9514C191.742 9.67286 192.268 8.1002 192.25 6.48655C192.25 2.19568 189.666 0.0201052 184.552 0.0201052H180.275C180.064 -0.00710181 179.851 0.0143873 179.65 0.0828616C179.449 0.151336 179.267 0.264985 179.117 0.41507C178.872 0.81623 178.766 1.28665 178.815 1.75387V22.7463C178.813 22.8593 178.835 22.9716 178.878 23.0759C178.922 23.1802 178.987 23.2744 179.068 23.3524C179.15 23.4304 179.247 23.4906 179.354 23.5292C179.46 23.5677 179.573 23.5838 179.686 23.5763H179.846C179.956 23.5791 180.066 23.5595 180.168 23.5189C180.271 23.4782 180.364 23.4173 180.442 23.3397C180.52 23.2622 180.582 23.1697 180.623 23.0677C180.665 22.9657 180.685 22.8564 180.683 22.7463V1.99485H184.519C188.468 1.99485 190.389 3.46752 190.389 6.50661C190.379 7.52229 190.085 8.51484 189.539 9.37166C189.211 9.87119 188.746 10.2661 188.2 10.5097C187.517 10.8243 186.77 10.9777 186.018 10.9581H184.679C184.512 10.9346 184.342 10.9496 184.182 11.0019C184.022 11.0543 183.876 11.1427 183.755 11.2603C183.634 11.3779 183.542 11.5216 183.485 11.6804C183.428 11.8392 183.409 12.0089 183.428 12.1765C183.46 12.5265 183.59 12.8604 183.803 13.1404L191.012 23.2216C191.15 23.4091 191.348 23.5442 191.573 23.605C191.798 23.6658 192.036 23.6486 192.25 23.5563C192.379 23.4878 192.491 23.3914 192.577 23.2741C192.664 23.1569 192.723 23.0217 192.751 22.8786C192.778 22.7355 192.774 22.5881 192.737 22.447C192.7 22.306 192.632 22.175 192.538 22.0635L186.018 12.9195Z" fill="white"/>
<path d="M5.36012 11.0117C5.15992 11.0042 4.96492 11.0764 4.81791 11.2125C4.69339 11.3345 4.62135 11.5002 4.6171 11.6744V11.9154C4.6171 12.3438 4.87815 12.5848 5.36012 12.5848H11.7261C12.2014 12.5848 12.4625 12.3505 12.4625 11.9154V11.6744C12.4582 11.5002 12.3862 11.3345 12.2616 11.2125C12.1905 11.1447 12.1064 11.092 12.0144 11.0575C11.9224 11.0229 11.8243 11.0074 11.7261 11.0117H5.36012Z" fill="white"/>
<path d="M75.989 11.0117C75.7888 11.0042 75.5938 11.0764 75.4468 11.2125C75.3223 11.3345 75.2503 11.5002 75.246 11.6744V11.9154C75.246 12.3438 75.5138 12.5848 75.989 12.5848H82.3416C82.8169 12.5848 83.0847 12.3505 83.0847 11.9154V11.6744C83.0848 11.5871 83.0663 11.5008 83.0306 11.4211C82.9948 11.3415 82.9425 11.2704 82.8771 11.2125C82.806 11.1447 82.7219 11.092 82.6299 11.0575C82.5379 11.0229 82.4398 11.0074 82.3416 11.0117H75.989Z" fill="white"/>
<path d="M148.197 11.0114C148.097 11.007 147.998 11.0225 147.905 11.057C147.812 11.0915 147.727 11.1443 147.654 11.2123C147.53 11.3342 147.458 11.4999 147.454 11.6742V11.9151C147.454 12.3435 147.715 12.5845 148.197 12.5845H154.556C155.038 12.5845 155.299 12.3502 155.299 11.9151V11.6742C155.295 11.4999 155.223 11.3342 155.098 11.2123C155.026 11.1436 154.941 11.0904 154.848 11.0559C154.755 11.0213 154.655 11.0062 154.556 11.0114H148.197Z" fill="white"/>
<path d="M37.8259 21.6148V0.86337C37.8271 0.649306 37.7455 0.443062 37.5982 0.287694C37.5157 0.203512 37.4165 0.137415 37.307 0.0936235C37.1976 0.0498318 37.0802 0.0292988 36.9623 0.0333186H36.8552C36.7377 0.023242 36.6195 0.041049 36.5102 0.0852478C36.4008 0.129447 36.3035 0.198794 36.226 0.287694C36.0806 0.443733 36.0014 0.650106 36.0051 0.86337V21.9964C36.0051 23.034 36.487 23.5829 37.4041 23.5829H47.8334C47.934 23.5824 48.0331 23.5593 48.1235 23.5153C48.2139 23.4712 48.2932 23.4074 48.3555 23.3285C48.4916 23.1677 48.5652 22.9634 48.563 22.7528V22.4583C48.563 21.9227 48.302 21.6282 47.8334 21.6282L37.8259 21.6148Z" fill="white"/>
<path d="M121.495 0.040154C121.365 0.0137547 121.233 0.000302555 121.1 -8.42986e-06C120.929 -0.001937 120.762 0.0492051 120.622 0.146341C120.482 0.243478 120.375 0.381807 120.317 0.542205L113.235 20.7916L110.396 12.4642C110.169 11.7948 109.874 11.6409 109.385 11.6409H105.898C105.786 11.6361 105.673 11.6557 105.569 11.6985C105.465 11.7413 105.372 11.8061 105.295 11.8886C105.152 12.0461 105.074 12.2515 105.075 12.4642V12.7588C105.062 12.87 105.074 12.9827 105.111 13.0885C105.148 13.1942 105.208 13.2903 105.287 13.3694C105.366 13.4486 105.462 13.5089 105.568 13.5457C105.674 13.5825 105.787 13.595 105.898 13.5821H108.576L111.795 22.532C111.888 22.8485 112.085 23.1239 112.356 23.3126C112.626 23.5013 112.952 23.592 113.281 23.5696C113.601 23.5957 113.921 23.5098 114.184 23.3267C114.448 23.1435 114.64 22.8745 114.727 22.5655L122.298 1.14468C122.519 0.522139 122.03 0.187414 121.508 0.0736159" fill="white"/>
<path d="M8.58368 36.867C8.46909 36.5163 8.31804 36.2021 8.13054 35.9243C7.94651 35.643 7.72602 35.4034 7.46907 35.2055C7.21559 35.0076 6.92739 34.8565 6.60446 34.7524C6.28154 34.6482 5.92737 34.5961 5.54194 34.5961C4.90998 34.5961 4.33532 34.7593 3.81795 35.0857C3.30057 35.4121 2.88911 35.893 2.58354 36.5285C2.27798 37.1639 2.1252 37.9434 2.1252 38.867C2.1252 39.7907 2.27972 40.5702 2.58875 41.2056C2.89779 41.8411 3.3162 42.322 3.84399 42.6484C4.37178 42.9748 4.96554 43.138 5.62528 43.138C6.2364 43.138 6.77461 43.0078 7.2399 42.7473C7.70866 42.4834 8.07325 42.1119 8.33367 41.6327C8.59756 41.1501 8.72951 40.5824 8.72951 39.9296L9.12535 40.0129H5.91695V38.867H9.97954V40.0129C9.97954 40.8914 9.79204 41.6553 9.41703 42.3046C9.04549 42.9539 8.53159 43.4574 7.87533 43.8151C7.22253 44.1692 6.47252 44.3463 5.62528 44.3463C4.68081 44.3463 3.85093 44.1241 3.13564 43.6797C2.42382 43.2352 1.86825 42.6032 1.46893 41.7838C1.07309 40.9643 0.875172 39.9921 0.875172 38.867C0.875172 38.0233 0.988022 37.2646 1.21372 36.591C1.44289 35.9139 1.76582 35.3375 2.18249 34.8618C2.59917 34.386 3.09223 34.0215 3.66169 33.768C4.23115 33.5145 4.8579 33.3878 5.54194 33.3878C6.10445 33.3878 6.62877 33.4728 7.11489 33.643C7.60449 33.8096 8.04026 34.0475 8.42221 34.3565C8.80764 34.6621 9.12883 35.0284 9.38578 35.4555C9.64273 35.8791 9.81981 36.3496 9.91704 36.867H8.58368ZM12.2999 44.2005H10.9457L14.8625 33.5336H16.1958L20.1126 44.2005H18.7584L15.5708 35.2211H15.4875L12.2999 44.2005ZM12.7999 40.0337H18.2584V41.1796H12.7999V40.0337ZM21.7741 33.5336H23.3158L26.9409 42.388H27.0659L30.6909 33.5336H32.2326V44.2005H31.0243V36.0962H30.9201L27.5867 44.2005H26.42L23.0866 36.0962H22.9824V44.2005H21.7741V33.5336ZM36.1142 33.5336V44.2005H34.8225V33.5336H36.1142ZM38.7041 44.2005V33.5336H45.1001V34.6795H39.9958V38.2837H44.6209V39.4296H39.9958V44.2005H38.7041ZM48.6041 33.5336V44.2005H47.3124V33.5336H48.6041ZM51.194 44.2005V33.5336H57.6316V34.6795H52.4857V38.2837H57.2983V39.4296H52.4857V43.0546H57.715V44.2005H51.194ZM63.2515 44.2005H59.9598V33.5336H63.3974C64.4321 33.5336 65.3176 33.7471 66.0537 34.1742C66.7898 34.5979 67.3541 35.2072 67.7464 36.0024C68.1388 36.7941 68.335 37.742 68.335 38.8462C68.335 39.9574 68.1371 40.914 67.7412 41.7161C67.3454 42.5147 66.769 43.1293 66.012 43.5599C65.2551 43.987 64.3349 44.2005 63.2515 44.2005ZM61.2515 43.0546H63.1682C64.0502 43.0546 64.7811 42.8845 65.361 42.5442C65.9408 42.2039 66.3731 41.7195 66.6579 41.0911C66.9426 40.4626 67.085 39.7143 67.085 38.8462C67.085 37.9851 66.9443 37.2438 66.6631 36.6222C66.3818 35.9972 65.9617 35.518 65.4026 35.1847C64.8436 34.8479 64.1474 34.6795 63.314 34.6795H61.2515V43.0546ZM74.6268 33.5336H76.1685L79.7936 42.388H79.9186L83.5437 33.5336H85.0854V44.2005H83.877V36.0962H83.7728L80.4394 44.2005H79.2727L75.9393 36.0962H75.8352V44.2005H74.6268V33.5336ZM88.967 33.5336V44.2005H87.6753V33.5336H88.967ZM100.14 36.867H98.8487C98.7723 36.4955 98.6386 36.1691 98.4476 35.8878C98.2601 35.6066 98.031 35.3704 97.7601 35.1795C97.4927 34.985 97.1959 34.8392 96.8695 34.742C96.5431 34.6447 96.2028 34.5961 95.8486 34.5961C95.2028 34.5961 94.6177 34.7593 94.0934 35.0857C93.5725 35.4121 93.1576 35.893 92.8485 36.5285C92.543 37.1639 92.3902 37.9434 92.3902 38.867C92.3902 39.7907 92.543 40.5702 92.8485 41.2056C93.1576 41.8411 93.5725 42.322 94.0934 42.6484C94.6177 42.9748 95.2028 43.138 95.8486 43.138C96.2028 43.138 96.5431 43.0894 96.8695 42.9921C97.1959 42.8949 97.4927 42.7508 97.7601 42.5598C98.031 42.3654 98.2601 42.1275 98.4476 41.8463C98.6386 41.5616 98.7723 41.2352 98.8487 40.8671H100.14C100.043 41.4122 99.8661 41.9001 99.6091 42.3307C99.3522 42.7612 99.0327 43.1276 98.6508 43.4297C98.2688 43.7283 97.84 43.9557 97.3643 44.112C96.892 44.2682 96.3868 44.3463 95.8486 44.3463C94.9389 44.3463 94.1298 44.1241 93.4215 43.6797C92.7131 43.2352 92.1558 42.6032 91.7496 41.7838C91.3433 40.9643 91.1402 39.9921 91.1402 38.867C91.1402 37.742 91.3433 36.7698 91.7496 35.9503C92.1558 35.1309 92.7131 34.4989 93.4215 34.0544C94.1298 33.61 94.9389 33.3878 95.8486 33.3878C96.3868 33.3878 96.892 33.4659 97.3643 33.6221C97.84 33.7784 98.2688 34.0076 98.6508 34.3097C99.0327 34.6083 99.3522 34.9729 99.6091 35.4034C99.8661 35.8305 100.043 36.3184 100.14 36.867ZM102.228 44.2005V33.5336H105.832C106.665 33.5336 107.349 33.676 107.884 33.9607C108.419 34.2419 108.815 34.6291 109.072 35.1222C109.329 35.6152 109.457 36.176 109.457 36.8045C109.457 37.433 109.329 37.9903 109.072 38.4764C108.815 38.9625 108.421 39.3445 107.889 39.6223C107.358 39.8966 106.679 40.0337 105.853 40.0337H102.936V38.867H105.811C106.381 38.867 106.839 38.7837 107.186 38.617C107.537 38.4504 107.79 38.2143 107.947 37.9087C108.106 37.5997 108.186 37.2316 108.186 36.8045C108.186 36.3774 108.106 36.0041 107.947 35.6847C107.787 35.3652 107.532 35.1187 107.181 34.9451C106.83 34.768 106.367 34.6795 105.79 34.6795H103.519V44.2005H102.228ZM107.249 39.4087L109.874 44.2005H108.374L105.79 39.4087H107.249ZM120.61 38.867C120.61 39.9921 120.406 40.9643 120 41.7838C119.594 42.6032 119.037 43.2352 118.328 43.6797C117.62 44.1241 116.811 44.3463 115.901 44.3463C114.991 44.3463 114.182 44.1241 113.474 43.6797C112.766 43.2352 112.208 42.6032 111.802 41.7838C111.396 40.9643 111.193 39.9921 111.193 38.867C111.193 37.742 111.396 36.7698 111.802 35.9503C112.208 35.1309 112.766 34.4989 113.474 34.0544C114.182 33.61 114.991 33.3878 115.901 33.3878C116.811 33.3878 117.62 33.61 118.328 34.0544C119.037 34.4989 119.594 35.1309 120 35.9503C120.406 36.7698 120.61 37.742 120.61 38.867ZM119.36 38.867C119.36 37.9434 119.205 37.1639 118.896 36.5285C118.59 35.893 118.175 35.4121 117.651 35.0857C117.13 34.7593 116.547 34.5961 115.901 34.5961C115.255 34.5961 114.67 34.7593 114.146 35.0857C113.625 35.4121 113.21 35.893 112.901 36.5285C112.596 37.1639 112.443 37.9434 112.443 38.867C112.443 39.7907 112.596 40.5702 112.901 41.2056C113.21 41.8411 113.625 42.322 114.146 42.6484C114.67 42.9748 115.255 43.138 115.901 43.138C116.547 43.138 117.13 42.9748 117.651 42.6484C118.175 42.322 118.59 41.8411 118.896 41.2056C119.205 40.5702 119.36 39.7907 119.36 38.867ZM122.782 44.2005V33.5336H124.073V43.0546H129.032V44.2005H122.782ZM131.032 44.2005V33.5336H137.469V34.6795H132.323V38.2837H137.136V39.4296H132.323V43.0546H137.553V44.2005H131.032ZM140.235 44.2005H138.881L142.798 33.5336H144.131L148.048 44.2005H146.693L143.506 35.2211H143.423L140.235 44.2005ZM140.735 40.0337H146.193V41.1796H140.735V40.0337ZM149.709 44.2005V33.5336H153.313C154.147 33.5336 154.831 33.676 155.366 33.9607C155.9 34.2419 156.296 34.6291 156.553 35.1222C156.81 35.6152 156.939 36.176 156.939 36.8045C156.939 37.433 156.81 37.9903 156.553 38.4764C156.296 38.9625 155.902 39.3445 155.371 39.6223C154.839 39.8966 154.161 40.0337 153.334 40.0337H150.418V38.867H153.293C153.862 38.867 154.32 38.7837 154.668 38.617C155.018 38.4504 155.272 38.2143 155.428 37.9087C155.588 37.5997 155.668 37.2316 155.668 36.8045C155.668 36.3774 155.588 36.0041 155.428 35.6847C155.268 35.3652 155.013 35.1187 154.662 34.9451C154.312 34.768 153.848 34.6795 153.272 34.6795H151.001V44.2005H149.709ZM154.73 39.4087L157.355 44.2005H155.855L153.272 39.4087H154.73ZM167.549 33.5336V44.2005H166.299L160.487 35.8253H160.383V44.2005H159.091V33.5336H160.341L166.174 41.9296H166.279V33.5336H167.549ZM171.426 33.5336V44.2005H170.134V33.5336H171.426ZM182.474 33.5336V44.2005H181.224L175.412 35.8253H175.307V44.2005H174.016V33.5336H175.266L181.099 41.9296H181.203V33.5336H182.474ZM192.351 36.867C192.236 36.5163 192.085 36.2021 191.898 35.9243C191.714 35.643 191.493 35.4034 191.236 35.2055C190.983 35.0076 190.694 34.8565 190.372 34.7524C190.049 34.6482 189.694 34.5961 189.309 34.5961C188.677 34.5961 188.102 34.7593 187.585 35.0857C187.068 35.4121 186.656 35.893 186.351 36.5285C186.045 37.1639 185.892 37.9434 185.892 38.867C185.892 39.7907 186.047 40.5702 186.356 41.2056C186.665 41.8411 187.083 42.322 187.611 42.6484C188.139 42.9748 188.733 43.138 189.392 43.138C190.003 43.138 190.542 43.0078 191.007 42.7473C191.476 42.4834 191.84 42.1119 192.101 41.6327C192.365 41.1501 192.497 40.5824 192.497 39.9296L192.892 40.0129H189.684V38.867H193.747V40.0129C193.747 40.8914 193.559 41.6553 193.184 42.3046C192.813 42.9539 192.299 43.4574 191.642 43.8151C190.99 44.1692 190.24 44.3463 189.392 44.3463C188.448 44.3463 187.618 44.1241 186.903 43.6797C186.191 43.2352 185.635 42.6032 185.236 41.7838C184.84 40.9643 184.642 39.9921 184.642 38.867C184.642 38.0233 184.755 37.2646 184.981 36.591C185.21 35.9139 185.533 35.3375 185.95 34.8618C186.366 34.386 186.859 34.0215 187.429 33.768C187.998 33.5145 188.625 33.3878 189.309 33.3878C189.872 33.3878 190.396 33.4728 190.882 33.643C191.372 33.8096 191.807 34.0475 192.189 34.3565C192.575 34.6621 192.896 35.0284 193.153 35.4555C193.41 35.8791 193.587 36.3496 193.684 36.867H192.351Z" fill="white"/>
</svg>
