<svg width="251" height="85" viewBox="0 0 251 85" fill="none" xmlns="http://www.w3.org/2000/svg">
<g id="AF Logo">
<path id="Vector" d="M16.3582 0.85376L0.484375 38.3105H8.52523L12.0877 29.32H27.6075L31.2655 38.3105H39.5929L23.6629 0.85376H16.3582ZM15.431 22.3804L19.8813 10.5916L24.3035 22.3804H15.4254H15.431Z" fill="#00DECA"/>
<path id="Vector_2" d="M52.9472 1.34375H45.1367V38.3116H68.2591V31.0855H52.9472V1.34375Z" fill="#00DECA"/>
<path id="Vector_3" d="M249.383 31.085H170.654V38.3111H249.383V31.085Z" fill="#00DECA"/>
<path id="Vector_4" d="M75.2984 38.3119H83.1033V8.57012H94.5718V1.34399H63.8243V8.57012H75.2984V38.3119Z" fill="#00DECA"/>
<path id="Vector_5" d="M104.684 35.5639C107.353 37.6767 111.191 38.7499 116.096 38.7499C118.175 38.7499 120.097 38.4802 121.811 37.9464C123.592 37.3957 125.16 36.5248 126.463 35.3616C127.773 34.1985 128.795 32.7319 129.503 31.0068C130.194 29.3211 130.548 27.3095 130.548 25.0281V1.34375H122.693V24.0055C122.693 26.7701 122.159 28.748 121.108 29.8886C120.108 30.9731 118.406 31.5238 116.051 31.5238C113.528 31.5238 111.64 30.9956 110.438 29.9617C109.297 28.9784 108.696 26.9723 108.696 24.1516V1.34375H100.537V26.0002C100.537 30.1696 101.936 33.3837 104.69 35.5639H104.684Z" fill="#00DECA"/>
<path id="Vector_6" d="M93.669 62.2424H78.3964V54.4488H94.7872V47.2227H70.5859V84.1962H78.3964V69.4686H93.669V62.2424Z" fill="#00DECA"/>
<path id="Vector_7" d="M232.289 68.9797H248.017V61.7592H232.289V54.4488H249.382V47.2227H224.479V84.1962H250.321V76.97H232.289V68.9797Z" fill="#00DECA"/>
<path id="Vector_8" d="M159.297 35.7034C160.572 34.692 161.561 33.4502 162.241 32.0173C162.916 30.5957 163.258 28.9943 163.258 27.258C163.258 25.1003 162.719 23.2741 161.657 21.8356C160.674 20.5095 159.42 19.3744 157.931 18.4641C156.521 17.6044 154.993 16.8739 153.391 16.2952C151.913 15.7614 150.509 15.1938 149.216 14.6207C148.07 14.1093 146.497 13.407 145.794 12.1033C145.058 10.7379 145.704 9.09713 146.727 8.1756C148.171 6.8776 150.166 6.72588 151.543 6.72588C151.79 6.72588 152.037 6.72588 152.279 6.73712C154.425 6.81579 156.763 8.24303 157.853 8.99037L162.814 3.86577C160.145 2.07891 156.695 0.865189 153.492 0.601092C149.121 0.235852 145.811 0.719093 143.204 2.07329C142.49 2.44415 141.81 2.89367 141.237 3.3713C138.866 5.34359 137.669 7.96208 137.669 11.165C137.669 13.4463 138.203 15.3512 139.254 16.829C140.248 18.2281 141.513 19.38 143.018 20.2622C144.434 21.0882 145.968 21.7794 147.576 22.3076C148.817 22.7178 150.076 23.1842 151.43 23.7292L151.593 23.7966C152.515 24.1675 153.56 24.5889 154.375 25.2632C154.875 25.679 155.262 26.2522 155.408 26.8028C155.622 27.5951 155.482 28.5953 155.066 29.2865C154.144 30.8205 152.093 31.5678 150.481 31.7532C148.098 32.0286 145.609 31.5622 143.575 30.4552C142.934 30.1069 142.355 29.736 141.855 29.3595L141.625 29.1741C141.574 29.1348 141.524 29.0898 141.473 29.0505L136.281 34.6864C137.045 35.5012 139.096 37.3105 142.794 38.1197C145.862 38.7883 149.289 38.9344 152.262 38.5186C153.172 38.3894 154.037 38.2039 154.841 37.9623C156.566 37.4397 158.072 36.6755 159.319 35.6866L159.297 35.7034Z" fill="#00DECA"/>
<path id="Vector_9" d="M166.918 67.9077C166.918 67.9077 168.811 67.5312 171.284 65.6769C173.419 64.0755 174.543 60.9737 174.543 57.7034C174.543 55.6974 174.121 53.9611 173.295 52.5339C172.486 51.1404 171.396 49.9941 170.053 49.1175C168.828 48.3252 167.778 47.7914 166.013 47.4093C165.277 47.252 164.485 47.2351 162.366 47.2239H159.45C154.753 47.1901 148.206 47.2126 146.639 47.2239V84.1974H154.449V69.4473H159.085L159.18 69.6327L166.968 84.1974H176.15C166.805 68.1999 166.834 68.1156 166.907 67.9077H166.918ZM165.979 60.4624C165.67 61.058 165.26 61.53 164.726 61.9009C164.142 62.2998 163.44 62.6033 162.636 62.7999C161.984 62.9629 160.518 63.064 159.366 63.1034H154.46V54.1747L160.731 54.096C162.822 54.096 164.226 54.4444 165.142 55.1917C166.036 55.9222 166.446 56.8718 166.446 58.1811C166.446 59.1026 166.288 59.8724 165.979 60.468V60.4624Z" fill="#00DECA"/>
<path id="Vector_10" d="M119.962 45.8633C108.842 45.8633 100.127 54.4268 100.127 65.3559C100.127 76.285 108.842 84.8428 119.962 84.8428C131.082 84.8428 139.797 76.2793 139.797 65.3559C139.797 54.4324 131.082 45.8633 119.962 45.8633ZM119.962 77.1615C113.287 77.1615 108.252 72.0875 108.252 65.3559C108.252 58.6242 113.287 53.5502 119.962 53.5502C126.638 53.5502 131.672 58.6242 131.672 65.3559C131.672 72.0875 126.638 77.1615 119.962 77.1615Z" fill="#00DECA"/>
<path id="Vector_11" d="M201.371 61.8779V69.5704H208.041V76.1897L207.844 76.2852C206.625 76.8752 205.439 77.336 204.186 77.5664C200.517 78.235 198.224 78.0384 195.387 77.0606C194.049 76.5999 192.661 75.6334 191.667 74.622C190.751 73.6836 190.02 72.4642 189.498 71.0033C188.464 68.1151 188.357 64.9178 188.998 61.9341C189.447 59.8494 190.464 57.7479 192.066 56.3038C193.066 55.3991 194.156 54.7698 195.398 54.3764C198.308 53.4661 201.921 53.5336 205.293 54.5338C206.164 54.7922 207.035 55.135 207.878 55.5508C207.911 55.5677 209.204 56.2925 209.541 56.4555L214.278 50.8814C213.677 50.4543 210.738 48.7405 208.271 47.9482C207.226 47.6111 205.962 47.2346 204.478 46.9817C202.86 46.7064 201.236 46.5659 199.646 46.5659C198.056 46.5659 196.544 46.7064 195.1 46.9761C194.235 47.1391 193.358 47.3638 192.504 47.6392C190.335 48.3415 188.34 49.4766 186.576 51.0162C184.806 52.5615 183.356 54.5619 182.249 56.9556C181.148 59.3606 180.586 62.2544 180.586 65.5696C180.586 68.8849 181.041 71.5202 181.946 73.8746C182.856 76.2627 184.137 78.28 185.761 79.8702C188.756 82.8146 193.515 84.3149 197.634 84.652C201.028 84.933 203.085 84.8824 207.147 83.8204C209.794 83.1236 212.423 82.3313 215.649 79.5555V61.8948H201.371V61.8779Z" fill="#00DECA"/>
</g>
</svg>
