<svg width="566" height="212" viewBox="0 0 566 212" fill="none" xmlns="http://www.w3.org/2000/svg">
<path d="M157.02 67.2968H76.7671C75.5322 67.2968 74.5312 68.3428 74.5312 69.633V70.2136C74.5312 71.5038 75.5322 72.5498 76.7671 72.5498H157.02C158.255 72.5498 159.256 71.5038 159.256 70.2136V69.633C159.256 68.3428 158.255 67.2968 157.02 67.2968Z" fill="#7B1475"/>
<path d="M157.006 85.0187H115.213C113.978 85.0187 112.977 86.0647 112.977 87.3549V87.9355C112.977 89.2258 113.978 90.2717 115.213 90.2717H157.006C158.241 90.2717 159.242 89.2258 159.242 87.9355V87.3549C159.242 86.0647 158.241 85.0187 157.006 85.0187Z" fill="#7B1475"/>
<path d="M177.844 85.0187H165.143C163.908 85.0187 162.907 86.0647 162.907 87.3549V87.9355C162.907 89.2258 163.908 90.2717 165.143 90.2717H177.844C179.079 90.2717 180.08 89.2258 180.08 87.9355V87.3549C180.08 86.0647 179.079 85.0187 177.844 85.0187Z" fill="#7B1475"/>
<path d="M162.51 98.4276H82.2566C81.0218 98.4276 80.0208 99.4736 80.0208 100.764V101.344C80.0208 102.635 81.0218 103.681 82.2566 103.681H162.51C163.745 103.681 164.746 102.635 164.746 101.344V100.764C164.746 99.4736 163.745 98.4276 162.51 98.4276Z" fill="#7B1475"/>
<path d="M93.1716 81.0513H86.1729C84.9425 81.0513 83.937 79.8763 83.937 78.4248C83.937 76.9733 84.9425 75.7983 86.1729 75.7983H93.1716C94.4019 75.7983 95.4074 76.9733 95.4074 78.4248C95.4074 79.8763 94.4019 81.0513 93.1716 81.0513Z" fill="#7B1475"/>
<path d="M96.8368 112.085H89.8382C88.6078 112.085 87.6023 110.91 87.6023 109.459C87.6023 108.007 88.6078 106.832 89.8382 106.832H96.8368C98.0672 106.832 99.0727 108.007 99.0727 109.459C99.0727 110.91 98.0672 112.085 96.8368 112.085Z" fill="#7B1475"/>
<path d="M188.904 112.085H143.445C142.215 112.085 141.209 110.91 141.209 109.459C141.209 108.007 142.215 106.832 143.445 106.832H188.904C190.134 106.832 191.139 108.007 191.139 109.459C191.139 110.91 190.134 112.085 188.904 112.085Z" fill="#7B1475"/>
<path d="M174.245 72.5496H167.247C166.016 72.5496 165.011 71.3746 165.011 69.9231C165.011 68.4716 166.016 67.2966 167.247 67.2966H174.245C175.476 67.2966 176.481 68.4716 176.481 69.9231C176.481 71.3746 175.476 72.5496 174.245 72.5496Z" fill="#7B1475"/>
<path d="M177.524 103.681H170.525C169.295 103.681 168.29 102.506 168.29 101.054C168.29 99.6027 169.295 98.4276 170.525 98.4276H177.524C178.754 98.4276 179.76 99.6027 179.76 101.054C179.76 102.506 178.754 103.681 177.524 103.681Z" fill="#7B1475"/>
<path d="M206.076 103.681H186.257C185.027 103.681 184.021 102.506 184.021 101.054C184.021 99.6027 185.027 98.4276 186.257 98.4276H206.076C207.306 98.4276 208.312 99.6027 208.312 101.054C208.312 102.506 207.306 103.681 206.076 103.681Z" fill="#7B1475"/>
<path d="M150.775 112.085H104.232C103.002 112.085 101.996 110.91 101.996 109.459C101.996 108.007 103.002 106.832 104.232 106.832H150.775C152.005 106.832 153.011 108.007 153.011 109.459C153.011 110.91 152.005 112.085 150.775 112.085Z" fill="#7B1475"/>
<path d="M181.056 81.0513H155.747C154.517 81.0513 153.511 79.8763 153.511 78.4248C153.511 76.9733 154.517 75.7983 155.747 75.7983H181.056C182.286 75.7983 183.292 76.9733 183.292 78.4248C183.292 79.8763 182.286 81.0513 181.056 81.0513Z" fill="#7B1475"/>
<path d="M146.899 81.0514H101.441C100.211 81.0514 99.2053 79.8763 99.2053 78.4248C99.2053 76.9733 100.211 75.7983 101.441 75.7983H146.899C148.13 75.7983 149.135 76.9733 149.135 78.4248C149.135 79.8763 148.13 81.0514 146.899 81.0514Z" fill="#7B1475"/>
<path d="M193.31 72.5497H180.821C179.591 72.5497 178.585 71.3747 178.585 69.9232C178.585 68.4717 179.591 67.2967 180.821 67.2967H193.31C194.541 67.2967 195.546 68.4717 195.546 69.9232C195.546 71.3747 194.541 72.5497 193.31 72.5497Z" fill="#7B1475"/>
<path d="M428.858 49.7042C426.678 48.8442 424.926 47.0766 424.042 44.8312C424.042 44.7993 424.027 44.7834 424.011 44.7675C423.112 42.5061 423.143 39.9582 424.118 37.7287L424.85 36.0247L419.195 30.1166L417.564 30.881C415.431 31.8843 412.992 31.932 410.843 30.9925C410.813 30.9925 410.797 30.9766 410.782 30.9606C408.633 30.037 406.941 28.2056 406.118 25.9284L405.494 24.1766H397.492L396.867 25.9284C396.044 28.2056 394.352 30.037 392.203 30.9606C392.188 30.9606 392.158 30.9765 392.142 30.9925C389.978 31.932 387.54 31.9002 385.421 30.881L383.79 30.1166L378.136 36.0247L378.868 37.7287C379.843 39.9582 379.874 42.5061 378.974 44.7675C378.974 44.7993 378.959 44.8153 378.944 44.8312C378.06 47.0766 376.307 48.8442 374.128 49.7042L372.451 50.3571V58.7177L374.128 59.3706C376.307 60.2305 378.06 61.9822 378.944 64.2436C378.944 64.2595 378.959 64.2914 378.974 64.3073C379.874 66.5686 379.843 69.1166 378.868 71.3461L378.136 73.05L383.79 78.9582L385.421 78.1938C387.555 77.1746 389.994 77.1427 392.142 78.0823C392.173 78.0823 392.188 78.0982 392.203 78.1141C394.352 79.0537 396.044 80.8691 396.867 83.1464L397.492 84.8981H405.494L406.118 83.1464C406.941 80.8691 408.633 79.0378 410.782 78.1141C410.797 78.1141 410.828 78.0982 410.843 78.0823C413.007 77.1427 415.446 77.1746 417.564 78.1938L419.195 78.9582L424.85 73.05L424.118 71.3461C423.143 69.1166 423.112 66.5686 424.011 64.3073C424.011 64.2914 424.027 64.2595 424.042 64.2436C424.926 61.9822 426.678 60.2305 428.858 59.3706L430.534 58.7177V50.3571L428.858 49.7042ZM401.47 75.0566C390.634 75.0566 381.84 65.8679 381.84 54.5453C381.84 43.2228 390.634 34.0341 401.47 34.0341C412.306 34.0341 421.1 43.2228 421.1 54.5453C421.1 65.8679 412.306 75.0566 401.47 75.0566Z" fill="#3DDC24"/>
<path d="M125.491 35.1869C125.491 35.1869 131.246 18.7598 148.247 18.4834C165.248 17.9378 159.21 28.6104 177.033 26.9734C194.856 25.3292 188.273 5.34464 216.237 0.965031C244.202 -3.14528 255.994 35.1869 255.994 35.1869H125.491Z" fill="#82FF99"/>
<path d="M90.2112 27.7463C90.2112 27.7463 93.0955 19.5186 101.6 19.384C110.104 19.1076 107.085 24.4581 116 23.636C124.915 22.8139 121.627 12.8004 135.616 10.6106C149.605 8.55542 155.509 27.7534 155.509 27.7534H90.2112V27.7463Z" fill="#C63FFF"/>
<path d="M219.47 14.3766H311.917C316.878 14.3766 320.9 18.3983 320.9 23.359V83.9507H210.506V23.359C210.506 18.3983 214.527 14.3766 219.488 14.3766H219.47Z" fill="#59FFE9"/>
<path d="M315.484 20.1524H215.915V78.1751H315.484V20.1524Z" fill="#2929CC"/>
<path d="M335.323 83.9509H196.051C196.051 88.8053 199.984 92.7385 204.838 92.7385H326.536C331.39 92.7385 335.323 88.8053 335.323 83.9509Z" fill="#3EB3A3"/>
<path d="M267.078 17.1766C267.078 16.4148 266.458 15.7947 265.696 15.7947C264.934 15.7947 264.314 16.4148 264.314 17.1766C264.314 17.9384 264.934 18.5585 265.696 18.5585C266.458 18.5585 267.078 17.9384 267.078 17.1766Z" fill="#373C41"/>
<path d="M225.532 87.1932H211.589V89.5496H225.532V87.1932Z" fill="#2944CC"/>
<path d="M323.544 87.1932H309.601V89.5496H323.544V87.1932Z" fill="#2944CC"/>
<path d="M248.331 41.7498L236.55 64.1262C235.593 65.9333 236.904 68.1125 238.959 68.1125H262.505C264.56 68.1125 265.871 65.9333 264.914 64.1262L253.133 41.7498C252.105 39.801 249.323 39.801 248.314 41.7498H248.331Z" fill="#FFB700"/>
<path d="M273.03 31.8637L256.058 64.1084C255.101 65.9155 256.412 68.0947 258.467 68.0947H292.413C294.468 68.0947 295.779 65.9155 294.822 64.1084L277.849 31.8637C276.822 29.9149 274.04 29.9149 273.03 31.8637Z" fill="#FF7666"/>
<path d="M536.188 104.049H460.528L449.399 113.855L450.212 104.049H444.87C442.574 104.049 440.708 102.199 440.708 99.9508V45.9923C440.708 43.7121 442.574 41.8944 444.87 41.8944H536.204C538.501 41.8944 540.382 43.744 540.382 45.9923V99.9508C540.382 102.231 538.516 104.049 536.204 104.049H536.188Z" fill="#4C01A8"/>
<path d="M508.268 80.1625C505.717 80.1625 503.644 78.0896 503.644 75.5384C503.644 72.9872 505.717 70.9143 508.268 70.9143C510.82 70.9143 512.893 72.9872 512.893 75.5384C512.893 78.0896 510.82 80.1625 508.268 80.1625Z" fill="#FFECA3"/>
<path d="M490.345 80.1625C487.794 80.1625 485.721 78.0896 485.721 75.5384C485.721 72.9872 487.794 70.9143 490.345 70.9143C492.896 70.9143 494.969 72.9872 494.969 75.5384C494.969 78.0896 492.896 80.1625 490.345 80.1625Z" fill="#FA76D5"/>
<path d="M473.557 80.1625C471.006 80.1625 468.933 78.0896 468.933 75.5384C468.933 72.9872 471.006 70.9143 473.557 70.9143C476.108 70.9143 478.181 72.9872 478.181 75.5384C478.181 78.0896 476.108 80.1625 473.557 80.1625Z" fill="#FF8D50"/>
<path d="M57.3579 164.608C89.034 164.608 114.712 138.929 114.712 107.253C114.712 75.5767 89.034 49.8981 57.3579 49.8981C25.6819 49.8981 0.00341797 75.5767 0.00341797 107.253C0.00341797 138.929 25.6819 164.608 57.3579 164.608Z" fill="#00EAC0"/>
<mask id="mask0_787_1927" style="mask-type:alpha" maskUnits="userSpaceOnUse" x="0" y="49" width="115" height="116">
<path d="M57.3579 164.608C89.034 164.608 114.712 138.929 114.712 107.253C114.712 75.5766 89.034 49.8979 57.3579 49.8979C25.6819 49.8979 0.00341797 75.5766 0.00341797 107.253C0.00341797 138.929 25.6819 164.608 57.3579 164.608Z" fill="#3EDDC0"/>
</mask>
<g mask="url(#mask0_787_1927)">
<path d="M39.8273 154.116L76.3887 156.707L80.1075 148.266L34.061 145.759L39.8273 154.116Z" fill="#002C8C"/>
<path d="M67.9036 142.374L70.2853 177.85L74.5055 175.468L77.0961 144.589L67.9036 142.374Z" fill="#002C8C"/>
<path d="M46.5102 146.469L52.4854 177.892L48.0562 176.011L36.4819 145.634L46.5102 146.469Z" fill="#002C8C"/>
<path d="M28.3372 109.364C28.3372 108.403 28.4207 106.606 28.5043 105.686C29.6743 89.2232 42.6692 80.4483 58.6727 80.2394C75.5954 79.9887 91.557 89.9753 89.0082 109.823C88.3814 114.712 79.9409 115.339 72.4615 117.93C65.4835 120.353 69.1188 119.141 60.6365 119.267C43.672 119.517 28.5043 122.359 28.3372 109.405V109.364Z" fill="#FCDBC7"/>
<path d="M46.9279 101.466C47.095 100.422 48.0978 99.7113 49.1425 99.9202C50.1871 100.087 50.8974 101.09 50.6885 102.135C50.5213 103.179 49.5185 103.89 48.4739 103.681C47.4293 103.514 46.719 102.511 46.9279 101.466Z" fill="#3F2311"/>
<path d="M67.482 68.7905C71.8275 70.0441 75.8388 72.3004 80.2262 73.3033C84.6971 74.3061 91.5916 75.1418 94.9343 71.8408C97.6503 78.8607 92.8033 88.0116 87.0789 89.1816C91.8005 92.3155 92.3437 103.556 89.2516 108.612C89.2934 103.89 87.831 99.4189 85.6582 97.079C81.4797 92.608 75.5046 92.2319 69.7801 92.5244C63.1782 92.9005 56.618 93.2348 50.0161 92.1901C47.9686 91.8558 45.9212 91.3962 43.9573 90.7694C43.247 90.5605 38.4 89.1816 38.3582 88.4713C39.2357 97.3715 30.837 109.447 29.5417 109.155C29.3328 109.113 27.1182 105.937 25.405 102.678C23.6919 99.4189 22.6055 93.1512 23.6919 89.2234C25.029 84.3345 27.16 83.081 31.6309 81.8274C34.3051 81.0753 34.5558 82.2871 36.06 79.9471C38.0239 76.8968 41.9099 73.4286 45.0437 71.6737C51.8128 67.8712 60.0443 66.5759 67.5237 68.7487L67.482 68.7905Z" fill="#663013"/>
<path d="M55.7832 97.6645C55.7832 97.6645 39.5291 95.5752 37.3981 86.2571C35.2671 76.9391 35.6013 88.221 35.6013 88.221C35.6013 88.221 37.9831 96.7034 55.7832 97.6645Z" fill="#663013"/>
<path d="M88.9181 66.0746C88.9181 66.0746 87.2467 81.0754 71.7029 75.4344C57.538 70.2949 70.3658 69.6681 70.3658 69.6681C70.3658 69.6681 83.4861 77.1058 88.9599 66.0746H88.9181Z" fill="#663013"/>
<path d="M35.3937 72.6349C35.3937 72.6349 40.366 77.7745 33.8894 83.6244C27.4128 89.4743 30.1288 82.7469 30.1288 82.7469C30.1288 82.7469 37.2322 81.0337 35.3937 72.6349Z" fill="#663013"/>
<path d="M27.4973 75.7271C27.4973 75.7271 28.2076 82.9141 36.7317 81.6187C45.2975 80.3234 37.6927 79.5295 37.6927 79.5295C37.6927 79.5295 32.6368 82.5798 27.4973 75.7271Z" fill="#663013"/>
<path d="M80.6903 153.113L35.3124 151.317L26.4541 107.192C26.4541 107.192 33.8082 111.871 39.1148 113.083C49.5609 115.465 56.0793 117.429 64.1855 116.802C67.1939 116.551 71.3306 115.757 74.7151 115.005C87.2922 112.289 90.3843 108.32 90.3843 108.32L90.5097 109.03L80.6903 153.071V153.113Z" fill="#057CFF"/>
<path d="M77.0139 100.797C77.181 99.8363 78.1838 99.1677 79.2702 99.3348C80.3148 99.502 81.0252 100.421 80.858 101.382C80.6909 102.343 79.6881 103.012 78.6017 102.845C77.5571 102.678 76.8467 101.758 77.0139 100.797Z" fill="#3F2311"/>
<path d="M64.4334 121.816C65.0564 121.816 65.5615 121.311 65.5615 120.688C65.5615 120.064 65.0564 119.559 64.4334 119.559C63.8103 119.559 63.3052 120.064 63.3052 120.688C63.3052 121.311 63.8103 121.816 64.4334 121.816Z" fill="#7589A1"/>
<path d="M64.1848 126.621C64.8079 126.621 65.313 126.116 65.313 125.493C65.313 124.87 64.8079 124.365 64.1848 124.365C63.5617 124.365 63.0566 124.87 63.0566 125.493C63.0566 126.116 63.5617 126.621 64.1848 126.621Z" fill="#7589A1"/>
<path d="M66.7328 116.426L62.1365 116.509C62.3037 124.95 61.6769 128.627 60.9666 131.468L65.5211 132.262C66.315 128.877 66.8999 124.908 66.7328 116.426Z" fill="#96CBE3"/>
<path d="M64.3552 122.527C64.9783 122.527 65.4834 122.022 65.4834 121.399C65.4834 120.776 64.9783 120.271 64.3552 120.271C63.7322 120.271 63.2271 120.776 63.2271 121.399C63.2271 122.022 63.7322 122.527 64.3552 122.527Z" fill="white"/>
<path d="M64.1018 127.374C64.7249 127.374 65.23 126.868 65.23 126.245C65.23 125.622 64.7249 125.117 64.1018 125.117C63.4787 125.117 62.9736 125.622 62.9736 126.245C62.9736 126.868 63.4787 127.374 64.1018 127.374Z" fill="white"/>
<path d="M43.0838 139.784C37.0668 142.876 31.1752 145.258 22.108 143.586C16.1328 142.5 12.4558 139.533 10.4084 135.229C5.7285 125.535 14.8793 113.794 23.4869 108.529C24.1137 108.153 25.5343 107.275 26.9968 107.025C29.0442 106.648 31.4677 109.156 31.4677 109.197C31.9691 109.866 35.3119 109.156 27.0386 114.337C13.7511 122.694 12.999 135.605 24.4061 137.193C30.7574 138.071 36.6072 136.065 40.7021 132.722L43.042 136.149C43.4599 136.358 44.9223 138.906 43.1256 139.826L43.0838 139.784Z" fill="#057CFF"/>
<path d="M85.7046 145.633C92.4319 146.385 98.7831 146.51 106.68 141.705C111.862 138.571 114.243 134.476 114.661 129.713C115.58 119.016 102.836 111.244 92.9333 109.405C92.2229 109.28 90.5516 108.946 89.1309 109.238C87.0835 109.614 85.7463 112.832 85.7463 112.832C85.4956 113.626 82.1529 114.127 91.7215 116.049C107.098 119.141 112.405 130.925 102.335 136.482C96.6939 139.574 90.5516 139.783 85.4956 138.07L84.5346 142.123C84.2003 142.457 83.7407 145.382 85.7463 145.591L85.7046 145.633Z" fill="#057CFF"/>
<path style="mix-blend-mode:hard-light" opacity="0.67" d="M34.4696 95.2406C36.6006 92.7753 40.779 92.9007 43.7875 92.6917C47.0467 92.4828 54.4007 92.8171 55.8632 96.4106C56.7825 98.7088 55.4454 103.472 54.4007 105.645C53.0636 108.361 50.8073 109.531 47.9242 109.824C43.5368 110.325 36.8931 110.785 34.7621 105.645C33.5921 102.846 32.2968 98.3745 34.1353 95.7003C34.2606 95.5331 34.386 95.366 34.5114 95.2406H34.4696Z" fill="url(#paint0_linear_787_1927)"/>
<path style="mix-blend-mode:hard-light" opacity="0.67" d="M64.8524 94.4046C66.9834 91.9392 71.1618 92.0646 74.1703 91.8557C77.4295 91.6468 84.7836 91.981 86.246 95.5745C87.1653 97.8727 85.8282 102.636 84.7836 104.809C83.4465 107.525 81.1901 108.695 78.307 108.988C73.9196 109.489 67.2759 109.949 65.1449 104.809C63.9749 102.009 62.6796 97.5384 64.5181 94.8642C64.6435 94.6971 64.7688 94.5299 64.8942 94.4046H64.8524Z" fill="url(#paint1_linear_787_1927)"/>
<path d="M30.6299 92.8593C30.6299 92.8593 30.8388 97.4556 31.2567 102.052C31.2567 102.052 32.7191 102.595 33.3459 104.267C33.9727 105.938 34.5577 111.328 42.8728 111.245C51.6475 111.161 55.6588 110.618 57.2048 101.216C57.2048 101.216 57.5809 98.2495 59.7119 97.8735C61.8429 98.166 62.3861 101.091 62.3861 101.091C64.4335 110.367 68.4866 110.701 77.2196 110.325C85.5347 109.949 85.8272 104.517 86.3704 102.846C86.9136 101.133 88.3342 100.548 88.3342 100.548C88.5014 95.9514 88.4596 91.355 88.4596 91.355C85.5347 90.5611 77.5121 90.185 72.4979 90.6029C67.9852 90.979 65.0603 91.7729 59.5448 92.8593C53.9874 92.1071 51.0207 91.4804 46.4662 91.3132C41.4103 91.1461 33.4713 91.94 30.5881 92.9011L30.6299 92.8593ZM63.9321 97.2049C64.0157 96.5781 64.2246 95.9514 64.6425 95.45C66.3138 93.5278 68.8627 93.1518 71.2026 92.8593C74.4618 92.4832 78.2642 92.3996 81.5652 92.9429C83.6126 93.2771 84.9079 94.7814 85.1586 96.7871C85.4929 99.1688 85.0333 102.177 83.9469 104.35C83.3619 105.478 82.4844 106.481 81.3562 107.15C80.2281 107.777 78.9745 108.111 77.721 108.278C75.2557 108.57 72.4562 108.738 70.0327 108.111C69.4059 107.944 68.8209 107.735 68.2777 107.4C65.9796 106.063 65.0185 103.473 64.3918 101.049C64.2246 100.422 64.0993 99.7956 63.9739 99.1688C63.8903 98.542 63.8486 97.8735 63.9321 97.2467V97.2049ZM34.2234 98.166C34.3905 96.1603 35.6023 94.5725 37.6079 94.1128C40.8671 93.4025 44.6695 93.2771 47.9287 93.4861C50.2686 93.6532 52.8592 93.8621 54.6142 95.7007C55.0738 96.1603 55.2827 96.7871 55.4081 97.4138C55.5334 98.0406 55.5334 98.7092 55.4499 99.336C55.4081 99.9627 55.2827 100.59 55.1574 101.258C54.6142 103.723 53.8203 106.398 51.6057 107.818C51.0625 108.153 50.4775 108.445 49.8925 108.612C47.5108 109.364 44.7113 109.364 42.246 109.197C40.9507 109.114 39.6971 108.863 38.569 108.278C37.4408 107.693 36.4797 106.774 35.853 105.646C34.6412 103.556 34.0562 100.59 34.2234 98.166Z" fill="#08133D"/>
<path d="M55.9952 107.943C56.7473 108.319 58.4187 108.945 60.2572 109.071C62.6389 109.238 64.1431 108.653 64.561 108.235C64.7699 108.026 64.8117 107.65 64.8117 107.274C64.8535 107.274 64.937 107.358 64.9788 107.399C66.3995 108.444 65.1042 110.45 63.9342 111.285C62.7642 112.079 59.3797 112.581 57.2487 111.703C55.3684 110.951 54.9505 108.945 55.9952 107.943Z" fill="#BD2A1D"/>
<path d="M64.5619 108.235C64.1441 108.653 62.6398 109.238 60.2581 109.071C58.4196 108.945 56.7482 108.318 55.9961 107.942C56.1632 107.775 56.3304 107.65 56.5811 107.566C57.7928 107.065 59.9656 107.859 61.4699 107.733C62.8905 107.608 63.6426 106.522 64.8126 107.274C64.8126 107.65 64.8126 108.026 64.5619 108.235Z" fill="#F6F6F7"/>
<path d="M90.5126 109.071L90.2619 107.4C90.2619 107.4 71.1246 123.863 39.8698 111.787C33.6022 109.698 28.0866 106.314 28.0866 106.314L27.0002 107.024C27.0002 107.024 37.5299 117.052 58.1714 123.529C58.8818 123.738 64.3137 116.384 64.3137 116.384L70.9575 122.819L90.5126 109.113V109.071Z" fill="#F2F2F2"/>
<path d="M51.7725 143.794L58.7923 121.314C59.2519 119.893 57.5388 119.183 57.5388 119.183L52.9007 117.72L48.2626 116.258C48.2626 116.258 46.4659 115.84 46.0481 117.303L39.0283 139.783C39.0283 139.783 38.5269 141.204 40.1982 141.747L44.9617 143.251L49.7251 144.755C51.3965 145.257 51.8143 143.836 51.8143 143.836L51.7725 143.794Z" fill="#7589A1"/>
<path d="M46.1771 142.04C46.0517 142.5 45.5503 142.709 45.1325 142.583C44.6729 142.458 44.4639 141.956 44.5893 141.539C44.7146 141.079 45.2161 140.87 45.6339 140.995C46.0935 141.121 46.3025 141.622 46.1771 142.04Z" fill="#8CA6C2"/>
<path d="M54.2356 120.312L50.3079 119.1L50.3914 118.849L54.3192 120.061L54.2356 120.312Z" fill="#8CA6C2"/>
<path d="M56.7867 125.577L56.8285 125.368L56.912 125.117L57.7059 122.568L46.1734 118.975L41.8696 132.889L56.5777 126.162L56.7867 125.577Z" fill="white"/>
<path d="M41.8704 132.888L41.2437 134.81L41.1601 135.061L41.0765 135.312L40.1155 138.446L51.648 142.039L56.5785 126.161L41.8704 132.888Z" fill="#EBEBEB"/>
<path d="M36.6432 139.91C36.1418 137.779 37.4371 134.478 38.6488 133.224C39.5263 132.347 42.4094 131.845 41.2813 133.6C42.7019 133.266 48.1757 134.77 45.209 136.066C45.5851 136.818 45.3761 137.403 44.624 137.695C45.8358 139.659 40.1531 141.915 38.8995 141.832C37.646 141.748 36.9357 140.954 36.685 139.952L36.6432 139.91Z" fill="#FBD5BD"/>
<path d="M45.0881 136.231C43.9182 136.106 42.4975 135.939 41.4529 136.524C42.3304 136.816 44.7539 137.778 45.0046 136.44V136.231H45.0881Z" fill="#F6A9A7"/>
<path d="M44.0343 138.738C42.9061 138.697 41.6108 138.738 40.5244 138.655C41.2347 139.574 43.0315 139.699 43.8672 138.947L44.0343 138.738Z" fill="#F6A9A7"/>
<path d="M83.9477 136.65C83.697 136.358 83.2792 136.024 82.9449 136.232C82.736 136.358 82.6942 136.567 82.6942 136.817C82.6524 137.486 82.6524 138.155 82.6942 138.781C82.6942 138.698 86.1623 139.784 86.4548 139.91C85.9951 138.781 84.6998 137.653 83.9059 136.692L83.9477 136.65Z" fill="#FCDDD1"/>
<path d="M83.9904 144.339C82.4026 144.297 80.773 144.255 79.1434 144.297C78.642 144.297 78.1406 144.297 77.6392 144.297C77.3049 144.297 76.511 144.506 76.2185 144.38C75.8006 144.171 75.926 143.879 76.2185 143.586C76.5945 143.21 77.2213 143.169 77.7645 143.085C77.9316 143.085 78.8509 143.001 78.8509 142.751C78.8509 142.375 78.057 142.458 77.472 142.458C77.3049 142.458 76.4274 142.625 76.302 142.667C76.0096 142.793 75.7171 142.834 75.4246 142.834C75.2574 142.834 75.0485 142.834 74.9649 142.667C74.9649 142.542 74.9649 142.416 75.0485 142.291C75.2157 142.04 75.4246 141.873 75.6335 141.706C76.6363 140.912 77.8063 141.205 78.9345 140.954C78.9345 140.954 79.018 140.954 79.018 140.912C79.1434 140.62 77.8063 140.62 77.6809 140.578C77.5138 140.578 77.3467 140.578 77.1795 140.578C77.0124 140.62 76.4692 140.703 76.3438 140.787C76.0096 140.996 75.5082 140.996 75.1739 141.038C75.0485 141.038 74.8814 141.038 74.8396 140.912C74.8396 140.87 74.8396 140.787 74.8396 140.703C74.965 140.285 75.5499 139.993 75.8424 139.7C76.6781 138.99 77.096 139.074 77.9316 138.907C78.5166 138.823 79.4359 138.948 79.9373 138.656C79.1016 138.113 77.8063 138.196 76.887 138.53C76.7199 138.572 76.4692 138.656 76.3438 138.489C75.8006 137.611 78.1406 136.901 78.4748 136.943C79.603 137.068 80.773 137.193 81.9012 137.444C83.1129 137.737 84.0322 138.322 85.1604 138.865C86.0378 139.283 86.9571 139.909 87.1242 141.079C87.2496 142.04 86.5392 143.586 85.7035 143.962C85.2021 144.171 84.5336 144.213 83.9068 144.171L83.9904 144.339Z" fill="#FCDDD1"/>
</g>
<path d="M207.886 211.647C239.562 211.647 265.24 185.969 265.24 154.293C265.24 122.617 239.562 96.9379 207.886 96.9379C176.21 96.9379 150.531 122.617 150.531 154.293C150.531 185.969 176.21 211.647 207.886 211.647Z" fill="#909DFF"/>
<mask id="mask1_787_1927" style="mask-type:alpha" maskUnits="userSpaceOnUse" x="150" y="96" width="116" height="116">
<path d="M207.886 211.648C239.562 211.648 265.24 185.969 265.24 154.293C265.24 122.617 239.562 96.938 207.886 96.938C176.21 96.938 150.531 122.617 150.531 154.293C150.531 185.969 176.21 211.648 207.886 211.648Z" fill="#A33EDD"/>
</mask>
<g mask="url(#mask1_787_1927)">
<path d="M206.096 194.033L194.711 232.119L190.681 228.503L195.517 194.179L206.096 194.033Z" fill="#4AD5C2"/>
<path d="M225.921 193.026C225.921 193.026 233.768 224.249 242.366 226.958C242.769 227.081 241.571 231.817 236.858 228.122C225.731 219.401 217.917 198.053 217.917 198.053L225.921 193.026Z" fill="#4AD5C2"/>
<path d="M165.389 172.438C160.799 173.726 155.717 173.312 151.44 171.196C156.131 183.499 165.289 193.295 178.263 197.336C189.727 200.907 202.221 198.299 213.964 195.769C220.703 194.313 231.518 190.149 235.872 184.451C238.917 180.476 241.537 176.267 243.642 171.711C249.765 158.478 251.097 141.462 242.198 128.901C233.813 117.09 218.621 112.534 204.683 114.012C191.182 115.445 179.831 123.886 175.588 136.939C174.188 141.26 173.696 145.817 172.655 150.25C171.625 154.672 169.946 159.139 166.665 162.284C163.397 165.441 158.213 166.942 154.15 164.893C157.922 168.789 163.296 171.095 168.725 171.14C167.651 171.677 166.531 172.102 165.378 172.427L165.389 172.438Z" fill="url(#paint2_linear_787_1927)"/>
<path d="M155.753 168.822C144.749 166.191 136.397 159.139 127.822 145.246C127.62 144.91 127.296 144.193 127.296 144.193L133.027 140.992C133.027 140.992 133.319 141.54 133.475 141.82C139.588 152.914 147.536 159.396 156.067 161.456C171.594 165.173 186.685 152.142 186.841 152.019L189.73 155.567L187.009 152.366L192.472 158.758C191.722 159.396 175.501 173.558 155.775 168.845L155.753 168.822Z" fill="#A75CD9"/>
<path d="M237.25 199.34L193.198 204.132L193.344 208.845L230.667 208.375L234.037 204.042L237.25 199.34Z" fill="#4AD5C2"/>
<path d="M178.805 145.246C190.806 124.479 207.038 123.214 223.64 130.804C244.452 140.32 239.929 162.273 239.929 162.273C240.03 160.18 243.232 159.239 243.635 147.44C243.892 139.917 240.399 134.163 234.746 129.136C231.096 125.934 226.842 123.494 222.23 121.949C212.311 118.613 201.497 119.206 192.004 123.595C182.074 128.252 174.562 137.935 177.428 149.836C177.708 150.955 178.413 148.022 178.077 149.086C178.077 149.086 178.838 145.268 178.805 145.246Z" fill="#451DBD"/>
<path d="M204.788 168.52C193.112 167.423 180.238 160.695 178.827 158.019C177.562 155.612 178.122 150.989 178.682 148.436C180.876 138.473 195.843 131.174 208.919 131.644C224.413 132.26 237.735 142.929 238.496 158.456C238.53 159.34 238.53 160.102 238.496 161.008C239.481 168.072 221.166 170.088 204.788 168.531V168.52Z" fill="#FCDBC7"/>
<path d="M223.524 153.675C223.591 154.146 223.468 154.627 223.188 155.008C222.908 155.388 222.482 155.646 222.012 155.713C221.665 155.769 221.296 155.713 220.982 155.556C220.658 155.399 220.389 155.164 220.21 154.851C220.031 154.549 219.941 154.19 219.952 153.832C219.975 153.474 220.098 153.138 220.311 152.847C220.523 152.556 220.814 152.343 221.15 152.22C221.486 152.097 221.855 152.086 222.191 152.175C222.538 152.265 222.852 152.455 223.087 152.713C223.322 152.981 223.479 153.306 223.535 153.664L223.524 153.675Z" fill="#426932"/>
<path d="M193.142 150.832C193.175 151.056 193.175 151.291 193.119 151.504C193.063 151.728 192.974 151.929 192.828 152.12C192.683 152.31 192.526 152.455 192.324 152.579C192.123 152.69 191.91 152.769 191.686 152.802C191.227 152.892 190.746 152.802 190.354 152.567C189.951 152.321 189.671 151.929 189.559 151.47C189.526 151.246 189.526 151.011 189.582 150.787C189.638 150.563 189.727 150.351 189.873 150.172C190.007 149.992 190.175 149.836 190.377 149.713C190.578 149.601 190.791 149.522 191.015 149.489C191.474 149.388 191.955 149.478 192.347 149.724C192.75 149.97 193.03 150.362 193.142 150.821V150.832Z" fill="#426932"/>
<path d="M214.158 148.985C196.761 146.119 198.295 135.428 198.295 135.428L195.876 136.402C196.291 149.847 218.904 150.272 218.904 150.272C218.904 150.272 231.566 151.851 214.158 148.985Z" fill="#935123"/>
<path d="M177.784 141.808C174.694 149.588 178.399 157.559 178.444 157.548C179.396 158.208 192.572 144.315 196.782 137.834C203.465 145.357 216.193 149.152 225.821 152.096C228.463 152.902 231.127 153.831 233.187 155.667C234.43 156.82 235.426 158.22 236.12 159.764C236.814 161.309 237.184 162.989 237.218 164.69C237.285 166.459 238.639 164.881 239.221 163.839C240.957 160.727 241.595 158.208 241.807 153.686C242.222 144.987 238.572 138.27 231.866 132.527C215.824 118.802 185.419 122.519 177.784 141.808Z" fill="url(#paint3_linear_787_1927)"/>
<path d="M178.52 161.143L178.419 157.594L195.257 164.95C209.138 167.166 216.516 168.006 230.397 164.826C235.558 163.651 242.533 160.203 242.533 160.203L237.282 202.71L188.372 206.517L178.52 161.143Z" fill="#A75CD9"/>
<path d="M204.673 183.208L209.117 182.447C208.434 179.67 207.818 176.122 207.975 167.893L203.486 167.815C203.329 176.066 203.9 179.939 204.673 183.208Z" fill="#451DBD"/>
<path d="M204.653 172.024C204.608 171.431 205.056 170.904 205.661 170.86C206.265 170.815 206.78 171.263 206.825 171.867C206.87 172.472 206.422 172.987 205.818 173.031C205.213 173.076 204.698 172.628 204.653 172.024Z" fill="#7589A1"/>
<path d="M204.919 176.715C204.875 176.122 205.322 175.596 205.927 175.551C206.531 175.506 207.046 175.954 207.091 176.559C207.136 177.163 206.688 177.678 206.084 177.723C205.479 177.768 204.964 177.32 204.919 176.715Z" fill="#7589A1"/>
<path d="M200.804 156.787C201.431 157.268 202.897 158.175 204.588 158.623C206.782 159.205 208.316 158.937 208.775 158.623C208.987 158.478 209.11 158.119 209.166 157.783C209.211 157.828 209.267 157.884 209.312 157.94C210.431 159.194 208.853 160.828 207.622 161.388C206.39 161.937 203.132 161.758 201.285 160.537C199.684 159.474 199.64 157.526 200.793 156.787H200.804Z" fill="#BD2A1D"/>
<path d="M208.771 158.635C208.312 158.938 206.779 159.206 204.584 158.635C202.894 158.187 201.427 157.281 200.801 156.799C200.98 156.687 201.17 156.609 201.405 156.553C202.625 156.296 204.517 157.46 205.961 157.617C207.327 157.773 208.2 156.889 209.174 157.796C209.118 158.143 208.995 158.501 208.783 158.635H208.771Z" fill="#F6F6F7"/>
<path d="M238.775 190.786C235.988 192.712 222.733 191.313 214.113 186.913C214.124 188.1 214.281 189.286 214.326 190.484C214.37 191.682 213.632 192.354 213.71 193.518C214.393 193.585 215.053 193.932 215.703 194.156C217.46 194.761 219.229 195.298 221.009 195.824C224.826 196.966 228.588 198.354 232.484 199.149C233.648 199.384 236.872 199.955 237.768 199.798" fill="#8F53AD"/>
<path d="M237.44 201.399C236.545 201.556 229.928 202.698 221.689 198.981C219.998 198.22 214.547 195.141 213.595 193.91C213.505 192.746 213.595 192.331 213.55 191.167C213.505 190.003 214.121 189.958 214.11 188.783C221.185 194.503 235.515 195.959 238.313 194.033L237.451 201.411L237.44 201.399Z" fill="#8F53AD"/>
<path d="M234.422 201.176C233.895 201.176 233.392 201.165 232.888 201.131C225.678 200.672 218.637 197.213 212.144 192.601L215.021 188.313C220.428 192.153 227.414 194.056 233.302 194.425C237.467 194.683 243.12 193.384 245.348 190.44C248.74 185.973 249.479 182.044 247.833 177.286C245.975 171.946 236.526 167.042 233.884 166.315C233.884 166.315 238.832 160.661 240.4 161.479C245.27 164.009 252.065 168.979 254.181 175.08C256.554 181.932 255.423 188.279 250.71 194.504C247.15 199.194 240.232 201.187 234.422 201.187V201.176Z" fill="#A75CD9"/>
<path d="M213.548 184.562C213.403 184.159 213.134 183.666 212.832 183.745C212.653 183.789 212.574 184.025 212.518 184.237C212.35 184.898 212.227 185.592 212.171 186.308C212.171 186.208 214.791 188.67 215.015 188.917C214.858 187.54 214.03 185.905 213.559 184.562H213.548Z" fill="#FCDDD1"/>
<path d="M212.14 192.6C210.852 191.929 209.542 191.257 208.233 190.686C207.83 190.507 207.427 190.328 207.024 190.149C206.732 190.026 206.083 189.958 205.859 189.69C205.557 189.32 205.736 189.04 205.994 188.861C206.374 188.604 206.9 188.839 207.326 188.928C207.471 188.962 208.221 189.275 208.277 189.007C208.367 188.604 207.673 188.369 207.203 188.178C207.068 188.122 206.341 187.932 206.206 187.954C205.96 187.988 205.714 187.898 205.467 187.809C205.322 187.753 205.154 187.652 205.143 187.439C205.143 187.305 205.21 187.182 205.277 187.092C205.445 186.891 205.647 186.779 205.848 186.689C206.811 186.253 207.706 187.014 208.669 187.193C208.703 187.193 208.736 187.193 208.759 187.171C208.927 186.936 207.841 186.387 207.74 186.331C207.617 186.253 207.483 186.174 207.348 186.174C207.214 186.174 206.766 186.04 206.632 186.085C206.329 186.186 205.926 185.962 205.624 185.906C205.523 185.883 205.389 185.816 205.378 185.671C205.378 185.603 205.4 185.536 205.423 185.469C205.602 185.089 206.139 184.988 206.43 184.82C207.225 184.394 207.561 184.63 208.277 184.797C208.77 184.921 209.498 185.424 209.945 185.312C209.363 184.428 208.311 184.025 207.494 183.991C207.337 183.991 207.136 183.947 207.08 183.734C206.8 182.592 208.826 182.738 209.106 182.928C210.001 183.499 210.931 184.059 211.781 184.775C212.699 185.548 213.36 186.521 214.132 187.507C214.748 188.29 215.397 189.298 215.308 190.585C215.241 191.626 214.345 192.981 213.617 193.037C213.17 193.071 212.643 192.847 212.128 192.578L212.14 192.6Z" fill="#FCDDD1"/>
<path d="M199.75 174.666L206.21 168.386L212.188 175.349L242.862 160.572L241.832 159.464C241.832 159.464 239.459 161.434 232.663 163.337C201.609 171.778 178.659 157.594 178.659 157.594L178.536 158.77L199.75 174.666Z" fill="#F2F2F2"/>
</g>
<path d="M507.702 211.647C539.378 211.647 565.056 185.969 565.056 154.293C565.056 122.616 539.378 96.9379 507.702 96.9379C476.026 96.9379 450.347 122.616 450.347 154.293C450.347 185.969 476.026 211.647 507.702 211.647Z" fill="#D21ED2"/>
<mask id="mask2_787_1927" style="mask-type:alpha" maskUnits="userSpaceOnUse" x="450" y="96" width="116" height="116">
<path d="M507.697 211.648C539.373 211.648 565.052 185.969 565.052 154.293C565.052 122.617 539.373 96.9381 507.697 96.9381C476.021 96.9381 450.343 122.617 450.343 154.293C450.343 185.969 476.021 211.648 507.697 211.648Z" fill="#A33EDD"/>
</mask>
<g mask="url(#mask2_787_1927)">
<path d="M454.178 170.059C468.229 175.208 483.44 170.938 484.207 170.716L481.981 162.989C481.786 163.039 462.919 168.281 450.577 159.116C443.307 153.718 439.527 144.19 439.323 130.774L432.845 130.168C433.092 146.231 436.416 158.638 445.825 165.592C448.476 167.549 451.297 168.993 454.178 170.047L454.178 170.059Z" fill="#1AD58E"/>
<path d="M502.756 208.759L506.682 237.704L502.284 234.764L493.451 209.051L502.756 208.759Z" fill="#AF714A"/>
<path d="M513.69 206.989L514.825 236.721L519.333 234.746L522.914 208.234L513.69 206.989Z" fill="#AF714A"/>
<path d="M534.443 203.327L488.407 205.502L493.862 211.892L522.48 213.589L531.015 207.787L534.431 203.327L534.443 203.327Z" fill="#4AAA50"/>
<path d="M504.789 171.347C493.029 169.95 480.527 165.09 479.068 161.922C477.756 159.084 477.686 150.449 478.215 147.459C480.272 135.758 495.216 127.317 508.377 128.004C523.979 128.88 537.536 141.568 538.533 159.835C538.584 160.884 538.587 161.762 538.577 162.836C539.671 171.151 521.284 173.343 504.79 171.36L504.789 171.347Z" fill="#AF714A"/>
<path d="M523.902 156.908C523.964 157.372 523.856 157.848 523.576 158.226C523.297 158.605 522.883 158.862 522.419 158.924C522.078 158.974 521.712 158.926 521.394 158.781C521.077 158.635 520.808 158.392 520.624 158.087C520.441 157.783 520.354 157.442 520.378 157.088C520.389 156.734 520.51 156.404 520.729 156.111C520.936 155.83 521.228 155.61 521.557 155.499C521.886 155.377 522.252 155.363 522.581 155.448C522.923 155.533 523.228 155.715 523.461 155.982C523.693 156.238 523.853 156.567 523.902 156.921L523.902 156.908Z" fill="#56182F"/>
<path d="M493.951 154.178C493.988 154.398 493.977 154.629 493.928 154.849C493.88 155.069 493.783 155.276 493.649 155.459C493.516 155.643 493.345 155.79 493.15 155.912C492.955 156.022 492.748 156.096 492.517 156.133C492.066 156.232 491.59 156.135 491.199 155.905C490.808 155.662 490.527 155.272 490.403 154.821C490.366 154.602 490.366 154.37 490.426 154.15C490.474 153.931 490.571 153.723 490.705 153.54C490.839 153.356 491.009 153.21 491.204 153.087C491.399 152.977 491.618 152.903 491.838 152.866C492.289 152.767 492.765 152.864 493.156 153.095C493.546 153.338 493.828 153.727 493.951 154.178Z" fill="#56182F"/>
<path d="M479.56 164.373L479.289 163.289L496.513 169.161C510.203 171.31 517.032 171.037 530.709 167.869C541.952 162.121 541.954 162.828 541.954 162.828L536.012 191.541L540.049 216.169C540.049 216.169 527.581 219.846 510.809 219.071C491.062 218.717 480.24 217.122 480.24 217.122L484.807 194.669L479.56 164.373Z" fill="#1AD58E"/>
<path d="M503.164 185.804L507.603 185.623C507.291 182.818 507.136 179.269 508.348 171.253L503.968 170.605C502.756 178.646 502.826 182.512 503.164 185.804Z" fill="#0C97E8"/>
<path d="M504.577 174.873C504.613 174.288 505.111 173.835 505.709 173.87C506.307 173.905 506.747 174.404 506.712 175.002C506.677 175.6 506.178 176.04 505.58 176.005C504.983 175.97 504.542 175.471 504.577 174.873Z" fill="#FFB300"/>
<path d="M504.232 179.497C504.267 178.911 504.766 178.459 505.364 178.494C505.961 178.529 506.402 179.028 506.367 179.626C506.331 180.211 505.833 180.664 505.235 180.629C504.637 180.594 504.197 180.095 504.232 179.497Z" fill="#FFB300"/>
<path d="M501.795 160.22C502.723 160.889 504.897 162.152 507.399 162.792C510.645 163.614 512.889 163.254 513.571 162.838C513.887 162.642 514.057 162.142 514.141 161.666C514.214 161.726 514.288 161.799 514.361 161.872C516.036 163.625 513.725 165.874 511.934 166.635C510.13 167.396 505.324 167.127 502.6 165.414C500.23 163.932 500.138 161.225 501.819 160.22L501.795 160.22Z" fill="#A60D00"/>
<path d="M513.561 162.837C512.88 163.254 510.636 163.613 507.39 162.792C504.888 162.152 502.726 160.901 501.785 160.22C502.041 160.073 502.334 159.95 502.663 159.889C504.455 159.543 507.264 161.17 509.374 161.396C511.387 161.623 512.665 160.4 514.107 161.665C514.023 162.141 513.854 162.629 513.537 162.838L513.561 162.837Z" fill="#F6F6F7"/>
<path d="M527.44 123.641C536.551 128.424 542.796 138.422 543.863 145.908C544.447 150.029 543.823 154.275 542.381 158.193C541.945 159.377 538.986 166.166 536.785 163.83C536.21 163.221 537.109 161.475 537.18 160.731C537.68 155.668 535.044 160.041 532.698 158.437C529.766 156.419 535.157 151.515 534.09 149.237C532.57 145.972 528.889 151.848 526.691 150.987C523.578 149.763 527.615 144.923 525.976 143.11C523.53 140.409 521.168 146.94 518.679 146.531C514.921 145.918 518.666 141.079 517.235 139.424C514.862 136.674 512.91 141.508 511.657 142.78C507.119 147.365 507.323 136.4 507.39 133.68C507.535 128.422 508.8 131.639 507.784 130.239C506.866 128.961 506.867 129.473 506.566 130.852C506.264 132.231 506.132 133.097 506.063 134.598C506.005 135.842 505.063 144.406 502.793 144.18C500.768 143.978 499.992 140.577 498.684 139.373C496.838 137.657 495.256 139.101 495.371 141.515C495.436 143.015 496.919 145.792 494.725 146.383C492.531 146.974 491.534 143.415 489.947 142.663C488.604 142.02 487.434 142.718 487.206 144.158C487.098 144.841 487.441 145.243 487.759 145.864C488.188 146.692 488.861 147.593 489.059 148.532C489.256 149.446 488.527 150.35 487.6 150.328C486.941 150.305 486.123 150.039 485.549 149.736C485.036 149.456 484.437 148.811 483.754 148.935C482.023 149.257 482.504 151.158 482.774 151.962C483.229 153.315 484.818 155.019 483.492 156.193C482.993 156.633 482.261 156.574 481.639 156.478C480.907 156.358 480.625 155.895 479.978 155.677C478.721 155.253 478.431 156.596 478.653 157.559C478.801 158.205 481.433 162.162 479.36 162.179C477.018 162.197 474.759 151.397 474.719 149.738C473.998 124.578 502.759 110.688 527.416 123.653L527.44 123.641Z" fill="#1D1D1B"/>
<path d="M498.618 177.156L506.543 171.087L514.353 177.922L541.953 162.828L541.146 161.72C541.146 161.72 539.31 164.151 532.619 166.034C502.026 174.428 478.822 161.972 478.822 161.972L478.349 162.876L498.618 177.144L498.618 177.156Z" fill="#F2F2F2"/>
<path d="M541.611 201.054C548.282 200.805 554.476 200.009 561.462 194.174C566.051 190.345 567.784 186.011 567.48 181.316C566.795 170.744 553.267 165.057 543.314 164.728C542.582 164.706 539.301 164.616 537.948 165.071C536.011 165.734 535.666 169.37 535.666 169.37C535.558 170.187 533.487 170.912 543.086 171.388C558.529 172.155 565.434 182.846 556.414 189.747C551.374 193.602 545.413 194.69 540.251 193.788L539.908 197.862C539.64 198.241 539.623 201.132 541.611 201.066L541.611 201.054Z" fill="#1AD58E"/>
<path d="M538.637 193.255C538.258 193.072 537.733 192.903 537.563 193.172C537.466 193.331 537.564 193.55 537.674 193.733C538.005 194.317 538.397 194.889 538.849 195.437C538.788 195.364 542.325 195.307 542.654 195.33C541.603 194.467 539.894 193.873 538.637 193.255Z" fill="#AF714A"/>
<path d="M543.154 199.903C541.789 200.309 540.4 200.727 539.084 201.23C538.682 201.39 538.268 201.525 537.866 201.684C537.573 201.795 537.074 202.199 536.72 202.163C536.245 202.115 536.183 201.798 536.243 201.481C536.339 201.042 536.863 200.845 537.229 200.613C537.351 200.539 538.094 200.245 537.959 200.025C537.739 199.684 537.093 199.991 536.63 200.175C536.496 200.224 535.851 200.592 535.778 200.702C535.632 200.897 535.388 200.995 535.157 201.106C535.023 201.167 534.828 201.216 534.681 201.07C534.583 200.973 534.546 200.839 534.534 200.729C534.521 200.473 534.581 200.253 534.666 200.046C535.042 199.069 536.2 198.993 537.016 198.467C537.04 198.454 537.065 198.43 537.065 198.393C537.015 198.113 535.87 198.469 535.772 198.494C535.626 198.531 535.48 198.568 535.382 198.654C535.285 198.739 534.871 198.96 534.81 199.082C534.664 199.363 534.226 199.486 533.97 199.645C533.885 199.706 533.751 199.743 533.628 199.646C533.579 199.597 533.543 199.536 533.53 199.475C533.395 199.085 533.699 198.646 533.808 198.328C534.087 197.486 534.477 197.412 535.098 197.057C535.524 196.799 536.39 196.663 536.633 196.272C535.62 196.043 534.596 196.485 533.988 197.023C533.866 197.133 533.708 197.243 533.512 197.121C532.535 196.514 534.069 195.217 534.398 195.156C535.434 194.946 536.47 194.711 537.555 194.636C538.738 194.559 539.861 194.788 541.093 194.956C542.069 195.088 543.216 195.353 544.048 196.327C544.721 197.106 545.005 198.679 544.531 199.229C544.239 199.559 543.703 199.767 543.155 199.927L543.154 199.903Z" fill="#AF714A"/>
<path d="M476.656 158.527C476.656 158.527 471.164 132.61 506.815 133.034C542.467 133.458 541.146 161.709 541.146 161.709C541.146 161.709 542.856 157.789 541.879 152.23C538.861 135.04 522.441 128.751 508.499 128.505C481.727 128.047 473.461 144.228 475.647 154.968L476.668 158.527L476.656 158.527Z" fill="#FFB300"/>
<path d="M544.907 133.939C544.907 133.939 541.202 139.876 534.611 133.099C527.372 125.64 533.813 120.892 533.813 120.892C533.813 120.892 532.436 121.481 531.561 122.739C529.057 126.404 530.447 130.865 532.942 133.603C537.711 138.86 542.659 137.213 544.385 134.794L544.907 133.939Z" fill="#7BE708"/>
<path d="M474.303 130.736C474.303 130.736 477.867 136.765 484.62 130.149C492.054 122.874 485.724 117.975 485.724 117.975C485.724 117.975 487.091 118.593 487.924 119.884C490.336 123.61 488.822 128.029 486.268 130.706C481.365 135.841 476.458 134.073 474.793 131.613L474.303 130.736Z" fill="#7BE708"/>
<path d="M529.94 124.208C528.55 124.346 527.732 123.921 527.155 122.654C526.812 121.898 526.689 121.447 526.955 120.617C527.004 120.471 527.817 119.078 527.915 119.151C526.497 118.045 526.751 117.154 527.712 116.005C528.575 114.966 528.529 115.954 528.135 114.406C527.938 113.651 527.766 112.993 528.02 112.211C528.407 111.003 529.601 110.317 530.845 110.485C531.089 110.521 531.321 110.581 531.541 110.678C531.577 110.654 531.614 110.629 531.65 110.605C531.209 109.715 531.279 108.544 531.765 107.665C532.421 106.517 533.603 106.05 534.846 105.925C534.49 104.877 534.706 103.596 535.534 102.728C536.774 101.408 538.617 101.659 540.009 102.595C540.397 101.557 541.224 100.702 542.358 100.43C543.345 100.184 544.322 100.426 545.091 100.985C545.528 100.13 546.295 99.445 547.295 99.2474C548.453 99.0128 549.515 99.4614 550.236 100.252C551.136 99.2256 552.623 98.6731 554.014 98.9624C555.54 99.2757 556.628 100.395 557.253 101.747C558.019 100.684 559.127 100.035 560.52 100.849C561.997 101.711 561.77 103.517 562.176 104.979C562.846 104.648 563.737 104.658 564.494 105.059C565.214 105.448 565.557 106.032 565.681 106.69C567.145 106.87 568.55 107.647 569.492 108.852C570.238 109.814 570.693 111.142 570.415 112.35C571.345 113.47 571.8 115.066 571.169 116.288C571.267 116.531 571.341 116.775 571.378 117.043C571.552 118.214 571.091 119.288 570.312 120.046C570.716 120.582 570.998 121.203 571.134 121.801C571.614 123.824 570.509 125.79 568.78 126.648C569.612 127.671 569.944 129.073 569.374 130.391C568.841 131.6 567.684 132.359 566.428 132.521C566.625 133.216 566.615 133.984 566.421 134.68C566.034 136.01 564.83 137.233 563.403 137.175C563.123 137.517 562.807 137.811 562.454 138.068C562.357 138.617 562.09 139.118 561.628 139.509C561.056 139.986 560.3 140.147 559.592 140.039C559.461 141.222 558.805 142.297 557.488 142.373C556.83 142.412 556.207 142.133 555.754 141.683C555.304 141.964 554.78 142.112 554.231 142.101C552.772 144.093 549.553 144.137 547.853 142.471C547.05 143.204 545.807 143.464 544.708 143.198C542.682 142.703 542.47 140.789 541.163 139.694C539.855 138.6 538.721 138.761 539.325 136.613C536.593 136.376 534.677 135.82 536.047 132.596C533.888 132.577 531.423 131.998 533.21 129.566C531.713 130.973 530.914 128.401 531.374 127.156C530.864 128.157 529.679 127.099 529.47 126.502C529.433 126.38 529.432 126.075 529.468 125.734C529.54 125.051 529.745 124.208 529.94 124.184L529.94 124.208Z" fill="#1D1D1B"/>
<path d="M472.84 140.778C471.1 142.405 467.88 142.279 466.484 140.245C465.936 140.247 465.423 140.077 464.971 139.786C464.509 140.226 463.875 140.496 463.216 140.436C461.899 140.318 461.262 139.221 461.161 138.051C460.454 138.15 459.71 137.969 459.147 137.47C458.707 137.081 458.45 136.557 458.363 136.009C458.021 135.741 457.703 135.437 457.434 135.096C456.007 135.124 454.833 133.871 454.488 132.53C454.304 131.823 454.314 131.067 454.532 130.371C453.287 130.167 452.139 129.389 451.636 128.159C451.096 126.818 451.458 125.427 452.322 124.425C450.6 123.527 449.558 121.529 450.09 119.515C450.247 118.917 450.55 118.307 450.964 117.781C450.205 117.002 449.776 115.918 449.98 114.759C450.028 114.49 450.101 114.246 450.21 114.014C449.609 112.772 450.106 111.185 451.066 110.097C450.819 108.878 451.304 107.56 452.07 106.619C453.043 105.445 454.468 104.698 455.931 104.56C456.064 103.901 456.428 103.315 457.159 102.959C457.927 102.579 458.805 102.589 459.476 102.941C459.912 101.477 459.737 99.6719 461.235 98.851C462.648 98.0669 463.747 98.7472 464.481 99.8308C465.149 98.4876 466.256 97.3993 467.792 97.1272C469.182 96.8798 470.647 97.4616 471.528 98.5083C472.258 97.7381 473.342 97.3086 474.489 97.574C475.478 97.8033 476.236 98.4966 476.652 99.3616C477.432 98.823 478.419 98.601 479.408 98.8669C480.53 99.1812 481.338 100.057 481.694 101.093C483.094 100.199 484.948 99.9874 486.158 101.338C486.966 102.227 487.139 103.507 486.764 104.557C488.008 104.724 489.181 105.209 489.805 106.379C490.283 107.268 490.311 108.438 489.849 109.318C489.886 109.342 489.923 109.366 489.959 109.391C490.179 109.305 490.41 109.243 490.666 109.218C491.91 109.093 493.083 109.798 493.439 111.016C493.784 112.174 493.372 113.346 492.618 114.238C493.267 115.359 493.502 116.675 493.322 117.932C493.298 118.103 494.179 119.211 494.253 119.564C494.414 120.296 494.306 121.04 493.954 121.699C493.067 123.336 492.151 122.667 490.676 122.854C490.934 123.792 490.9 124.963 490.073 125.648C489.196 126.37 488.463 125.823 487.548 125.667C487.82 127.24 487.459 128.96 485.494 128.514C485.498 130.099 484.732 131.162 483.059 130.276C482.954 132.203 482.822 133.033 480.663 132.965C481.236 132.988 480.862 134.672 480.705 134.929C480.255 135.637 478.998 135.445 478.646 135.971C478.318 136.447 478.845 137.702 478.737 138.349C478.485 139.764 477.415 141.255 475.977 141.575C474.867 141.81 473.635 141.52 472.852 140.778L472.84 140.778Z" fill="#1D1D1B"/>
</g>
<path d="M357.582 164.607C389.258 164.607 414.936 138.929 414.936 107.253C414.936 75.5765 389.258 49.8979 357.582 49.8979C325.906 49.8979 300.227 75.5765 300.227 107.253C300.227 138.929 325.906 164.607 357.582 164.607Z" fill="#4316F8"/>
<mask id="mask3_787_1927" style="mask-type:alpha" maskUnits="userSpaceOnUse" x="300" y="49" width="115" height="116">
<path d="M357.577 164.608C389.253 164.608 414.932 138.929 414.932 107.253C414.932 75.5767 389.253 49.8981 357.577 49.8981C325.901 49.8981 300.223 75.5767 300.223 107.253C300.223 138.929 325.901 164.608 357.577 164.608Z" fill="#A33EDD"/>
</mask>
<g mask="url(#mask3_787_1927)">
<path d="M314.213 146.173C314.794 148.462 314.747 150.623 314.445 152.447C314.666 152.389 314.887 152.331 315.096 152.261C315.955 152.006 316.78 151.692 317.594 151.343C317.35 149.728 316.734 147.741 315.316 145.697C314.956 145.871 314.584 146.022 314.213 146.161V146.173Z" fill="#B5E3F7"/>
<path d="M328.342 142.071C329.167 140.816 329.922 139.468 330.608 138.016L325.588 133.031C325.333 134.379 324.496 136.285 323.497 137.865C325.774 139.166 327.308 140.654 328.342 142.071Z" fill="#B5E3F7"/>
<path d="M304.602 147.219C303.73 149.577 302.371 151.355 301.035 152.645C302.382 152.935 303.719 153.133 305.055 153.249C305.798 151.773 306.53 149.763 306.693 147.393C305.973 147.37 305.276 147.3 304.613 147.23L304.602 147.219Z" fill="#B5E3F7"/>
<path d="M318.933 143.372C318.562 143.686 318.178 143.965 317.806 144.232C319.189 146.23 319.944 148.194 320.328 149.925C321.153 149.426 321.954 148.868 322.721 148.275C322.222 146.765 321.153 144.964 318.945 143.384L318.933 143.372Z" fill="#B5E3F7"/>
<path d="M311.39 146.997C310.821 147.113 310.251 147.195 309.682 147.253C309.589 149.612 308.997 151.68 308.299 153.33C309.287 153.306 310.275 153.213 311.251 153.086C311.669 151.401 311.901 149.263 311.39 146.986V146.997Z" fill="#B5E3F7"/>
<path d="M301.607 146.672C300.736 146.463 299.958 146.231 299.307 146.01C297.901 148.113 296.216 149.566 294.659 150.565C295.182 150.786 295.705 151.006 296.228 151.204C296.693 151.378 297.157 151.541 297.622 151.692C298.935 150.716 300.585 149.101 301.596 146.661L301.607 146.672Z" fill="#B5E3F7"/>
<path d="M325.02 146.218C325.543 145.695 326.031 145.126 326.519 144.545C325.741 143.162 324.37 141.571 321.941 140.188C321.628 140.606 321.302 141.001 320.977 141.385C323.08 142.965 324.312 144.685 325.032 146.218H325.02Z" fill="#B5E3F7"/>
<path d="M301.605 146.672C300.582 149.112 298.944 150.727 297.631 151.703C298.758 152.074 299.897 152.388 301.035 152.644C302.372 151.354 303.731 149.588 304.603 147.218C303.51 147.09 302.511 146.892 301.605 146.672Z" fill="#009FE3"/>
<path d="M306.696 147.381C306.533 149.752 305.789 151.762 305.057 153.237C306.15 153.33 307.242 153.365 308.311 153.342C309.008 151.68 309.589 149.624 309.693 147.265C308.671 147.381 307.672 147.416 306.696 147.381Z" fill="#009FE3"/>
<path d="M314.215 146.172C313.274 146.532 312.333 146.811 311.391 147.009C311.903 149.286 311.67 151.424 311.252 153.109C312.344 152.958 313.402 152.748 314.436 152.458C314.738 150.634 314.796 148.473 314.203 146.184L314.215 146.172Z" fill="#009FE3"/>
<path d="M315.319 145.696C316.737 147.741 317.352 149.74 317.596 151.343C318.538 150.937 319.444 150.46 320.327 149.926C319.943 148.206 319.188 146.231 317.806 144.232C316.992 144.802 316.156 145.301 315.319 145.696Z" fill="#009FE3"/>
<path d="M325.022 146.219C324.301 144.697 323.07 142.966 320.967 141.385C320.316 142.129 319.63 142.791 318.933 143.372C321.153 144.964 322.222 146.753 322.71 148.264C323.511 147.625 324.278 146.951 325.01 146.207L325.022 146.219Z" fill="#009FE3"/>
<path d="M326.519 144.545C327.169 143.767 327.774 142.942 328.343 142.07C327.309 140.641 325.764 139.166 323.498 137.864C322.998 138.712 322.475 139.479 321.941 140.188C324.369 141.571 325.74 143.163 326.519 144.545Z" fill="#009FE3"/>
<path d="M343.87 92.9452C343.963 93.4565 344.382 93.7586 344.939 93.747L373.883 90.4471C374.44 90.4471 374.824 89.9708 374.731 89.4595C374.731 89.4595 371.652 66.8022 371.152 66.8952C371.152 66.8952 370.176 59.947 355.954 61.562C341.314 63.2119 342.209 70.2066 342.209 70.2066C341.651 70.2066 343.882 92.9569 343.882 92.9569L343.87 92.9452Z" fill="url(#paint4_linear_787_1927)"/>
<path d="M350.243 76.5268C350.708 75.1093 351.3 73.715 352.079 72.4369C352.613 71.3099 353.566 70.4849 354.821 70.148C355.878 70.0434 357.017 70.2293 357.935 70.787C360.305 69.5205 363.57 72.2045 364.418 74.2727C364.418 74.2727 364.465 74.3541 364.384 74.4006L364.221 74.5051C364.136 74.4819 364.074 74.4432 364.035 74.3889C363.21 72.5415 361.363 71.2169 359.364 70.9032C358.969 70.8102 358.597 70.9381 358.225 71.0542C359.085 71.5306 359.457 72.6461 359.109 73.5407C358.702 74.691 357.54 74.6329 356.82 73.8545C356.262 72.9598 356.424 71.9605 357.122 71.2866C356.471 70.787 355.6 70.6592 354.798 70.8219C353.996 70.9845 353.276 71.4377 352.823 72.1697C351.754 73.5175 351.544 75.3417 350.58 76.8522C350.487 77.2472 350.022 76.8522 350.243 76.5036V76.5268ZM357.784 73.8196C358.725 74.2379 358.679 72.9133 358.562 72.5415C358.435 72.1697 358.109 71.8095 357.737 71.5887C357.11 72.2045 356.924 73.3432 357.784 73.8196Z" fill="#3E4150"/>
<path d="M364.509 73.7502C364.625 73.5642 364.857 73.4132 365.125 73.4713C365.392 73.5294 365.543 73.7734 365.566 73.9825C365.345 76.1553 364.95 78.2003 364.288 80.1988L362.836 86.8681C362.778 87.1354 362.534 87.2864 362.266 87.2283C361.999 87.1702 361.848 86.9262 361.825 86.7171C362.255 84.5327 362.638 82.2553 363.149 80.0245C363.498 77.8866 363.974 75.7835 364.509 73.7502Z" fill="#1F272C"/>
<path d="M363.629 73.7045C363.512 74.2274 363.78 74.8432 364.198 75.1453C364.663 75.5287 365.302 75.4706 365.79 75.1569C366.278 74.8432 366.557 74.2274 366.464 73.7162C366.371 73.2049 365.929 72.6937 365.325 72.624C364.93 72.531 364.558 72.6588 364.233 72.8563C363.907 73.0539 363.768 73.3792 363.629 73.6929V73.7045Z" fill="#1F272C"/>
<path d="M350.222 75.4119C350.071 75.1679 349.804 75.1098 349.56 75.2609C349.316 75.4119 349.211 75.5978 349.281 75.8883C349.99 77.9216 350.873 79.8504 351.907 81.6862L354.87 87.8327C355.021 88.0767 355.288 88.1348 355.532 87.9838C355.776 87.8327 355.881 87.6468 355.811 87.3564C354.835 85.2649 353.987 83.1967 353.011 81.1053C352.221 79.1184 351.256 77.2477 350.222 75.4119Z" fill="#1F272C"/>
<path d="M351.37 75.8195C351.567 76.1448 351.486 76.5399 351.393 76.9349C351.253 77.2486 350.975 77.5275 350.661 77.7366C350.126 77.9574 349.522 77.8877 349.046 77.5043C348.581 77.1208 348.442 76.5282 348.639 75.9589C348.837 75.378 349.325 75.0759 349.964 75.0178C350.649 75.041 351.149 75.285 351.37 75.8195Z" fill="#1F272C"/>
<path opacity="0.7" d="M345.377 67.1734C346.98 65.6048 348.804 64.9077 349.478 65.6165C350.152 66.3252 349.467 68.1029 347.863 69.6831C346.26 71.2517 344.436 71.9489 343.762 71.2401C343.088 70.5313 343.773 68.7536 345.377 67.1734Z" fill="#DDF0EE"/>
<path d="M361.054 149.17L354.652 149.135L355.674 137.202L354.815 118.716L361.217 118.751L360.148 137.226L361.054 149.17Z" fill="#003147"/>
<path d="M334.553 87.0313C334.529 86.311 335.157 85.7068 335.959 85.6719L380.065 83.4875C380.866 83.4643 381.54 84.022 381.563 84.7424L391.451 119.855C391.475 120.576 390.847 121.18 390.045 121.215L329.429 122.481C328.627 122.504 327.953 121.947 327.93 121.226L334.564 87.0197L334.553 87.0313Z" fill="#9A9A9A"/>
<path d="M380.44 106.191C380.463 107.12 379.638 107.899 378.186 107.945L339.495 109.096C338.054 109.142 336.938 108.422 336.915 107.492L336.648 98.708C336.625 97.7785 337.694 97.1395 339.134 97.093C339.134 97.093 344.816 95.4663 357.864 95.0364C370.913 94.6065 377.826 95.9311 377.826 95.9311C379.267 95.8846 380.138 96.4656 380.173 97.4067L380.44 106.191Z" fill="#B5E3F6"/>
<path d="M365.676 211.401C365.734 211.052 371.904 176.195 362.074 153.061L369.266 150.005C380.026 175.312 373.647 211.285 373.368 212.795L365.688 211.401H365.676Z" fill="#003147"/>
<path d="M330.934 127.791C330.934 127.791 326.287 126.571 323.138 128.058C317.642 130.661 330.864 140.467 330.888 140.258C331.399 135.378 330.283 132.613 330.934 127.779V127.791Z" fill="#003147"/>
<path d="M378.165 175.592C378.141 175.894 377.99 176.243 377.758 176.557C377.467 176.743 377.189 176.94 376.759 176.963C359.167 175.371 353.393 174.349 334.616 171.212C333.884 171.212 333.512 170.642 333.675 169.992C337.637 153.423 331.119 143.082 327.319 128.43C327.168 128.058 327.192 127.756 327.389 127.524C327.587 127.292 327.842 127.199 328.179 127.129C346.015 126.85 363.838 126.571 381.708 126.211C382.01 126.234 382.394 126.292 382.673 126.618C382.905 126.815 383.056 127.187 383.114 127.536C382.08 143.57 380.79 159.709 378.153 175.592H378.165Z" fill="url(#paint5_linear_787_1927)"/>
<path d="M342.26 137.54C351.753 137.389 359.12 137.563 368.578 137.493C371.099 137.412 373.342 139.701 373.446 142.443C373.539 145.173 371.552 147.451 369.159 147.474C359.875 147.614 352.601 147.474 343.318 147.625C340.796 147.706 338.728 145.487 338.449 142.675C338.008 139.794 339.693 137.505 342.26 137.54Z" fill="#003147"/>
<path d="M345.805 142.547C345.956 143.779 345.328 144.999 344.236 145.487C343.132 145.975 341.819 145.638 340.925 144.836C339.972 143.907 339.53 142.559 339.891 141.432C340.158 140.27 341.145 139.515 342.377 139.503C344.108 139.375 345.642 140.77 345.805 142.536V142.547Z" fill="#B2E2F4"/>
<path d="M371.604 142.385C371.72 144.093 370.431 145.418 368.978 145.429C367.433 145.406 366.108 144.116 365.992 142.42C365.876 140.712 367.073 139.353 368.618 139.376C370.164 139.399 371.488 140.689 371.604 142.385Z" fill="#B2E2F4"/>
<path d="M334.872 158.558C334.79 159.15 334.965 159.499 334.883 160.092C350.093 160.963 364.756 162.322 379.965 163.194C380.047 162.601 380.024 162.299 380.151 161.625C364.896 160.835 350.081 159.429 334.872 158.558Z" fill="#3E4150"/>
<path d="M334.687 163.311C349.815 164.136 364.385 166.054 379.502 166.89C379.583 166.298 379.548 166.065 379.641 165.484C364.513 164.659 350.036 162.521 334.861 161.778C334.78 162.37 334.768 162.73 334.675 163.323L334.687 163.311Z" fill="#3E4150"/>
<path d="M372.798 102.81C372.496 104.355 371.008 105.366 369.463 105.076C367.918 104.774 366.907 103.286 367.197 101.741C367.499 100.196 368.987 99.1847 370.532 99.4752C372.077 99.7773 373.088 101.265 372.798 102.81Z" fill="#6887C4"/>
<path d="M348.965 102.845C348.663 104.391 347.176 105.402 345.63 105.111C344.085 104.809 343.074 103.322 343.365 101.776C343.667 100.231 345.154 99.2202 346.699 99.5107C348.245 99.8128 349.256 101.3 348.965 102.845Z" fill="#6887C4"/>
<path d="M352.58 107.412C353.486 108.005 355.566 109.062 357.901 109.492C360.946 110.05 362.979 109.515 363.572 109.051C363.85 108.83 363.967 108.33 364.013 107.865C364.083 107.923 364.153 107.982 364.234 108.051C365.895 109.631 363.92 112.013 362.317 112.896C360.713 113.78 356.275 113.884 353.649 112.432C351.36 111.165 351.104 108.528 352.568 107.412H352.58Z" fill="#BD2A1D"/>
<path d="M363.581 109.05C362.989 109.515 360.944 110.037 357.911 109.491C355.576 109.061 353.484 108.004 352.59 107.411C352.81 107.237 353.078 107.109 353.38 107.016C354.995 106.54 357.69 107.911 359.654 107.969C361.525 108.027 362.617 106.738 364.023 107.865C363.976 108.329 363.86 108.829 363.581 109.05Z" fill="#F6F6F7"/>
<path d="M405.712 141.908C406.561 143.221 407.316 144.58 407.967 145.975C405.503 146.544 403.133 147.206 401.344 147.729C400.983 147.032 400.588 146.358 400.17 145.719C401.669 144.615 403.667 143.209 405.701 141.908H405.712Z" fill="#B5E3F7"/>
<path d="M390.221 128.116C392.104 129.127 393.881 130.219 395.531 131.404C393.661 133.217 391.964 135.018 390.779 136.308C389.547 135.483 388.339 134.762 387.2 134.147C386.91 133.996 389.954 127.988 390.221 128.128V128.116Z" fill="#B5E3F7"/>
<path d="M402.11 158.466C404.062 158.908 406.456 159.454 408.757 160.035C408.118 161.766 407.153 163.369 405.84 164.729C404.33 163.009 402.75 161.185 401.402 159.605C401.669 159.256 401.913 158.873 402.11 158.478V158.466Z" fill="#B5E3F7"/>
<path d="M402.718 137.899C400.627 139.247 398.651 140.641 397.153 141.745C396.386 140.897 395.584 140.107 394.759 139.375C395.967 138.062 397.652 136.296 399.453 134.576C400.627 135.634 401.719 136.737 402.73 137.899H402.718Z" fill="#B5E3F7"/>
<path d="M390.341 161.823C390.84 163.798 391.444 166.401 391.897 168.945C391.491 168.899 391.084 168.853 390.666 168.783C389.492 168.574 388.33 168.26 387.168 167.865C388.063 165.541 388.83 163.252 389.376 161.521C389.701 161.625 390.015 161.73 390.341 161.811V161.823Z" fill="#B5E3F7"/>
<path d="M397.012 162.125C398.383 163.741 400.067 165.704 401.729 167.586C400.253 168.26 398.638 168.714 396.965 168.934C396.593 166.657 396.094 164.333 395.617 162.346C396.094 162.3 396.559 162.23 397.012 162.125Z" fill="#B5E3F7"/>
<path d="M402.948 152.459C404.749 151.924 407.119 151.273 409.49 150.739C409.745 152.168 409.838 153.655 409.757 155.143C407.398 154.55 404.993 154.004 403.041 153.562C403.03 153.191 402.995 152.83 402.948 152.459Z" fill="#B5E3F7"/>
<path d="M379.911 163.984L384.024 158.651C384.292 158.86 384.57 159.058 384.861 159.244C384.35 160.894 383.56 163.322 382.618 165.797C381.689 165.251 380.783 164.647 379.911 163.984Z" fill="#B5E3F7"/>
<path d="M399.441 134.577C397.652 136.297 395.956 138.063 394.747 139.376C393.446 138.214 392.11 137.192 390.785 136.309C391.959 135.019 393.667 133.218 395.537 131.405C396.932 132.405 398.221 133.474 399.441 134.577Z" fill="#009FE3"/>
<path d="M402.718 137.9C403.822 139.178 404.821 140.514 405.716 141.909C403.671 143.21 401.684 144.616 400.185 145.72C399.267 144.279 398.245 142.954 397.153 141.758C398.652 140.654 400.627 139.259 402.718 137.912V137.9Z" fill="#009FE3"/>
<path d="M408.288 146.638C408.834 147.904 409.241 149.299 409.496 150.739C407.114 151.274 404.744 151.936 402.955 152.459C402.804 151.344 402.525 150.275 402.107 149.31C401.874 148.764 401.619 148.241 401.351 147.73C403.141 147.196 405.511 146.533 407.974 145.976C408.079 146.196 408.207 146.405 408.3 146.626L408.288 146.638Z" fill="#009FE3"/>
<path d="M403.038 153.562C404.99 154.003 407.395 154.55 409.754 155.142C409.661 156.815 409.336 158.465 408.755 160.034C406.454 159.453 404.061 158.907 402.109 158.465C402.829 157.036 403.108 155.293 403.038 153.562Z" fill="#009FE3"/>
<path d="M400.365 160.627C400.76 160.325 401.108 159.976 401.41 159.593C402.758 161.173 404.338 162.997 405.849 164.717C405.419 165.158 404.954 165.6 404.443 165.983C403.606 166.622 402.688 167.145 401.724 167.587C400.074 165.704 398.389 163.741 397.007 162.126C398.262 161.847 399.4 161.347 400.365 160.627Z" fill="#009FE3"/>
<path d="M395.617 162.347C396.093 164.333 396.593 166.657 396.964 168.935C395.326 169.155 393.63 169.155 391.898 168.958C391.457 166.413 390.841 163.811 390.341 161.835C392.154 162.335 393.955 162.509 395.617 162.358V162.347Z" fill="#009FE3"/>
<path d="M387.173 167.878C385.627 167.355 384.093 166.658 382.618 165.798C383.559 163.323 384.349 160.895 384.86 159.245C386.301 160.232 387.835 160.999 389.38 161.534C388.834 163.265 388.067 165.554 387.173 167.878Z" fill="#009FE3"/>
<path d="M380.511 158.163C380.383 157.234 379.267 155.688 376.339 154.596C375.677 154.329 375.212 153.725 375.015 152.981C374.957 152.249 375.166 151.517 375.77 151.052C376.374 150.587 377.106 150.402 377.78 150.669C381.638 152.168 384.089 154.654 384.531 157.524C384.647 158.837 384.496 161.324 381.58 163.601L379.453 160.243C380.104 159.755 380.464 159 380.522 158.152L380.511 158.163Z" fill="#003147"/>
<path d="M373.839 157.966C375.164 159.581 377.813 161.335 379.091 160.476C379.219 160.406 379.335 160.336 379.44 160.255L381.566 163.613C381.566 163.613 381.496 163.671 381.462 163.706C377.697 166.471 372.794 163.229 370.679 160.545C370.214 159.941 370.156 159.081 370.563 158.28C370.702 158.012 370.9 157.815 371.039 157.687C371.911 156.967 373.247 157.106 373.839 157.978V157.966Z" fill="#003147"/>
<path d="M383.673 125.897C383.673 125.897 388.611 123.155 392.027 123.805C396.338 124.537 393.282 131.66 391.458 133.67C388.031 137.458 382.674 138.968 382.5 138.329C381.245 133.589 380.408 129.29 383.662 125.885L383.673 125.897Z" fill="#003147"/>
</g>
<defs>
<linearGradient id="paint0_linear_787_1927" x1="45.6458" y1="92.5817" x2="42.9945" y2="110.46" gradientUnits="userSpaceOnUse">
<stop offset="0.35" stop-color="white"/>
<stop offset="0.65" stop-color="#B5D1EE"/>
<stop offset="1" stop-color="white"/>
</linearGradient>
<linearGradient id="paint1_linear_787_1927" x1="76.0593" y1="91.7585" x2="73.408" y2="109.637" gradientUnits="userSpaceOnUse">
<stop offset="0.35" stop-color="white"/>
<stop offset="0.65" stop-color="#B5D1EE"/>
<stop offset="1" stop-color="white"/>
</linearGradient>
<linearGradient id="paint2_linear_787_1927" x1="200.925" y1="111.635" x2="185.835" y2="199.232" gradientUnits="userSpaceOnUse">
<stop offset="0.15" stop-color="#935123"/>
<stop offset="0.31" stop-color="#80421C"/>
<stop offset="0.58" stop-color="#662E13"/>
<stop offset="0.81" stop-color="#56220D"/>
<stop offset="1" stop-color="#511E0B"/>
</linearGradient>
<linearGradient id="paint3_linear_787_1927" x1="209.367" y1="166.837" x2="208.815" y2="125.415" gradientUnits="userSpaceOnUse">
<stop offset="0.15" stop-color="#935123"/>
<stop offset="0.45" stop-color="#984F29"/>
<stop offset="1" stop-color="#9C4D2E"/>
</linearGradient>
<linearGradient id="paint4_linear_787_1927" x1="347.48" y1="63.5315" x2="366.892" y2="94.9205" gradientUnits="userSpaceOnUse">
<stop stop-color="#008DE9"/>
<stop offset="0.49" stop-color="#17FFFF"/>
<stop offset="0.56" stop-color="#44F6F5" stop-opacity="0.94"/>
<stop offset="0.63" stop-color="#6CEFED" stop-opacity="0.89"/>
<stop offset="0.71" stop-color="#8BEAE7" stop-opacity="0.85"/>
<stop offset="0.8" stop-color="#A1E6E2" stop-opacity="0.82"/>
<stop offset="0.89" stop-color="#AEE3DF" stop-opacity="0.81"/>
<stop offset="1" stop-color="#B3E3DF" stop-opacity="0.8"/>
</linearGradient>
<linearGradient id="paint5_linear_787_1927" x1="355.305" y1="134.047" x2="356.063" y2="177.267" gradientUnits="userSpaceOnUse">
<stop stop-color="#C9C9C8"/>
<stop offset="0.92" stop-color="#808080"/>
</linearGradient>
</defs>
</svg>
