<svg width="201" height="28" viewBox="0 0 201 28" fill="none" xmlns="http://www.w3.org/2000/svg">
<g id="Elever_Blue_Logo">
<g id="Splash 1024x768">
<g id="Elever-Logo-[Simple]-Copy">
<path id="Fill-1" d="M13.1906 1.55131V1.2073C13.1927 0.956226 13.1102 0.713438 12.9593 0.527098C12.8907 0.437818 12.8058 0.365814 12.7103 0.315937C12.6148 0.26606 12.5109 0.239409 12.4055 0.237771H1.41328C1.21518 0.219444 1.01584 0.248337 0.828503 0.322474C0.641166 0.396612 0.470104 0.514337 0.326668 0.667824C0.090034 1.03813 -0.0239445 1.4886 0.00419886 1.94224V25.9996C-0.016693 26.4365 0.0758017 26.8708 0.270595 27.2506C0.402638 27.4328 0.574625 27.5738 0.769905 27.6601C0.965185 27.7464 1.17714 27.775 1.38523 27.7431H12.3704C12.4758 27.7415 12.5798 27.7149 12.6752 27.665C12.7707 27.6151 12.8556 27.5431 12.9242 27.4539C13.0751 27.2675 13.1577 27.0247 13.1556 26.7736V26.4296C13.1595 26.3006 13.1404 26.172 13.0995 26.0512C13.0586 25.9304 12.9966 25.8199 12.9172 25.726C12.847 25.6427 12.7623 25.5762 12.6683 25.5305C12.5743 25.4848 12.4729 25.4608 12.3704 25.4601H1.85491V2.52079H12.3704C12.4729 2.52009 12.5743 2.49615 12.6683 2.45046C12.7623 2.40476 12.847 2.33824 12.9172 2.25495C13.003 2.16428 13.0714 2.05519 13.1184 1.93427C13.1654 1.81334 13.1899 1.6831 13.1906 1.55131Z" fill="white"/>
<path id="Fill-1-Copy" d="M86.89 2.25436C86.9708 2.16149 87.0336 2.05114 87.0746 1.93011C87.1156 1.80907 87.1339 1.67996 87.1284 1.55073V1.20672C87.1305 0.955644 87.048 0.712856 86.8971 0.526515C86.8284 0.437236 86.7436 0.365231 86.6481 0.315354C86.5526 0.265477 86.4487 0.238826 86.3432 0.237188H75.3861C75.1891 0.21999 74.9912 0.249455 74.8051 0.323562C74.6191 0.397668 74.4491 0.514782 74.3065 0.667242C74.0647 1.03504 73.9479 1.48672 73.977 1.94165V25.999C73.9561 26.4359 74.0486 26.8702 74.2434 27.25C74.3755 27.4322 74.5474 27.5732 74.7427 27.6595C74.938 27.7458 75.15 27.7744 75.3581 27.7426H86.3432C86.4487 27.7409 86.5526 27.7143 86.6481 27.6644C86.7436 27.6145 86.8284 27.5426 86.8971 27.4533C87.048 27.2669 87.1305 27.0241 87.1284 26.773V26.429C87.1339 26.2998 87.1156 26.1707 87.0746 26.0496C87.0336 25.9286 86.9708 25.8183 86.89 25.7254C86.8198 25.6421 86.7351 25.5756 86.6411 25.5299C86.5471 25.4842 86.4458 25.4602 86.3432 25.4595H75.8277V2.52021H86.3432C86.4458 2.51951 86.5471 2.49557 86.6411 2.44987C86.7351 2.40418 86.8198 2.33766 86.89 2.25436Z" fill="white"/>
<path id="Fill-1-Copy-2" d="M162.511 2.25446C162.59 2.16054 162.652 2.05002 162.693 1.92925C162.734 1.80847 162.753 1.67986 162.749 1.55083V1.20681C162.752 0.954094 162.667 0.710027 162.511 0.52661C162.445 0.435899 162.362 0.362789 162.267 0.312728C162.172 0.262668 162.069 0.236886 161.964 0.237283H151.007C150.809 0.218956 150.61 0.247849 150.422 0.321986C150.235 0.396123 150.064 0.513849 149.92 0.667336C149.684 1.03764 149.57 1.48811 149.598 1.94175V25.9991C149.574 26.4363 149.666 26.8717 149.864 27.2501C149.996 27.4323 150.168 27.5733 150.364 27.6596C150.559 27.7459 150.771 27.7745 150.979 27.7427H161.964C162.069 27.743 162.172 27.7173 162.267 27.6672C162.362 27.6171 162.445 27.5441 162.511 27.4534C162.667 27.27 162.752 27.0258 162.749 26.7731V26.4291C162.753 26.3001 162.734 26.1715 162.693 26.0507C162.652 25.9299 162.59 25.8194 162.511 25.7255C162.44 25.6432 162.355 25.5774 162.261 25.5318C162.167 25.4862 162.066 25.4617 161.964 25.4596H151.449V2.52031H161.964C162.067 2.5196 162.168 2.49566 162.262 2.44997C162.356 2.40427 162.441 2.33775 162.511 2.25446Z" fill="white"/>
<path id="Fill-9" d="M193.272 15.3037C195.509 15.3037 197.177 14.5218 198.236 13.005C199.267 11.5117 199.817 9.67485 199.799 7.79014C199.799 2.77851 197.093 0.237481 191.737 0.237481H187.257C187.037 0.205703 186.813 0.230802 186.603 0.310779C186.393 0.390755 186.202 0.523495 186.045 0.698791C185.789 1.16734 185.678 1.71677 185.729 2.26248V26.7811C185.727 26.9132 185.749 27.0443 185.795 27.1661C185.84 27.288 185.908 27.3979 185.994 27.4891C186.08 27.5802 186.181 27.6505 186.293 27.6956C186.404 27.7406 186.522 27.7593 186.64 27.7506H186.809C186.924 27.7538 187.039 27.731 187.146 27.6835C187.253 27.636 187.35 27.5648 187.432 27.4743C187.514 27.3837 187.579 27.2756 187.622 27.1565C187.666 27.0374 187.687 26.9097 187.685 26.7811V2.54393H191.702C195.838 2.54393 197.85 4.26399 197.85 7.81357C197.839 8.99987 197.531 10.1591 196.96 11.1599C196.616 11.7433 196.129 12.2046 195.558 12.489C194.842 12.8565 194.06 13.0357 193.272 13.0129H191.87C191.695 12.9853 191.517 13.0028 191.349 13.064C191.181 13.1252 191.028 13.2284 190.902 13.3658C190.775 13.5032 190.679 13.671 190.619 13.8565C190.56 14.0419 190.539 14.2401 190.559 14.4358C190.593 14.8446 190.729 15.2347 190.952 15.5617L198.502 27.3363C198.647 27.5553 198.854 27.7131 199.089 27.7841C199.325 27.8551 199.575 27.8351 199.799 27.7272C199.934 27.6472 200.051 27.5346 200.141 27.3976C200.232 27.2607 200.294 27.1029 200.323 26.9357C200.352 26.7686 200.347 26.5963 200.308 26.4316C200.27 26.2669 200.199 26.1138 200.1 25.9837L193.272 15.3037Z" fill="white"/>
<path id="Fill-4" d="M4.07696 13.0755C3.8673 13.0668 3.66309 13.1511 3.50913 13.3101C3.37873 13.4525 3.30329 13.646 3.29883 13.8495V14.131C3.29883 14.6314 3.57222 14.9128 4.07696 14.9128H10.7438C11.2415 14.9128 11.5149 14.6392 11.5149 14.131V13.8495C11.5105 13.646 11.435 13.4525 11.3046 13.3101C11.2301 13.2309 11.142 13.1693 11.0457 13.129C10.9493 13.0887 10.8466 13.0705 10.7438 13.0755H4.07696Z" fill="white"/>
<path id="Fill-4-Copy" d="M78.0438 13.0755C77.8341 13.0668 77.6299 13.1511 77.4759 13.3101C77.3455 13.4525 77.2701 13.646 77.2656 13.8495V14.131C77.2656 14.6314 77.546 14.9128 78.0438 14.9128H84.6966C85.1943 14.9128 85.4747 14.6392 85.4747 14.131V13.8495C85.4748 13.7476 85.4555 13.6467 85.418 13.5537C85.3806 13.4607 85.3258 13.3777 85.2574 13.3101C85.1829 13.2309 85.0948 13.1693 84.9984 13.129C84.902 13.0887 84.7994 13.0705 84.6966 13.0755H78.0438Z" fill="white"/>
<path id="Fill-4-Copy-2" d="M153.663 13.0749C153.559 13.0697 153.455 13.0878 153.358 13.1281C153.26 13.1684 153.171 13.23 153.095 13.3095C152.965 13.4519 152.889 13.6454 152.885 13.8489V14.1304C152.885 14.6308 153.158 14.9122 153.663 14.9122H160.323C160.827 14.9122 161.101 14.6386 161.101 14.1304V13.8489C161.096 13.6454 161.021 13.4519 160.891 13.3095C160.815 13.2293 160.726 13.1671 160.628 13.1268C160.531 13.0865 160.427 13.0688 160.323 13.0749H153.663Z" fill="white"/>
<path id="Fill-6" d="M38.0768 25.4594V1.22219C38.0781 0.972171 37.9927 0.731283 37.8385 0.549817C37.752 0.451493 37.6482 0.374295 37.5335 0.323147C37.4189 0.271999 37.2959 0.248017 37.1725 0.252712H37.0603C36.9373 0.240943 36.8135 0.261741 36.699 0.313364C36.5845 0.364987 36.4825 0.445983 36.4014 0.549817C36.2491 0.732066 36.1662 0.973105 36.1701 1.22219V25.9051C36.1701 27.1169 36.6748 27.758 37.6352 27.758H48.5573C48.6626 27.7575 48.7664 27.7305 48.8611 27.6791C48.9557 27.6277 49.0388 27.5531 49.1041 27.4609C49.2466 27.2732 49.3237 27.0345 49.3214 26.7886V26.4445C49.3214 25.8191 49.048 25.4751 48.5573 25.4751L38.0768 25.4594Z" fill="white"/>
<path id="Fill-22" d="M125.699 0.260837C125.563 0.230004 125.425 0.214292 125.286 0.213929C125.107 0.211676 124.932 0.271409 124.785 0.384862C124.638 0.498315 124.527 0.65988 124.466 0.847222L117.049 24.4981L114.076 14.7719C113.838 13.99 113.53 13.8102 113.018 13.8102H109.365C109.248 13.8046 109.13 13.8276 109.021 13.8775C108.913 13.9275 108.815 14.0032 108.734 14.0995C108.585 14.2835 108.502 14.5234 108.503 14.7719V15.1159C108.49 15.2458 108.503 15.3775 108.541 15.501C108.58 15.6245 108.643 15.7367 108.726 15.8291C108.809 15.9216 108.909 15.992 109.02 16.035C109.131 16.078 109.249 16.0926 109.365 16.0776H112.17L115.542 26.5308C115.638 26.9004 115.845 27.2221 116.128 27.4425C116.411 27.6629 116.753 27.7688 117.098 27.7427C117.433 27.7732 117.767 27.6728 118.043 27.4589C118.32 27.245 118.521 26.9308 118.612 26.57L126.541 1.5509C126.772 0.823785 126.26 0.432834 125.714 0.29992" fill="white"/>
</g>
</g>
</g>
</svg>
