<svg width="266" height="286" viewBox="0 0 266 286" fill="none" xmlns="http://www.w3.org/2000/svg">
<path d="M32.124 182.368H1.23366C0.758356 182.368 0.373047 182.798 0.373047 183.328V183.566C0.373047 184.096 0.758356 184.526 1.23366 184.526H32.124C32.5993 184.526 32.9846 184.096 32.9846 183.566V183.328C32.9846 182.798 32.5993 182.368 32.124 182.368Z" fill="#9CE1FC"/>
<path d="M32.1231 189.649H16.0363C15.561 189.649 15.1757 190.079 15.1757 190.609V190.848C15.1757 191.378 15.561 191.807 16.0363 191.807H32.1231C32.5984 191.807 32.9837 191.378 32.9837 190.848V190.609C32.9837 190.079 32.5984 189.649 32.1231 189.649Z" fill="#9CE1FC"/>
<path d="M40.138 189.649H35.2493C34.774 189.649 34.3887 190.079 34.3887 190.609V190.847C34.3887 191.377 34.774 191.807 35.2493 191.807H40.138C40.6133 191.807 40.9986 191.377 40.9986 190.847V190.609C40.9986 190.079 40.6133 189.649 40.138 189.649Z" fill="#9CE1FC"/>
<path d="M34.2352 195.164H3.3448C2.8695 195.164 2.48419 195.594 2.48419 196.124V196.362C2.48419 196.892 2.8695 197.322 3.3448 197.322H34.2352C34.7105 197.322 35.0958 196.892 35.0958 196.362V196.124C35.0958 195.594 34.7105 195.164 34.2352 195.164Z" fill="#9CE1FC"/>
<path d="M7.55253 188.025H4.85866C4.38507 188.025 3.99805 187.542 3.99805 186.946C3.99805 186.349 4.38507 185.866 4.85866 185.866H7.55253C8.02612 185.866 8.41314 186.349 8.41314 186.946C8.41314 187.542 8.02612 188.025 7.55253 188.025Z" fill="#9CE1FC"/>
<path d="M8.96268 200.769H6.26882C5.79522 200.769 5.4082 200.287 5.4082 199.69C5.4082 199.094 5.79522 198.611 6.26882 198.611H8.96268C9.43628 198.611 9.8233 199.094 9.8233 199.69C9.8233 200.287 9.43628 200.769 8.96268 200.769Z" fill="#9CE1FC"/>
<path d="M50.741 200.769H33.2435C32.77 200.769 32.3829 200.287 32.3829 199.69C32.3829 199.094 32.77 198.611 33.2435 198.611H50.741C51.2146 198.611 51.6016 199.094 51.6016 199.69C51.6016 200.287 51.2146 200.769 50.741 200.769Z" fill="#9CE1FC"/>
<path d="M38.7596 184.526H36.0657C35.5921 184.526 35.2051 184.043 35.2051 183.447C35.2051 182.851 35.5921 182.368 36.0657 182.368H38.7596C39.2332 182.368 39.6202 182.851 39.6202 183.447C39.6202 184.043 39.2332 184.526 38.7596 184.526Z" fill="#9CE1FC"/>
<path d="M40.0232 197.316H37.3294C36.8558 197.316 36.4688 196.834 36.4688 196.237C36.4688 195.641 36.8558 195.158 37.3294 195.158H40.0232C40.4968 195.158 40.8838 195.641 40.8838 196.237C40.8838 196.834 40.4968 197.316 40.0232 197.316Z" fill="#9CE1FC"/>
<path d="M51.0124 197.316H43.384C42.9105 197.316 42.5234 196.834 42.5234 196.237C42.5234 195.641 42.9105 195.158 43.384 195.158H51.0124C51.486 195.158 51.873 195.641 51.873 196.237C51.873 196.834 51.486 197.316 51.0124 197.316Z" fill="#9CE1FC"/>
<path d="M29.7209 200.769H11.8059C11.3323 200.769 10.9453 200.287 10.9453 199.69C10.9453 199.094 11.3323 198.611 11.8059 198.611H29.7209C30.1945 198.611 30.5815 199.094 30.5815 199.69C30.5815 200.287 30.1945 200.769 29.7209 200.769Z" fill="#9CE1FC"/>
<path d="M41.3838 188.025H31.642C31.1685 188.025 30.7814 187.542 30.7814 186.946C30.7814 186.349 31.1685 185.866 31.642 185.866H41.3838C41.8574 185.866 42.2444 186.349 42.2444 186.946C42.2444 187.542 41.8574 188.025 41.3838 188.025Z" fill="#9CE1FC"/>
<path d="M28.2279 188.025H10.7356C10.262 188.025 9.875 187.542 9.875 186.946C9.875 186.349 10.262 185.866 10.7356 185.866H28.233C28.7066 185.866 29.0936 186.349 29.0936 186.946C29.0936 187.542 28.7066 188.025 28.233 188.025H28.2279Z" fill="#9CE1FC"/>
<path d="M48.9128 184.526H41.2844C40.8109 184.526 40.4238 184.043 40.4238 183.447C40.4238 182.851 40.8109 182.368 41.2844 182.368H48.9128C49.3864 182.368 49.7734 182.851 49.7734 183.447C49.7734 184.043 49.3864 184.526 48.9128 184.526Z" fill="#9CE1FC"/>
<path d="M239.446 113.602H208.556C208.081 113.602 207.695 114.032 207.695 114.562V114.8C207.695 115.33 208.081 115.76 208.556 115.76H239.446C239.922 115.76 240.307 115.33 240.307 114.8V114.562C240.307 114.032 239.922 113.602 239.446 113.602Z" fill="#DEFC9C"/>
<path d="M239.44 120.883H223.353C222.877 120.883 222.492 121.313 222.492 121.843V122.081C222.492 122.611 222.877 123.041 223.353 123.041H239.44C239.915 123.041 240.3 122.611 240.3 122.081V121.843C240.3 121.313 239.915 120.883 239.44 120.883Z" fill="#DEFC9C"/>
<path d="M247.462 120.883H242.574C242.098 120.883 241.713 121.313 241.713 121.843V122.081C241.713 122.611 242.098 123.041 242.574 123.041H247.462C247.937 123.041 248.323 122.611 248.323 122.081V121.843C248.323 121.313 247.937 120.883 247.462 120.883Z" fill="#DEFC9C"/>
<path d="M241.557 126.392H210.667C210.192 126.392 209.806 126.822 209.806 127.352V127.59C209.806 128.12 210.192 128.55 210.667 128.55H241.557C242.033 128.55 242.418 128.12 242.418 127.59V127.352C242.418 126.822 242.033 126.392 241.557 126.392Z" fill="#DEFC9C"/>
<path d="M214.871 119.252H212.177C211.703 119.252 211.316 118.77 211.316 118.173C211.316 117.577 211.703 117.094 212.177 117.094H214.871C215.344 117.094 215.732 117.577 215.732 118.173C215.732 118.77 215.344 119.252 214.871 119.252Z" fill="#DEFC9C"/>
<path d="M216.281 132.003H213.587C213.114 132.003 212.727 131.52 212.727 130.924C212.727 130.327 213.114 129.845 213.587 129.845H216.281C216.755 129.845 217.142 130.327 217.142 130.924C217.142 131.52 216.755 132.003 216.281 132.003Z" fill="#DEFC9C"/>
<path d="M251.717 132.003H234.22C233.746 132.003 233.359 131.52 233.359 130.924C233.359 130.328 233.746 129.845 234.22 129.845H251.717C252.191 129.845 252.578 130.328 252.578 130.924C252.578 131.52 252.191 132.003 251.717 132.003Z" fill="#DEFC9C"/>
<path d="M246.076 115.76H243.382C242.909 115.76 242.521 115.277 242.521 114.681C242.521 114.084 242.909 113.602 243.382 113.602H246.076C246.55 113.602 246.937 114.084 246.937 114.681C246.937 115.277 246.55 115.76 246.076 115.76Z" fill="#DEFC9C"/>
<path d="M247.34 128.55H244.646C244.172 128.55 243.785 128.067 243.785 127.471C243.785 126.875 244.172 126.392 244.646 126.392H247.34C247.813 126.392 248.2 126.875 248.2 127.471C248.2 128.067 247.813 128.55 247.34 128.55Z" fill="#DEFC9C"/>
<path d="M258.329 128.55H250.7C250.227 128.55 249.84 128.067 249.84 127.471C249.84 126.874 250.227 126.392 250.7 126.392H258.329C258.802 126.392 259.189 126.874 259.189 127.471C259.189 128.067 258.802 128.55 258.329 128.55Z" fill="#DEFC9C"/>
<path d="M237.045 132.003H219.13C218.657 132.003 218.27 131.52 218.27 130.924C218.27 130.327 218.657 129.845 219.13 129.845H237.045C237.519 129.845 237.906 130.327 237.906 130.924C237.906 131.52 237.519 132.003 237.045 132.003Z" fill="#DEFC9C"/>
<path d="M248.698 119.253H238.956C238.483 119.253 238.096 118.77 238.096 118.174C238.096 117.577 238.483 117.094 238.956 117.094H248.698C249.172 117.094 249.559 117.577 249.559 118.174C249.559 118.77 249.172 119.253 248.698 119.253Z" fill="#DEFC9C"/>
<path d="M235.553 119.253H218.056C217.582 119.253 217.195 118.77 217.195 118.174C217.195 117.577 217.582 117.094 218.056 117.094H235.553C236.027 117.094 236.414 117.577 236.414 118.174C236.414 118.77 236.027 119.253 235.553 119.253Z" fill="#DEFC9C"/>
<path d="M253.414 115.76H248.607C248.133 115.76 247.746 115.277 247.746 114.681C247.746 114.084 248.133 113.602 248.607 113.602H253.414C253.888 113.602 254.275 114.084 254.275 114.681C254.275 115.277 253.888 115.76 253.414 115.76Z" fill="#DEFC9C"/>
<path d="M121.899 61.8893C120.876 61.4633 120.061 60.5773 119.643 59.4585C119.638 59.4471 119.633 59.4358 119.628 59.4244C119.205 58.2999 119.221 57.0277 119.674 55.9088L120.02 55.0626L117.372 52.1093L116.608 52.4955C115.61 53.0009 114.47 53.018 113.461 52.5466C113.451 52.5409 113.441 52.5352 113.431 52.5295C112.422 52.0695 111.633 51.1551 111.251 50.0136L110.956 49.1389H107.218L106.923 50.0136C106.541 51.1551 105.746 52.0638 104.743 52.5295C104.733 52.5352 104.723 52.5409 104.713 52.5466C103.704 53.018 102.564 52.9953 101.565 52.4955L100.802 52.1093L98.1535 55.0626L98.4998 55.9088C98.9531 57.022 98.9683 58.2942 98.5457 59.4244C98.5406 59.4358 98.5355 59.4471 98.5304 59.4585C98.1179 60.583 97.298 61.4633 96.2745 61.8893L95.4902 62.213V66.3874L96.2745 66.7168C97.298 67.1428 98.1128 68.0231 98.5304 69.1476C98.5355 69.159 98.5406 69.1703 98.5457 69.176C98.9683 70.3062 98.9531 71.5727 98.4998 72.6916L98.1535 73.5435L100.802 76.4968L101.565 76.1106C102.564 75.6051 103.704 75.5881 104.713 76.0595C104.723 76.0595 104.733 76.0709 104.743 76.0709C105.751 76.5366 106.541 77.451 106.923 78.5869L107.218 79.4615H110.956L111.251 78.5869C111.633 77.451 112.427 76.5366 113.431 76.0709C113.441 76.0709 113.451 76.0595 113.461 76.0595C114.47 75.5881 115.61 75.6051 116.608 76.1106L117.372 76.4968L120.02 73.5435L119.674 72.6916C119.221 71.5784 119.205 70.3062 119.628 69.176C119.633 69.1647 119.638 69.1533 119.643 69.1476C120.056 68.0231 120.876 67.1428 121.899 66.7168L122.684 66.3874V62.213L121.899 61.8893ZM109.092 74.5431C104.02 74.5431 99.9104 69.9541 99.9104 64.303C99.9104 58.652 104.025 54.063 109.092 54.063C114.159 54.063 118.274 58.652 118.274 64.303C118.274 69.9541 114.164 74.5431 109.092 74.5431Z" fill="#677FF2"/>
<path d="M170.695 9.60025C169.966 9.29356 169.381 8.66314 169.085 7.86234C169.085 7.85098 169.08 7.8453 169.075 7.83962C168.775 7.03314 168.785 6.12443 169.111 5.32931L169.355 4.72161L167.466 2.61453L166.921 2.88714C166.208 3.24495 165.393 3.26198 164.675 2.9269C164.665 2.9269 164.66 2.92122 164.655 2.91554C163.937 2.58613 163.372 1.93299 163.097 1.12083L162.888 0.496094H160.215L160.006 1.12083C159.731 1.93299 159.165 2.58613 158.447 2.91554C158.442 2.91554 158.432 2.92122 158.427 2.9269C157.704 3.26198 156.889 3.25063 156.181 2.88714L155.636 2.61453L153.747 4.72161L153.992 5.32931C154.318 6.12443 154.328 7.03314 154.027 7.83962C154.027 7.85098 154.022 7.85666 154.017 7.86234C153.722 8.66314 153.136 9.29356 152.408 9.60025L151.848 9.83311V12.8148L152.408 13.0477C153.136 13.3544 153.722 13.9791 154.017 14.7856C154.017 14.7913 154.022 14.8026 154.027 14.8083C154.328 15.6148 154.318 16.5235 153.992 17.3186L153.747 17.9263L155.636 20.0334L156.181 19.7608C156.894 19.3973 157.709 19.3859 158.427 19.721C158.437 19.721 158.442 19.7267 158.447 19.7324C159.165 20.0675 159.731 20.7149 160.006 21.5271L160.215 22.1518H162.888L163.097 21.5271C163.372 20.7149 163.937 20.0618 164.655 19.7324C164.66 19.7324 164.67 19.7267 164.675 19.721C165.399 19.3859 166.213 19.3973 166.921 19.7608L167.466 20.0334L169.355 17.9263L169.111 17.3186C168.785 16.5235 168.775 15.6148 169.075 14.8083C169.075 14.8026 169.08 14.7913 169.085 14.7856C169.381 13.9791 169.966 13.3544 170.695 13.0477L171.255 12.8148V9.83311L170.695 9.60025ZM161.544 18.6419C157.923 18.6419 154.985 15.3649 154.985 11.3268C154.985 7.28871 157.923 4.01167 161.544 4.01167C165.164 4.01167 168.103 7.28871 168.103 11.3268C168.103 15.3649 165.164 18.6419 161.544 18.6419Z" fill="#45CBFA"/>
<g opacity="0.45">
<path d="M137.537 285.963C208.473 285.963 265.978 279.207 265.978 270.874C265.978 262.541 208.473 255.786 137.537 255.786C66.6008 255.786 9.0957 262.541 9.0957 270.874C9.0957 279.207 66.6008 285.963 137.537 285.963Z" fill="#454549"/>
</g>
<path d="M222.319 242.201H26.3334C19.8152 242.201 14.5293 236.732 14.5293 229.985V85.653C14.5293 78.9058 19.8152 73.1242 26.3334 72.7323L222.319 61.0326C228.837 60.6407 234.123 66.2236 234.123 73.4933V229.036C234.123 236.306 228.837 242.201 222.319 242.201Z" fill="#6477FF"/>
<path d="M215.448 230.18L33.1868 230.901C29.0009 230.918 25.6094 227.408 25.6094 223.058V90.6868C25.6094 86.3421 29.0009 82.6277 33.1868 82.3892L215.448 72.1548C219.634 71.9219 223.026 75.5 223.026 80.1458V221.723C223.026 226.375 219.634 230.157 215.448 230.174V230.18Z" fill="#909DFF"/>
<path d="M205.403 217.469L43.246 218.798C40.4299 218.821 38.1486 216.458 38.1486 213.522V99.4728C38.1486 96.5366 40.4299 94.0319 43.246 93.8899L205.403 85.473C208.219 85.3253 210.5 87.7334 210.5 90.8514V211.79C210.5 214.908 208.219 217.452 205.403 217.475V217.469Z" fill="#A7C2F9"/>
<path d="M90.1392 213.255L47.8622 213.675C45.3721 213.698 43.3555 211.608 43.3555 209.007V104.034C43.3555 101.432 45.3721 99.2231 47.8622 99.0982L90.1392 96.9854C92.6293 96.8605 94.6459 98.9051 94.6459 101.557V208.416C94.6459 211.063 92.6293 213.232 90.1392 213.261V213.255Z" fill="#BCCFFC"/>
<path d="M200.78 212.153L104.468 213.113C102.044 213.136 100.078 211.063 100.078 208.478V101.165C100.078 98.5812 102.044 96.3889 104.468 96.2639L200.78 91.4478C203.204 91.3285 205.17 93.4015 205.17 96.0765V207.257C205.17 209.938 203.204 212.125 200.78 212.147V212.153Z" fill="#CCDAFC"/>
<path d="M85.2976 206.883L52.574 207.28C50.4657 207.309 48.7598 205.537 48.7598 203.333V109.406C48.7598 107.203 50.4657 105.328 52.574 105.232L85.2976 103.67C87.4058 103.568 89.1118 105.3 89.1118 107.538V202.788C89.1118 205.026 87.4058 206.86 85.2976 206.883Z" fill="#D8E3FB"/>
<path d="M196.584 165.934L108.985 168.155C107.37 168.194 106.057 166.831 106.057 165.099V155.944C106.057 154.217 107.365 152.775 108.985 152.729L196.584 150.048C198.198 149.997 199.512 151.406 199.512 153.189V162.64C199.512 164.423 198.203 165.9 196.584 165.94V165.934Z" fill="#F6F8FB"/>
<path d="M82.5042 150.759L55.0461 151.628C54.1243 151.656 53.3809 150.901 53.3809 149.935V147.885C53.3809 146.919 54.1243 146.113 55.0461 146.084L82.5042 145.164C83.4259 145.136 84.1694 145.897 84.1694 146.874V148.947C84.1694 149.924 83.4259 150.736 82.5042 150.764V150.759Z" fill="#F6F8FB"/>
<path d="M82.4583 167.047L55.0919 167.757C54.1498 167.78 53.3809 166.996 53.3809 166.008V164.054C53.3809 163.066 54.1447 162.237 55.0919 162.214L82.4583 161.453C83.4004 161.424 84.1694 162.22 84.1694 163.219V165.196C84.1694 166.195 83.4055 167.03 82.4583 167.053V167.047Z" fill="#F6F8FB"/>
<path d="M82.438 175.299L55.1072 175.93C54.1549 175.953 53.3809 175.157 53.3809 174.158V172.238C53.3809 171.239 54.1549 170.409 55.1072 170.381L82.438 169.699C83.3903 169.677 84.1643 170.478 84.1643 171.488V173.431C84.1643 174.442 83.3903 175.282 82.438 175.299Z" fill="#F6F8FB"/>
<path d="M82.4329 183.557L55.1174 184.108C54.16 184.125 53.3809 183.33 53.3809 182.325V180.422C53.3809 179.417 54.16 178.582 55.1174 178.565L82.4329 177.957C83.3903 177.935 84.1694 178.741 84.1694 179.758V181.683C84.1694 182.7 83.3903 183.54 82.4329 183.557Z" fill="#F6F8FB"/>
<path d="M82.438 191.815L55.1123 192.292C54.1549 192.309 53.3809 191.509 53.3809 190.509V188.595C53.3809 187.595 54.1549 186.766 55.1123 186.749L82.438 186.221C83.3953 186.204 84.1694 187.01 84.1694 188.021V189.958C84.1694 190.969 83.3953 191.804 82.438 191.821V191.815Z" fill="#F6F8FB"/>
<path d="M82.4489 200.073L55.1028 200.471C54.1557 200.482 53.3867 199.687 53.3867 198.693V196.756C53.3867 195.762 54.1557 194.939 55.1028 194.927L82.4489 194.479C83.3961 194.462 84.1651 195.268 84.1651 196.273V198.233C84.1651 199.238 83.3961 200.067 82.4489 200.079V200.073Z" fill="#F6F8FB"/>
<path d="M196.753 143.994L108.823 146.862C107.295 146.913 106.062 145.63 106.062 144V105.63C106.062 104 107.3 102.619 108.823 102.546L196.753 98.3428C198.28 98.269 199.513 99.5753 199.513 101.256V140.859C199.513 142.54 198.275 143.943 196.753 143.994Z" fill="#F6F8FB"/>
<path d="M195.525 186.283L110.045 187.874C107.845 187.913 106.062 186.039 106.062 183.688V175.555C106.062 173.204 107.845 171.256 110.045 171.199L195.525 169.12C197.725 169.069 199.508 170.989 199.508 173.419V181.814C199.508 184.239 197.725 186.238 195.525 186.283Z" fill="#F6F8FB"/>
<path d="M195.495 205.332L110.08 206.377C107.86 206.406 106.062 204.503 106.062 202.129V195.308C106.062 192.934 107.86 190.98 110.08 190.941L195.495 189.441C197.715 189.402 199.513 191.355 199.513 193.803V200.846C199.513 203.293 197.715 205.298 195.495 205.327V205.332Z" fill="#F6F8FB"/>
<mask id="mask0_334_4530" style="mask-type:luminance" maskUnits="userSpaceOnUse" x="56" y="114" width="26" height="28">
<path d="M81.5473 127.024C81.5473 134.498 75.8285 140.757 68.7756 141.007C61.7226 141.257 56.0039 135.452 56.0039 128.041C56.0039 120.629 61.7226 114.37 68.7756 114.058C75.8285 113.746 81.5473 119.55 81.5473 127.024Z" fill="white"/>
</mask>
<g mask="url(#mask0_334_4530)">
<path d="M81.5473 127.024C81.5473 134.498 75.8285 140.757 68.7756 141.007C61.7226 141.257 56.0039 135.452 56.0039 128.041C56.0039 120.629 61.7226 114.37 68.7756 114.058C75.8285 113.746 81.5473 119.55 81.5473 127.024Z" fill="#45C0D9"/>
<path d="M79.7601 132.937C80.8499 133.221 82.0568 133.067 83.0753 132.499C81.9601 135.64 79.7856 138.184 76.6996 139.315C73.9752 140.308 71.0063 139.758 68.2157 139.224C66.6116 138.917 64.0451 137.963 63.0062 136.577C62.2831 135.612 61.6567 134.578 61.1577 133.459C59.7013 130.21 59.3855 125.968 61.504 122.742C63.4951 119.703 67.1056 118.409 70.4207 118.636C73.6289 118.857 76.3279 120.862 77.3362 124.105C77.6723 125.178 77.7894 126.32 78.0338 127.422C78.2783 128.524 78.6806 129.631 79.4546 130.392C80.2337 131.153 81.4661 131.488 82.4286 130.932C81.5323 131.948 80.2541 132.579 78.9657 132.636C79.2204 132.76 79.4852 132.857 79.7601 132.931V132.937Z" fill="url(#paint0_linear_334_4530)"/>
<path d="M82.2651 135.975C85.3765 136.412 88.4319 134.697 91.7165 131.153L90.698 129.972C87.8921 132.999 85.0404 134.209 82.6012 133.873C78.8583 133.357 76.7602 128.938 76.7398 128.893L75.7774 129.466L76.6685 128.955L74.8811 129.972C74.988 130.187 77.5088 135.299 82.2651 135.969V135.975Z" fill="#A75CD9"/>
<path d="M62.6777 140.314L73.1477 141.143L72.9185 142.393L64.2462 142.41L63.4416 141.462L62.6777 140.309V140.314Z" fill="#4AD5C2"/>
<path d="M65.7099 141.745L63.8105 140.729C63.8461 144.596 61.2643 145.431 61.1777 145.477H61.1828L61.2999 146.715C61.4171 146.652 64.9766 145.704 65.7049 141.745H65.7099Z" fill="#4AD5C2"/>
<path d="M72.5536 141.013L70.2773 142.211C73.6638 143.619 73.6027 146.908 73.6027 147.004L74.5091 146.931L73.6027 146.993L74.7383 147.345C74.7383 147.209 75.166 143.012 72.5536 141.007V141.013Z" fill="#4AD5C2"/>
<path d="M76.5729 126.218C73.7211 121.118 69.8611 120.959 65.9145 123.026C60.9698 125.61 62.0443 131.057 62.0443 131.057C62.0188 130.534 61.2601 130.33 61.1633 127.382C61.1022 125.502 61.9323 124.031 63.2767 122.719C64.1424 121.879 65.1557 121.226 66.2506 120.794C68.6084 119.857 71.18 119.897 73.436 120.908C75.7937 121.981 77.5811 124.338 76.9039 127.359C76.8377 127.643 76.6696 126.911 76.7511 127.178C76.7511 127.178 76.5678 126.224 76.5779 126.218H76.5729Z" fill="#5932CF"/>
<path d="M70.3944 132.306C73.1697 131.926 76.2302 130.114 76.5663 129.432C76.8668 128.813 76.7344 127.655 76.602 127.019C76.0826 124.537 72.523 122.844 69.4115 123.094C65.7298 123.401 62.5623 126.201 62.3841 130.091C62.3739 130.313 62.3739 130.5 62.3841 130.733C62.1498 132.511 66.5038 132.846 70.3944 132.312V132.306Z" fill="#FCDBC7"/>
<path d="M65.9389 128.756C65.9236 128.876 65.9541 128.995 66.0203 129.086C66.0865 129.177 66.1884 129.239 66.3004 129.25C66.3819 129.262 66.4685 129.245 66.5449 129.205C66.6212 129.165 66.6874 129.103 66.7282 129.023C66.774 128.944 66.7944 128.853 66.7893 128.768C66.7893 128.677 66.7536 128.592 66.7027 128.523C66.6518 128.455 66.5805 128.404 66.5041 128.376C66.4226 128.347 66.3361 128.347 66.2546 128.376C66.1731 128.399 66.0967 128.45 66.0407 128.518C65.9847 128.586 65.9491 128.671 65.9338 128.762L65.9389 128.756Z" fill="#426932"/>
<path d="M73.1657 127.762C73.1555 127.819 73.1606 127.876 73.1708 127.933C73.181 127.99 73.2064 128.041 73.237 128.086C73.2676 128.132 73.3083 128.166 73.3541 128.194C73.4 128.223 73.4509 128.24 73.5069 128.245C73.6138 128.262 73.731 128.24 73.8226 128.171C73.9194 128.103 73.9856 128.007 74.011 127.887C74.0212 127.831 74.0161 127.774 74.0059 127.717C73.9958 127.66 73.9703 127.609 73.9398 127.564C73.9092 127.518 73.8685 127.484 73.8175 127.456C73.7717 127.427 73.7208 127.41 73.6648 127.405C73.5578 127.382 73.4407 127.41 73.349 127.479C73.2523 127.547 73.1861 127.649 73.1606 127.762H73.1657Z" fill="#426932"/>
<path d="M68.1685 127.496C72.3035 126.61 71.9369 123.94 71.9369 123.94L72.5123 124.162C72.4156 127.541 67.038 127.859 67.038 127.859C67.038 127.859 64.0284 128.376 68.1634 127.496H68.1685Z" fill="#935123"/>
<path d="M76.8163 125.343C77.5496 127.269 76.6687 129.307 76.6585 129.307C76.4344 129.484 73.2975 126.116 72.2994 124.531C70.7106 126.485 67.6857 127.553 65.3941 128.382C64.7678 128.609 64.1312 128.864 63.6424 129.347C63.347 129.648 63.1076 130.006 62.9447 130.404C62.7817 130.796 62.6901 131.221 62.685 131.647C62.6697 132.09 62.3489 131.71 62.2114 131.454C61.7989 130.693 61.6461 130.069 61.5952 128.938C61.4985 126.769 62.3642 125.048 63.9581 123.549C67.7723 119.953 74.9984 120.578 76.8163 125.355V125.343Z" fill="url(#paint1_linear_334_4530)"/>
<path d="M76.6377 130.21L76.6632 129.319L72.6606 131.318C69.3607 131.999 67.6089 132.278 64.3091 131.607C63.0818 131.363 61.4217 130.562 61.4217 130.562L62.6693 141.149L74.2952 141.7L76.6377 130.21Z" fill="#A75CD9"/>
<path d="M70.4186 135.986L69.3594 135.833C69.5223 135.129 69.67 134.237 69.6293 132.175L70.6987 132.113C70.7343 134.18 70.5968 135.157 70.4135 135.986H70.4186Z" fill="#5932CF"/>
<path d="M71.669 133.709L70.1362 132.192L68.7154 133.993L61.1074 130.511L61.3519 130.227C61.3519 130.227 62.2328 130.756 63.8471 131.17C71.2311 133.005 76.7207 129.035 76.7207 129.035L76.9855 129.109L71.669 133.715V133.709Z" fill="#F2F2F2"/>
<path d="M70.425 133.181C70.4352 133.033 70.3282 132.902 70.1856 132.897C70.043 132.897 69.9208 133.01 69.9106 133.158C69.9005 133.306 70.0074 133.436 70.15 133.442C70.2926 133.442 70.4148 133.328 70.425 133.181Z" fill="#7589A1"/>
<path d="M70.3666 134.362C70.3767 134.214 70.2698 134.084 70.1272 134.078C69.9846 134.078 69.8624 134.192 69.8522 134.339C69.842 134.487 69.949 134.618 70.0916 134.623C70.2342 134.623 70.3564 134.51 70.3666 134.362Z" fill="#7589A1"/>
<path d="M71.3427 129.325C71.195 129.449 70.8436 129.694 70.4413 129.819C69.9168 129.983 69.5552 129.932 69.4483 129.858C69.3974 129.824 69.3668 129.733 69.3566 129.648C69.3465 129.66 69.3312 129.671 69.321 129.688C69.0562 130.012 69.4279 130.409 69.7233 130.534C70.0136 130.659 70.7927 130.585 71.2306 130.262C71.6126 129.978 71.6227 129.489 71.3478 129.319L71.3427 129.325Z" fill="#BD2A1D"/>
<path d="M69.4491 129.864C69.5611 129.938 69.9227 129.989 70.4421 129.824C70.8444 129.693 71.1907 129.455 71.3434 129.33C71.3027 129.301 71.2569 129.284 71.2009 129.273C70.9106 129.222 70.4625 129.529 70.1213 129.585C69.7954 129.637 69.5866 129.426 69.3574 129.659C69.3727 129.744 69.3982 129.835 69.4491 129.869V129.864Z" fill="#F6F6F7"/>
<path d="M70.599 140.416L71.648 132.84C71.7193 132.425 71.3017 132.437 71.3017 132.437L68.6537 132.124L66.6422 131.886L66.0056 131.812C66.0056 131.812 65.6084 131.704 65.5626 132.124L65.5066 132.522L64.5034 139.689C64.5034 139.689 64.427 140.03 64.7631 140.059L67.5028 140.388L70.2425 140.717C70.5735 140.768 70.5939 140.422 70.5939 140.422L70.599 140.416Z" fill="#5932CF"/>
<path d="M67.5701 139.922C67.4937 139.911 67.4275 139.968 67.4173 140.047C67.4071 140.127 67.458 140.195 67.5344 140.206C67.6108 140.218 67.677 140.161 67.6872 140.081C67.6974 140.002 67.6465 139.934 67.5701 139.922Z" fill="#AB7AA1"/>
<path d="M71.1344 132.954L66.0319 132.352L65.2578 137.917L71.002 133.936L71.1344 132.954Z" fill="white"/>
<path d="M65.2588 137.917L65.0449 139.468L70.1424 140.081L71.003 133.936L65.2588 137.917Z" fill="#EBEBEB"/>
<path d="M64.8857 138.775C63.4547 139.604 62.0594 140.246 59.9003 139.905C58.4846 139.684 57.6087 138.974 57.1147 137.912C56.0046 135.532 58.179 132.516 60.2262 131.125C60.3739 131.023 60.715 130.79 61.0562 130.71C61.54 130.597 62.1154 131.204 62.1154 131.21C62.2377 131.369 63.027 131.159 61.0613 132.539C57.904 134.748 57.7207 137.974 60.435 138.281C61.9474 138.451 63.3325 137.9 64.3103 137.02L64.8653 137.861C64.9672 137.906 65.3135 138.536 64.8857 138.781V138.775Z" fill="#A75CD9"/>
<path d="M64.681 137.009C64.737 136.918 64.8287 136.815 64.8949 136.849C64.9356 136.872 64.9356 136.929 64.9356 136.986C64.9356 137.156 64.9203 137.332 64.8898 137.514C64.8898 137.491 64.1463 137.946 64.0801 137.997C64.1972 137.667 64.4875 137.315 64.681 137.014V137.009Z" fill="#FCDDD1"/>
<path d="M64.5212 139.053C64.8573 138.962 65.1985 138.866 65.5346 138.803C65.6364 138.781 65.7434 138.758 65.8452 138.741C65.9165 138.73 66.0744 138.747 66.1406 138.696C66.2322 138.622 66.2068 138.542 66.1609 138.485C66.0897 138.4 65.9573 138.429 65.8503 138.429C65.8147 138.429 65.6262 138.463 65.6262 138.394C65.6262 138.292 65.8045 138.27 65.9267 138.253C65.9623 138.253 66.1406 138.241 66.1711 138.253C66.2271 138.275 66.2883 138.264 66.3494 138.253C66.385 138.253 66.4308 138.23 66.4461 138.179C66.4563 138.145 66.4461 138.111 66.4359 138.088C66.4105 138.031 66.3697 137.991 66.329 137.957C66.1355 137.798 65.8809 137.934 65.6466 137.923C65.6364 137.923 65.6313 137.923 65.6262 137.912C65.6008 137.844 65.886 137.77 65.9114 137.764C65.9471 137.753 65.9776 137.741 66.0133 137.747C66.0438 137.747 66.1558 137.747 66.1864 137.764C66.2475 137.804 66.3545 137.775 66.4308 137.775C66.4563 137.775 66.492 137.77 66.5021 137.73C66.5072 137.713 66.5021 137.696 66.5021 137.679C66.4869 137.577 66.3697 137.52 66.3086 137.463C66.1508 137.315 66.0591 137.355 65.886 137.355C65.7637 137.355 65.5702 137.44 65.4684 137.389C65.6568 137.207 65.9216 137.168 66.11 137.202C66.1457 137.207 66.1966 137.213 66.2221 137.162C66.3545 136.901 65.8809 136.821 65.8045 136.85C65.5651 136.941 65.3156 137.026 65.0763 137.156C64.8166 137.293 64.6078 137.497 64.3684 137.696C64.18 137.855 63.9712 138.065 63.9101 138.383C63.8643 138.644 63.9865 139.019 64.1495 139.076C64.2513 139.11 64.3837 139.082 64.5212 139.048V139.053Z" fill="#FCDDD1"/>
</g>
<path d="M189.84 244.379H165.112C163.008 244.379 161.303 246.281 161.303 248.627V250.813C161.303 253.16 163.008 255.062 165.112 255.062H189.84C191.944 255.062 193.65 253.16 193.65 250.813V248.627C193.65 246.281 191.944 244.379 189.84 244.379Z" fill="#576DAD"/>
<path d="M178.832 250.319H176.123V270.095H178.832V250.319Z" fill="#576DAD"/>
<path d="M187.355 268.999H166.863V270.51H187.355V268.999Z" fill="#576DAD"/>
<path d="M192.494 227.289C192.545 226.84 192.586 226.011 192.606 225.568C192.937 217.878 188.054 213.107 181.546 212.153C174.651 211.142 167.654 214.908 167.725 224.25C167.745 226.551 171.152 227.283 174.075 228.891C176.805 230.396 175.374 229.629 178.837 230.14C185.752 231.157 191.797 233.275 192.489 227.289H192.494Z" fill="#FBD9C6"/>
<path d="M185.298 222.637C185.277 222.149 184.906 221.769 184.473 221.797C184.04 221.825 183.709 222.246 183.729 222.734C183.75 223.222 184.122 223.603 184.554 223.575C184.987 223.546 185.318 223.126 185.298 222.637Z" fill="#3E2414"/>
<path d="M178.503 206.377C176.675 206.729 174.923 207.559 173.08 207.792C171.216 208.024 168.364 208.036 167.152 206.326C165.711 209.439 167.234 213.931 169.515 214.794C167.438 216.004 166.674 221.189 167.692 223.688C167.901 221.502 168.721 219.491 169.714 218.531C171.634 216.68 174.088 216.822 176.415 217.271C179.094 217.787 181.757 218.31 184.487 218.168C185.342 218.122 186.193 218.02 187.033 217.833C187.333 217.77 189.37 217.401 189.437 217.072C188.647 221.161 191.484 227.198 192.018 227.13C192.1 227.119 193.159 225.761 194.025 224.347C194.926 222.876 195.619 220.088 195.374 218.196C195.069 215.851 194.259 215.169 192.502 214.34C191.453 213.846 191.28 214.402 190.781 213.238C190.124 211.716 188.714 209.91 187.522 208.927C184.95 206.803 181.655 205.77 178.498 206.372L178.503 206.377Z" fill="#663115"/>
<path d="M181.856 220.4C181.856 220.4 188.593 220.298 189.917 216.095C191.241 211.892 190.548 217.1 190.548 217.1C190.548 217.1 189.158 220.9 181.856 220.4Z" fill="#663115"/>
<path d="M169.881 203.992C169.881 203.992 169.83 211.04 176.455 209.251C182.49 207.621 177.285 206.639 177.285 206.639C177.285 206.639 171.566 209.393 169.881 203.992Z" fill="#663115"/>
<path d="M191.411 209.87C191.411 209.87 189.14 211.994 191.487 215.05C193.835 218.105 193.066 214.845 193.066 214.845C193.066 214.845 190.245 213.681 191.411 209.87Z" fill="#663115"/>
<path d="M194.46 211.733C194.46 211.733 193.828 215.021 190.401 213.976C186.974 212.926 190.111 212.96 190.111 212.96C190.111 212.96 192.02 214.641 194.46 211.739V211.733Z" fill="#663115"/>
<path d="M169.01 244.782L187.602 246.366L193.372 226.375C193.372 226.375 190.143 228.164 187.923 228.436C183.549 228.976 180.799 229.555 177.524 228.84C176.317 228.573 174.657 227.965 173.313 227.448C168.322 225.523 167.238 223.512 167.238 223.512L167.156 223.836L169.01 244.787V244.782Z" fill="#057CFF"/>
<path d="M173.062 220.723C173.036 220.263 172.659 219.906 172.221 219.928C171.783 219.951 171.452 220.343 171.478 220.803C171.503 221.263 171.88 221.621 172.318 221.598C172.756 221.575 173.087 221.189 173.062 220.723Z" fill="#3E2414"/>
<path d="M177.66 230.657C177.69 230.37 177.511 230.111 177.259 230.078C177.008 230.046 176.78 230.251 176.75 230.538C176.72 230.825 176.899 231.083 177.151 231.116C177.402 231.149 177.63 230.943 177.66 230.657Z" fill="#7588A0"/>
<path d="M177.537 232.905C177.567 232.619 177.388 232.36 177.136 232.327C176.885 232.294 176.657 232.5 176.627 232.787C176.597 233.073 176.776 233.332 177.027 233.365C177.279 233.398 177.507 233.192 177.537 232.905Z" fill="#7588A0"/>
<path d="M176.489 228.516L178.368 228.805C177.889 232.713 177.965 234.445 178.108 235.814L176.209 235.927C176.051 234.32 176.005 232.434 176.489 228.516Z" fill="#96CAE1"/>
<path d="M177.646 231.004C177.677 230.717 177.497 230.458 177.246 230.425C176.994 230.392 176.766 230.598 176.736 230.885C176.706 231.171 176.885 231.43 177.137 231.463C177.388 231.496 177.616 231.29 177.646 231.004Z" fill="white"/>
<path d="M177.529 233.258C177.559 232.971 177.38 232.712 177.128 232.68C176.877 232.647 176.649 232.853 176.619 233.139C176.589 233.426 176.768 233.685 177.02 233.718C177.271 233.75 177.499 233.545 177.529 233.258Z" fill="white"/>
<path style="mix-blend-mode:hard-light" opacity="0.67" d="M189.045 219.355C188.297 218.1 186.596 217.918 185.374 217.668C184.055 217.395 181.045 217.151 180.271 218.741C179.782 219.747 180.088 222.03 180.414 223.098C180.831 224.438 181.692 225.085 182.838 225.392C184.61 225.858 187.289 226.448 188.419 224.177C189.03 222.95 189.794 220.951 189.173 219.599C189.137 219.519 189.091 219.434 189.045 219.36V219.355Z" fill="url(#paint2_linear_334_4530)"/>
<path style="mix-blend-mode:hard-light" opacity="0.67" d="M176.698 217.322C175.949 216.066 174.248 215.885 173.026 215.635C171.707 215.362 168.698 215.118 167.924 216.708C167.435 217.713 167.74 219.997 168.066 221.064C168.484 222.405 169.345 223.052 170.49 223.359C172.262 223.825 174.941 224.415 176.072 222.143C176.683 220.917 177.447 218.917 176.825 217.566C176.79 217.486 176.744 217.401 176.698 217.327V217.322Z" fill="url(#paint3_linear_334_4530)"/>
<path d="M184.335 216.873C182.477 216.691 181.244 216.822 178.932 216.873C176.732 216.078 175.587 215.555 173.759 215.129C171.732 214.658 168.457 214.391 167.215 214.601C167.215 214.601 166.97 216.731 166.812 218.878C166.812 218.878 167.368 219.247 167.505 220.059C167.643 220.871 167.49 223.41 170.861 224.035C174.41 224.688 176.076 224.756 177.374 220.564C177.374 220.564 177.736 219.241 178.622 219.218C179.462 219.525 179.472 220.911 179.472 220.911C179.635 225.341 181.249 225.812 184.814 226.335C188.206 226.829 188.715 224.353 189.051 223.614C189.392 222.876 190.018 222.706 190.018 222.706C190.416 220.598 190.731 218.48 190.731 218.48C189.601 217.878 186.393 217.077 184.33 216.873H184.335ZM176.819 219.57C176.748 219.86 176.661 220.144 176.559 220.422C176.172 221.507 175.648 222.671 174.65 223.166C174.41 223.285 174.156 223.359 173.896 223.398C172.883 223.552 171.742 223.33 170.759 223.058C170.25 222.916 169.751 222.7 169.328 222.342C168.905 221.984 168.595 221.479 168.417 220.911C168.08 219.849 168.045 218.435 168.299 217.344C168.513 216.43 169.119 215.794 169.965 215.754C171.329 215.691 172.878 215.924 174.191 216.282C175.128 216.538 176.152 216.85 176.738 217.838C176.885 218.088 176.936 218.389 176.936 218.684C176.936 218.986 176.885 219.281 176.819 219.57ZM187.961 224.125C187.645 224.608 187.213 224.994 186.719 225.199C186.225 225.409 185.69 225.454 185.165 225.426C184.152 225.369 183.001 225.21 182.074 224.739C181.835 224.62 181.611 224.466 181.412 224.273C180.582 223.484 180.384 222.2 180.292 221.036C180.267 220.735 180.256 220.434 180.261 220.138C180.272 219.837 180.302 219.536 180.379 219.252C180.455 218.968 180.582 218.696 180.786 218.503C181.601 217.742 182.66 217.776 183.622 217.833C184.972 217.912 186.515 218.185 187.808 218.69C188.608 219.003 189.025 219.803 188.99 220.752C188.949 221.882 188.552 223.222 187.956 224.131L187.961 224.125Z" fill="#0F153D"/>
<path d="M181.285 225.148C180.965 225.278 180.247 225.483 179.493 225.443C178.515 225.386 177.924 225.04 177.777 224.824C177.705 224.727 177.705 224.54 177.726 224.37C177.7 224.387 177.67 224.398 177.644 224.421C177.018 224.841 177.451 225.835 177.879 226.278C178.306 226.715 179.666 227.118 180.583 226.823C181.377 226.568 181.652 225.659 181.28 225.148H181.285Z" fill="#BC2D26"/>
<path d="M177.777 224.83C177.925 225.04 178.516 225.392 179.494 225.449C180.247 225.489 180.965 225.284 181.286 225.154C181.23 225.074 181.159 225.006 181.072 224.949C180.609 224.648 179.677 224.909 179.066 224.773C178.485 224.642 178.246 224.103 177.727 224.381C177.706 224.552 177.706 224.733 177.777 224.836V224.83Z" fill="#F5F5F6"/>
<path d="M175.786 243.14C176.26 243.958 177.594 245.389 177.141 246.287C176.479 247.604 173.979 246.474 170.933 245.719C160.041 241.437 161.11 252.835 161.11 252.835L159.246 252.773C159.246 252.773 159.043 250.592 159.19 247.991C159.384 244.628 161.334 242.72 164.273 241.63C165.948 241.005 169.187 240.698 170.933 241.124C170.837 241.096 171.03 241.147 170.933 241.124C171.835 241.442 175.277 242.249 175.786 243.14Z" fill="#043296"/>
<path d="M188.591 243.038C188.607 243.6 187.695 246.667 187.466 247.173C187.201 247.752 185.21 247.616 181.029 246.923C178.32 246.417 178.773 246.542 173.803 245.787C173.803 245.787 166.995 244.259 167.534 243.964C169.154 243.089 168.751 241.317 168.751 241.317C168.843 240.551 169.648 240.374 179.843 242.01C184.808 242.516 188.591 243.044 188.591 243.044L187.435 245.316" fill="#043296"/>
<path d="M188.251 243.901C187.971 245.838 187.833 246.644 186.912 247.655C185.924 248.734 182.909 247.44 180.628 246.934C173.875 243.986 173.58 255.573 173.58 255.573L171.609 254.59C171.609 254.59 171.212 255.328 171.859 249.762C172.246 246.451 174.293 242.606 177.374 242.135C178.356 241.987 179.507 242.044 180.48 242.226C181.279 242.374 187.803 243.43 188.246 243.901H188.251Z" fill="#043296"/>
<path d="M156.501 254.21C156.501 254.21 156.501 254.238 156.501 254.249L161.212 254.278C161.212 254.278 161.212 254.249 161.212 254.238C161.212 254.159 161.212 254.085 161.201 254.005L156.511 253.977C156.501 254.051 156.501 254.13 156.496 254.21H156.501Z" fill="white"/>
<path d="M158.869 251.927C157.743 251.921 156.796 252.688 156.557 253.716L161.16 253.744C160.931 252.71 159.994 251.932 158.869 251.927Z" fill="white"/>
<path d="M156.558 253.716C156.537 253.801 156.522 253.886 156.512 253.977L161.202 254.005C161.192 253.914 161.176 253.829 161.161 253.744L156.558 253.716Z" fill="#B2202B"/>
<path d="M159.066 252.813C159.066 252.943 158.974 253.051 158.857 253.045C158.74 253.045 158.648 252.937 158.648 252.807C158.648 252.676 158.74 252.574 158.857 252.574C158.974 252.574 159.066 252.682 159.066 252.813Z" fill="#211E1F"/>
<path d="M159.129 252.307C159.536 251.563 159.577 251.37 160.371 251.824C160.916 252.136 161.033 252.386 160.596 252.835C160.219 252.636 159.832 252.409 159.424 252.307H159.129Z" fill="white"/>
<path d="M159.99 252.568C159.99 252.67 159.914 252.756 159.827 252.756C159.735 252.756 159.664 252.67 159.664 252.568C159.664 252.466 159.74 252.381 159.827 252.386C159.919 252.386 159.99 252.472 159.99 252.574V252.568Z" fill="#211E1F"/>
<path d="M168.931 255.471C168.931 255.471 168.931 255.493 168.926 255.51L173.473 256.879C173.473 256.879 173.483 256.856 173.483 256.839C173.504 256.765 173.514 256.686 173.524 256.612L168.997 255.249C168.972 255.323 168.951 255.397 168.931 255.471Z" fill="white"/>
<path d="M171.748 253.937C170.659 253.607 169.569 254.079 169.105 255.01L173.546 256.351C173.561 255.289 172.833 254.266 171.748 253.943V253.937Z" fill="white"/>
<path d="M169.102 255.005C169.061 255.084 169.025 255.164 169 255.243L173.527 256.606C173.537 256.515 173.542 256.43 173.548 256.339L169.107 254.999L169.102 255.005Z" fill="#B2202B"/>
<path d="M171.736 254.851C171.705 254.976 171.593 255.05 171.481 255.022C171.369 254.988 171.303 254.857 171.334 254.732C171.364 254.607 171.476 254.533 171.588 254.567C171.7 254.601 171.766 254.732 171.736 254.857V254.851Z" fill="#211E1F"/>
<path d="M171.908 254.38C172.473 253.778 172.555 253.602 173.222 254.266C173.675 254.721 173.731 254.999 173.207 255.311C172.886 255.01 172.565 254.681 172.193 254.471L171.908 254.386V254.38Z" fill="white"/>
<path d="M172.684 254.874C172.658 254.971 172.572 255.033 172.48 255.005C172.393 254.976 172.343 254.88 172.368 254.778C172.393 254.681 172.48 254.619 172.567 254.647C172.653 254.675 172.704 254.772 172.679 254.874H172.684Z" fill="#211E1F"/>
<path d="M185.065 240.193C184.388 240.062 183.415 239.437 182.702 239.517C181.989 239.596 181.327 240.374 181.022 240.119C181.062 239.517 181.658 239.432 181.928 238.96C181.689 239.102 180.487 239.789 180.365 239.517C180.182 239.125 181.694 238.443 181.943 238.159C181.984 238.114 180.991 238.421 180.375 238.818C179.942 238.886 179.978 238.699 180.013 238.557C180.105 238.211 180.798 237.773 181.2 237.552C182.626 236.978 180.838 237.092 179.738 237.512C179.28 236.365 182.595 236.03 183.833 236.495C184.403 236.711 186.807 237.694 186.842 238.619C186.853 238.977 186.725 239.619 186.649 239.994C186.323 240.102 185.89 240.352 185.07 240.193H185.065Z" fill="#FBD9C6"/>
<path d="M169.932 240.17C170.614 240.107 171.638 239.585 172.34 239.738C173.043 239.892 173.639 240.738 173.96 240.511C173.97 239.909 173.384 239.755 173.155 239.261C173.379 239.426 174.52 240.232 174.668 239.977C174.882 239.608 173.435 238.773 173.211 238.46C173.176 238.415 174.138 238.818 174.714 239.278C175.141 239.392 175.121 239.199 175.095 239.057C175.029 238.705 174.383 238.193 173.996 237.932C172.626 237.217 174.393 237.512 175.452 238.046C176.002 236.95 172.733 236.274 171.46 236.609C170.874 236.762 168.399 237.495 168.287 238.415C168.246 238.767 168.323 239.42 168.368 239.801C168.684 239.943 169.092 240.238 169.927 240.164L169.932 240.17Z" fill="#FBD9C6"/>
<path d="M184.992 240.613C187.482 242.243 189.575 243.788 193.363 243.493C195.849 243.299 197.427 242.067 198.547 240.233C201.195 235.916 198.191 230.259 194.927 227.369C194.687 227.158 193.725 226.46 193.15 226.261C192.335 225.977 191.23 227.022 191.23 227.022C190.99 227.3 190.481 227.891 192.783 229.64C198.135 233.713 197.478 240.25 192.747 240.386C190.104 240.465 187.971 238.875 186.458 237.097C186.458 237.097 184.543 240.323 184.986 240.613H184.992Z" fill="#057CFF"/>
<path d="M169.799 240.369C167.085 241.101 164.346 241.436 161.112 239.221C158.988 237.773 158.23 235.683 158.077 233.463C157.731 228.476 162.986 224.83 167.08 223.944C167.381 223.881 167.824 224.052 168.312 224.438C169.031 225.006 169.499 225.665 169.499 225.665C169.596 226.034 169.713 226.375 167.574 227.033C161.331 228.964 159.019 234.025 163.159 236.581C165.471 238.012 168.002 237.512 170.08 236.711C170.08 236.711 170.222 240.249 169.81 240.357L169.799 240.369Z" fill="#057CFF"/>
<path d="M167.155 223.836L167.334 223.075C167.334 223.075 174.341 231.736 187.678 227.783C190.341 227.141 192.755 225.875 192.755 225.875L193.157 226.267C193.157 226.267 188.37 230.367 179.637 232.253C179.347 232.315 177.483 228.606 177.483 228.606L174.458 231.242L167.15 223.841L167.155 223.836Z" fill="#F2F2F2"/>
<path d="M202.651 244.759H136.557L135.91 240.096H203.298L202.651 244.759Z" fill="#7B98F4"/>
<path d="M201.466 273.844L200.386 274.378L184.834 241.062L185.914 240.534L201.466 273.844Z" fill="#7B98F4"/>
<path d="M183.766 273.843L184.845 274.377L200.397 241.062L199.313 240.533L183.766 273.843Z" fill="#7B98F4"/>
<path d="M158.333 273.844L157.253 274.378L141.701 241.062L142.781 240.534L158.333 273.844Z" fill="#7B98F4"/>
<path d="M140.627 273.844L141.712 274.378L157.259 241.062L156.179 240.534L140.627 273.844Z" fill="#7B98F4"/>
<path d="M174.507 238H154.953C154.514 238 154.158 238.397 154.158 238.886V239.239C154.158 239.728 154.514 240.125 154.953 240.125H174.507C174.946 240.125 175.302 239.728 175.302 239.239V238.886C175.302 238.397 174.946 238 174.507 238Z" fill="#534F78"/>
<path d="M162.749 240.057H143.464C141.967 240.057 141.463 238.989 140.75 237.029L135.148 222.32C134.435 220.286 135.342 219.292 136.844 219.292H157.147C158.645 219.292 159.159 220.286 159.862 222.32L165.463 237.029C165.85 238.608 165.341 239.835 162.749 240.057Z" fill="#534F78"/>
<path d="M143.814 229.435V229.413C143.814 229.413 143.809 229.379 143.799 229.362C143.789 229.35 143.773 229.339 143.758 229.339H142.958C142.923 229.339 142.897 229.35 142.877 229.373C142.862 229.396 142.852 229.424 142.852 229.464V231.219C142.852 231.259 142.857 231.287 142.872 231.31C142.887 231.332 142.913 231.344 142.953 231.344H143.753C143.753 231.344 143.783 231.338 143.794 231.321C143.804 231.31 143.809 231.293 143.809 231.27V231.247C143.809 231.247 143.804 231.207 143.794 231.196C143.783 231.185 143.768 231.179 143.753 231.179H142.989V229.509H143.753C143.753 229.509 143.783 229.504 143.794 229.492C143.804 229.481 143.809 229.464 143.809 229.441L143.814 229.435Z" fill="white"/>
<path d="M149.182 229.487C149.182 229.487 149.197 229.458 149.197 229.435V229.413C149.197 229.413 149.192 229.379 149.182 229.362C149.171 229.35 149.156 229.339 149.141 229.339H148.341C148.306 229.339 148.28 229.35 148.26 229.373C148.245 229.396 148.234 229.424 148.234 229.464V231.219C148.234 231.259 148.239 231.287 148.255 231.31C148.27 231.332 148.295 231.344 148.336 231.344H149.136C149.136 231.344 149.166 231.338 149.176 231.321C149.187 231.31 149.192 231.293 149.192 231.27V231.247C149.192 231.247 149.187 231.207 149.176 231.196C149.166 231.185 149.151 231.179 149.136 231.179H148.372V229.509H149.136C149.136 229.509 149.166 229.504 149.176 229.492" fill="white"/>
<path d="M154.689 229.487C154.689 229.487 154.705 229.458 154.705 229.435V229.413C154.705 229.413 154.7 229.379 154.689 229.362C154.679 229.35 154.664 229.339 154.649 229.339H153.849C153.813 229.339 153.788 229.35 153.768 229.373C153.752 229.396 153.742 229.424 153.742 229.464V231.219C153.742 231.259 153.747 231.287 153.763 231.31C153.778 231.332 153.803 231.344 153.844 231.344H154.644C154.644 231.344 154.674 231.338 154.684 231.321C154.694 231.31 154.7 231.293 154.7 231.27V231.247C154.7 231.247 154.694 231.207 154.684 231.196C154.674 231.185 154.659 231.179 154.644 231.179H153.88V229.509H154.644C154.644 229.509 154.674 229.504 154.684 229.492" fill="white"/>
<path d="M156.933 230.441C157.096 230.441 157.218 230.384 157.295 230.276C157.371 230.168 157.407 230.037 157.407 229.895C157.407 229.532 157.208 229.344 156.821 229.344H156.495C156.449 229.344 156.424 229.356 156.409 229.379C156.393 229.401 156.383 229.435 156.383 229.492V231.281C156.383 231.281 156.393 231.349 156.449 231.349H156.459C156.51 231.349 156.526 231.298 156.526 231.281V229.515H156.821C157.121 229.515 157.269 229.64 157.269 229.901C157.269 229.986 157.249 230.066 157.203 230.145C157.183 230.185 157.147 230.219 157.101 230.242C157.055 230.265 156.999 230.282 156.933 230.282H156.826C156.75 230.282 156.729 230.338 156.729 230.384C156.729 230.407 156.74 230.435 156.76 230.463L157.31 231.321C157.34 231.355 157.371 231.366 157.407 231.349C157.447 231.327 157.458 231.27 157.427 231.224L156.928 230.446L156.933 230.441Z" fill="white"/>
<path d="M143.152 230.276C143.152 230.276 143.121 230.282 143.111 230.293C143.101 230.304 143.096 230.316 143.096 230.333V230.355C143.096 230.389 143.116 230.412 143.152 230.412H143.636C143.671 230.412 143.692 230.389 143.692 230.355V230.333C143.692 230.333 143.687 230.304 143.676 230.293C143.666 230.282 143.651 230.276 143.636 230.276H143.152Z" fill="white"/>
<path d="M148.542 230.276C148.542 230.276 148.512 230.282 148.502 230.293C148.491 230.305 148.486 230.316 148.486 230.333V230.356C148.486 230.39 148.507 230.412 148.542 230.412H149.026C149.062 230.412 149.082 230.39 149.082 230.356V230.333C149.082 230.333 149.077 230.305 149.067 230.293C149.057 230.282 149.041 230.276 149.026 230.276H148.542Z" fill="white"/>
<path d="M154.05 230.276C154.05 230.276 154.02 230.282 154.01 230.293C153.999 230.305 153.994 230.316 153.994 230.333V230.356C153.994 230.39 154.015 230.412 154.05 230.412H154.534C154.57 230.412 154.59 230.39 154.59 230.356V230.333C154.59 230.333 154.585 230.305 154.575 230.293C154.565 230.282 154.549 230.276 154.534 230.276H154.05Z" fill="white"/>
<path d="M145.624 231.179V229.413C145.624 229.413 145.619 229.379 145.609 229.362C145.599 229.35 145.578 229.339 145.558 229.339H145.548C145.548 229.339 145.512 229.345 145.502 229.362C145.492 229.373 145.487 229.39 145.487 229.413V231.213C145.487 231.304 145.522 231.349 145.593 231.349H146.388C146.388 231.349 146.418 231.344 146.429 231.327C146.439 231.315 146.444 231.298 146.444 231.276V231.253C146.444 231.207 146.424 231.185 146.388 231.185H145.624V231.179Z" fill="white"/>
<path d="M152.013 229.344C152.013 229.344 151.993 229.344 151.983 229.344C151.957 229.344 151.937 229.362 151.921 229.39L151.382 231.111L151.168 230.401C151.152 230.344 151.127 230.333 151.091 230.333H150.827C150.827 230.333 150.791 230.338 150.781 230.355C150.771 230.367 150.765 230.384 150.765 230.407V230.429C150.765 230.475 150.786 230.497 150.827 230.497H151.03L151.275 231.258C151.295 231.315 151.331 231.349 151.387 231.349C151.443 231.349 151.478 231.321 151.499 231.264L152.074 229.441C152.089 229.39 152.054 229.362 152.013 229.35" fill="white"/>
<path d="M153.299 60.7163H138.475C133.916 60.7163 130.221 64.8382 130.221 69.9227V85.8706C130.221 90.9551 133.916 95.077 138.475 95.077H153.299C157.858 95.077 161.554 90.9551 161.554 85.8706V69.9227C161.554 64.8382 157.858 60.7163 153.299 60.7163Z" fill="#8A332B"/>
<path d="M150.508 60.7166H135.685C131.126 60.7166 127.43 64.8384 127.43 69.9229V85.8708C127.43 90.9554 131.126 95.0772 135.685 95.0772H150.508C155.067 95.0772 158.763 90.9554 158.763 85.8708V69.9229C158.763 64.8384 155.067 60.7166 150.508 60.7166Z" fill="#FF7666"/>
<path d="M133.592 79.0496L139.947 83.2978V80.6512L135.848 78.067L139.947 75.4772V72.8306L133.592 77.0845V79.0496Z" fill="#525DFF"/>
<path d="M141.182 85.0188H142.928L145.276 70.3374H143.529L141.182 85.0188Z" fill="#FFD633"/>
<path d="M146.383 72.8308V75.4774L150.569 78.0673L146.383 80.6514V83.298L152.738 79.1009V77.0279L146.383 72.8308Z" fill="#52E5FF"/>
<path d="M194.255 121.236C192.615 126.706 187.309 129.659 182.405 127.825C177.501 125.996 174.853 120.078 176.498 114.609C178.138 109.139 183.444 106.186 188.348 108.02C193.252 109.849 195.9 115.767 194.255 121.236Z" fill="#00CE64"/>
<path d="M193.264 110.429C188.584 113.405 182.957 120.475 182.957 120.475L179.066 118.209L182.748 124.173C186.909 116.88 193.595 111.28 193.595 111.28L193.259 110.423L193.264 110.429Z" fill="white"/>
<path d="M200.906 33.3245H184.457C179.395 33.3245 175.291 37.9015 175.291 43.5475V61.239C175.291 66.885 179.395 71.462 184.457 71.462H200.906C205.968 71.462 210.072 66.885 210.072 61.239V43.5475C210.072 37.9015 205.968 33.3245 200.906 33.3245Z" fill="#007887"/>
<path d="M197.808 33.3245H181.36C176.297 33.3245 172.193 37.9015 172.193 43.5475V61.239C172.193 66.885 176.297 71.462 181.36 71.462H197.808C202.87 71.462 206.974 66.885 206.974 61.239V43.5475C206.974 37.9015 202.87 33.3245 197.808 33.3245Z" fill="#00D3F0"/>
<path d="M182.666 46.5293C184.163 46.5293 185.375 45.1765 185.375 43.5078C185.375 41.8391 184.163 40.4863 182.666 40.4863C181.17 40.4863 179.957 41.8391 179.957 43.5078C179.957 45.1765 181.17 46.5293 182.666 46.5293Z" fill="#A12CE8"/>
<path d="M190.312 48.767L185.611 56.8432C184.924 58.0188 185.683 59.5806 186.945 59.5806H196.346C197.604 59.5806 198.363 58.0245 197.68 56.8432L192.98 48.767C192.354 47.6936 190.943 47.6936 190.317 48.767H190.312Z" fill="#7200FF"/>
<path d="M185.141 51.5555L181.638 57.5757C181.134 58.439 181.689 59.5805 182.616 59.5805H189.623C190.544 59.5805 191.099 58.439 190.6 57.5757L187.097 51.5555C186.638 50.766 185.605 50.766 185.146 51.5555H185.141Z" fill="url(#paint4_linear_334_4530)"/>
<path d="M198.884 62.1873H181.387C180.864 62.1873 180.439 62.6602 180.439 63.2436C180.439 63.8271 180.864 64.3 181.387 64.3H198.884C199.407 64.3 199.831 63.8271 199.831 63.2436C199.831 62.6602 199.407 62.1873 198.884 62.1873Z" fill="#A12CE8"/>
<path d="M121.295 95.0203H108.253C104.24 95.0203 100.986 98.6488 100.986 103.125V117.153C100.986 121.629 104.24 125.258 108.253 125.258H121.295C125.308 125.258 128.562 121.629 128.562 117.153V103.125C128.562 98.6488 125.308 95.0203 121.295 95.0203Z" fill="#3B3894"/>
<path d="M118.84 95.02H105.798C101.785 95.02 98.5314 98.6486 98.5314 103.125V117.153C98.5314 121.629 101.785 125.257 105.798 125.257H118.84C122.853 125.257 126.107 121.629 126.107 117.153V103.125C126.107 98.6486 122.853 95.02 118.84 95.02Z" fill="#6661FF"/>
<path d="M109.084 101.273H106.594V118.528H109.084V101.273Z" fill="url(#paint5_linear_334_4530)"/>
<path d="M113.844 103.244H111.354V118.528H113.844V103.244Z" fill="url(#paint6_linear_334_4530)"/>
<path d="M118.578 105.59H116.088V118.528H118.578V105.59Z" fill="url(#paint7_linear_334_4530)"/>
<path d="M154.86 126.042H140.036C135.477 126.042 131.781 130.163 131.781 135.248V151.196C131.781 156.28 135.477 160.402 140.036 160.402H154.86C159.419 160.402 163.115 156.28 163.115 151.196V135.248C163.115 130.163 159.419 126.042 154.86 126.042Z" fill="#995700"/>
<path d="M152.071 126.042H137.247C132.688 126.042 128.992 130.163 128.992 135.248V151.196C128.992 156.28 132.688 160.402 137.247 160.402H152.071C156.63 160.402 160.326 156.28 160.326 151.196V135.248C160.326 130.163 156.63 126.042 152.071 126.042Z" fill="#FFD633"/>
<path d="M144.853 150.334C149.641 150.034 153.358 146.519 153.155 142.482C152.952 138.445 148.906 135.416 144.118 135.715C139.33 136.015 135.614 139.53 135.817 143.567C136.02 147.603 140.066 150.633 144.853 150.334Z" fill="#3B3894"/>
<path d="M140.87 145.477C140.87 145.477 139.887 152.491 140.702 152.513C141.252 152.525 144.954 147.93 145.504 146.186C146.054 144.443 140.87 145.477 140.87 145.477Z" fill="#3B3894"/>
<path d="M140.874 144.318C141.38 144.318 141.79 143.86 141.79 143.296C141.79 142.731 141.38 142.273 140.874 142.273C140.367 142.273 139.957 142.731 139.957 143.296C139.957 143.86 140.367 144.318 140.874 144.318Z" fill="#FFD633"/>
<path d="M144.323 144.318C144.829 144.318 145.24 143.86 145.24 143.296C145.24 142.731 144.829 142.273 144.323 142.273C143.817 142.273 143.406 142.731 143.406 143.296C143.406 143.86 143.817 144.318 144.323 144.318Z" fill="#00CE64"/>
<path d="M147.784 144.318C148.29 144.318 148.7 143.86 148.7 143.296C148.7 142.731 148.29 142.273 147.784 142.273C147.278 142.273 146.867 142.731 146.867 143.296C146.867 143.86 147.278 144.318 147.784 144.318Z" fill="#00D3F0"/>
<path d="M41.9723 269.446C43.3859 266.208 43.9182 259.942 42.0931 256.165L48.8703 253.132C48.8703 253.132 48.8569 262.047 43.6766 270.479C43.2382 271.187 41.3952 270.773 41.9723 269.446Z" fill="#092D4C"/>
<path d="M77.0588 226.819C76.5533 227.567 76.021 228.221 75.4484 228.794C73.7575 230.491 71.8473 230.995 70.1653 231.439C68.8009 231.798 67.4052 232.097 66.0587 232.387C62.3368 233.185 58.8207 233.943 55.6848 235.889L54.3204 233.15C57.8544 230.96 61.7553 230.122 65.5308 229.308C66.8505 229.024 68.2194 228.73 69.5211 228.385C71.3239 227.911 72.4959 227.542 73.574 226.459C74.6119 225.417 75.52 223.98 76.3431 222.069C77.2467 219.979 77.2915 219.769 77.6225 217.688L79.9218 218.152C79.5461 220.507 79.8816 221.081 78.8706 223.426C78.3114 224.718 77.712 225.841 77.0588 226.814V226.819Z" fill="#0DC500"/>
<path d="M39.3447 244.515C35.7749 235.964 40.3378 230.68 47.8174 227.113C55.2969 223.546 61.8192 225.037 63.2596 234.322C63.7517 237.485 61.081 240.464 53.597 244.036C46.113 247.608 41.2593 249.105 39.3447 244.515Z" fill="#FBD7C8"/>
<path d="M40.6926 256.504C41.1042 256.883 41.5605 257.203 41.9944 257.552C42.8131 258.216 43.1172 258.305 44.003 258.854C45.4345 259.742 48.9998 259.568 50.5476 259.343C52.0954 259.119 57.9243 257.198 61.342 255.452C62.9658 254.623 68.3563 250.248 68.4279 246.94C68.6068 239.052 62.1695 232.127 62.2366 231.948C62.2277 231.977 61.8698 242.894 39.0509 243.922C39.279 243.912 39.8651 249.145 39.9009 249.499C40.053 251.126 40.1111 252.777 39.9814 254.409C39.9098 255.312 39.8248 255.616 40.4511 256.27C40.5271 256.35 40.6077 256.429 40.6926 256.504Z" fill="#0DDB00"/>
<path d="M43.6141 238.737C43.4396 238.283 43.6275 237.755 44.0346 237.56C44.4417 237.365 44.9159 237.575 45.0903 238.029C45.2648 238.483 45.0769 239.012 44.6698 239.206C44.2628 239.401 43.7886 239.191 43.6141 238.737Z" fill="#6B3F2E"/>
<path d="M39.4825 247.349C40.1849 246.955 41.1511 246.561 41.934 246.381C42.5379 246.241 42.8555 246.087 43.4863 246.062C43.6115 246.276 43.7457 246.665 43.7547 246.905C43.7681 247.209 43.4818 247.259 43.2536 247.409C42.6766 247.793 42.1263 247.868 41.424 247.713C40.7575 247.569 40.2564 247.264 39.487 247.349H39.4825Z" fill="#0AB000"/>
<path d="M42.2346 241.257C42.1496 241.028 42.2435 240.768 42.4448 240.669C42.6461 240.569 42.8832 240.679 42.9727 240.903C43.0621 241.128 42.9637 241.392 42.7624 241.492C42.5611 241.592 42.324 241.482 42.2346 241.257Z" fill="#C34718"/>
<path d="M44.1644 241.312C44.0794 241.083 44.1734 240.823 44.3747 240.724C44.576 240.624 44.8131 240.734 44.9025 240.958C44.992 241.183 44.8936 241.447 44.6923 241.547C44.491 241.647 44.2539 241.537 44.1644 241.312Z" fill="#C34718"/>
<path d="M60.8951 232.352C60.8101 232.122 60.573 232.017 60.3673 232.117C60.1615 232.217 60.0676 232.476 60.157 232.706C60.2465 232.935 60.4791 233.04 60.6849 232.94C60.8907 232.841 60.9846 232.581 60.8951 232.352Z" fill="#C34718"/>
<path d="M59.5983 233.948C59.5133 233.719 59.2762 233.614 59.0704 233.714C58.8646 233.813 58.7707 234.073 58.8601 234.302C58.9496 234.532 59.1822 234.637 59.388 234.537C59.5938 234.437 59.6877 234.178 59.5983 233.948Z" fill="#C34718"/>
<path d="M56.8778 232.411C56.7033 231.957 56.8912 231.428 57.2983 231.234C57.7054 231.039 58.1795 231.249 58.354 231.703C58.5285 232.157 58.3406 232.686 57.9335 232.88C57.5264 233.075 57.0522 232.865 56.8778 232.411Z" fill="#6B3F2E"/>
<path d="M54.8349 225.551C56.7271 227.776 58.9862 230.066 61.554 231.264C63.321 232.087 65.4503 232.132 66.4613 230.246C67.1771 228.909 67.5304 227.502 66.8237 225.95C65.759 223.61 63.8086 223.161 61.9566 223.361C62.3368 222.079 64.0367 222.468 64.1933 220.791C64.332 219.305 63.0704 218.636 61.9566 219.275C60.6816 220.008 59.5857 222.453 57.926 222.024C57.3355 221.869 59.1383 218.521 58.6328 217.813C57.8589 216.73 56.8077 217.139 56.3424 218.327C55.9398 219.36 55.6535 218.631 55.8682 219.729C56.3916 218.382 56.4543 215.603 54.9109 215.074C51.3948 213.867 54.5441 219.644 51.6856 219.365C50.6835 219.265 49.7978 218.751 48.8181 218.566C46.7469 218.182 44.8413 217.504 42.7298 217.783C39.0661 218.267 35.7692 222.358 36.4581 226.534C36.6057 227.432 37.2543 228.784 36.6773 229.642C35.8005 230.954 33.8501 229.208 32.6646 230.999C31.4791 232.79 34.1543 234.113 35.9839 234.003C35.9839 234.003 35.9347 235.16 33.9843 234.956C32.0339 234.751 30.6247 233.644 30.079 234.796C29.5332 235.949 29.7703 238.877 32.508 238.558C32.508 238.558 30.9468 239.621 32.1546 241.492C33.3625 243.363 37.4825 242.4 38.0014 242.983C38.5203 243.567 39.0303 243.926 39.0303 243.926C39.0303 243.926 38.6948 240.569 40.6944 238.069C42.694 235.569 50.2809 234.287 54.817 225.551H54.8349Z" fill="#FF4D00"/>
<path d="M52.8447 236.502C52.9252 237.361 52.3616 239.97 50.0801 240.618C49.5612 240.768 49.1228 240.145 48.5815 239.825C48.2281 239.621 48.3802 238.927 48.0626 238.917C48.1655 238.438 48.6442 238.338 49.4225 238.139C51.5653 237.59 52.6881 235.43 52.8447 236.502Z" fill="#3C404E"/>
<path d="M50.0859 240.618C49.5491 240.638 49.066 240.813 48.4845 240.359C48.1221 240.074 47.9924 239.256 48.064 238.917C48.3816 238.927 48.8155 238.982 49.1644 239.186C49.7102 239.506 49.9383 240.04 50.0815 240.618H50.0859Z" fill="#DE4475"/>
<path d="M42.7276 243.793C43.2599 243.928 46.0245 244.461 45.8366 249.994C45.6935 254.135 47.3352 256.815 47.0802 256.969C46.4405 257.358 44.007 258.341 43.7207 257.897C43.3002 257.254 42.9736 254.39 43.3897 251.456C43.6625 249.555 43.7431 245.918 43.1705 245.01C42.2937 243.638 39.8378 244.107 39.8959 243.793C39.9362 243.578 41.8419 243.568 42.7321 243.793H42.7276Z" fill="#092D4C"/>
<path d="M44.2123 262.875C43.1118 262.356 39.627 258.779 39.1976 257.891C38.8129 257.088 39.6807 252.947 39.7702 252.223C59.5964 251.44 70.0373 244.729 70.5697 244.25C71.1602 245.882 70.0687 259.303 56.1832 261.857C51.2042 262.586 47.0618 263.194 45.7153 263.179C44.7759 263.169 44.5075 263.015 44.2168 262.875H44.2123Z" fill="#092D4C"/>
<path d="M48.4525 243.052L48.4347 243.054C48.3511 243.063 48.2898 243.146 48.2978 243.239L48.4706 245.255C48.4786 245.349 48.5529 245.417 48.6365 245.408L48.6543 245.406C48.7379 245.397 48.7992 245.314 48.7912 245.221L48.6184 243.205C48.6104 243.111 48.5362 243.043 48.4525 243.052Z" fill="#0D9300"/>
<path d="M47.3868 243.291L47.3689 243.291C47.285 243.295 47.2194 243.374 47.2224 243.467L47.2884 245.491C47.2914 245.585 47.3619 245.658 47.4459 245.655L47.4638 245.654C47.5477 245.651 47.6133 245.572 47.6102 245.478L47.5443 243.454C47.5413 243.36 47.4707 243.287 47.3868 243.291Z" fill="#0D9300"/>
<path d="M49.4164 242.816L49.3987 242.819C49.3156 242.833 49.2583 242.919 49.2706 243.012L49.5381 245.015C49.5505 245.108 49.6279 245.172 49.711 245.158L49.7287 245.155C49.8118 245.141 49.8691 245.055 49.8567 244.962L49.5892 242.959C49.5768 242.866 49.4995 242.802 49.4164 242.816Z" fill="#0D9300"/>
<path d="M50.6186 242.489L50.6014 242.495C50.5206 242.521 50.474 242.614 50.4973 242.705L50.9994 244.651C51.0226 244.741 51.1069 244.793 51.1876 244.767L51.2048 244.762C51.2855 244.736 51.3321 244.642 51.3089 244.552L50.8068 242.605C50.7836 242.515 50.6993 242.463 50.6186 242.489Z" fill="#0D9300"/>
<path d="M51.7556 242.365L51.739 242.373C51.661 242.407 51.6231 242.506 51.6542 242.593L52.3284 244.474C52.3596 244.561 52.4481 244.603 52.5261 244.568L52.5427 244.561C52.6207 244.526 52.6587 244.428 52.6275 244.341L51.9533 242.46C51.9221 242.373 51.8336 242.33 51.7556 242.365Z" fill="#0D9300"/>
<path d="M54.0836 241.308L54.067 241.315C53.989 241.35 53.9511 241.449 53.9822 241.536L54.6564 243.417C54.6876 243.504 54.7761 243.546 54.8541 243.511L54.8707 243.504C54.9487 243.469 54.9867 243.37 54.9555 243.283L54.2813 241.402C54.2501 241.315 54.1616 241.273 54.0836 241.308Z" fill="#0D9300"/>
<path d="M55.2009 240.902L55.1843 240.91C55.1063 240.944 55.0684 241.043 55.0995 241.13L55.7737 243.011C55.8049 243.098 55.8934 243.14 55.9714 243.106L55.988 243.098C56.066 243.063 56.104 242.965 56.0728 242.878L55.3986 240.997C55.3674 240.91 55.2789 240.868 55.2009 240.902Z" fill="#0D9300"/>
<path d="M57.3915 239.477L57.376 239.487C57.3032 239.534 57.2783 239.638 57.3203 239.719L58.2284 241.473C58.2704 241.554 58.3634 241.582 58.4362 241.535L58.4517 241.525C58.5244 241.478 58.5494 241.374 58.5074 241.293L57.5992 239.539C57.5572 239.458 57.4642 239.43 57.3915 239.477Z" fill="#0D9300"/>
<path d="M56.2645 240.258L56.249 240.267C56.1763 240.314 56.1514 240.418 56.1934 240.499L57.1015 242.253C57.1435 242.335 57.2365 242.362 57.3092 242.316L57.3247 242.306C57.3975 242.259 57.4224 242.155 57.3804 242.074L56.4723 240.32C56.4303 240.238 56.3373 240.211 56.2645 240.258Z" fill="#0D9300"/>
<path d="M58.5838 238.73L58.568 238.739C58.4939 238.783 58.4657 238.886 58.5051 238.969L59.3572 240.757C59.3966 240.84 59.4887 240.872 59.5629 240.828L59.5787 240.818C59.6528 240.774 59.681 240.672 59.6416 240.589L58.7895 238.8C58.7501 238.717 58.658 238.686 58.5838 238.73Z" fill="#0D9300"/>
<path d="M59.4019 237.743L59.3869 237.754C59.3168 237.806 59.2973 237.911 59.3435 237.989L60.342 239.681C60.3881 239.76 60.4825 239.781 60.5526 239.73L60.5676 239.719C60.6377 239.667 60.6572 239.562 60.611 239.484L59.6126 237.792C59.5664 237.714 59.4721 237.692 59.4019 237.743Z" fill="#0D9300"/>
<path d="M60.1999 237.072L60.1859 237.084C60.12 237.142 60.1088 237.249 60.1608 237.323L61.287 238.912C61.3391 238.985 61.4347 238.998 61.5006 238.94L61.5147 238.927C61.5806 238.869 61.5918 238.763 61.5397 238.689L60.4135 237.1C60.3614 237.026 60.2658 237.014 60.1999 237.072Z" fill="#0D9300"/>
<path d="M60.8677 236.203L60.8539 236.216C60.789 236.275 60.7797 236.382 60.8331 236.455L61.9874 238.019C62.0408 238.091 62.1366 238.101 62.2015 238.042L62.2153 238.029C62.2801 237.97 62.2894 237.863 62.2361 237.79L61.0818 236.226C61.0284 236.154 60.9325 236.144 60.8677 236.203Z" fill="#0D9300"/>
<path d="M61.5969 235.273L61.5832 235.286C61.5189 235.346 61.5106 235.453 61.5647 235.525L62.7338 237.075C62.7879 237.147 62.8839 237.156 62.9481 237.096L62.9618 237.083C63.0261 237.022 63.0344 236.915 62.9803 236.844L61.8112 235.294C61.7571 235.222 61.6612 235.213 61.5969 235.273Z" fill="#0D9300"/>
<path d="M62.2083 234.243L62.1946 234.256C62.1304 234.316 62.1221 234.423 62.1762 234.495L63.3453 236.045C63.3994 236.117 63.4953 236.126 63.5596 236.066L63.5733 236.053C63.6376 235.992 63.6458 235.885 63.5918 235.814L62.4226 234.264C62.3686 234.192 62.2726 234.183 62.2083 234.243Z" fill="#0D9300"/>
<path d="M52.9548 241.795L52.9382 241.802C52.8602 241.837 52.8223 241.936 52.8535 242.023L53.5276 243.903C53.5588 243.99 53.6473 244.033 53.7253 243.998L53.7419 243.991C53.8199 243.956 53.8579 243.857 53.8267 243.77L53.1525 241.889C53.1213 241.802 53.0328 241.76 52.9548 241.795Z" fill="#0D9300"/>
<path d="M62.2482 233.04C62.2482 233.04 67.9205 238.633 66.9721 247.104L70.1348 246.092C70.1348 246.092 70.1706 237.74 62.5747 231.783L62.2482 233.04Z" fill="#092D4C"/>
<path d="M80.6466 217.464C80.6466 217.464 79.0988 219.385 77.4213 216.92C77.4213 216.92 77.1529 216.785 77.1395 217.439C77.1305 217.898 76.9516 219.165 76.8487 219.874C76.804 220.183 76.9337 220.492 77.1753 220.652C77.9447 221.146 79.6222 221.994 80.4185 220.707L80.6422 217.464H80.6466Z" fill="#0D9300"/>
<path d="M77.7108 217.84L77.6932 217.837C77.6103 217.821 77.5321 217.884 77.5184 217.976L77.224 219.975C77.2104 220.068 77.2665 220.155 77.3494 220.17L77.3671 220.173C77.45 220.189 77.5282 220.126 77.5418 220.034L77.8363 218.035C77.8499 217.942 77.7937 217.855 77.7108 217.84Z" fill="#0C8200"/>
<path d="M78.4159 218.301L78.3983 218.297C78.3154 218.282 78.2371 218.345 78.2235 218.437L77.9291 220.436C77.9154 220.528 77.9716 220.616 78.0545 220.631L78.0721 220.634C78.155 220.649 78.2333 220.587 78.2469 220.494L78.5413 218.495C78.555 218.403 78.4988 218.316 78.4159 218.301Z" fill="#0C8200"/>
<path d="M79.183 218.5L79.1652 218.498C79.0816 218.489 79.0072 218.557 78.9991 218.65L78.8231 220.666C78.815 220.76 78.8761 220.843 78.9597 220.852L78.9775 220.854C79.0611 220.863 79.1355 220.794 79.1437 220.701L79.3196 218.685C79.3278 218.592 79.2666 218.509 79.183 218.5Z" fill="#0C8200"/>
<path d="M79.8009 218.391L79.783 218.391C79.6991 218.389 79.6296 218.463 79.628 218.557L79.5918 220.582C79.5901 220.676 79.6569 220.753 79.7409 220.755L79.7588 220.755C79.8427 220.757 79.9122 220.683 79.9138 220.589L79.95 218.564C79.9516 218.47 79.8849 218.393 79.8009 218.391Z" fill="#0C8200"/>
<path d="M45.2889 254.315H44.175C43.8037 254.315 43.504 253.981 43.504 253.567V252.419C43.504 252.005 43.8037 251.671 44.175 251.671H45.2889C45.6602 251.671 45.9599 252.005 45.9599 252.419V253.567C45.9599 253.981 45.6602 254.315 45.2889 254.315ZM44.175 252.22C44.0766 252.22 43.9961 252.31 43.9961 252.419V253.567C43.9961 253.677 44.0766 253.766 44.175 253.766H45.2889C45.3873 253.766 45.4679 253.677 45.4679 253.567V252.419C45.4679 252.31 45.3873 252.22 45.2889 252.22H44.175Z" fill="#CAA15F"/>
<path d="M45.5184 252.718H44.4492C44.3726 252.718 44.3105 252.787 44.3105 252.873V253.037C44.3105 253.123 44.3726 253.192 44.4492 253.192H45.5184C45.595 253.192 45.657 253.123 45.657 253.037V252.873C45.657 252.787 45.595 252.718 45.5184 252.718Z" fill="#CAA15F"/>
<path d="M69.3054 246.122L68.2049 246.286C67.8381 246.341 67.4981 246.052 67.4534 245.643L67.3147 244.505C67.2655 244.096 67.525 243.717 67.8918 243.667L68.9922 243.502C69.3591 243.447 69.699 243.737 69.7438 244.146L69.8824 245.283C69.9317 245.693 69.6722 246.072 69.3054 246.127V246.122ZM67.9544 244.206C67.856 244.221 67.7889 244.321 67.8023 244.43L67.941 245.568C67.9544 245.678 68.0439 245.752 68.1423 245.737L69.2427 245.573C69.3412 245.558 69.4083 245.458 69.3948 245.348L69.2562 244.211C69.2427 244.101 69.1533 244.026 69.0549 244.041L67.9544 244.206Z" fill="#CAA15F"/>
<path d="M68.7795 244.631L67.7197 244.789C67.6438 244.8 67.5905 244.878 67.6006 244.963L67.6202 245.126C67.6303 245.21 67.7001 245.27 67.776 245.259L68.8357 245.101C68.9117 245.089 68.965 245.012 68.9548 244.927L68.9353 244.764C68.9251 244.679 68.8554 244.62 68.7795 244.631Z" fill="#CAA15F"/>
<path d="M43.7261 270.03L43.4398 270.803L45.8152 272.774L45.3679 273.462L41.4044 272.345L41.6684 269.915L43.7261 270.03Z" fill="#F8B096"/>
<g style="mix-blend-mode:multiply">
<path d="M43.7239 270.03L43.5718 270.564L41.6661 269.915L43.7239 270.03Z" fill="#E2C9B4"/>
</g>
<path d="M44.239 270.888C44.4984 270.115 44.6416 269.566 44.0153 269.102C43.89 269.012 42.4943 268.428 42.4988 268.408L42.047 271.582L42.3422 271.891L44.0377 271.422L44.2434 270.883L44.239 270.888Z" fill="#89532B"/>
<path d="M43.6087 272.37L44.9866 268.423L42.2712 267.57L41.5197 271.861L43.6087 272.37Z" fill="#C3D3EC"/>
<path d="M43.2836 270.888C43.4492 270.025 44.0978 269.591 43.2971 269.181C42.9168 268.987 42.4382 268.922 42.0356 268.822C41.624 268.722 41.2214 268.538 41.3467 269.142C41.5256 270.015 41.454 270.963 41.4093 271.621C41.4003 271.731 41.2751 272.14 41.284 272.145L41.8432 272.399L43.722 271.666L43.2881 270.888H43.2836Z" fill="#89532B"/>
<path d="M43.1122 270.858C43.2419 270.17 43.7608 269.825 43.1211 269.501C42.9959 269.436 41.6315 269.097 41.6315 269.077L41.6807 271.182L41.5197 271.856L41.9625 272.055L43.4566 271.472L43.1122 270.853V270.858Z" fill="#3A1F2C"/>
<path d="M44.1513 271.048L44.8536 269.202C44.8536 269.202 43.4758 268.573 43.1179 268.872C42.76 269.172 42.9971 270.793 42.9971 270.793C42.9971 270.793 43.4802 270.898 44.1513 271.048Z" fill="#5F472C"/>
<path d="M41.5508 272.225L46.3732 273.662C46.3732 273.662 46.6371 271.452 44.2707 270.833C44.2707 270.833 42.4053 270.234 41.5553 272.22L41.5508 272.225Z" fill="#89532B"/>
<path d="M43.7833 273.334L44.4142 273.522L44.487 273.218L43.8561 273.03L43.7833 273.334Z" fill="#72532D"/>
<path d="M44.6895 273.605L45.3204 273.793L45.3932 273.49L44.7623 273.302L44.6895 273.605Z" fill="#72532D"/>
<path d="M45.6016 273.878L46.2325 274.066L46.3053 273.763L45.6744 273.575L45.6016 273.878Z" fill="#72532D"/>
<path d="M41.0684 272.527L41.6993 272.715L41.7721 272.412L41.1412 272.224L41.0684 272.527Z" fill="#72532D"/>
<path d="M41.9766 272.8L42.6075 272.988L42.6803 272.684L42.0494 272.496L41.9766 272.8Z" fill="#72532D"/>
<path d="M42.8828 273.066L43.5138 273.254L43.5866 272.951L42.9556 272.763L42.8828 273.066Z" fill="#72532D"/>
<path d="M42.9165 269.616C42.8986 269.695 42.9388 269.775 43.0104 269.795C43.082 269.815 43.1536 269.77 43.1714 269.69C43.1893 269.611 43.1491 269.531 43.0775 269.511C43.0059 269.491 42.9344 269.536 42.9165 269.616Z" fill="#3A1F2C"/>
<path d="M42.9502 270.504C43.0218 270.504 43.0799 270.439 43.0799 270.359C43.0799 270.279 43.0218 270.214 42.9502 270.214C42.8785 270.214 42.8204 270.279 42.8204 270.359C42.8204 270.439 42.8785 270.504 42.9502 270.504Z" fill="#3A1F2C"/>
<path d="M42.8286 270.843C42.8107 270.923 42.8509 271.003 42.9225 271.023C42.9941 271.042 43.0657 270.998 43.0836 270.918C43.1015 270.838 43.0612 270.758 42.9896 270.738C42.918 270.718 42.8465 270.763 42.8286 270.843Z" fill="#3A1F2C"/>
<path d="M41.0324 272.33L46.3868 273.927L46.4539 273.648L41.0994 272.051L41.0324 272.33Z" fill="#3A1F2C"/>
<path d="M44.2919 270.239L43.008 269.79C43.0751 270.394 44.0637 270.384 44.2919 270.239Z" stroke="#FAAD24" stroke-width="0.134203" stroke-linecap="round" stroke-linejoin="round"/>
<path d="M42.9493 270.359L44.2332 270.653" stroke="#FAAD24" stroke-width="0.134203" stroke-linecap="round" stroke-linejoin="round"/>
<path d="M42.957 270.813H44.0396" stroke="#FAAD24" stroke-width="0.134203" stroke-linecap="round" stroke-linejoin="round"/>
<path d="M44.1681 270.763C44.3962 270.634 44.781 270.354 45.0717 270.524C45.0762 271.267 43.2242 270.354 43.2868 271.447C43.8147 271.746 43.8057 270.973 44.1681 270.768V270.763Z" stroke="#FAAD24" stroke-width="0.134203" stroke-linecap="round" stroke-linejoin="round"/>
<path d="M59.4191 269.755C60.0811 266.228 59.2222 260.011 56.6232 256.843L62.5281 252.054C62.5281 252.054 64.4695 260.7 61.2979 270.289C61.0295 271.097 59.1507 271.197 59.4191 269.755Z" fill="#092D4C"/>
<path d="M61.2428 269.845L61.1355 270.668L63.8732 271.936L63.5914 272.724L59.5027 272.719L59.2208 270.294L61.2428 269.845Z" fill="#F8B096"/>
<g style="mix-blend-mode:multiply">
<path d="M61.2428 269.845L61.216 270.404L59.2208 270.294L61.2428 269.845Z" fill="#E2C9B4"/>
</g>
<path d="M61.9316 270.534C62.0121 269.71 62.03 269.142 61.3232 268.862C61.18 268.807 59.6993 268.623 59.6993 268.603L59.9588 271.806L60.3122 272.025L61.8511 271.112L61.9316 270.534Z" fill="#89532B"/>
<path d="M61.6436 272.145L62.1133 267.939L59.295 267.86L59.5053 272.22L61.6436 272.145Z" fill="#C3D3EC"/>
<path d="M61.008 270.798C60.9767 269.915 61.5135 269.316 60.6456 269.142C60.2341 269.057 59.7554 269.127 59.3439 269.142C58.9234 269.157 58.4939 269.092 58.7444 269.641C59.1068 270.439 59.2499 271.377 59.3484 272.026C59.3662 272.135 59.3349 272.564 59.3394 272.569L59.9344 272.664L61.594 271.442L61.0035 270.808L61.008 270.798Z" fill="#89532B"/>
<path d="M60.8272 270.818C60.8049 270.114 61.2298 269.64 60.5409 269.501C60.4023 269.471 59.0065 269.516 59.0021 269.501L59.512 271.531L59.5031 272.225L59.9773 272.3L61.2969 271.327L60.8272 270.823V270.818Z" fill="#3A1F2C"/>
<path d="M61.8817 270.713L62.1546 268.733C62.1546 268.733 60.6828 268.498 60.401 268.887C60.1192 269.276 60.7052 270.783 60.7052 270.783C60.7052 270.783 61.1973 270.753 61.8817 270.713Z" fill="#5F472C"/>
<path d="M59.6194 272.569L64.6073 272.649C64.6073 272.649 64.3791 270.439 61.95 270.484C61.95 270.484 60.0086 270.414 59.6194 272.574V272.569Z" fill="#89532B"/>
<path d="M62.0287 273.032L62.6818 273.042L62.6857 272.728L62.0326 272.718L62.0287 273.032Z" fill="#72532D"/>
<path d="M62.9682 273.047L63.6212 273.057L63.6252 272.743L62.9721 272.733L62.9682 273.047Z" fill="#72532D"/>
<path d="M63.9115 273.063L64.5646 273.073L64.5685 272.758L63.9155 272.748L63.9115 273.063Z" fill="#72532D"/>
<path d="M59.2162 272.991L59.8693 273.001L59.8732 272.687L59.2201 272.677L59.2162 272.991Z" fill="#72532D"/>
<path d="M60.1557 273.001L60.8087 273.011L60.8127 272.697L60.1596 272.687L60.1557 273.001Z" fill="#72532D"/>
<path d="M61.095 273.016L61.748 273.027L61.752 272.712L61.0989 272.702L61.095 273.016Z" fill="#72532D"/>
<path d="M60.3673 269.661C60.3673 269.74 60.4255 269.805 60.497 269.81C60.5686 269.815 60.6268 269.745 60.6312 269.666C60.6357 269.586 60.5731 269.521 60.5015 269.516C60.4299 269.511 60.3718 269.581 60.3673 269.661Z" fill="#3A1F2C"/>
<path d="M60.5674 270.519C60.639 270.519 60.6971 270.454 60.6971 270.374C60.6971 270.294 60.639 270.229 60.5674 270.229C60.4957 270.229 60.4376 270.294 60.4376 270.374C60.4376 270.454 60.4957 270.519 60.5674 270.519Z" fill="#3A1F2C"/>
<path d="M60.5587 270.873C60.5587 270.953 60.6169 271.018 60.6884 271.023C60.76 271.028 60.8182 270.958 60.8226 270.878C60.8271 270.798 60.7645 270.733 60.6929 270.728C60.6213 270.723 60.5632 270.793 60.5587 270.873Z" fill="#3A1F2C"/>
<path d="M59.1399 272.811L64.6819 272.897L64.6855 272.608L59.1435 272.522L59.1399 272.811Z" fill="#3A1F2C"/>
<path d="M61.8382 269.895L60.4962 269.81C60.693 270.374 61.6504 270.099 61.8382 269.895Z" stroke="#FAAD24" stroke-width="0.134203" stroke-linecap="round" stroke-linejoin="round"/>
<path d="M60.5665 270.374L61.8728 270.309" stroke="#FAAD24" stroke-width="0.134203" stroke-linecap="round" stroke-linejoin="round"/>
<path d="M60.67 270.813L61.7213 270.519" stroke="#FAAD24" stroke-width="0.134203" stroke-linecap="round" stroke-linejoin="round"/>
<path d="M61.8333 270.434C62.0301 270.244 62.3388 269.87 62.6564 269.955C62.8264 270.673 60.8268 270.294 61.1265 271.337C61.7036 271.487 61.5246 270.733 61.8333 270.439V270.434Z" stroke="#FAAD24" stroke-width="0.134203" stroke-linecap="round" stroke-linejoin="round"/>
<path d="M50.3615 252.857C50.3615 252.857 61.63 250.911 66.2824 248.152C66.2824 248.152 67.0115 251.72 66.0632 253.381C65.1058 255.062 62.9675 256.978 60.1761 258.126C59.4246 258.435 54.817 259.139 52.5803 257.722C51.2382 256.868 51.1622 255.247 50.3615 252.857Z" fill="#11538C"/>
<path d="M56.5606 257.846C54.9547 257.846 53.6887 257.582 52.9059 257.088C52.1633 256.619 51.9262 255.86 51.4967 254.324C51.4207 254.049 51.3357 253.755 51.2462 253.441C53.7379 252.972 61.5127 251.405 65.7938 249.24C65.9369 250.417 66.0085 252.123 65.5164 252.992C64.5412 254.708 62.3582 256.454 59.956 257.442C59.6741 257.557 58.2561 257.846 56.5651 257.846H56.5606Z" fill="#092D4C"/>
<path d="M51.0886 254.643C51.0886 254.643 63.3726 252.413 66.2803 249.779V250.387C63.3726 253.022 51.3033 255.172 51.3033 255.172L51.0841 254.643H51.0886Z" fill="#11538C"/>
<path d="M79.1951 218.891C79.3919 218.786 79.5664 218.591 79.7363 218.412C79.9153 218.217 80.1032 218.107 80.3 217.948C80.5729 217.728 81.3736 217.349 81.736 217.219C81.906 217.159 82.5412 216.86 82.237 216.476C82.0223 216.206 81.3334 216.7 80.8279 216.641C81.065 216.526 81.4228 216.296 81.6599 216.162C81.7628 216.102 82.4293 215.598 82.2146 215.348C82.0759 215.184 81.736 215.328 81.5839 215.348C81.2171 215.408 80.895 215.737 80.7071 215.703C80.8726 215.523 81.15 215.368 81.3199 215.199C81.4407 215.079 81.5883 215.014 81.7047 214.899C81.906 214.7 81.9328 214.236 81.6331 214.256C81.2528 214.281 80.9039 214.61 80.5729 214.859C80.3895 214.999 80.1524 215.343 79.9377 215.333C79.9734 215.219 80.0898 215.149 80.1569 215.069C80.2821 214.924 80.385 214.755 80.5192 214.62C80.631 214.51 80.801 214.375 80.8234 214.151C80.8905 213.507 79.8706 214.405 79.7721 214.505C79.3919 214.869 79.0206 215.303 78.5867 215.518C78.6314 215.039 78.6001 213.991 78.2064 213.792C78.0767 213.727 77.9515 213.802 77.9067 214.011C77.862 214.221 77.9291 214.5 77.9022 214.735C77.8665 215.024 77.8038 215.303 77.7591 215.588C77.6473 216.291 77.4549 216.965 77.5757 217.718C77.6428 218.147 77.938 218.606 78.2467 218.601C78.3406 218.601 78.3541 218.581 78.4122 218.651C78.4659 218.716 78.4748 218.826 78.5419 218.881C78.7209 219.035 78.9714 218.995 79.204 218.871L79.1951 218.891Z" fill="#FCDDD1"/>
<path d="M37.5112 257.053C35.8605 257.053 34.3171 256.794 33.163 256.09C32.1073 255.447 31.396 254.454 31.1142 253.231C30.7831 251.804 30.971 250.383 31.6599 249.115C33.579 245.593 38.8085 244.166 39.3989 244.016L40.0029 246.935C38.7011 247.269 35.0821 248.596 33.9548 250.672C33.6372 251.256 33.5611 251.829 33.7132 252.483C33.8116 252.912 34.0398 253.216 34.4558 253.466C36.8223 254.913 43.2371 253.446 46.7264 252.179L47.5585 255.027C46.8114 255.297 41.8056 257.058 37.5156 257.058L37.5112 257.053Z" fill="#0DDB00"/>
<path d="M47.6868 250.712C47.7942 250.527 47.9687 250.302 48.1073 250.377C48.1879 250.422 48.2013 250.547 48.2058 250.662C48.2192 251.016 48.2058 251.385 48.161 251.754C48.1655 251.704 46.6937 252.667 46.5685 252.767C46.7787 252.084 47.329 251.34 47.6868 250.712Z" fill="#FCDDD1"/>
<path d="M47.5468 254.952C47.9315 254.837 51.3492 254.249 50.119 253.376C50.6334 253.056 50.6468 252.368 49.9132 252.398C50.0474 252.188 50.3516 251.999 50.1235 251.694C49.949 251.46 49.4659 251.545 49.2467 251.569C49.5374 251.096 51.1613 250.811 51.2865 250.492C51.4386 250.103 50.1548 250.287 49.9266 250.377C49.448 250.572 48.9559 250.751 48.4862 251.021C47.9762 251.315 47.5736 251.734 47.1084 252.148C46.7371 252.483 46.3345 252.922 46.2495 253.585C46.1779 254.124 46.4642 254.907 46.7997 255.022C47.0055 255.092 47.2784 255.032 47.5468 254.952Z" fill="#FCDDD1"/>
<path d="M80.0958 217.115C80.1897 217.065 80.2389 217.03 80.1674 216.98C79.7871 217 79.3532 217.289 79.219 217.449C79.5813 217.334 79.644 217.284 80.0153 217.155L80.0958 217.12V217.115Z" fill="#F6A9A7"/>
<path d="M78.4597 216.511C78.4731 216.646 78.4955 216.726 78.6207 216.741C78.8489 216.441 78.7012 215.753 78.5491 215.453C78.4776 215.862 78.5134 215.977 78.4552 216.406V216.511H78.4597Z" fill="#F6A9A7"/>
<path d="M48.0846 254.932C47.9906 254.778 47.673 254.633 47.5656 254.528C47.1765 254.149 46.9259 253.835 46.8678 253.246C46.8096 252.657 46.9707 252.039 47.1854 251.5C47.1854 251.5 47.163 251.176 46.6396 251.47C46.2728 251.679 45.1902 252.114 44.5863 252.353C44.3224 252.458 44.139 252.732 44.1345 253.047C44.1166 254.034 44.2508 256.085 45.6465 256.245C45.9239 256.275 47.2346 255.436 47.5925 255.352C47.7356 255.317 48.1651 255.237 48.1114 254.982C48.1114 254.962 48.098 254.942 48.089 254.927L48.0846 254.932Z" fill="#0D9300"/>
<path d="M46.5977 252.224L46.5917 252.205C46.5639 252.116 46.4771 252.07 46.3979 252.101L44.684 252.771C44.6048 252.802 44.5631 252.899 44.5909 252.988L44.5968 253.006C44.6246 253.095 44.7114 253.141 44.7906 253.11L46.5045 252.44C46.5837 252.409 46.6255 252.312 46.5977 252.224Z" fill="#0C8200"/>
<path d="M46.5779 253.134L46.572 253.115C46.5441 253.027 46.4573 252.98 46.3781 253.011L44.6643 253.682C44.585 253.713 44.5433 253.81 44.5711 253.898L44.577 253.917C44.6048 254.005 44.6916 254.052 44.7709 254.021L46.4847 253.35C46.564 253.319 46.6057 253.222 46.5779 253.134Z" fill="#0C8200"/>
<path d="M46.7914 253.978L46.7844 253.959C46.7514 253.873 46.6621 253.833 46.5848 253.87L44.9142 254.665C44.837 254.701 44.8011 254.801 44.834 254.887L44.841 254.906C44.874 254.992 44.9633 255.032 45.0406 254.995L46.7112 254.2C46.7885 254.164 46.8244 254.064 46.7914 253.978Z" fill="#0C8200"/>
<path d="M47.1685 254.543L47.1602 254.525C47.1214 254.442 47.0296 254.41 46.9551 254.453L45.3444 255.389C45.2699 255.432 45.241 255.535 45.2798 255.618L45.288 255.635C45.3268 255.718 45.4187 255.751 45.4932 255.707L47.1039 254.771C47.1784 254.728 47.2073 254.626 47.1685 254.543Z" fill="#0C8200"/>
<path d="M206.833 243.783C212.091 245.932 217.784 244.15 218.071 244.057L217.238 240.832C217.165 240.853 210.104 243.041 205.486 239.215C202.765 236.963 201.35 232.986 201.274 227.386L198.85 227.134C198.942 233.837 200.186 239.016 203.707 241.918C204.699 242.735 205.755 243.338 206.833 243.778L206.833 243.783Z" fill="#1AD58E"/>
<path d="M201.366 228.689C201.58 228.531 201.748 228.286 201.857 228.041C201.957 227.822 201.98 227.552 202.002 227.308C202.046 226.773 202.564 225.408 201.774 225.486C201.633 225.502 201.469 225.726 201.15 225.946C201.168 225.946 201.245 223.655 201.24 223.401C201.24 223.294 201.225 222.698 200.987 222.658C200.823 222.628 200.677 222.659 200.614 223.041C200.479 223.891 200.448 224.35 200.39 224.971C200.389 224.564 200.069 224.422 199.905 224.616C199.842 224.692 199.801 224.672 199.751 225.186C199.743 225.293 199.733 224.983 199.655 224.922C199.422 224.744 199.162 224.944 199.136 225.59C199.136 225.712 199.167 225.285 198.857 225.438C198.488 225.623 198.49 226.549 198.481 226.717C198.465 227.343 198.598 227.883 198.804 228.32C198.956 228.645 199.198 228.863 199.513 228.949C199.828 229.035 200.12 228.825 200.449 228.839C200.613 228.844 200.777 228.874 200.946 228.858C201.097 228.843 201.238 228.781 201.366 228.689Z" fill="#AF714A"/>
<path d="M201.449 226.765C201.335 226.816 200.902 226.807 200.801 226.66C200.654 226.451 200.491 226.767 200.4 226.956C200.364 227.033 200.341 227.18 200.373 227.262C200.493 227.597 200.712 227.642 200.954 227.611C201.611 227.518 201.952 227.084 202.02 226.987C202.17 226.783 202.183 226.223 202.219 226.152C202.16 226.274 201.568 226.714 201.454 226.765L201.449 226.765Z" fill="#945F3F"/>
<path d="M200.384 226.116C200.371 226.223 200.229 226.356 200.134 226.371C200.051 226.382 199.974 226.311 199.91 226.255C199.887 226.398 199.846 226.561 199.742 226.663C199.587 226.806 199.436 226.648 199.331 226.521C199.258 226.644 199.309 227.31 199.04 227.245C198.912 227.21 198.811 227.047 198.711 226.971C198.601 226.89 198.606 227.063 198.643 227.154C198.735 227.388 198.904 227.556 199.141 227.581C199.264 227.59 199.406 227.58 199.492 227.468C199.533 227.417 199.556 227.31 199.611 227.269C199.652 227.238 199.675 227.269 199.734 227.268C199.907 227.268 200.026 227.1 200.098 226.942C200.13 226.875 200.144 226.85 200.194 226.814C200.34 226.702 200.381 226.595 200.398 226.401C200.407 226.31 200.402 226.193 200.389 226.126L200.384 226.116Z" fill="#945F3F"/>
<path d="M200.31 227.694C200.369 227.587 200.437 227.48 200.501 227.394C200.675 227.5 200.825 227.408 201.003 227.428C200.863 227.841 200.283 227.929 200.216 228.443C200.238 228.28 200.138 228.158 200.187 227.98C200.215 227.888 200.255 227.791 200.31 227.694Z" fill="#945F3F"/>
<path d="M200.111 227.919C200.056 227.537 199.818 227.35 199.621 227.126C199.95 227.105 200.321 227.649 200.253 228.076C200.221 228.036 200.162 228.016 200.12 227.97" fill="#945F3F"/>
<path d="M201.166 226.028C200.957 226.415 200.574 226.661 200.406 227.068C200.464 226.707 200.528 226.656 200.701 226.329C200.842 226.064 201.051 225.814 201.174 225.549C201.11 225.809 201.188 225.839 201.166 226.023L201.166 226.028Z" fill="#945F3F"/>
<path d="M201.152 225.946C200.852 226.303 200.674 226.518 200.574 226.737C200.438 227.032 200.447 227.175 200.617 227.256C200.818 227.357 201.16 227.254 201.369 227.121C201.62 226.973 201.734 226.876 201.943 226.646C201.943 226.646 202.189 226.371 202.216 226.147C202.257 225.831 202.073 225.531 201.913 225.46C201.849 225.435 201.521 225.502 201.152 225.941L201.152 225.946Z" fill="#AF714A"/>
<path d="M225.01 259.935L226.479 272.016L224.833 270.789L221.528 260.057L225.01 259.935Z" fill="#AF714A"/>
<path d="M222.33 272.206C222.33 272.206 222.331 272.226 222.331 272.236L226.484 272.24C226.484 272.24 226.484 272.22 226.484 272.21C226.484 272.144 226.484 272.082 226.474 272.021L222.339 272.018C222.33 272.079 222.33 272.145 222.33 272.206Z" fill="#DFFFBA"/>
<path d="M224.404 270.327C223.408 270.329 222.584 270.958 222.38 271.798L226.438 271.797C226.231 270.953 225.394 270.324 224.403 270.322L224.404 270.327Z" fill="#DFFFBA"/>
<path d="M222.38 271.798C222.362 271.87 222.349 271.941 222.344 272.012L226.479 272.016C226.47 271.945 226.456 271.874 226.438 271.803L222.38 271.804L222.38 271.798Z" fill="#1B9DD9"/>
<path d="M224.59 271.054C224.59 271.161 224.508 271.248 224.408 271.248C224.308 271.249 224.225 271.162 224.225 271.055C224.225 270.949 224.307 270.862 224.407 270.862C224.508 270.861 224.59 270.948 224.59 271.054Z" fill="#028CAD"/>
<path d="M224.638 270.637C224.993 270.03 225.024 269.867 225.733 270.237C226.217 270.49 226.318 270.693 225.94 271.061C225.606 270.899 225.264 270.716 224.903 270.636L224.643 270.637L224.638 270.637Z" fill="#DFFFBA"/>
<path d="M225.393 270.843C225.394 270.925 225.33 270.996 225.252 270.996C225.175 270.996 225.106 270.93 225.106 270.844C225.106 270.762 225.169 270.691 225.247 270.691C225.325 270.691 225.393 270.757 225.393 270.843Z" fill="#028CAD"/>
<path d="M229.102 259.196L229.526 271.606L231.213 270.781L232.553 259.716L229.102 259.196Z" fill="#AF714A"/>
<path d="M233.51 272.216C233.51 272.216 233.51 272.236 233.51 272.246L229.356 272.151C229.356 272.151 229.356 272.131 229.356 272.12C229.356 272.054 229.365 271.993 229.369 271.932L233.505 272.028C233.509 272.089 233.514 272.155 233.51 272.216Z" fill="#DFFFBA"/>
<path d="M231.478 270.292C232.473 270.315 233.287 270.964 233.471 271.814L229.413 271.718C229.64 270.883 230.483 270.269 231.478 270.292Z" fill="#DFFFBA"/>
<path d="M233.471 271.814C233.485 271.885 233.498 271.956 233.503 272.028L229.368 271.932C229.377 271.861 229.395 271.789 229.413 271.718L233.471 271.814Z" fill="#1B9DD9"/>
<path d="M231.28 271.01C231.28 271.117 231.358 271.204 231.458 271.208C231.559 271.208 231.645 271.126 231.645 271.02C231.645 270.913 231.567 270.826 231.466 270.822C231.366 270.822 231.279 270.903 231.28 271.01Z" fill="#028CAD"/>
<path d="M231.236 270.598C230.892 269.983 230.865 269.82 230.149 270.168C229.661 270.409 229.552 270.613 229.927 270.988C230.264 270.835 230.611 270.661 230.971 270.589L231.232 270.588L231.236 270.598Z" fill="#DFFFBA"/>
<path d="M230.471 270.788C230.471 270.87 230.531 270.941 230.613 270.946C230.69 270.946 230.759 270.879 230.759 270.798C230.758 270.716 230.699 270.645 230.617 270.64C230.539 270.641 230.471 270.707 230.471 270.788Z" fill="#028CAD"/>
<path d="M236.867 257.668L219.639 258.576L221.68 261.243L232.39 261.951L235.584 259.529L236.862 257.668L236.867 257.668Z" fill="#4AAA50"/>
<path d="M225.769 244.321C221.368 243.737 216.689 241.709 216.143 240.387C215.652 239.202 215.626 235.598 215.824 234.351C216.593 229.467 222.186 225.944 227.112 226.231C232.95 226.596 238.024 231.892 238.397 239.516C238.416 239.954 238.417 240.32 238.413 240.768C238.823 244.239 231.942 245.154 225.769 244.326L225.769 244.321Z" fill="#AF714A"/>
<path d="M232.922 238.294C232.945 238.488 232.904 238.686 232.8 238.844C232.695 239.002 232.54 239.11 232.367 239.136C232.239 239.156 232.102 239.136 231.983 239.076C231.864 239.015 231.764 238.913 231.695 238.786C231.626 238.659 231.594 238.517 231.603 238.369C231.607 238.222 231.652 238.084 231.734 237.962C231.811 237.844 231.921 237.752 232.044 237.706C232.167 237.655 232.304 237.649 232.427 237.685C232.555 237.72 232.669 237.796 232.756 237.908C232.843 238.014 232.903 238.152 232.922 238.299L232.922 238.294Z" fill="#56182F"/>
<path d="M221.716 237.155C221.73 237.246 221.725 237.343 221.707 237.435C221.689 237.526 221.653 237.613 221.603 237.689C221.553 237.766 221.489 237.827 221.416 237.878C221.343 237.924 221.266 237.955 221.179 237.97C221.01 238.012 220.832 237.971 220.686 237.875C220.54 237.774 220.434 237.611 220.388 237.423C220.374 237.331 220.374 237.235 220.397 237.143C220.415 237.051 220.451 236.965 220.501 236.888C220.551 236.812 220.615 236.75 220.688 236.699C220.761 236.653 220.843 236.622 220.925 236.607C221.094 236.566 221.272 236.606 221.418 236.702C221.564 236.804 221.67 236.966 221.716 237.155Z" fill="#56182F"/>
<path d="M216.326 241.41L216.225 240.957L222.671 243.408C227.794 244.305 230.349 244.191 235.468 242.869C239.675 240.47 239.676 240.765 239.676 240.765L237.452 252.749L238.963 263.028C238.963 263.028 234.297 264.562 228.021 264.239C220.631 264.091 216.581 263.425 216.581 263.425L218.29 254.054L216.326 241.41Z" fill="#1AD58E"/>
<path d="M225.163 250.355L226.824 250.279C226.707 249.109 226.649 247.627 227.103 244.282L225.463 244.011C225.01 247.367 225.036 248.981 225.163 250.355Z" fill="#0C97E8"/>
<path d="M225.693 245.792C225.706 245.548 225.893 245.359 226.117 245.374C226.34 245.388 226.505 245.597 226.492 245.846C226.479 246.096 226.292 246.279 226.068 246.265C225.845 246.25 225.68 246.042 225.693 245.792Z" fill="#FFB300"/>
<path d="M225.562 247.722C225.575 247.478 225.762 247.289 225.986 247.303C226.21 247.318 226.374 247.526 226.361 247.776C226.348 248.02 226.161 248.209 225.938 248.194C225.714 248.18 225.549 247.971 225.562 247.722Z" fill="#FFB300"/>
<path d="M224.648 239.677C224.996 239.956 225.809 240.483 226.746 240.75C227.961 241.093 228.8 240.943 229.055 240.769C229.174 240.687 229.237 240.478 229.269 240.28C229.296 240.305 229.324 240.336 229.351 240.366C229.978 241.097 229.113 242.036 228.443 242.354C227.768 242.671 225.969 242.559 224.95 241.844C224.063 241.226 224.028 240.096 224.657 239.677L224.648 239.677Z" fill="#A60D00"/>
<path d="M229.054 240.769C228.799 240.943 227.959 241.093 226.744 240.75C225.808 240.483 224.999 239.961 224.647 239.676C224.743 239.615 224.852 239.564 224.975 239.538C225.646 239.394 226.697 240.073 227.487 240.167C228.24 240.262 228.718 239.752 229.258 240.28C229.227 240.478 229.163 240.682 229.045 240.769L229.054 240.769Z" fill="#F6F6F7"/>
<path d="M234.247 224.409C237.657 226.405 239.994 230.578 240.393 233.702C240.612 235.422 240.378 237.195 239.839 238.83C239.675 239.324 238.568 242.158 237.744 241.183C237.529 240.929 237.865 240.2 237.892 239.889C238.079 237.776 237.093 239.601 236.215 238.932C235.118 238.09 237.135 236.043 236.736 235.092C236.167 233.729 234.789 236.182 233.967 235.823C232.802 235.312 234.313 233.292 233.699 232.535C232.784 231.407 231.9 234.133 230.969 233.963C229.562 233.707 230.964 231.687 230.428 230.996C229.54 229.848 228.81 231.866 228.341 232.397C226.642 234.311 226.719 229.734 226.744 228.599C226.798 226.405 227.271 227.747 226.891 227.163C226.548 226.629 226.548 226.843 226.435 227.419C226.323 227.994 226.273 228.356 226.247 228.982C226.225 229.501 225.873 233.076 225.024 232.981C224.266 232.897 223.975 231.478 223.486 230.975C222.795 230.259 222.203 230.861 222.246 231.869C222.27 232.495 222.825 233.654 222.004 233.901C221.183 234.148 220.81 232.662 220.216 232.348C219.713 232.08 219.276 232.371 219.19 232.972C219.15 233.257 219.278 233.425 219.397 233.684C219.558 234.03 219.81 234.406 219.884 234.798C219.958 235.179 219.685 235.557 219.338 235.547C219.091 235.538 218.785 235.427 218.57 235.3C218.378 235.184 218.154 234.914 217.899 234.966C217.251 235.1 217.431 235.894 217.532 236.23C217.702 236.794 218.297 237.505 217.8 237.995C217.614 238.179 217.34 238.154 217.107 238.114C216.833 238.064 216.728 237.871 216.485 237.78C216.015 237.603 215.907 238.163 215.99 238.565C216.045 238.835 217.03 240.487 216.254 240.494C215.378 240.501 214.532 235.993 214.517 235.301C214.247 224.8 225.011 219.003 234.238 224.414L234.247 224.409Z" fill="#391C00"/>
<path d="M223.461 246.745L226.427 244.212L229.35 247.065L239.679 240.765L239.376 240.302C239.376 240.302 238.689 241.317 236.185 242.103C224.737 245.606 216.053 240.408 216.053 240.408L215.876 240.785L223.461 246.74L223.461 246.745Z" fill="#F2F2F2"/>
<path d="M239.552 256.719C242.048 256.615 244.366 256.283 246.981 253.848C248.698 252.249 249.347 250.441 249.233 248.481C248.976 244.068 243.914 241.695 240.189 241.558C239.915 241.548 238.687 241.511 238.181 241.701C237.456 241.977 237.327 243.495 237.327 243.495C237.287 243.836 236.511 244.138 240.104 244.337C245.883 244.657 248.467 249.119 245.092 252C243.205 253.609 240.975 254.063 239.043 253.686L238.914 255.387C238.814 255.545 238.808 256.751 239.552 256.724L239.552 256.719Z" fill="#1AD58E"/>
<path d="M238.438 253.464C238.297 253.388 238.1 253.317 238.037 253.43C238 253.496 238.037 253.587 238.078 253.664C238.202 253.908 238.349 254.147 238.518 254.375C238.495 254.345 239.819 254.321 239.942 254.33C239.549 253.97 238.909 253.722 238.438 253.464Z" fill="#AF714A"/>
<path d="M240.129 256.238C239.618 256.408 239.098 256.582 238.606 256.792C238.455 256.859 238.3 256.915 238.15 256.982C238.04 257.028 237.853 257.197 237.721 257.182C237.543 257.162 237.52 257.03 237.542 256.897C237.578 256.714 237.775 256.632 237.911 256.535C237.957 256.504 238.235 256.381 238.185 256.29C238.102 256.147 237.86 256.275 237.687 256.352C237.637 256.373 237.395 256.526 237.368 256.572C237.314 256.654 237.222 256.694 237.136 256.741C237.086 256.766 237.013 256.787 236.958 256.726C236.921 256.685 236.907 256.629 236.903 256.583C236.898 256.476 236.92 256.385 236.952 256.298C237.093 255.891 237.526 255.859 237.832 255.639C237.841 255.634 237.85 255.624 237.85 255.608C237.831 255.491 237.403 255.64 237.366 255.651C237.311 255.666 237.257 255.681 237.22 255.717C237.184 255.753 237.029 255.845 237.006 255.896C236.952 256.013 236.787 256.064 236.692 256.131C236.66 256.156 236.61 256.172 236.564 256.131C236.546 256.111 236.532 256.086 236.527 256.06C236.477 255.897 236.59 255.714 236.631 255.581C236.735 255.23 236.881 255.199 237.114 255.051C237.273 254.943 237.597 254.886 237.688 254.723C237.309 254.628 236.926 254.812 236.698 255.036C236.653 255.082 236.594 255.128 236.52 255.078C236.155 254.824 236.729 254.283 236.852 254.257C237.24 254.17 237.627 254.072 238.034 254.04C238.476 254.008 238.896 254.104 239.357 254.174C239.723 254.229 240.152 254.34 240.463 254.746C240.715 255.071 240.821 255.728 240.644 255.957C240.535 256.095 240.334 256.182 240.129 256.249L240.129 256.238Z" fill="#AF714A"/>
<path d="M215.241 238.969C215.241 238.969 213.186 228.153 226.527 228.33C239.869 228.506 239.375 240.297 239.375 240.297C239.375 240.297 240.015 238.662 239.649 236.341C238.52 229.167 232.375 226.542 227.158 226.439C217.139 226.248 214.045 233.002 214.863 237.484L215.245 238.969L215.241 238.969Z" fill="#FFB300"/>
<path d="M240.786 228.707C240.786 228.707 239.399 231.185 236.933 228.357C234.224 225.244 236.634 223.262 236.634 223.262C236.634 223.262 236.119 223.508 235.791 224.033C234.854 225.563 235.374 227.424 236.308 228.567C238.093 230.761 239.944 230.074 240.59 229.064L240.786 228.707Z" fill="#7BE708"/>
<path d="M214.363 227.371C214.363 227.371 215.697 229.887 218.224 227.126C221.006 224.089 218.637 222.044 218.637 222.044C218.637 222.044 219.149 222.302 219.461 222.841C220.363 224.396 219.797 226.241 218.841 227.358C217.006 229.501 215.17 228.763 214.547 227.737L214.363 227.371Z" fill="#7BE708"/>
<path d="M235.184 224.646C234.664 224.703 234.358 224.526 234.142 223.997C234.013 223.682 233.967 223.493 234.067 223.147C234.085 223.086 234.39 222.505 234.426 222.535C233.896 222.073 233.991 221.701 234.35 221.222C234.673 220.788 234.656 221.201 234.509 220.555C234.435 220.239 234.37 219.965 234.465 219.638C234.61 219.134 235.057 218.848 235.523 218.918C235.614 218.933 235.701 218.958 235.783 218.999C235.797 218.988 235.81 218.978 235.824 218.968C235.659 218.597 235.685 218.108 235.867 217.741C236.112 217.262 236.555 217.067 237.02 217.015C236.887 216.577 236.968 216.043 237.277 215.68C237.742 215.129 238.431 215.234 238.952 215.625C239.097 215.192 239.407 214.835 239.831 214.721C240.201 214.619 240.566 214.719 240.854 214.953C241.018 214.596 241.305 214.31 241.679 214.228C242.112 214.13 242.51 214.317 242.78 214.647C243.116 214.219 243.673 213.988 244.193 214.109C244.764 214.24 245.171 214.707 245.405 215.271C245.692 214.827 246.107 214.557 246.628 214.896C247.181 215.256 247.096 216.01 247.248 216.62C247.499 216.482 247.832 216.486 248.115 216.653C248.385 216.815 248.513 217.059 248.559 217.334C249.107 217.409 249.633 217.733 249.985 218.236C250.265 218.638 250.435 219.192 250.331 219.696C250.679 220.164 250.849 220.83 250.613 221.34C250.65 221.442 250.677 221.543 250.691 221.655C250.756 222.144 250.584 222.592 250.293 222.909C250.444 223.132 250.549 223.391 250.6 223.641C250.78 224.485 250.366 225.306 249.719 225.664C250.03 226.091 250.155 226.676 249.942 227.226C249.742 227.731 249.309 228.048 248.839 228.115C248.913 228.405 248.909 228.726 248.836 229.016C248.692 229.571 248.241 230.082 247.707 230.058C247.602 230.201 247.484 230.323 247.352 230.43C247.316 230.659 247.216 230.868 247.043 231.032C246.829 231.231 246.546 231.298 246.281 231.253C246.232 231.747 245.986 232.195 245.493 232.227C245.247 232.243 245.014 232.127 244.845 231.939C244.676 232.056 244.48 232.118 244.274 232.114C243.729 232.945 242.524 232.963 241.888 232.268C241.587 232.574 241.122 232.682 240.711 232.571C239.953 232.365 239.873 231.566 239.384 231.109C238.894 230.652 238.47 230.72 238.696 229.823C237.674 229.724 236.957 229.492 237.469 228.147C236.662 228.139 235.739 227.897 236.408 226.882C235.848 227.469 235.549 226.396 235.721 225.876C235.53 226.294 235.086 225.852 235.008 225.603C234.994 225.552 234.994 225.425 235.007 225.282C235.034 224.997 235.111 224.646 235.184 224.635L235.184 224.646Z" fill="#391C00"/>
<path d="M213.813 231.562C213.162 232.24 211.957 232.188 211.435 231.339C211.23 231.34 211.038 231.269 210.869 231.147C210.695 231.331 210.458 231.444 210.212 231.419C209.719 231.369 209.48 230.912 209.443 230.423C209.178 230.465 208.9 230.389 208.689 230.181C208.525 230.018 208.428 229.8 208.396 229.571C208.268 229.459 208.149 229.332 208.048 229.19C207.514 229.202 207.075 228.679 206.946 228.119C206.877 227.824 206.88 227.508 206.962 227.218C206.496 227.133 206.066 226.808 205.878 226.294C205.676 225.735 205.812 225.154 206.135 224.736C205.49 224.361 205.101 223.527 205.3 222.687C205.358 222.437 205.472 222.182 205.627 221.963C205.343 221.638 205.182 221.186 205.259 220.702C205.277 220.59 205.304 220.488 205.345 220.391C205.12 219.872 205.305 219.21 205.665 218.756C205.573 218.247 205.754 217.697 206.041 217.304C206.405 216.815 206.938 216.503 207.486 216.445C207.535 216.17 207.672 215.925 207.945 215.777C208.232 215.618 208.561 215.622 208.812 215.769C208.975 215.158 208.91 214.405 209.47 214.062C209.999 213.735 210.411 214.019 210.685 214.471C210.935 213.911 211.35 213.456 211.924 213.343C212.444 213.24 212.993 213.482 213.322 213.919C213.595 213.598 214.001 213.419 214.431 213.529C214.8 213.625 215.084 213.914 215.24 214.275C215.532 214.051 215.901 213.958 216.271 214.069C216.691 214.2 216.993 214.566 217.127 214.998C217.651 214.625 218.344 214.537 218.798 215.1C219.1 215.471 219.165 216.005 219.024 216.444C219.49 216.514 219.929 216.716 220.162 217.204C220.341 217.575 220.351 218.064 220.179 218.431C220.193 218.441 220.206 218.451 220.22 218.461C220.302 218.425 220.389 218.4 220.485 218.389C220.95 218.337 221.389 218.631 221.522 219.14C221.651 219.623 221.497 220.112 221.215 220.485C221.458 220.952 221.546 221.502 221.478 222.026C221.47 222.097 221.799 222.56 221.827 222.707C221.887 223.013 221.847 223.323 221.715 223.598C221.383 224.282 221.04 224.003 220.488 224.08C220.585 224.472 220.572 224.961 220.262 225.247C219.934 225.548 219.66 225.32 219.318 225.254C219.419 225.911 219.284 226.629 218.549 226.443C218.55 227.104 218.264 227.548 217.638 227.178C217.598 227.983 217.549 228.329 216.741 228.301C216.956 228.31 216.816 229.013 216.757 229.12C216.588 229.416 216.118 229.336 215.986 229.555C215.863 229.754 216.061 230.278 216.02 230.548C215.926 231.138 215.525 231.76 214.987 231.894C214.572 231.992 214.111 231.871 213.818 231.562L213.813 231.562Z" fill="#391C00"/>
<defs>
<linearGradient id="paint0_linear_334_4530" x1="70.6494" y1="120.956" x2="74.8041" y2="142.558" gradientUnits="userSpaceOnUse">
<stop offset="0.15" stop-color="#935123"/>
<stop offset="0.31" stop-color="#80421C"/>
<stop offset="0.58" stop-color="#662E13"/>
<stop offset="0.81" stop-color="#56220D"/>
<stop offset="1" stop-color="#511E0B"/>
</linearGradient>
<linearGradient id="paint1_linear_334_4530" x1="69.2699" y1="132.192" x2="69.427" y2="121.515" gradientUnits="userSpaceOnUse">
<stop offset="0.15" stop-color="#935123"/>
<stop offset="0.45" stop-color="#984F29"/>
<stop offset="1" stop-color="#9C4D2E"/>
</linearGradient>
<linearGradient id="paint2_linear_334_4530" x1="184.642" y1="217.431" x2="184.906" y2="225.851" gradientUnits="userSpaceOnUse">
<stop offset="0.35" stop-color="white"/>
<stop offset="0.65" stop-color="#B4D0ED"/>
<stop offset="1" stop-color="white"/>
</linearGradient>
<linearGradient id="paint3_linear_334_4530" x1="172.291" y1="215.398" x2="172.561" y2="223.819" gradientUnits="userSpaceOnUse">
<stop offset="0.35" stop-color="white"/>
<stop offset="0.65" stop-color="#B4D0ED"/>
<stop offset="1" stop-color="white"/>
</linearGradient>
<linearGradient id="paint4_linear_334_4530" x1="181.979" y1="54.8041" x2="191.123" y2="56.251" gradientUnits="userSpaceOnUse">
<stop stop-color="#2B8076"/>
<stop offset="1" stop-color="#00578A"/>
</linearGradient>
<linearGradient id="paint5_linear_334_4530" x1="107.836" y1="101.273" x2="107.836" y2="118.528" gradientUnits="userSpaceOnUse">
<stop offset="0.26" stop-color="#8CEDE2"/>
<stop offset="1" stop-color="#3FACEB"/>
</linearGradient>
<linearGradient id="paint6_linear_334_4530" x1="112.601" y1="103.244" x2="112.601" y2="32.5123" gradientUnits="userSpaceOnUse">
<stop offset="0.26" stop-color="#8CEDE2"/>
<stop offset="1" stop-color="#3FACEB"/>
</linearGradient>
<linearGradient id="paint7_linear_334_4530" x1="117.33" y1="105.59" x2="117.33" y2="32.5124" gradientUnits="userSpaceOnUse">
<stop offset="0.26" stop-color="#8CEDE2"/>
<stop offset="1" stop-color="#3FACEB"/>
</linearGradient>
</defs>
</svg>
