<svg width="705" height="709" viewBox="0 0 705 709" fill="none" xmlns="http://www.w3.org/2000/svg">
<path d="M85.0553 451.707H3.16431C1.90427 451.707 0.882812 452.774 0.882812 454.09V454.683C0.882812 455.999 1.90427 457.067 3.16431 457.067H85.0553C86.3153 457.067 87.3368 455.999 87.3368 454.683V454.09C87.3368 452.774 86.3153 451.707 85.0553 451.707Z" fill="#9CE1FC"/>
<path d="M85.055 469.79H42.4085C41.1484 469.79 40.127 470.858 40.127 472.174V472.767C40.127 474.083 41.1484 475.15 42.4085 475.15H85.055C86.315 475.15 87.3365 474.083 87.3365 472.767V472.174C87.3365 470.858 86.315 469.79 85.055 469.79Z" fill="#9CE1FC"/>
<path d="M106.302 469.79H93.342C92.082 469.79 91.0605 470.858 91.0605 472.174V472.767C91.0605 474.083 92.082 475.15 93.342 475.15H106.302C107.562 475.15 108.584 474.083 108.584 472.767V472.174C108.584 470.858 107.562 469.79 106.302 469.79Z" fill="#9CE1FC"/>
<path d="M90.6569 483.487H8.76587C7.50584 483.487 6.48438 484.554 6.48438 485.871V486.463C6.48438 487.78 7.50584 488.847 8.76587 488.847H90.6569C91.9169 488.847 92.9384 487.78 92.9384 486.463V485.871C92.9384 484.554 91.9169 483.487 90.6569 483.487Z" fill="#9CE1FC"/>
<path d="M19.9171 465.756H12.7756C11.5201 465.756 10.4941 464.557 10.4941 463.076C10.4941 461.595 11.5201 460.396 12.7756 460.396H19.9171C21.1726 460.396 22.1986 461.595 22.1986 463.076C22.1986 464.557 21.1726 465.756 19.9171 465.756Z" fill="#9CE1FC"/>
<path d="M23.6554 497.409H16.5139C15.2584 497.409 14.2324 496.21 14.2324 494.729C14.2324 493.248 15.2584 492.049 16.5139 492.049H23.6554C24.9109 492.049 25.9369 493.248 25.9369 494.729C25.9369 496.21 24.9109 497.409 23.6554 497.409Z" fill="#9CE1FC"/>
<path d="M134.412 497.409H88.0256C86.7701 497.409 85.7441 496.21 85.7441 494.729C85.7441 493.248 86.7701 492.049 88.0256 492.049H134.412C135.667 492.049 136.693 493.248 136.693 494.729C136.693 496.21 135.667 497.409 134.412 497.409Z" fill="#9CE1FC"/>
<path d="M102.644 457.067H95.5022C94.2467 457.067 93.2207 455.868 93.2207 454.387C93.2207 452.906 94.2467 451.707 95.5022 451.707H102.644C103.899 451.707 104.925 452.906 104.925 454.387C104.925 455.868 103.899 457.067 102.644 457.067Z" fill="#9CE1FC"/>
<path d="M105.993 488.833H98.8518C97.5963 488.833 96.5703 487.634 96.5703 486.153C96.5703 484.672 97.5963 483.473 98.8518 483.473H105.993C107.249 483.473 108.275 484.672 108.275 486.153C108.275 487.634 107.249 488.833 105.993 488.833Z" fill="#9CE1FC"/>
<path d="M135.124 488.833H114.901C113.645 488.833 112.619 487.634 112.619 486.153C112.619 484.672 113.645 483.473 114.901 483.473H135.124C136.379 483.473 137.405 484.672 137.405 486.153C137.405 487.634 136.379 488.833 135.124 488.833Z" fill="#9CE1FC"/>
<path d="M78.6808 497.409H31.1877C29.9322 497.409 28.9062 496.21 28.9062 494.729C28.9062 493.248 29.9322 492.049 31.1877 492.049H78.6808C79.9363 492.049 80.9622 493.248 80.9622 494.729C80.9622 496.21 79.9363 497.409 78.6808 497.409Z" fill="#9CE1FC"/>
<path d="M109.599 465.756H83.7737C82.5182 465.756 81.4922 464.557 81.4922 463.076C81.4922 461.595 82.5182 460.396 83.7737 460.396H109.599C110.855 460.396 111.881 461.595 111.881 463.076C111.881 464.557 110.855 465.756 109.599 465.756Z" fill="#9CE1FC"/>
<path d="M74.7263 465.756H28.3538C27.0983 465.756 26.0723 464.557 26.0723 463.076C26.0723 461.595 27.0983 460.396 28.3538 460.396H74.7398C75.9953 460.396 77.0213 461.595 77.0213 463.076C77.0213 464.557 75.9953 465.756 74.7398 465.756H74.7263Z" fill="#9CE1FC"/>
<path d="M129.563 457.067H109.34C108.085 457.067 107.059 455.868 107.059 454.387C107.059 452.906 108.085 451.707 109.34 451.707H129.563C130.819 451.707 131.845 452.906 131.845 454.387C131.845 455.868 130.819 457.067 129.563 457.067Z" fill="#9CE1FC"/>
<path d="M634.674 280.916H552.783C551.523 280.916 550.502 281.983 550.502 283.299V283.892C550.502 285.208 551.523 286.276 552.783 286.276H634.674C635.934 286.276 636.956 285.208 636.956 283.892V283.299C636.956 281.983 635.934 280.916 634.674 280.916Z" fill="#DEFC9C"/>
<path d="M634.66 298.999H592.014C590.754 298.999 589.732 300.066 589.732 301.383V301.975C589.732 303.292 590.754 304.359 592.014 304.359H634.66C635.92 304.359 636.942 303.292 636.942 301.975V301.383C636.942 300.066 635.92 298.999 634.66 298.999Z" fill="#DEFC9C"/>
<path d="M655.923 298.999H642.963C641.703 298.999 640.682 300.066 640.682 301.383V301.975C640.682 303.292 641.703 304.359 642.963 304.359H655.923C657.183 304.359 658.205 303.292 658.205 301.975V301.383C658.205 300.066 657.183 298.999 655.923 298.999Z" fill="#DEFC9C"/>
<path d="M640.276 312.682H558.385C557.125 312.682 556.104 313.749 556.104 315.066V315.658C556.104 316.975 557.125 318.042 558.385 318.042H640.276C641.536 318.042 642.557 316.975 642.557 315.658V315.066C642.557 313.749 641.536 312.682 640.276 312.682Z" fill="#DEFC9C"/>
<path d="M569.523 294.951H562.381C561.126 294.951 560.1 293.752 560.1 292.27C560.1 290.789 561.126 289.59 562.381 289.59H569.523C570.778 289.59 571.804 290.789 571.804 292.27C571.804 293.752 570.778 294.951 569.523 294.951Z" fill="#DEFC9C"/>
<path d="M573.263 326.618H566.121C564.866 326.618 563.84 325.419 563.84 323.938C563.84 322.457 564.866 321.258 566.121 321.258H573.263C574.518 321.258 575.544 322.457 575.544 323.938C575.544 325.419 574.518 326.618 573.263 326.618Z" fill="#DEFC9C"/>
<path d="M667.208 326.618H620.823C619.567 326.618 618.541 325.419 618.541 323.938C618.541 322.457 619.567 321.258 620.823 321.258H667.208C668.464 321.258 669.49 322.457 669.49 323.938C669.49 325.419 668.464 326.618 667.208 326.618Z" fill="#DEFC9C"/>
<path d="M652.251 286.275H645.11C643.854 286.275 642.828 285.076 642.828 283.595C642.828 282.114 643.854 280.915 645.11 280.915H652.251C653.507 280.915 654.533 282.114 654.533 283.595C654.533 285.076 653.507 286.275 652.251 286.275Z" fill="#DEFC9C"/>
<path d="M655.597 318.042H648.455C647.2 318.042 646.174 316.843 646.174 315.362C646.174 313.881 647.2 312.682 648.455 312.682H655.597C656.852 312.682 657.878 313.881 657.878 315.362C657.878 316.843 656.852 318.042 655.597 318.042Z" fill="#DEFC9C"/>
<path d="M684.731 318.042H664.508C663.253 318.042 662.227 316.843 662.227 315.362C662.227 313.881 663.253 312.682 664.508 312.682H684.731C685.987 312.682 687.013 313.881 687.013 315.362C687.013 316.843 685.987 318.042 684.731 318.042Z" fill="#DEFC9C"/>
<path d="M628.302 326.618H580.809C579.553 326.618 578.527 325.419 578.527 323.938C578.527 322.457 579.553 321.258 580.809 321.258H628.302C629.557 321.258 630.583 322.457 630.583 323.938C630.583 325.419 629.557 326.618 628.302 326.618Z" fill="#DEFC9C"/>
<path d="M659.201 294.951H633.375C632.12 294.951 631.094 293.752 631.094 292.27C631.094 290.789 632.12 289.59 633.375 289.59H659.201C660.456 289.59 661.482 290.789 661.482 292.27C661.482 293.752 660.456 294.951 659.201 294.951Z" fill="#DEFC9C"/>
<path d="M624.347 294.951H577.961C576.706 294.951 575.68 293.752 575.68 292.271C575.68 290.79 576.706 289.591 577.961 289.591H624.347C625.603 289.591 626.629 290.79 626.629 292.271C626.629 293.752 625.603 294.951 624.347 294.951Z" fill="#DEFC9C"/>
<path d="M671.705 286.275H658.961C657.706 286.275 656.68 285.076 656.68 283.595C656.68 282.114 657.706 280.915 658.961 280.915H671.705C672.961 280.915 673.987 282.114 673.987 283.595C673.987 285.076 672.961 286.275 671.705 286.275Z" fill="#DEFC9C"/>
<path d="M323.054 152.479C320.34 151.421 318.18 149.221 317.073 146.442C317.06 146.414 317.046 146.385 317.033 146.357C315.912 143.564 315.953 140.404 317.154 137.626L318.072 135.524L311.052 128.189L309.027 129.148C306.381 130.403 303.357 130.446 300.684 129.275C300.657 129.261 300.63 129.247 300.603 129.233C297.93 128.09 295.838 125.819 294.825 122.984L294.042 120.812H284.133L283.35 122.984C282.338 125.819 280.232 128.076 277.572 129.233C277.545 129.247 277.518 129.261 277.491 129.275C274.818 130.446 271.794 130.389 269.148 129.148L267.123 128.189L260.103 135.524L261.021 137.626C262.223 140.39 262.263 143.55 261.143 146.357C261.129 146.385 261.116 146.414 261.102 146.442C260.009 149.235 257.835 151.421 255.122 152.479L253.043 153.283V163.651L255.122 164.469C257.835 165.527 259.995 167.713 261.102 170.506C261.116 170.534 261.129 170.563 261.143 170.577C262.263 173.384 262.223 176.529 261.021 179.308L260.103 181.424L267.123 188.759L269.148 187.8C271.794 186.544 274.818 186.502 277.491 187.673C277.518 187.673 277.545 187.701 277.572 187.701C280.245 188.858 282.338 191.129 283.35 193.95L284.133 196.122H294.042L294.825 193.95C295.838 191.129 297.944 188.858 300.603 187.701C300.63 187.701 300.657 187.673 300.684 187.673C303.357 186.502 306.381 186.544 309.027 187.8L311.052 188.759L318.072 181.424L317.154 179.308C315.953 176.543 315.912 173.384 317.033 170.577C317.046 170.549 317.06 170.52 317.073 170.506C318.167 167.713 320.34 165.527 323.054 164.469L325.133 163.651V153.283L323.054 152.479ZM289.101 183.907C275.655 183.907 264.761 172.509 264.761 158.474C264.761 144.439 275.669 133.041 289.101 133.041C302.534 133.041 313.442 144.439 313.442 158.474C313.442 172.509 302.547 183.907 289.101 183.907Z" fill="#677FF2"/>
<path d="M452.417 22.6116C450.486 21.8498 448.934 20.2841 448.151 18.2952C448.151 18.267 448.137 18.2529 448.124 18.2388C447.327 16.2358 447.354 13.9788 448.218 12.004L448.866 10.4947L443.858 5.26145L442.413 5.93853C440.523 6.8272 438.363 6.86951 436.46 6.03727C436.433 6.03727 436.419 6.02317 436.406 6.00906C434.502 5.19093 433.004 3.56876 432.275 1.55163L431.721 0H424.634L424.08 1.55163C423.351 3.56876 421.853 5.19093 419.949 6.00906C419.936 6.00906 419.909 6.02317 419.895 6.03727C417.978 6.86951 415.818 6.8413 413.942 5.93853L412.497 5.26145L407.489 10.4947L408.137 12.004C409.001 13.9788 409.028 16.2358 408.231 18.2388C408.231 18.267 408.218 18.2811 408.204 18.2952C407.421 20.2841 405.869 21.8498 403.938 22.6116L402.453 23.1899V30.5954L403.938 31.1738C405.869 31.9355 407.421 33.4871 408.204 35.4901C408.204 35.5042 408.218 35.5325 408.231 35.5466C409.028 37.5496 409.001 39.8065 408.137 41.7813L407.489 43.2906L412.497 48.5239L413.942 47.8468C415.832 46.944 417.992 46.9158 419.895 47.7481C419.922 47.7481 419.936 47.7622 419.949 47.7763C421.853 48.6085 423.351 50.2166 424.08 52.2337L424.634 53.7853H431.721L432.275 52.2337C433.004 50.2166 434.502 48.5944 436.406 47.7763C436.419 47.7763 436.446 47.7622 436.46 47.7481C438.377 46.9158 440.537 46.944 442.413 47.8468L443.858 48.5239L448.866 43.2906L448.218 41.7813C447.354 39.8065 447.327 37.5496 448.124 35.5466C448.124 35.5325 448.137 35.5042 448.151 35.4901C448.934 33.4871 450.486 31.9355 452.417 31.1738L453.902 30.5954V23.1899L452.417 22.6116ZM428.157 45.068C418.559 45.068 410.769 36.9289 410.769 26.8997C410.769 16.8705 418.559 8.73148 428.157 8.73148C437.756 8.73148 445.545 16.8705 445.545 26.8997C445.545 36.9289 437.756 45.068 428.157 45.068Z" fill="#45CBFA"/>
<g opacity="0.45">
<path d="M364.5 709C552.553 709 705 692.222 705 671.525C705 650.829 552.553 634.051 364.5 634.051C176.447 634.051 24 650.829 24 671.525C24 692.222 176.447 709 364.5 709Z" fill="#454549"/>
</g>
<path d="M589.268 600.312H69.7071C52.4271 600.312 38.4141 586.728 38.4141 569.97V211.5C38.4141 194.742 52.4271 180.383 69.7071 179.409L589.268 150.351C606.548 149.378 620.561 163.244 620.561 181.3V567.615C620.561 585.67 606.548 600.312 589.268 600.312Z" fill="#6477FF"/>
<path d="M571.059 570.454L87.881 572.246C76.784 572.288 67.793 563.571 67.793 552.766V224.002C67.793 213.211 76.784 203.986 87.881 203.394L571.059 177.975C582.156 177.397 591.147 186.283 591.147 197.822V549.451C591.147 561.004 582.156 570.398 571.059 570.44V570.454Z" fill="#909DFF"/>
<path d="M544.427 538.886L114.547 542.187C107.081 542.243 101.033 536.375 101.033 529.082V245.824C101.033 238.531 107.081 232.311 114.547 231.958L544.427 211.053C551.893 210.687 557.941 216.667 557.941 224.412V524.78C557.941 532.524 551.893 538.844 544.427 538.9V538.886Z" fill="#A7C2F9"/>
<path d="M238.857 528.419L126.78 529.463C120.178 529.52 114.832 524.329 114.832 517.868V257.151C114.832 250.691 120.178 245.204 126.78 244.893L238.857 239.646C245.458 239.335 250.804 244.414 250.804 251.001V516.401C250.804 522.975 245.458 528.363 238.857 528.433V528.419Z" fill="#BCCFFC"/>
<path d="M532.17 525.683L276.844 528.067C270.418 528.123 265.207 522.975 265.207 516.556V250.028C265.207 243.61 270.418 238.165 276.844 237.854L532.17 225.893C538.596 225.597 543.807 230.745 543.807 237.389V513.524C543.807 520.182 538.596 525.612 532.17 525.669V525.683Z" fill="#CCDAFC"/>
<path d="M226.029 512.593L139.278 513.58C133.689 513.65 129.166 509.249 129.166 503.776V270.495C129.166 265.022 133.689 260.367 139.278 260.127L226.029 256.248C231.618 255.994 236.14 260.297 236.14 265.854V502.422C236.14 507.98 231.618 512.536 226.029 512.593Z" fill="#D8E3FB"/>
<path d="M521.044 410.89L288.817 416.405C284.538 416.504 281.055 413.119 281.055 408.817V386.078C281.055 381.79 284.524 378.207 288.817 378.094L521.044 371.436C525.324 371.309 528.807 374.807 528.807 379.237V402.709C528.807 407.138 525.337 410.805 521.044 410.904V410.89Z" fill="#F6F8FB"/>
<path d="M218.617 373.2L145.825 375.358C143.381 375.428 141.41 373.552 141.41 371.154V366.062C141.41 363.664 143.381 361.661 145.825 361.591L218.617 359.305C221.06 359.235 223.031 361.125 223.031 363.551V368.7C223.031 371.126 221.06 373.143 218.617 373.214V373.2Z" fill="#F6F8FB"/>
<path d="M218.495 413.655L145.946 415.418C143.449 415.474 141.41 413.528 141.41 411.073V406.221C141.41 403.767 143.435 401.707 145.946 401.651L218.495 399.761C220.993 399.69 223.031 401.665 223.031 404.148V409.056C223.031 411.539 221.006 413.612 218.495 413.669V413.655Z" fill="#F6F8FB"/>
<path d="M218.441 434.151L145.987 435.716C143.462 435.773 141.41 433.798 141.41 431.315V426.548C141.41 424.065 143.462 422.006 145.987 421.935L218.441 420.242C220.966 420.186 223.018 422.175 223.018 424.686V429.51C223.018 432.021 220.966 434.108 218.441 434.151Z" fill="#F6F8FB"/>
<path d="M218.428 454.66L146.014 456.029C143.476 456.071 141.41 454.096 141.41 451.599V446.874C141.41 444.377 143.476 442.304 146.014 442.261L218.428 440.752C220.966 440.696 223.031 442.699 223.031 445.224V450.006C223.031 452.53 220.966 454.618 218.428 454.66Z" fill="#F6F8FB"/>
<path d="M218.441 475.17L146 476.355C143.462 476.397 141.41 474.409 141.41 471.926V467.172C141.41 464.69 143.462 462.63 146 462.588L218.441 461.276C220.979 461.234 223.031 463.237 223.031 465.748V470.558C223.031 473.068 220.979 475.142 218.441 475.184V475.17Z" fill="#F6F8FB"/>
<path d="M218.47 495.68L145.975 496.667C143.464 496.696 141.426 494.721 141.426 492.252V487.442C141.426 484.974 143.464 482.928 145.975 482.9L218.47 481.786C220.981 481.743 223.02 483.747 223.02 486.243V491.11C223.02 493.606 220.981 495.666 218.47 495.694V495.68Z" fill="#F6F8FB"/>
<path d="M521.492 356.399L288.387 363.523C284.337 363.65 281.07 360.462 281.07 356.414V261.115C281.07 257.067 284.351 253.639 288.387 253.455L521.492 243.017C525.542 242.834 528.809 246.078 528.809 250.253V348.613C528.809 352.788 525.528 356.272 521.492 356.399Z" fill="#F6F8FB"/>
<path d="M518.238 461.431L291.627 465.381C285.795 465.48 281.07 460.825 281.07 454.985V434.785C281.07 428.946 285.795 424.107 291.627 423.966L518.238 418.804C524.07 418.677 528.795 423.444 528.795 429.482V450.33C528.795 456.353 524.07 461.318 518.238 461.431Z" fill="#F6F8FB"/>
<path d="M518.157 508.742L291.722 511.337C285.836 511.408 281.07 506.682 281.07 500.786V483.845C281.07 477.949 285.836 473.097 291.722 472.998L518.157 469.274C524.043 469.175 528.809 474.028 528.809 480.107V497.598C528.809 503.678 524.043 508.657 518.157 508.728V508.742Z" fill="#F6F8FB"/>
<mask id="mask0_562_8942" style="mask-type:luminance" maskUnits="userSpaceOnUse" x="148" y="282" width="69" height="67">
<path d="M216.081 314.251C216.081 332.815 200.921 348.359 182.223 348.98C163.526 349.601 148.365 335.184 148.365 316.776C148.365 298.368 163.526 282.824 182.223 282.048C200.921 281.272 216.081 295.688 216.081 314.251Z" fill="white"/>
</mask>
<g mask="url(#mask0_562_8942)">
<path d="M216.081 314.251C216.081 332.815 200.921 348.359 182.223 348.98C163.526 349.601 148.365 335.184 148.365 316.776C148.365 298.368 163.526 282.824 182.223 282.048C200.921 281.272 216.081 295.688 216.081 314.251Z" fill="#45C0D9"/>
<path d="M211.344 328.936C214.233 329.641 217.433 329.26 220.133 327.849C217.176 335.65 211.412 341.969 203.231 344.776C196.008 347.245 188.138 345.877 180.74 344.551C176.487 343.789 169.683 341.419 166.929 337.977C165.012 335.579 163.352 333.012 162.029 330.233C158.168 322.165 157.331 311.628 162.947 303.616C168.225 296.069 177.797 292.853 186.585 293.417C195.09 293.967 202.245 298.947 204.918 307.001C205.809 309.667 206.12 312.502 206.768 315.239C207.416 317.975 208.482 320.726 210.534 322.616C212.6 324.506 215.867 325.339 218.418 323.956C216.042 326.481 212.654 328.047 209.238 328.188C209.913 328.498 210.615 328.738 211.344 328.921V328.936Z" fill="url(#paint0_linear_562_8942)"/>
<path d="M217.985 336.482C226.234 337.568 234.334 333.308 243.041 324.506L240.341 321.572C232.903 329.091 225.343 332.095 218.876 331.263C208.954 329.979 203.392 319.005 203.338 318.892L200.786 320.317L203.149 319.047L198.41 321.572C198.694 322.108 205.376 334.803 217.985 336.468V336.482Z" fill="#A75CD9"/>
<path d="M166.062 347.259L193.818 349.318L193.211 352.422L170.221 352.464L168.088 350.108L166.062 347.245V347.259Z" fill="#4AD5C2"/>
<path d="M174.097 350.814L169.062 348.289C169.156 357.895 162.312 359.968 162.082 360.081H162.096L162.406 363.156C162.717 363.001 172.153 360.645 174.084 350.814H174.097Z" fill="#4AD5C2"/>
<path d="M192.238 348.994L186.203 351.97C195.181 355.468 195.019 363.636 195.019 363.875L197.422 363.692L195.019 363.847L198.029 364.722C198.029 364.383 199.163 353.959 192.238 348.98V348.994Z" fill="#4AD5C2"/>
<path d="M202.891 312.248C195.331 299.581 185.098 299.186 174.635 304.321C161.527 310.739 164.375 324.267 164.375 324.267C164.308 322.969 162.296 322.461 162.04 315.14C161.878 310.471 164.078 306.818 167.642 303.559C169.937 301.472 172.624 299.849 175.526 298.777C181.777 296.45 188.594 296.549 194.575 299.06C200.825 301.726 205.564 307.579 203.768 315.084C203.593 315.789 203.147 313.969 203.363 314.632C203.363 314.632 202.877 312.263 202.904 312.248H202.891Z" fill="#5932CF"/>
<path d="M186.515 327.37C193.873 326.425 201.986 321.925 202.877 320.232C203.674 318.695 203.323 315.817 202.972 314.237C201.595 308.073 192.158 303.87 183.91 304.49C174.149 305.252 165.752 312.206 165.28 321.869C165.253 322.419 165.253 322.884 165.28 323.463C164.659 327.878 176.201 328.71 186.515 327.384V327.37Z" fill="#FCDBC7"/>
<path d="M174.703 318.554C174.662 318.85 174.743 319.146 174.919 319.372C175.094 319.597 175.364 319.753 175.661 319.781C175.877 319.809 176.107 319.767 176.309 319.668C176.512 319.569 176.687 319.414 176.795 319.217C176.917 319.019 176.971 318.793 176.957 318.582C176.957 318.356 176.863 318.145 176.728 317.975C176.593 317.806 176.404 317.679 176.201 317.609C175.985 317.538 175.756 317.538 175.54 317.609C175.324 317.665 175.121 317.792 174.973 317.961C174.824 318.13 174.73 318.342 174.689 318.568L174.703 318.554Z" fill="#426932"/>
<path d="M193.862 316.085C193.835 316.226 193.849 316.367 193.876 316.508C193.903 316.65 193.97 316.776 194.051 316.889C194.132 317.002 194.24 317.087 194.362 317.157C194.483 317.228 194.618 317.27 194.767 317.284C195.05 317.327 195.361 317.27 195.604 317.101C195.86 316.932 196.036 316.692 196.103 316.396C196.13 316.255 196.117 316.113 196.09 315.972C196.063 315.831 195.995 315.704 195.914 315.592C195.833 315.479 195.725 315.394 195.59 315.324C195.469 315.253 195.334 315.211 195.185 315.197C194.902 315.14 194.591 315.211 194.348 315.38C194.092 315.549 193.916 315.803 193.849 316.085H193.862Z" fill="#426932"/>
<path d="M180.617 315.422C191.579 313.222 190.607 306.592 190.607 306.592L192.132 307.142C191.876 315.535 177.62 316.325 177.62 316.325C177.62 316.325 169.641 317.609 180.603 315.422H180.617Z" fill="#935123"/>
<path d="M203.539 310.076C205.483 314.858 203.147 319.922 203.12 319.922C202.526 320.359 194.21 311.995 191.564 308.059C187.352 312.912 179.333 315.563 173.258 317.623C171.598 318.187 169.91 318.822 168.614 320.021C167.831 320.768 167.197 321.657 166.765 322.645C166.333 323.618 166.09 324.676 166.076 325.734C166.036 326.834 165.185 325.889 164.821 325.254C163.727 323.364 163.322 321.812 163.187 319.005C162.931 313.617 165.226 309.343 169.451 305.619C179.563 296.69 198.719 298.242 203.539 310.104V310.076Z" fill="url(#paint1_linear_562_8942)"/>
<path d="M203.068 322.165L203.136 319.95L192.525 324.915C183.777 326.608 179.133 327.299 170.385 325.635C167.131 325.028 162.73 323.039 162.73 323.039L166.038 349.333L196.858 350.701L203.068 322.165Z" fill="#A75CD9"/>
<path d="M186.585 336.51L183.777 336.129C184.209 334.38 184.601 332.166 184.493 327.045L187.328 326.89C187.422 332.025 187.058 334.451 186.572 336.51H186.585Z" fill="#5932CF"/>
<path d="M189.89 330.854L185.826 327.088L182.06 331.559L161.891 322.912L162.539 322.207C162.539 322.207 164.874 323.519 169.154 324.549C188.729 329.105 203.282 319.245 203.282 319.245L203.984 319.428L189.89 330.868V330.854Z" fill="#F2F2F2"/>
<path d="M186.598 329.542C186.625 329.175 186.341 328.851 185.963 328.837C185.585 328.837 185.261 329.119 185.234 329.486C185.207 329.853 185.491 330.177 185.869 330.191C186.247 330.191 186.571 329.909 186.598 329.542Z" fill="#7589A1"/>
<path d="M186.438 332.476C186.465 332.109 186.181 331.785 185.803 331.771C185.425 331.771 185.101 332.053 185.074 332.42C185.047 332.786 185.331 333.111 185.709 333.125C186.087 333.125 186.411 332.843 186.438 332.476Z" fill="#7589A1"/>
<path d="M189.027 319.964C188.636 320.275 187.704 320.881 186.638 321.192C185.247 321.601 184.289 321.474 184.005 321.29C183.87 321.206 183.789 320.98 183.762 320.768C183.735 320.797 183.695 320.825 183.668 320.867C182.966 321.671 183.951 322.659 184.734 322.969C185.504 323.279 187.569 323.096 188.73 322.292C189.743 321.586 189.77 320.373 189.041 319.95L189.027 319.964Z" fill="#BD2A1D"/>
<path d="M184.007 321.304C184.304 321.488 185.262 321.615 186.639 321.205C187.706 320.881 188.624 320.289 189.029 319.978C188.921 319.908 188.799 319.865 188.651 319.837C187.881 319.71 186.693 320.472 185.789 320.613C184.925 320.74 184.371 320.218 183.764 320.796C183.804 321.008 183.872 321.234 184.007 321.318V321.304Z" fill="#F6F6F7"/>
<path d="M187.056 347.513L189.837 328.696C190.026 327.666 188.919 327.694 188.919 327.694L181.899 326.918L176.567 326.326L174.879 326.143C174.879 326.143 173.826 325.875 173.705 326.918L173.556 327.906L170.897 345.707C170.897 345.707 170.694 346.554 171.585 346.624L178.848 347.442L186.111 348.261C186.989 348.387 187.043 347.527 187.043 347.527L187.056 347.513Z" fill="#5932CF"/>
<path d="M179.026 346.286C178.823 346.257 178.648 346.398 178.621 346.596C178.594 346.793 178.729 346.963 178.931 346.991C179.134 347.019 179.309 346.878 179.336 346.681C179.363 346.483 179.228 346.314 179.026 346.286Z" fill="#AB7AA1"/>
<path d="M188.474 328.978L174.947 327.483L172.895 341.306L188.123 331.418L188.474 328.978Z" fill="white"/>
<path d="M172.895 341.306L172.328 345.157L185.842 346.681L188.123 331.418L172.895 341.306Z" fill="#EBEBEB"/>
<path d="M171.909 343.436C168.116 345.496 164.417 347.09 158.693 346.243C154.94 345.693 152.618 343.93 151.308 341.292C148.365 335.382 154.13 327.892 159.557 324.436C159.948 324.182 160.853 323.603 161.757 323.406C163.04 323.124 164.565 324.633 164.565 324.647C164.889 325.042 166.982 324.52 161.771 327.948C153.401 333.435 152.915 341.447 160.11 342.209C164.12 342.632 167.792 341.264 170.384 339.078L171.855 341.165C172.125 341.278 173.043 342.844 171.909 343.45V343.436Z" fill="#A75CD9"/>
<path d="M171.368 339.049C171.517 338.824 171.76 338.57 171.935 338.654C172.043 338.711 172.043 338.852 172.043 338.993C172.043 339.416 172.003 339.853 171.922 340.305C171.922 340.248 169.951 341.377 169.775 341.504C170.086 340.686 170.855 339.811 171.368 339.063V339.049Z" fill="#FCDDD1"/>
<path d="M170.937 344.127C171.828 343.902 172.732 343.662 173.623 343.507C173.893 343.45 174.177 343.394 174.447 343.352C174.636 343.323 175.054 343.366 175.23 343.239C175.473 343.055 175.405 342.858 175.284 342.717C175.095 342.505 174.744 342.576 174.46 342.576C174.366 342.576 173.866 342.66 173.866 342.491C173.866 342.237 174.339 342.181 174.663 342.139C174.757 342.139 175.23 342.11 175.311 342.139C175.459 342.195 175.621 342.167 175.783 342.139C175.878 342.139 175.999 342.082 176.04 341.955C176.067 341.871 176.04 341.786 176.013 341.729C175.945 341.588 175.837 341.49 175.729 341.405C175.216 341.01 174.541 341.349 173.92 341.32C173.893 341.32 173.88 341.32 173.866 341.292C173.799 341.123 174.555 340.94 174.622 340.925C174.717 340.897 174.798 340.869 174.892 340.883C174.973 340.883 175.27 340.883 175.351 340.925C175.513 341.024 175.797 340.954 175.999 340.954C176.067 340.954 176.161 340.94 176.188 340.841C176.202 340.798 176.188 340.756 176.188 340.714C176.148 340.46 175.837 340.319 175.675 340.178C175.257 339.811 175.014 339.91 174.555 339.91C174.231 339.91 173.718 340.121 173.448 339.994C173.947 339.543 174.649 339.444 175.149 339.529C175.243 339.543 175.378 339.557 175.446 339.43C175.797 338.781 174.541 338.584 174.339 338.654C173.704 338.88 173.043 339.092 172.408 339.416C171.72 339.755 171.166 340.262 170.532 340.756C170.032 341.151 169.479 341.673 169.317 342.463C169.195 343.112 169.519 344.043 169.951 344.184C170.221 344.268 170.572 344.198 170.937 344.113V344.127Z" fill="#FCDDD1"/>
</g>
<path d="M503.168 605.719H437.612C432.035 605.719 427.514 610.443 427.514 616.27V621.701C427.514 627.528 432.035 632.252 437.612 632.252H503.168C508.745 632.252 513.266 627.528 513.266 621.701V616.27C513.266 610.443 508.745 605.719 503.168 605.719Z" fill="#576DAD"/>
<path d="M473.981 620.474H466.799V669.59H473.981V620.474Z" fill="#576DAD"/>
<path d="M496.58 666.868H442.256V670.62H496.58V666.868Z" fill="#576DAD"/>
<path d="M510.203 563.275C510.338 562.16 510.446 560.101 510.5 559.001C511.377 539.902 498.431 528.053 481.178 525.683C462.899 523.172 444.35 532.524 444.539 555.728C444.593 561.441 453.624 563.261 461.373 567.253C468.609 570.991 464.816 569.086 473.996 570.356C492.329 572.881 508.353 578.142 510.189 563.275H510.203Z" fill="#FBD9C6"/>
<path d="M491.127 551.722C491.073 550.509 490.088 549.564 488.94 549.635C487.793 549.705 486.915 550.749 486.969 551.962C487.023 553.175 488.009 554.12 489.156 554.05C490.304 553.979 491.181 552.935 491.127 551.722Z" fill="#3E2414"/>
<path d="M473.116 511.337C468.27 512.212 463.626 514.271 458.739 514.85C453.798 515.428 446.238 515.456 443.025 511.21C439.204 518.94 443.241 530.098 449.289 532.242C443.781 535.247 441.756 548.125 444.456 554.332C445.009 548.901 447.183 543.908 449.815 541.524C454.905 536.925 461.412 537.278 467.581 538.392C474.682 539.676 481.743 540.974 488.979 540.621C491.247 540.508 493.501 540.254 495.729 539.789C496.525 539.633 501.925 538.717 502.101 537.898C500.008 548.055 507.528 563.049 508.945 562.88C509.161 562.852 511.969 559.48 514.264 555.968C516.654 552.315 518.49 545.389 517.842 540.691C517.032 534.866 514.885 533.173 510.228 531.114C507.447 529.886 506.988 531.269 505.665 528.377C503.923 524.597 500.184 520.111 497.025 517.671C490.207 512.395 481.473 509.828 473.103 511.323L473.116 511.337Z" fill="#663115"/>
<path d="M482 546.165C482 546.165 499.86 545.911 503.37 535.472C506.88 525.034 505.044 537.969 505.044 537.969C505.044 537.969 501.359 547.406 482 546.165Z" fill="#663115"/>
<path d="M450.262 505.413C450.262 505.413 450.127 522.918 467.69 518.475C483.688 514.427 469.891 511.986 469.891 511.986C469.891 511.986 454.73 518.828 450.262 505.413Z" fill="#663115"/>
<path d="M507.328 520.012C507.328 520.012 501.307 525.288 507.53 532.877C513.754 540.466 511.715 532.369 511.715 532.369C511.715 532.369 504.236 529.477 507.328 520.012Z" fill="#663115"/>
<path d="M515.411 524.639C515.411 524.639 513.737 532.806 504.652 530.211C495.566 527.601 503.882 527.686 503.882 527.686C503.882 527.686 508.945 531.861 515.411 524.653V524.639Z" fill="#663115"/>
<path d="M447.941 606.721L497.23 610.656L512.525 561.004C512.525 561.004 503.966 565.447 498.08 566.124C486.484 567.464 479.194 568.903 470.513 567.126C467.314 566.463 462.913 564.953 459.349 563.67C446.119 558.888 443.243 553.895 443.243 553.895L443.027 554.699L447.941 606.735V606.721Z" fill="#057CFF"/>
<path d="M458.687 546.969C458.619 545.826 457.62 544.937 456.459 544.994C455.298 545.05 454.421 546.023 454.488 547.166C454.556 548.309 455.555 549.197 456.716 549.141C457.877 549.084 458.754 548.125 458.687 546.969Z" fill="#3E2414"/>
<path d="M470.872 571.639C470.952 570.927 470.476 570.284 469.81 570.202C469.143 570.121 468.538 570.632 468.459 571.344C468.379 572.056 468.855 572.699 469.521 572.78C470.188 572.861 470.793 572.35 470.872 571.639Z" fill="#7588A0"/>
<path d="M470.556 577.224C470.636 576.512 470.16 575.869 469.493 575.787C468.827 575.706 468.222 576.217 468.142 576.929C468.063 577.641 468.538 578.284 469.205 578.365C469.871 578.447 470.476 577.936 470.556 577.224Z" fill="#7588A0"/>
<path d="M467.772 566.322L472.753 567.041C471.484 576.746 471.687 581.048 472.065 584.447L467.029 584.73C466.611 580.738 466.489 576.055 467.772 566.322Z" fill="#96CAE1"/>
<path d="M470.851 572.5C470.93 571.788 470.455 571.145 469.788 571.064C469.122 570.983 468.517 571.494 468.437 572.205C468.358 572.917 468.833 573.56 469.5 573.642C470.166 573.723 470.771 573.212 470.851 572.5Z" fill="white"/>
<path d="M470.53 578.099C470.61 577.388 470.134 576.745 469.468 576.663C468.801 576.582 468.197 577.093 468.117 577.805C468.037 578.516 468.513 579.16 469.179 579.241C469.846 579.322 470.451 578.811 470.53 578.099Z" fill="white"/>
<path style="mix-blend-mode:hard-light" opacity="0.67" d="M501.063 543.569C499.079 540.452 494.57 540 491.33 539.38C487.833 538.703 479.855 538.096 477.803 542.046C476.507 544.542 477.317 550.213 478.181 552.865C479.288 556.194 481.569 557.802 484.607 558.564C489.305 559.72 496.406 561.187 499.403 555.545C501.023 552.498 503.048 547.533 501.401 544.176C501.306 543.978 501.185 543.767 501.063 543.583V543.569Z" fill="url(#paint2_linear_562_8942)"/>
<path style="mix-blend-mode:hard-light" opacity="0.67" d="M468.325 538.519C466.34 535.402 461.832 534.951 458.592 534.33C455.095 533.653 447.116 533.046 445.064 536.996C443.768 539.493 444.578 545.163 445.442 547.815C446.549 551.144 448.831 552.752 451.868 553.514C456.566 554.67 463.667 556.137 466.664 550.495C468.284 547.448 470.309 542.483 468.662 539.126C468.568 538.928 468.446 538.717 468.325 538.533V538.519Z" fill="url(#paint3_linear_562_8942)"/>
<path d="M488.575 537.405C483.647 536.953 480.38 537.278 474.251 537.405C468.419 535.43 465.382 534.132 460.535 533.074C455.162 531.904 446.482 531.241 443.188 531.762C443.188 531.762 442.54 537.052 442.121 542.384C442.121 542.384 443.593 543.301 443.957 545.318C444.322 547.335 443.917 553.641 452.854 555.192C462.263 556.814 466.678 556.984 470.12 546.574C470.12 546.574 471.079 543.287 473.428 543.23C475.655 543.992 475.682 547.434 475.682 547.434C476.114 558.437 480.394 559.607 489.844 560.905C498.835 562.132 500.185 555.982 501.076 554.148C501.98 552.315 503.641 551.891 503.641 551.891C504.694 546.658 505.531 541.397 505.531 541.397C502.534 539.902 494.029 537.913 488.561 537.405H488.575ZM468.649 544.105C468.46 544.824 468.23 545.53 467.96 546.221C466.934 548.915 465.544 551.807 462.898 553.034C462.263 553.33 461.588 553.514 460.9 553.612C458.213 553.993 455.189 553.443 452.584 552.766C451.234 552.413 449.911 551.877 448.79 550.989C447.67 550.1 446.846 548.845 446.374 547.434C445.483 544.796 445.388 541.284 446.063 538.576C446.63 536.305 448.237 534.725 450.478 534.626C454.096 534.471 458.2 535.049 461.683 535.938C464.167 536.573 466.88 537.348 468.433 539.803C468.824 540.423 468.959 541.171 468.959 541.905C468.959 542.652 468.824 543.386 468.649 544.105ZM498.187 555.418C497.35 556.617 496.202 557.576 494.893 558.084C493.583 558.606 492.166 558.719 490.775 558.648C488.089 558.507 485.038 558.112 482.581 556.941C481.946 556.645 481.352 556.264 480.826 555.785C478.625 553.824 478.099 550.636 477.856 547.744C477.788 546.997 477.761 546.249 477.775 545.516C477.802 544.768 477.883 544.02 478.085 543.315C478.288 542.61 478.625 541.933 479.165 541.453C481.325 539.563 484.133 539.648 486.685 539.789C490.262 539.986 494.353 540.663 497.782 541.919C499.901 542.694 501.008 544.683 500.914 547.039C500.806 549.846 499.753 553.175 498.173 555.432L498.187 555.418Z" fill="#0F153D"/>
<path d="M480.488 557.957C479.637 558.281 477.734 558.789 475.736 558.69C473.144 558.549 471.578 557.689 471.186 557.153C470.997 556.913 470.997 556.448 471.051 556.024C470.984 556.067 470.903 556.095 470.835 556.151C469.175 557.195 470.322 559.664 471.456 560.764C472.59 561.85 476.195 562.852 478.625 562.118C480.731 561.483 481.46 559.226 480.474 557.957H480.488Z" fill="#BC2D26"/>
<path d="M471.186 557.167C471.577 557.689 473.143 558.564 475.735 558.705C477.733 558.803 479.637 558.296 480.487 557.971C480.339 557.774 480.15 557.604 479.92 557.463C478.692 556.716 476.221 557.365 474.601 557.026C473.062 556.702 472.428 555.362 471.051 556.053C470.997 556.476 470.997 556.927 471.186 557.181V557.167Z" fill="#F5F5F6"/>
<path d="M465.906 602.644C467.162 604.675 470.699 608.23 469.497 610.459C467.742 613.731 461.114 610.924 453.041 609.048C424.164 598.412 426.999 626.723 426.999 626.723L422.058 626.568C422.058 626.568 421.518 621.151 421.91 614.69C422.423 606.34 427.593 601.6 435.383 598.892C439.824 597.34 448.41 596.579 453.041 597.637C452.784 597.566 453.297 597.693 453.041 597.637C455.43 598.427 464.556 600.43 465.906 602.644Z" fill="#043296"/>
<path d="M499.86 602.39C499.901 603.787 497.484 611.404 496.877 612.659C496.175 614.098 490.896 613.759 479.813 612.038C472.631 610.783 473.832 611.093 460.656 609.217C460.656 609.217 442.607 605.423 444.038 604.689C448.331 602.517 447.264 598.116 447.264 598.116C447.507 596.212 449.64 595.775 476.667 599.837C489.83 601.092 499.86 602.404 499.86 602.404L496.796 608.047" fill="#043296"/>
<path d="M498.957 604.534C498.215 609.344 497.85 611.347 495.407 613.858C492.788 616.538 484.796 613.322 478.748 612.067C460.847 604.746 460.064 633.522 460.064 633.522L454.84 631.081C454.84 631.081 453.786 632.915 455.501 619.091C456.527 610.868 461.954 601.318 470.121 600.147C472.727 599.781 475.778 599.922 478.356 600.373C480.476 600.74 497.769 603.363 498.944 604.534H498.957Z" fill="#043296"/>
<path d="M414.785 630.136C414.785 630.136 414.785 630.207 414.785 630.235L427.272 630.306C427.272 630.306 427.272 630.235 427.272 630.207C427.272 630.009 427.273 629.826 427.246 629.629L414.812 629.558C414.785 629.741 414.785 629.939 414.771 630.136H414.785Z" fill="white"/>
<path d="M421.061 624.466C418.077 624.452 415.566 626.356 414.932 628.909L427.136 628.98C426.528 626.412 424.044 624.48 421.061 624.466Z" fill="white"/>
<path d="M414.932 628.909C414.878 629.121 414.838 629.332 414.811 629.558L427.244 629.628C427.217 629.403 427.177 629.191 427.136 628.979L414.932 628.909Z" fill="#B2202B"/>
<path d="M421.587 626.666C421.587 626.991 421.344 627.259 421.034 627.244C420.723 627.244 420.48 626.977 420.48 626.652C420.48 626.328 420.723 626.074 421.034 626.074C421.344 626.074 421.587 626.342 421.587 626.666Z" fill="#211E1F"/>
<path d="M421.75 625.411C422.83 623.563 422.938 623.083 425.044 624.212C426.489 624.987 426.799 625.608 425.638 626.722C424.639 626.229 423.613 625.665 422.533 625.411H421.75Z" fill="white"/>
<path d="M424.032 626.06C424.032 626.314 423.829 626.525 423.6 626.525C423.357 626.525 423.168 626.314 423.168 626.06C423.168 625.806 423.37 625.594 423.6 625.608C423.843 625.608 424.032 625.82 424.032 626.074V626.06Z" fill="#211E1F"/>
<path d="M447.736 633.268C447.736 633.268 447.736 633.324 447.723 633.366L459.778 636.766C459.778 636.766 459.805 636.709 459.805 636.667C459.859 636.484 459.886 636.286 459.913 636.103L447.912 632.718C447.844 632.901 447.79 633.084 447.736 633.268Z" fill="white"/>
<path d="M455.204 629.459C452.315 628.641 449.426 629.812 448.197 632.125L459.969 635.454C460.01 632.816 458.079 630.277 455.204 629.473V629.459Z" fill="white"/>
<path d="M448.198 632.111C448.09 632.309 447.995 632.506 447.928 632.704L459.929 636.089C459.956 635.863 459.97 635.652 459.983 635.426L448.211 632.097L448.198 632.111Z" fill="#B2202B"/>
<path d="M455.176 631.73C455.095 632.041 454.798 632.224 454.501 632.153C454.204 632.069 454.029 631.744 454.11 631.434C454.191 631.124 454.488 630.94 454.785 631.025C455.082 631.11 455.257 631.434 455.176 631.744V631.73Z" fill="#211E1F"/>
<path d="M455.633 630.56C457.131 629.064 457.347 628.627 459.116 630.277C460.317 631.406 460.466 632.097 459.075 632.873C458.225 632.125 457.374 631.307 456.389 630.785L455.633 630.574V630.56Z" fill="white"/>
<path d="M457.686 631.787C457.619 632.026 457.389 632.182 457.146 632.111C456.917 632.041 456.782 631.801 456.849 631.547C456.917 631.307 457.146 631.152 457.376 631.222C457.605 631.293 457.74 631.533 457.673 631.787H457.686Z" fill="#211E1F"/>
<path d="M490.505 595.323C488.709 594.999 486.131 593.447 484.241 593.645C482.351 593.842 480.596 595.775 479.786 595.14C479.894 593.645 481.473 593.433 482.189 592.262C481.554 592.615 478.368 594.322 478.044 593.645C477.558 592.671 481.568 590.979 482.229 590.273C482.337 590.16 479.705 590.922 478.071 591.91C476.924 592.079 477.018 591.613 477.113 591.261C477.356 590.4 479.192 589.314 480.258 588.764C484.038 587.339 479.3 587.621 476.384 588.665C475.169 585.816 483.957 584.984 487.238 586.14C488.75 586.676 495.122 589.117 495.216 591.416C495.243 592.304 494.906 593.898 494.703 594.829C493.839 595.097 492.692 595.718 490.518 595.323H490.505Z" fill="#FBD9C6"/>
<path d="M450.395 595.267C452.204 595.112 454.918 593.814 456.781 594.195C458.644 594.576 460.223 596.677 461.074 596.113C461.101 594.618 459.548 594.237 458.941 593.01C459.535 593.419 462.559 595.422 462.95 594.787C463.517 593.87 459.683 591.797 459.089 591.021C458.995 590.908 461.546 591.91 463.072 593.052C464.206 593.334 464.152 592.855 464.084 592.502C463.909 591.627 462.194 590.358 461.168 589.709C457.537 587.932 462.221 588.665 465.029 589.991C466.487 587.269 457.82 585.59 454.445 586.422C452.893 586.803 446.332 588.623 446.035 590.908C445.927 591.783 446.129 593.405 446.251 594.35C447.088 594.702 448.168 595.436 450.382 595.253L450.395 595.267Z" fill="#FBD9C6"/>
<path d="M490.315 596.367C496.916 600.415 502.465 604.252 512.509 603.519C519.097 603.039 523.282 599.978 526.252 595.422C533.272 584.701 525.307 570.652 516.653 563.472C516.019 562.95 513.467 561.215 511.942 560.722C509.782 560.016 506.852 562.612 506.852 562.612C506.218 563.303 504.868 564.77 510.97 569.115C525.158 579.228 523.417 595.464 510.875 595.803C503.869 596 498.212 592.051 494.203 587.635C494.203 587.635 489.127 595.647 490.301 596.367H490.315Z" fill="#057CFF"/>
<path d="M450.034 595.76C442.839 597.58 435.576 598.412 427.003 592.911C421.374 589.314 419.362 584.123 418.957 578.608C418.039 566.223 431.971 557.167 442.825 554.966C443.622 554.811 444.796 555.234 446.092 556.194C447.996 557.604 449.238 559.24 449.238 559.24C449.494 560.157 449.805 561.004 444.135 562.64C427.584 567.436 421.455 580.004 432.43 586.352C438.559 589.906 445.269 588.665 450.777 586.676C450.777 586.676 451.155 595.464 450.061 595.732L450.034 595.76Z" fill="#057CFF"/>
<path d="M443.025 554.698L443.498 552.808C443.498 552.808 462.074 574.319 497.43 564.502C504.491 562.908 510.89 559.762 510.89 559.762L511.956 560.736C511.956 560.736 499.266 570.92 476.114 575.603C475.344 575.758 470.403 566.547 470.403 566.547L462.384 573.092L443.012 554.712L443.025 554.698Z" fill="#F2F2F2"/>
<path d="M537.122 606.664H361.906L360.191 595.083H538.837L537.122 606.664Z" fill="#7B98F4"/>
<path d="M533.989 678.9L531.127 680.226L489.898 597.482L492.76 596.17L533.989 678.9Z" fill="#7B98F4"/>
<path d="M487.062 678.9L489.924 680.226L531.154 597.482L528.278 596.17L487.062 678.9Z" fill="#7B98F4"/>
<path d="M419.642 678.9L416.78 680.226L375.551 597.482L378.413 596.17L419.642 678.9Z" fill="#7B98F4"/>
<path d="M372.703 678.9L375.579 680.226L416.794 597.481L413.932 596.169L372.703 678.9Z" fill="#7B98F4"/>
<path d="M462.52 589.878H410.68C409.517 589.878 408.574 590.864 408.574 592.079V592.953C408.574 594.169 409.517 595.154 410.68 595.154H462.52C463.683 595.154 464.626 594.169 464.626 592.953V592.079C464.626 590.864 463.683 589.878 462.52 589.878Z" fill="#534F78"/>
<path d="M431.35 594.985H380.225C376.256 594.985 374.92 592.333 373.03 587.466L358.18 550.932C356.29 545.882 358.693 543.414 362.675 543.414H416.5C420.469 543.414 421.832 545.882 423.695 550.932L438.545 587.466C439.571 591.388 438.221 594.434 431.35 594.985Z" fill="#534F78"/>
<path d="M381.139 568.606V568.549C381.139 568.549 381.126 568.465 381.099 568.422C381.072 568.394 381.031 568.366 380.991 568.366H378.871C378.777 568.366 378.709 568.394 378.655 568.451C378.615 568.507 378.588 568.578 378.588 568.676V573.035C378.588 573.134 378.601 573.204 378.642 573.261C378.682 573.317 378.75 573.345 378.858 573.345H380.977C380.977 573.345 381.058 573.331 381.085 573.289C381.112 573.261 381.126 573.218 381.126 573.162V573.106C381.126 573.106 381.112 573.007 381.085 572.979C381.058 572.95 381.018 572.936 380.977 572.936H378.952V568.789H380.977C380.977 568.789 381.058 568.775 381.085 568.747C381.112 568.719 381.126 568.676 381.126 568.62L381.139 568.606Z" fill="white"/>
<path d="M395.368 568.733C395.368 568.733 395.409 568.662 395.409 568.606V568.549C395.409 568.549 395.395 568.465 395.368 568.422C395.341 568.394 395.301 568.366 395.26 568.366H393.141C393.046 568.366 392.979 568.394 392.925 568.451C392.884 568.507 392.857 568.578 392.857 568.676V573.035C392.857 573.134 392.871 573.204 392.911 573.261C392.952 573.317 393.019 573.345 393.127 573.345H395.247C395.247 573.345 395.328 573.331 395.355 573.289C395.382 573.261 395.395 573.218 395.395 573.162V573.106C395.395 573.106 395.382 573.007 395.355 572.979C395.328 572.95 395.287 572.936 395.247 572.936H393.222V568.789H395.247C395.247 568.789 395.328 568.775 395.355 568.747" fill="white"/>
<path d="M409.976 568.733C409.976 568.733 410.016 568.662 410.016 568.606V568.549C410.016 568.549 410.003 568.465 409.976 568.422C409.949 568.394 409.908 568.366 409.868 568.366H407.748C407.654 568.366 407.586 568.394 407.532 568.451C407.492 568.507 407.465 568.578 407.465 568.676V573.035C407.465 573.134 407.478 573.204 407.519 573.261C407.559 573.317 407.627 573.345 407.735 573.345H409.854C409.854 573.345 409.935 573.331 409.962 573.289C409.989 573.261 410.003 573.218 410.003 573.162V573.106C410.003 573.106 409.989 573.007 409.962 572.979C409.935 572.95 409.895 572.936 409.854 572.936H407.829V568.789H409.854C409.854 568.789 409.935 568.775 409.962 568.747" fill="white"/>
<path d="M415.915 571.103C416.347 571.103 416.671 570.962 416.874 570.693C417.076 570.425 417.171 570.101 417.171 569.748C417.171 568.846 416.644 568.38 415.618 568.38H414.754C414.633 568.38 414.565 568.408 414.525 568.465C414.484 568.521 414.457 568.606 414.457 568.747V573.19C414.457 573.19 414.484 573.359 414.633 573.359H414.66C414.795 573.359 414.835 573.233 414.835 573.19V568.803H415.618C416.415 568.803 416.806 569.114 416.806 569.763C416.806 569.974 416.752 570.172 416.631 570.369C416.577 570.468 416.482 570.552 416.361 570.609C416.239 570.665 416.091 570.708 415.915 570.708H415.632C415.429 570.708 415.375 570.849 415.375 570.962C415.375 571.018 415.402 571.088 415.456 571.159L416.914 573.289C416.995 573.374 417.076 573.402 417.171 573.359C417.279 573.303 417.306 573.162 417.225 573.049L415.902 571.117L415.915 571.103Z" fill="white"/>
<path d="M379.385 570.693C379.385 570.693 379.304 570.707 379.277 570.736C379.25 570.764 379.236 570.792 379.236 570.835V570.891C379.236 570.976 379.29 571.032 379.385 571.032H380.667C380.762 571.032 380.816 570.976 380.816 570.891V570.835C380.816 570.835 380.802 570.764 380.775 570.736C380.748 570.707 380.708 570.693 380.667 570.693H379.385Z" fill="white"/>
<path d="M393.668 570.693C393.668 570.693 393.587 570.707 393.56 570.736C393.533 570.764 393.52 570.792 393.52 570.835V570.891C393.52 570.976 393.574 571.032 393.668 571.032H394.951C395.045 571.032 395.099 570.976 395.099 570.891V570.835C395.099 570.835 395.086 570.764 395.059 570.736C395.032 570.707 394.991 570.693 394.951 570.693H393.668Z" fill="white"/>
<path d="M408.275 570.693C408.275 570.693 408.194 570.707 408.167 570.736C408.14 570.764 408.127 570.792 408.127 570.835V570.891C408.127 570.976 408.181 571.032 408.275 571.032H409.558C409.652 571.032 409.706 570.976 409.706 570.891V570.835C409.706 570.835 409.693 570.764 409.666 570.736C409.639 570.707 409.598 570.693 409.558 570.693H408.275Z" fill="white"/>
<path d="M385.945 572.936V568.549C385.945 568.549 385.931 568.465 385.904 568.422C385.877 568.394 385.823 568.366 385.769 568.366H385.742C385.742 568.366 385.648 568.38 385.621 568.422C385.594 568.451 385.58 568.493 385.58 568.549V573.021C385.58 573.247 385.675 573.359 385.864 573.359H387.97C387.97 573.359 388.051 573.345 388.078 573.303C388.105 573.275 388.118 573.232 388.118 573.176V573.12C388.118 573.007 388.064 572.95 387.97 572.95H385.945V572.936Z" fill="white"/>
<path d="M402.874 568.38C402.874 568.38 402.82 568.38 402.793 568.38C402.725 568.38 402.671 568.422 402.631 568.493L401.2 572.767L400.633 571.004C400.592 570.863 400.525 570.835 400.43 570.835H399.728C399.728 570.835 399.634 570.849 399.607 570.891C399.58 570.919 399.566 570.961 399.566 571.018V571.074C399.566 571.187 399.62 571.244 399.728 571.244H400.268L400.916 573.134C400.97 573.275 401.065 573.359 401.213 573.359C401.362 573.359 401.456 573.289 401.51 573.148L403.036 568.62C403.076 568.493 402.982 568.422 402.874 568.394" fill="white"/>
<path d="M406.293 149.566H366.995C354.909 149.566 345.111 159.804 345.111 172.432V212.041C345.111 224.669 354.909 234.906 366.995 234.906H406.293C418.379 234.906 428.177 224.669 428.177 212.041V172.432C428.177 159.804 418.379 149.566 406.293 149.566Z" fill="#8A332B"/>
<path d="M398.899 149.566H359.6C347.514 149.566 337.717 159.804 337.717 172.432V212.041C337.717 224.669 347.514 234.906 359.6 234.906H398.899C410.985 234.906 420.782 224.669 420.782 212.041V172.432C420.782 159.804 410.985 149.566 398.899 149.566Z" fill="#FF7666"/>
<path d="M354.051 195.1L370.899 205.651V199.078L360.031 192.66L370.899 186.227V179.654L354.051 190.219V195.1Z" fill="#525DFF"/>
<path d="M374.166 209.925H378.797L385.02 173.461H380.39L374.166 209.925Z" fill="#FFD633"/>
<path d="M387.961 179.654V186.227L399.058 192.66L387.961 199.078V205.651L404.809 195.227V190.078L387.961 179.654Z" fill="#52E5FF"/>
<path d="M514.874 299.878C510.527 313.461 496.46 320.796 483.46 316.24C470.459 311.698 463.439 297 467.8 283.416C472.147 269.832 486.214 262.497 499.214 267.053C512.215 271.595 519.235 286.294 514.874 299.878Z" fill="#00CE64"/>
<path d="M512.243 273.034C499.837 280.426 484.919 297.987 484.919 297.987L474.605 292.359L484.366 307.17C495.395 289.058 513.121 275.15 513.121 275.15L512.23 273.02L512.243 273.034Z" fill="white"/>
<path d="M532.507 81.5342H488.902C475.481 81.5342 464.602 92.9019 464.602 106.925V150.864C464.602 164.887 475.481 176.254 488.902 176.254H532.507C545.927 176.254 556.807 164.887 556.807 150.864V106.925C556.807 92.9019 545.927 81.5342 532.507 81.5342Z" fill="#007887"/>
<path d="M524.286 81.5342H480.681C467.26 81.5342 456.381 92.9019 456.381 106.925V150.864C456.381 164.887 467.26 176.254 480.681 176.254H524.286C537.706 176.254 548.586 164.887 548.586 150.864V106.925C548.586 92.9019 537.706 81.5342 524.286 81.5342Z" fill="#00D3F0"/>
<path d="M484.151 114.33C488.117 114.33 491.333 110.97 491.333 106.826C491.333 102.681 488.117 99.3215 484.151 99.3215C480.184 99.3215 476.969 102.681 476.969 106.826C476.969 110.97 480.184 114.33 484.151 114.33Z" fill="#A12CE8"/>
<path d="M504.414 119.888L491.954 139.946C490.131 142.866 492.143 146.745 495.491 146.745H520.412C523.746 146.745 525.758 142.88 523.949 139.946L511.488 119.888C509.828 117.222 506.088 117.222 504.428 119.888H504.414Z" fill="#7200FF"/>
<path d="M490.711 126.814L481.423 141.766C480.087 143.91 481.558 146.745 484.015 146.745H502.591C505.035 146.745 506.506 143.91 505.183 141.766L495.895 126.814C494.68 124.853 491.939 124.853 490.724 126.814H490.711Z" fill="url(#paint4_linear_562_8942)"/>
<path d="M527.133 153.22H480.747C479.361 153.22 478.236 154.394 478.236 155.843C478.236 157.292 479.361 158.467 480.747 158.467H527.133C528.52 158.467 529.644 157.292 529.644 155.843C529.644 154.394 528.52 153.22 527.133 153.22Z" fill="#A12CE8"/>
<path d="M321.449 234.765H286.876C276.236 234.765 267.611 243.777 267.611 254.894V289.735C267.611 300.852 276.236 309.864 286.876 309.864H321.449C332.089 309.864 340.714 300.852 340.714 289.735V254.894C340.714 243.777 332.089 234.765 321.449 234.765Z" fill="#3B3894"/>
<path d="M314.942 234.765H280.368C269.729 234.765 261.104 243.777 261.104 254.894V289.735C261.104 300.852 269.729 309.864 280.368 309.864H314.942C325.581 309.864 334.206 300.852 334.206 289.735V254.894C334.206 243.777 325.581 234.765 314.942 234.765Z" fill="#6661FF"/>
<path d="M289.088 250.296H282.486V293.149H289.088V250.296Z" fill="url(#paint5_linear_562_8942)"/>
<path d="M301.697 255.19H295.096V293.149H301.697V255.19Z" fill="url(#paint6_linear_562_8942)"/>
<path d="M314.25 261.016H307.648V293.149H314.25V261.016Z" fill="url(#paint7_linear_562_8942)"/>
<path d="M410.438 311.811H371.139C359.053 311.811 349.256 322.049 349.256 334.677V374.286C349.256 386.914 359.053 397.151 371.139 397.151H410.438C422.524 397.151 432.321 386.914 432.321 374.286V334.677C432.321 322.049 422.524 311.811 410.438 311.811Z" fill="#995700"/>
<path d="M403.043 311.811H363.745C351.659 311.811 341.861 322.048 341.861 334.677V374.286C341.861 386.914 351.659 397.151 363.745 397.151H403.043C415.129 397.151 424.927 386.914 424.927 374.286V334.677C424.927 322.048 415.129 311.811 403.043 311.811Z" fill="#FFD633"/>
<path d="M383.901 372.145C396.593 371.401 406.446 362.671 405.908 352.644C405.37 342.618 394.644 335.094 381.952 335.837C369.26 336.581 359.407 345.312 359.945 355.338C360.483 365.364 371.209 372.889 383.901 372.145Z" fill="#3B3894"/>
<path d="M373.341 360.081C373.341 360.081 370.736 377.502 372.896 377.558C374.354 377.586 384.168 366.175 385.626 361.844C387.084 357.514 373.341 360.081 373.341 360.081Z" fill="#3B3894"/>
<path d="M373.356 357.203C374.698 357.203 375.786 356.067 375.786 354.664C375.786 353.262 374.698 352.125 373.356 352.125C372.014 352.125 370.926 353.262 370.926 354.664C370.926 356.067 372.014 357.203 373.356 357.203Z" fill="#FFD633"/>
<path d="M382.506 357.204C383.848 357.204 384.936 356.067 384.936 354.665C384.936 353.262 383.848 352.125 382.506 352.125C381.164 352.125 380.076 353.262 380.076 354.665C380.076 356.067 381.164 357.204 382.506 357.204Z" fill="#00CE64"/>
<path d="M391.676 357.204C393.018 357.204 394.106 356.067 394.106 354.665C394.106 353.262 393.018 352.125 391.676 352.125C390.334 352.125 389.246 353.262 389.246 354.665C389.246 356.067 390.334 357.204 391.676 357.204Z" fill="#00D3F0"/>
<defs>
<linearGradient id="paint0_linear_562_8942" x1="187.191" y1="299.181" x2="196.901" y2="353.068" gradientUnits="userSpaceOnUse">
<stop offset="0.15" stop-color="#935123"/>
<stop offset="0.31" stop-color="#80421C"/>
<stop offset="0.58" stop-color="#662E13"/>
<stop offset="0.81" stop-color="#56220D"/>
<stop offset="1" stop-color="#511E0B"/>
</linearGradient>
<linearGradient id="paint1_linear_562_8942" x1="183.533" y1="327.086" x2="183.899" y2="300.567" gradientUnits="userSpaceOnUse">
<stop offset="0.15" stop-color="#935123"/>
<stop offset="0.45" stop-color="#984F29"/>
<stop offset="1" stop-color="#9C4D2E"/>
</linearGradient>
<linearGradient id="paint2_linear_562_8942" x1="489.39" y1="538.791" x2="490.003" y2="559.706" gradientUnits="userSpaceOnUse">
<stop offset="0.35" stop-color="white"/>
<stop offset="0.65" stop-color="#B4D0ED"/>
<stop offset="1" stop-color="white"/>
</linearGradient>
<linearGradient id="paint3_linear_562_8942" x1="456.642" y1="533.742" x2="457.27" y2="554.659" gradientUnits="userSpaceOnUse">
<stop offset="0.35" stop-color="white"/>
<stop offset="0.65" stop-color="#B4D0ED"/>
<stop offset="1" stop-color="white"/>
</linearGradient>
<linearGradient id="paint4_linear_562_8942" x1="482.328" y1="134.882" x2="506.486" y2="138.963" gradientUnits="userSpaceOnUse">
<stop stop-color="#2B8076"/>
<stop offset="1" stop-color="#00578A"/>
</linearGradient>
<linearGradient id="paint5_linear_562_8942" x1="285.78" y1="250.296" x2="285.78" y2="293.149" gradientUnits="userSpaceOnUse">
<stop offset="0.26" stop-color="#8CEDE2"/>
<stop offset="1" stop-color="#3FACEB"/>
</linearGradient>
<linearGradient id="paint6_linear_562_8942" x1="298.403" y1="255.19" x2="298.403" y2="79.5171" gradientUnits="userSpaceOnUse">
<stop offset="0.26" stop-color="#8CEDE2"/>
<stop offset="1" stop-color="#3FACEB"/>
</linearGradient>
<linearGradient id="paint7_linear_562_8942" x1="310.942" y1="261.016" x2="310.942" y2="79.5171" gradientUnits="userSpaceOnUse">
<stop offset="0.26" stop-color="#8CEDE2"/>
<stop offset="1" stop-color="#3FACEB"/>
</linearGradient>
</defs>
</svg>
