<svg width="207" height="128" viewBox="0 0 207 128" fill="none" xmlns="http://www.w3.org/2000/svg">
<g id="plane_guys">
<g id="Group 16774">
<path id="Vector" d="M206.819 39.6642L150.923 64.2163L0.180298 30.8447L206.819 39.6642Z" fill="#906DFD"/>
<path id="Vector_2" d="M150.923 64.2163L143.835 127.541L134.272 78.0267L0.180298 30.8447L150.923 64.2163Z" fill="#674ABE"/>
<path id="Vector_3" d="M154.395 48.284L156.378 51.4176C157.268 50.6291 158.109 49.7838 158.89 48.8978L156.13 46.5039C155.582 47.1217 155.004 47.7151 154.395 48.28V48.284Z" fill="#069DD8"/>
<path id="Vector_4" d="M153.056 7.69873L151.398 10.9583C151.398 10.9583 151.951 11.2997 152.763 11.954L155.234 9.2594C154.015 8.26773 153.158 7.75157 153.056 7.69873Z" fill="#069DD8"/>
<path id="Vector_5" d="M164.712 23.4514L161.177 24.435C161.372 25.0893 161.542 25.768 161.689 26.4712L165.436 26.5972C165.245 25.4998 165.005 24.4512 164.712 23.4514Z" fill="#069DD8"/>
<path id="Vector_6" d="M151.776 50.402C151.061 50.9059 150.338 51.3489 149.61 51.7472L150.752 55.2831C151.785 54.7548 152.805 54.1451 153.809 53.442L151.85 50.3491C151.825 50.3654 151.801 50.3857 151.776 50.402Z" fill="#069DD8"/>
<path id="Vector_7" d="M161.775 16.7987L158.695 18.8024C159.17 19.599 159.625 20.4566 160.04 21.3792L163.612 20.3834C163.06 19.0829 162.438 17.888 161.775 16.7947V16.7987Z" fill="#069DD8"/>
<path id="Vector_8" d="M165.824 29.8696C165.824 29.8696 165.824 29.8696 165.824 29.8656L162.146 29.7437C162.154 29.8615 162.167 29.9753 162.175 30.0932C162.232 31.0483 162.219 32.0074 162.138 32.9666L165.706 34.003C165.869 32.6252 165.91 31.2434 165.828 29.8696H165.824Z" fill="#069DD8"/>
<path id="Vector_9" d="M136.516 52.9827L135.07 56.3438C136.086 56.7827 137.138 57.1079 138.215 57.3274C139.252 57.5387 140.317 57.6403 141.389 57.6484L141.41 53.9865C139.703 53.9743 138.049 53.6492 136.512 52.9867L136.516 52.9827Z" fill="#069DD8"/>
<path id="Vector_10" d="M158.125 43.9397L160.897 46.3417C161.531 45.4354 162.112 44.4965 162.633 43.5292L159.422 41.7979C159.028 42.5294 158.593 43.2447 158.121 43.9357L158.125 43.9397Z" fill="#069DD8"/>
<path id="Vector_11" d="M157.633 11.4539L155.154 14.1566C155.703 14.7296 156.28 15.3881 156.853 16.1196L159.938 14.1119C159.162 13.1039 158.381 12.2179 157.633 11.4539Z" fill="#069DD8"/>
<path id="Vector_12" d="M161.596 36.1929C161.381 37.0829 161.104 37.9649 160.779 38.8346L164.014 40.5823C164.453 39.4768 164.819 38.351 165.104 37.213L161.596 36.1929Z" fill="#069DD8"/>
<path id="Vector_13" d="M144.663 53.6326L144.639 57.3676C145.671 57.1888 146.712 56.9206 147.748 56.5629L146.622 53.0798C145.968 53.3074 145.314 53.4903 144.663 53.6326Z" fill="#069DD8"/>
<path id="Vector_14" d="M141.413 53.9826L141.392 57.6445C142.465 57.6526 143.551 57.5591 144.644 57.3681L144.668 53.6331C143.571 53.8728 142.482 53.9866 141.417 53.9785L141.413 53.9826Z" fill="#B5E3F6"/>
<path id="Vector_15" d="M146.629 53.0801L147.755 56.5632C148.759 56.2178 149.762 55.791 150.758 55.283L149.616 51.7471C148.624 52.2876 147.629 52.7347 146.629 53.0801Z" fill="#B5E3F6"/>
<path id="Vector_16" d="M151.851 50.3492L153.81 53.4421C153.835 53.4259 153.859 53.4096 153.884 53.3933C154.757 52.7796 155.586 52.1172 156.379 51.4141L154.396 48.2805C153.599 49.0202 152.75 49.7111 151.855 50.3452L151.851 50.3492Z" fill="#B5E3F6"/>
<path id="Vector_17" d="M156.125 46.5083L158.884 48.9022C159.604 48.0852 160.278 47.2277 160.896 46.3417L158.124 43.9397C157.519 44.8338 156.848 45.6914 156.125 46.5083Z" fill="#B5E3F6"/>
<path id="Vector_18" d="M159.426 41.7975L162.637 43.5288C163.157 42.5697 163.616 41.5821 164.018 40.5782L160.783 38.8306C160.401 39.8426 159.95 40.8302 159.43 41.7934L159.426 41.7975Z" fill="#B5E3F6"/>
<path id="Vector_19" d="M165.702 33.9985L162.133 32.9622C162.04 34.0433 161.857 35.1243 161.597 36.1932L165.104 37.2134C165.372 36.1526 165.572 35.0756 165.698 33.9985H165.702Z" fill="#B5E3F6"/>
<path id="Vector_20" d="M165.437 26.5974L161.69 26.4714C161.905 27.5078 162.056 28.597 162.141 29.7391L165.819 29.861C165.75 28.723 165.612 27.6419 165.433 26.5934L165.437 26.5974Z" fill="#B5E3F6"/>
<path id="Vector_21" d="M163.612 20.3831L160.039 21.3788C160.466 22.3298 160.852 23.35 161.177 24.4351L164.713 23.4516C164.396 22.3705 164.022 21.3503 163.612 20.3831Z" fill="#B5E3F6"/>
<path id="Vector_22" d="M159.942 14.1123L156.858 16.12C157.484 16.9207 158.109 17.8148 158.699 18.8025L161.779 16.7988C161.19 15.8234 160.572 14.9292 159.942 14.1123Z" fill="#B5E3F6"/>
<path id="Vector_23" d="M155.237 9.25928L152.765 11.9539C153.42 12.4782 154.253 13.2097 155.159 14.1567L157.638 11.454C156.765 10.5598 155.944 9.83234 155.241 9.25928H155.237Z" fill="#B5E3F6"/>
<path id="Vector_24" d="M146.126 8.91336C149.247 11.2056 151.743 8.25088 151.564 7.80381L152.832 7.47461C152.803 7.88103 152.747 8.66137 152.588 9.14908C152.117 10.5797 150.657 11.6202 149.032 11.7787C147.512 11.925 145.435 11.5348 144.48 10.3115C143.834 9.48235 145.016 8.10457 146.122 8.91742H146.126V8.91336Z" fill="#003351"/>
<path id="Vector_25" d="M149.884 1.68758C153.254 3.20354 153.327 6.04852 153.372 6.36553C153.563 7.75145 152.644 8.90569 152.668 8.9504L151.429 8.45863C151.429 8.45863 152.047 6.33708 149.868 5.07717C149.263 4.72357 147.783 4.4594 147.137 4.17896C146.657 3.97169 146.288 3.44333 146.474 2.84589C146.633 2.34598 147.117 1.89892 147.608 1.6957C148.413 1.35837 149.254 1.40308 149.884 1.68758Z" fill="#003351"/>
<path id="Vector_26" d="M103.446 24.5081L99.9546 23.4026C99.6701 24.5121 99.471 25.6461 99.3491 26.7962L103.027 26.7556C103.125 25.9956 103.263 25.2437 103.446 24.504V24.5081Z" fill="#069DD8"/>
<path id="Vector_27" d="M104.977 20.3792C105.107 20.1272 105.241 19.8793 105.38 19.6355L102.303 17.6521C102.108 17.9935 101.917 18.343 101.73 18.7047C101.458 19.2331 101.21 19.7736 100.982 20.3223L104.485 21.4319C104.64 21.0783 104.802 20.7287 104.981 20.3833L104.977 20.3792Z" fill="#069DD8"/>
<path id="Vector_28" d="M103.641 35.2705L100.17 36.4085C100.471 37.4977 100.845 38.5747 101.288 39.6315L104.567 38.0058C104.198 37.1116 103.889 36.1972 103.641 35.2705Z" fill="#069DD8"/>
<path id="Vector_29" d="M102.867 30.0112L99.2172 30.0478C99.2416 31.1005 99.3351 32.1572 99.4895 33.2098L103.017 32.0556C102.936 31.3728 102.887 30.694 102.867 30.0112Z" fill="#069DD8"/>
<path id="Vector_30" d="M112.429 11.6002L110.324 8.58862C109.601 9.12917 108.841 9.74694 108.064 10.4541L110.755 12.978C111.332 12.4659 111.897 12.0067 112.433 11.6002H112.429Z" fill="#069DD8"/>
<path id="Vector_31" d="M108.459 15.2827L105.781 12.771C105.2 13.4335 104.623 14.1488 104.062 14.9169L107.142 16.9043C107.573 16.3272 108.012 15.7867 108.455 15.2827H108.459Z" fill="#069DD8"/>
<path id="Vector_32" d="M116.728 9.00734L116.045 7.30848L115.367 5.60962C115.257 5.65433 114.363 6.02011 113.034 6.79232L115.143 9.808C116.098 9.26745 116.704 9.01546 116.724 9.00734H116.728Z" fill="#069DD8"/>
<path id="Vector_33" d="M119.919 53.0069L119.732 49.3531C117.883 49.4466 116.07 49.1337 114.351 48.459L112.575 51.6982C113.388 52.0437 114.217 52.3241 115.062 52.5354C116.635 52.9297 118.265 53.0922 119.923 53.0069H119.919Z" fill="#069DD8"/>
<path id="Vector_34" d="M106.49 41.6794C106.327 41.4274 106.173 41.1713 106.019 40.9153L102.735 42.541C102.954 42.919 103.178 43.2929 103.413 43.6627C103.795 44.252 104.194 44.817 104.608 45.3575L107.36 42.923C107.059 42.5247 106.766 42.1142 106.486 41.6794H106.49Z" fill="#069DD8"/>
<path id="Vector_35" d="M109.524 45.3499L106.769 47.7884C107.695 48.6907 108.679 49.4832 109.707 50.1579L111.479 46.9308C110.805 46.4675 110.15 45.9392 109.528 45.3499H109.524Z" fill="#069DD8"/>
<path id="Vector_36" d="M115.147 9.80791L113.037 6.79224C112.261 7.24337 111.33 7.83675 110.327 8.58864L112.432 11.6003C113.472 10.8158 114.411 10.2265 115.147 9.81198V9.80791Z" fill="#B5E3F6"/>
<path id="Vector_37" d="M110.753 12.9741L108.063 10.4502C107.307 11.1371 106.539 11.9093 105.783 12.7668L108.461 15.2785C109.225 14.4088 109.997 13.6447 110.753 12.97V12.9741Z" fill="#B5E3F6"/>
<path id="Vector_38" d="M107.149 16.9047L104.068 14.9172C103.454 15.7585 102.861 16.6689 102.304 17.6484L105.381 19.6318C105.933 18.6442 106.531 17.7378 107.149 16.9047Z" fill="#B5E3F6"/>
<path id="Vector_39" d="M104.481 21.4277L100.978 20.3181C100.563 21.3179 100.222 22.3502 99.9537 23.4029L103.445 24.5084C103.705 23.4517 104.05 22.4193 104.481 21.4277Z" fill="#B5E3F6"/>
<path id="Vector_40" d="M103.027 26.7556L99.3486 26.7963C99.2348 27.8733 99.1901 28.9584 99.2185 30.0477L102.868 30.0111C102.84 28.9178 102.893 27.8286 103.027 26.7556Z" fill="#B5E3F6"/>
<path id="Vector_41" d="M103.019 32.0556L99.4915 33.2098C99.65 34.2828 99.8776 35.3517 100.17 36.4084L103.641 35.2704C103.352 34.2096 103.145 33.1326 103.015 32.0515L103.019 32.0556Z" fill="#B5E3F6"/>
<path id="Vector_42" d="M104.571 38.0056L101.291 39.6313C101.71 40.6271 102.194 41.5984 102.738 42.5454L106.022 40.9197C105.465 39.9808 104.986 39.0054 104.575 38.0097L104.571 38.0056Z" fill="#B5E3F6"/>
<path id="Vector_43" d="M107.362 42.9236L104.61 45.3581C105.289 46.24 106.012 47.0488 106.772 47.7885L109.528 45.3499C108.76 44.6306 108.036 43.8218 107.366 42.9236H107.362Z" fill="#B5E3F6"/>
<path id="Vector_44" d="M111.48 46.9307L109.708 50.1577C110.626 50.7633 111.581 51.2835 112.569 51.7021L114.345 48.4629C113.353 48.0727 112.394 47.5606 111.476 46.9307H111.48Z" fill="#B5E3F6"/>
<g id="Clip path group">
<mask id="mask0_334_8297" style="mask-type:luminance" maskUnits="userSpaceOnUse" x="125" y="15" width="22" height="20">
<g id="clippath">
<path id="Vector_45" d="M125.954 27.7833C125.832 27.9987 125.893 28.2385 126.109 28.4133L137.456 34.0707C137.671 34.2455 137.964 34.1926 138.094 33.9772C138.094 33.9772 146.288 26.4015 145.942 24.727C145.942 24.727 148.181 21.1179 142.244 17.2041C136.127 13.1683 133.335 16.822 133.335 16.822C133.119 16.6473 127.385 25.3935 127.385 25.3935L125.958 27.7874L125.954 27.7833Z" fill="white"/>
</g>
</mask>
<g mask="url(#mask0_334_8297)">
<g id="Group">
<path id="Vector_46" d="M140.68 16.4155L132.62 15.1678L133.762 12.9365L140.68 16.4155Z" fill="#008DE9"/>
<path id="Vector_47" d="M140.905 16.5252L132.582 15.2368L132.622 15.1677L140.682 16.4155L140.905 16.5252Z" fill="#008DE9"/>
<path id="Vector_48" d="M141.126 16.639L132.543 15.31L132.579 15.2368L140.903 16.5252L141.126 16.639Z" fill="#008EE9"/>
<path id="Vector_49" d="M141.35 16.7529L132.506 15.3832L132.543 15.3101L141.126 16.6391L141.35 16.7529Z" fill="#008FE9"/>
<path id="Vector_50" d="M141.569 16.8624L132.469 15.4521L132.506 15.3831L141.35 16.7527L141.569 16.8624Z" fill="#0190EA"/>
<path id="Vector_51" d="M141.794 16.977L132.434 15.526L132.471 15.4529L141.57 16.8632L141.794 16.977Z" fill="#0191EA"/>
<path id="Vector_52" d="M142.019 17.0866L132.399 15.599L132.435 15.5259L141.795 16.9768L142.019 17.0866Z" fill="#0192EA"/>
<path id="Vector_53" d="M142.24 17.1995L132.36 15.6713L132.397 15.5981L142.017 17.0857L142.24 17.1995Z" fill="#0193EA"/>
<path id="Vector_54" d="M142.465 17.3136L132.325 15.7407L132.361 15.6716L142.242 17.1998L142.465 17.3136Z" fill="#0194EA"/>
<path id="Vector_55" d="M142.687 17.4238L132.286 15.8144L132.323 15.7412L142.463 17.3141L142.687 17.4238Z" fill="#0295EB"/>
<path id="Vector_56" d="M142.912 17.5372L132.251 15.8871L132.288 15.814L142.688 17.4234L142.912 17.5372Z" fill="#0296EB"/>
<path id="Vector_57" d="M143.137 17.6508L132.216 15.9561L132.253 15.887L142.913 17.537L143.137 17.6508Z" fill="#0297EB"/>
<path id="Vector_58" d="M143.358 17.7611L132.177 16.0297L132.214 15.9565L143.134 17.6513L143.358 17.7611Z" fill="#0298EB"/>
<path id="Vector_59" d="M143.577 17.8745L132.14 16.1025L132.177 16.0293L143.358 17.7607L143.577 17.8745Z" fill="#0299EB"/>
<path id="Vector_60" d="M143.8 17.984L132.103 16.1714L132.14 16.1023L143.577 17.8743L143.8 17.984Z" fill="#039AEC"/>
<path id="Vector_61" d="M144.026 18.0983L132.065 16.245L132.105 16.1719L143.802 17.9845L144.026 18.0983Z" fill="#039BEC"/>
<path id="Vector_62" d="M144.249 18.2117L132.028 16.3178L132.064 16.2446L144.026 18.0979L144.249 18.2117Z" fill="#039CEC"/>
<path id="Vector_63" d="M144.472 18.3213L131.991 16.3908L132.028 16.3176L144.249 18.2116L144.472 18.3213Z" fill="#039DEC"/>
<path id="Vector_64" d="M144.695 18.4354L131.954 16.4602L131.991 16.3911L144.472 18.3216L144.695 18.4354Z" fill="#039EEC"/>
<path id="Vector_65" d="M144.919 18.5452L131.917 16.5334L131.954 16.4602L144.695 18.4354L144.919 18.5452Z" fill="#049FED"/>
<path id="Vector_66" d="M145.143 18.6591L131.882 16.6066L131.918 16.5334L144.92 18.5453L145.143 18.6591Z" fill="#04A0ED"/>
<path id="Vector_67" d="M145.367 18.7727L131.845 16.6755L131.882 16.6064L145.143 18.6589L145.367 18.7727Z" fill="#04A1ED"/>
<path id="Vector_68" d="M145.586 18.8827L131.808 16.7489L131.845 16.6758L145.367 18.7729L145.586 18.8827Z" fill="#04A2ED"/>
<path id="Vector_69" d="M145.809 18.9963L131.771 16.8219L131.808 16.7488L145.586 18.8825L145.809 18.9963Z" fill="#04A3ED"/>
<path id="Vector_70" d="M146.034 19.1059L131.736 16.8909L131.773 16.8218L145.811 18.9962L146.034 19.1059Z" fill="#05A4ED"/>
<path id="Vector_71" d="M146.257 19.2197L131.699 16.964L131.736 16.8909L146.034 19.1059L146.257 19.2197Z" fill="#05A5EE"/>
<path id="Vector_72" d="M146.479 19.3336L131.661 17.0373L131.697 16.9641L146.255 19.2198L146.479 19.3336Z" fill="#05A6EE"/>
<path id="Vector_73" d="M146.704 19.4431L131.625 17.1103L131.662 17.0371L146.48 19.3334L146.704 19.4431Z" fill="#05A7EE"/>
<path id="Vector_74" d="M146.927 19.557L131.588 17.1794L131.625 17.1104L146.703 19.4432L146.927 19.557Z" fill="#05A8EE"/>
<path id="Vector_75" d="M147.15 19.6673L131.551 17.2531L131.588 17.1799L146.926 19.5575L147.15 19.6673Z" fill="#06A9EE"/>
<path id="Vector_76" d="M147.376 19.7809L131.513 17.3261L131.554 17.2529L147.152 19.6671L147.376 19.7809Z" fill="#06AAEF"/>
<path id="Vector_77" d="M147.595 19.8943L131.476 17.3948L131.513 17.3257L147.375 19.7805L147.595 19.8943Z" fill="#06ABEF"/>
<path id="Vector_78" d="M147.818 20.0043L131.439 17.4682L131.475 17.395L147.594 19.8945L147.818 20.0043Z" fill="#06ACEF"/>
<path id="Vector_79" d="M148.041 20.1182L131.402 17.5414L131.439 17.4683L147.818 20.0044L148.041 20.1182Z" fill="#07ADEF"/>
<path id="Vector_80" d="M148.264 20.2275L131.365 17.6101L131.402 17.541L148.041 20.1178L148.264 20.2275Z" fill="#07AEEF"/>
<path id="Vector_81" d="M148.488 20.3418L131.328 17.6838L131.365 17.6106L148.264 20.228L148.488 20.3418Z" fill="#07AFF0"/>
<path id="Vector_82" d="M148.503 20.4229L131.291 17.7568L131.328 17.6836L148.487 20.3416L148.532 20.366L148.503 20.4229Z" fill="#07B0F0"/>
<path id="Vector_83" d="M148.465 20.4957L131.253 17.8295L131.289 17.7563L148.501 20.4225L148.465 20.4957Z" fill="#07B1F0"/>
<path id="Vector_84" d="M148.431 20.5651L131.219 17.8989L131.256 17.8298L148.468 20.496L148.431 20.5651Z" fill="#08B2F0"/>
<path id="Vector_85" d="M148.394 20.6385L131.182 17.9723L131.219 17.8992L148.431 20.5653L148.394 20.6385Z" fill="#08B3F0"/>
<path id="Vector_86" d="M148.358 20.7115L131.145 18.0453L131.182 17.9722L148.394 20.6383L148.358 20.7115Z" fill="#08B4F1"/>
<path id="Vector_87" d="M148.321 20.7807L131.108 18.1145L131.145 18.0454L148.357 20.7116L148.321 20.7807Z" fill="#08B5F1"/>
<path id="Vector_88" d="M148.284 20.8538L131.072 18.1877L131.108 18.1145L148.32 20.7807L148.284 20.8538Z" fill="#08B6F1"/>
<path id="Vector_89" d="M148.247 20.9268L131.035 18.2607L131.071 18.1875L148.283 20.8537L148.247 20.9268Z" fill="#09B7F1"/>
<path id="Vector_90" d="M148.212 20.9957L130.996 18.3296L131.037 18.2605L148.249 20.9266L148.212 20.9957Z" fill="#09B8F1"/>
<path id="Vector_91" d="M148.17 21.0696L130.957 18.4035L130.994 18.3303L148.21 20.9965L148.17 21.0696Z" fill="#09B9F2"/>
<path id="Vector_92" d="M148.134 21.1426L130.922 18.4765L130.959 18.4033L148.171 21.0695L148.134 21.1426Z" fill="#09BAF2"/>
<path id="Vector_93" d="M148.099 21.2151L130.887 18.549L130.924 18.4758L148.136 21.142L148.099 21.2151Z" fill="#09BBF2"/>
<path id="Vector_94" d="M148.06 21.2846L130.848 18.6184L130.885 18.5493L148.097 21.2155L148.06 21.2846Z" fill="#0ABCF2"/>
<path id="Vector_95" d="M148.025 21.3577L130.813 18.6916L130.85 18.6184L148.062 21.2846L148.025 21.3577Z" fill="#0ABDF2"/>
<path id="Vector_96" d="M147.987 21.431L130.775 18.7648L130.811 18.6917L148.023 21.3578L147.987 21.431Z" fill="#0ABEF3"/>
<path id="Vector_97" d="M147.952 21.4999L130.739 18.8337L130.776 18.7646L147.988 21.4308L147.952 21.4999Z" fill="#0ABFF3"/>
<path id="Vector_98" d="M147.916 21.5728L130.704 18.9067L130.741 18.8335L147.953 21.4996L147.916 21.5728Z" fill="#0AC0F3"/>
<path id="Vector_99" d="M147.879 21.6463L130.667 18.9801L130.704 18.907L147.916 21.5731L147.879 21.6463Z" fill="#0BC1F3"/>
<path id="Vector_100" d="M147.841 21.7155L130.629 19.0534L130.665 18.9802L147.877 21.6464L147.841 21.7155Z" fill="#0BC2F3"/>
<path id="Vector_101" d="M147.806 21.788L130.594 19.1218L130.63 19.0527L147.842 21.7148L147.806 21.788Z" fill="#0BC3F4"/>
<path id="Vector_102" d="M147.769 21.8621L130.557 19.196L130.593 19.1228L147.805 21.789L147.769 21.8621Z" fill="#0BC4F4"/>
<path id="Vector_103" d="M147.734 21.9349L130.521 19.2687L130.558 19.1956L147.77 21.8617L147.734 21.9349Z" fill="#0BC5F4"/>
<path id="Vector_104" d="M147.695 22.0038L130.479 19.3376L130.52 19.2686L147.732 21.9347L147.695 22.0038Z" fill="#0CC7F4"/>
<path id="Vector_105" d="M147.658 22.077L130.442 19.4108L130.479 19.3376L147.695 22.0038L147.658 22.077Z" fill="#0CC8F4"/>
<path id="Vector_106" d="M147.617 22.1502L130.405 19.484L130.442 19.4109L147.658 22.077L147.617 22.1502Z" fill="#0CC9F4"/>
<path id="Vector_107" d="M147.582 22.2191L130.37 19.553L130.407 19.4839L147.619 22.15L147.582 22.2191Z" fill="#0CCAF5"/>
<path id="Vector_108" d="M147.545 22.2923L130.333 19.6261L130.37 19.553L147.582 22.2191L147.545 22.2923Z" fill="#0CCBF5"/>
<path id="Vector_109" d="M147.509 22.3655L130.296 19.6994L130.333 19.6262L147.545 22.2924L147.509 22.3655Z" fill="#0DCCF5"/>
<path id="Vector_110" d="M147.473 22.4345L130.261 19.7724L130.298 19.6992L147.51 22.3654L147.473 22.4345Z" fill="#0DCDF5"/>
<path id="Vector_111" d="M147.435 22.5075L130.222 19.8413L130.259 19.7722L147.471 22.4343L147.435 22.5075Z" fill="#0DCEF5"/>
<path id="Vector_112" d="M147.399 22.5811L130.187 19.915L130.224 19.8418L147.436 22.5079L147.399 22.5811Z" fill="#0DCFF6"/>
<path id="Vector_113" d="M147.361 22.6539L130.149 19.9877L130.185 19.9146L147.397 22.5807L147.361 22.6539Z" fill="#0DD0F6"/>
<path id="Vector_114" d="M147.326 22.7233L130.114 20.0571L130.15 19.988L147.362 22.6542L147.326 22.7233Z" fill="#0ED1F6"/>
<path id="Vector_115" d="M147.287 22.7967L130.075 20.1305L130.111 20.0574L147.324 22.7235L147.287 22.7967Z" fill="#0ED2F6"/>
<path id="Vector_116" d="M147.252 22.8697L130.04 20.2035L130.076 20.1304L147.288 22.7965L147.252 22.8697Z" fill="#0ED3F6"/>
<path id="Vector_117" d="M147.215 22.9386L130.003 20.2725L130.039 20.2034L147.252 22.8695L147.215 22.9386Z" fill="#0ED4F7"/>
<path id="Vector_118" d="M147.178 23.0115L129.966 20.3454L130.003 20.2722L147.215 22.9384L147.178 23.0115Z" fill="#0ED5F7"/>
<path id="Vector_119" d="M147.142 23.085L129.926 20.4189L129.966 20.3457L147.178 23.0119L147.142 23.085Z" fill="#0FD6F7"/>
<path id="Vector_120" d="M147.101 23.1539L129.889 20.4919L129.925 20.4187L147.141 23.0849L147.101 23.1539Z" fill="#0FD7F7"/>
<path id="Vector_121" d="M147.066 23.2269L129.853 20.5608L129.89 20.4917L147.102 23.1538L147.066 23.2269Z" fill="#0FD8F7"/>
<path id="Vector_122" d="M147.029 23.3003L129.817 20.6342L129.853 20.561L147.065 23.2272L147.029 23.3003Z" fill="#0FD9F8"/>
<path id="Vector_123" d="M146.994 23.3738L129.781 20.7077L129.818 20.6345L147.03 23.3007L146.994 23.3738Z" fill="#0FDAF8"/>
<path id="Vector_124" d="M146.955 23.4425L129.743 20.7764L129.779 20.7073L146.991 23.3734L146.955 23.4425Z" fill="#10DBF8"/>
<path id="Vector_125" d="M146.918 23.5162L129.706 20.85L129.742 20.7769L146.954 23.443L146.918 23.5162Z" fill="#10DCF8"/>
<path id="Vector_126" d="M146.883 23.5892L129.671 20.923L129.707 20.8499L146.919 23.516L146.883 23.5892Z" fill="#10DDF8"/>
<path id="Vector_127" d="M146.846 23.6583L129.634 20.9922L129.67 20.9231L146.882 23.5892L146.846 23.6583Z" fill="#10DEF9"/>
<path id="Vector_128" d="M146.809 23.7313L129.597 21.0651L129.633 20.9919L146.845 23.6581L146.809 23.7313Z" fill="#10DFF9"/>
<path id="Vector_129" d="M146.772 23.8045L129.56 21.1383L129.597 21.0652L146.809 23.7313L146.772 23.8045Z" fill="#11E0F9"/>
<path id="Vector_130" d="M146.735 23.8732L129.523 21.2111L129.56 21.1379L146.772 23.8041L146.735 23.8732Z" fill="#11E1F9"/>
<path id="Vector_131" d="M146.7 23.9467L129.488 21.2805L129.524 21.2114L146.737 23.8735L146.7 23.9467Z" fill="#11E2F9"/>
<path id="Vector_132" d="M146.663 24.0198L129.451 21.3537L129.488 21.2805L146.7 23.9467L146.663 24.0198Z" fill="#11E3FA"/>
<path id="Vector_133" d="M146.627 24.0926L129.411 21.4264L129.451 21.3533L146.663 24.0194L146.627 24.0926Z" fill="#12E4FA"/>
<path id="Vector_134" d="M146.586 24.162L129.374 21.4959L129.41 21.4268L146.626 24.0929L146.586 24.162Z" fill="#12E5FA"/>
<path id="Vector_135" d="M146.551 24.2354L129.338 21.5693L129.375 21.4961L146.587 24.1622L146.551 24.2354Z" fill="#12E6FA"/>
<path id="Vector_136" d="M146.512 24.3084L129.3 21.6422L129.336 21.5691L146.548 24.2352L146.512 24.3084Z" fill="#12E7FA"/>
<path id="Vector_137" d="M146.475 24.3768L129.263 21.7107L129.299 21.6416L146.512 24.3078L146.475 24.3768Z" fill="#12E8FB"/>
<path id="Vector_138" d="M146.44 24.4505L129.228 21.7843L129.264 21.7112L146.476 24.3773L146.44 24.4505Z" fill="#13E9FB"/>
<path id="Vector_139" d="M146.403 24.5237L129.191 21.8576L129.227 21.7844L146.439 24.4506L146.403 24.5237Z" fill="#13EAFB"/>
<path id="Vector_140" d="M146.368 24.5927L129.156 21.9306L129.192 21.8574L146.404 24.5236L146.368 24.5927Z" fill="#13EBFB"/>
<path id="Vector_141" d="M146.329 24.6657L129.117 21.9995L129.154 21.9304L146.366 24.5925L146.329 24.6657Z" fill="#13ECFB"/>
<path id="Vector_142" d="M146.294 24.7391L129.082 22.0729L129.118 21.9998L146.33 24.6659L146.294 24.7391Z" fill="#13EDFB"/>
<path id="Vector_143" d="M146.257 24.8121L129.045 22.1459L129.081 22.0728L146.294 24.7389L146.257 24.8121Z" fill="#14EEFC"/>
<path id="Vector_144" d="M146.222 24.8815L129.01 22.2153L129.046 22.1462L146.258 24.8124L146.222 24.8815Z" fill="#14EFFC"/>
<path id="Vector_145" d="M146.183 24.9546L128.971 22.2885L129.008 22.2153L146.22 24.8815L146.183 24.9546Z" fill="#14F0FC"/>
<path id="Vector_146" d="M146.146 25.0274L128.934 22.3612L128.971 22.2881L146.183 24.9542L146.146 25.0274Z" fill="#14F1FC"/>
<path id="Vector_147" d="M146.108 25.0968L128.892 22.4307L128.933 22.3616L146.145 25.0277L146.108 25.0968Z" fill="#14F2FC"/>
<path id="Vector_148" d="M146.075 25.1697L128.858 22.5036L128.895 22.4304L146.111 25.0966L146.075 25.1697Z" fill="#15F3FD"/>
<path id="Vector_149" d="M146.032 25.2432L128.82 22.5771L128.856 22.5039L146.073 25.1701L146.032 25.2432Z" fill="#15F4FD"/>
<path id="Vector_150" d="M145.997 25.3124L128.785 22.6503L128.821 22.5771L146.033 25.2433L145.997 25.3124Z" fill="#15F5FD"/>
<path id="Vector_151" d="M145.96 25.3849L128.748 22.7187L128.784 22.6497L145.996 25.3117L145.96 25.3849Z" fill="#15F6FD"/>
<path id="Vector_152" d="M145.923 25.4583L128.711 22.7922L128.747 22.719L145.959 25.3851L145.923 25.4583Z" fill="#15F7FD"/>
<path id="Vector_153" d="M145.886 25.5318L128.674 22.8656L128.711 22.7925L145.923 25.4586L145.886 25.5318Z" fill="#16F8FE"/>
<path id="Vector_154" d="M145.849 25.6007L128.637 22.9346L128.674 22.8655L145.886 25.5316L145.849 25.6007Z" fill="#16F9FE"/>
<path id="Vector_155" d="M145.814 25.6744L128.602 23.0082L128.639 22.9351L145.851 25.6012L145.814 25.6744Z" fill="#16FAFE"/>
<path id="Vector_156" d="M145.777 25.7469L128.565 23.0807L128.602 23.0076L145.814 25.6737L145.777 25.7469Z" fill="#16FBFE"/>
<path id="Vector_157" d="M145.74 25.8161L128.528 23.1499L128.565 23.0808L145.777 25.747L145.74 25.8161Z" fill="#16FCFE"/>
<path id="Vector_158" d="M145.703 25.8892L128.491 23.2231L128.528 23.1499L145.74 25.8161L145.703 25.8892Z" fill="#17FDFF"/>
<path id="Vector_159" d="M145.668 25.9622L128.456 23.2961L128.493 23.2229L145.705 25.8891L145.668 25.9622Z" fill="#17FEFF"/>
<path id="Vector_160" d="M145.629 26.0314L128.417 23.3693L128.454 23.2961L145.666 25.9623L145.629 26.0314Z" fill="#17FFFF"/>
<path id="Vector_161" d="M145.614 26.0597L128.401 23.3935L128.418 23.3691L145.63 26.0312L145.614 26.0597Z" fill="#17FFFF"/>
<path id="Vector_162" d="M145.603 26.0848L128.391 23.4187L128.403 23.3943L145.615 26.0604L145.603 26.0848Z" fill="#18FFFF"/>
<path id="Vector_163" d="M145.589 26.1131L128.377 23.4469L128.389 23.4185L145.601 26.0846L145.589 26.1131Z" fill="#19FFFF"/>
<path id="Vector_164" d="M145.579 26.1376L128.363 23.4714L128.379 23.447L145.591 26.1132L145.579 26.1376Z" fill="#1AFEFE"/>
<path id="Vector_165" d="M145.561 26.1653L128.349 23.4992L128.361 23.4707L145.577 26.1369L145.561 26.1653Z" fill="#1BFEFE"/>
<path id="Vector_166" d="M145.55 26.19L128.338 23.5239L128.35 23.4995L145.562 26.1657L145.55 26.19Z" fill="#1CFEFE"/>
<path id="Vector_167" d="M145.538 26.2145L128.326 23.5483L128.338 23.5239L145.55 26.1901L145.538 26.2145Z" fill="#1DFEFE"/>
<path id="Vector_168" d="M145.52 26.2427L128.308 23.5765L128.325 23.5481L145.537 26.2142L145.52 26.2427Z" fill="#1EFEFD"/>
<path id="Vector_169" d="M145.51 26.2674L128.298 23.6013L128.31 23.5769L145.522 26.2431L145.51 26.2674Z" fill="#1FFDFD"/>
<path id="Vector_170" d="M145.496 26.2962L128.284 23.63L128.296 23.6016L145.508 26.2677L145.496 26.2962Z" fill="#20FDFD"/>
<path id="Vector_171" d="M145.484 26.3202L128.268 23.654L128.284 23.6296L145.496 26.2958L145.484 26.3202Z" fill="#21FDFD"/>
<path id="Vector_172" d="M145.469 26.3443L128.257 23.6782L128.27 23.6538L145.486 26.32L145.469 26.3443Z" fill="#22FDFD"/>
<path id="Vector_173" d="M145.455 26.3726L128.243 23.7064L128.256 23.678L145.468 26.3441L145.455 26.3726Z" fill="#23FDFC"/>
<path id="Vector_174" d="M145.443 26.3971L128.231 23.7309L128.243 23.7065L145.455 26.3727L145.443 26.3971Z" fill="#24FCFC"/>
<path id="Vector_175" d="M145.427 26.4258L128.215 23.7597L128.231 23.7312L145.444 26.3974L145.427 26.4258Z" fill="#25FCFC"/>
<path id="Vector_176" d="M145.413 26.4508L128.201 23.7846L128.213 23.7603L145.425 26.4264L145.413 26.4508Z" fill="#26FCFC"/>
<path id="Vector_177" d="M145.403 26.4745L128.19 23.8083L128.203 23.7839L145.415 26.4501L145.403 26.4745Z" fill="#27FCFB"/>
<path id="Vector_178" d="M145.39 26.5032L128.178 23.837L128.19 23.8086L145.403 26.4747L145.39 26.5032Z" fill="#28FCFB"/>
<path id="Vector_179" d="M145.376 26.5277L128.164 23.8615L128.18 23.8372L145.393 26.5033L145.376 26.5277Z" fill="#29FBFB"/>
<path id="Vector_180" d="M145.364 26.5559L128.152 23.8898L128.164 23.8613L145.376 26.5275L145.364 26.5559Z" fill="#2AFBFB"/>
<path id="Vector_181" d="M145.35 26.5804L128.138 23.9143L128.15 23.8899L145.362 26.556L145.35 26.5804Z" fill="#2BFBFA"/>
<path id="Vector_182" d="M145.336 26.6046L128.124 23.9384L128.14 23.9141L145.352 26.5802L145.336 26.6046Z" fill="#2CFBFA"/>
<path id="Vector_183" d="M145.32 26.6328L128.108 23.9667L128.12 23.9382L145.332 26.6044L145.32 26.6328Z" fill="#2EFBFA"/>
<path id="Vector_184" d="M145.31 26.6573L128.098 23.9912L128.11 23.9668L145.322 26.6329L145.31 26.6573Z" fill="#2FFAFA"/>
<path id="Vector_185" d="M145.297 26.6861L128.085 24.0199L128.097 23.9915L145.309 26.6576L145.297 26.6861Z" fill="#30FAFA"/>
<path id="Vector_186" d="M145.28 26.7106L128.068 24.0444L128.084 24.02L145.296 26.6862L145.28 26.7106Z" fill="#31FAF9"/>
<path id="Vector_187" d="M145.269 26.7347L128.057 24.0686L128.069 24.0442L145.281 26.7103L145.269 26.7347Z" fill="#32FAF9"/>
<path id="Vector_188" d="M145.257 26.7634L128.045 24.0973L128.057 24.0688L145.269 26.735L145.257 26.7634Z" fill="#33F9F9"/>
<path id="Vector_189" d="M145.239 26.7875L128.027 24.1213L128.043 24.0969L145.255 26.7631L145.239 26.7875Z" fill="#34F9F9"/>
<path id="Vector_190" d="M145.229 26.8162L128.017 24.15L128.029 24.1216L145.241 26.7877L145.229 26.8162Z" fill="#35F9F8"/>
<path id="Vector_191" d="M145.216 26.8402L128.004 24.174L128.016 24.1497L145.229 26.8158L145.216 26.8402Z" fill="#36F9F8"/>
<path id="Vector_192" d="M145.204 26.8649L127.992 24.2028L128.004 24.1743L145.216 26.8405L145.204 26.8649Z" fill="#37F9F8"/>
<path id="Vector_193" d="M145.188 26.8937L127.976 24.2275L127.992 24.2031L145.204 26.8652L145.188 26.8937Z" fill="#38F8F8"/>
<path id="Vector_194" d="M145.176 26.9178L127.964 24.2517L127.976 24.2273L145.188 26.8934L145.176 26.9178Z" fill="#39F8F8"/>
<path id="Vector_195" d="M145.164 26.9458L127.951 24.2797L127.964 24.2512L145.176 26.9174L145.164 26.9458Z" fill="#3AF8F7"/>
<path id="Vector_196" d="M145.15 26.9703L127.934 24.3042L127.95 24.2798L145.162 26.9459L145.15 26.9703Z" fill="#3BF8F7"/>
<path id="Vector_197" d="M145.135 26.9988L127.923 24.3326L127.935 24.3042L145.152 26.9704L145.135 26.9988Z" fill="#3CF8F7"/>
<path id="Vector_198" d="M145.123 27.0233L127.911 24.3571L127.923 24.3328L145.135 26.9989L145.123 27.0233Z" fill="#3DF7F7"/>
<path id="Vector_199" d="M145.111 27.0475L127.899 24.3813L127.911 24.3569L145.123 27.0231L145.111 27.0475Z" fill="#3EF7F6"/>
<path id="Vector_200" d="M145.093 27.0762L127.881 24.41L127.897 24.3816L145.109 27.0477L145.093 27.0762Z" fill="#3FF7F6"/>
<path id="Vector_201" d="M145.081 27.1007L127.869 24.4345L127.881 24.4102L145.093 27.0763L145.081 27.1007Z" fill="#40F7F6"/>
<path id="Vector_202" d="M145.069 27.1289L127.857 24.4628L127.869 24.4343L145.081 27.1005L145.069 27.1289Z" fill="#41F7F6"/>
<path id="Vector_203" d="M145.059 27.1534L127.843 24.4873L127.859 24.4629L145.071 27.129L145.059 27.1534Z" fill="#42F6F5"/>
<path id="Vector_204" d="M145.041 27.1771L127.828 24.511L127.841 24.4866L145.057 27.1527L145.041 27.1771Z" fill="#43F6F5"/>
<path id="Vector_205" d="M145.028 27.2063L127.816 24.5402L127.828 24.5117L145.04 27.1779L145.028 27.2063Z" fill="#44F6F5"/>
<path id="Vector_206" d="M145.012 27.2344L127.8 24.5682L127.817 24.5398L145.029 27.2059L145.012 27.2344Z" fill="#44F6F5"/>
<path id="Vector_207" d="M145.002 27.263L127.786 24.5968L127.803 24.5684L145.015 27.2345L145.002 27.263Z" fill="#45F6F5"/>
<path id="Vector_208" d="M144.984 27.2915L127.772 24.6254L127.784 24.5969L145.001 27.2631L144.984 27.2915Z" fill="#46F6F5"/>
<path id="Vector_209" d="M144.968 27.3237L127.756 24.6575L127.773 24.625L144.985 27.2912L144.968 27.3237Z" fill="#47F5F4"/>
<path id="Vector_210" d="M144.955 27.3526L127.739 24.6864L127.755 24.658L144.967 27.3241L144.955 27.3526Z" fill="#48F5F4"/>
<path id="Vector_211" d="M144.939 27.3811L127.726 24.715L127.739 24.6865L144.955 27.3527L144.939 27.3811Z" fill="#49F5F4"/>
<path id="Vector_212" d="M144.924 27.4094L127.712 24.7433L127.729 24.7148L144.941 27.381L144.924 27.4094Z" fill="#4AF5F4"/>
<path id="Vector_213" d="M144.907 27.438L127.695 24.7719L127.711 24.7434L144.923 27.4096L144.907 27.438Z" fill="#4BF5F4"/>
<path id="Vector_214" d="M144.893 27.4702L127.681 24.804L127.693 24.7715L144.905 27.4376L144.893 27.4702Z" fill="#4CF5F3"/>
<path id="Vector_215" d="M144.879 27.499L127.667 24.8329L127.683 24.8044L144.895 27.4706L144.879 27.499Z" fill="#4DF4F3"/>
<path id="Vector_216" d="M144.863 27.5271L127.651 24.861L127.667 24.8325L144.879 27.4987L144.863 27.5271Z" fill="#4EF4F3"/>
<path id="Vector_217" d="M144.851 27.5552L127.639 24.889L127.651 24.8606L144.863 27.5267L144.851 27.5552Z" fill="#4FF4F3"/>
<path id="Vector_218" d="M144.835 27.5838L127.623 24.9176L127.639 24.8892L144.851 27.5553L144.835 27.5838Z" fill="#50F4F3"/>
<path id="Vector_219" d="M144.817 27.6164L127.605 24.9502L127.621 24.9177L144.834 27.5839L144.817 27.6164Z" fill="#51F4F2"/>
<path id="Vector_220" d="M144.806 27.6448L127.589 24.9786L127.606 24.9502L144.818 27.6163L144.806 27.6448Z" fill="#52F3F2"/>
<path id="Vector_221" d="M144.791 27.6731L127.579 25.007L127.591 24.9785L144.807 27.6447L144.791 27.6731Z" fill="#53F3F2"/>
<path id="Vector_222" d="M144.773 27.7019L127.561 25.0358L127.578 25.0073L144.79 27.6735L144.773 27.7019Z" fill="#54F3F2"/>
<path id="Vector_223" d="M144.76 27.7305L127.544 25.0684L127.56 25.0359L144.772 27.702L144.76 27.7305Z" fill="#55F3F2"/>
<path id="Vector_224" d="M144.744 27.7632L127.531 25.0971L127.544 25.0686L144.76 27.7307L144.744 27.7632Z" fill="#56F3F1"/>
<path id="Vector_225" d="M144.728 27.7913L127.516 25.1251L127.532 25.0967L144.744 27.7628L144.728 27.7913Z" fill="#57F3F1"/>
<path id="Vector_226" d="M144.712 27.8203L127.5 25.1542L127.516 25.1257L144.728 27.7919L144.712 27.8203Z" fill="#59F2F1"/>
<path id="Vector_227" d="M144.701 27.8484L127.489 25.1823L127.501 25.1538L144.713 27.82L144.701 27.8484Z" fill="#5AF2F1"/>
<path id="Vector_228" d="M144.682 27.881L127.47 25.2149L127.486 25.1824L144.698 27.8485L144.682 27.881Z" fill="#5BF2F0"/>
<path id="Vector_229" d="M144.668 27.909L127.456 25.2428L127.472 25.2144L144.684 27.8805L144.668 27.909Z" fill="#5CF2F0"/>
<path id="Vector_230" d="M144.656 27.9375L127.444 25.2714L127.456 25.2429L144.668 27.9091L144.656 27.9375Z" fill="#5DF2F0"/>
<path id="Vector_231" d="M144.64 27.9661L127.428 25.2999L127.444 25.2715L144.656 27.9376L144.64 27.9661Z" fill="#5EF2F0"/>
<path id="Vector_232" d="M144.622 27.9944L127.41 25.3283L127.426 25.2998L144.638 27.966L144.622 27.9944Z" fill="#5FF1F0"/>
<path id="Vector_233" d="M144.61 28.0273L127.394 25.3611L127.411 25.3286L144.623 27.9948L144.61 28.0273Z" fill="#60F1EF"/>
<path id="Vector_234" d="M144.594 28.0557L127.382 25.3895L127.394 25.3611L144.61 28.0272L144.594 28.0557Z" fill="#61F1EF"/>
<path id="Vector_235" d="M144.577 28.0843L127.364 25.4181L127.381 25.3896L144.593 28.0558L144.577 28.0843Z" fill="#62F1EF"/>
<path id="Vector_236" d="M144.565 28.1126L127.349 25.4464L127.365 25.418L144.577 28.0841L144.565 28.1126Z" fill="#63F1EF"/>
<path id="Vector_237" d="M144.548 28.1411L127.336 25.475L127.349 25.4465L144.565 28.1127L144.548 28.1411Z" fill="#64F0EF"/>
<path id="Vector_238" d="M144.533 28.1733L127.32 25.5071L127.337 25.4746L144.549 28.1408L144.533 28.1733Z" fill="#65F0EE"/>
<path id="Vector_239" d="M144.517 28.2019L127.305 25.5358L127.321 25.5073L144.533 28.1735L144.517 28.2019Z" fill="#66F0EE"/>
<path id="Vector_240" d="M144.506 28.2302L127.294 25.5641L127.306 25.5356L144.518 28.2018L144.506 28.2302Z" fill="#67F0EE"/>
<path id="Vector_241" d="M144.489 28.2588L127.276 25.5927L127.293 25.5642L144.505 28.2304L144.489 28.2588Z" fill="#68F0EE"/>
<path id="Vector_242" d="M144.471 28.2869L127.259 25.6207L127.275 25.5923L144.487 28.2584L144.471 28.2869Z" fill="#69F0EE"/>
<path id="Vector_243" d="M144.459 28.32L127.247 25.6539L127.259 25.6213L144.471 28.2875L144.459 28.32Z" fill="#6AEFED"/>
<path id="Vector_244" d="M144.443 28.3484L127.231 25.6823L127.247 25.6538L144.459 28.32L144.443 28.3484Z" fill="#6BEFED"/>
<path id="Vector_245" d="M144.429 28.3765L127.217 25.7103L127.233 25.6819L144.445 28.348L144.429 28.3765Z" fill="#6CEFED"/>
<path id="Vector_246" d="M144.408 28.4211L127.196 25.7549L127.216 25.7102L144.428 28.3764L144.408 28.4211Z" fill="#6CEFED"/>
<path id="Vector_247" d="M144.383 28.4619L127.171 25.7958L127.195 25.7551L144.407 28.4213L144.383 28.4619Z" fill="#6DEFED"/>
<path id="Vector_248" d="M144.364 28.5068L127.152 25.8406L127.172 25.7959L144.384 28.4621L144.364 28.5068Z" fill="#6EEFED"/>
<path id="Vector_249" d="M144.337 28.5514L127.125 25.8853L127.15 25.8406L144.362 28.5067L144.337 28.5514Z" fill="#6FEFEC"/>
<path id="Vector_250" d="M144.318 28.5918L127.106 25.9257L127.126 25.885L144.338 28.5512L144.318 28.5918Z" fill="#70EEEC"/>
<path id="Vector_251" d="M144.297 28.6366L127.085 25.9705L127.105 25.9258L144.317 28.5919L144.297 28.6366Z" fill="#71EEEC"/>
<path id="Vector_252" d="M144.272 28.677L127.06 26.0109L127.085 25.9702L144.297 28.6364L144.272 28.677Z" fill="#72EEEC"/>
<path id="Vector_253" d="M144.253 28.7221L127.041 26.0559L127.061 26.0112L144.273 28.6774L144.253 28.7221Z" fill="#73EEEC"/>
<path id="Vector_254" d="M144.228 28.7665L127.016 26.1004L127.041 26.0557L144.253 28.7218L144.228 28.7665Z" fill="#74EEEB"/>
<path id="Vector_255" d="M144.209 28.8076L126.997 26.1415L127.017 26.1008L144.229 28.767L144.209 28.8076Z" fill="#75EEEB"/>
<path id="Vector_256" d="M144.185 28.852L126.972 26.1858L126.997 26.1411L144.209 28.8073L144.185 28.852Z" fill="#76EDEB"/>
<path id="Vector_257" d="M144.163 28.8969L126.951 26.2307L126.972 26.186L144.184 28.8522L144.163 28.8969Z" fill="#77EDEB"/>
<path id="Vector_258" d="M144.139 28.9377L126.927 26.2716L126.951 26.231L144.163 28.8971L144.139 28.9377Z" fill="#78EDEB"/>
<path id="Vector_259" d="M144.12 28.9821L126.907 26.3159L126.928 26.2712L144.14 28.9374L144.12 28.9821Z" fill="#79EDEA"/>
<path id="Vector_260" d="M144.099 29.0227L126.883 26.3566L126.907 26.3159L144.119 28.9821L144.099 29.0227Z" fill="#7AEDEA"/>
<path id="Vector_261" d="M144.074 29.0675L126.862 26.4014L126.882 26.3567L144.098 29.0228L144.074 29.0675Z" fill="#7CEDEA"/>
<path id="Vector_262" d="M144.053 29.1122L126.84 26.4461L126.861 26.4014L144.073 29.0675L144.053 29.1122Z" fill="#7DECEA"/>
<path id="Vector_263" d="M144.03 29.1531L126.818 26.4869L126.842 26.4463L144.054 29.1124L144.03 29.1531Z" fill="#7EECEA"/>
<path id="Vector_264" d="M144.01 29.1974L126.798 26.5313L126.819 26.4866L144.031 29.1527L144.01 29.1974Z" fill="#7FECE9"/>
<path id="Vector_265" d="M143.986 29.2428L126.774 26.5767L126.798 26.532L144.01 29.1981L143.986 29.2428Z" fill="#80ECE9"/>
<path id="Vector_266" d="M143.965 29.283L126.753 26.6168L126.773 26.5762L143.985 29.2423L143.965 29.283Z" fill="#81ECE9"/>
<path id="Vector_267" d="M143.94 29.3276L126.728 26.6614L126.752 26.6167L143.964 29.2829L143.94 29.3276Z" fill="#82ECE9"/>
<path id="Vector_268" d="M143.919 29.3684L126.707 26.7063L126.727 26.6616L143.939 29.3278L143.919 29.3684Z" fill="#83EBE9"/>
<path id="Vector_269" d="M143.899 29.4131L126.682 26.7469L126.707 26.7063L143.919 29.3684L143.899 29.4131Z" fill="#84EBE8"/>
<path id="Vector_270" d="M143.875 29.4577L126.663 26.7915L126.683 26.7468L143.9 29.413L143.875 29.4577Z" fill="#85EBE8"/>
<path id="Vector_271" d="M143.854 29.4983L126.642 26.8321L126.662 26.7915L143.874 29.4577L143.854 29.4983Z" fill="#86EBE8"/>
<path id="Vector_272" d="M143.829 29.5429L126.617 26.8767L126.642 26.832L143.854 29.4982L143.829 29.5429Z" fill="#87EBE8"/>
<path id="Vector_273" d="M143.81 29.5878L126.598 26.9217L126.618 26.877L143.83 29.5431L143.81 29.5878Z" fill="#88EBE8"/>
<path id="Vector_274" d="M143.785 29.6284L126.573 26.9623L126.598 26.9216L143.81 29.5878L143.785 29.6284Z" fill="#89EAE7"/>
<path id="Vector_275" d="M143.763 29.6735L126.551 27.0074L126.571 26.9626L143.783 29.6288L143.763 29.6735Z" fill="#8AEAE7"/>
<path id="Vector_276" d="M143.74 29.7136L126.528 27.0515L126.552 27.0068L143.764 29.673L143.74 29.7136Z" fill="#8BEAE7"/>
<path id="Vector_277" d="M143.708 29.7829L126.496 27.1168L126.528 27.0518L143.741 29.7138L143.708 29.7829Z" fill="#8BEAE7"/>
<path id="Vector_278" d="M143.673 29.8519L126.461 27.1858L126.497 27.1167L143.709 29.7829L143.673 29.8519Z" fill="#8CEAE7"/>
<path id="Vector_279" d="M143.638 29.921L126.422 27.2549L126.459 27.1858L143.671 29.8519L143.638 29.921Z" fill="#8DEAE7"/>
<path id="Vector_280" d="M143.603 29.9901L126.391 27.324L126.423 27.2549L143.639 29.921L143.603 29.9901Z" fill="#8EE9E6"/>
<path id="Vector_281" d="M143.564 30.059L126.352 27.3928L126.389 27.3237L143.601 29.9899L143.564 30.059Z" fill="#8FE9E6"/>
<path id="Vector_282" d="M143.534 30.1286L126.322 27.4624L126.355 27.3933L143.567 30.0595L143.534 30.1286Z" fill="#90E9E6"/>
<path id="Vector_283" d="M143.495 30.1933L126.283 27.5272L126.32 27.4622L143.532 30.1283L143.495 30.1933Z" fill="#91E9E6"/>
<path id="Vector_284" d="M143.46 30.2626L126.248 27.5964L126.285 27.5273L143.497 30.1935L143.46 30.2626Z" fill="#92E9E5"/>
<path id="Vector_285" d="M143.428 30.3314L126.382 27.6897L126.236 27.6206L126.248 27.5962L143.46 30.2623L143.428 30.3314Z" fill="#93E8E5"/>
<path id="Vector_286" d="M143.391 30.4008L126.593 27.7997L126.382 27.6899L143.427 30.3317L143.391 30.4008Z" fill="#94E8E5"/>
<path id="Vector_287" d="M143.359 30.4695L126.806 27.905L126.594 27.7993L143.392 30.4004L143.359 30.4695Z" fill="#95E8E5"/>
<path id="Vector_288" d="M143.322 30.5389L127.017 28.0109L126.805 27.9053L143.359 30.4698L143.322 30.5389Z" fill="#97E8E4"/>
<path id="Vector_289" d="M143.285 30.6037L127.232 28.1205L127.016 28.0107L143.322 30.5387L143.285 30.6037Z" fill="#98E8E4"/>
<path id="Vector_290" d="M143.252 30.673L127.442 28.2263L127.231 28.1206L143.285 30.6039L143.252 30.673Z" fill="#99E8E4"/>
<path id="Vector_291" d="M143.217 30.7421L127.655 28.332L127.444 28.2263L143.253 30.673L143.217 30.7421Z" fill="#9AE7E4"/>
<path id="Vector_292" d="M143.18 30.811L127.866 28.4375L127.654 28.3318L143.216 30.7419L143.18 30.811Z" fill="#9BE7E3"/>
<path id="Vector_293" d="M143.147 30.8804L128.081 28.5475L127.865 28.4377L143.18 30.8113L143.147 30.8804Z" fill="#9CE7E3"/>
<path id="Vector_294" d="M143.109 30.9496L128.291 28.6533L128.08 28.5476L143.146 30.8805L143.109 30.9496Z" fill="#9DE7E3"/>
<path id="Vector_295" d="M143.074 31.0185L128.504 28.7587L128.293 28.6531L143.111 30.9494L143.074 31.0185Z" fill="#9EE7E3"/>
<path id="Vector_296" d="M143.041 31.0833L128.715 28.8683L128.503 28.7585L143.074 31.0183L143.041 31.0833Z" fill="#9FE6E2"/>
<path id="Vector_297" d="M143.004 31.1525L128.93 28.9741L128.714 28.8684L143.041 31.0834L143.004 31.1525Z" fill="#A0E6E2"/>
<path id="Vector_298" d="M142.973 31.2214L129.142 29.0795L128.931 28.9739L143.005 31.1523L142.973 31.2214Z" fill="#A1E6E2"/>
<path id="Vector_299" d="M142.911 31.3396L129.499 29.2627L129.142 29.0798L142.972 31.2217L142.911 31.3396Z" fill="#A1E6E2"/>
<path id="Vector_300" d="M142.851 31.4528L129.862 29.441L129.5 29.2622L142.912 31.339L142.851 31.4528Z" fill="#A2E6E2"/>
<path id="Vector_301" d="M142.793 31.5711L130.218 29.6202L129.861 29.4414L142.85 31.4532L142.793 31.5711Z" fill="#A3E6E2"/>
<path id="Vector_302" d="M142.733 31.685L130.577 29.8033L130.219 29.6204L142.794 31.5712L142.733 31.685Z" fill="#A4E5E1"/>
<path id="Vector_303" d="M142.675 31.8028L130.938 29.982L130.576 29.8032L142.732 31.685L142.675 31.8028Z" fill="#A5E5E1"/>
<path id="Vector_304" d="M142.615 31.9163L131.296 30.1646L130.938 29.9817L142.676 31.8025L142.615 31.9163Z" fill="#A6E5E1"/>
<path id="Vector_305" d="M142.553 32.0348L131.657 30.3441L131.295 30.1653L142.614 31.917L142.553 32.0348Z" fill="#A8E5E1"/>
<path id="Vector_306" d="M142.496 32.1483L132.015 30.5266L131.657 30.3438L142.553 32.0345L142.496 32.1483Z" fill="#A9E4E0"/>
<path id="Vector_307" d="M142.436 32.2661L132.373 30.7054L132.015 30.5266L142.497 32.1482L142.436 32.2661Z" fill="#AAE4E0"/>
<path id="Vector_308" d="M142.375 32.3798L132.734 30.8882L132.372 30.7053L142.436 32.266L142.375 32.3798Z" fill="#ABE4E0"/>
<path id="Vector_309" d="M142.32 32.4976L133.094 31.067L132.736 30.8882L142.377 32.3798L142.32 32.4976Z" fill="#ACE4E0"/>
<path id="Vector_310" d="M142.258 32.6118L133.455 31.2503L133.093 31.0674L142.319 32.498L142.258 32.6118Z" fill="#ADE3DF"/>
<path id="Vector_311" d="M142.2 32.7296L133.811 31.4291L133.453 31.2502L142.257 32.6118L142.2 32.7296Z" fill="#AEE3DF"/>
<path id="Vector_312" d="M142.01 33.0955L134.954 32.0023L133.812 31.4292L142.201 32.7298L142.01 33.0955Z" fill="#AEE3DF"/>
<path id="Vector_313" d="M141.823 33.4653L136.097 32.5793L134.955 32.0022L142.01 33.0955L141.823 33.4653Z" fill="#AFE3DF"/>
<path id="Vector_314" d="M141.633 33.8347L137.239 33.1519L136.097 32.5789L141.824 33.4649L141.633 33.8347Z" fill="#B1E3DF"/>
<path id="Vector_315" d="M141.443 34.2009L138.378 33.7254L137.236 33.1523L141.63 33.8351L141.443 34.2009Z" fill="#B2E3DF"/>
<path id="Vector_316" d="M141.258 34.5707L139.523 34.3025L138.381 33.7253L141.445 34.2009L141.258 34.5707Z" fill="#B3E3DF"/>
</g>
</g>
</g>
<path id="Vector_317" d="M133.884 23.3663C134.677 23.1184 135.298 22.5291 136.083 22.3665C136.457 22.2364 136.855 22.2893 137.188 22.4681C137.521 22.6469 137.794 22.9517 137.879 23.3256C137.428 23.3541 137.074 23.663 137.009 24.1466C137.034 24.6425 137.432 25.0123 137.92 24.7197C138.306 24.5002 138.509 23.9922 138.342 23.5654C138.513 23.6305 138.684 23.7036 138.794 23.8499C139.411 24.5612 139.68 25.5854 139.424 26.4917C139.424 26.5202 139.432 26.5486 139.452 26.5811L139.541 26.5933C139.582 26.5933 139.59 26.5567 139.59 26.5567C139.903 25.5691 139.541 23.6386 138.318 23.3785C138.16 22.907 137.81 22.5006 137.4 22.2202C136.851 21.9641 136.27 21.9804 135.737 22.2202C135.083 22.4437 134.457 22.7607 133.864 23.1306C133.673 23.1956 133.725 23.472 133.876 23.3582L133.884 23.3663ZM138.017 23.6142C138.082 23.8052 138.095 24.0247 138.03 24.1995C137.965 24.3702 137.582 24.8538 137.375 24.423C137.209 24.0003 137.615 23.6508 138.025 23.6142H138.021H138.017Z" fill="#3E4150"/>
<path id="Vector_318" d="M139.783 26.41C139.873 26.3815 140.011 26.3978 140.088 26.4994C140.165 26.601 140.149 26.731 140.088 26.8164C139.365 27.5236 138.609 28.1373 137.78 28.6534L135.276 30.6002C135.174 30.6774 135.044 30.6612 134.967 30.5596C134.89 30.458 134.91 30.3279 134.967 30.2425C135.772 29.5882 136.585 28.8973 137.434 28.2429C138.198 27.5886 138.995 26.9749 139.787 26.41H139.783Z" fill="#1F272C"/>
<path id="Vector_319" d="M139.486 26.1259C139.283 26.2763 139.202 26.577 139.259 26.8128C139.311 27.0891 139.555 27.2558 139.819 27.2964C140.084 27.333 140.372 27.1908 140.486 26.9835C140.604 26.7762 140.6 26.4592 140.405 26.256C140.291 26.1056 140.12 26.0406 139.945 26.0121C139.767 25.9877 139.624 26.0609 139.482 26.13L139.486 26.1259Z" fill="#1F272C"/>
<path id="Vector_320" d="M134.191 22.7322C134.207 22.6021 134.13 22.5005 134 22.4802C133.87 22.4599 133.772 22.4924 133.707 22.6184C133.354 23.5532 133.094 24.5083 132.919 25.4715L132.147 28.5441C132.131 28.6741 132.204 28.7757 132.338 28.7961C132.472 28.8204 132.565 28.7839 132.63 28.6579C132.907 27.6215 133.216 26.6339 133.492 25.5975C133.797 24.6505 134.02 23.6995 134.191 22.7322Z" fill="#1F272C"/>
<path id="Vector_321" d="M134.483 23.224C134.459 23.4028 134.309 23.5166 134.162 23.6304C134.02 23.6995 133.833 23.7198 133.662 23.6954C133.406 23.6182 133.211 23.4109 133.158 23.1346C133.106 22.8582 133.232 22.6103 133.475 22.4599C133.719 22.3176 133.988 22.3461 134.227 22.5209C134.467 22.7363 134.573 22.9679 134.487 23.224H134.483Z" fill="#1F272C"/>
<g id="Group_2" opacity="0.7">
<path id="Vector_322" d="M135.654 16.5217C136.723 16.2169 137.686 16.3307 137.82 16.7818C137.954 17.2329 137.239 17.8426 136.17 18.1474C135.101 18.4522 134.138 18.3384 134.004 17.8873C133.87 17.4361 134.585 16.8265 135.654 16.5217Z" fill="#DDF0EE"/>
</g>
<path id="Vector_323" d="M125.022 53.4704L122.259 52.3487L124.291 48.5486L126.372 42.2368L129.131 43.3545L126.217 49.333L125.026 53.4704H125.022Z" fill="#003147"/>
<path id="Vector_324" d="M122.795 24.5123C122.941 24.2156 123.336 24.1018 123.673 24.2684L144.124 34.173C144.458 34.3356 144.604 34.7176 144.458 35.0143L139.243 52.0029C139.097 52.2996 138.703 52.4134 138.365 52.2468L113.297 39.3631C112.964 39.2005 112.817 38.8185 112.964 38.5218L122.791 24.5123H122.795Z" fill="#9A9A9A"/>
<path id="Vector_325" d="M137.449 44.0981C137.189 44.4924 136.612 44.5777 135.994 44.1713L119.314 33.4782C118.689 33.0799 118.432 32.4581 118.693 32.0639L121.127 28.3451C121.387 27.9508 122.025 27.9955 122.643 28.3898C122.643 28.3898 125.516 29.3571 131.154 32.9499C136.787 36.5427 139.331 39.0828 139.331 39.0828C139.957 39.4811 140.152 39.977 139.892 40.3712L137.457 44.09H137.449V44.0981Z" fill="#B5E3F6"/>
<path id="Vector_326" d="M107.421 81.3313C107.527 81.2012 118.524 68.6873 119.817 57.0798L123.43 57.4822C122.016 70.183 109.575 82.6968 109.116 83.2496L107.421 81.3313Z" fill="#003147"/>
<path id="Vector_327" d="M112.676 76.8273C111.607 76.2299 111.115 75.0634 111.583 74.2343C112.05 73.4052 113.298 73.2101 114.367 73.8116C115.436 74.4091 115.927 75.5755 115.46 76.4046C114.993 77.2337 113.745 77.4288 112.676 76.8273Z" fill="#049BD8"/>
<path id="Vector_328" d="M107.167 79.4287C105.269 78.3639 103.241 78.3476 102.343 79.3231L109.78 83.4889C110.105 82.1965 109.028 80.4732 107.167 79.4287Z" fill="#049BD8"/>
<path id="Vector_329" d="M102.338 79.3147C102.236 79.4082 102.171 79.526 102.086 79.6805L109.601 83.8911C109.666 83.7732 109.694 83.6391 109.78 83.4846L102.342 79.3188H102.338V79.3147Z" fill="#003147"/>
<path id="Vector_330" d="M115.381 46.0613C115.381 46.0613 113.28 45.3053 111.76 45.8702C109.114 46.8497 114.833 51.9341 114.849 51.8406C115.28 49.6012 114.882 48.2722 115.377 46.0613H115.381Z" fill="#003147"/>
<g id="Group 16775">
<path id="Vector_331" d="M133.75 79.5423C128.064 77.4214 123.458 68.6953 122.891 67.5864L125.751 66.1244C127.849 70.2235 132.527 76.7467 136.149 76.7932C137.663 76.8137 139.097 75.603 140.404 73.205L143.227 74.7423C141.304 78.271 138.907 80.0424 136.105 80.0083C135.303 79.9997 134.518 79.8307 133.748 79.5464L133.75 79.5423Z" fill="#003147"/>
<path id="Vector_332" d="M141.634 76.6619C143.134 78.2045 145.049 78.79 146.177 78.12L140.3 72.0748C139.634 73.2165 140.162 75.1475 141.632 76.6557L141.634 76.6619Z" fill="#049BD8"/>
<path id="Vector_333" d="M146.176 78.1192C146.302 78.0578 146.398 77.966 146.521 77.847L140.582 71.7412C140.487 71.833 140.423 71.9551 140.298 72.0782L146.174 78.1234L146.176 78.1192Z" fill="#003147"/>
<path id="Vector_334" d="M132.252 77.1236C131.31 77.8833 130.062 77.904 129.468 77.1693C128.873 76.4347 129.157 75.2207 130.101 74.4569C131.042 73.6973 132.291 73.6766 132.885 74.4112C133.479 75.1458 133.196 76.3598 132.252 77.1236Z" fill="#049BD8"/>
</g>
<g id="Clip path group_2">
<mask id="mask1_334_8297" style="mask-type:luminance" maskUnits="userSpaceOnUse" x="112" y="45" width="29" height="29">
<g id="clippath-1">
<path id="Vector_335" d="M132.515 72.5432C132.47 72.6773 132.368 72.8196 132.222 72.9334C132.072 72.9862 131.921 73.0472 131.726 73.0066C123.813 70.3038 121.395 69.2268 113.323 65.7681C112.994 65.6868 112.888 65.3861 113.035 65.1097C116.644 58.0582 114.839 52.6771 114.742 45.6419C114.717 45.455 114.758 45.3208 114.872 45.2396C114.99 45.1583 115.112 45.142 115.27 45.1461C123.358 46.9831 131.438 48.8202 139.55 50.6247C139.684 50.6694 139.855 50.7385 139.94 50.9173C140.021 51.0352 140.054 51.2181 140.042 51.3766C137.806 58.5012 135.449 65.6502 132.515 72.5351V72.5432Z" fill="white"/>
</g>
</mask>
<g mask="url(#mask1_334_8297)">
<g id="Group_3">
<path id="Vector_336" d="M139.381 54.0432L114 48.3289L114.967 44.4719L140.194 50.7878L139.381 54.0432Z" fill="#C9C9C8"/>
<path id="Vector_337" d="M139.319 54.2868L113.938 48.5765L113.999 48.3286L139.38 54.043L139.319 54.2868Z" fill="#C9C9C8"/>
<path id="Vector_338" d="M139.254 54.5351L113.877 48.8208L113.937 48.5769L139.319 54.2872L139.254 54.5351Z" fill="#C8C8C7"/>
<path id="Vector_339" d="M139.192 54.779L113.815 49.0687L113.876 48.8208L139.253 54.5351L139.192 54.779Z" fill="#C7C7C6"/>
<path id="Vector_340" d="M139.131 55.0227L113.753 49.3125L113.814 49.0686L139.192 54.7789L139.131 55.0227Z" fill="#C6C6C5"/>
<path id="Vector_341" d="M139.069 55.2707L113.692 49.5564L113.753 49.3125L139.13 55.0228L139.069 55.2707Z" fill="#C5C5C4"/>
<path id="Vector_342" d="M139.01 55.5146L113.629 49.8043L113.694 49.5564L139.071 55.2707L139.01 55.5146Z" fill="#C4C4C3"/>
<path id="Vector_343" d="M138.947 55.7624L113.565 50.0481L113.626 49.8042L139.008 55.5145L138.947 55.7624Z" fill="#C3C3C2"/>
<path id="Vector_344" d="M138.887 56.0063L113.505 50.296L113.566 50.0481L138.948 55.7624L138.887 56.0063Z" fill="#C2C2C1"/>
<path id="Vector_345" d="M138.827 56.2541L113.446 50.5398L113.507 50.2959L138.888 56.0062L138.827 56.2541Z" fill="#C1C1C0"/>
<path id="Vector_346" d="M138.762 56.4985L113.384 50.7882L113.445 50.5403L138.827 56.2546L138.762 56.4985Z" fill="#C0C0BF"/>
<path id="Vector_347" d="M138.702 56.746L113.325 51.0317L113.386 50.7878L138.763 56.4981L138.702 56.746Z" fill="#BFBFBE"/>
<path id="Vector_348" d="M138.64 56.9899L113.263 51.2797L113.324 51.0317L138.701 56.7461L138.64 56.9899Z" fill="#BEBEBD"/>
<path id="Vector_349" d="M138.579 57.2377L113.198 51.5234L113.263 51.2795L138.64 56.9898L138.579 57.2377Z" fill="#BDBDBC"/>
<path id="Vector_350" d="M138.518 57.4816L113.137 51.7673L113.197 51.5234L138.579 57.2378L138.518 57.4816Z" fill="#BCBCBB"/>
<path id="Vector_351" d="M138.456 57.726L113.075 52.0157L113.136 51.7678L138.517 57.4822L138.456 57.726Z" fill="#BBBBBA"/>
<path id="Vector_352" d="M138.396 57.9733L113.015 52.259L113.076 52.0151L138.457 57.7254L138.396 57.9733Z" fill="#BABAB9"/>
<path id="Vector_353" d="M138.331 58.2172L112.954 52.507L113.015 52.259L138.396 57.9734L138.331 58.2172Z" fill="#B9B9B8"/>
<path id="Vector_354" d="M138.269 58.465L112.892 52.7507L112.953 52.5068L138.33 58.2171L138.269 58.465Z" fill="#B8B8B7"/>
<path id="Vector_355" d="M138.21 58.7084L112.832 52.9982L112.893 52.7502L138.271 58.4646L138.21 58.7084Z" fill="#B7B7B6"/>
<path id="Vector_356" d="M138.148 58.9567L112.771 53.2424L112.832 52.9985L138.209 58.7088L138.148 58.9567Z" fill="#B6B6B5"/>
<path id="Vector_357" d="M138.089 59.2006L112.708 53.4904L112.773 53.2424L138.15 58.9568L138.089 59.2006Z" fill="#B5B5B4"/>
<path id="Vector_358" d="M138.027 59.4487L112.646 53.7343L112.707 53.4905L138.088 59.2008L138.027 59.4487Z" fill="#B4B4B3"/>
<path id="Vector_359" d="M137.964 59.6926L112.583 53.9823L112.644 53.7344L138.025 59.4487L137.964 59.6926Z" fill="#B3B3B2"/>
<path id="Vector_360" d="M137.9 59.9404L112.523 54.226L112.584 53.9822L137.965 59.6925L137.9 59.9404Z" fill="#B2B2B1"/>
<path id="Vector_361" d="M137.839 60.1843L112.461 54.4699L112.522 54.2261L137.9 59.9404L137.839 60.1843Z" fill="#B1B1B0"/>
<path id="Vector_362" d="M137.777 60.4287L112.4 54.7184L112.461 54.4705L137.838 60.1848L137.777 60.4287Z" fill="#B0B0AF"/>
<path id="Vector_363" d="M137.717 60.676L112.34 54.9616L112.401 54.7178L137.778 60.428L137.717 60.676Z" fill="#AFAFAE"/>
<path id="Vector_364" d="M137.656 60.9201L112.275 55.2098L112.34 54.9619L137.717 60.6763L137.656 60.9201Z" fill="#AEAEAD"/>
<path id="Vector_365" d="M137.597 61.1682L112.215 55.4538L112.276 55.21L137.658 60.9202L137.597 61.1682Z" fill="#ADADAC"/>
<path id="Vector_366" d="M137.533 61.4121L112.152 55.7018L112.213 55.4539L137.594 61.1682L137.533 61.4121Z" fill="#ACACAB"/>
<path id="Vector_367" d="M137.468 61.6599L112.091 55.9455L112.152 55.7017L137.533 61.4119L137.468 61.6599Z" fill="#ABABAA"/>
<path id="Vector_368" d="M137.41 61.9038L112.033 56.1935L112.094 55.9456L137.471 61.6599L137.41 61.9038Z" fill="#AAAAA9"/>
<path id="Vector_369" d="M137.346 62.1516L111.969 56.4372L112.03 56.1934L137.407 61.9036L137.346 62.1516Z" fill="#A9A9A8"/>
<path id="Vector_370" d="M137.285 62.3952L111.908 56.6849L111.969 56.437L137.346 62.1514L137.285 62.3952Z" fill="#A8A8A7"/>
<path id="Vector_371" d="M137.224 62.6389L111.843 56.9287L111.908 56.6848L137.285 62.3951L137.224 62.6389Z" fill="#A7A7A6"/>
<path id="Vector_372" d="M137.164 62.8872L111.783 57.1728L111.844 56.929L137.225 62.6392L137.164 62.8872Z" fill="#A6A6A5"/>
<path id="Vector_373" d="M137.104 63.1308L111.723 57.4205L111.784 57.1726L137.165 62.887L137.104 63.1308Z" fill="#A5A5A4"/>
<path id="Vector_374" d="M137.039 63.3791L111.662 57.6648L111.723 57.4209L137.104 63.1312L137.039 63.3791Z" fill="#A5A5A4"/>
<path id="Vector_375" d="M136.977 63.6227L111.6 57.9125L111.661 57.6646L137.038 63.3789L136.977 63.6227Z" fill="#A2A2A2"/>
<path id="Vector_376" d="M136.918 63.8708L111.54 58.1564L111.601 57.9126L136.979 63.6229L136.918 63.8708Z" fill="#A1A1A1"/>
<path id="Vector_377" d="M136.854 64.1147L111.477 58.4044L111.538 58.1565L136.915 63.8708L136.854 64.1147Z" fill="#A0A0A0"/>
<path id="Vector_378" d="M136.793 64.362L111.412 58.6477L111.477 58.4038L136.854 64.1141L136.793 64.362Z" fill="#9F9F9F"/>
<path id="Vector_379" d="M136.732 64.6059L111.351 58.8956L111.412 58.6477L136.793 64.362L136.732 64.6059Z" fill="#9E9E9E"/>
<path id="Vector_380" d="M136.674 64.8542L111.293 59.1398L111.354 58.896L136.735 64.6063L136.674 64.8542Z" fill="#9D9D9D"/>
<path id="Vector_381" d="M136.608 65.0981L111.231 59.3878L111.292 59.1399L136.673 64.8542L136.608 65.0981Z" fill="#9C9C9C"/>
<path id="Vector_382" d="M136.547 65.3421L111.169 59.6318L111.23 59.3879L136.608 65.0982L136.547 65.3421Z" fill="#9B9B9B"/>
<path id="Vector_383" d="M136.487 65.59L111.11 59.8757L111.171 59.6318L136.548 65.3421L136.487 65.59Z" fill="#9A9A9A"/>
<path id="Vector_384" d="M136.425 65.8334L111.048 60.1232L111.109 59.8752L136.486 65.5896L136.425 65.8334Z" fill="#999999"/>
<path id="Vector_385" d="M136.366 66.0812L110.985 60.3669L111.05 60.123L136.427 65.8333L136.366 66.0812Z" fill="#989898"/>
<path id="Vector_386" d="M136.303 66.3251L110.922 60.6149L110.983 60.3669L136.364 66.0813L136.303 66.3251Z" fill="#979797"/>
<path id="Vector_387" d="M136.241 66.5734L110.86 60.8591L110.921 60.6152L136.302 66.3255L136.241 66.5734Z" fill="#969696"/>
<path id="Vector_388" d="M136.182 66.8173L110.8 61.1071L110.861 60.8591L136.243 66.5735L136.182 66.8173Z" fill="#959595"/>
<path id="Vector_389" d="M136.116 67.0651L110.739 61.3508L110.8 61.1069L136.181 66.8172L136.116 67.0651Z" fill="#949494"/>
<path id="Vector_390" d="M136.053 67.309L110.676 61.5987L110.737 61.3508L136.114 67.0652L136.053 67.309Z" fill="#939393"/>
<path id="Vector_391" d="M135.995 67.5568L110.618 61.8425L110.679 61.5986L136.056 67.3089L135.995 67.5568Z" fill="#929292"/>
<path id="Vector_392" d="M135.933 67.8007L110.556 62.0864L110.617 61.8425L135.994 67.5569L135.933 67.8007Z" fill="#919191"/>
<path id="Vector_393" d="M135.872 68.0444L110.491 62.3341L110.556 62.0862L135.933 67.8005L135.872 68.0444Z" fill="#909090"/>
<path id="Vector_394" d="M135.811 68.2922L110.43 62.5778L110.49 62.334L135.872 68.0443L135.811 68.2922Z" fill="#8F8F8F"/>
<path id="Vector_395" d="M135.751 68.5363L110.37 62.826L110.431 62.5781L135.812 68.2925L135.751 68.5363Z" fill="#8E8E8E"/>
<path id="Vector_396" d="M135.685 68.7844L110.308 63.07L110.369 62.8262L135.75 68.5365L135.685 68.7844Z" fill="#8D8D8D"/>
<path id="Vector_397" d="M135.624 69.0288L110.247 63.3185L110.308 63.0706L135.685 68.7849L135.624 69.0288Z" fill="#8C8C8C"/>
<path id="Vector_398" d="M135.562 69.2761L110.185 63.5617L110.246 63.3179L135.623 69.0282L135.562 69.2761Z" fill="#8B8B8B"/>
<path id="Vector_399" d="M135.502 69.52L110.125 63.8097L110.186 63.5618L135.563 69.2761L135.502 69.52Z" fill="#8A8A8A"/>
<path id="Vector_400" d="M135.44 69.7678L110.059 64.0534L110.124 63.8096L135.501 69.5199L135.44 69.7678Z" fill="#898989"/>
<path id="Vector_401" d="M135.38 70.0117L109.999 64.3014L110.06 64.0535L135.441 69.7678L135.38 70.0117Z" fill="#888888"/>
<path id="Vector_402" d="M135.319 70.2595L109.937 64.5451L109.998 64.3013L135.38 70.0116L135.319 70.2595Z" fill="#878787"/>
<path id="Vector_403" d="M135.255 70.5036L109.878 64.7893L109.938 64.5454L135.32 70.2598L135.255 70.5036Z" fill="#868686"/>
<path id="Vector_404" d="M135.195 70.7477L109.818 65.0375L109.879 64.7896L135.256 70.5039L135.195 70.7477Z" fill="#858585"/>
<path id="Vector_405" d="M135.132 70.9955L109.754 65.2812L109.815 65.0374L135.193 70.7476L135.132 70.9955Z" fill="#848484"/>
<path id="Vector_406" d="M135.072 71.2392L109.695 65.5289L109.756 65.281L135.133 70.9953L135.072 71.2392Z" fill="#838383"/>
<path id="Vector_407" d="M135.011 71.4875L109.63 65.7732L109.695 65.5293L135.072 71.2396L135.011 71.4875Z" fill="#828282"/>
<path id="Vector_408" d="M134.949 71.7309L109.568 66.0206L109.629 65.7727L135.01 71.487L134.949 71.7309Z" fill="#818181"/>
<path id="Vector_409" d="M134.888 71.9787L109.507 66.2644L109.568 66.0205L134.949 71.7308L134.888 71.9787Z" fill="#808080"/>
<path id="Vector_410" d="M109.507 66.2644L134.888 71.9788L134.457 73.6898L109.231 67.374L109.507 66.2644Z" fill="#808080"/>
</g>
</g>
</g>
<path id="Vector_411" d="M120.491 51.4015C124.799 52.377 128.107 53.267 132.379 54.275C133.525 54.5148 134.289 55.795 134.029 57.0468C133.773 58.2905 132.623 59.0992 131.533 58.8473C127.327 57.8881 124.051 57.0265 119.849 56.0714C118.703 55.8316 118.012 54.6001 118.199 53.2995C118.312 51.9461 119.328 51.1008 120.487 51.4015H120.491Z" fill="#004361"/>
<path id="Vector_412" d="M121.538 54.0515C121.473 54.6246 121.058 55.1082 120.502 55.2098C119.953 55.3114 119.396 55.0107 119.079 54.5514C118.75 54.0312 118.701 53.3646 118.986 52.9013C119.23 52.4095 119.758 52.1738 120.323 52.3079C121.115 52.4421 121.664 53.2387 121.538 54.0515Z" fill="#B2E2F4"/>
<path id="Vector_413" d="M133.208 56.815C133.073 57.5954 132.346 58.0587 131.687 57.9002C130.992 57.7214 130.533 56.9898 130.671 56.2095C130.806 55.4291 131.492 54.9455 132.191 55.1243C132.886 55.3031 133.346 56.0347 133.208 56.815Z" fill="#B2E2F4"/>
<path id="Vector_414" d="M114.833 60.0791C114.731 60.3392 114.772 60.514 114.67 60.7741C121.445 62.8428 127.916 65.0659 134.691 67.1387C134.792 66.8827 134.813 66.7404 134.947 66.4478C128.147 64.4116 121.608 62.1437 114.833 60.0791Z" fill="#3E4150"/>
<path id="Vector_415" d="M114.227 62.2087C120.97 64.2449 127.334 66.72 134.073 68.7603C134.174 68.5042 134.187 68.3985 134.288 68.1384C127.55 66.1022 121.238 63.5377 114.471 61.5381C114.369 61.7982 114.325 61.9608 114.215 62.2168H114.223L114.227 62.2087Z" fill="#3E4150"/>
<path id="Vector_416" d="M113.719 63.5737C120.458 65.6099 126.7 68.2882 133.443 70.3285C133.545 70.0683 133.581 69.9545 133.707 69.6579C126.969 67.6217 120.734 64.9027 114.028 62.8909C113.898 63.1754 113.821 63.3135 113.719 63.5655V63.5737Z" fill="#3E4150"/>
<path id="Vector_417" d="M133.053 37.2658C133.415 36.9772 134.529 36.9325 135.228 37.7128C135.923 38.4972 135.992 39.3954 135.992 39.3954C135.992 39.3954 136.085 40.4968 135.707 39.6027C135.329 38.7086 134.846 38.0095 133.834 37.7047C133.354 37.5624 132.692 37.5462 133.053 37.2617V37.2658Z" fill="#004361"/>
<path id="Vector_418" d="M132.163 40.387C131.399 40.3667 129.745 40.1391 128.184 39.4319C126.148 38.5053 125.136 37.3388 124.957 36.8145C124.872 36.5707 124.998 36.2212 125.14 35.9204C125.075 35.9285 125.01 35.9367 124.933 35.9407C123.336 36.2008 123.608 38.4524 124.226 39.6514C124.852 40.8422 127.461 42.7524 129.599 42.9597C131.456 43.1426 132.614 41.6632 132.163 40.383L132.171 40.3911L132.163 40.387Z" fill="#BD2A1D"/>
<path id="Vector_419" d="M124.953 36.8149C125.132 37.3432 126.152 38.4975 128.18 39.4322C129.749 40.1476 131.399 40.367 132.163 40.3873C132.098 40.1923 131.989 40.0094 131.846 39.8224C131.058 38.8673 128.924 38.5625 127.729 37.7903C126.591 37.0465 126.421 35.8232 125.148 35.9085C124.99 36.2093 124.88 36.5588 124.966 36.8027L124.957 36.8108L124.953 36.8149Z" fill="#F6F6F7"/>
<path id="Vector_420" d="M140.366 50.9746C140.366 50.9746 143.3 50.5723 144.865 51.5314C146.86 52.6979 144.048 55.5997 142.784 56.2419C140.406 57.4408 137.484 57.1726 137.517 56.8271C137.765 54.2748 138.143 52.0191 140.366 50.9746Z" fill="#003147"/>
<path id="Vector_421" d="M122.695 7.32084C119.715 9.77565 117.053 7.06072 117.208 6.61366L115.923 6.37793C115.972 6.77216 116.078 7.53218 116.265 7.9955C116.818 9.35703 118.334 10.2715 119.963 10.3162C121.487 10.3568 123.532 9.83255 124.418 8.56856C125.011 7.71507 123.751 6.45109 122.699 7.32084H122.695Z" fill="#003351"/>
<path id="Vector_422" d="M118.526 0.525143C115.258 2.23619 115.352 5.02021 115.327 5.33316C115.218 6.69875 116.201 7.76358 116.181 7.80423L117.388 7.23929C117.388 7.23929 116.648 5.21123 118.745 3.82938C119.331 3.44328 120.786 3.08156 121.416 2.76455C121.879 2.52882 122.22 1.98827 122.001 1.41928C121.814 0.939697 121.306 0.5414 120.802 0.374765C119.981 0.0983956 119.144 0.204066 118.534 0.525143H118.526Z" fill="#003351"/>
<path id="Vector_423" d="M125.986 33.4699C126.015 33.0106 125.409 32.0718 124.373 31.9458C123.336 31.8198 122.556 32.2831 122.556 32.2831C122.556 32.2831 121.601 32.844 122.552 32.6367C123.499 32.4335 124.352 32.4294 125.182 33.0838C125.576 33.3927 125.958 33.9291 125.986 33.4699Z" fill="#004361"/>
<path id="Vector_424" d="M40.3558 37.8468C38.0595 38.749 35.6901 39.4278 32.6134 39.5944C29.6262 39.761 26.9885 38.4158 25.9481 36.0422C24.7329 33.2664 25.6636 29.7061 28.2688 27.174C28.6792 26.7839 29.1222 26.3937 29.5896 26.032L31.3413 28.2917C30.9552 28.5925 30.5935 28.9054 30.2643 29.2265C28.2362 31.1936 27.9517 33.4899 28.5695 34.8961C29.1263 36.1723 30.9674 36.5178 32.7638 36.4202C35.5153 36.2698 36.889 35.7252 38.8846 34.9408L40.364 37.8508L40.3558 37.8468Z" fill="#0AC47D"/>
<path id="Vector_425" d="M69.3975 33.0513C72.3238 32.4376 74.8883 30.1332 75.2785 27.5686C75.7337 24.5774 73.917 21.3747 70.7468 19.6027C70.2551 19.3304 69.7227 19.0703 69.178 18.8386L68.0685 21.4723C68.5196 21.6592 68.9504 21.8706 69.3528 22.0941C71.8198 23.4719 72.6855 25.6219 72.4538 27.1338C72.2425 28.5116 70.6452 29.4788 68.8854 29.8446C66.1908 30.4055 64.2075 29.7105 62.0778 29.4667L61.4031 32.905C63.8579 33.1814 66.3778 33.6813 69.3975 33.0473V33.0513Z" fill="#0AC47D"/>
<path id="Vector_426" d="M61.4964 41.375L44.8533 48.8248L47.4504 50.5805L58.1597 47.3738L61.9638 44.3744L61.4964 41.375Z" fill="#C63539"/>
<path id="Vector_427" d="M73.5125 47.8049L74.4798 48.8495C66.3635 57.173 57.2758 45.5859 57.2758 45.5859L64.0184 45.3054C66.8675 52.3 73.5125 47.8049 73.5125 47.8049Z" fill="#AF714A"/>
<path id="Vector_428" d="M43.0674 60.9567C44.1078 55.1652 48.0786 48.3047 48.0786 48.3047L53.606 49.1338C47.9079 53.6654 44.9451 60.7169 44.9451 60.7169L43.0674 60.9567Z" fill="#AF714A"/>
<path id="Vector_429" d="M62.049 29.219C63.2601 31.7673 56.4403 35.104 50.0594 36.4534C45.5156 37.4125 39.9842 35.9616 39.1388 35.1162C38.3788 34.3603 37.127 31.6982 37.0376 30.6699C36.6921 26.6463 36.8466 21.3506 47.8241 18.9405C53.8229 17.6237 59.8258 19.2453 61.9352 25.0247C62.053 25.3539 61.9474 28.8735 62.0449 29.219H62.049Z" fill="#AF714A"/>
<path id="Vector_430" d="M42.4727 48.4758C42.4727 48.4758 44.4072 48.4229 46.6426 48.4148C49.3128 48.4026 59.571 46.0941 59.571 46.0941C59.571 46.086 59.571 46.0738 59.5669 46.0657C60.8349 45.7812 65.2243 43.8791 65.1593 43.8181C62.1518 40.7862 63.1475 39.9164 62.611 34.6776C62.2452 31.1295 62.1883 28.8779 62.1883 28.8779C62.2005 28.9592 61.9323 28.9877 61.5624 29.0893C61.1438 29.2031 61.6722 29.386 61.2617 29.833C60.4366 30.7394 60.2619 31.1539 59.8798 31.4465C57.9046 32.9706 57.3844 33.4258 53.8607 34.9824C47.1018 37.9656 43.1229 36.1448 42.1678 35.966C39.6277 35.4864 38.3962 34.3444 38.5588 34.7061C39.9203 37.7136 40.5747 38.8923 41.5094 41.343C43.0091 45.2691 42.7328 48.4189 42.4727 48.4839V48.4758Z" fill="#0AC47D"/>
<path id="Vector_431" d="M52.8047 29.4914C52.8047 29.028 53.4672 28.1339 54.5117 28.0729C55.5562 28.0201 56.304 28.5281 56.304 28.5281C56.304 28.5281 57.2225 29.1459 56.2878 28.8817C55.353 28.6176 54.5076 28.5566 53.6338 29.1581C53.2233 29.4426 52.7966 29.9506 52.8006 29.4914H52.8047Z" fill="#56182F"/>
<path id="Vector_432" d="M46.2299 30.3289C46.1445 29.8737 45.3317 29.1137 44.2953 29.2438C43.2589 29.3738 42.6127 30.0119 42.6127 30.0119C42.6127 30.0119 41.8242 30.7841 42.694 30.3574C43.5637 29.9306 44.3928 29.7193 45.352 30.1542C45.8072 30.3614 46.3112 30.7841 46.2258 30.3289H46.2299Z" fill="#56182F"/>
<path id="Vector_433" d="M47.915 34.592C48.1994 34.3034 48.7684 33.8848 49.8292 33.645C50.8981 33.4011 51.967 33.3605 52.6092 33.393C53.487 32.6208 53.7715 31.7104 53.6212 31.3975C53.5399 31.2227 53.3976 31.0805 53.1944 30.9829C53.0684 31.2552 52.601 31.8933 50.9347 32.3282C48.7725 32.8931 47.4882 32.8647 46.8013 32.5842C46.1876 32.3363 45.6024 32.003 45.5252 31.3365C45.1675 31.365 44.8993 31.5235 44.8586 31.9177C44.7083 33.2467 45.517 34.3847 47.919 34.592H47.915Z" fill="#BD2A1D"/>
<path id="Vector_434" d="M50.9395 32.3322C52.6059 31.8973 53.0733 31.2592 53.1993 30.9869C52.7441 30.7715 52.0084 30.7999 51.0289 31.2673C49.6186 31.942 48.4481 32.0111 47.4849 31.7347C46.8956 31.5681 46.0828 31.2958 45.5178 31.3364C45.5991 32.007 46.1844 32.3362 46.794 32.5841C47.4809 32.8605 48.757 32.889 50.9273 32.3281H50.9314L50.9395 32.3322Z" fill="#F5F5F6"/>
<path id="Vector_435" d="M49.8332 33.6448C48.7724 33.8805 48.2034 34.3072 47.9189 34.5917C48.3294 34.6283 48.7765 34.6364 49.2805 34.6161C50.8249 34.5511 51.906 34.0146 52.6091 33.3928C51.9751 33.3603 50.898 33.4009 49.8291 33.6448H49.8332Z" fill="#BD2A1D"/>
<path id="Vector_436" d="M40.2654 17.6032C49.3328 11.1288 61.4849 15.0711 62.566 25.0814C62.6351 25.7398 62.3303 30.1454 61.3996 30.2633C60.5786 30.369 61.4077 28.6579 61.428 28.3938C61.4605 27.9995 61.2736 27.4793 60.8021 27.7191C60.5583 27.841 60.4648 28.0402 60.1843 28.1255C59.9486 28.1946 59.6601 28.2596 59.4365 28.1093C58.8472 27.7191 59.3837 26.955 59.4893 26.3982C59.5503 26.069 59.6397 25.2927 58.9325 25.2521C58.6562 25.2399 58.457 25.5285 58.266 25.6666C58.0547 25.8251 57.7499 25.9715 57.4857 26.0162C57.1158 26.0771 56.7785 25.756 56.8069 25.3821C56.8395 24.996 57.0549 24.6018 57.1768 24.2523C57.2703 23.9922 57.38 23.8093 57.3028 23.5492C57.1362 22.9883 56.6362 22.7769 56.1363 23.1062C55.543 23.4923 55.3398 24.9554 54.4456 24.8416C53.5515 24.7278 53.9823 23.5451 53.9295 22.9476C53.8441 21.9885 53.1369 21.5008 52.5029 22.2811C52.0558 22.8298 51.9298 24.2198 51.1373 24.4108C50.2513 24.6262 49.4141 21.2813 49.3247 20.7895C49.219 20.2002 49.1174 19.8629 48.9223 19.3345C48.7272 18.8062 48.6988 18.603 48.4061 19.1598C48.081 19.7694 48.4061 18.4241 48.7475 20.501C48.9223 21.5739 49.597 25.9146 47.5486 24.3417C46.9837 23.9027 45.9473 22.0982 45.1547 23.3134C44.6792 24.045 46.4228 25.7642 44.9678 26.2112C44.0046 26.4998 42.7121 24.045 41.8911 25.248C41.3425 26.0527 43.208 27.7516 42.0375 28.4059C41.2124 28.8652 39.4323 26.7355 39.0055 28.1133C38.7088 29.0725 41.1067 30.7266 40.0582 31.6817C39.2128 32.4499 37.9366 30.8608 38.4081 32.84C38.4812 33.1327 38.9242 33.7748 38.7332 34.0471C37.9854 35.0957 36.441 32.5596 36.2053 32.1166C35.4209 30.6453 34.9453 28.9953 34.9535 27.3289C34.9697 24.297 36.9002 20.0051 40.2492 17.6113H40.2533L40.2654 17.6032Z" fill="#391C00"/>
<path id="Vector_437" d="M62.2835 28.662L62.4948 27.1948C62.7793 22.8216 58.6175 16.8553 48.0342 18.4932C42.519 19.3467 36.3495 22.7322 36.0894 29.7065C36.004 31.9662 36.8941 33.4253 36.8941 33.4253C36.8941 33.4253 34.5694 22.3461 48.9446 20.2002C63.0435 18.0949 62.2794 28.666 62.2794 28.666L62.2835 28.662Z" fill="#FFB300"/>
<path id="Vector_438" d="M35.5672 17.4282L35.3802 17.7859C34.9087 18.8751 35.3802 20.9072 38.1683 21.4437C39.6233 21.7241 41.4359 21.2771 42.1675 19.6554C42.4195 19.0946 42.3301 18.5012 42.3301 18.5012C42.3301 18.5012 42.0496 20.4683 37.9935 19.5498C34.3032 18.7166 35.5631 17.4282 35.5631 17.4282H35.5672Z" fill="#7BE708"/>
<path id="Vector_439" d="M62.6655 19.2981L62.3932 19.5948C61.5275 20.4076 59.4588 20.6637 57.9997 18.2251C57.2356 16.9571 57.0405 15.0956 58.3127 13.856C58.7516 13.4293 59.3368 13.3074 59.3368 13.3074C59.3368 13.3074 57.2478 13.4415 59.5035 16.9368C61.5559 20.115 62.6655 19.2981 62.6655 19.2981Z" fill="#7BE708"/>
<path id="Vector_440" d="M39.5684 20.5574C39.5765 20.6346 39.2554 20.7809 38.9953 20.8663C38.8612 20.911 38.7433 20.9394 38.6905 20.9313C38.4385 20.8988 37.9264 20.5208 38.28 20.2404C37.8289 20.5208 36.7559 20.4192 37.1827 19.7202C36.9225 20.0128 36.6137 20.2079 36.2641 19.9599C35.9878 19.7649 36.0284 19.2934 35.7805 19.1146C35.5326 18.9358 35.1302 19.1674 34.8335 19.0048C34.6222 18.887 34.3336 18.4928 34.4962 18.2286C33.8947 19.1918 32.4031 18.066 33.0005 17.0581C32.6469 17.7124 31.6837 17.2653 31.2773 16.9239C30.9969 16.6923 30.7327 16.3671 30.6758 15.9973C30.6595 15.8876 30.8546 14.965 30.9359 15.0219C30.1434 14.4935 29.8995 13.2295 30.562 12.4939C30.5132 12.2866 30.5295 12.0631 30.6026 11.8639C30.3913 11.7258 30.2287 11.5022 30.1921 11.2421C30.119 10.7138 30.4848 10.3683 30.9359 10.222C30.8384 9.95375 30.8343 9.64486 30.9765 9.38475C31.0863 9.17747 31.2692 9.03116 31.4724 8.94988C31.5455 8.78731 31.639 8.63693 31.7447 8.50281C31.6024 7.95413 31.9845 7.37701 32.4722 7.12096C32.7282 6.98684 33.029 6.92181 33.3175 6.94213C33.2769 6.43817 33.4801 5.92201 33.915 5.61312C34.3864 5.28392 34.9636 5.29611 35.431 5.53997C35.622 4.78808 36.3048 4.19876 37.1379 4.21908C37.3859 4.22721 37.6541 4.28817 37.8939 4.40197C38.1296 4.03619 38.5076 3.76795 38.9831 3.74356C39.0928 3.7395 39.1985 3.74356 39.2961 3.76388C39.5602 3.55254 39.9098 3.49158 40.239 3.53222C40.7307 3.58912 40.7348 3.70699 40.7551 4.15405C41.5111 3.66634 42.7425 2.78034 43.6164 3.62164C44.165 4.14999 43.5026 4.54016 43.1449 4.91813C43.9212 4.84091 44.7178 4.2963 45.5306 4.67428C46.2622 5.01161 45.6688 5.55622 45.1811 5.82853C45.7907 5.82853 46.3922 5.62938 47.01 5.74318C47.3555 5.80821 48.1602 6.12115 48.2374 6.53977C48.3228 6.99497 47.7375 7.16567 47.3433 7.12909C47.7822 7.3323 49.0299 7.66964 49.0462 8.30366C49.0543 8.77105 48.4528 8.88485 48.1074 8.93362C48.5504 9.05555 49.4973 9.49042 49.4486 10.0391C49.4039 10.5593 48.7292 10.7625 48.2781 10.7422C48.4731 11.1852 48.8145 11.4494 48.6723 11.9696C48.4691 12.7093 47.9529 12.6727 47.3148 12.7296C47.6928 13.5262 48.2537 14.1968 47.2051 14.843C47.6806 15.3104 47.9285 16.0095 47.514 16.6069C47.2376 16.9971 46.758 17.1841 46.315 17.1312C46.3638 17.6311 46.2825 18.131 45.8842 18.4806C45.5835 18.7447 45.1283 18.8667 44.7422 18.7691C44.734 18.7854 44.73 18.8016 44.7218 18.8179C44.7747 18.8951 44.8194 18.9845 44.8519 19.078C45.0185 19.5535 44.8478 20.0778 44.4048 20.3257C44.1203 20.4883 43.8521 20.4761 43.5391 20.4599C42.9051 20.4314 43.2831 20.3298 42.9498 20.7525C42.5759 21.2199 42.2467 21.3906 41.698 20.9272C41.7346 20.9598 41.2591 21.3906 41.2063 21.4231C40.9055 21.5938 40.7185 21.5816 40.3934 21.5084C39.8569 21.3865 39.6212 21.0939 39.5602 20.5533L39.5684 20.5574Z" fill="#391C00"/>
<path id="Vector_441" d="M57.15 6.21103C56.9915 5.72332 57.1093 5.134 57.4385 4.69913C58.5481 3.23193 59.5641 4.42682 60.2347 5.31689C60.4989 4.35773 60.4136 2.69951 61.4134 2.23619C62.3156 1.81757 63.3317 2.53288 63.2341 3.53268C63.7178 2.40689 66.6969 0.370694 65.6889 2.58165C66.7497 1.50056 69.1436 1.15103 68.2657 3.15471C69.0338 2.78893 69.5622 1.74441 70.5417 1.8135C71.9235 1.91105 71.4927 2.82144 71.0903 3.68713C71.9154 3.64242 73.1103 2.63855 73.7646 3.65055C74.4718 4.7479 72.9233 5.3047 72.4112 5.46727C73.0737 5.44695 74.6344 5.34941 74.988 6.0891C75.5448 7.25961 73.9881 8.04401 73.0656 7.77577C73.7768 7.98305 75.5691 8.99911 75.6017 9.94608C75.6382 11.019 74.3905 11.2101 73.5858 10.8971C73.8337 11.2263 75.0083 12.7992 74.8132 13.295C74.5612 13.9494 73.7646 13.547 73.3582 13.1731C74.1792 14.0266 75.5569 15.6482 74.7075 16.9569C74.2604 17.6438 73.3541 17.3837 72.7973 17.8551C73.3907 18.3184 73.537 19.111 72.8583 19.6109C72.2039 20.0905 71.4561 19.6556 70.7408 19.5499C70.7571 19.9035 70.5823 20.2896 70.2653 20.5416C69.9605 20.7814 69.6394 20.8261 69.3265 20.7529C68.9729 21.3626 68.3632 21.8259 67.6601 22.0129C67.0992 22.1592 66.4368 22.1063 65.9613 21.7568C65.2988 21.9478 64.5144 21.8503 64.0998 21.3423C63.982 21.3423 63.856 21.326 63.734 21.2894C63.1894 21.1431 62.8115 20.7367 62.6326 20.2571C62.3238 20.3303 61.9945 20.3343 61.71 20.2855C60.7387 20.1108 60.0884 19.2614 60.0518 18.3388C59.4422 18.5095 58.7716 18.3916 58.3042 17.8917C57.8775 17.4284 57.7718 16.7781 57.9344 16.1969C57.593 16.1481 57.2597 16.0059 56.9955 15.7824C56.4875 15.3637 56.1867 14.6037 56.4834 13.9941C56.3899 13.8071 56.3209 13.608 56.2761 13.4048C56.0607 13.2544 55.89 13.039 55.8088 12.7748C55.7071 12.4334 55.7844 12.0758 55.9673 11.7872C55.4796 11.5068 55.1382 11.019 55.3536 10.4216C55.4633 10.1208 55.7031 9.90544 55.9835 9.79164C55.9469 9.54372 55.9835 9.28767 56.0933 9.04788C55.5039 8.03588 56.0973 6.61339 57.1459 6.19071L57.1337 6.2029L57.15 6.21103Z" fill="#391C00"/>
<path id="Vector_442" d="M62.8017 39.7451C59.4283 42.1186 53.8684 44.6954 43.72 44.4028L39.1721 51.2185C39.1721 51.2185 47.325 53.4132 57.254 51.2429C64.972 49.5562 69.4427 46.1301 69.4427 46.1301L62.8382 40.0581L62.8017 39.7492V39.7451Z" fill="#0AC47D"/>
<path id="Vector_443" d="M76.8252 50.8327C76.7805 50.8815 76.7358 50.918 76.6871 50.9546L73.5901 47.7967C73.6267 47.7479 73.6673 47.6991 73.712 47.6585C73.712 47.6544 73.7323 47.6382 73.7323 47.6382L76.8415 50.8083L76.8212 50.8327H76.8252Z" fill="#DFFFBA"/>
<path id="Vector_444" d="M73.471 47.9673L76.507 51.0642C75.7755 51.4788 74.731 51.2715 73.9831 50.5115C73.2394 49.7515 73.0484 48.6907 73.467 47.9673H73.471Z" fill="#DFFFBA"/>
<path id="Vector_445" d="M73.4688 47.9671C73.5013 47.9061 73.5378 47.8533 73.5825 47.7964L76.6795 50.9543C76.6267 50.9909 76.5657 51.0315 76.5047 51.0681L73.4688 47.9711V47.9671Z" fill="#1B9DD9"/>
<path id="Vector_446" d="M74.3481 50.1578C74.4253 50.235 74.5432 50.239 74.6163 50.17C74.6895 50.1009 74.6895 49.9749 74.6123 49.9017C74.5351 49.8245 74.4172 49.8204 74.344 49.8895C74.2709 49.9586 74.2709 50.0846 74.3481 50.1578Z" fill="#028CAD"/>
<path id="Vector_447" d="M73.8293 49.9262C73.6139 49.597 73.4838 49.2109 73.3416 48.8492C72.8091 48.8086 72.7401 49.028 72.9311 49.5605C73.2074 50.3489 73.3416 50.2595 74.0244 50.1254L73.8293 49.9262Z" fill="#DFFFBA"/>
<path id="Vector_448" d="M73.5997 49.6172C73.6607 49.6822 73.7582 49.6863 73.811 49.6253C73.8679 49.5725 73.8639 49.4749 73.807 49.414C73.746 49.3489 73.6485 49.3449 73.5956 49.4058C73.5387 49.4587 73.5428 49.5562 73.5997 49.6172Z" fill="#028CAD"/>
<path id="Vector_449" d="M41.777 63.6799L45.4593 61.2373C45.4999 61.2861 45.5405 61.3308 45.573 61.3796C45.5812 61.3877 45.5893 61.408 45.5893 61.408L41.8908 63.8628L41.8705 63.8344C41.838 63.7815 41.8096 63.7328 41.7811 63.6759L41.777 63.6799Z" fill="#DFFFBA"/>
<path id="Vector_450" d="M42.717 61.1232C43.599 60.5338 44.6801 60.546 45.31 61.0906L41.6969 63.4885C41.4287 62.696 41.8351 61.7043 42.717 61.115V61.1232Z" fill="#DFFFBA"/>
<path id="Vector_451" d="M45.3099 61.0905C45.3627 61.1352 45.4074 61.188 45.4562 61.2368L41.774 63.6794C41.7374 63.6144 41.713 63.5494 41.6927 63.4843L45.3099 61.0864V61.0905Z" fill="#1B9DD9"/>
<path id="Vector_452" d="M42.9935 61.5415C42.9001 61.6025 42.8757 61.7163 42.9326 61.8016C42.9895 61.887 43.1114 61.9032 43.2008 61.8463C43.2943 61.7853 43.3187 61.6675 43.2618 61.5862C43.2049 61.5008 43.083 61.4846 42.9935 61.5415Z" fill="#028CAD"/>
<path id="Vector_453" d="M43.0901 61.2289L43.3218 61.0745C43.6835 60.9282 44.0858 60.8713 44.4679 60.7981C44.6142 60.2779 44.411 60.1722 43.846 60.2617C43.021 60.3877 43.0779 60.5299 43.082 61.2289H43.086H43.0901Z" fill="#DFFFBA"/>
<path id="Vector_454" d="M43.6695 60.9038C43.5964 60.9485 43.5801 61.042 43.6248 61.107C43.6695 61.168 43.763 61.1883 43.8321 61.1436C43.9053 61.0989 43.9215 61.0054 43.8768 60.9404C43.8321 60.8794 43.7386 60.8591 43.6695 60.9038Z" fill="#028CAD"/>
<path id="Vector_455" d="M48.8013 36.2174L50.5448 35.8882C51.1382 39.0746 51.6625 40.3954 52.1502 41.4156L50.4961 42.0659C49.9352 40.8669 49.4028 39.416 48.8053 36.2174H48.8013Z" fill="#0C97E8"/>
<path id="Vector_456" d="M50.1106 38.0461C50.3382 37.9851 50.4642 37.7453 50.4032 37.5218C50.3423 37.2942 50.1025 37.1682 49.8789 37.2292C49.6513 37.2901 49.5213 37.5299 49.5863 37.7535C49.6473 37.9811 49.8871 38.107 50.1106 38.0461Z" fill="#FFB300"/>
<path id="Vector_457" d="M50.5905 39.831C50.8181 39.77 50.9481 39.5302 50.8831 39.3067C50.8221 39.0791 50.5823 38.9531 50.3588 39.0141C50.1312 39.075 50.0011 39.3148 50.0662 39.5384C50.1271 39.766 50.3669 39.892 50.5905 39.831Z" fill="#FFB300"/>
<path id="Vector_458" d="M47.0627 39.1475L38.3977 35.0507L38.3652 34.2501C38.3652 34.2501 46.0711 39.4279 57.3534 32.8276C61.0681 30.6532 62.198 28.873 62.198 28.873L62.5638 29.442L53.3461 38.5622L49.8671 36.2903L47.0709 39.1394L47.0627 39.1475Z" fill="#F2F2F2"/>
<path id="Vector_459" d="M70.5016 20.5171C70.4447 20.635 70.4041 20.7569 70.3919 20.891C70.3472 21.399 70.1562 22.0046 69.5709 22.1306C68.7906 22.3054 68.6199 22.3094 67.8924 22.0046C67.5266 21.8542 67.043 21.6957 66.6894 21.5413C66.4292 21.4315 66.3195 21.2365 66.3845 20.9723C66.4902 20.5577 66.7788 20.7975 67.0836 20.8138C66.791 20.7406 66.3317 20.6756 66.2342 20.3667C66.1 19.9318 66.6203 19.7489 66.9413 20.0212C66.4049 19.814 65.8846 19.2897 66.4821 19.0011C66.6528 18.9158 66.9739 18.9727 67.1364 19.0499C66.6609 18.9767 66.3967 18.802 66.3927 18.4687C66.3927 18.0541 66.8723 18.0379 67.1811 18.0623C67.7014 18.111 68.1972 18.2045 68.7337 18.2167C69.5059 18.233 69.1604 17.8591 69.2092 17.4486C69.2661 16.9609 69.1035 16.526 69.514 16.2008C69.9448 15.8554 70.1602 16.2618 70.1846 16.652C70.2131 17.1397 70.3187 17.7412 70.526 18.1883C70.7374 18.6353 70.9609 18.9808 70.9446 19.497C70.9284 19.8831 70.6561 20.1838 70.4976 20.5252V20.5171H70.5016Z" fill="#AF714A"/>
<path id="Vector_460" d="M28.8252 28.2228C28.8861 28.3325 28.9471 28.4504 28.9674 28.5845C29.0568 29.0803 29.3129 29.6656 29.9022 29.7347C30.6947 29.8322 30.8614 29.8241 31.5604 29.4502C31.9099 29.2592 32.3773 29.06 32.7106 28.8731C32.9544 28.7349 33.0479 28.5317 32.9585 28.2756C32.8163 27.8773 32.5521 28.1415 32.2513 28.1862C32.5358 28.0805 32.987 27.9789 33.052 27.6578C33.1455 27.2108 32.609 27.0807 32.3164 27.3774C32.8285 27.1173 33.2958 26.5442 32.674 26.3126C32.4952 26.2476 32.1863 26.337 32.0278 26.4264C32.4911 26.3126 32.739 26.1134 32.7106 25.7802C32.6781 25.3656 32.1904 25.3981 31.8896 25.451C31.3775 25.5444 30.8898 25.6867 30.3574 25.7517C29.5852 25.8371 29.8981 25.4347 29.8046 25.0283C29.6949 24.5446 29.8209 24.0935 29.3779 23.8131C28.9146 23.5082 28.7398 23.9391 28.752 24.3292C28.7723 24.8169 28.7195 25.4266 28.561 25.8899C28.4025 26.3532 28.2074 26.7271 28.2724 27.2352C28.3253 27.6213 28.626 27.8895 28.817 28.2147H28.8211L28.8252 28.2228Z" fill="#AF714A"/>
<path id="Vector_461" d="M80.8066 54.8072C82.4201 54.6365 84.4035 55.0917 86.0211 55.2381C88.9351 55.5063 92.1215 55.9452 94.9705 55.0592C96.6856 54.5227 95.7753 54.726 97.4782 54.1651C98.0147 53.9903 100.429 53.8847 100.713 53.336C101.197 52.4012 102.416 52.1492 103.197 51.5396C104.928 50.1984 107.045 44.6466 104.217 43.3298C104.591 43.5045 104.908 44.0166 105.265 44.0817C106.017 44.2199 106.818 43.4151 107.269 42.9193C108.61 41.4358 109.598 39.2615 109.199 37.144C108.22 37.4122 106.875 37.2619 106.054 36.6603C107.541 36.384 108.618 35.3557 108.769 33.7341C108.602 35.5142 103.77 32.8521 103.144 32.3563C99.3681 29.3691 94.9177 26.6745 90.004 26.1461C85.2773 25.6381 80.1198 27.2597 76.6001 30.7021C72.9626 34.2624 70.9711 41.4765 73.3203 46.2317C74.8484 49.3205 77.4496 50.7023 79.7174 52.9865C79.7946 53.0637 81.0993 54.7747 80.8107 54.8072H80.8066Z" fill="#211813"/>
<path id="Vector_462" d="M71.7469 21.9523C71.9745 21.9076 72.2834 21.7938 72.32 21.6271C72.3443 21.5296 72.2549 21.4686 72.1655 21.4239C71.8892 21.2857 71.5843 21.176 71.2551 21.0947C71.2998 21.1069 69.4547 22.3181 69.2799 22.4197C69.983 22.4319 70.9828 22.1067 71.7469 21.9482V21.9523Z" fill="#FCDFC2"/>
<path id="Vector_463" d="M68.2362 20.6394C68.8824 20.0054 69.5408 19.3592 70.1383 18.7008C70.3252 18.4975 70.5162 18.2943 70.6991 18.0952C70.8292 17.9529 71.0283 17.6075 71.2194 17.5059C71.4754 17.3677 71.5608 17.4815 71.5811 17.6359C71.6095 17.8554 71.3657 18.1155 71.2112 18.335C71.1584 18.4122 70.817 18.782 70.9349 18.8349C71.1096 18.904 71.3941 18.5626 71.6095 18.3187C71.6705 18.2496 71.9469 17.8798 71.9672 17.8066C72.0119 17.6725 72.1176 17.5465 72.2232 17.4246C72.2842 17.3514 72.3777 17.2661 72.4833 17.2783C72.5524 17.2864 72.5931 17.327 72.6175 17.3758C72.6703 17.4815 72.6744 17.5953 72.6662 17.7131C72.6337 18.2578 72.0403 18.6845 71.7071 19.1763C71.6949 19.1885 71.6827 19.2129 71.6949 19.2251C71.7721 19.3226 72.3045 18.7902 72.3573 18.7455C72.4305 18.6845 72.4996 18.6195 72.5362 18.5463C72.5728 18.4732 72.7516 18.2496 72.7638 18.1724C72.7922 18.0098 73.0036 17.8066 73.1052 17.6481C73.1377 17.5912 73.2068 17.5303 73.2799 17.5384C73.3165 17.5384 73.345 17.5546 73.3653 17.575C73.5035 17.6928 73.4222 17.9855 73.4222 18.1562C73.4222 18.6073 73.2271 18.7699 72.967 19.1356C72.7882 19.3876 72.3614 19.7371 72.2964 19.9891C72.8694 19.7412 73.3246 19.2129 73.5522 18.782C73.5969 18.6967 73.666 18.591 73.7839 18.5829C74.4017 18.5138 73.8205 19.5786 73.662 19.7168C73.158 20.1517 72.6581 20.6069 72.0972 21.0093C71.4876 21.4482 70.8576 21.7246 70.187 22.066C69.6506 22.3383 69.0043 22.6106 68.4069 22.4765C67.9192 22.3708 67.5006 21.7977 67.655 21.4035C67.7485 21.1678 67.9964 20.8955 68.2525 20.6435H68.2403L68.2362 20.6394Z" fill="#FCDFC2"/>
<path id="Vector_464" d="M73.6499 39.8469C79.9454 32.454 86.245 33.2628 91.9512 37.6685C99.1043 43.1959 95.5603 51.6739 95.5603 51.6739C95.7716 50.8367 97.0722 50.7188 98.202 45.9961C98.9214 42.9845 98.1289 40.0623 96.3853 37.5791C95.2595 35.994 93.7313 34.7625 92.1016 33.7709C88.5941 31.6209 84.4405 30.7592 80.4575 31.7631C76.2835 32.832 72.6338 36.5589 72.7436 41.5864C72.7558 42.0619 73.2679 40.9361 73.0524 41.3385C73.0524 41.3385 73.658 39.8632 73.6499 39.851V39.8469Z" fill="#CF4432"/>
<path id="Vector_465" d="M81.6408 51.3405C77.2757 49.9505 72.9229 46.1911 72.6059 45.0002C72.3214 43.9273 72.9189 42.1105 73.3416 41.127C75.0038 37.2903 81.3197 35.563 86.2659 36.8148C92.1265 38.3227 97.5889 42.9275 96.5972 49.2433C96.5362 49.601 96.4753 49.9099 96.3859 50.2716C96.1786 53.1978 87.7575 53.2994 81.6367 51.3405H81.6408Z" fill="#FCDFC2"/>
<path id="Vector_466" d="M73.898 37.1931C72.9876 38.6359 72.0487 42.1149 72.1016 43.8219C72.1097 44.1105 72.0568 44.9802 72.2438 45.2241C72.4308 45.4679 72.9022 42.9197 73.0445 42.4198C73.3533 41.2899 75.292 35.1082 82.4044 35.5471C96.0928 36.3843 97.052 44.968 96.7147 47.9878C96.4586 50.2475 95.597 51.9464 95.3491 52.1171C94.8288 52.4788 94.9873 53.1656 95.2922 52.7958C96.2107 51.6822 96.8975 50.2353 97.3731 48.4349C98.4379 44.4234 97.9299 41.1558 95.849 38.2986C90.8662 31.4625 78.4174 30.036 73.902 37.1891L73.898 37.1931Z" fill="#211813"/>
<path id="Vector_467" d="M72.2302 46.2317L72.4863 44.793L78.3022 49.1255C83.4151 51.1454 86.1584 52.0842 91.7183 51.9298C93.783 51.877 96.7295 51.0519 96.7295 51.0519C96.7295 51.0519 93.8358 59.4365 94.6202 64.1713C94.8681 65.6792 95.7216 69.3695 95.7216 69.3695C95.7216 69.3695 78.1153 74.7709 74.7216 65.8621C71.3239 56.9532 72.2302 46.2317 72.2302 46.2317Z" fill="#4AD5C2"/>
<path id="Vector_468" d="M80.3784 57.2504L82.1382 57.3033C82.1057 56.1287 82.1667 54.6493 82.9064 51.3451L81.1994 50.9468C80.4556 54.2591 80.354 55.8686 80.3784 57.2464V57.2504Z" fill="#C9FFD6"/>
<path id="Vector_469" d="M81.2987 52.7386C81.3312 52.4948 81.5466 52.32 81.7783 52.3525C82.0099 52.385 82.1725 52.6045 82.14 52.8524C82.1075 53.1003 81.8921 53.2711 81.6604 53.2385C81.4288 53.206 81.2662 52.9866 81.2987 52.7386Z" fill="#5932CF"/>
<path id="Vector_470" d="M81.0051 54.6532C81.0376 54.4093 81.253 54.2346 81.4847 54.2671C81.7204 54.2996 81.8789 54.5191 81.8464 54.767C81.8139 55.0149 81.5985 55.1856 81.3668 55.1531C81.1352 55.1206 80.9726 54.9011 81.0051 54.6532Z" fill="#5932CF"/>
<path id="Vector_471" d="M80.3032 45.647C80.6364 45.9071 81.4249 46.3948 82.3231 46.6468C83.4936 46.976 84.3024 46.85 84.5503 46.6996C84.6641 46.6265 84.7291 46.4395 84.7576 46.2647C84.782 46.2891 84.8104 46.3135 84.8389 46.346C85.4444 47.0126 84.6031 47.8457 83.9529 48.1221C83.3026 48.3944 81.5631 48.2644 80.5795 47.61C79.726 47.0369 79.6935 46.025 80.3032 45.6551V45.647Z" fill="#BD2A1D"/>
<path id="Vector_472" d="M84.554 46.6951C84.3101 46.8496 83.4973 46.9715 82.3268 46.6423C81.4245 46.3903 80.6401 45.9026 80.3068 45.6425C80.4003 45.5856 80.5019 45.545 80.6279 45.5206C81.2741 45.4027 82.2861 46.0286 83.0543 46.1261C83.7818 46.2196 84.2451 45.7726 84.7653 46.2562C84.7287 46.431 84.6759 46.6179 84.558 46.6911L84.554 46.6951Z" fill="#F6F6F7"/>
<path id="Vector_473" d="M73.296 36.9612C73.6862 35.9614 74.3933 34.6202 75.3728 33.7261C76.3117 32.8685 78.0715 31.5598 79.433 31.4745C81.0546 31.3729 82.2414 31.3241 83.8752 31.5111C85.7123 31.7224 87.7403 32.1979 89.4351 32.9295C91.4591 33.8074 93.6904 36.9734 95.0682 38.5747C97.0556 40.8832 97.3685 44.5533 96.2224 46.9878C95.5396 46.939 92.8654 45.7035 92.7759 45.5775C92.6296 45.3621 92.8816 44.3744 92.8572 44.2606C92.7231 44.476 92.4264 45.0288 92.2842 45.3011C91.6827 45.0857 90.0813 44.4517 89.4473 44.2728C88.6345 44.0452 88.4435 43.6754 88.4963 42.9479C88.159 44.9922 84.0256 41.692 83.924 40.7735C84.0053 41.5091 84.1272 42.2895 84.1028 43.0088C81.5749 42.4195 79.0469 40.8589 77.8805 38.6601C78.2869 39.668 78.5429 40.6678 79.1444 41.6026C77.0107 40.55 75.0314 40.9158 74.4909 38.8267C74.2755 40.8426 73.0481 39.9038 72.8571 41.9481C72.9587 40.1476 72.7148 38.4203 73.2919 36.949L73.296 36.9612Z" fill="#211813"/>
<path id="Vector_474" d="M73.0099 48.6944C72.3596 49.0601 72.0751 48.6049 71.8678 48.4911C66.5518 45.4958 63.0687 41.4925 62.2477 36.8227C60.8009 28.621 67.0517 21.1997 67.3199 20.8867L69.6813 23.0286C69.6244 23.0936 64.1783 29.5964 65.3569 36.2252C66.0356 40.0334 68.8074 43.2564 73.5951 45.8087C73.5951 45.8087 73.6642 48.3286 73.0139 48.6944H73.0099Z" fill="#4AD5C2"/>
<path id="Vector_475" d="M79.1174 53.2304L82.1006 51.2227L83.8035 54.5148L96.6059 51.9096L96.7725 50.8935C96.7725 50.8935 95.3582 51.1211 92.6067 51.3324C80.0604 52.2103 71.9766 43.8176 71.9766 43.8176L71.7286 44.663L79.1053 53.2264H79.1093L79.1174 53.2304Z" fill="#F2F2F2"/>
<path id="Vector_476" d="M95.6102 53.9823C94.8624 54.7748 94.5413 55.4576 93.1432 55.2747C92.6637 55.2138 92.1231 54.9821 91.7451 54.6773C91.4891 54.47 91.2005 54.2912 90.8835 54.1692C90.4121 53.9823 89.9244 53.9823 89.4245 53.9904C89.1928 53.9904 87.6402 53.714 87.5102 53.8157C88.4572 53.6287 89.2294 53.458 89.6642 53.3645C89.9853 53.2954 90.8022 53.0678 91.1314 52.9987C96.0654 51.9827 93.2814 52.4175 94.2853 52.9825C94.6592 53.1938 95.5411 53.1694 95.6062 53.9864L95.6102 53.9823Z" fill="#42BFAE"/>
<path id="Vector_477" d="M105.119 30.1457C105.335 30.2188 105.639 30.2554 105.737 30.0644C105.79 29.9547 105.733 29.8205 105.676 29.7108C105.485 29.3735 105.262 29.0565 105.001 28.7598C105.038 28.8045 103.002 29.2922 102.807 29.3206C103.412 29.7474 104.388 29.9099 105.115 30.1497V30.1416L105.119 30.1457Z" fill="#FCDFC2"/>
<path id="Vector_478" d="M102.555 26.4184C103.343 25.9754 104.148 25.5243 104.908 25.0284C105.144 24.874 105.38 24.7317 105.615 24.5773C105.782 24.4676 106.079 24.1465 106.274 24.1221C106.542 24.0937 106.583 24.2928 106.546 24.5001C106.493 24.8049 106.188 24.9919 105.973 25.191C105.9 25.2601 105.469 25.5405 105.55 25.6706C105.676 25.8657 106.046 25.5812 106.318 25.3983C106.392 25.3454 106.77 25.0203 106.81 24.9512C106.9 24.809 107.038 24.7074 107.168 24.6139C107.245 24.557 107.355 24.5001 107.444 24.5732C107.505 24.6139 107.521 24.7074 107.53 24.7765C107.542 24.939 107.501 25.0853 107.448 25.2357C107.221 25.9185 106.558 26.1136 106.091 26.5647C106.079 26.585 106.058 26.5972 106.058 26.6176C106.083 26.7923 106.745 26.4103 106.802 26.3859C106.883 26.3493 106.965 26.3046 107.03 26.2355C107.087 26.1624 107.322 25.9754 107.363 25.8901C107.448 25.6909 107.7 25.5568 107.843 25.4145C107.895 25.3658 107.973 25.317 108.038 25.3698C108.066 25.3902 108.086 25.4308 108.099 25.4674C108.176 25.7031 107.997 26.0323 107.932 26.2477C107.765 26.833 107.542 26.9224 107.18 27.2394C106.932 27.4589 106.44 27.658 106.29 27.9425C106.875 27.9588 107.465 27.5401 107.814 27.1134C107.883 27.0321 107.981 26.9305 108.09 26.9874C108.651 27.2557 107.761 28.292 107.57 28.3733C106.977 28.6456 106.379 28.9301 105.741 29.1252C105.059 29.3365 104.408 29.3203 103.705 29.3772C103.14 29.4178 102.486 29.3894 102.014 28.8732C101.632 28.4505 101.474 27.4711 101.746 27.0565C101.917 26.8045 102.222 26.6054 102.543 26.4265H102.547L102.555 26.4184Z" fill="#FCDFC2"/>
<path id="Vector_479" d="M94.4823 54.1451C93.4866 53.8687 93.1289 53.637 92.9338 53.32C89.6784 47.943 88.7639 42.8911 90.2067 38.2945C92.7144 30.3123 101.42 26.8495 101.79 26.7073L102.883 29.7555C102.806 29.7839 95.2261 32.828 93.2062 39.2943C91.9991 43.1594 92.9908 47.5854 96.1609 52.4462C96.1609 52.4462 95.8357 54.523 94.4823 54.1491V54.1451Z" fill="#4AD5C2"/>
<path id="Vector_480" d="M87.5038 45.8134C87.5648 45.5289 88.0606 45.0615 88.6702 45.155C89.2839 45.2525 89.6538 45.6549 89.6538 45.6549C89.6538 45.6549 90.109 46.1467 89.6009 45.8703C89.0929 45.5939 88.6093 45.4517 88.0281 45.7118C87.7558 45.8337 87.4428 46.0938 87.5038 45.8134Z" fill="#56182F"/>
<path id="Vector_481" d="M76.0769 42.2856C76.2638 42.0702 76.9101 41.9198 77.3937 42.3222C77.8773 42.7245 78.0033 43.2732 78.0033 43.2732C78.0033 43.2732 78.1618 43.9398 77.857 43.4317C77.5481 42.9237 77.1986 42.5457 76.5768 42.4726C76.2842 42.436 75.894 42.501 76.0769 42.2856Z" fill="#56182F"/>
<path id="Vector_482" d="M93.8936 63.562C90.3211 65.4681 85.3668 67.2523 75.6492 65.5982L73.5602 68.0205L78.3641 71.8165L94.6008 70.6135L95.5193 67.8213L94.8772 64.3505L94.5073 63.2043L93.8936 63.562Z" fill="#E79AED"/>
<path id="Vector_483" d="M104.714 61.9201L106.047 62.2859C103.588 73.678 90.168 68.7074 90.168 68.7074L94.7931 64.0945C100.06 70.6095 104.714 61.916 104.714 61.916V61.9201Z" fill="#E79AED"/>
<path id="Vector_484" d="M108.996 62.7164C108.98 62.7814 108.964 62.8342 108.944 62.8911L104.774 61.871C104.778 61.81 104.79 61.7491 104.802 61.6881C104.802 61.68 104.81 61.6597 104.81 61.6597L108.996 62.6879L108.992 62.7204L108.996 62.7164Z" fill="#F2F2F2"/>
<path id="Vector_485" d="M104.765 62.0825L108.854 63.0864C108.463 63.8261 107.492 64.2122 106.488 63.9643C105.484 63.7164 104.789 62.9198 104.765 62.0825Z" fill="#4AD5C2"/>
<path id="Vector_486" d="M104.76 62.0823C104.76 62.0132 104.76 61.9482 104.768 61.875L108.938 62.8951C108.913 62.9561 108.881 63.0211 108.852 63.0821L104.764 62.0782L104.76 62.0823Z" fill="#5932CF"/>
<path id="Vector_487" d="M106.607 63.4682C106.708 63.4926 106.81 63.4316 106.834 63.334C106.859 63.2365 106.794 63.1308 106.692 63.1065C106.591 63.0821 106.489 63.143 106.465 63.2406C106.44 63.3381 106.505 63.4438 106.607 63.4682Z" fill="#5932CF"/>
<path id="Vector_488" d="M106.061 63.5494C105.715 63.3868 105.411 63.1267 105.11 62.895C104.646 63.147 104.703 63.3665 105.134 63.716C105.764 64.2362 105.829 64.0899 106.325 63.6103L106.061 63.5453V63.5494Z" fill="#4AD5C2"/>
<path id="Vector_489" d="M105.883 63.4806C105.984 63.505 106.086 63.444 106.11 63.3465C106.135 63.249 106.07 63.1433 105.968 63.1189C105.866 63.0945 105.765 63.1555 105.74 63.253C105.716 63.3506 105.781 63.4562 105.883 63.4806Z" fill="#5932CF"/>
</g>
<path id="Vector_490" d="M105.212 67.8013L107.447 68.5938L134.275 78.0269L108.016 97.2834L73.5064 122.6L0.179199 30.845L105.208 67.8013H105.212Z" fill="#906DFD"/>
<path id="Vector_491" d="M134.322 77.9812L143.885 127.496L108.063 97.2376L134.322 77.9812Z" fill="#6A2AAB"/>
</g>
</svg>
