<svg width="154" height="154" viewBox="0 0 154 154" fill="none" xmlns="http://www.w3.org/2000/svg">
<circle cx="77" cy="77" r="77" fill="#B1A4A4"/>
<circle cx="77" cy="77" r="77" fill="#0337C0"/>
<path d="M58.5079 114.132C58.5079 114.132 60.0796 102.956 57.6347 94.2238C55.3645 86.1905 52.221 78.3319 52.3956 69.7747C52.7449 52.4858 70.9071 39.7373 87.6722 42.8808C92.9113 43.9286 97.6265 46.8974 100.595 51.2633C103.913 56.5024 103.913 62.7893 103.739 68.7269C103.739 69.9494 105.834 80.0783 106.708 83.9203C106.882 84.7934 106.533 85.3174 106.009 85.492C105.485 85.6666 104.961 85.6666 104.787 85.8413C101.818 86.5398 101.992 86.5398 101.992 86.5398L102.167 93.176C102.167 93.176 102.516 98.5897 97.2772 99.1136C91.1649 99.6375 89.0693 100.161 89.0693 100.161L88.8946 109.417L58.5079 114.132Z" fill="#F3C05D"/>
<path d="M57.6359 94.0491C55.3656 86.0158 52.2222 78.1572 52.3968 69.6C52.7461 52.3111 70.9082 39.5626 87.6733 42.7061C89.2451 43.0553 90.6422 43.4046 92.0392 44.1032C89.4197 42.0075 86.2762 40.4358 82.9582 39.9119C66.0184 36.7685 48.0309 49.3422 47.507 66.8059C47.3323 75.363 50.4758 83.2216 52.7461 91.2549C55.191 99.9867 53.6192 111.163 53.6192 111.163L58.3344 114.307L58.5091 113.958C58.6837 112.735 59.9062 102.257 57.6359 94.0491Z" fill="#916738"/>
<path d="M61.1279 66.8058C61.7066 66.8058 62.1757 66.3367 62.1757 65.758C62.1757 65.1793 61.7066 64.7102 61.1279 64.7102C60.5492 64.7102 60.0801 65.1793 60.0801 65.758C60.0801 66.3367 60.5492 66.8058 61.1279 66.8058Z" fill="#C15850"/>
<path d="M63.0498 62.4399C63.6285 62.4399 64.0976 61.9708 64.0976 61.3921C64.0976 60.8134 63.6285 60.3443 63.0498 60.3443C62.4711 60.3443 62.002 60.8134 62.002 61.3921C62.002 61.9708 62.4711 62.4399 63.0498 62.4399Z" fill="#C15850"/>
<path d="M65.6689 58.5979C66.2476 58.5979 66.7167 58.1288 66.7167 57.5501C66.7167 56.9714 66.2476 56.5023 65.6689 56.5023C65.0902 56.5023 64.6211 56.9714 64.6211 57.5501C64.6211 58.1288 65.0902 58.5979 65.6689 58.5979Z" fill="#C15850"/>
<path d="M68.8134 55.2798C69.3921 55.2798 69.8613 54.8107 69.8613 54.232C69.8613 53.6533 69.3921 53.1842 68.8134 53.1842C68.2347 53.1842 67.7656 53.6533 67.7656 54.232C67.7656 54.8107 68.2347 55.2798 68.8134 55.2798Z" fill="#C15850"/>
<path d="M72.6533 53.0097C73.232 53.0097 73.7011 52.5406 73.7011 51.9619C73.7011 51.3832 73.232 50.9141 72.6533 50.9141C72.0746 50.9141 71.6055 51.3832 71.6055 51.9619C71.6055 52.5406 72.0746 53.0097 72.6533 53.0097Z" fill="#C15850"/>
<path d="M76.6709 51.4379C77.2496 51.4379 77.7187 50.9688 77.7187 50.3901C77.7187 49.8114 77.2496 49.3423 76.6709 49.3423C76.0922 49.3423 75.623 49.8114 75.623 50.3901C75.623 50.9688 76.0922 51.4379 76.6709 51.4379Z" fill="#C15850"/>
<path d="M95.706 74.8391C96.2847 74.8391 96.7538 74.37 96.7538 73.7913C96.7538 73.2126 96.2847 72.7435 95.706 72.7435C95.1273 72.7435 94.6582 73.2126 94.6582 73.7913C94.6582 74.37 95.1273 74.8391 95.706 74.8391Z" fill="#5B6D76"/>
<path d="M94.3095 79.205C94.8882 79.205 95.3574 78.7359 95.3574 78.1572C95.3574 77.5785 94.8882 77.1094 94.3095 77.1094C93.7308 77.1094 93.2617 77.5785 93.2617 78.1572C93.2617 78.7359 93.7308 79.205 94.3095 79.205Z" fill="#5B6D76"/>
<path d="M91.6904 82.8724C92.2691 82.8724 92.7382 82.4032 92.7382 81.8245C92.7382 81.2459 92.2691 80.7767 91.6904 80.7767C91.1117 80.7767 90.6426 81.2459 90.6426 81.8245C90.6426 82.4032 91.1117 82.8724 91.6904 82.8724Z" fill="#5B6D76"/>
<path d="M88.372 86.3651C88.9507 86.3651 89.4198 85.896 89.4198 85.3173C89.4198 84.7386 88.9507 84.2695 88.372 84.2695C87.7933 84.2695 87.3242 84.7386 87.3242 85.3173C87.3242 85.896 87.7933 86.3651 88.372 86.3651Z" fill="#5B6D76"/>
<path d="M84.7041 88.6354C85.2828 88.6354 85.7519 88.1662 85.7519 87.5876C85.7519 87.0089 85.2828 86.5397 84.7041 86.5397C84.1254 86.5397 83.6562 87.0089 83.6562 87.5876C83.6562 88.1662 84.1254 88.6354 84.7041 88.6354Z" fill="#5B6D76"/>
<path d="M80.3388 90.2071C80.9175 90.2071 81.3867 89.738 81.3867 89.1593C81.3867 88.5806 80.9175 88.1115 80.3388 88.1115C79.7601 88.1115 79.291 88.5806 79.291 89.1593C79.291 89.738 79.7601 90.2071 80.3388 90.2071Z" fill="#5B6D76"/>
<path d="M94.3105 65.7581L98.8511 64.8849L96.9301 69.2508L94.3105 65.7581Z" fill="#D1D4D5"/>
<path d="M62.7007 73.966L58.1602 74.1406L60.7797 70.124L62.7007 73.966Z" fill="#3795BD"/>
<path d="M95.8818 66.9805C95.3579 61.7414 93.9608 57.8995 91.5159 55.1053C88.8964 52.1365 84.0065 49.5169 79.9899 50.3901L79.6406 48.6437C84.3558 47.7706 89.7695 50.5647 92.913 53.8828C95.5325 56.8516 97.1043 61.0429 97.6282 66.8059L95.8818 66.9805Z" fill="#D1D4D5"/>
<path d="M78.7656 47.7705V52.311L82.0837 49.5169L78.7656 47.7705Z" fill="#C15850"/>
<path d="M75.6232 91.0803C71.4319 91.0803 66.8914 88.4607 64.2718 85.4919C61.6523 82.5231 60.0805 78.3319 59.5566 72.5689L61.303 72.3942C61.8269 77.6333 63.224 81.6499 65.4943 84.2695C68.1138 87.2383 73.0036 89.8578 77.0203 89.1593L77.3695 90.9057C76.8456 91.0803 76.3217 91.0803 75.6232 91.0803Z" fill="#3795BD"/>
<path d="M78.5923 91.7788L78.2431 87.0637L75.0996 90.0325L78.5923 91.7788Z" fill="#5B6D76"/>
<path d="M80.6879 57.0262L73.0039 72.2196L77.5444 71.6957L75.0995 83.2217L84.006 66.6312L78.9415 67.5044L80.6879 57.0262Z" fill="#F56964"/>
</svg>
