<svg width="154" height="154" viewBox="0 0 154 154" fill="none" xmlns="http://www.w3.org/2000/svg">
<circle cx="77" cy="77" r="77" fill="#0168D6"/>
<g clip-path="url(#clip0_676_7758)">
<path d="M78.1352 111.208L76.6747 108.076L68.4746 105.641L69.7891 108.772C70.031 109.466 70.4175 110.103 70.924 110.642C71.4306 111.181 72.046 111.611 72.7311 111.904L80.9312 114.34C80.2732 114.031 79.686 113.594 79.2054 113.056C78.7247 112.517 78.3607 111.889 78.1352 111.208Z" fill="#691919"/>
<path d="M109.433 54.5693C109.772 54.6079 110.108 54.6764 110.435 54.774L102.172 52.3381C101.381 52.107 100.554 52.0169 99.7307 52.072L48.4647 56.4934C47.3556 56.6104 46.2868 56.9669 45.3349 57.5373C43.9497 58.3896 42.8076 59.5728 42.0157 60.9762C41.2238 62.3796 40.808 63.9572 40.8071 65.5613L40.5776 99.6222C40.4883 101.248 40.9352 102.858 41.8523 104.215C42.7693 105.572 44.1076 106.603 45.6687 107.155L53.8479 109.57C50.8851 108.69 49.9253 106.848 49.967 103.245C49.967 97.6981 49.7166 91.2298 49.7583 85.7031C49.7583 79.5623 49.4036 73.0121 49.7583 67.9357C50.2174 62.4909 53.4932 61.2218 54.6408 60.0755C55.1156 59.476 55.8135 59.0858 56.5813 58.9906L107.91 54.5283C108.418 54.4863 108.928 54.5 109.433 54.5693Z" fill="#C40707"/>
<path d="M107.91 54.5288C108.942 54.4928 109.971 54.6727 110.927 55.0565C111.883 55.4404 112.745 56.0193 113.455 56.755C114.166 57.4907 114.708 58.3662 115.047 59.3235C115.386 60.2808 115.514 61.2978 115.422 62.3072L115.192 96.3681C115.251 98.5298 114.511 100.639 113.107 102.307C111.703 103.974 109.731 105.085 107.555 105.436L87.3995 107.176L85.8972 110.553C84.7913 113.03 83.3725 114.34 81.9536 114.463C80.5348 114.586 79.116 113.48 78.1353 111.208L76.6747 108.077L56.3937 109.816C55.3596 109.855 54.3289 109.678 53.3704 109.295C52.4118 108.913 51.5473 108.334 50.8346 107.598C50.1218 106.862 49.5772 105.986 49.2369 105.027C48.8967 104.068 48.7686 103.049 48.8613 102.038L48.9239 67.9976C48.8674 65.8239 49.6199 63.7043 51.0408 62.0354C52.4617 60.3665 54.4536 59.2624 56.644 58.9297L107.91 54.5288Z" fill="#E64343"/>
<path d="M92.5529 94.1989L89.7778 94.0351C89.6754 94.0631 89.5672 94.0631 89.4648 94.0351L92.2399 94.1989C92.3423 94.2268 92.4505 94.2268 92.5529 94.1989Z" fill="#835502"/>
<path d="M92.2421 94.1166L89.467 93.9528L82.1016 90.4321L84.8766 90.5959L92.2421 94.1166Z" fill="#B05F02"/>
<path d="M84.8771 90.5962L82.102 90.4325C81.9986 90.4141 81.8925 90.4141 81.7891 90.4325L84.5641 90.5962C84.6676 90.5778 84.7736 90.5778 84.8771 90.5962Z" fill="#835502"/>
<path d="M83.1858 66.1759L80.4108 66.0122H80.1604H79.9934H79.8891C79.8155 66.0777 79.7522 66.1536 79.7013 66.2373C79.6901 66.2914 79.6901 66.3471 79.7013 66.4011L76.5507 74.5888C76.4923 74.7315 76.3992 74.858 76.2794 74.9573C76.1665 75.0566 76.0303 75.1269 75.883 75.162L67.9751 77.0247C67.8533 77.0658 67.7402 77.1282 67.6412 77.2089L67.5369 77.3317C67.5283 77.4202 67.5283 77.5093 67.5369 77.5978C67.5059 77.7533 67.5059 77.9131 67.5369 78.0686C67.527 78.102 67.527 78.1375 67.5369 78.1709C67.5788 78.334 67.6654 78.4826 67.7873 78.6008L73.9008 84.2503C74.0176 84.3641 74.1065 84.5025 74.1607 84.655C74.2149 84.8075 74.2331 84.9701 74.2138 85.1305L73.2957 93.8095C73.2782 93.9387 73.2871 94.07 73.3218 94.1958C73.3565 94.3216 73.4164 94.4393 73.4979 94.5422C73.5795 94.6451 73.6811 94.731 73.7968 94.795C73.9126 94.8589 74.0401 94.8997 74.172 94.9148L76.9471 95.0786C76.8152 95.0634 76.6876 95.0227 76.5719 94.9587C76.4562 94.8947 76.3546 94.8088 76.273 94.7059C76.1915 94.6031 76.1316 94.4853 76.0969 94.3595C76.0621 94.2337 76.0533 94.1024 76.0708 93.9733L76.9889 85.2943C77.0082 85.1339 76.99 84.9713 76.9358 84.8188C76.8816 84.6663 76.7927 84.5279 76.6759 84.4141L70.1659 79.0921C70.044 78.9739 69.9574 78.8252 69.9155 78.6622C69.9057 78.6288 69.9057 78.5933 69.9155 78.5599C69.8846 78.4044 69.8846 78.2445 69.9155 78.0891C69.964 77.9495 70.0344 77.8183 70.1242 77.7002C70.2489 77.5754 70.4087 77.4899 70.5832 77.4545L78.4911 75.5918C78.6065 75.5506 78.7128 75.4881 78.8041 75.4076C78.8885 75.3529 78.9539 75.2744 78.9919 75.1824C78.9988 75.1349 78.9988 75.0867 78.9919 75.0391L82.1426 66.8514C82.2575 66.6462 82.4421 66.4869 82.6642 66.4011C82.8024 66.2635 82.9891 66.183 83.1858 66.1759Z" fill="#B05F02"/>
<path d="M83.1866 66.1758C83.3566 66.169 83.5249 66.2121 83.6699 66.2996C83.8148 66.3871 83.9299 66.5151 84.0003 66.6671L87.9856 74.2203C88.0501 74.3556 88.1495 74.472 88.2739 74.5582C88.3983 74.6443 88.5434 74.6972 88.695 74.7115L96.749 75.3666C96.9305 75.3945 97.1009 75.4698 97.2424 75.5847C97.3839 75.6996 97.4913 75.8497 97.5532 76.0194C97.6151 76.189 97.6293 76.3719 97.5943 76.5488C97.5592 76.7257 97.4763 76.89 97.3541 77.0246L91.9083 83.5543C91.8128 83.6826 91.7451 83.8286 91.7092 83.9835C91.6733 84.1384 91.6701 84.2988 91.6996 84.4549L93.5149 93.0111C93.5518 93.1518 93.5571 93.2987 93.5304 93.4416C93.5037 93.5845 93.4457 93.72 93.3604 93.8388C93.275 93.9575 93.1644 94.0567 93.0362 94.1294C92.908 94.202 92.7652 94.2465 92.6177 94.2597C92.4954 94.2974 92.3644 94.2974 92.2421 94.2597L84.8767 90.739C84.7532 90.7103 84.6246 90.7103 84.5011 90.739C84.3207 90.7404 84.1455 90.7978 84.0003 90.9028L77.0939 95.2627C76.9533 95.3589 76.7854 95.409 76.614 95.406C76.4755 95.4018 76.3395 95.3687 76.2149 95.3092C76.0904 95.2496 75.9801 95.1648 75.8914 95.0603C75.8026 94.9559 75.7375 94.8342 75.7002 94.7032C75.6629 94.5723 75.6544 94.4351 75.6751 94.3007L76.5932 85.6217C76.6125 85.4613 76.5943 85.2987 76.5401 85.1462C76.4859 84.9937 76.397 84.8553 76.2802 84.7415L70.1666 79.092C70.0359 78.9649 69.941 78.8067 69.8912 78.6328C69.8414 78.459 69.8385 78.2754 69.8826 78.1001C69.9268 77.9248 70.0165 77.7637 70.1431 77.6326C70.2697 77.5015 70.4288 77.4048 70.6048 77.3521L78.5128 75.4894C78.6636 75.4485 78.8025 75.3735 78.9185 75.2704C79.0344 75.1673 79.1242 75.039 79.1804 74.8958L82.3311 66.708C82.4048 66.5468 82.5251 66.4104 82.6772 66.3157C82.8294 66.2211 83.0065 66.1724 83.1866 66.1758Z" fill="#FFC511"/>
</g>
<g clip-path="url(#clip1_676_7758)">
<path d="M39.5902 37.2367C39.8829 37.1085 40.1635 36.9839 40.4442 36.8593L39.0004 35.9531L38.8248 37.6003C39.0775 37.4712 39.3338 37.354 39.5902 37.2367Z" fill="#CD972C"/>
<path d="M58.8637 42.2538C58.8418 42.1821 58.8163 42.0984 58.7945 42.0267C58.7727 41.9549 58.7472 41.8712 58.7254 41.7995C58.7035 41.7277 58.6781 41.644 58.6562 41.5723C58.6344 41.5006 58.6089 41.4169 58.5871 41.3451C58.5653 41.2734 58.5398 41.1897 58.5179 41.1179C58.4961 41.0462 58.4706 40.9625 58.4488 40.8908C58.427 40.819 58.4015 40.7353 58.3797 40.6636C58.3578 40.5919 58.3324 40.5082 58.3105 40.4364C58.2887 40.3647 58.2632 40.281 58.2414 40.2092C58.2196 40.1375 58.1941 40.0538 58.1722 39.9821C58.1504 39.9103 58.1249 39.8266 58.1031 39.7549C58.0813 39.6831 58.0558 39.5994 58.034 39.5277C58.0121 39.456 57.9867 39.3723 57.9648 39.3005C57.943 39.2288 57.9175 39.1451 57.8957 39.0734C57.8738 39.0016 57.8484 38.9179 57.8265 38.8462C57.8047 38.7744 57.7792 38.6907 57.7574 38.619C57.7356 38.5473 57.7101 38.4636 57.6883 38.3918C57.6664 38.3201 57.641 38.2364 57.6191 38.1646C57.5973 38.0929 57.5718 38.0092 57.55 37.9375C57.5281 37.8657 57.5027 37.782 57.4808 37.7103C57.4153 37.4951 57.334 37.2716 57.2321 37.0675C56.777 36.0955 56.0194 35.3071 55.0067 34.7269L53.6222 35.3845L51.833 43.7927C51.833 43.7927 42.9495 38.2446 40.5231 36.8096C38.0967 35.3745 38.9292 35.9752 38.9292 35.9752C38.9292 35.9752 38.9663 36.7401 38.8243 37.5595C38.6823 38.3788 37.3569 50.2756 37.3569 50.2756L29.3048 46.6122L27.7462 47.4655C27.5806 48.5349 27.7825 49.3836 28.2193 50.2958C28.3213 50.4999 28.1742 50.3763 28.3815 50.8286C28.5108 51.1106 28.4933 51.0958 28.5936 51.2966C28.6276 51.3647 28.6737 51.429 28.7199 51.4934C28.7539 51.5614 28.8 51.6258 28.8461 51.6901C28.8801 51.7582 28.9262 51.8225 28.9723 51.8869C29.0063 51.9549 29.0525 52.0192 29.0986 52.0836C29.1326 52.1516 29.1787 52.216 29.2248 52.2803C29.2588 52.3484 29.3049 52.4127 29.3511 52.4771C29.385 52.5451 29.4312 52.6095 29.4773 52.6738C29.5113 52.7418 29.5574 52.8062 29.6035 52.8705C29.6375 52.9386 29.6837 53.0029 29.7298 53.0673C29.7638 53.1353 29.8099 53.1997 29.856 53.264C29.89 53.332 29.9361 53.3964 29.9823 53.4607C30.0162 53.5288 30.0624 53.5931 30.1085 53.6575C30.1425 53.7255 30.1886 53.7899 30.2347 53.8542C30.2687 53.9223 30.3148 53.9866 30.361 54.0509C30.395 54.119 30.4411 54.1833 30.4872 54.2477C30.5212 54.3157 30.5673 54.3801 30.6135 54.4444C30.6474 54.5125 30.6936 54.5768 30.7397 54.6412C30.7737 54.7092 30.8198 54.7735 30.8659 54.8379C30.8999 54.9059 30.946 54.9703 30.9922 55.0346C31.0262 55.1027 31.0723 55.167 31.1184 55.2314L31.4944 53.4578L42.0699 60.4403L46.4371 51.4444L56.9278 53.817L57.109 41.6973L58.9596 42.3945C58.911 42.4093 58.8855 42.3256 58.8637 42.2538Z" fill="url(#paint0_linear_676_7758)"/>
<path d="M29.3023 46.6122C29.3023 46.6122 28.4421 50.2838 33.232 54.6396L31.0819 55.294C31.0819 55.294 26.8051 49.7892 27.7437 47.4655L29.3023 46.6122Z" fill="#FFE3B5"/>
<path d="M53.6198 35.3847C53.6198 35.3847 56.3676 36.2851 57.3124 42.6603L59.065 42.9238C59.065 42.9238 57.9925 35.6063 54.9445 34.5935L53.6198 35.3847Z" fill="#FFE3B5"/>
<path d="M31.4615 53.5325L32.8309 52.1882L43.0979 58.0124L42.0962 60.1724L31.4615 53.5325Z" fill="#FFE3B5"/>
<path d="M57.0111 41.5768L54.9147 41.6661L54.6853 53.2977L56.8969 53.8919L57.0111 41.5768Z" fill="#FFE3B5"/>
<path d="M38.999 35.9531L37.9592 36.3741L36.0166 49.7029L37.4616 50.4389L38.999 35.9531Z" fill="#FFE3B5"/>
<path d="M64.7147 60.2531C64.6929 60.1814 64.6674 60.0977 64.6456 60.026C64.6237 59.9542 64.5983 59.8705 64.5764 59.7988C64.5546 59.7271 64.5291 59.6434 64.5073 59.5716C64.4854 59.4999 64.46 59.4162 64.4381 59.3444C64.4163 59.2727 64.3908 59.189 64.369 59.1173C64.3472 59.0455 64.3217 58.9618 64.2999 58.8901C64.278 58.8183 64.2525 58.7346 64.2307 58.6629C64.2089 58.5912 64.1834 58.5075 64.1616 58.4357C64.1397 58.364 64.1143 58.2803 64.0924 58.2086C64.0706 58.1368 64.0451 58.0531 64.0233 57.9814C64.0015 57.9096 63.976 57.8259 63.9542 57.7542C63.9323 57.6825 63.9068 57.5988 63.885 57.527C63.8632 57.4553 63.8377 57.3716 63.8159 57.2998C63.794 57.2281 63.7686 57.1444 63.7467 57.0727C63.7249 57.0009 63.6994 56.9172 63.6776 56.8455C63.6558 56.7737 63.6303 56.6901 63.6084 56.6183C63.5866 56.5466 63.5611 56.4629 63.5393 56.3911C63.5175 56.3194 63.492 56.2357 63.4702 56.164C63.4483 56.0922 63.4229 56.0085 63.401 55.9368C63.3792 55.865 63.3537 55.7813 63.3319 55.7096C63.3101 55.6379 63.2846 55.5542 63.2627 55.4824C63.2409 55.4107 63.2154 55.327 63.1936 55.2553C63.1718 55.1835 63.1463 55.0998 63.1245 55.0281C63.1026 54.9563 63.0772 54.8726 63.0553 54.8009C63.0335 54.7292 63.008 54.6455 62.9862 54.5737C62.9643 54.502 62.9389 54.4183 62.917 54.3465C62.8952 54.2748 62.8697 54.1911 62.8479 54.1194C62.8261 54.0476 62.8006 53.9639 62.7788 53.8922C62.7569 53.8204 62.7315 53.7367 62.7096 53.665C62.6878 53.5933 62.6623 53.5096 62.6405 53.4378C62.6186 53.3661 62.5932 53.2824 62.5713 53.2107C62.5495 53.1389 62.524 53.0552 62.5022 52.9835C62.4804 52.9117 62.4549 52.828 62.4331 52.7563C62.4112 52.6846 62.3857 52.6009 62.3639 52.5291C62.3421 52.4574 62.3166 52.3737 62.2948 52.3019C62.2729 52.2302 62.2475 52.1465 62.2256 52.0748C62.2038 52.003 62.1783 51.9193 62.1565 51.8476C62.1347 51.7759 62.1092 51.6922 62.0874 51.6204C62.0655 51.5487 62.04 51.465 62.0182 51.3932C61.9964 51.3215 61.9709 51.2378 61.9491 51.1661C61.9272 51.0943 61.9018 51.0106 61.8799 50.9389C61.8581 50.8671 61.8326 50.7834 61.8108 50.7117C61.789 50.64 61.7635 50.5563 61.7416 50.4845C61.7198 50.4128 61.6943 50.3291 61.6725 50.2574C61.6507 50.1856 61.6252 50.1019 61.6034 50.0302C61.5815 49.9584 61.5561 49.8747 61.5342 49.803C61.5124 49.7313 61.4869 49.6476 61.4651 49.5758C61.4433 49.5041 61.4178 49.4204 61.3959 49.3486C61.3741 49.2769 61.3486 49.1932 61.3268 49.1215C61.305 49.0497 61.2795 48.966 61.2577 48.8943C61.2358 48.8225 61.2104 48.7389 61.1885 48.6671C61.1667 48.5954 61.1412 48.5117 61.1194 48.4399C61.0975 48.3682 61.0721 48.2845 61.0502 48.2128C61.0284 48.141 61.0029 48.0573 60.9811 47.9856C60.9593 47.9138 60.9338 47.8301 60.912 47.7584C60.8901 47.6867 60.8647 47.603 60.8428 47.5312C60.821 47.4595 60.7955 47.3758 60.7737 47.304C60.7518 47.2323 60.7264 47.1486 60.7045 47.0769C60.6827 47.0051 60.6572 46.9214 60.6354 46.8497C60.6136 46.778 60.5881 46.6943 60.5663 46.6225C60.5444 46.5508 60.519 46.4671 60.4971 46.3953C60.4753 46.3236 60.4498 46.2399 60.428 46.1682C60.4061 46.0964 60.3807 46.0127 60.3588 45.941C60.337 45.8692 60.3115 45.7855 60.2897 45.7138C60.2679 45.6421 60.2424 45.5584 60.2206 45.4866C60.1987 45.4149 60.1732 45.3312 60.1514 45.2595C60.1296 45.1877 60.1041 45.104 60.0823 45.0323C60.0604 44.9605 60.035 44.8768 60.0131 44.8051C59.9913 44.7334 59.9658 44.6497 59.944 44.5779C59.9222 44.5062 59.8967 44.4225 59.8749 44.3507C59.853 44.279 59.8275 44.1953 59.8057 44.1236C59.7839 44.0518 59.7584 43.9681 59.7366 43.8964C59.7147 43.8246 59.6893 43.741 59.6674 43.6692C59.6456 43.5975 59.6201 43.5138 59.5983 43.442C59.5765 43.3703 59.551 43.2866 59.5291 43.2149C59.5073 43.1431 59.4818 43.0594 59.46 42.9877C59.4382 42.9159 59.4127 42.8322 59.3909 42.7605C59.369 42.6888 59.3436 42.6051 59.3217 42.5333C59.2999 42.4616 59.2744 42.3779 59.2526 42.3061L57.0132 41.5768L56.8989 53.8919L46.0307 47.924L42.1003 60.1726L31.4655 53.5327L31.0895 55.3063C31.1235 55.3744 31.1696 55.4387 31.2158 55.503C31.2497 55.5711 31.2959 55.6354 31.342 55.6998C31.376 55.7678 31.4221 55.8322 31.4682 55.8965C31.5022 55.9646 31.5483 56.0289 31.5945 56.0933C31.6285 56.1613 31.6746 56.2256 31.7207 56.29C31.7547 56.358 31.8008 56.4224 31.8469 56.4867C31.8809 56.5548 31.9271 56.6191 31.9732 56.6835C32.0072 56.7515 32.0533 56.8158 32.0994 56.8802C32.1334 56.9482 32.1795 57.0126 32.2257 57.0769C32.2596 57.145 32.3058 57.2093 32.3519 57.2737C32.3859 57.3417 32.432 57.4061 32.4781 57.4704C32.5121 57.5384 32.5583 57.6028 32.6044 57.6671C32.6384 57.7352 32.6845 57.7995 32.7306 57.8639C32.7646 57.9319 32.8107 57.9963 32.8569 58.0606C32.8908 58.1286 32.937 58.193 32.9831 58.2573C33.0171 58.3254 33.0632 58.3897 33.1093 58.4541C33.1433 58.5221 33.1894 58.5865 33.2356 58.6508C33.2696 58.7189 33.3157 58.7832 33.3618 58.8475C33.3958 58.9156 33.4419 58.9799 33.4881 59.0443C33.522 59.1123 33.5682 59.1767 33.6143 59.241C33.6483 59.3091 33.6944 59.3734 33.7405 59.4378C33.7745 59.5058 33.8206 59.5701 33.8668 59.6345C33.9007 59.7025 33.9469 59.7669 33.993 59.8312C34.027 59.8993 34.0731 59.9636 34.1192 60.028C34.1532 60.096 34.1994 60.1603 34.2455 60.2247C34.2795 60.2927 34.3256 60.3571 34.3717 60.4214C34.4057 60.4895 34.4518 60.5538 34.498 60.6182C34.5319 60.6862 34.5781 60.7506 34.6242 60.8149C34.6582 60.8829 34.7043 60.9473 34.7504 61.0116C34.7844 61.0797 34.8305 61.144 34.8767 61.2084C34.9107 61.2764 34.9568 61.3408 35.0029 61.4051C35.0369 61.4731 35.083 61.5375 35.1292 61.6018C35.1631 61.6699 35.2093 61.7342 35.2554 61.7986C35.2894 61.8666 35.3355 61.931 35.3816 61.9953C35.4156 62.0634 35.4617 62.1277 35.5079 62.192C35.5419 62.2601 35.588 62.3244 35.6341 62.3888C35.6681 62.4568 35.7142 62.5212 35.7603 62.5855C35.7943 62.6536 35.8405 62.7179 35.8866 62.7823C35.9206 62.8503 35.9667 62.9146 36.0128 62.979C36.0468 63.047 36.0929 63.1114 36.1391 63.1757C36.173 63.2438 36.2192 63.3081 36.2653 63.3725C36.2993 63.4405 36.3454 63.5048 36.3915 63.5692C36.4255 63.6372 36.4716 63.7016 36.5178 63.7659C36.5518 63.834 36.5979 63.8983 36.644 63.9627C36.678 64.0307 36.7241 64.0951 36.7703 64.1594C36.8042 64.2274 36.8504 64.2918 36.8965 64.3561C36.9305 64.4242 36.9766 64.4885 37.0227 64.5529C37.0567 64.6209 37.1028 64.6853 37.149 64.7496C37.183 64.8176 37.2291 64.882 37.2752 64.9463C37.3092 65.0144 37.3553 65.0787 37.4014 65.1431C37.4354 65.2111 37.4816 65.2755 37.5277 65.3398C37.5617 65.4079 37.6078 65.4722 37.6539 65.5365C37.6879 65.6046 37.734 65.6689 37.7802 65.7333C37.8141 65.8013 37.8603 65.8657 37.9064 65.93C37.9404 65.9981 37.9865 66.0624 38.0326 66.1268C38.0666 66.1948 38.1128 66.2591 38.1589 66.3235C38.1929 66.3915 38.239 66.4559 38.2851 66.5202C38.3191 66.5883 38.3652 66.6526 38.4114 66.717C38.4453 66.785 38.4915 66.8493 38.5376 66.9137C38.5716 66.9817 38.6177 67.0461 38.6638 67.1104C38.6978 67.1785 38.7439 67.2428 38.7901 67.3072C38.8241 67.3752 38.8702 67.4396 38.9163 67.5039C38.9503 67.5719 38.9964 67.6363 39.0426 67.7006C39.0765 67.7687 39.1227 67.833 39.1688 67.8974C39.2028 67.9654 39.2489 68.0298 39.295 68.0941C39.329 68.1621 39.3751 68.2265 39.4213 68.2908C39.4552 68.3589 39.5014 68.4232 39.5475 68.4876C39.5815 68.5556 39.6276 68.62 39.6737 68.6843C39.7077 68.7524 39.7539 68.8167 39.8 68.881C39.834 68.9491 39.8801 69.0134 39.9262 69.0778C39.9602 69.1458 40.0063 69.2102 40.0525 69.2745C40.0864 69.3426 40.1326 69.4069 40.1787 69.4713C40.2127 69.5393 40.2588 69.6036 40.3049 69.668C40.3389 69.736 40.385 69.8004 40.4312 69.8647C40.4652 69.9328 40.5113 69.9971 40.5574 70.0615C40.5914 70.1295 40.6375 70.1938 40.6837 70.2582C40.7176 70.3262 40.7638 70.3906 40.8099 70.4549C40.8439 70.523 40.89 70.5873 40.9361 70.6517C40.9701 70.7197 41.0162 70.7841 41.0624 70.8484C42.9388 74.0921 49.387 74.3897 55.7708 71.4669C62.0367 68.8545 65.985 63.7727 64.7147 60.2531Z" fill="url(#paint1_linear_676_7758)"/>
</g>
<defs>
<linearGradient id="paint0_linear_676_7758" x1="32.9098" y1="21.4622" x2="78.0782" y2="49.5044" gradientUnits="userSpaceOnUse">
<stop offset="0.00717998" stop-color="#FFF8DB"/>
<stop offset="0.395833" stop-color="#EC9512"/>
<stop offset="0.65625" stop-color="#C88F20"/>
<stop offset="0.897995" stop-color="#B37600"/>
</linearGradient>
<linearGradient id="paint1_linear_676_7758" x1="44.1636" y1="45.4875" x2="52.4478" y2="72.7067" gradientUnits="userSpaceOnUse">
<stop stop-color="#FFCE07"/>
<stop offset="0.9999" stop-color="#EB9B00"/>
<stop offset="1" stop-color="#FFA98C"/>
</linearGradient>
<clipPath id="clip0_676_7758">
<rect width="74.8438" height="62.37" fill="white" transform="translate(40.582 52.0724)"/>
</clipPath>
<clipPath id="clip1_676_7758">
<rect width="32.2009" height="39.3568" fill="white" transform="matrix(0.956674 -0.291162 0.291161 0.956674 24.957 40.2268)"/>
</clipPath>
</defs>
</svg>
