<svg width="154" height="154" viewBox="0 0 154 154" fill="none" xmlns="http://www.w3.org/2000/svg">
<circle cx="77" cy="77" r="77" fill="#73BCFF"/>
<g filter="url(#filter0_d_676_7743)">
<path d="M57.3438 102.733L58.7571 111.287L63.0856 114.998L61.6875 106.026L57.3438 102.733Z" fill="#FFDD00"/>
<path d="M79.3637 67.1182L73.9717 65.9817C73.5335 65.89 73.0867 65.8203 72.6314 65.7762C72.1761 65.732 71.7124 65.7133 71.2435 65.7201C70.7729 65.7269 70.2956 65.7592 69.8131 65.8203C69.329 65.8798 68.8414 65.9681 68.3488 66.0836L49.2069 70.6024C49.0217 70.6466 48.8383 70.6941 48.6565 70.7434C48.6344 70.7485 48.6123 70.7536 48.5903 70.7604C48.5631 70.7672 48.5359 70.7774 48.5087 70.7842C48.3575 70.8266 48.2063 70.8708 48.0568 70.9184C48.0314 70.9269 48.0076 70.932 47.9821 70.9405C47.9736 70.9439 47.9651 70.9473 47.9549 70.949C47.7748 71.0067 47.5965 71.0662 47.4198 71.129C47.4062 71.1341 47.3943 71.1375 47.3807 71.1426C47.3535 71.1528 47.3281 71.163 47.3026 71.1732C47.1565 71.2259 47.0121 71.2819 46.8677 71.338C46.8422 71.3482 46.815 71.3567 46.7895 71.3669C46.776 71.372 46.7641 71.3788 46.7505 71.3838C46.5364 71.4705 46.3258 71.5605 46.1168 71.654C46.1015 71.6607 46.0846 71.6675 46.0693 71.6743C46.0506 71.6828 46.0336 71.6913 46.0149 71.6998C45.8043 71.7967 45.5936 71.8969 45.3881 72.0022C45.3796 72.0056 45.3711 72.0107 45.3643 72.0141C45.349 72.0226 45.332 72.0311 45.3167 72.0396C45.101 72.15 44.8852 72.2655 44.6746 72.3844C44.4639 72.5033 44.2584 72.6274 44.0528 72.7531C44.0358 72.7633 44.0171 72.7735 44.0001 72.7836C43.9883 72.7904 43.9781 72.7989 43.9662 72.8057C43.8065 72.906 43.6485 73.0079 43.4922 73.1132C43.4837 73.12 43.4735 73.1251 43.465 73.1319C43.4429 73.1472 43.4209 73.1642 43.3988 73.1795C43.2697 73.2678 43.1406 73.3578 43.0132 73.4496C42.9894 73.4666 42.9656 73.4818 42.9418 73.4988C42.9265 73.5107 42.9112 73.5226 42.8942 73.5345C42.8671 73.5549 42.8399 73.5736 42.8127 73.594C42.777 73.6211 42.7413 73.65 42.7057 73.6772C42.6139 73.7469 42.5205 73.8131 42.4305 73.8845C42.3574 73.9422 42.2861 74.0017 42.213 74.0594C42.1553 74.1053 42.0975 74.1512 42.0414 74.1987C42.0058 74.2276 41.9684 74.2565 41.9327 74.2854C41.7798 74.4145 41.6269 74.5453 41.4775 74.6778C41.469 74.6863 41.4588 74.6948 41.4503 74.7033C41.4214 74.7287 41.3925 74.7559 41.3636 74.7831C41.2532 74.8833 41.1428 74.9836 41.0341 75.0855C40.9763 75.1399 40.9203 75.1976 40.8642 75.252C40.8149 75.3012 40.764 75.3488 40.7147 75.3981C40.6773 75.4337 40.64 75.4694 40.6043 75.5068C40.4633 75.6495 40.324 75.7939 40.1881 75.9417C40.183 75.9468 40.1779 75.9536 40.1728 75.9587C40.1507 75.9824 40.1286 76.0079 40.1065 76.0317C39.9978 76.1506 39.8891 76.2695 39.7838 76.3919C39.7362 76.4462 39.6903 76.504 39.6428 76.5583C39.5969 76.6127 39.551 76.6671 39.5052 76.7214C39.4678 76.7656 39.4304 76.8081 39.393 76.8539C39.2656 77.0102 39.1399 77.1682 39.0176 77.3279C39.0176 77.3296 39.0142 77.3313 39.0125 77.3347C39.0023 77.3466 38.9938 77.3602 38.9836 77.3721C38.8715 77.5182 38.7628 77.6642 38.6541 77.8137C38.6167 77.8647 38.581 77.9191 38.5454 77.9717C38.4995 78.0363 38.4553 78.1008 38.4095 78.1654C38.3687 78.2248 38.3245 78.2843 38.2837 78.3455C38.2039 78.4661 38.1258 78.5867 38.0476 78.709C38.0255 78.743 38.0017 78.7752 37.9814 78.8092C37.9712 78.8262 37.961 78.8415 37.9508 78.8585C37.944 78.8687 37.9372 78.8789 37.9304 78.8891C37.9151 78.9128 37.9015 78.9383 37.8862 78.9621C37.803 79.0963 37.7214 79.2322 37.6416 79.3681C37.6263 79.3936 37.611 79.4174 37.5957 79.4429C37.5855 79.4599 37.5771 79.4751 37.5686 79.4921C37.4734 79.6586 37.3783 79.8251 37.2883 79.9933C37.2849 79.9984 37.2832 80.0035 37.2798 80.0069C37.273 80.0188 37.2679 80.0306 37.2611 80.0425C37.1541 80.243 37.0504 80.4452 36.9502 80.649C36.9417 80.6643 36.9332 80.6796 36.9264 80.6966C36.923 80.7034 36.9196 80.7102 36.9162 80.7187C36.816 80.9242 36.7209 81.1332 36.6274 81.3421C36.6189 81.3608 36.6104 81.3795 36.602 81.3982C36.5952 81.4152 36.5884 81.4321 36.5816 81.4491C36.4898 81.6581 36.4032 81.867 36.32 82.0777C36.3149 82.0896 36.3098 82.0998 36.3064 82.1117C36.2996 82.1303 36.2928 82.1507 36.2843 82.1694C36.1314 82.5635 35.9904 82.961 35.863 83.3637C35.8477 83.4095 35.8341 83.4571 35.8205 83.503C35.778 83.6423 35.7356 83.7833 35.6965 83.9243C35.6846 83.9667 35.6727 84.0092 35.6608 84.0517C35.6116 84.2283 35.5657 84.4067 35.5232 84.5834C35.5147 84.6157 35.5079 84.6479 35.5011 84.6802C35.4655 84.828 35.4332 84.9758 35.4009 85.1253C35.3958 85.1525 35.389 85.178 35.3822 85.2051C35.3771 85.2323 35.372 85.2578 35.3669 85.285C35.3567 85.3308 35.3466 85.3784 35.3381 85.4243C35.3177 85.5262 35.3007 85.6298 35.282 85.7318C35.2769 85.764 35.2701 85.7963 35.2633 85.8303C35.2327 86.0104 35.2039 86.1904 35.1784 86.3722C35.1716 86.4164 35.1665 86.4622 35.1597 86.5064C35.141 86.6491 35.1223 86.7935 35.107 86.9379C35.1019 86.9872 35.0968 87.0364 35.0917 87.084C35.0544 87.4509 35.0272 87.8196 35.0136 88.1899C35.0119 88.2375 35.0102 88.285 35.0085 88.3326C35.0034 88.4821 35 88.6316 35 88.7811C35 88.8201 35 88.8592 35 88.8983C35 89.0835 35.0034 89.2703 35.0085 89.4555C35.0085 89.4844 35.0102 89.5132 35.0119 89.5421C35.017 89.7001 35.0255 89.8581 35.0357 90.0161C35.0357 90.0416 35.0374 90.0671 35.0391 90.0925C35.0391 90.1163 35.0442 90.1401 35.0459 90.1656C35.0578 90.3253 35.0713 90.4849 35.0866 90.6429C35.09 90.6701 35.0917 90.6956 35.0934 90.7228C35.1121 90.9062 35.1359 91.0897 35.1597 91.2732C35.1665 91.319 35.1733 91.3649 35.1801 91.4091C35.2005 91.5518 35.2225 91.6928 35.248 91.8355C35.2565 91.8864 35.265 91.9391 35.2752 91.9901C35.3075 92.1718 35.3432 92.3536 35.3822 92.5354C35.5555 93.344 35.7831 94.1186 36.0617 94.8593C36.3386 95.5949 36.6631 96.2965 37.0317 96.959C37.3987 97.6181 37.8098 98.2399 38.2583 98.8192C38.5929 99.2524 38.9497 99.6635 39.3268 100.051C39.4525 100.18 39.5799 100.306 39.709 100.43L43.2442 103.808C42.7023 103.292 42.196 102.728 41.7306 102.123C41.2617 101.515 40.8336 100.863 40.4514 100.168C40.0675 99.4715 39.7294 98.7325 39.4423 97.9562C39.1552 97.1764 38.9191 96.3576 38.7424 95.5015C38.7033 95.3095 38.6677 95.1175 38.6337 94.9239C38.6235 94.8695 38.615 94.8151 38.6065 94.7591C38.581 94.6096 38.5589 94.4584 38.5386 94.3089C38.5318 94.2613 38.525 94.2121 38.5182 94.1645C38.4927 93.9708 38.4706 93.7772 38.4519 93.5818C38.4485 93.5546 38.4468 93.5258 38.4451 93.4986C38.4298 93.3304 38.4163 93.1605 38.4044 92.9923C38.401 92.9397 38.3976 92.887 38.3942 92.8344C38.384 92.6679 38.3772 92.4997 38.3721 92.3315C38.3721 92.3009 38.3704 92.2704 38.3687 92.2398C38.3636 92.0427 38.3619 91.8457 38.3636 91.6486C38.3636 91.6061 38.3636 91.5654 38.3653 91.5229C38.367 91.3632 38.3721 91.2052 38.3772 91.0455C38.3789 90.9963 38.3806 90.9453 38.384 90.8961C38.3925 90.7007 38.4044 90.5053 38.4196 90.31C38.4349 90.1146 38.4536 89.9176 38.474 89.7222C38.4791 89.6695 38.4859 89.6186 38.491 89.5659C38.508 89.413 38.5284 89.2601 38.5488 89.1089C38.5556 89.0614 38.5623 89.0138 38.5691 88.9662C38.598 88.7743 38.6286 88.5823 38.6626 88.392C38.6694 88.3564 38.6762 88.3224 38.683 88.2867C38.7118 88.1287 38.7424 87.9691 38.7764 87.8128C38.7883 87.7567 38.8002 87.6989 38.8121 87.6429C38.846 87.4849 38.8817 87.3269 38.9208 87.1689C38.9293 87.135 38.9361 87.101 38.9446 87.067C38.9921 86.8767 39.0414 86.6882 39.0941 86.4996C39.106 86.4554 39.1195 86.4096 39.1331 86.3654C39.1756 86.2159 39.2198 86.0664 39.2673 85.9169C39.2826 85.8677 39.2979 85.8184 39.3132 85.7691C39.3727 85.5806 39.4355 85.3937 39.5001 85.2085C39.5833 84.9707 39.6733 84.7329 39.7651 84.4984C39.777 84.4662 39.7906 84.4339 39.8025 84.4033C39.8925 84.1774 39.9859 83.9548 40.0828 83.7323C40.0997 83.6949 40.1167 83.6575 40.132 83.6202C40.2305 83.3976 40.3342 83.1751 40.4412 82.9559C40.4531 82.9322 40.465 82.9084 40.4769 82.8846C40.5839 82.6672 40.6943 82.4514 40.8081 82.2374C40.8166 82.2204 40.8268 82.2034 40.8353 82.1864C40.9321 82.0063 41.0324 81.828 41.1343 81.6513C41.1598 81.6071 41.1853 81.5629 41.2124 81.5188C41.2974 81.3727 41.384 81.2283 41.4741 81.0856C41.4961 81.0482 41.5182 81.0125 41.542 80.9752C41.576 80.9208 41.6117 80.8698 41.6456 80.8155C41.7696 80.6201 41.8988 80.4265 42.0296 80.2362C42.0771 80.1666 42.1247 80.0986 42.1723 80.0289C42.3234 79.8132 42.478 79.5992 42.6377 79.3885C42.6479 79.3749 42.6564 79.3613 42.6666 79.3494C42.8365 79.1269 43.0115 78.9111 43.1898 78.6954C43.2391 78.6376 43.2867 78.5782 43.3359 78.5204C43.4973 78.3302 43.6604 78.1433 43.8269 77.9598C43.8507 77.9344 43.8744 77.9072 43.8982 77.88C44.0851 77.6761 44.2787 77.4774 44.4724 77.282C44.5251 77.2294 44.5777 77.1784 44.6304 77.1257C44.8037 76.9559 44.9803 76.7877 45.1587 76.6229C45.1893 76.594 45.2199 76.5651 45.2504 76.538C45.4543 76.3528 45.6633 76.1744 45.8756 75.9977C45.9368 75.9468 45.9979 75.8975 46.0591 75.8482C46.2306 75.7089 46.4039 75.5713 46.5806 75.4388C46.6468 75.3879 46.7131 75.3369 46.7794 75.2876C46.8218 75.2571 46.8626 75.2265 46.9051 75.1959C47.0393 75.0974 47.1752 75.0023 47.3111 74.9071C47.345 74.8833 47.3773 74.8596 47.4113 74.8375C47.5761 74.7254 47.7443 74.6149 47.9124 74.5079C47.943 74.4892 47.9736 74.4705 48.0042 74.4518C48.2199 74.3159 48.4391 74.1834 48.6599 74.056C48.8841 73.9269 49.1101 73.8046 49.3394 73.6857C49.3649 73.6721 49.3904 73.6585 49.4142 73.6466C49.6333 73.5345 49.8541 73.4258 50.0767 73.3222C50.1124 73.3052 50.148 73.2882 50.1837 73.2729C50.4046 73.171 50.6271 73.0741 50.853 72.9824C50.8938 72.9654 50.9346 72.9501 50.9753 72.9331C51.1282 72.872 51.2811 72.8125 51.4357 72.7548C51.4765 72.7395 51.5173 72.7242 51.5597 72.7089C51.7466 72.6409 51.9352 72.5764 52.1237 72.5135C52.1594 72.5016 52.1934 72.4915 52.229 72.4796C52.387 72.4286 52.545 72.381 52.7047 72.3352C52.7574 72.3199 52.8083 72.3046 52.861 72.291C53.053 72.2366 53.2466 72.1857 53.4403 72.1381L73.5097 67.2558C74.0227 67.1301 74.534 67.0367 75.0369 66.9704C75.5397 66.9042 76.0375 66.8685 76.5267 66.8583C77.016 66.8498 77.4967 66.8685 77.9707 66.9127C78.3257 66.9466 78.674 66.9942 79.0188 67.0571C79.1343 67.0774 79.2482 67.0995 79.362 67.125L79.3637 67.1182Z" fill="#FFDD00"/>
<path d="M73.5093 67.249C75.6634 66.7258 77.741 66.7309 79.6504 67.181C81.531 67.6244 83.2451 68.4976 84.7094 69.719C86.1517 70.9218 87.351 72.4609 88.231 74.2633C89.0991 76.0402 89.6597 78.077 89.838 80.3075C90.0147 82.5159 89.8007 84.7176 89.2655 86.8139C88.7338 88.9 87.881 90.8943 86.77 92.6984C85.659 94.5042 84.283 96.13 82.7015 97.472C81.1097 98.8226 79.3022 99.8945 77.335 100.579L70.545 102.94L63.0805 114.997L61.6824 106.024L59.0969 106.922C56.8749 107.695 54.6529 107.989 52.5294 107.85C50.3736 107.709 48.3147 107.121 46.4647 106.134C44.5859 105.132 42.9211 103.715 41.596 101.942C40.2506 100.139 39.2551 97.9698 38.7404 95.4963C38.2206 92.9957 38.2443 90.4357 38.7404 87.9554C39.2381 85.4616 40.2098 83.0664 41.5689 80.9106C42.9262 78.7565 44.664 76.8556 46.689 75.3403C48.6986 73.8369 50.9801 72.7259 53.4365 72.1279L73.506 67.2456L73.5093 67.249Z" fill="#F18C21"/>
<path d="M67.5989 91.2579C64.9641 90.7805 62.506 89.7765 60.357 88.3122C58.1639 86.8189 56.2918 84.8484 54.8869 82.482C53.4549 80.0697 52.512 77.2531 52.2147 74.129C52.1638 73.5871 52.1332 73.0469 52.1213 72.5067C50.1643 73.1455 48.3364 74.1138 46.6903 75.3437C44.6654 76.859 42.9275 78.7599 41.5702 80.914C40.2111 83.0697 39.2394 85.465 38.7417 87.9588C38.2474 90.4391 38.2219 92.9991 38.7417 95.4997C39.2564 97.9732 40.2502 100.142 41.5974 101.945C42.9224 103.72 44.5855 105.135 46.4661 106.137C48.3143 107.124 50.3733 107.712 52.5307 107.853C54.6542 107.993 56.8762 107.699 59.0982 106.926L61.6838 106.027L63.0819 115L70.5463 102.944L77.3363 100.582C79.3035 99.8979 81.111 98.8259 82.7028 97.4754C84.2843 96.1334 85.6587 94.5076 86.7714 92.7018C87.6309 91.3071 88.3325 89.7952 88.8541 88.2187L75.7717 91.071C72.9467 91.6877 70.1862 91.7267 67.6006 91.2596L67.5989 91.2579Z" fill="#F18C21"/>
<path d="M89.8374 80.3075C89.6591 78.077 89.0985 76.0419 88.2304 74.2633C87.3504 72.4609 86.1494 70.9218 84.7088 69.719C83.2445 68.4976 81.5304 67.6244 79.6498 67.181C77.7404 66.7309 75.6611 66.7241 73.5088 67.249L53.4393 72.1313C52.9943 72.24 52.5543 72.3657 52.1211 72.5067C52.133 73.0469 52.1619 73.5872 52.2145 74.1291C52.5118 77.2531 53.4546 80.0714 54.8867 82.482C56.2916 84.8484 58.1637 86.819 60.3568 88.3122C62.5057 89.7748 64.9639 90.7805 67.5987 91.2579C70.1842 91.725 72.9465 91.686 75.7698 91.0693L88.8521 88.2171C89.005 87.755 89.1443 87.2878 89.265 86.8156C89.8001 84.7193 90.0141 82.5176 89.8374 80.3092V80.3075Z" fill="#E23627"/>
<path d="M108.313 41.0674L102.954 39.5606C102.519 39.4383 102.075 39.3347 101.622 39.2514C101.168 39.1682 100.706 39.1053 100.236 39.0629C99.7633 39.0204 99.2842 39 98.7967 39C98.3091 39 97.8148 39.0238 97.3136 39.0697L73.1926 41.2696C72.9565 41.2917 72.7221 41.3171 72.4876 41.3477C72.4604 41.3511 72.4316 41.3528 72.4044 41.3562C72.3687 41.3613 72.333 41.3681 72.2974 41.3715C72.1037 41.397 71.91 41.4259 71.7164 41.4581C71.6841 41.4632 71.6518 41.4666 71.6213 41.4717C71.6094 41.4734 71.5992 41.4768 71.5873 41.4785C71.3545 41.5176 71.1235 41.5618 70.8925 41.6093C70.8772 41.6127 70.8602 41.6144 70.8449 41.6178C70.8109 41.6246 70.7787 41.6331 70.7464 41.6399C70.5544 41.6807 70.3642 41.7231 70.1756 41.769C70.1433 41.7775 70.1093 41.7826 70.0771 41.7911C70.0482 41.7979 70.0193 41.8064 69.9904 41.8132C69.9123 41.8336 69.8341 41.854 69.756 41.8743C69.666 41.8981 69.5742 41.9219 69.4842 41.9474C69.4043 41.9695 69.3262 41.9916 69.2481 42.0136C69.2107 42.0238 69.1716 42.034 69.1342 42.0459C69.0833 42.0612 69.0323 42.0782 68.9813 42.0935C68.9032 42.1173 68.8251 42.141 68.7469 42.1648C68.6569 42.1937 68.5668 42.2226 68.4768 42.2532C68.4021 42.2786 68.3256 42.3024 68.2509 42.3279C68.2356 42.333 68.2203 42.3381 68.2033 42.3432C68.1218 42.3721 68.0402 42.401 67.9587 42.4298C67.8924 42.4536 67.8262 42.4774 67.7599 42.5012C67.6019 42.5589 67.4439 42.6201 67.2877 42.6813C67.2877 42.6813 67.2877 42.6813 67.286 42.6813C67.2367 42.6999 67.1874 42.722 67.1382 42.7407C67.026 42.7866 66.9122 42.8325 66.8018 42.8783C66.7373 42.9055 66.6727 42.9344 66.6098 42.9616C66.5351 42.9938 66.4621 43.0244 66.3873 43.0584C66.372 43.0652 66.3567 43.0737 66.3397 43.0805C66.1257 43.1773 65.9116 43.2775 65.701 43.3795C65.6891 43.3846 65.6772 43.3897 65.667 43.3947C65.6381 43.41 65.6093 43.4253 65.5787 43.4406C65.402 43.5273 65.227 43.6173 65.0538 43.7107C65.0215 43.7277 64.9892 43.743 64.9586 43.76C64.9365 43.7719 64.9145 43.7855 64.8924 43.7974C64.8533 43.8177 64.8159 43.8381 64.7769 43.8585C64.6087 43.9503 64.4405 44.0454 64.274 44.1422C64.2706 44.1439 64.2672 44.1456 64.2621 44.149C64.2468 44.1575 64.2316 44.1677 64.2163 44.1762C64.0277 44.2866 63.8425 44.3987 63.6591 44.5142C63.6336 44.5312 63.6064 44.5448 63.5792 44.5618C63.5503 44.5805 63.5232 44.5992 63.4943 44.6162C63.3397 44.7147 63.1868 44.8132 63.0356 44.9152C63.0084 44.9338 62.9795 44.9508 62.9524 44.9695C62.9439 44.9763 62.9337 44.9831 62.9252 44.9882C62.7366 45.1156 62.5515 45.2464 62.3663 45.3789C62.3561 45.3857 62.3476 45.3925 62.3374 45.3993C62.3119 45.418 62.2864 45.4384 62.2593 45.4571C62.1098 45.5658 61.9603 45.6779 61.8125 45.7917C61.787 45.8104 61.7615 45.8291 61.736 45.8495C61.714 45.8665 61.6919 45.8852 61.6681 45.9038C61.5118 46.0262 61.3572 46.1485 61.2043 46.2742C61.1856 46.2895 61.1669 46.3031 61.1483 46.3184C61.1432 46.3217 61.1381 46.3268 61.133 46.3319C60.9563 46.478 60.7813 46.6275 60.608 46.7787C60.5979 46.7889 60.586 46.7974 60.5741 46.8076C60.5486 46.8297 60.5248 46.8535 60.4993 46.8756C60.3617 46.9979 60.2258 47.1202 60.0916 47.2459C60.0661 47.2697 60.0407 47.2918 60.0152 47.3155C59.9965 47.3342 59.9778 47.3529 59.9574 47.3716C59.8045 47.516 59.6533 47.6621 59.5038 47.8099C59.4936 47.8201 59.4835 47.8303 59.4733 47.8405C59.4716 47.8422 59.4682 47.8456 59.4665 47.8473C59.3051 48.0086 59.1471 48.1717 58.9908 48.3382C58.9772 48.3535 58.9619 48.3671 58.9483 48.3824C58.9246 48.4079 58.9008 48.435 58.877 48.4622C58.7428 48.6066 58.6103 48.7527 58.4795 48.9005C58.4557 48.9277 58.4302 48.9532 58.4064 48.9803C58.3945 48.9939 58.3826 49.0092 58.3708 49.0228C58.2281 49.1859 58.0871 49.349 57.9495 49.5172C57.9359 49.5341 57.924 49.5494 57.9104 49.5664C57.9019 49.5766 57.8934 49.5868 57.8832 49.597C57.8611 49.6242 57.8407 49.6514 57.8186 49.6785C57.6929 49.8331 57.5706 49.9877 57.4483 50.1457C57.4262 50.1746 57.4024 50.2018 57.3804 50.2306C57.3651 50.251 57.3515 50.2714 57.3362 50.2901C57.1918 50.4804 57.0474 50.674 56.9081 50.8694C56.9047 50.8728 56.903 50.8762 56.8996 50.8796C56.8928 50.8898 56.886 50.9 56.8792 50.9085C56.7127 51.1412 56.5514 51.379 56.3951 51.6186C56.3832 51.6372 56.3696 51.6559 56.356 51.6746C56.3492 51.6831 56.3441 51.6933 56.339 51.7018C56.1827 51.9413 56.0315 52.1842 55.8837 52.4289C55.8718 52.4493 55.8566 52.4696 55.8447 52.4917C55.8328 52.5121 55.8226 52.5325 55.8107 52.5512C55.6646 52.7958 55.5236 53.0438 55.3877 53.2935C55.3809 53.3054 55.3741 53.3156 55.3673 53.3275C55.3554 53.3479 55.3452 53.37 55.335 53.3904C55.0836 53.8575 54.8458 54.3315 54.6266 54.814C54.6029 54.8666 54.5791 54.921 54.5553 54.9753C54.4805 55.1418 54.4075 55.31 54.3378 55.4799C54.3158 55.5308 54.2937 55.5818 54.2733 55.6345C54.1867 55.8468 54.1017 56.0609 54.0202 56.2766C54.0083 56.3106 53.9964 56.3446 53.9828 56.3768C53.9148 56.5603 53.8503 56.7438 53.7874 56.9289C53.7772 56.9595 53.7654 56.9901 53.7552 57.0207C53.7433 57.053 53.7348 57.0869 53.7229 57.1192C53.7025 57.1787 53.6821 57.2364 53.6634 57.2959C53.6244 57.4148 53.5887 57.5337 53.553 57.6526C53.5394 57.6951 53.5258 57.7376 53.5139 57.78C53.4494 57.9975 53.3882 58.2183 53.3288 58.4375C53.3152 58.4901 53.3016 58.5428 53.288 58.5954C53.2421 58.7721 53.1997 58.9488 53.1589 59.1272C53.1453 59.1866 53.1317 59.2461 53.1181 59.3055C53.0179 59.7557 52.9313 60.211 52.8599 60.6663C52.8514 60.7223 52.8429 60.7801 52.8344 60.8361C52.8072 61.023 52.7818 61.2099 52.758 61.3967C52.7529 61.4443 52.7461 61.4919 52.7393 61.5394C52.7121 61.7705 52.6883 62.0032 52.6696 62.2342C52.6662 62.2665 52.6645 62.2988 52.6628 62.3311C52.6476 62.5315 52.634 62.7303 52.6238 62.9307C52.6238 62.9613 52.6187 62.9919 52.6187 63.0225C52.6187 63.0514 52.6187 63.0819 52.617 63.1125C52.6085 63.313 52.6034 63.5134 52.6 63.7139C52.6 63.7462 52.6 63.7784 52.5983 63.8107C52.5966 64.0417 52.5983 64.2728 52.6034 64.5021C52.6034 64.5582 52.6068 64.6159 52.6085 64.672C52.6136 64.8521 52.6221 65.0304 52.6323 65.2105C52.6357 65.2751 52.6391 65.3413 52.6442 65.4059C52.6594 65.6369 52.6781 65.8662 52.7002 66.0973C52.7869 66.9602 52.9262 67.7994 53.113 68.6132C53.2999 69.4235 53.5343 70.2066 53.8129 70.9626C54.0898 71.7151 54.4109 72.4371 54.7727 73.1302C55.0428 73.6467 55.335 74.1461 55.6476 74.6285C55.7512 74.7899 55.8583 74.9479 55.967 75.1042C56.8724 76.4072 57.7796 77.7101 58.685 79.0114C58.2298 78.3557 57.8119 77.666 57.4347 76.9423C57.0576 76.2152 56.7212 75.4542 56.4324 74.6625C56.142 73.8675 55.899 73.0402 55.7071 72.1857C55.5134 71.3261 55.3724 70.4394 55.2841 69.5271C55.2603 69.2825 55.2433 69.0396 55.228 68.7949C55.2246 68.7253 55.2212 68.6573 55.2161 68.5877C55.2059 68.3974 55.1991 68.2072 55.194 68.0169C55.194 67.9574 55.1906 67.898 55.1889 67.8368C55.1838 67.5922 55.1838 67.3476 55.1872 67.1029C55.1872 67.069 55.1889 67.0333 55.1906 66.9993C55.194 66.787 55.2025 66.5746 55.2127 66.3623C55.2161 66.2977 55.2195 66.2349 55.2229 66.1703C55.2348 65.958 55.2501 65.7456 55.2671 65.5333C55.2705 65.4993 55.2722 65.4636 55.2756 65.4296C55.2977 65.1833 55.3231 64.937 55.3537 64.6907C55.3605 64.6414 55.3673 64.5904 55.3724 64.5412C55.3979 64.3424 55.4268 64.142 55.4573 63.9432C55.4658 63.8838 55.476 63.8226 55.4862 63.7631C55.5253 63.5202 55.5678 63.2773 55.6153 63.0361C55.6629 62.7948 55.7139 62.5553 55.7682 62.3158C55.7818 62.2529 55.7971 62.1901 55.8124 62.1272C55.8566 61.9386 55.9041 61.7501 55.9534 61.5615C55.9687 61.5055 55.9823 61.4494 55.9976 61.395C56.0604 61.1606 56.1267 60.9279 56.198 60.6951C56.2116 60.6493 56.2269 60.6051 56.2405 60.5592C56.2982 60.369 56.3594 60.1804 56.4239 59.9918C56.4477 59.9239 56.4698 59.8559 56.4936 59.7863C56.5616 59.5909 56.6312 59.3956 56.7042 59.2002C56.7178 59.1645 56.7297 59.1272 56.7433 59.0915C56.83 58.8622 56.9217 58.6345 57.0151 58.4086C57.0372 58.3542 57.061 58.2999 57.0848 58.2455C57.1612 58.0654 57.2394 57.8854 57.3192 57.707C57.3447 57.6509 57.3702 57.5932 57.3957 57.5371C57.4993 57.3112 57.6046 57.0869 57.715 56.8644C57.856 56.5807 58.0038 56.2987 58.155 56.0201C58.1737 55.9861 58.1924 55.9504 58.2111 55.9165C58.3572 55.6498 58.5084 55.3864 58.6646 55.1248C58.6901 55.0824 58.7156 55.0382 58.7428 54.9957C58.9008 54.7341 59.0622 54.4759 59.2286 54.2194C59.249 54.1888 59.2677 54.1599 59.2881 54.1293C59.4563 53.8745 59.6295 53.6214 59.8062 53.3717C59.8164 53.3581 59.8266 53.3428 59.8368 53.3275C59.9863 53.1186 60.1392 52.913 60.2938 52.7092C60.3328 52.6582 60.3736 52.6055 60.4127 52.5546C60.5418 52.3864 60.6743 52.2199 60.8068 52.0551C60.8391 52.0144 60.8714 51.9753 60.9036 51.9345C61.065 51.7392 61.2281 51.5455 61.3946 51.3552C61.4337 51.3111 61.4727 51.2686 61.5101 51.2244C61.6494 51.0664 61.7904 50.9102 61.9348 50.7556C61.9756 50.7114 62.0163 50.6672 62.0571 50.6231C62.2236 50.4464 62.3918 50.2714 62.5633 50.0981C62.5769 50.0846 62.5905 50.071 62.6041 50.0574C62.7621 49.8994 62.9235 49.7431 63.0866 49.5885C63.1341 49.5443 63.18 49.5002 63.2276 49.456C63.3703 49.3218 63.5147 49.191 63.6608 49.0602C63.6998 49.0262 63.7372 48.9905 63.7763 48.9566C63.9597 48.7935 64.1466 48.6338 64.3352 48.4775C64.359 48.4571 64.3844 48.4384 64.4082 48.418C64.5713 48.2838 64.7361 48.1513 64.9026 48.0205C64.9535 47.9815 65.0045 47.9407 65.0555 47.9016C65.2117 47.781 65.3714 47.6604 65.5311 47.5432C65.5685 47.516 65.6059 47.4871 65.6449 47.4599C65.8403 47.3172 66.0391 47.1779 66.2378 47.042C66.2769 47.0149 66.316 46.9894 66.355 46.9622C66.5164 46.8535 66.6795 46.7464 66.8426 46.6411C66.9003 46.6037 66.9581 46.5681 67.0159 46.5307C67.2112 46.4067 67.4083 46.2861 67.607 46.1689C67.6274 46.157 67.6478 46.1451 67.6682 46.1315C67.8839 46.0041 68.1031 45.8818 68.3239 45.7612C68.3817 45.7306 68.4394 45.6983 68.4972 45.6677C68.6807 45.5692 68.8658 45.4724 69.0527 45.3789C69.0969 45.3568 69.1393 45.3348 69.1835 45.3127C69.4077 45.2023 69.6337 45.0935 69.8613 44.9899C69.9564 44.9474 70.0499 44.905 70.145 44.8625C70.213 44.8319 70.2809 44.8013 70.3489 44.7725C70.4661 44.7215 70.5833 44.6739 70.7005 44.6264C70.7549 44.6043 70.8075 44.5805 70.8619 44.5584C71.0284 44.4922 71.1949 44.4259 71.363 44.3631C71.4344 44.3359 71.5074 44.3104 71.5788 44.2849C71.6807 44.2475 71.7809 44.2102 71.8829 44.1762C71.9627 44.149 72.0425 44.1218 72.1241 44.0946C72.2192 44.0624 72.3127 44.0318 72.4078 44.0012C72.491 43.974 72.5743 43.9486 72.6592 43.9231C72.7526 43.8942 72.8461 43.8653 72.9395 43.8381C73.0227 43.8126 73.1077 43.7889 73.1926 43.7651C73.2878 43.7379 73.3829 43.7124 73.478 43.6869C73.5613 43.6649 73.6445 43.6428 73.7277 43.6207C73.7923 43.6037 73.8585 43.5884 73.9231 43.5731C74.1236 43.5239 74.3257 43.4763 74.5279 43.4321C74.5805 43.4202 74.6315 43.4083 74.6825 43.3981C74.9254 43.3472 75.17 43.2996 75.4163 43.2554C75.4622 43.247 75.5081 43.2402 75.5539 43.2334C75.7578 43.1994 75.9616 43.1671 76.1672 43.1382C76.2334 43.128 76.3014 43.1195 76.3676 43.1111C76.614 43.0788 76.862 43.0482 77.11 43.0244L102.437 40.5663C102.96 40.5153 103.479 40.4881 103.986 40.4864C104.494 40.483 104.994 40.5034 105.485 40.5459C105.974 40.5884 106.456 40.6529 106.929 40.7396C107.165 40.782 107.398 40.8313 107.627 40.8839C107.858 40.9366 108.086 40.9961 108.312 41.0589L108.313 41.0674Z" fill="#1ABCDC"/>
<path d="M102.435 40.5764C105.114 40.3164 107.61 40.6936 109.822 41.582C111.993 42.4535 113.889 43.8176 115.424 45.5555C116.931 47.2611 118.093 49.3285 118.832 51.6524C119.559 53.939 119.88 56.4787 119.722 59.1848C119.576 61.6888 119.029 64.1249 118.164 66.4097C117.303 68.6827 116.122 70.8181 114.694 72.7326C113.265 74.6471 111.58 76.3493 109.71 77.7508C107.839 79.1523 105.746 80.2718 103.533 80.987L100.91 91.1729L93.0564 83.3721L78.8444 86.4724C76.0193 87.089 73.2588 87.1281 70.6732 86.6609C68.0384 86.1836 65.5803 85.1796 63.4313 83.7152C61.2382 82.222 59.3661 80.2514 57.9613 77.885C56.5292 75.4727 55.5864 72.6562 55.2891 69.5321C54.9867 66.3571 55.3808 63.1871 56.361 60.1888C57.3463 57.1701 58.9177 54.3501 60.946 51.8936C62.971 49.4406 65.4359 47.3715 68.2032 45.8392C70.9433 44.3205 73.9587 43.3403 77.1082 43.0345L102.435 40.5764Z" fill="#303584"/>
<path d="M103.088 59.0881C103.555 59.0099 103.995 59.0388 104.392 59.1577C104.788 59.275 105.141 59.4822 105.434 59.7608C105.726 60.0394 105.957 60.3877 106.113 60.792C106.268 61.1946 106.348 61.6533 106.334 62.151C106.32 62.6436 106.217 63.1312 106.04 63.5882C105.863 64.0451 105.614 64.4715 105.31 64.8487C105.006 65.2258 104.645 65.552 104.248 65.8068C103.849 66.0616 103.412 66.2434 102.953 66.33C102.496 66.4166 102.06 66.3979 101.664 66.2926C101.268 66.1873 100.908 65.9902 100.607 65.7218C100.305 65.4517 100.062 65.1086 99.8939 64.7077C99.7258 64.305 99.6357 63.8447 99.6408 63.3435C99.6459 62.8373 99.7479 62.3379 99.9262 61.869C100.105 61.4001 100.361 60.9601 100.674 60.5728C100.988 60.1872 101.358 59.8559 101.768 59.6011C102.177 59.3463 102.624 59.1696 103.089 59.0915L103.088 59.0881Z" fill="white"/>
<path d="M90.9108 61.1198C91.4086 61.0366 91.8843 61.0638 92.3157 61.1827C92.7455 61.3016 93.1329 61.5122 93.4573 61.7959C93.7801 62.0796 94.0417 62.4381 94.2235 62.8543C94.4035 63.2688 94.5038 63.7394 94.5038 64.2524C94.5038 64.7603 94.4069 65.2632 94.2303 65.7337C94.0536 66.2043 93.7971 66.6477 93.4794 67.0384C93.1617 67.4291 92.7846 67.7689 92.3633 68.0322C91.942 68.2972 91.4765 68.4874 90.989 68.5792C90.4963 68.6726 90.0241 68.6573 89.5926 68.552C89.1594 68.445 88.767 68.2462 88.4357 67.9727C88.1028 67.6975 87.8293 67.3442 87.6373 66.9331C87.4453 66.5203 87.3332 66.0446 87.323 65.5282C87.3128 65.0066 87.4063 64.4919 87.5829 64.0061C87.7596 63.5202 88.0212 63.0649 88.3474 62.6657C88.6736 62.2648 89.0626 61.9217 89.4975 61.6549C89.9306 61.3899 90.4097 61.2031 90.9108 61.1198Z" fill="white"/>
<path d="M77.8178 63.3061C78.3546 63.2161 78.8676 63.2399 79.3365 63.3605C79.8037 63.4794 80.2284 63.6951 80.5868 63.9856C80.9435 64.2761 81.2374 64.6447 81.4447 65.0711C81.6519 65.4975 81.7742 65.9834 81.7912 66.5117C81.8082 67.0366 81.7199 67.5531 81.5432 68.0423C81.3682 68.5299 81.1066 68.9885 80.7771 69.3928C80.4475 69.7972 80.0517 70.1505 79.6066 70.4257C79.1598 70.7026 78.6655 70.9014 78.1388 71.0016C77.6088 71.1018 77.0975 71.0899 76.6286 70.9846C76.1564 70.8793 75.7266 70.6771 75.3579 70.3968C74.9876 70.1148 74.6818 69.7547 74.461 69.33C74.2384 68.9053 74.1025 68.416 74.0754 67.8826C74.0482 67.3492 74.1314 66.8124 74.3081 66.3095C74.4848 65.8067 74.7532 65.3345 75.0929 64.9199C75.4327 64.5037 75.8438 64.1453 76.3059 63.8684C76.7662 63.5915 77.2776 63.3961 77.8195 63.3061H77.8178Z" fill="white"/>
</g>
<defs>
<filter id="filter0_d_676_7743" x="32.7199" y="39" width="89.3219" height="80.5602" filterUnits="userSpaceOnUse" color-interpolation-filters="sRGB">
<feFlood flood-opacity="0" result="BackgroundImageFix"/>
<feColorMatrix in="SourceAlpha" type="matrix" values="0 0 0 0 0 0 0 0 0 0 0 0 0 0 0 0 0 0 127 0" result="hardAlpha"/>
<feOffset dy="2.28007"/>
<feGaussianBlur stdDeviation="1.14003"/>
<feComposite in2="hardAlpha" operator="out"/>
<feColorMatrix type="matrix" values="0 0 0 0 0 0 0 0 0 0 0 0 0 0 0 0 0 0 0.25 0"/>
<feBlend mode="normal" in2="BackgroundImageFix" result="effect1_dropShadow_676_7743"/>
<feBlend mode="normal" in="SourceGraphic" in2="effect1_dropShadow_676_7743" result="shape"/>
</filter>
</defs>
</svg>
