<svg width="154" height="154" viewBox="0 0 154 154" fill="none" xmlns="http://www.w3.org/2000/svg">
<path d="M76.89 153.78C119.355 153.78 153.78 119.355 153.78 76.89C153.78 34.4248 119.355 0 76.89 0C34.4248 0 0 34.4248 0 76.89C0 119.355 34.4248 153.78 76.89 153.78Z" fill="#61CBE6"/>
<mask id="mask0_676_7863" style="mask-type:luminance" maskUnits="userSpaceOnUse" x="0" y="0" width="154" height="154">
<path d="M77 154C119.526 154 154 119.526 154 77C154 34.4741 119.526 0 77 0C34.4741 0 0 34.4741 0 77C0 119.526 34.4741 154 77 154Z" fill="white"/>
</mask>
<g mask="url(#mask0_676_7863)">
<path d="M77 154C119.526 154 154 119.526 154 77C154 34.4741 119.526 0 77 0C34.4741 0 0 34.4741 0 77C0 119.526 34.4741 154 77 154Z" fill="#007F90"/>
</g>
<path d="M112.962 122.997H39.337C33.4998 122.997 30.0144 116.508 33.2291 111.636L69.6565 56.4615C72.8035 51.6903 79.7996 51.6903 82.9466 56.4615L119.213 111.382C122.504 116.356 118.934 122.997 112.962 122.997Z" fill="#E4E7F4"/>
<path d="M41.0456 99.792L76.2294 87.94L113.672 103.007L80.5353 52.6123C77.9551 48.6955 72.1772 48.7886 69.7323 52.79L41.0371 99.8004L41.0456 99.792Z" fill="#FDF9E3"/>
<path d="M102.936 37.9856H76.2285V18.6129H102.936L95.5673 28.2992L102.936 37.9856Z" fill="#ED2490"/>
<path d="M98.4433 35.7606H78.4531V20.8378H98.4433L92.7669 28.2992L98.4433 35.7606ZM79.942 34.2802H95.4571L90.9058 28.2992L95.4571 22.3182H79.942V34.2717V34.2802Z" fill="white"/>
<path d="M77.3362 18.6129H75.1113V49.7276H77.3362V18.6129Z" fill="#231F20"/>
<g style="mix-blend-mode:multiply">
<path d="M77.168 37.9856H82.7852L79.0376 18.6129H77.168V37.9856Z" fill="#84AACD"/>
</g>
<path d="M119.263 81.1808H92.5469V61.7997H119.263L111.886 71.486L119.263 81.1808Z" fill="#5D6DB3"/>
<path d="M114.77 78.9474H94.7793V64.0245H114.77L109.093 71.486L114.77 78.9474ZM96.2597 77.467H111.775L107.223 71.486L111.775 65.505H96.2597V77.4585V77.467Z" fill="white"/>
<path d="M93.6624 61.7997H91.4375V92.9144H93.6624V61.7997Z" fill="#231F20"/>
<g style="mix-blend-mode:multiply">
<path d="M93.4863 81.1808H100.11L95.7028 61.7997H93.4863V81.1808Z" fill="#84AACD"/>
</g>
<path d="M78.2098 63.3648H51.4941V43.9836H78.2098L70.833 53.67L78.2098 63.3648Z" fill="#ECB533"/>
<path d="M73.7168 61.1314H53.7266V46.2085H73.7168L68.0403 53.6699L73.7168 61.1314ZM55.207 59.6509H70.7221L66.1707 53.6699L70.7221 47.6889H55.207V59.6425V59.6509Z" fill="white"/>
<path d="M52.6097 43.9836H50.3848V75.0983H52.6097V43.9836Z" fill="#231F20"/>
<g style="mix-blend-mode:multiply">
<path d="M52.4316 63.3647H58.0489L54.3097 43.9836H52.4316V63.3647Z" fill="#84AACD"/>
</g>
<g style="mix-blend-mode:multiply" opacity="0.27">
<path d="M88.4537 123.428L84.0039 123.496L55.5625 75.9019L57.7536 72.1543L88.4537 123.428Z" fill="#84AACD"/>
</g>
<g style="mix-blend-mode:multiply" opacity="0.27">
<path d="M118.807 120.129C118.807 120.129 119.644 119.486 117.8 121.136C116.142 122.633 113.469 123.403 113.469 123.403L93.436 91.0786L93.0215 86.062L118.807 120.129Z" fill="#84AACD"/>
</g>
<path d="M75.5096 123.301H28.3046C24.5654 123.301 22.3236 118.843 24.3878 115.493L47.7449 77.5514C49.7668 74.2691 54.2504 74.2691 56.2723 77.5514L79.5195 115.315C81.6259 118.742 79.3418 123.301 75.5096 123.301Z" fill="#3B4F5D"/>
<path d="M29.4043 107.346L51.9663 99.1998L75.9748 109.554L54.7326 74.9036C53.0829 72.205 49.3691 72.2727 47.8041 75.0305L29.4043 107.355V107.346Z" fill="#FDF9E3"/>
<g style="mix-blend-mode:multiply" opacity="0.27">
<path d="M77.4474 111.949L75.4932 108.286L63.5566 123.403L68.0318 123.665L77.4474 111.949Z" fill="#84AACD"/>
</g>
<path d="M111.989 123.665H75.291C72.3809 123.665 70.6382 120.907 72.2456 118.843L90.4 95.4268C91.9651 93.405 95.4589 93.405 97.024 95.4268L115.102 118.733C116.743 120.848 114.958 123.665 111.989 123.665Z" fill="#7B5797"/>
<path d="M76.1452 113.818L93.6821 108.785L112.344 115.18L95.8308 93.7941C94.545 92.1276 91.6687 92.1699 90.442 93.8703L76.1367 113.818H76.1452Z" fill="white"/>
<path d="M68.0332 123.665L74.6318 115.459L80.3251 123.665H68.0332Z" fill="#7B5797"/>
</svg>
