<svg width="154" height="154" viewBox="0 0 154 154" fill="none" xmlns="http://www.w3.org/2000/svg">
<circle cx="77" cy="77" r="77" fill="#5723B1"/>
<path d="M95.4648 54.4036L96.2849 55.8191C96.1738 56.3815 96.1174 56.9534 96.1164 57.5267C96.254 60.0794 96.9922 62.5635 98.2708 64.7772C99.5494 66.9909 101.332 68.8715 103.475 70.2662C103.967 70.5604 104.491 70.7978 105.036 70.974L105.879 72.412L108.834 70.7044C110.069 69.8955 110.833 68.3002 110.833 66.0422C110.694 63.4911 109.957 61.0086 108.68 58.7954C107.404 56.5822 105.625 54.7006 103.486 53.3026C101.531 52.1792 99.7563 52.0444 98.4419 52.7184L95.4648 54.4036Z" fill="url(#paint0_linear_676_7471)"/>
<path d="M93.3086 59.19C93.3086 54.4941 96.6114 52.5955 100.667 54.9434C102.807 56.3377 104.589 58.2167 105.867 60.4282C107.146 62.6396 107.885 65.1212 108.025 67.6718C108.025 72.3677 104.723 74.2662 100.667 71.9183C98.5267 70.524 96.7451 68.645 95.4666 66.4335C94.1881 64.2221 93.4488 61.7405 93.3086 59.19Z" fill="#D6D5D5"/>
<path d="M96.0938 54.1234C96.8679 53.9212 97.6763 53.8868 98.4649 54.0224C99.2534 54.1581 100.004 54.4606 100.666 54.9098C102.807 56.3058 104.589 58.1868 105.868 60.4001C107.146 62.6135 107.885 65.097 108.024 67.6493C108.024 70.5028 106.811 72.3227 104.946 72.7833C106.586 72.1655 107.62 70.4129 107.62 67.7729C107.481 65.2206 106.742 62.7371 105.463 60.5237C104.185 58.3103 102.403 56.4294 100.262 55.0333C99.0337 54.2226 97.5479 53.8982 96.0938 54.1234Z" fill="#F0EFEF"/>
<path d="M86.7813 54.6965L91.4771 51.989C93.2634 51.0678 95.645 51.2363 98.2963 52.7192L98.4423 52.7979C99.7553 53.5768 100.96 54.5248 102.026 55.6177C102.239 55.8311 102.453 56.0446 102.655 56.2692C103.151 56.8163 103.616 57.3901 104.048 57.9881C106.832 61.5593 108.449 65.9017 108.677 70.4243C108.677 73.5474 107.553 75.7605 105.891 76.8727L101.195 79.5914L100.655 77.2659C99.8978 77.0148 99.1675 76.6873 98.476 76.2886C93.2297 73.2553 88.9045 66.1778 88.3653 59.9541C88.3207 59.5211 88.2982 59.0861 88.2979 58.6509C88.2923 58.5949 88.2923 58.5384 88.2979 58.4824C88.3 57.7274 88.3791 56.9745 88.5338 56.2355L86.7813 54.6965Z" fill="#3A2457"/>
<path opacity="0.2" d="M87.7246 58.8066L98.3409 52.684L98.487 52.7626C99.7999 53.5415 101.005 54.4895 102.071 55.5824L89.904 62.5588L87.7246 58.8066Z" fill="white"/>
<path opacity="0.15" d="M90.3535 63.368L102.711 56.2343C103.206 56.7814 103.672 57.3552 104.104 57.9531L91.4432 65.2554L90.3535 63.368Z" fill="white"/>
<path d="M83.8262 61.2348C83.8262 54.7414 88.3873 52.1127 94.0043 55.3593C99.6214 58.606 104.183 66.5036 104.183 72.9858C104.183 79.4679 99.6327 82.1079 94.0043 78.8612C88.376 75.6146 83.8262 67.7282 83.8262 61.2348Z" fill="#79291D"/>
<path d="M86.6699 54.6963C88.5236 53.5729 91.1636 53.6515 94.0058 55.3254C99.6229 58.5721 104.184 66.4585 104.184 72.9518C104.184 76.3221 102.982 78.5689 101.061 79.6137C102.825 78.4903 103.903 76.2435 103.914 73.1204C103.914 66.627 99.3533 58.7294 93.725 55.4827C90.9838 53.9436 88.5011 53.7526 86.6699 54.6963Z" fill="#CD4031"/>
<path d="M96.1172 49.539C96.1172 49.539 95.3084 46.5057 95.241 46.4159C95.1735 46.326 93.084 42.3378 93.084 42.3378L88.1072 40.9897L88.2758 41.5402C87.9036 41.488 87.5282 41.4617 87.1523 41.4616C88.2436 43.5364 88.7778 45.859 88.7027 48.2021L88.7027 65.7162L95.4993 69.6369L95.7016 67.9967C95.7016 67.9967 96.0835 59.6834 96.0498 59.5261C96.0161 59.3689 96.1172 49.539 96.1172 49.539Z" fill="#382253"/>
<path d="M82.5352 57.7972L87.0288 55.1796C88.6578 54.3595 90.8035 54.4494 93.1964 55.6739C93.3761 55.7638 93.5671 55.8649 93.7469 55.9773C94.9415 56.6841 96.0434 57.537 97.0272 58.5162C97.2407 58.7296 97.4541 58.9431 97.6564 59.179C98.1507 59.7182 98.6337 60.3024 99.0831 60.8754C101.795 64.339 103.365 68.5585 103.577 72.9521C103.577 75.9516 102.554 78.0861 100.903 79.1646L96.4094 81.7822L95.8926 79.5353C95.1622 79.2928 94.4583 78.9766 93.7918 78.5917C90.0948 76.2185 87.2254 72.7564 85.5796 68.6831C85.2887 68.0042 85.0337 67.3105 84.8157 66.6048C84.7258 66.3015 84.6359 66.0206 84.5573 65.7285C84.1996 64.3867 84.0109 63.0054 83.9956 61.6168C83.9956 61.4034 83.9956 61.1899 83.9956 60.9877C84.0285 60.4292 84.0998 59.8737 84.209 59.325L82.5352 57.7972Z" fill="url(#paint1_linear_676_7471)"/>
<path opacity="0.2" d="M92.5457 61.1451L97.0394 58.5276C96.0556 57.5483 94.9536 56.6955 93.759 55.9886C93.5792 55.8763 93.3883 55.7752 93.2085 55.6853L88.7148 58.2579C90.0962 59.0733 91.3813 60.0418 92.5457 61.1451Z" fill="white"/>
<path opacity="0.15" d="M94.7354 63.4249L99.1392 60.886C98.6898 60.2906 98.2067 59.7625 97.7124 59.1896L93.2188 61.7847C93.7243 62.3239 94.2411 62.8744 94.7354 63.4249Z" fill="white"/>
<path d="M79.6699 64.1317C79.6699 57.8854 84.0513 55.3578 89.4661 58.5146C94.881 61.6714 99.2736 69.2432 99.2623 75.4894C99.2511 81.7356 94.881 84.2745 89.4661 81.1065C84.0513 77.9385 79.6699 70.4228 79.6699 64.1317Z" fill="#040404"/>
<path d="M67.5938 50.8191L67.5938 94.7897L90.9271 108.192L92.6797 109.203L92.8594 109.304L92.9942 109.372L93.2302 109.518C93.3204 109.569 93.4143 109.614 93.511 109.653C94.0926 109.978 94.7436 110.159 95.4096 110.181C95.9127 110.167 96.4024 110.016 96.8251 109.742L101.566 107.001C101.724 106.928 101.861 106.815 101.963 106.673C102.066 106.531 102.13 106.366 102.15 106.192L102.15 62.1993L95.4321 65.9291L94.9153 66.0302L93.4548 65.2101L92.9381 64.9292L67.5938 50.8191Z" fill="#999043"/>
<path d="M92.9375 61.2342L92.9937 109.373L93.2296 109.519C93.3198 109.57 93.4137 109.615 93.5104 109.654L93.4543 61.0544L92.9375 61.2342Z" fill="url(#paint2_linear_676_7471)"/>
<path d="M77.4692 50.3476L74.9639 47.1459L74.7168 46.719L75.301 46.382L101.522 61.4358C101.692 61.4963 101.84 61.6082 101.944 61.7561C102.048 61.9039 102.104 62.0805 102.104 62.2615C102.104 62.4425 102.048 62.619 101.944 62.7669C101.84 62.9147 101.692 63.0266 101.522 63.0872L96.7695 65.9294C95.6461 66.5361 94.5227 66.4799 92.8038 65.4464L90.8828 64.3229L77.4692 50.3476Z" fill="#2B64A5"/>
<path d="M74.7269 46.7088L99.9476 61.2234L99.9476 61.5267L93.6902 65.1554L72.2441 50.7307L74.7269 47.3829L74.7269 46.7088Z" fill="url(#paint3_linear_676_7471)"/>
<path d="M92.4434 64.4355L93.6904 65.1545L99.9478 61.5259L98.712 60.8069L92.4434 64.4355Z" fill="#D8D9D8"/>
<path d="M98.7018 60.807L98.6681 60.8183L95.9832 62.3798L94.7362 63.0988L94.4216 63.2898L93.2982 63.9414L92.4444 64.4244L92.4332 64.4357L69.2907 51.1119L68.7066 50.7749L68.6841 50.7637L68.6504 50.7412L68.6841 50.7187L69.5154 50.2357L70.9422 49.4156L72.1892 48.6853L72.2004 48.6853L74.9191 47.1238L74.9191 47.1125L78.9521 49.4268L80.3676 50.2469L98.4771 60.6834L98.7018 60.807Z" fill="#E9E8E9"/>
<g style="mix-blend-mode:multiply" opacity="0.1">
<path d="M98.7007 60.8084L96.0157 62.3587L72.1992 48.6867L74.9179 47.1252L78.715 49.3046L80.1418 50.1247L80.3665 50.2483L98.7007 60.8084Z" fill="#DCDBE4"/>
</g>
<g style="mix-blend-mode:multiply" opacity="0.1">
<path d="M69.5156 50.2354L70.9424 49.4041L70.9536 49.4153L71.0098 49.4378L94.7364 63.0985L94.4218 63.2895L93.2984 63.9298L69.583 50.2691L69.5156 50.2354Z" fill="#DCDBE4"/>
</g>
<path d="M67.5938 50.8414L90.8934 64.2663L91.5113 63.9068L68.2116 50.4819L67.5938 50.8414Z" fill="#2B64A5"/>
<path d="M95.6126 71.5472C96.0106 71.5117 96.395 71.3849 96.736 71.1764L98.2638 70.2889L101.488 68.4353C101.632 68.3671 101.759 68.2668 101.858 68.1422C101.957 68.0176 102.027 67.8719 102.061 67.7163L102.061 72.9964C102.044 73.1681 101.983 73.3323 101.882 73.4724C101.781 73.6125 101.645 73.7234 101.488 73.794L96.7472 76.5464C96.2259 76.8312 95.637 76.9691 95.0434 76.9453C94.4499 76.9216 93.8739 76.7371 93.377 76.4116L93.377 71.0753C94.059 71.4504 94.8371 71.6146 95.6126 71.5472Z" fill="url(#paint4_linear_676_7471)"/>
<path d="M93.5234 101.734L93.5234 104.037C94.1789 104.409 94.9278 104.584 95.6804 104.542C96.0778 104.504 96.4616 104.377 96.8038 104.171L98.3317 103.284L101.545 101.43C101.688 101.359 101.814 101.258 101.914 101.134C102.015 101.01 102.088 100.866 102.129 100.711L102.129 98.4082C102.088 98.5627 102.015 98.7067 101.914 98.8307C101.814 98.9547 101.688 99.0558 101.545 99.1272L98.3541 100.992L96.8151 101.88C96.4727 102.087 96.0893 102.217 95.6916 102.262C94.9334 102.295 94.1814 102.112 93.5234 101.734Z" fill="url(#paint5_linear_676_7471)"/>
<g style="mix-blend-mode:overlay" opacity="0.5">
<path d="M79.7831 57.9546C74.4918 54.8876 69.8184 52.124 69.8184 52.124L79.7831 57.9546Z" fill="#C1C1C1"/>
</g>
<g style="mix-blend-mode:overlay" opacity="0.5">
<path d="M92.9497 65.6605L79.7832 57.9539C84.7375 60.8298 90.2198 63.9529 92.9497 65.3347L92.9497 65.6605Z" fill="#D8D9D8"/>
</g>
<g style="mix-blend-mode:overlay" opacity="0.5">
<path d="M93.5234 65.604C93.8574 65.777 94.2027 65.9271 94.557 66.0534C95.1357 66.2283 95.7533 66.2283 96.332 66.0534C96.0903 66.1357 95.857 66.241 95.6355 66.3679C95.4184 66.56 95.2495 66.8004 95.1422 67.0696C95.0349 67.3389 94.9922 67.6295 95.0176 67.9182C95.0176 68.9069 95.085 106.901 95.085 106.901C95.085 106.901 94.6469 69.5023 94.6469 68.5361C94.6709 67.9189 94.5834 67.3024 94.3885 66.7162C94.2555 66.4167 94.009 66.1824 93.7032 66.0646L93.5234 65.9298L93.5234 65.604Z" fill="#D8D9D8"/>
</g>
<path d="M59.5273 55.5373L59.5273 99.5079L82.8607 112.899L84.602 113.91L84.7818 114.011L84.9166 114.09L85.1525 114.225L85.4334 114.359C86.0154 114.683 86.6662 114.864 87.3319 114.887C87.8308 114.888 88.3202 114.752 88.7474 114.494L93.522 111.753C93.6824 111.684 93.8206 111.571 93.9216 111.429C94.0226 111.286 94.0826 111.119 94.0949 110.944L94.0949 66.9512L87.4218 70.6809L86.9163 70.782L85.4446 69.962L84.9278 69.6811L59.5273 55.5373Z" fill="#8377B1"/>
<path d="M84.8613 65.9297L84.9175 114.068L85.1534 114.203L85.4343 114.338L85.4343 65.75L84.8613 65.9297Z" fill="#76A350"/>
<path d="M69.3915 55.0543L66.8975 51.8526L66.6504 51.4144L67.2346 51.0774L93.4439 66.1874C93.6145 66.248 93.7621 66.3599 93.8664 66.5077C93.9708 66.6556 94.0269 66.8321 94.0269 67.0131C94.0269 67.1941 93.9708 67.3706 93.8664 67.5185C93.7621 67.6663 93.6145 67.7782 93.4439 67.8388L88.6919 70.5799C87.5684 71.1866 86.445 71.1416 84.7262 70.0969L82.8164 68.9734L69.3915 55.0543Z" fill="#87AC51"/>
<path d="M66.6507 51.4268L91.8715 65.9413L91.8715 66.2334L85.614 69.8621L64.168 55.4374L66.662 52.1008L66.6507 51.4268Z" fill="url(#paint6_linear_676_7471)"/>
<path d="M84.3672 69.1433L85.6142 69.8623L91.8716 66.2336L90.6359 65.5146L84.3672 69.1433Z" fill="#D8D9D8"/>
<path d="M90.6237 65.5138L90.6012 65.525L87.9163 67.0866L86.658 67.8168L86.3435 67.9966L85.2201 68.6481L84.3663 69.1424L84.355 69.1537L61.2126 55.8187L60.6284 55.4929L60.6172 55.4704L60.5723 55.448L60.6172 55.4367L61.4373 54.9537L62.8753 54.1223L64.111 53.4034L64.1223 53.4034L66.8409 51.8306L66.8522 51.8306L70.874 54.1336L72.3008 54.9649L90.399 65.3902L90.6237 65.5138Z" fill="#E9E8E9"/>
<g style="mix-blend-mode:multiply" opacity="0.1">
<path d="M90.6245 65.5138L87.9395 67.0754L64.123 53.4034L66.8417 51.8306L70.6501 54.01L72.0768 54.8413L72.3015 54.9649L90.6245 65.5138Z" fill="#DCDBE4"/>
</g>
<g style="mix-blend-mode:multiply" opacity="0.1">
<path d="M61.4375 54.9422L62.8755 54.1221L62.8755 54.1333L62.9316 54.1558L86.6695 67.8165L86.3549 67.9963L85.2203 68.6479L61.5049 54.9759L61.4487 54.9534L61.4375 54.9422Z" fill="#DCDBE4"/>
</g>
<path d="M59.5156 55.5482L82.8153 68.9731L83.4444 68.6136L60.1335 55.2L59.5156 55.5482Z" fill="#87AC51"/>
<path d="M85.4219 108.114L85.4219 108.687C86.0791 109.056 86.8259 109.235 87.5788 109.204C87.9762 109.158 88.3593 109.028 88.7023 108.822L90.2301 107.935L93.5217 106.081C93.6683 106.015 93.7975 105.915 93.8989 105.791C94.0003 105.666 94.0712 105.519 94.1059 105.362L94.1059 104.789C94.0712 104.946 94.0003 105.093 93.8989 105.218C93.7975 105.342 93.6683 105.442 93.5217 105.508L90.3087 107.362L88.7809 108.249C88.4371 108.451 88.0541 108.578 87.6575 108.62C86.879 108.672 86.1023 108.496 85.4219 108.114Z" fill="url(#paint7_linear_676_7471)"/>
<path d="M85.3887 81.0746L85.3887 81.6588C86.0459 82.0275 86.7927 82.2065 87.5456 82.1755C87.9433 82.1311 88.3267 82.0007 88.6691 81.7936L90.2081 80.9061L93.4099 79.0524C93.5565 78.9863 93.6856 78.8869 93.787 78.7621C93.8884 78.6372 93.9593 78.4905 93.9941 78.3334L93.9941 77.7605C93.9593 77.9175 93.8884 78.0643 93.787 78.1891C93.6856 78.3139 93.5565 78.4134 93.4099 78.4795L90.2081 80.3331L88.6691 81.2206C88.3233 81.4184 87.9412 81.5445 87.5456 81.5914C86.7925 81.6241 86.0452 81.445 85.3887 81.0746Z" fill="url(#paint8_linear_676_7471)"/>
<path d="M85.4219 106.183L85.4219 106.767C85.9179 107.095 86.4941 107.28 87.0882 107.304C87.6823 107.328 88.2715 107.189 88.7921 106.902L93.5217 104.127C93.6786 104.052 93.8138 103.939 93.9141 103.797C94.0145 103.656 94.0766 103.49 94.0947 103.318L94.0947 102.722C94.0785 102.897 94.0172 103.065 93.9167 103.208C93.8163 103.352 93.6802 103.467 93.5217 103.543L88.7472 106.374C88.227 106.644 87.6435 106.769 87.0583 106.735C86.473 106.701 85.9077 106.511 85.4219 106.183Z" fill="url(#paint9_linear_676_7471)"/>
<path d="M85.3887 82.1515L85.3887 82.7806C85.8856 83.1062 86.4616 83.2906 87.0551 83.3144C87.6487 83.3381 88.2376 83.2002 88.7589 82.9154L93.5222 80.1294C93.6791 80.0551 93.8143 79.9416 93.9146 79.8C94.015 79.6583 94.0771 79.4932 94.0952 79.3205L94.0952 78.7363C94.0761 78.9087 94.0135 79.0733 93.9133 79.2148C93.8131 79.3563 93.6785 79.47 93.5222 79.5452L88.7702 82.2863C88.2475 82.5733 87.6565 82.7124 87.0607 82.6886C86.4649 82.6649 85.8868 82.4792 85.3887 82.1515Z" fill="url(#paint10_linear_676_7471)"/>
<path d="M85.4004 83.4316L85.4004 84.0046C85.8973 84.3301 86.4733 84.5146 87.0669 84.5383C87.6604 84.5621 88.2493 84.4242 88.7706 84.1394L93.5227 81.3983C93.6816 81.3268 93.8186 81.2141 93.9193 81.0718C94.0201 80.9296 94.0809 80.7631 94.0956 80.5894L94.0956 80.0164C94.079 80.1881 94.0173 80.3524 93.9166 80.4924C93.816 80.6325 93.6801 80.7435 93.5227 80.8141L88.7257 83.5664C88.2098 83.8426 87.6294 83.9758 87.0447 83.9521C86.46 83.9284 85.8923 83.7487 85.4004 83.4316Z" fill="url(#paint11_linear_676_7471)"/>
<g style="mix-blend-mode:overlay" opacity="0.5">
<path d="M71.7162 62.6716C66.4249 59.6047 61.7402 56.8298 61.7402 56.8298L71.7162 62.6716Z" fill="#C1C1C1"/>
</g>
<g style="mix-blend-mode:overlay" opacity="0.5">
<path d="M84.872 70.4234L71.7168 62.6718C76.6711 65.5365 82.1534 68.6596 84.872 70.0526L84.872 70.4234Z" fill="#D8D9D8"/>
</g>
<g style="mix-blend-mode:overlay" opacity="0.5">
<path d="M85.4121 70.322C85.7432 70.4978 86.0891 70.6444 86.4457 70.7602C87.0247 70.9331 87.6416 70.9331 88.2207 70.7602C87.9828 70.8383 87.7532 70.94 87.5354 71.0635C87.3094 71.2607 87.135 71.5102 87.0273 71.7901C86.9196 72.0701 86.8819 72.3721 86.9175 72.67C86.9175 73.6473 86.9737 111.653 86.9737 111.653C86.9737 111.653 86.5355 74.209 86.5131 73.2429C86.5379 72.6302 86.4543 72.0178 86.2659 71.4342C86.1303 71.134 85.8852 70.8969 85.5806 70.7714L85.4121 70.6815L85.4121 70.322Z" fill="#D8D9D8"/>
</g>
<path d="M51.4395 60.2119L51.4395 104.025L74.683 117.349L76.4243 118.36L76.604 118.461L76.7388 118.54L76.9747 118.675C77.0599 118.728 77.1502 118.774 77.2444 118.809C77.8264 119.133 78.4772 119.314 79.1429 119.337C79.6374 119.332 80.1217 119.196 80.5472 118.944L85.2768 116.214C85.4335 116.143 85.5688 116.032 85.6693 115.892C85.7698 115.752 85.832 115.588 85.8497 115.417L85.8497 71.6034L79.2104 75.3219L78.6936 75.423L77.2444 74.6029L76.6714 74.2996L51.4395 60.2119Z" fill="#C34143"/>
<path d="M76.6699 70.5926L76.6699 118.54L76.9058 118.675C76.991 118.729 77.0813 118.774 77.1755 118.81L77.1867 70.4241L76.6699 70.5926Z" fill="#D6873C"/>
<path d="M61.269 59.7393L58.7862 56.5488L58.5391 56.1219L59.1232 55.7849L85.2202 70.8387C86.0066 71.2881 86.0066 71.9621 85.2202 72.4789L80.4907 75.1976C79.4346 75.8042 78.2438 75.7481 76.5475 74.7145L74.6376 73.5911L61.269 59.7393Z" fill="#F7BD57"/>
<path d="M58.5379 56.1116L83.6576 70.57L83.6688 70.8733L77.4226 74.4795L56.0664 60.1109L58.5379 56.7856L58.5379 56.1116Z" fill="#D6873C"/>
<path d="M76.1875 73.771L77.4233 74.4788L83.6695 70.8726L82.4225 70.1536L76.1875 73.771Z" fill="#D8D9D8"/>
<path d="M82.4235 70.1539L82.3898 70.1652L79.716 71.7267L78.469 72.4457L78.1545 72.6254L77.0311 73.277L76.1885 73.7601L76.1773 73.7713L53.1247 60.5038L52.5518 60.1667L52.5293 60.1443L52.4844 60.133L52.5293 60.1106L53.3494 59.6275L54.7761 58.8074L56.0119 58.0884L56.0231 58.0884L58.7306 56.5269L58.7418 56.5156L62.7524 58.8186L64.1567 59.6387L82.1988 70.0303L82.4235 70.1539Z" fill="#E9E8E9"/>
<g style="mix-blend-mode:multiply" opacity="0.1">
<path d="M82.4218 70.1549L79.7368 71.7052L56.0215 58.0894L58.7289 56.5278L62.5148 58.696L63.9416 59.5161L64.155 59.6397L82.4218 70.1549Z" fill="#DCDBE4"/>
</g>
<g style="mix-blend-mode:multiply" opacity="0.1">
<path d="M53.3477 59.6267L54.7744 58.8066L54.7744 58.8179L54.8306 58.8291L78.4673 72.4449L78.1527 72.6247L77.0293 73.265L53.4151 59.6604L53.3589 59.6267L53.3477 59.6267Z" fill="#DCDBE4"/>
</g>
<path d="M51.4277 60.234L74.6376 73.6027L75.2667 73.2432L52.0456 59.8745L51.4277 60.234Z" fill="#F7BD57"/>
<g style="mix-blend-mode:overlay" opacity="0.5">
<path d="M63.5834 67.3235C58.3145 64.2678 53.6523 61.5042 53.6523 61.5042L63.5834 67.3235Z" fill="#C1C1C1"/>
</g>
<g style="mix-blend-mode:overlay" opacity="0.5">
<path d="M76.6699 74.9847L63.582 67.323C68.5138 70.1765 73.9736 73.2883 76.6923 74.6702L76.6699 74.9847Z" fill="#C1C1C1"/>
</g>
<g style="mix-blend-mode:overlay" opacity="0.5">
<path d="M77.2207 74.9172C77.5542 75.0881 77.8996 75.2345 78.2542 75.3554C78.8334 75.5277 79.4501 75.5277 80.0292 75.3554C79.7877 75.4333 79.5543 75.5349 79.3327 75.6587C79.1157 75.8508 78.9468 76.0911 78.8394 76.3604C78.7321 76.6296 78.6895 76.9203 78.7148 77.209C78.7148 78.1864 78.7823 116.034 78.7823 116.034C78.7823 116.034 78.3441 78.7481 78.3217 77.8381C78.3441 77.2292 78.2604 76.621 78.0745 76.0407C77.9366 75.7447 77.6918 75.5119 77.3892 75.3891L77.2319 75.2992L77.2207 74.9172Z" fill="#C1C1C1"/>
</g>
<path d="M54.707 74.2428L59.2007 71.6365C60.8409 70.8051 62.9866 70.9062 65.3795 72.1308L65.9187 72.4229C67.1174 73.1282 68.22 73.9853 69.1991 74.973C69.4238 75.1752 69.626 75.3999 69.8395 75.6246C70.3338 76.1638 70.8056 76.748 71.2662 77.3322C73.9742 80.7935 75.544 85.0083 75.7599 89.3977C75.7599 92.4085 74.7263 94.543 73.0862 95.6102L68.5925 98.2165L68.0645 95.9697C67.3376 95.7272 66.6374 95.411 65.9749 95.026C62.2754 92.6557 59.4053 89.1927 57.7627 85.1175C57.4663 84.4395 57.2076 83.7457 56.9876 83.0392C56.8977 82.7471 56.8191 82.455 56.7404 82.1629C56.3764 80.8223 56.1876 79.4403 56.1787 78.0512C56.1787 77.8377 56.1787 77.6355 56.1787 77.4333C56.2124 76.8712 56.2837 76.312 56.3922 75.7594L54.707 74.2428Z" fill="url(#paint12_linear_676_7471)"/>
<path opacity="0.2" d="M64.7068 77.5916L69.2005 74.9853C68.2214 73.9976 67.1188 73.1405 65.9201 72.4352L65.437 72.1431L60.9434 74.7045C62.3008 75.5246 63.5631 76.4929 64.7068 77.5916Z" fill="white"/>
<path opacity="0.15" d="M66.8975 79.871L71.3013 77.3433C70.8407 76.7367 70.3688 76.2199 69.8745 75.6357L65.3809 78.2421C65.8976 78.7701 66.4032 79.3206 66.8975 79.871Z" fill="white"/>
<path d="M51.832 80.5909C51.832 74.3447 56.2246 71.8058 61.6395 74.9738C67.0543 78.1419 71.4357 85.7025 71.4357 91.9487C71.4357 98.1949 67.0431 100.734 61.6395 97.5658C56.2358 94.3977 51.832 86.8371 51.832 80.5909Z" fill="#040404"/>
<path d="M85.311 36.721C82.2891 34.9685 78.2223 35.2157 73.6724 37.8445C64.5727 43.0908 57.2031 55.8191 57.2031 66.3568L57.2031 83.9046L63.9436 87.8366L64.7076 84.7247L64.3144 70.7269L65.1345 64.5256L67.7857 57.5492L69.9315 52.8309L73.1444 48.8202L76.1664 45.641L80.4916 42.7201L85.4571 40.7316L86.7827 40.9339L89.0296 41.2709L89.4565 41.3383L92.5122 40.9002L85.311 36.721Z" fill="#472D5B"/>
<path d="M96.8932 51.3257L96.8932 58.4482L95.4103 57.1563L95.4103 52.1233C95.4103 46.3827 92.9613 42.6754 89.209 41.698C88.5081 41.519 87.7867 41.4322 87.0633 41.4396C84.7238 41.5326 82.4482 42.2292 80.4576 43.4618C72.178 48.2476 65.4375 59.8862 65.4375 69.424L65.4375 86.9381L63.9434 87.8031L63.9434 70.2778C63.9434 59.7851 71.313 47.0118 80.4127 41.7654C82.059 40.7823 83.8592 40.0835 85.7377 39.6983C86.534 39.5516 87.3438 39.4913 88.153 39.5186C89.5285 39.5672 90.871 39.953 92.0625 40.642C95.0845 42.3384 96.8932 46.0232 96.8932 51.3257Z" fill="#BD8BB6"/>
<path d="M49.3047 76.7489L54.0006 74.0302C55.7868 73.1203 58.1797 73.2775 60.8197 74.7605L60.9433 74.9177C62.2527 75.6969 63.4538 76.645 64.5158 77.7375C64.7292 77.951 64.9427 78.1756 65.1449 78.4003C65.6454 78.9255 66.1179 79.4768 66.5604 80.0518C69.3446 83.6255 70.9537 87.9739 71.1664 92.4992C71.1664 95.6223 70.043 97.8355 68.3916 98.9477L63.6957 101.666L63.1901 99.3521C62.4063 99.1133 61.6524 98.7853 60.9433 98.3747C55.6969 95.3415 51.3718 88.2639 50.8325 82.0402C50.8104 81.6099 50.8104 81.1786 50.8325 80.7483L50.8325 80.5348C50.8338 79.7798 50.9129 79.0269 51.0685 78.288L49.3047 76.7489Z" fill="#3A2457"/>
<path opacity="0.2" d="M50.2148 80.9161L60.8311 74.7822L60.9435 74.917C62.2528 75.6962 63.454 76.6443 64.516 77.7368L52.4055 84.702L50.2148 80.9161Z" fill="white"/>
<path opacity="0.15" d="M52.8438 85.4655L65.2014 78.343C65.6843 78.8878 66.138 79.4578 66.5607 80.0506L53.9335 87.3641L52.8438 85.4655Z" fill="white"/>
<path d="M46.3398 83.3307C46.3398 76.8374 50.8897 74.2086 56.518 77.4552C62.1463 80.7019 66.6849 88.5996 66.6849 95.1379C66.6849 101.676 62.1239 104.271 56.5068 101.025C50.8897 97.7779 46.3398 89.8241 46.3398 83.3307Z" fill="#BB8CB9"/>
<path d="M47.3711 82.4778L48.1912 83.9045C48.0745 84.4661 48.0181 85.0386 48.0227 85.6121C48.1558 88.1594 48.8861 90.6397 50.1545 92.8527C51.423 95.0657 53.1941 96.9494 55.3249 98.3517C55.8232 98.6415 56.3503 98.8787 56.8977 99.0594L57.729 100.486L60.6836 98.7786C61.9306 97.9697 62.6945 96.3745 62.6945 94.1164C62.561 91.5664 61.8294 89.0835 60.559 86.8685C59.2885 84.6535 57.5148 82.7684 55.3811 81.3656C53.4263 80.2422 51.6513 80.1074 50.3369 80.7814L47.3711 82.4778Z" fill="url(#paint13_linear_676_7471)"/>
<path d="M45.2148 87.2754C45.2148 82.5908 48.5065 80.6922 52.5732 83.0401C54.7121 84.435 56.492 86.3144 57.7685 88.5259C59.0451 90.7374 59.7823 93.2187 59.9204 95.7685C59.9204 100.464 56.6288 102.363 52.5732 100.015C50.4296 98.6216 48.6456 96.7413 47.3668 94.5273C46.088 92.3134 45.3507 89.8285 45.2148 87.2754V87.2754Z" fill="#D6D5D5"/>
<path d="M48.002 82.1966C48.7761 81.9945 49.5845 81.9601 50.3731 82.0957C51.1616 82.2313 51.9121 82.5338 52.5743 82.983C54.7146 84.379 56.4954 86.2602 57.772 88.4737C59.0487 90.6873 59.7851 93.1709 59.9214 95.7226C59.9214 98.576 58.7194 100.396 56.8545 100.857C58.4947 100.239 59.5282 98.4862 59.5282 95.8461C59.3906 93.2934 58.6525 90.8093 57.3739 88.5956C56.0953 86.3819 54.3123 84.5013 52.1698 83.1066C50.9427 82.2938 49.4561 81.9693 48.002 82.1966Z" fill="#F0EFEF"/>
<path d="M49.1699 76.8266C51.0123 75.7032 53.6636 75.793 56.5058 77.4557C62.1229 80.7024 66.684 88.5888 66.684 95.0934C66.684 98.4636 65.482 100.71 63.5497 101.755C65.3134 100.632 66.3919 98.385 66.4032 95.2506C66.4032 88.7573 61.8421 80.8596 56.225 77.613C53.4838 76.0402 51.0011 75.8492 49.1699 76.8266Z" fill="#CD4031"/>
<defs>
<linearGradient id="paint0_linear_676_7471" x1="108.672" y1="70.7761" x2="98.2751" y2="52.7675" gradientUnits="userSpaceOnUse">
<stop stop-color="#CFD1D0"/>
<stop offset="0.71" stop-color="#EEF1F1"/>
<stop offset="0.93" stop-color="#E4E5E5"/>
<stop offset="0.99" stop-color="#E0E1E0"/>
</linearGradient>
<linearGradient id="paint1_linear_676_7471" x1="100.718" y1="79.2873" x2="86.8609" y2="55.2857" gradientUnits="userSpaceOnUse">
<stop stop-color="#141620"/>
<stop offset="0.71" stop-color="#23283F"/>
<stop offset="0.86" stop-color="#1D2133"/>
<stop offset="0.99" stop-color="#161723"/>
</linearGradient>
<linearGradient id="paint2_linear_676_7471" x1="93.4206" y1="85.8146" x2="92.9038" y2="85.8146" gradientUnits="userSpaceOnUse">
<stop stop-color="#20304B"/>
<stop offset="0.99" stop-color="#213A65"/>
</linearGradient>
<linearGradient id="paint3_linear_676_7471" x1="9237.18" y1="-6474.14" x2="8554.29" y2="-6473.31" gradientUnits="userSpaceOnUse">
<stop stop-color="#20304B"/>
<stop offset="0.99" stop-color="#213A65"/>
</linearGradient>
<linearGradient id="paint4_linear_676_7471" x1="102.072" y1="72.8166" x2="93.4219" y2="72.8166" gradientUnits="userSpaceOnUse">
<stop stop-color="#D19940"/>
<stop offset="0.16" stop-color="#D8A341"/>
<stop offset="1" stop-color="#EDA940"/>
</linearGradient>
<linearGradient id="paint5_linear_676_7471" x1="-2891.51" y1="459.566" x2="-2825.25" y2="459.566" gradientUnits="userSpaceOnUse">
<stop stop-color="#D19940"/>
<stop offset="0.16" stop-color="#D8A341"/>
<stop offset="1" stop-color="#EDA940"/>
</linearGradient>
<linearGradient id="paint6_linear_676_7471" x1="91.8556" y1="60.6135" x2="64.1634" y2="60.6473" gradientUnits="userSpaceOnUse">
<stop stop-color="#4D552C"/>
<stop offset="0.99" stop-color="#646F39"/>
</linearGradient>
<linearGradient id="paint7_linear_676_7471" x1="-2864.45" y1="386.333" x2="-2797.5" y2="386.333" gradientUnits="userSpaceOnUse">
<stop stop-color="#D19940"/>
<stop offset="0.16" stop-color="#D8A341"/>
<stop offset="1" stop-color="#EDA940"/>
</linearGradient>
<linearGradient id="paint8_linear_676_7471" x1="-2837.69" y1="252.952" x2="-2771.43" y2="252.952" gradientUnits="userSpaceOnUse">
<stop stop-color="#D19940"/>
<stop offset="0.16" stop-color="#D8A341"/>
<stop offset="1" stop-color="#EDA940"/>
</linearGradient>
<linearGradient id="paint9_linear_676_7471" x1="-2860.55" y1="386.819" x2="-2793.77" y2="386.819" gradientUnits="userSpaceOnUse">
<stop stop-color="#D19940"/>
<stop offset="0.16" stop-color="#D8A341"/>
<stop offset="1" stop-color="#EDA940"/>
</linearGradient>
<linearGradient id="paint10_linear_676_7471" x1="-2872.03" y1="264.62" x2="-2804.99" y2="264.62" gradientUnits="userSpaceOnUse">
<stop stop-color="#D19940"/>
<stop offset="0.16" stop-color="#D8A341"/>
<stop offset="1" stop-color="#EDA940"/>
</linearGradient>
<linearGradient id="paint11_linear_676_7471" x1="-2868.2" y1="268.734" x2="-2801.25" y2="268.734" gradientUnits="userSpaceOnUse">
<stop stop-color="#D19940"/>
<stop offset="0.16" stop-color="#D8A341"/>
<stop offset="1" stop-color="#EDA940"/>
</linearGradient>
<linearGradient id="paint12_linear_676_7471" x1="10069.1" y1="4131.52" x2="10588.7" y2="4131.52" gradientUnits="userSpaceOnUse">
<stop stop-color="#141620"/>
<stop offset="0.71" stop-color="#23283F"/>
<stop offset="0.86" stop-color="#1D2133"/>
<stop offset="0.99" stop-color="#161723"/>
</linearGradient>
<linearGradient id="paint13_linear_676_7471" x1="7383.61" y1="2873.18" x2="7667.4" y2="2873.18" gradientUnits="userSpaceOnUse">
<stop stop-color="#CFD1D0"/>
<stop offset="0.71" stop-color="#EEF1F1"/>
<stop offset="0.93" stop-color="#E4E5E5"/>
<stop offset="0.99" stop-color="#E0E1E0"/>
</linearGradient>
</defs>
</svg>
