<svg width="154" height="154" viewBox="0 0 154 154" fill="none" xmlns="http://www.w3.org/2000/svg">
<circle cx="77" cy="77" r="77" fill="#F1A816"/>
<g clip-path="url(#clip0_676_7550)">
<path d="M41.8223 96.7139L41.8318 99.1935L69.3539 115.192L69.3444 112.712L41.8223 96.7139Z" fill="#271930"/>
<path d="M69.3457 112.712L69.3552 115.192L115.08 88.7812L115.08 86.3111L69.3457 112.712Z" fill="#271930"/>
<path d="M41.8223 96.7131L69.3444 112.711L115.078 86.3104L87.5468 70.3121L41.8223 96.7131Z" fill="#3D2E47"/>
<path d="M46.0137 66.2936L46.1182 96.9792L69.3652 110.489L69.2512 79.8029L46.0137 66.2936Z" fill="#637786"/>
<path d="M69.25 79.8029L69.364 110.489L110.785 86.5765L110.671 55.8909L69.25 79.8029Z" fill="#64838D"/>
<path d="M46.0137 66.2936L69.2512 79.8029L110.672 55.8909L87.4251 42.3816L46.0137 66.2936Z" fill="#B6893D"/>
<path d="M41.8223 63.8059L41.8318 69.05L69.3539 85.0388L69.3444 79.8042L41.8223 63.8059Z" fill="#CCCABA"/>
<path d="M69.3457 79.8037L69.3552 85.0383L115.08 58.6372L115.08 53.4026L69.3457 79.8037Z" fill="#DBD8C6"/>
<path d="M41.8223 63.8049L69.3444 79.8032L115.078 53.4022L87.5468 37.4038L41.8223 63.8049Z" fill="#FDF9E3"/>
<path d="M60.7188 102.366L62.4383 101.368L62.4383 100.865L60.7188 101.862L60.7188 102.366Z" fill="#C2C2C2"/>
<path d="M60.7197 101.863L62.4392 100.865L49.88 93.8064L48.1699 94.8039L60.7197 101.863Z" fill="#FAFCFE"/>
<path d="M48.1699 94.8041L48.1699 95.3076L60.7197 102.366L60.7197 101.863L48.1699 94.8041Z" fill="#E9E9EA"/>
<path d="M50.7526 81.9509L50.2871 93.5792L61.9914 100.809L62.2004 88.4681L50.7526 81.9509Z" fill="#71C8E3"/>
<path d="M50.2871 93.577L50.7336 93.3205L50.7526 81.9488L50.3061 82.2053L50.2871 93.577Z" fill="#8C8C8C"/>
<path d="M61.2693 99.9241L61.7159 99.6581L50.7336 93.3215L50.2871 93.578L61.2693 99.9241Z" fill="#ACACAD"/>
<path d="M61.9629 101.121L62.4094 100.855L62.4379 87.8965L61.9914 88.1625L61.9629 101.121Z" fill="#C2C2C2"/>
<path d="M61.9943 88.1626L62.4408 87.8966L50.062 80.7524L49.625 81.0184L61.9943 88.1626Z" fill="#FAFCFE"/>
<path d="M61.9636 101.121L49.6133 93.9769L49.6133 81.0186L61.9636 88.1628L61.9636 101.121ZM50.2878 93.5779L61.27 99.9241L61.27 88.5238L50.3068 82.2157L50.3068 93.6159L50.2878 93.5779Z" fill="#E9E9EA"/>
<path d="M51.0287 79.9834L51.0287 80.5629L47.9316 85.6456L47.9316 85.0565L51.0287 79.9834Z" fill="#CECFD0"/>
<path d="M47.9311 85.058L47.9311 85.647L46.373 84.754L46.3825 84.165L47.9311 85.058Z" fill="#9F9FA0"/>
<path d="M51.0284 79.9847L47.9313 85.0578L46.3828 84.1647L49.7174 79.2246L51.0284 79.9847Z" fill="#FAFCFE"/>
<path d="M52.5775 80.8763L52.5775 81.4559L49.4805 86.5385L49.4805 85.9495L52.5775 80.8763Z" fill="#BD4830"/>
<path d="M49.4802 85.9503L49.4802 86.5393L47.9316 85.6463L47.9316 85.0573L49.4802 85.9503Z" fill="#BA5E6E"/>
<path d="M52.5772 80.8769L49.4802 85.95L47.9316 85.057L51.0287 79.9839L52.5772 80.8769Z" fill="#D18882"/>
<path d="M54.1261 81.7795L54.1261 82.3496L51.0195 87.4322L51.029 86.8432L54.1261 81.7795Z" fill="#CECFD0"/>
<path d="M51.029 86.8436L51.0195 87.4327L49.4805 86.5396L49.4805 85.9506L51.029 86.8436Z" fill="#9F9FA0"/>
<path d="M54.1261 81.7802L51.029 86.8438L49.4805 85.9508L52.5775 80.8777L54.1261 81.7802Z" fill="#FAFCFE"/>
<path d="M55.6749 82.6631L52.5778 87.7362L51.0293 86.8432L54.1264 81.7795L55.6749 82.6631Z" fill="#D18882"/>
<path d="M55.6752 82.6641L55.6752 83.2436L52.5781 88.3357L52.5781 87.7372L55.6752 82.6641Z" fill="#BD4830"/>
<path d="M52.5776 87.7361L52.5776 88.3346L51.0195 87.4321L51.029 86.8431L52.5776 87.7361Z" fill="#BA5E6E"/>
<path d="M57.2145 83.5564L57.224 84.1454L54.127 89.228L54.127 88.6295L57.2145 83.5564Z" fill="#CECFD0"/>
<path d="M54.1267 88.6303L54.1267 89.2288L52.5781 88.3358L52.5781 87.7373L54.1267 88.6303Z" fill="#9F9FA0"/>
<path d="M57.2142 83.5571L54.1267 88.6302L52.5781 87.7372L55.6752 82.6641L57.2142 83.5571Z" fill="#FAFCFE"/>
<path d="M58.7611 84.4487L58.7706 85.0282L55.6641 90.1203L55.6736 89.5218L58.7611 84.4487Z" fill="#BD4830"/>
<path d="M55.6735 89.5228L55.664 90.1214L54.125 89.2283L54.125 88.6298L55.6735 89.5228Z" fill="#BA5E6E"/>
<path d="M58.7611 84.4494L55.6735 89.5225L54.125 88.6295L57.2126 83.5564L58.7611 84.4494Z" fill="#D18882"/>
<path d="M60.3195 85.3513L60.3195 85.9308L57.2129 91.0134L57.2224 90.4149L60.3195 85.3513Z" fill="#CECFD0"/>
<path d="M57.2221 90.4155L57.2126 91.0141L55.6641 90.121L55.6736 89.5225L57.2221 90.4155Z" fill="#9F9FA0"/>
<path d="M60.3194 85.3515L57.2224 90.4151L55.6738 89.5221L58.7614 84.449L60.3194 85.3515Z" fill="#FAFCFE"/>
<path d="M61.8686 86.2429L61.8686 86.8224L58.7715 91.905L58.7715 91.316L61.8686 86.2429Z" fill="#BD4830"/>
<path d="M58.7709 91.3166L58.7709 91.9056L57.2129 91.0126L57.2224 90.4141L58.7709 91.3166Z" fill="#BA5E6E"/>
<path d="M61.8683 86.2441L58.7712 91.3172L57.2227 90.4147L60.3197 85.3511L61.8683 86.2441Z" fill="#D18882"/>
<path d="M63.4171 87.1377L63.4171 87.7172L60.3105 92.7998L60.32 92.2108L63.4171 87.1377Z" fill="#CECFD0"/>
<path d="M60.32 92.2117L60.3105 92.8007L58.7715 91.9077L58.7715 91.3187L60.32 92.2117Z" fill="#9F9FA0"/>
<path d="M63.4171 87.1381L60.32 92.2112L58.7715 91.3182L61.8686 86.2451L63.4171 87.1381Z" fill="#FAFCFE"/>
<path d="M94.8437 78.0835L94.8437 95.7919L86.5595 100.58L86.5215 82.8811L94.8437 78.0835Z" fill="#3C2E47"/>
<path d="M94.7779 96.2194L94.4169 96.0104L94.3789 78.302L94.7399 78.511L94.7779 96.2194Z" fill="#8C8C8C"/>
<path d="M86.389 101.075L86.0185 100.866L85.9805 82.6544L86.3415 82.8635L86.389 101.075Z" fill="#8C8C8C"/>
<path d="M86.3415 82.8633L85.9805 82.6543L94.8157 77.5432L95.1767 77.7522L86.3415 82.8633Z" fill="#FAFCFE"/>
<path d="M95.177 77.7517L95.215 95.9636L94.778 96.2201L94.74 78.5117L86.7883 83.1193L86.8263 100.818L86.3893 101.075L86.3418 82.8628L95.177 77.7517Z" fill="#E9E9EA"/>
<path d="M93.4969 89.7693L93.2213 89.6553C93.1831 89.6307 93.1386 89.6177 93.0931 89.6177C93.0476 89.6177 93.0031 89.6307 92.9648 89.6553L93.2498 89.8168C93.2871 89.7941 93.3298 89.7821 93.3733 89.7821C93.4169 89.7821 93.4596 89.7941 93.4969 89.8168L93.4969 89.7693Z" fill="#BFBBB3"/>
<path d="M93.2482 89.7991L92.9632 89.6376C92.8588 89.7027 92.7716 89.7919 92.7088 89.8977C92.6459 90.0035 92.6094 90.1228 92.6022 90.2456C92.599 90.2917 92.6078 90.3378 92.6278 90.3794C92.6477 90.4211 92.6782 90.4568 92.7162 90.4831L92.9917 90.6446C92.9563 90.6187 92.928 90.5842 92.9097 90.5442C92.8914 90.5043 92.8837 90.4604 92.8872 90.4166C92.8945 90.2925 92.9309 90.1719 92.9937 90.0645C93.0564 89.9572 93.1436 89.8663 93.2482 89.7991Z" fill="#BFBBB3"/>
<path d="M93.2477 89.7975C93.1431 89.8647 93.0559 89.9556 92.9932 90.0629C92.9304 90.1703 92.894 90.2909 92.8867 90.415C92.8867 90.6335 93.0482 90.7285 93.2477 90.6145C93.35 90.5457 93.435 90.4541 93.496 90.347C93.557 90.2399 93.5923 90.1201 93.5992 89.997C93.5992 89.769 93.4377 89.655 93.2477 89.7975Z" fill="#E4E0D6"/>
<path d="M98.1964 89.2367L96.4863 88.2486L96.4863 87.7356L98.2059 88.7331L98.1964 89.2367Z" fill="#C2C2C2"/>
<path d="M98.2078 88.7333L96.4883 87.7358L109.038 80.6772L110.758 81.6747L98.2078 88.7333Z" fill="#FAFCFE"/>
<path d="M110.757 81.675L110.757 82.188L98.1973 89.2371L98.2068 88.7336L110.757 81.675Z" fill="#CC9B6F"/>
<path d="M108.163 68.8316L108.638 80.4504L96.9336 87.68L96.7246 75.3487L108.163 68.8316Z" fill="#71C8E3"/>
<path d="M108.637 80.4486L108.191 80.1921L108.162 68.8299L108.609 69.0864L108.637 80.4486Z" fill="#8C8C8C"/>
<path d="M97.6457 86.7951L97.1992 86.5386L108.191 80.1925L108.637 80.449L97.6457 86.7951Z" fill="#ACACAD"/>
<path d="M96.9518 87.9921L96.5148 87.7356L96.4863 74.7773L96.9328 75.0338L96.9518 87.9921Z" fill="#C2C2C2"/>
<path d="M96.9328 75.034L96.4863 74.7775L108.856 67.6334L109.302 67.8899L96.9328 75.034Z" fill="#FAFCFE"/>
<path d="M96.9238 75.0339L109.274 67.8897L109.274 80.848L96.9238 87.9921L96.9238 75.0339ZM108.628 80.4585L108.628 69.0582L97.6268 75.4044L97.6268 86.8046L108.619 80.468L108.628 80.4585Z" fill="#E9E9EA"/>
<path d="M107.887 66.8638L107.887 67.4338L110.993 72.526L110.993 71.9274L107.887 66.8638Z" fill="#CECFD0"/>
<path d="M110.992 71.9282L110.992 72.5267L112.541 71.6337L112.541 71.0352L110.992 71.9282Z" fill="#9F9FA0"/>
<path d="M107.887 66.865L110.993 71.9286L112.542 71.0356L109.207 66.105L107.887 66.865Z" fill="#FAFCFE"/>
<path d="M106.338 67.7561L106.338 68.3261L109.444 73.4182L109.444 72.8292L106.338 67.7561Z" fill="#BD4830"/>
<path d="M109.443 72.8299L109.443 73.4189L110.992 72.5259L110.992 71.9274L109.443 72.8299Z" fill="#BA5E6E"/>
<path d="M106.338 67.7572L109.444 72.8303L110.993 71.9278L107.886 66.8642L106.338 67.7572Z" fill="#D18882"/>
<path d="M104.791 68.6487L104.791 69.2282L107.898 74.3108L107.888 73.7218L104.791 68.6487Z" fill="#CECFD0"/>
<path d="M107.887 73.7229L107.896 74.3119L109.445 73.4188L109.445 72.8298L107.887 73.7229Z" fill="#9F9FA0"/>
<path d="M104.791 68.6494L107.888 73.7225L109.446 72.8295L106.34 67.7563L104.791 68.6494Z" fill="#FAFCFE"/>
<path d="M103.252 69.5417L106.349 74.6148L107.888 73.7218L104.791 68.6487L103.252 69.5417Z" fill="#D18882"/>
<path d="M103.252 69.5427L103.242 70.1222L106.349 75.2048L106.349 74.6158L103.252 69.5427Z" fill="#BD4830"/>
<path d="M106.348 74.6149L106.348 75.204L107.896 74.3109L107.887 73.7219L106.348 74.6149Z" fill="#BA5E6E"/>
<path d="M101.703 70.4352L101.693 71.0147L104.8 76.0973L104.8 75.5083L101.703 70.4352Z" fill="#CECFD0"/>
<path d="M104.799 75.5092L104.799 76.0982L106.347 75.2052L106.347 74.6162L104.799 75.5092Z" fill="#9F9FA0"/>
<path d="M101.703 70.4357L104.8 75.5089L106.349 74.6158L103.252 69.5427L101.703 70.4357Z" fill="#FAFCFE"/>
<path d="M100.154 71.3297L100.145 71.9092L103.251 76.9918L103.251 76.4028L100.154 71.3297Z" fill="#BD4830"/>
<path d="M103.25 76.4038L103.25 76.9928L104.799 76.0998L104.799 75.5107L103.25 76.4038Z" fill="#BA5E6E"/>
<path d="M100.154 71.3303L103.251 76.4034L104.8 75.5104L101.703 70.4373L100.154 71.3303Z" fill="#D18882"/>
<path d="M98.5957 72.2215L98.6052 72.801L101.702 77.8931L101.702 77.2946L98.5957 72.2215Z" fill="#CECFD0"/>
<path d="M101.701 77.2955L101.701 77.894L103.25 76.9915L103.25 76.4025L101.701 77.2955Z" fill="#9F9FA0"/>
<path d="M98.5957 72.222L101.702 77.2951L103.251 76.4021L100.154 71.329L98.5957 72.222Z" fill="#FAFCFE"/>
<path d="M97.0469 73.1139L97.0564 73.6934L100.153 78.7855L100.153 78.187L97.0469 73.1139Z" fill="#BD4830"/>
<path d="M100.152 78.1879L100.152 78.7865L101.701 77.8934L101.701 77.2949L100.152 78.1879Z" fill="#BA5E6E"/>
<path d="M97.0469 73.1145L100.153 78.1876L101.702 77.2945L98.5954 72.2214L97.0469 73.1145Z" fill="#D18882"/>
<path d="M95.5 74.0084L95.5095 74.5879L98.6066 79.68L98.6066 79.0815L95.5 74.0084Z" fill="#CECFD0"/>
<path d="M98.6055 79.0825L98.6055 79.681L100.154 78.788L100.154 78.1895L98.6055 79.0825Z" fill="#9F9FA0"/>
<path d="M95.5 74.009L98.6066 79.0821L100.155 78.1891L97.0485 73.116L95.5 74.009Z" fill="#FAFCFE"/>
<path d="M72.3367 104.22L70.6172 103.222L70.6172 102.709L72.3367 103.707L72.3367 104.22Z" fill="#C2C2C2"/>
<path d="M72.3367 103.707L70.6172 102.71L83.167 95.6509L84.8865 96.6484L72.3367 103.707Z" fill="#FAFCFE"/>
<path d="M84.8857 96.6487L84.8857 97.1617L72.3359 104.22L72.3359 103.707L84.8857 96.6487Z" fill="#E9E9EA"/>
<path d="M82.3032 83.8029L82.7687 95.4311L71.0645 102.651L70.8555 90.32L82.3032 83.8029Z" fill="#71C8E3"/>
<path d="M82.7682 95.4313L82.3217 95.1653L82.3027 83.803L82.7492 84.0595L82.7682 95.4313Z" fill="#8C8C8C"/>
<path d="M71.7864 101.768L71.3398 101.512L82.3221 95.1658L82.7686 95.4318L71.7864 101.768Z" fill="#ACACAD"/>
<path d="M71.0922 102.965L70.6457 102.709L70.6172 89.7506L71.0637 90.0071L71.0922 102.965Z" fill="#C2C2C2"/>
<path d="M71.0637 90.0073L70.6172 89.7508L82.9865 82.6067L83.433 82.8632L71.0637 90.0073Z" fill="#FAFCFE"/>
<path d="M71.0625 90.0072L83.4128 82.863L83.4128 95.8213L71.091 102.956L71.0625 90.0072ZM82.7668 95.4223L82.7668 84.0221L71.756 90.4062L71.756 101.806L82.7668 95.4223Z" fill="#E9E9EA"/>
<path d="M82.0273 81.8353L82.0273 82.4053L85.1244 87.4974L85.1244 86.8989L82.0273 81.8353Z" fill="#CECFD0"/>
<path d="M85.125 86.8996L85.125 87.4981L86.6735 86.6051L86.6735 86.0066L85.125 86.8996Z" fill="#9F9FA0"/>
<path d="M82.0273 81.8364L85.1244 86.9L86.6729 86.007L83.3384 81.0764L82.0273 81.8364Z" fill="#FAFCFE"/>
<path d="M80.4785 82.7283L80.4785 83.2983L83.5756 88.3904L83.5756 87.8014L80.4785 82.7283Z" fill="#BD4830"/>
<path d="M83.5762 87.8019L83.5762 88.3909L85.1247 87.4979L85.1247 86.8994L83.5762 87.8019Z" fill="#BA5E6E"/>
<path d="M80.4785 82.7287L83.5756 87.8018L85.1241 86.8993L82.0271 81.8357L80.4785 82.7287Z" fill="#D18882"/>
<path d="M78.9316 83.6226L78.9316 84.2021L82.0287 89.2847L82.0287 88.6957L78.9316 83.6226Z" fill="#CECFD0"/>
<path d="M82.0273 88.6967L82.0273 89.2857L83.5759 88.3927L83.5759 87.8037L82.0273 88.6967Z" fill="#9F9FA0"/>
<path d="M78.9316 83.6232L82.0287 88.6964L83.5772 87.8033L80.4802 82.7302L78.9316 83.6232Z" fill="#FAFCFE"/>
<path d="M77.3828 84.5156L80.4799 89.5887L82.0284 88.6957L78.9313 83.6226L77.3828 84.5156Z" fill="#D18882"/>
<path d="M77.3828 84.5166L77.3828 85.0961L80.4799 90.1787L80.4799 89.5897L77.3828 84.5166Z" fill="#BD4830"/>
<path d="M80.4805 89.5888L80.4805 90.1778L82.029 89.2848L82.029 88.6958L80.4805 89.5888Z" fill="#BA5E6E"/>
<path d="M75.8435 85.3992L75.834 85.9882L78.9311 91.0708L78.9311 90.4818L75.8435 85.3992Z" fill="#CECFD0"/>
<path d="M78.9316 90.4831L78.9316 91.0721L80.4802 90.1791L80.4802 89.5901L78.9316 90.4831Z" fill="#9F9FA0"/>
<path d="M75.8438 85.4001L78.9313 90.4827L80.4798 89.5897L77.3828 84.5166L75.8438 85.4001Z" fill="#FAFCFE"/>
<path d="M74.2852 86.3009L74.2852 86.8804L77.3822 91.963L77.3822 91.374L74.2852 86.3009Z" fill="#BD4830"/>
<path d="M77.3828 91.375L77.3828 91.964L78.9313 91.0709L78.9313 90.4819L77.3828 91.375Z" fill="#BA5E6E"/>
<path d="M74.2852 86.301L77.3822 91.3741L78.9308 90.481L75.8432 85.3984L74.2852 86.301Z" fill="#D18882"/>
<path d="M72.7266 87.1933L72.7361 87.7728L75.8331 92.8554L75.8331 92.2664L72.7266 87.1933Z" fill="#CECFD0"/>
<path d="M75.832 92.2673L75.832 92.8564L77.3806 91.9633L77.3806 91.3743L75.832 92.2673Z" fill="#9F9FA0"/>
<path d="M72.7266 87.1939L75.8331 92.267L77.3817 91.374L74.2846 86.3008L72.7266 87.1939Z" fill="#FAFCFE"/>
<path d="M71.1875 88.0879L71.1875 88.6674L74.2846 93.75L74.2846 93.161L71.1875 88.0879Z" fill="#BD4830"/>
<path d="M74.2852 93.162L74.2852 93.751L75.8337 92.858L75.8337 92.269L74.2852 93.162Z" fill="#BA5E6E"/>
<path d="M71.1875 88.0885L74.2846 93.1616L75.8331 92.2686L72.7265 87.1955L71.1875 88.0885Z" fill="#D18882"/>
<path d="M69.6406 88.9789L69.6406 89.5584L72.7377 94.6505L72.7377 94.052L69.6406 88.9789Z" fill="#CECFD0"/>
<path d="M72.7383 94.0534L72.7383 94.6519L74.2868 93.7494L74.2868 93.1604L72.7383 94.0534Z" fill="#9F9FA0"/>
<path d="M69.6426 88.9799L72.7396 94.053L74.2882 93.16L71.1911 88.0869L69.6426 88.9799Z" fill="#FAFCFE"/>
<path d="M89.0117 105.178L87.8337 104.513L87.8242 102.043L89.0117 102.718L89.0117 105.178Z" fill="#C2C2C2"/>
<path d="M89.0117 102.718L87.8242 102.044L96.3554 97.1133L97.5334 97.7783L89.0117 102.718Z" fill="#FAFCFE"/>
<path d="M97.5334 97.7793L97.5334 100.249L89.0117 105.18L89.0117 102.719L97.5334 97.7793Z" fill="#E9E9EA"/>
<path d="M90.1973 105.842L89.0098 105.177L89.0098 103.8L90.1973 104.474L90.1973 105.842Z" fill="#C2C2C2"/>
<path d="M90.1992 104.475L89.0117 103.8L97.5429 98.8698L98.7209 99.5443L90.1992 104.475Z" fill="#FAFCFE"/>
<path d="M98.719 99.5434L98.719 100.911L90.1973 105.842L90.1973 104.474L98.719 99.5434Z" fill="#E9E9EA"/>
<path d="M97.7395 63.0251L96.5615 62.3411L93.5879 64.0606L94.7659 64.7446L97.7395 63.0251Z" fill="#C46062"/>
<path d="M93.8648 63.8809L92.6868 63.1969C92.0762 62.9192 91.403 62.8081 90.7356 62.8748C90.0681 62.9416 89.4302 63.1838 88.8867 63.5769L90.0552 64.2609C90.5998 63.8661 91.2394 63.6229 91.9087 63.5561C92.578 63.4893 93.253 63.6014 93.8648 63.8809Z" fill="#C46062"/>
<path d="M93.8629 63.8808L92.6848 63.1968C92.0743 62.9192 91.401 62.808 90.7336 62.8748C90.0662 62.9415 89.4283 63.1838 88.8848 63.5768L90.0533 64.2609C90.5968 63.8678 91.2347 63.6255 91.9021 63.5588C92.5696 63.4921 93.2428 63.6032 93.8534 63.8808L93.8629 63.8808Z" fill="#E1697E"/>
<path d="M90.0456 64.2593L88.8771 63.5753C86.6803 64.9658 85.009 67.0482 84.127 69.4939L85.305 70.1779C86.1865 67.7347 87.8538 65.6531 90.0456 64.2593Z" fill="#C46062"/>
<path d="M90.0456 64.2597L88.8771 63.5757C86.6803 64.9663 85.009 67.0486 84.127 69.4943L85.305 70.1784C86.1741 67.7421 87.8241 65.6613 89.9981 64.2597L90.0456 64.2597Z" fill="#E1697E"/>
<path d="M82.3789 71.8978L81.1914 71.2138L81.2104 77.5029L82.3884 78.1869L82.3789 71.8978Z" fill="#C46062"/>
<path d="M85.3525 70.179L84.1745 69.4949L81.1914 71.2145L82.3789 71.8985L85.3525 70.179Z" fill="#C46062"/>
<path d="M90.0456 64.2595C87.8715 65.6611 86.2216 67.7418 85.3525 70.1781L82.3789 71.8976L82.3789 78.1868L97.7502 69.3136L97.7502 63.0244L94.7767 64.744C93.8457 63.357 92.0786 63.0529 90.0456 64.2595Z" fill="#D18882"/>
<path d="M83.623 73.1144C83.6292 72.7445 83.7292 72.3822 83.9137 72.0615C84.0981 71.7408 84.361 71.4722 84.6776 71.2808C85.1697 70.9113 85.7374 70.655 86.3401 70.5303L86.3401 71.4803C85.9981 71.6323 85.3901 71.9553 85.0576 72.1548C84.7251 72.3543 84.6586 72.4018 84.6586 72.6584L84.6586 72.7249C84.6586 72.9149 84.6586 73.0004 84.9816 72.8389L85.4851 72.5444C86.2926 72.0788 86.4826 72.7819 86.4826 73.2759L86.4826 73.5039C86.5113 73.9077 86.4248 74.3113 86.2331 74.6679C86.0413 75.0244 85.7523 75.3192 85.3996 75.5179C84.9081 75.8807 84.3444 76.1334 83.7466 76.2589L83.7466 75.3089C83.9556 75.2139 84.6301 74.8624 85.1336 74.5774C85.3616 74.4444 85.4471 74.3304 85.4471 74.1404L85.4471 74.0454C85.4471 73.8649 85.4471 73.7984 85.1621 73.9314L84.6776 74.2164C83.623 74.7674 83.623 73.7794 83.623 73.5039L83.623 73.1144Z" fill="#FAFCFE"/>
<path d="M86.8073 70.0638L87.8428 69.4653L87.8428 71.2608L88.7928 70.7383L88.7928 68.9428L89.8283 68.3443L89.8283 72.8569L88.7453 73.5029L88.7453 71.8118L87.7953 72.3344L87.7953 73.9779L86.7598 74.5764L86.8073 70.0638Z" fill="#FAFCFE"/>
<path d="M91.7752 67.1572C92.7252 66.6252 93.3997 66.4352 93.3997 68.5442C93.3997 70.6533 92.7442 71.1758 91.7752 71.7268C90.8062 72.2778 90.1602 72.4678 90.1602 70.4158C90.1602 68.3637 90.8822 67.6797 91.7752 67.1572ZM91.7752 70.6533C92.2407 70.3968 92.3642 70.1023 92.3642 69.1428C92.3642 68.1832 92.2692 67.9552 91.7752 68.1927C91.2812 68.4302 91.2242 68.7532 91.2242 69.8173C91.2242 70.7578 91.2242 70.9573 91.7752 70.6533Z" fill="#FAFCFE"/>
<path d="M93.7598 66.0465L95.4983 65.0395C96.0493 64.726 96.7048 64.498 96.7048 65.809C96.7563 66.2586 96.6681 66.7131 96.4522 67.1108C96.2363 67.5085 95.9033 67.8302 95.4983 68.032C95.2721 68.1433 95.0369 68.2355 94.7953 68.3075L94.7953 69.9606L93.7598 70.5591L93.7598 66.0465ZM95.3938 67.082C95.4962 67.0092 95.5763 66.9093 95.6249 66.7935C95.6736 66.6777 95.689 66.5506 95.6693 66.4265C95.6693 66.1225 95.5838 66.018 95.3938 66.1225L94.7953 66.4645L94.7953 67.4145L95.3938 67.082Z" fill="#FAFCFE"/>
</g>
<defs>
<clipPath id="clip0_676_7550">
<rect width="73.2561" height="77.7782" fill="white" transform="translate(41.8242 37.4041)"/>
</clipPath>
</defs>
</svg>
